<?xml version="1.0" encoding="utf-8" standalone="no"?>
<!DOCTYPE svg PUBLIC "-//W3C//DTD SVG 1.1//EN"
  "http://www.w3.org/Graphics/SVG/1.1/DTD/svg11.dtd">
<svg xmlns:xlink="http://www.w3.org/1999/xlink" width="691.89125pt" height="318.591225pt" viewBox="0 0 691.89125 318.591225" xmlns="http://www.w3.org/2000/svg" version="1.1">
 <metadata>
  <rdf:RDF xmlns:dc="http://purl.org/dc/elements/1.1/" xmlns:cc="http://creativecommons.org/ns#" xmlns:rdf="http://www.w3.org/1999/02/22-rdf-syntax-ns#">
   <cc:Work>
    <dc:type rdf:resource="http://purl.org/dc/dcmitype/StillImage"/>
    <dc:date>2022-07-22T10:50:38.680391</dc:date>
    <dc:format>image/svg+xml</dc:format>
    <dc:creator>
     <cc:Agent>
      <dc:title>Matplotlib v3.5.1, https://matplotlib.org/</dc:title>
     </cc:Agent>
    </dc:creator>
   </cc:Work>
  </rdf:RDF>
 </metadata>
 <defs>
  <style type="text/css">*{stroke-linejoin: round; stroke-linecap: butt}</style>
 </defs>
 <g id="figure_1">
  <g id="patch_1">
   <path d="M 0 318.591225 
L 691.89125 318.591225 
L 691.89125 0 
L 0 0 
L 0 318.591225 
z
" style="fill: none"/>
  </g>
  <g id="axes_1">
   <g id="patch_2">
    <path d="M 49.83 279 
L 607.83 279 
L 607.83 7.2 
L 49.83 7.2 
L 49.83 279 
z
" style="fill: none"/>
   </g>
   <g id="matplotlib.axis_1">
    <g id="xtick_1">
     <g id="line2d_1">
      <defs>
       <path id="m8949a2ead7" d="M 0 0 
L 0 3.5 
" style="stroke: #b0b0b0; stroke-width: 0.4"/>
      </defs>
      <g>
       <use xlink:href="#m8949a2ead7" x="89.290773" y="279" style="fill: #b0b0b0; stroke: #b0b0b0; stroke-width: 0.4"/>
      </g>
     </g>
     <g id="text_1">
      <!-- 2020-04 -->
      <g style="fill: #b0b0b0" transform="translate(60.042805 296.637812)scale(0.14 -0.14)">
       <defs>
        <path id="DejaVuSans-32" d="M 1228 531 
L 3431 531 
L 3431 0 
L 469 0 
L 469 531 
Q 828 903 1448 1529 
Q 2069 2156 2228 2338 
Q 2531 2678 2651 2914 
Q 2772 3150 2772 3378 
Q 2772 3750 2511 3984 
Q 2250 4219 1831 4219 
Q 1534 4219 1204 4116 
Q 875 4013 500 3803 
L 500 4441 
Q 881 4594 1212 4672 
Q 1544 4750 1819 4750 
Q 2544 4750 2975 4387 
Q 3406 4025 3406 3419 
Q 3406 3131 3298 2873 
Q 3191 2616 2906 2266 
Q 2828 2175 2409 1742 
Q 1991 1309 1228 531 
z
" transform="scale(0.015625)"/>
        <path id="DejaVuSans-30" d="M 2034 4250 
Q 1547 4250 1301 3770 
Q 1056 3291 1056 2328 
Q 1056 1369 1301 889 
Q 1547 409 2034 409 
Q 2525 409 2770 889 
Q 3016 1369 3016 2328 
Q 3016 3291 2770 3770 
Q 2525 4250 2034 4250 
z
M 2034 4750 
Q 2819 4750 3233 4129 
Q 3647 3509 3647 2328 
Q 3647 1150 3233 529 
Q 2819 -91 2034 -91 
Q 1250 -91 836 529 
Q 422 1150 422 2328 
Q 422 3509 836 4129 
Q 1250 4750 2034 4750 
z
" transform="scale(0.015625)"/>
        <path id="DejaVuSans-2d" d="M 313 2009 
L 1997 2009 
L 1997 1497 
L 313 1497 
L 313 2009 
z
" transform="scale(0.015625)"/>
        <path id="DejaVuSans-34" d="M 2419 4116 
L 825 1625 
L 2419 1625 
L 2419 4116 
z
M 2253 4666 
L 3047 4666 
L 3047 1625 
L 3713 1625 
L 3713 1100 
L 3047 1100 
L 3047 0 
L 2419 0 
L 2419 1100 
L 313 1100 
L 313 1709 
L 2253 4666 
z
" transform="scale(0.015625)"/>
       </defs>
       <use xlink:href="#DejaVuSans-32"/>
       <use xlink:href="#DejaVuSans-30" x="63.623047"/>
       <use xlink:href="#DejaVuSans-32" x="127.246094"/>
       <use xlink:href="#DejaVuSans-30" x="190.869141"/>
       <use xlink:href="#DejaVuSans-2d" x="254.492188"/>
       <use xlink:href="#DejaVuSans-30" x="290.576172"/>
       <use xlink:href="#DejaVuSans-34" x="354.199219"/>
      </g>
     </g>
    </g>
    <g id="xtick_2">
     <g id="line2d_2">
      <g>
       <use xlink:href="#m8949a2ead7" x="145.399061" y="279" style="fill: #b0b0b0; stroke: #b0b0b0; stroke-width: 0.4"/>
      </g>
     </g>
     <g id="text_2">
      <!-- 2020-07 -->
      <g style="fill: #b0b0b0" transform="translate(116.151092 296.637812)scale(0.14 -0.14)">
       <defs>
        <path id="DejaVuSans-37" d="M 525 4666 
L 3525 4666 
L 3525 4397 
L 1831 0 
L 1172 0 
L 2766 4134 
L 525 4134 
L 525 4666 
z
" transform="scale(0.015625)"/>
       </defs>
       <use xlink:href="#DejaVuSans-32"/>
       <use xlink:href="#DejaVuSans-30" x="63.623047"/>
       <use xlink:href="#DejaVuSans-32" x="127.246094"/>
       <use xlink:href="#DejaVuSans-30" x="190.869141"/>
       <use xlink:href="#DejaVuSans-2d" x="254.492188"/>
       <use xlink:href="#DejaVuSans-30" x="290.576172"/>
       <use xlink:href="#DejaVuSans-37" x="354.199219"/>
      </g>
     </g>
    </g>
    <g id="xtick_3">
     <g id="line2d_3">
      <g>
       <use xlink:href="#m8949a2ead7" x="202.123923" y="279" style="fill: #b0b0b0; stroke: #b0b0b0; stroke-width: 0.4"/>
      </g>
     </g>
     <g id="text_3">
      <!-- 2020-10 -->
      <g style="fill: #b0b0b0" transform="translate(172.875954 296.637812)scale(0.14 -0.14)">
       <defs>
        <path id="DejaVuSans-31" d="M 794 531 
L 1825 531 
L 1825 4091 
L 703 3866 
L 703 4441 
L 1819 4666 
L 2450 4666 
L 2450 531 
L 3481 531 
L 3481 0 
L 794 0 
L 794 531 
z
" transform="scale(0.015625)"/>
       </defs>
       <use xlink:href="#DejaVuSans-32"/>
       <use xlink:href="#DejaVuSans-30" x="63.623047"/>
       <use xlink:href="#DejaVuSans-32" x="127.246094"/>
       <use xlink:href="#DejaVuSans-30" x="190.869141"/>
       <use xlink:href="#DejaVuSans-2d" x="254.492188"/>
       <use xlink:href="#DejaVuSans-31" x="290.576172"/>
       <use xlink:href="#DejaVuSans-30" x="354.199219"/>
      </g>
     </g>
    </g>
    <g id="xtick_4">
     <g id="line2d_4">
      <g>
       <use xlink:href="#m8949a2ead7" x="258.848785" y="279" style="fill: #b0b0b0; stroke: #b0b0b0; stroke-width: 0.4"/>
      </g>
     </g>
     <g id="text_4">
      <!-- 2021-01 -->
      <g style="fill: #b0b0b0" transform="translate(229.600816 296.637812)scale(0.14 -0.14)">
       <use xlink:href="#DejaVuSans-32"/>
       <use xlink:href="#DejaVuSans-30" x="63.623047"/>
       <use xlink:href="#DejaVuSans-32" x="127.246094"/>
       <use xlink:href="#DejaVuSans-31" x="190.869141"/>
       <use xlink:href="#DejaVuSans-2d" x="254.492188"/>
       <use xlink:href="#DejaVuSans-30" x="290.576172"/>
       <use xlink:href="#DejaVuSans-31" x="354.199219"/>
      </g>
     </g>
    </g>
    <g id="xtick_5">
     <g id="line2d_5">
      <g>
       <use xlink:href="#m8949a2ead7" x="314.340497" y="279" style="fill: #b0b0b0; stroke: #b0b0b0; stroke-width: 0.4"/>
      </g>
     </g>
     <g id="text_5">
      <!-- 2021-04 -->
      <g style="fill: #b0b0b0" transform="translate(285.092528 296.637812)scale(0.14 -0.14)">
       <use xlink:href="#DejaVuSans-32"/>
       <use xlink:href="#DejaVuSans-30" x="63.623047"/>
       <use xlink:href="#DejaVuSans-32" x="127.246094"/>
       <use xlink:href="#DejaVuSans-31" x="190.869141"/>
       <use xlink:href="#DejaVuSans-2d" x="254.492188"/>
       <use xlink:href="#DejaVuSans-30" x="290.576172"/>
       <use xlink:href="#DejaVuSans-34" x="354.199219"/>
      </g>
     </g>
    </g>
    <g id="xtick_6">
     <g id="line2d_6">
      <g>
       <use xlink:href="#m8949a2ead7" x="370.448785" y="279" style="fill: #b0b0b0; stroke: #b0b0b0; stroke-width: 0.4"/>
      </g>
     </g>
     <g id="text_6">
      <!-- 2021-07 -->
      <g style="fill: #b0b0b0" transform="translate(341.200816 296.637812)scale(0.14 -0.14)">
       <use xlink:href="#DejaVuSans-32"/>
       <use xlink:href="#DejaVuSans-30" x="63.623047"/>
       <use xlink:href="#DejaVuSans-32" x="127.246094"/>
       <use xlink:href="#DejaVuSans-31" x="190.869141"/>
       <use xlink:href="#DejaVuSans-2d" x="254.492188"/>
       <use xlink:href="#DejaVuSans-30" x="290.576172"/>
       <use xlink:href="#DejaVuSans-37" x="354.199219"/>
      </g>
     </g>
    </g>
    <g id="xtick_7">
     <g id="line2d_7">
      <g>
       <use xlink:href="#m8949a2ead7" x="427.173646" y="279" style="fill: #b0b0b0; stroke: #b0b0b0; stroke-width: 0.4"/>
      </g>
     </g>
     <g id="text_7">
      <!-- 2021-10 -->
      <g style="fill: #b0b0b0" transform="translate(397.925678 296.637812)scale(0.14 -0.14)">
       <use xlink:href="#DejaVuSans-32"/>
       <use xlink:href="#DejaVuSans-30" x="63.623047"/>
       <use xlink:href="#DejaVuSans-32" x="127.246094"/>
       <use xlink:href="#DejaVuSans-31" x="190.869141"/>
       <use xlink:href="#DejaVuSans-2d" x="254.492188"/>
       <use xlink:href="#DejaVuSans-31" x="290.576172"/>
       <use xlink:href="#DejaVuSans-30" x="354.199219"/>
      </g>
     </g>
    </g>
    <g id="xtick_8">
     <g id="line2d_8">
      <g>
       <use xlink:href="#m8949a2ead7" x="483.898508" y="279" style="fill: #b0b0b0; stroke: #b0b0b0; stroke-width: 0.4"/>
      </g>
     </g>
     <g id="text_8">
      <!-- 2022-01 -->
      <g style="fill: #b0b0b0" transform="translate(454.65054 296.637812)scale(0.14 -0.14)">
       <use xlink:href="#DejaVuSans-32"/>
       <use xlink:href="#DejaVuSans-30" x="63.623047"/>
       <use xlink:href="#DejaVuSans-32" x="127.246094"/>
       <use xlink:href="#DejaVuSans-32" x="190.869141"/>
       <use xlink:href="#DejaVuSans-2d" x="254.492188"/>
       <use xlink:href="#DejaVuSans-30" x="290.576172"/>
       <use xlink:href="#DejaVuSans-31" x="354.199219"/>
      </g>
     </g>
    </g>
    <g id="xtick_9">
     <g id="line2d_9">
      <g>
       <use xlink:href="#m8949a2ead7" x="539.390221" y="279" style="fill: #b0b0b0; stroke: #b0b0b0; stroke-width: 0.4"/>
      </g>
     </g>
     <g id="text_9">
      <!-- 2022-04 -->
      <g style="fill: #b0b0b0" transform="translate(510.142252 296.637812)scale(0.14 -0.14)">
       <use xlink:href="#DejaVuSans-32"/>
       <use xlink:href="#DejaVuSans-30" x="63.623047"/>
       <use xlink:href="#DejaVuSans-32" x="127.246094"/>
       <use xlink:href="#DejaVuSans-32" x="190.869141"/>
       <use xlink:href="#DejaVuSans-2d" x="254.492188"/>
       <use xlink:href="#DejaVuSans-30" x="290.576172"/>
       <use xlink:href="#DejaVuSans-34" x="354.199219"/>
      </g>
     </g>
    </g>
    <g id="xtick_10">
     <g id="line2d_10">
      <g>
       <use xlink:href="#m8949a2ead7" x="595.498508" y="279" style="fill: #b0b0b0; stroke: #b0b0b0; stroke-width: 0.4"/>
      </g>
     </g>
     <g id="text_10">
      <!-- 2022-07 -->
      <g style="fill: #b0b0b0" transform="translate(566.25054 296.637812)scale(0.14 -0.14)">
       <use xlink:href="#DejaVuSans-32"/>
       <use xlink:href="#DejaVuSans-30" x="63.623047"/>
       <use xlink:href="#DejaVuSans-32" x="127.246094"/>
       <use xlink:href="#DejaVuSans-32" x="190.869141"/>
       <use xlink:href="#DejaVuSans-2d" x="254.492188"/>
       <use xlink:href="#DejaVuSans-30" x="290.576172"/>
       <use xlink:href="#DejaVuSans-37" x="354.199219"/>
      </g>
     </g>
    </g>
   </g>
   <g id="matplotlib.axis_2">
    <g id="ytick_1">
     <g id="line2d_11">
      <path d="M 49.83 279 
L 607.83 279 
" clip-path="url(#p83925bb7e6)" style="fill: none; stroke: #b0b0b0; stroke-width: 0.3; stroke-linecap: square"/>
     </g>
     <g id="line2d_12">
      <defs>
       <path id="m1b53c9957b" d="M 0 0 
L -3.5 0 
" style="stroke: #b0b0b0; stroke-width: 0.3"/>
      </defs>
      <g>
       <use xlink:href="#m1b53c9957b" x="49.83" y="279" style="fill: #b0b0b0; stroke: #b0b0b0; stroke-width: 0.3"/>
      </g>
     </g>
     <g id="text_11">
      <!-- 0 -->
      <g style="fill: #b0b0b0" transform="translate(33.9225 284.318906)scale(0.14 -0.14)">
       <use xlink:href="#DejaVuSans-30"/>
      </g>
     </g>
    </g>
    <g id="ytick_2">
     <g id="line2d_13">
      <path d="M 49.83 246.565632 
L 607.83 246.565632 
" clip-path="url(#p83925bb7e6)" style="fill: none; stroke: #b0b0b0; stroke-width: 0.3; stroke-linecap: square"/>
     </g>
     <g id="line2d_14">
      <g>
       <use xlink:href="#m1b53c9957b" x="49.83" y="246.565632" style="fill: #b0b0b0; stroke: #b0b0b0; stroke-width: 0.3"/>
      </g>
     </g>
     <g id="text_12">
      <!-- 500 -->
      <g style="fill: #b0b0b0" transform="translate(16.1075 251.884539)scale(0.14 -0.14)">
       <defs>
        <path id="DejaVuSans-35" d="M 691 4666 
L 3169 4666 
L 3169 4134 
L 1269 4134 
L 1269 2991 
Q 1406 3038 1543 3061 
Q 1681 3084 1819 3084 
Q 2600 3084 3056 2656 
Q 3513 2228 3513 1497 
Q 3513 744 3044 326 
Q 2575 -91 1722 -91 
Q 1428 -91 1123 -41 
Q 819 9 494 109 
L 494 744 
Q 775 591 1075 516 
Q 1375 441 1709 441 
Q 2250 441 2565 725 
Q 2881 1009 2881 1497 
Q 2881 1984 2565 2268 
Q 2250 2553 1709 2553 
Q 1456 2553 1204 2497 
Q 953 2441 691 2322 
L 691 4666 
z
" transform="scale(0.015625)"/>
       </defs>
       <use xlink:href="#DejaVuSans-35"/>
       <use xlink:href="#DejaVuSans-30" x="63.623047"/>
       <use xlink:href="#DejaVuSans-30" x="127.246094"/>
      </g>
     </g>
    </g>
    <g id="ytick_3">
     <g id="line2d_15">
      <path d="M 49.83 214.131265 
L 607.83 214.131265 
" clip-path="url(#p83925bb7e6)" style="fill: none; stroke: #b0b0b0; stroke-width: 0.3; stroke-linecap: square"/>
     </g>
     <g id="line2d_16">
      <g>
       <use xlink:href="#m1b53c9957b" x="49.83" y="214.131265" style="fill: #b0b0b0; stroke: #b0b0b0; stroke-width: 0.3"/>
      </g>
     </g>
     <g id="text_13">
      <!-- 1000 -->
      <g style="fill: #b0b0b0" transform="translate(7.2 219.450171)scale(0.14 -0.14)">
       <use xlink:href="#DejaVuSans-31"/>
       <use xlink:href="#DejaVuSans-30" x="63.623047"/>
       <use xlink:href="#DejaVuSans-30" x="127.246094"/>
       <use xlink:href="#DejaVuSans-30" x="190.869141"/>
      </g>
     </g>
    </g>
    <g id="ytick_4">
     <g id="line2d_17">
      <path d="M 49.83 181.696897 
L 607.83 181.696897 
" clip-path="url(#p83925bb7e6)" style="fill: none; stroke: #b0b0b0; stroke-width: 0.3; stroke-linecap: square"/>
     </g>
     <g id="line2d_18">
      <g>
       <use xlink:href="#m1b53c9957b" x="49.83" y="181.696897" style="fill: #b0b0b0; stroke: #b0b0b0; stroke-width: 0.3"/>
      </g>
     </g>
     <g id="text_14">
      <!-- 1500 -->
      <g style="fill: #b0b0b0" transform="translate(7.2 187.015804)scale(0.14 -0.14)">
       <use xlink:href="#DejaVuSans-31"/>
       <use xlink:href="#DejaVuSans-35" x="63.623047"/>
       <use xlink:href="#DejaVuSans-30" x="127.246094"/>
       <use xlink:href="#DejaVuSans-30" x="190.869141"/>
      </g>
     </g>
    </g>
    <g id="ytick_5">
     <g id="line2d_19">
      <path d="M 49.83 149.26253 
L 607.83 149.26253 
" clip-path="url(#p83925bb7e6)" style="fill: none; stroke: #b0b0b0; stroke-width: 0.3; stroke-linecap: square"/>
     </g>
     <g id="line2d_20">
      <g>
       <use xlink:href="#m1b53c9957b" x="49.83" y="149.26253" style="fill: #b0b0b0; stroke: #b0b0b0; stroke-width: 0.3"/>
      </g>
     </g>
     <g id="text_15">
      <!-- 2000 -->
      <g style="fill: #b0b0b0" transform="translate(7.2 154.581436)scale(0.14 -0.14)">
       <use xlink:href="#DejaVuSans-32"/>
       <use xlink:href="#DejaVuSans-30" x="63.623047"/>
       <use xlink:href="#DejaVuSans-30" x="127.246094"/>
       <use xlink:href="#DejaVuSans-30" x="190.869141"/>
      </g>
     </g>
    </g>
    <g id="ytick_6">
     <g id="line2d_21">
      <path d="M 49.83 116.828162 
L 607.83 116.828162 
" clip-path="url(#p83925bb7e6)" style="fill: none; stroke: #b0b0b0; stroke-width: 0.3; stroke-linecap: square"/>
     </g>
     <g id="line2d_22">
      <g>
       <use xlink:href="#m1b53c9957b" x="49.83" y="116.828162" style="fill: #b0b0b0; stroke: #b0b0b0; stroke-width: 0.3"/>
      </g>
     </g>
     <g id="text_16">
      <!-- 2500 -->
      <g style="fill: #b0b0b0" transform="translate(7.2 122.147069)scale(0.14 -0.14)">
       <use xlink:href="#DejaVuSans-32"/>
       <use xlink:href="#DejaVuSans-35" x="63.623047"/>
       <use xlink:href="#DejaVuSans-30" x="127.246094"/>
       <use xlink:href="#DejaVuSans-30" x="190.869141"/>
      </g>
     </g>
    </g>
    <g id="ytick_7">
     <g id="line2d_23">
      <path d="M 49.83 84.393795 
L 607.83 84.393795 
" clip-path="url(#p83925bb7e6)" style="fill: none; stroke: #b0b0b0; stroke-width: 0.3; stroke-linecap: square"/>
     </g>
     <g id="line2d_24">
      <g>
       <use xlink:href="#m1b53c9957b" x="49.83" y="84.393795" style="fill: #b0b0b0; stroke: #b0b0b0; stroke-width: 0.3"/>
      </g>
     </g>
     <g id="text_17">
      <!-- 3000 -->
      <g style="fill: #b0b0b0" transform="translate(7.2 89.712701)scale(0.14 -0.14)">
       <defs>
        <path id="DejaVuSans-33" d="M 2597 2516 
Q 3050 2419 3304 2112 
Q 3559 1806 3559 1356 
Q 3559 666 3084 287 
Q 2609 -91 1734 -91 
Q 1441 -91 1130 -33 
Q 819 25 488 141 
L 488 750 
Q 750 597 1062 519 
Q 1375 441 1716 441 
Q 2309 441 2620 675 
Q 2931 909 2931 1356 
Q 2931 1769 2642 2001 
Q 2353 2234 1838 2234 
L 1294 2234 
L 1294 2753 
L 1863 2753 
Q 2328 2753 2575 2939 
Q 2822 3125 2822 3475 
Q 2822 3834 2567 4026 
Q 2313 4219 1838 4219 
Q 1578 4219 1281 4162 
Q 984 4106 628 3988 
L 628 4550 
Q 988 4650 1302 4700 
Q 1616 4750 1894 4750 
Q 2613 4750 3031 4423 
Q 3450 4097 3450 3541 
Q 3450 3153 3228 2886 
Q 3006 2619 2597 2516 
z
" transform="scale(0.015625)"/>
       </defs>
       <use xlink:href="#DejaVuSans-33"/>
       <use xlink:href="#DejaVuSans-30" x="63.623047"/>
       <use xlink:href="#DejaVuSans-30" x="127.246094"/>
       <use xlink:href="#DejaVuSans-30" x="190.869141"/>
      </g>
     </g>
    </g>
    <g id="ytick_8">
     <g id="line2d_25">
      <path d="M 49.83 51.959427 
L 607.83 51.959427 
" clip-path="url(#p83925bb7e6)" style="fill: none; stroke: #b0b0b0; stroke-width: 0.3; stroke-linecap: square"/>
     </g>
     <g id="line2d_26">
      <g>
       <use xlink:href="#m1b53c9957b" x="49.83" y="51.959427" style="fill: #b0b0b0; stroke: #b0b0b0; stroke-width: 0.3"/>
      </g>
     </g>
     <g id="text_18">
      <!-- 3500 -->
      <g style="fill: #b0b0b0" transform="translate(7.2 57.278333)scale(0.14 -0.14)">
       <use xlink:href="#DejaVuSans-33"/>
       <use xlink:href="#DejaVuSans-35" x="63.623047"/>
       <use xlink:href="#DejaVuSans-30" x="127.246094"/>
       <use xlink:href="#DejaVuSans-30" x="190.869141"/>
      </g>
     </g>
    </g>
    <g id="ytick_9">
     <g id="line2d_27">
      <path d="M 49.83 19.52506 
L 607.83 19.52506 
" clip-path="url(#p83925bb7e6)" style="fill: none; stroke: #b0b0b0; stroke-width: 0.3; stroke-linecap: square"/>
     </g>
     <g id="line2d_28">
      <g>
       <use xlink:href="#m1b53c9957b" x="49.83" y="19.52506" style="fill: #b0b0b0; stroke: #b0b0b0; stroke-width: 0.3"/>
      </g>
     </g>
     <g id="text_19">
      <!-- 4000 -->
      <g style="fill: #b0b0b0" transform="translate(7.2 24.843966)scale(0.14 -0.14)">
       <use xlink:href="#DejaVuSans-34"/>
       <use xlink:href="#DejaVuSans-30" x="63.623047"/>
       <use xlink:href="#DejaVuSans-30" x="127.246094"/>
       <use xlink:href="#DejaVuSans-30" x="190.869141"/>
      </g>
     </g>
    </g>
   </g>
   <g id="line2d_29">
    <path d="M 49.83 279 
L 346.402376 278.898063 
L 348.868674 278.592254 
L 350.101823 278.240109 
L 353.801271 277.989901 
L 357.500718 277.192942 
L 358.117293 277.165141 
L 362.433315 277.767494 
L 364.899613 277.934299 
L 365.516188 277.878698 
L 367.365912 278.212308 
L 367.982486 278.230842 
L 368.599061 278.38838 
L 369.215635 278.369847 
L 369.83221 278.545919 
L 371.681934 278.416181 
L 372.915083 278.499584 
L 374.148232 278.379114 
L 375.381381 278.499584 
L 380.930552 278.740525 
L 385.863149 278.842462 
L 390.795746 278.962932 
L 392.64547 278.935131 
L 393.878619 278.814661 
L 396.344917 278.759059 
L 398.194641 278.888796 
L 400.044365 278.953665 
L 401.894088 278.935131 
L 558.504033 278.888796 
L 560.970331 278.684923 
L 562.203481 278.740525 
L 562.820055 278.416181 
L 565.286354 278.332779 
L 565.902928 277.582155 
L 566.519503 277.406083 
L 567.136077 277.461684 
L 568.369227 276.914934 
L 569.602376 276.07164 
L 570.21895 276.275513 
L 570.835525 275.960436 
L 572.068674 275.821432 
L 573.301823 275.080075 
L 573.918398 274.366519 
L 574.534972 273.402755 
L 577.001271 271.37329 
L 577.617845 271.002612 
L 578.23442 270.85434 
L 578.850994 272.364855 
L 579.467569 270.817272 
L 581.933867 269.149219 
L 582.550442 268.491265 
L 583.167017 266.535936 
L 583.783591 267.583103 
L 584.400166 267.972315 
L 585.01674 267.981582 
L 585.633315 268.129853 
L 586.24989 268.528333 
L 586.866464 269.075084 
L 587.483039 269.353092 
L 588.099613 269.26969 
L 588.716188 268.945346 
L 589.332762 269.019482 
L 589.949337 268.760007 
L 591.182486 268.797075 
L 592.415635 269.427228 
L 593.03221 269.918377 
L 593.648785 270.029581 
L 594.265359 270.826539 
L 594.881934 271.271354 
L 595.498508 271.558629 
L 596.731657 272.494593 
L 597.348232 272.698466 
L 600.431105 272.652131 
L 601.04768 272.809669 
L 601.664254 272.559461 
L 602.897403 273.384221 
L 604.747127 273.903171 
L 605.363702 273.884637 
L 605.980276 274.329451 
L 606.596851 274.542591 
L 607.213425 274.468456 
L 607.83 274.598193 
L 607.83 274.598193 
" clip-path="url(#p83925bb7e6)" style="fill: none; stroke: #fe7b74; stroke-width: 1.5; stroke-linecap: square"/>
   </g>
   <g id="line2d_30">
    <path d="M 49.83 279 
L 84.974751 278.916597 
L 86.824475 278.814661 
L 88.674199 278.768326 
L 89.290773 278.57372 
L 91.757072 278.332779 
L 92.373646 278.036236 
L 93.606796 277.887965 
L 94.22337 277.572888 
L 95.456519 277.128074 
L 96.073094 276.850065 
L 96.689669 276.942734 
L 97.306243 276.748128 
L 98.539392 276.942734 
L 99.155967 276.775929 
L 100.389116 276.887133 
L 101.622265 276.664726 
L 102.23884 276.442318 
L 102.855414 276.470119 
L 104.088564 276.182844 
L 105.938287 275.636093 
L 107.171436 274.987405 
L 107.788011 274.894736 
L 108.404586 274.385053 
L 109.02116 274.273849 
L 109.637735 273.189615 
L 110.254309 272.652131 
L 111.487459 272.188783 
L 113.337182 271.391824 
L 113.953757 272.253652 
L 114.570331 272.309253 
L 115.186906 271.901507 
L 115.803481 271.957109 
L 117.03663 271.864439 
L 118.886354 270.780205 
L 119.502928 270.817272 
L 120.736077 269.983246 
L 121.352652 269.760839 
L 121.969227 269.742305 
L 123.202376 269.343825 
L 123.81895 268.806342 
L 124.435525 268.556134 
L 125.052099 267.379229 
L 126.901823 265.692642 
L 127.518398 265.238561 
L 128.134972 264.599141 
L 128.751547 263.690979 
L 129.368122 263.53344 
L 129.984696 262.68088 
L 130.601271 262.328735 
L 131.83442 261.198166 
L 132.450994 260.336338 
L 133.684144 258.28834 
L 134.300718 258.158602 
L 134.917293 257.565517 
L 135.533867 256.509083 
L 136.150442 240.514306 
L 136.767017 240.681111 
L 137.383591 241.237129 
L 138.61674 241.385401 
L 139.233315 240.273365 
L 139.84989 240.903519 
L 140.466464 255.156106 
L 141.699613 253.719727 
L 142.316188 253.636325 
L 142.932762 252.672561 
L 143.549337 253.274913 
L 144.165912 252.292615 
L 144.782486 251.903403 
L 145.399061 251.755131 
L 146.015635 252.014606 
L 146.63221 251.477122 
L 147.248785 249.595929 
L 148.481934 248.734102 
L 149.098508 248.956509 
L 149.715083 248.46536 
L 150.948232 246.862175 
L 151.564807 247.445994 
L 152.797956 245.935479 
L 154.031105 243.924548 
L 154.64768 241.950685 
L 155.264254 240.542107 
L 155.880829 240.606976 
L 156.497403 238.938923 
L 157.113978 238.64238 
L 157.730552 238.012226 
L 158.347127 233.156338 
L 158.963702 232.674456 
L 159.580276 231.877497 
L 160.196851 230.40405 
L 160.813425 230.126042 
L 161.43 229.64416 
L 162.046575 228.39312 
L 162.663149 231.794095 
L 163.279724 231.580955 
L 163.896298 231.247344 
L 164.512873 229.848033 
L 165.129448 229.292015 
L 165.746022 227.753699 
L 166.362597 227.086478 
L 168.21232 223.333358 
L 168.828895 223.259223 
L 169.44547 221.07222 
L 170.062044 220.442066 
L 170.678619 220.655206 
L 171.295193 220.303062 
L 171.911768 219.181759 
L 172.528343 218.597941 
L 173.144917 217.828783 
L 173.761492 218.440402 
L 174.378066 218.394068 
L 174.994641 216.012458 
L 175.611215 215.678848 
L 176.22779 215.901255 
L 176.844365 216.37387 
L 177.460939 216.670413 
L 178.077514 217.643444 
L 178.694088 217.902919 
L 179.310663 219.052022 
L 179.927238 217.782448 
L 181.160387 216.392404 
L 181.776961 216.058793 
L 182.393536 214.807753 
L 183.01011 215.076495 
L 183.626685 214.353672 
L 184.24326 215.020893 
L 184.859834 214.659482 
L 185.476409 214.029328 
L 186.092983 212.945094 
L 186.709558 212.52808 
L 187.326133 209.618254 
L 187.942707 208.969567 
L 189.175856 206.726962 
L 189.792431 205.689062 
L 190.409006 205.234981 
L 191.02558 204.122946 
L 191.642155 204.855036 
L 192.258729 203.233317 
L 193.491878 203.92834 
L 194.108453 203.502059 
L 194.725028 203.325987 
L 195.958177 203.390856 
L 196.574751 205.290583 
L 197.191326 205.318384 
L 197.807901 205.624194 
L 198.424475 207.088374 
L 199.04105 207.171776 
L 199.657624 208.01507 
L 200.274199 210.582018 
L 200.890773 209.710924 
L 201.507348 209.229042 
L 202.123923 209.655322 
L 202.740497 209.840661 
L 203.357072 211.545782 
L 203.973646 212.806089 
L 204.590221 211.805257 
L 205.82337 215.539843 
L 207.056519 218.078991 
L 207.673094 218.282864 
L 208.289669 219.08909 
L 208.906243 220.738609 
L 210.139392 225.807637 
L 210.755967 226.447058 
L 211.372541 227.271817 
L 211.989116 226.206117 
L 212.605691 228.402387 
L 213.222265 229.505155 
L 213.83884 229.625626 
L 214.455414 229.421752 
L 215.688564 233.054402 
L 216.305138 237.270869 
L 217.538287 239.105728 
L 218.771436 242.756911 
L 219.388011 243.933815 
L 220.62116 245.852076 
L 221.237735 245.703805 
L 222.470884 245.629669 
L 223.087459 243.896747 
L 223.704033 242.905182 
L 224.320608 242.664241 
L 224.937182 241.839482 
L 225.553757 241.895084 
L 226.170331 242.284296 
L 226.786906 242.30283 
L 227.403481 243.729942 
L 228.020055 244.869778 
L 228.63663 245.397995 
L 229.253204 246.435895 
L 229.869779 246.945578 
L 230.486354 246.936311 
L 231.102928 247.288456 
L 232.952652 246.213488 
L 233.569227 245.713072 
L 234.185801 245.008783 
L 234.802376 244.721507 
L 235.41895 244.656638 
L 236.035525 245.221923 
L 237.268674 246.806573 
L 237.885249 246.852908 
L 238.501823 247.483062 
L 239.118398 247.464528 
L 239.734972 247.279189 
L 240.351547 247.260655 
L 240.968122 246.81584 
L 241.584696 246.565632 
L 242.201271 246.69537 
L 242.817845 247.177252 
L 244.667569 250.05001 
L 245.284144 251.226914 
L 245.900718 251.866335 
L 246.517293 252.709628 
L 247.133867 253.219311 
L 247.750442 253.506587 
L 248.367017 253.645592 
L 248.983591 254.173808 
L 249.600166 254.868831 
L 250.21674 255.758459 
L 250.833315 256.221807 
L 251.44989 256.249608 
L 253.299613 257.639652 
L 253.916188 257.658186 
L 254.532762 258.547815 
L 255.765912 259.622782 
L 256.999061 260.512411 
L 257.615635 260.632881 
L 258.23221 261.374238 
L 258.848785 261.624446 
L 260.698508 263.273965 
L 261.315083 263.477838 
L 261.931657 264.191394 
L 262.548232 264.395268 
L 263.164807 266.471067 
L 263.781381 264.506471 
L 264.397956 264.99762 
L 265.01453 265.312697 
L 265.631105 265.887249 
L 266.24768 266.109656 
L 266.864254 266.508135 
L 267.480829 264.886417 
L 268.097403 267.184623 
L 268.713978 267.332895 
L 269.947127 267.981582 
L 270.563702 268.417129 
L 272.413425 269.130685 
L 273.646575 269.445762 
L 274.879724 269.936911 
L 275.496298 269.936911 
L 276.112873 270.075915 
L 276.729448 270.33539 
L 277.962597 270.669001 
L 279.81232 271.46596 
L 281.662044 272.62433 
L 282.895193 272.920873 
L 283.511768 272.911606 
L 284.128343 273.217416 
L 287.211215 272.874538 
L 287.82779 272.939407 
L 289.060939 272.865271 
L 291.527238 272.939407 
L 292.143812 272.596529 
L 294.61011 271.845905 
L 295.226685 271.725435 
L 295.84326 271.781036 
L 296.459834 272.235118 
L 298.926133 272.550194 
L 299.542707 272.679932 
L 300.775856 272.012711 
L 301.392431 271.975643 
L 302.009006 271.6791 
L 302.62558 271.113815 
L 303.242155 270.919209 
L 305.091878 269.48283 
L 306.941602 268.361527 
L 307.558177 267.490433 
L 308.174751 266.86028 
L 310.024475 264.367467 
L 311.874199 261.615179 
L 313.107348 260.215868 
L 314.340497 256.323744 
L 314.957072 252.403819 
L 316.190221 248.808237 
L 316.806796 247.186519 
L 318.656519 239.652479 
L 319.273094 238.911122 
L 319.889669 235.890092 
L 321.739392 224.250788 
L 322.972541 217.22643 
L 323.589116 212.157402 
L 324.822265 199.396795 
L 326.055414 181.99344 
L 327.288564 162.125073 
L 329.138287 127.448101 
L 329.754862 118.088469 
L 330.371436 106.319427 
L 330.988011 92.039039 
L 331.604586 80.59434 
L 332.837735 63.719202 
L 334.687459 47.316679 
L 335.304033 44.212247 
L 335.920608 40.347924 
L 336.537182 34.194661 
L 339.003481 19.441657 
L 339.620055 18.144282 
L 340.23663 17.356591 
L 340.853204 20.108878 
L 341.469779 20.108878 
L 342.086354 16.985912 
L 342.702928 12.787978 
L 343.319503 9.785482 
L 343.936077 12.065155 
L 344.552652 10.12836 
L 345.169227 7.311204 
L 345.785801 10.424903 
L 346.402376 7.2 
L 347.01895 14.780375 
L 347.635525 18.227685 
L 348.252099 18.477893 
L 349.485249 28.912492 
L 350.101823 31.516509 
L 350.718398 43.804501 
L 351.334972 50.439645 
L 353.184696 76.915356 
L 353.801271 79.111626 
L 355.03442 92.863798 
L 355.650994 99.091197 
L 356.267569 108.246955 
L 356.884144 114.826498 
L 357.500718 71.633188 
L 358.733867 60.068019 
L 359.350442 46.223178 
L 359.967017 40.635199 
L 360.583591 37.641971 
L 361.200166 36.224125 
L 361.81674 89.852035 
L 362.433315 111.675731 
L 363.04989 127.72611 
L 363.666464 150.837913 
L 364.283039 165.285107 
L 365.516188 185.607555 
L 366.132762 187.998432 
L 366.749337 192.298302 
L 367.365912 195.198861 
L 367.982486 199.35046 
L 368.599061 201.75987 
L 369.215635 206.773297 
L 369.83221 209.701657 
L 371.065359 218.236529 
L 372.915083 226.697266 
L 373.531657 225.650099 
L 374.148232 227.392288 
L 374.764807 226.854804 
L 375.381381 222.517866 
L 375.997956 223.073883 
L 376.61453 223.064616 
L 377.231105 209.469983 
L 377.84768 212.324207 
L 378.464254 214.492676 
L 379.080829 217.912185 
L 379.697403 223.898643 
L 380.313978 227.392288 
L 380.930552 229.477354 
L 381.547127 244.730774 
L 382.163702 213.44551 
L 383.396851 214.69655 
L 384.013425 214.826287 
L 384.63 214.668749 
L 385.246575 215.437907 
L 385.863149 215.057961 
L 386.479724 246.17642 
L 387.096298 244.943914 
L 387.712873 244.276693 
L 388.329448 243.841146 
L 390.179171 243.665073 
L 390.795746 244.387896 
L 392.028895 246.222755 
L 392.64547 246.000348 
L 393.262044 246.463696 
L 393.878619 246.232022 
L 394.495193 246.686103 
L 395.111768 247.288456 
L 395.728343 247.686935 
L 396.344917 246.565632 
L 396.961492 247.85374 
L 397.578066 247.835206 
L 398.194641 248.113215 
L 398.811215 247.52013 
L 399.42779 248.048346 
L 400.044365 247.677668 
L 400.660939 248.094681 
L 401.894088 249.883205 
L 402.510663 250.14268 
L 403.127238 250.911838 
L 403.743812 248.98431 
L 404.360387 248.270753 
L 404.976961 248.6785 
L 405.593536 247.436727 
L 406.21011 246.90851 
L 407.44326 247.028981 
L 408.059834 248.771169 
L 408.676409 249.679332 
L 409.292983 250.884037 
L 410.526133 253.951401 
L 411.142707 255.443382 
L 411.759282 255.9994 
L 412.375856 256.842693 
L 412.992431 258.427344 
L 413.609006 259.409642 
L 414.22558 259.613515 
L 414.842155 259.335506 
L 415.458729 259.335506 
L 416.075304 258.881425 
L 416.691878 259.669117 
L 417.308453 258.807289 
L 417.925028 258.251272 
L 419.158177 258.770222 
L 419.774751 258.065932 
L 420.391326 258.872158 
L 421.007901 257.954729 
L 421.624475 259.335506 
L 422.857624 259.270638 
L 423.474199 259.724719 
L 424.090773 259.900791 
L 424.707348 260.577279 
L 425.323923 260.623614 
L 425.940497 260.354872 
L 426.557072 260.734818 
L 427.173646 261.253767 
L 427.790221 261.402039 
L 428.406796 262.291667 
L 429.02337 261.513242 
L 429.639945 262.439939 
L 430.256519 262.37507 
L 430.873094 262.430672 
L 431.489669 262.300934 
L 432.106243 262.578943 
L 432.722818 262.458473 
L 433.339392 263.218363 
L 433.955967 263.700245 
L 434.572541 264.367467 
L 435.189116 263.366635 
L 436.422265 264.775213 
L 438.271989 265.451701 
L 438.888564 266.24866 
L 439.505138 267.62017 
L 440.738287 259.122366 
L 441.354862 256.555418 
L 441.971436 254.776161 
L 442.588011 251.18058 
L 443.82116 240.551374 
L 445.054309 242.701309 
L 445.670884 244.480566 
L 446.287459 243.67434 
L 447.520608 248.734102 
L 448.137182 254.146008 
L 448.753757 255.600921 
L 449.370331 254.859564 
L 449.986906 254.720559 
L 450.603481 255.749192 
L 451.220055 254.368415 
L 451.83663 255.489717 
L 452.453204 252.894968 
L 453.069779 251.384453 
L 453.686354 253.617791 
L 455.536077 257.648919 
L 456.152652 256.444214 
L 456.769227 256.833427 
L 457.385801 259.502312 
L 458.002376 259.242837 
L 458.61895 258.093733 
L 459.235525 257.732322 
L 459.852099 256.472015 
L 460.468674 257.15777 
L 461.085249 256.889028 
L 461.701823 255.05417 
L 462.318398 252.199945 
L 462.934972 252.320416 
L 463.551547 252.746696 
L 464.168122 254.32208 
L 464.784696 253.571456 
L 465.401271 254.470351 
L 466.017845 254.933699 
L 466.63442 260.688483 
L 467.250994 235.009731 
L 467.867569 234.731722 
L 468.484144 235.398943 
L 469.100718 238.345837 
L 470.333867 238.76285 
L 470.950442 233.554818 
L 471.567017 259.548646 
L 472.183591 259.252104 
L 472.800166 258.770222 
L 473.41674 257.065101 
L 474.033315 256.85196 
L 474.64989 260.493877 
L 475.266464 263.023757 
L 476.499613 259.363307 
L 477.116188 258.705353 
L 477.732762 257.862059 
L 478.349337 258.019598 
L 478.965912 254.433283 
L 479.582486 255.610188 
L 480.199061 256.360811 
L 480.815635 257.843525 
L 481.43221 257.991797 
L 482.665359 260.957225 
L 483.281934 260.781152 
L 483.898508 259.650583 
L 485.131657 262.995956 
L 485.748232 260.846021 
L 486.364807 260.317804 
L 486.981381 259.557913 
L 487.597956 260.679216 
L 488.21453 260.280736 
L 488.831105 260.067596 
L 489.44768 258.649751 
L 490.064254 259.502312 
L 490.680829 258.992629 
L 491.297403 257.98253 
L 491.913978 257.787924 
L 492.530552 257.908394 
L 493.147127 255.69359 
L 493.763702 255.38778 
L 494.380276 255.397047 
L 494.996851 254.368415 
L 495.613425 251.662462 
L 496.846575 248.020546 
L 497.463149 247.52013 
L 498.079724 244.702973 
L 498.696298 242.627174 
L 499.312873 241.867283 
L 499.929448 242.571572 
L 501.162597 235.612083 
L 502.395746 225.436959 
L 503.01232 215.539843 
L 504.24547 207.384916 
L 504.862044 205.642728 
L 505.478619 205.902203 
L 506.095193 206.495288 
L 506.711768 206.532356 
L 507.328343 211.314108 
L 507.944917 209.154906 
L 508.561492 213.000696 
L 509.178066 215.363771 
L 509.794641 217.041091 
L 510.411215 222.128653 
L 511.644365 236.436843 
L 512.260939 242.923716 
L 512.877514 244.452765 
L 513.494088 248.89164 
L 514.110663 248.993577 
L 514.727238 250.290951 
L 515.343812 251.328851 
L 517.193536 257.491381 
L 517.81011 258.140068 
L 518.426685 262.124862 
L 519.04326 262.931088 
L 520.276409 263.950453 
L 520.892983 265.433167 
L 521.509558 266.369131 
L 522.126133 266.054054 
L 522.742707 266.841746 
L 523.359282 267.332895 
L 524.592431 268.722939 
L 525.209006 269.075084 
L 525.82558 268.574668 
L 526.442155 270.42806 
L 527.058729 271.456693 
L 527.675304 271.818104 
L 528.291878 271.920041 
L 529.525028 272.763334 
L 530.141602 273.745632 
L 530.758177 273.912438 
L 531.374751 273.171081 
L 531.991326 273.134013 
L 532.607901 273.727099 
L 533.224475 274.060709 
L 533.84105 273.99584 
L 534.457624 274.60746 
L 535.074199 237.270869 
L 535.690773 237.066996 
L 536.923923 237.048462 
L 538.773646 237.984426 
L 539.390221 275.209812 
L 540.006796 275.839966 
L 540.62337 276.006771 
L 541.239945 275.793631 
L 541.856519 275.422953 
L 542.473094 275.283948 
L 543.706243 275.367351 
L 544.322818 275.849233 
L 544.939392 275.914102 
L 547.405691 277.424616 
L 548.022265 278.156706 
L 548.63884 278.38838 
L 549.255414 276.460852 
L 549.871989 276.627658 
L 550.488564 276.49792 
L 551.721713 275.543423 
L 552.954862 274.904003 
L 553.571436 276.609124 
L 554.188011 276.618391 
L 554.804586 263.728046 
L 555.42116 263.885585 
L 558.504033 263.561241 
L 559.120608 276.534988 
L 559.737182 276.386717 
L 560.970331 276.952001 
L 562.820055 277.01687 
L 563.43663 276.80373 
L 564.669779 277.257811 
L 565.286354 277.359748 
L 565.902928 277.609956 
L 567.752652 277.739693 
L 568.369227 277.869431 
L 569.602376 277.637757 
L 570.21895 277.155875 
L 571.452099 276.868599 
L 572.068674 277.01687 
L 572.685249 276.942734 
L 573.301823 276.998336 
L 573.918398 276.9242 
L 574.534972 277.396816 
L 575.768122 277.702625 
L 578.23442 278.026969 
L 578.850994 278.017702 
L 580.084144 278.277177 
L 581.317293 278.240109 
L 581.933867 278.110372 
L 583.167017 278.36058 
L 586.866464 278.230842 
L 588.716188 277.952833 
L 589.332762 277.971367 
L 589.949337 277.721159 
L 591.799061 277.665557 
L 593.03221 277.545087 
L 593.648785 277.387549 
L 594.881934 277.285612 
L 596.731657 277.118807 
L 598.581381 277.248544 
L 600.431105 276.877866 
L 601.664254 276.850065 
L 602.280829 276.692526 
L 603.513978 276.581323 
L 605.980276 276.117975 
L 606.596851 276.201377 
L 607.213425 252.348217 
L 607.83 275.97897 
L 607.83 275.97897 
" clip-path="url(#p83925bb7e6)" style="fill: none; stroke: #7d31e0; stroke-width: 1.5; stroke-linecap: square"/>
   </g>
   <g id="line2d_31">
    <path d="M 49.83 279 
L 76.342707 278.925864 
L 79.42558 278.814661 
L 82.508453 278.870263 
L 89.907348 278.740525 
L 94.22337 278.647855 
L 100.389116 277.999168 
L 102.855414 277.637757 
L 107.171436 277.795295 
L 107.788011 277.609956 
L 109.637735 277.470951 
L 113.953757 278.045503 
L 115.803481 277.84163 
L 117.653204 277.878698 
L 121.352652 278.379114 
L 128.134972 278.647855 
L 129.368122 278.749792 
L 134.917293 278.888796 
L 137.383591 278.860996 
L 138.000166 278.721991 
L 141.083039 278.721991 
L 141.699613 278.712724 
L 142.316188 278.888796 
L 145.399061 278.935131 
L 154.64768 278.972199 
L 162.046575 278.879529 
L 164.512873 278.860996 
L 166.979171 278.777593 
L 169.44547 278.666389 
L 172.528343 278.601521 
L 178.077514 278.203041 
L 181.160387 278.203041 
L 183.626685 278.101105 
L 186.092983 278.17524 
L 187.326133 278.258643 
L 189.175856 278.221575 
L 190.409006 278.258643 
L 196.574751 278.518118 
L 197.807901 278.555186 
L 200.274199 278.564453 
L 203.973646 278.536652 
L 205.82337 278.620055 
L 208.289669 278.721991 
L 211.372541 278.629322 
L 213.83884 278.610788 
L 216.305138 278.601521 
L 223.704033 278.443982 
L 226.170331 278.555186 
L 228.63663 278.323512 
L 231.719503 278.342046 
L 233.569227 278.138173 
L 236.035525 278.05477 
L 238.501823 277.721159 
L 240.351547 277.248544 
L 242.201271 276.979802 
L 244.050994 276.664726 
L 244.667569 276.572056 
L 245.900718 276.701793 
L 246.517293 276.646192 
L 247.133867 276.748128 
L 250.833315 276.229178 
L 251.44989 276.080907 
L 253.916188 275.941902 
L 255.149337 275.728762 
L 258.23221 275.580491 
L 259.465359 275.867767 
L 260.081934 275.682428 
L 260.698508 275.710228 
L 261.931657 275.497088 
L 262.548232 275.358084 
L 263.781381 274.829867 
L 264.397956 274.968871 
L 265.01453 274.968871 
L 265.631105 275.080075 
L 266.24768 274.783532 
L 269.330552 274.663062 
L 269.947127 274.292383 
L 270.563702 274.338718 
L 272.413425 273.551026 
L 275.496298 273.180348 
L 276.112873 273.291551 
L 278.579171 272.939407 
L 279.195746 272.661398 
L 279.81232 272.744801 
L 281.04547 272.62433 
L 281.662044 272.744801 
L 282.278619 272.717 
L 282.895193 272.948674 
L 283.511768 272.939407 
L 284.128343 273.180348 
L 285.361492 273.847569 
L 286.594641 274.069976 
L 287.211215 274.005107 
L 287.82779 274.39432 
L 289.060939 274.385053 
L 290.294088 274.153379 
L 290.910663 274.310917 
L 291.527238 274.746464 
L 292.760387 274.857668 
L 293.376961 274.72793 
L 293.993536 275.070808 
L 294.61011 275.256147 
L 295.226685 275.302482 
L 295.84326 275.200546 
L 297.076409 275.321016 
L 297.692983 275.55269 
L 299.542707 275.673161 
L 300.775856 275.821432 
L 301.392431 276.025305 
L 304.475304 275.988237 
L 305.708453 276.210644 
L 306.941602 276.738861 
L 308.791326 276.840798 
L 309.407901 277.044671 
L 310.64105 277.091006 
L 311.874199 276.887133 
L 312.490773 276.9242 
L 313.107348 277.10954 
L 313.723923 276.850065 
L 314.957072 277.035404 
L 316.190221 277.415349 
L 318.039945 277.730426 
L 321.122818 277.350481 
L 322.355967 277.165141 
L 323.589116 276.8964 
L 324.205691 276.766662 
L 326.055414 276.71106 
L 327.288564 276.49792 
L 328.521713 276.28478 
L 329.138287 275.960436 
L 329.754862 275.914102 
L 330.371436 275.747296 
L 330.988011 275.738029 
L 331.604586 275.404419 
L 332.22116 275.561957 
L 332.837735 275.293215 
L 334.070884 275.070808 
L 334.687459 275.191279 
L 335.304033 275.107876 
L 335.920608 275.228346 
L 336.537182 274.218248 
L 337.770331 274.153379 
L 338.386906 273.949506 
L 339.003481 273.365687 
L 340.23663 272.605796 
L 340.853204 273.226683 
L 341.469779 273.152547 
L 342.086354 273.319352 
L 342.702928 272.846737 
L 343.319503 271.89224 
L 343.936077 271.975643 
L 344.552652 271.938575 
L 345.169227 271.651299 
L 345.785801 271.753236 
L 346.402376 271.614231 
L 347.01895 271.957109 
L 347.635525 272.995009 
L 348.868674 272.689199 
L 349.485249 272.846737 
L 350.101823 272.772601 
L 351.334972 272.939407 
L 353.801271 273.152547 
L 354.417845 273.402755 
L 356.267569 273.458357 
L 356.884144 273.615895 
L 357.500718 273.986573 
L 358.117293 274.199714 
L 359.350442 274.449922 
L 359.967017 274.588926 
L 360.583591 274.885469 
L 362.433315 275.395152 
L 363.04989 275.64536 
L 363.666464 275.756563 
L 365.516188 276.405251 
L 369.215635 276.794463 
L 371.681934 277.359748 
L 372.298508 277.396816 
L 374.148232 277.897232 
L 375.997956 277.989901 
L 376.61453 277.989901 
L 377.84768 278.17524 
L 379.080829 278.073304 
L 379.697403 278.165973 
L 382.780276 278.036236 
L 383.396851 278.184507 
L 386.479724 278.351313 
L 387.096298 278.462516 
L 388.329448 278.379114 
L 394.495193 278.193774 
L 397.578066 277.823096 
L 398.194641 277.813829 
L 398.811215 277.674824 
L 399.42779 277.415349 
L 403.127238 276.859332 
L 403.743812 276.905667 
L 404.976961 276.544255 
L 405.593536 276.349649 
L 406.21011 276.275513 
L 407.44326 275.914102 
L 409.292983 275.348817 
L 410.526133 275.117143 
L 411.759282 275.33955 
L 412.375856 275.358084 
L 414.22558 274.941071 
L 414.842155 274.978138 
L 416.075304 274.802066 
L 417.308453 275.005939 
L 417.925028 275.237613 
L 419.158177 275.209812 
L 419.774751 275.209812 
L 420.391326 275.450753 
L 421.624475 275.710228 
L 422.857624 276.016038 
L 424.090773 276.479386 
L 425.323923 276.405251 
L 429.639945 276.840798 
L 430.256519 277.044671 
L 430.873094 277.072472 
L 431.489669 276.961268 
L 433.955967 277.202209 
L 434.572541 277.137341 
L 435.189116 277.192942 
L 436.422265 277.508019 
L 438.271989 277.526553 
L 439.505138 277.897232 
L 442.588011 278.323512 
L 445.670884 278.369847 
L 448.137182 278.462516 
L 456.152652 278.833195 
L 460.468674 278.851729 
L 464.168122 278.90733 
L 471.567017 278.916597 
L 491.297403 278.842462 
L 492.530552 278.712724 
L 493.763702 278.703457 
L 498.079724 278.156706 
L 498.696298 277.850897 
L 499.312873 277.674824 
L 500.546022 276.998336 
L 503.01232 276.080907 
L 504.862044 274.690863 
L 505.478619 274.005107 
L 506.095193 273.652963 
L 506.711768 273.05061 
L 507.944917 271.484494 
L 508.561492 270.798738 
L 509.178066 270.363191 
L 509.794641 270.094449 
L 510.411215 269.455029 
L 511.02779 269.121418 
L 512.260939 267.777709 
L 512.877514 266.786144 
L 514.110663 265.553638 
L 515.343812 265.127358 
L 515.960387 264.330399 
L 516.576961 264.182128 
L 517.193536 264.78448 
L 517.81011 264.154327 
L 518.426685 263.802182 
L 519.04326 263.941186 
L 519.659834 263.709512 
L 520.276409 264.487937 
L 520.892983 264.589874 
L 521.509558 264.107992 
L 522.126133 264.515738 
L 522.742707 265.182959 
L 523.359282 265.294163 
L 523.975856 266.016986 
L 524.592431 265.915049 
L 525.209006 266.118923 
L 525.82558 266.76761 
L 526.442155 266.999284 
L 527.675304 267.786976 
L 528.291878 267.824044 
L 529.525028 268.852676 
L 530.141602 269.010215 
L 530.758177 269.501364 
L 532.607901 270.604132 
L 533.224475 271.688367 
L 535.074199 272.865271 
L 536.923923 272.874538 
L 537.540497 272.781868 
L 539.390221 273.588094 
L 540.006796 274.014374 
L 541.239945 274.449922 
L 541.856519 274.60746 
L 543.089669 275.191279 
L 544.322818 275.330283 
L 544.939392 275.283948 
L 548.022265 275.756563 
L 549.255414 275.877034 
L 554.188011 276.294047 
L 555.42116 276.07164 
L 557.270884 276.433051 
L 557.887459 276.256979 
L 559.120608 276.433051 
L 559.737182 276.80373 
L 560.353757 276.998336 
L 560.970331 277.072472 
L 561.586906 276.952001 
L 562.820055 276.998336 
L 563.43663 277.035404 
L 564.669779 276.71106 
L 568.985801 276.766662 
L 570.21895 276.673992 
L 571.452099 276.692526 
L 573.301823 276.673992 
L 574.534972 276.683259 
L 575.768122 276.738861 
L 577.001271 276.831531 
L 577.617845 277.007603 
L 580.700718 277.331947 
L 581.317293 277.470951 
L 582.550442 277.572888 
L 584.400166 277.739693 
L 586.24989 277.721159 
L 591.182486 278.026969 
L 591.799061 278.128906 
L 593.03221 278.110372 
L 593.648785 277.267078 
L 597.348232 277.239277 
L 597.964807 278.05477 
L 599.197956 278.091838 
L 601.04768 277.943566 
L 602.280829 277.906498 
L 603.513978 277.563621 
L 605.980276 277.387549 
L 606.596851 277.341214 
L 607.83 276.998336 
L 607.83 276.998336 
" clip-path="url(#p83925bb7e6)" style="fill: none; stroke: #53a577; stroke-width: 1.5; stroke-linecap: square"/>
   </g>
   <g id="line2d_32">
    <path d="M 49.83 279 
L 89.907348 278.90733 
L 92.373646 278.842462 
L 102.23884 278.944398 
L 105.938287 278.953665 
L 326.671989 278.879529 
L 332.837735 278.119639 
L 333.454309 278.026969 
L 334.687459 277.702625 
L 335.920608 277.62849 
L 336.537182 277.517286 
L 339.003481 277.619223 
L 340.23663 277.313413 
L 343.936077 277.220743 
L 345.169227 277.267078 
L 345.785801 277.202209 
L 347.635525 277.304146 
L 350.718398 276.812997 
L 351.334972 276.914934 
L 351.951547 276.80373 
L 355.03442 276.9242 
L 355.650994 276.794463 
L 356.884144 276.914934 
L 358.117293 276.914934 
L 363.04989 277.350481 
L 364.283039 277.220743 
L 365.516188 276.970535 
L 366.132762 276.961268 
L 367.982486 276.37745 
L 369.215635 276.433051 
L 369.83221 276.414518 
L 371.065359 276.016038 
L 372.298508 276.090174 
L 373.531657 275.636093 
L 374.148232 275.626826 
L 375.381381 275.358084 
L 376.61453 274.505523 
L 377.231105 274.227514 
L 377.84768 274.236781 
L 379.080829 273.717832 
L 379.697403 273.764166 
L 380.313978 273.300818 
L 380.930552 273.161814 
L 381.547127 273.152547 
L 382.780276 272.735534 
L 383.396851 272.83747 
L 384.013425 272.401923 
L 384.63 272.605796 
L 385.246575 272.346321 
L 385.863149 272.290719 
L 387.096298 271.706901 
L 387.712873 270.984078 
L 388.329448 270.956277 
L 388.946022 270.409526 
L 389.562597 270.372458 
L 390.179171 269.529165 
L 390.795746 269.260423 
L 391.41232 268.75074 
L 392.028895 268.797075 
L 392.64547 268.111319 
L 393.262044 267.796243 
L 393.878619 267.749908 
L 394.495193 268.01865 
L 395.111768 267.203157 
L 395.728343 267.027085 
L 396.961492 267.212424 
L 397.578066 267.166089 
L 398.194641 266.508135 
L 398.811215 266.202325 
L 399.42779 266.165257 
L 400.044365 265.192226 
L 400.660939 263.765114 
L 401.894088 262.838418 
L 402.510663 262.616011 
L 403.127238 262.059993 
L 404.360387 262.319468 
L 404.976961 262.986689 
L 406.826685 262.106328 
L 407.44326 261.976591 
L 408.676409 262.727214 
L 409.292983 262.421405 
L 409.909558 262.439939 
L 411.142707 263.134961 
L 411.759282 263.774381 
L 412.375856 263.301766 
L 412.992431 263.524173 
L 413.609006 263.913386 
L 414.22558 264.673277 
L 414.842155 264.710344 
L 416.075304 265.627774 
L 417.308453 267.379229 
L 417.925028 267.675772 
L 418.541602 267.842578 
L 419.158177 269.05655 
L 419.774751 269.640368 
L 420.391326 269.881309 
L 421.624475 269.844241 
L 422.24105 270.372458 
L 422.857624 270.73387 
L 424.707348 270.659734 
L 425.940497 270.965544 
L 426.557072 271.187951 
L 427.173646 271.271354 
L 428.406796 272.086846 
L 429.02337 272.123914 
L 429.639945 272.466792 
L 430.256519 272.652131 
L 430.873094 272.596529 
L 432.722818 272.726267 
L 433.339392 273.069144 
L 435.189116 273.337886 
L 435.805691 273.541759 
L 436.422265 273.458357 
L 437.03884 273.606628 
L 437.655414 273.578827 
L 438.888564 273.727099 
L 440.121713 274.347985 
L 441.354862 274.533324 
L 441.971436 274.709397 
L 442.588011 274.755731 
L 443.204586 274.959605 
L 443.82116 274.857668 
L 444.437735 274.876202 
L 445.054309 274.746464 
L 445.670884 274.829867 
L 447.520608 274.625994 
L 448.137182 274.774265 
L 448.753757 274.625994 
L 449.370331 274.802066 
L 449.986906 274.746464 
L 451.220055 275.052274 
L 451.83663 274.996672 
L 452.453204 275.098609 
L 453.069779 275.367351 
L 454.302928 275.55269 
L 455.536077 275.487821 
L 457.385801 275.561957 
L 458.002376 275.580491 
L 458.61895 275.747296 
L 459.235525 275.710228 
L 461.085249 275.969703 
L 461.701823 275.849233 
L 462.318398 276.043839 
L 462.934972 276.034572 
L 464.168122 276.386717 
L 466.63442 276.775929 
L 470.333867 276.850065 
L 472.800166 276.831531 
L 473.41674 276.914934 
L 474.033315 277.128074 
L 474.64989 277.007603 
L 475.266464 277.10954 
L 478.349337 277.007603 
L 478.965912 277.137341 
L 480.199061 277.118807 
L 480.815635 277.239277 
L 481.43221 277.239277 
L 482.665359 277.415349 
L 483.281934 277.424616 
L 484.515083 277.702625 
L 485.131657 277.702625 
L 485.748232 277.887965 
L 486.364807 277.869431 
L 487.597956 278.064037 
L 488.831105 278.026969 
L 490.680829 278.073304 
L 493.147127 278.073304 
L 499.929448 277.971367 
L 500.546022 277.832363 
L 509.178066 277.730426 
L 511.02779 277.526553 
L 512.260939 277.406083 
L 514.727238 277.257811 
L 516.576961 277.01687 
L 519.04326 276.525721 
L 523.359282 275.812165 
L 526.442155 274.8206 
L 527.675304 274.60746 
L 530.758177 274.366519 
L 533.224475 273.727099 
L 534.457624 273.588094 
L 537.540497 273.986573 
L 539.390221 273.680764 
L 540.006796 273.412022 
L 543.089669 272.902339 
L 544.322818 272.911606 
L 546.172541 272.642864 
L 546.789116 271.46596 
L 547.405691 272.309253 
L 549.255414 271.595697 
L 550.488564 271.16015 
L 551.105138 272.021977 
L 551.721713 270.826539 
L 552.954862 270.706069 
L 557.270884 270.872874 
L 559.120608 271.966376 
L 559.737182 272.364855 
L 561.586906 274.292383 
L 562.820055 274.904003 
L 564.053204 275.367351 
L 565.286354 275.376618 
L 567.136077 275.580491 
L 570.21895 276.275513 
L 570.835525 277.44315 
L 571.452099 276.562789 
L 572.685249 276.692526 
L 574.534972 276.840798 
L 575.151547 275.923369 
L 575.768122 276.933467 
L 577.001271 277.118807 
L 580.084144 277.146608 
L 581.317293 277.220743 
L 583.167017 277.415349 
L 586.24989 277.693358 
L 588.099613 277.767494 
L 591.182486 277.730426 
L 594.881934 278.026969 
L 597.964807 277.925032 
L 599.81453 277.758227 
L 601.04768 277.74896 
L 601.664254 277.480218 
L 603.513978 277.331947 
L 604.130552 277.517286 
L 604.747127 277.304146 
L 605.363702 277.350481 
L 605.980276 277.619223 
L 606.596851 277.674824 
L 607.213425 277.934299 
L 607.83 277.702625 
L 607.83 277.702625 
" clip-path="url(#p83925bb7e6)" style="fill: none; stroke: #103357; stroke-width: 1.5; stroke-linecap: square"/>
   </g>
   <g id="line2d_33">
    <path d="M 49.83 279 
L 65.860939 278.925864 
L 70.176961 278.57372 
L 73.876409 278.05477 
L 76.342707 276.572056 
L 77.575856 275.385885 
L 81.891878 270.483662 
L 83.125028 270.094449 
L 84.358177 270.233454 
L 86.207901 270.242721 
L 86.824475 270.094449 
L 88.057624 270.242721 
L 88.674199 270.066648 
L 89.290773 270.112983 
L 89.907348 270.418793 
L 90.523923 270.511463 
L 92.373646 269.899843 
L 94.839945 270.307589 
L 97.922818 271.734702 
L 99.155967 272.272185 
L 99.772541 272.754068 
L 101.005691 273.217416 
L 102.23884 273.310085 
L 104.088564 273.26375 
L 104.705138 273.513958 
L 105.321713 273.467624 
L 110.254309 274.709397 
L 112.104033 274.829867 
L 112.720608 274.987405 
L 113.337182 274.950338 
L 113.953757 275.219079 
L 114.570331 275.358084 
L 115.186906 275.617559 
L 116.420055 275.654627 
L 117.03663 275.775097 
L 117.653204 275.775097 
L 118.886354 275.422953 
L 119.502928 275.293215 
L 120.736077 275.311749 
L 121.352652 275.089342 
L 121.969227 275.024473 
L 122.585801 275.348817 
L 125.668674 275.524889 
L 126.285249 275.478554 
L 126.901823 275.043007 
L 129.368122 274.764998 
L 130.601271 274.51479 
L 131.217845 274.616727 
L 134.300718 274.171913 
L 135.533867 273.44909 
L 136.767017 272.707733 
L 137.383591 272.62433 
L 138.61674 271.79957 
L 141.083039 271.484494 
L 141.699613 271.048946 
L 142.316188 271.150883 
L 142.932762 271.058213 
L 143.549337 270.798738 
L 144.165912 270.400259 
L 144.782486 270.159318 
L 146.015635 269.955445 
L 146.63221 269.538432 
L 147.865359 269.149219 
L 148.481934 269.167753 
L 149.098508 268.676604 
L 149.715083 268.565401 
L 150.331657 267.888912 
L 150.948232 268.000116 
L 152.797956 266.943682 
L 153.41453 267.138288 
L 154.031105 266.712008 
L 154.64768 266.925148 
L 155.264254 266.545203 
L 155.880829 266.545203 
L 157.113978 266.276461 
L 157.730552 265.813113 
L 158.963702 265.414633 
L 159.580276 265.118091 
L 161.43 265.034688 
L 162.046575 264.979086 
L 162.663149 265.192226 
L 163.279724 265.145892 
L 163.896298 265.312697 
L 164.512873 265.118091 
L 166.979171 265.479502 
L 168.21232 266.34133 
L 168.828895 267.119755 
L 169.44547 267.536768 
L 170.678619 268.037184 
L 172.528343 267.888912 
L 173.144917 267.62017 
L 174.994641 268.13912 
L 176.22779 268.787808 
L 176.844365 269.316025 
L 177.460939 269.640368 
L 178.077514 269.69597 
L 180.543812 270.909942 
L 181.160387 270.909942 
L 181.776961 271.058213 
L 182.393536 271.410358 
L 183.626685 271.855172 
L 186.092983 271.632765 
L 186.709558 271.299154 
L 187.326133 271.225019 
L 187.942707 270.937743 
L 190.409006 270.891408 
L 191.02558 270.993345 
L 191.642155 270.631933 
L 192.258729 270.557797 
L 193.491878 269.640368 
L 194.108453 269.371626 
L 195.341602 268.398595 
L 195.958177 268.203989 
L 196.574751 267.851845 
L 197.807901 267.814777 
L 198.424475 267.230958 
L 199.657624 267.064153 
L 200.274199 266.943682 
L 200.890773 266.67494 
L 201.507348 266.684207 
L 202.123923 266.350597 
L 202.740497 266.535936 
L 203.973646 266.322796 
L 204.590221 265.905782 
L 205.206796 265.720443 
L 205.82337 265.201493 
L 207.673094 264.66401 
L 208.906243 263.950453 
L 209.522818 263.700245 
L 210.139392 263.329567 
L 210.755967 263.088626 
L 211.989116 262.041459 
L 212.605691 262.032192 
L 213.83884 260.799686 
L 214.455414 260.493877 
L 215.071989 260.049062 
L 216.921713 258.232738 
L 217.538287 258.232738 
L 218.154862 258.010331 
L 219.388011 256.175472 
L 220.004586 255.897463 
L 220.62116 255.424848 
L 221.237735 254.146008 
L 221.854309 253.19151 
L 222.470884 252.487221 
L 223.704033 252.385285 
L 224.320608 251.838534 
L 225.553757 251.263982 
L 226.170331 251.097177 
L 227.403481 250.411422 
L 228.63663 249.595929 
L 229.253204 249.327187 
L 229.869779 249.327187 
L 231.719503 248.632165 
L 232.952652 248.289287 
L 233.569227 248.483894 
L 234.185801 248.335622 
L 234.802376 248.641432 
L 235.41895 248.632165 
L 236.035525 248.734102 
L 236.652099 248.6785 
L 237.268674 249.354988 
L 237.885249 249.725667 
L 239.734972 252.218479 
L 240.968122 254.359148 
L 242.201271 255.554586 
L 243.43442 257.241173 
L 244.667569 258.40881 
L 245.284144 259.094565 
L 246.517293 261.086962 
L 247.750442 261.828319 
L 248.983591 263.514906 
L 249.600166 264.182128 
L 251.44989 265.757511 
L 252.066464 266.313529 
L 252.683039 266.647139 
L 254.532762 268.185455 
L 255.149337 268.565401 
L 256.999061 270.261255 
L 257.615635 270.298323 
L 260.081934 271.150883 
L 260.698508 271.25282 
L 261.315083 271.567896 
L 261.931657 272.188783 
L 265.01453 273.328619 
L 265.631105 273.328619 
L 266.24768 273.189615 
L 266.864254 273.393488 
L 267.480829 273.412022 
L 268.713978 273.14328 
L 273.03 273.625162 
L 273.646575 273.486158 
L 274.263149 273.560293 
L 274.879724 273.495424 
L 276.112873 273.606628 
L 276.729448 273.486158 
L 278.579171 273.903171 
L 279.81232 274.18118 
L 280.428895 274.097777 
L 281.662044 274.273849 
L 282.278619 274.385053 
L 282.895193 274.227514 
L 283.511768 274.39432 
L 284.128343 274.412854 
L 284.744917 274.616727 
L 285.978066 274.588926 
L 286.594641 274.440655 
L 287.82779 274.385053 
L 289.060939 274.069976 
L 289.677514 274.125578 
L 290.910663 273.958773 
L 292.143812 273.884637 
L 292.760387 273.754899 
L 293.376961 273.829035 
L 296.459834 273.282284 
L 297.076409 273.430556 
L 298.309558 273.310085 
L 299.542707 273.393488 
L 300.159282 273.439823 
L 300.775856 273.671497 
L 301.392431 273.578827 
L 302.009006 273.838302 
L 303.242155 273.96804 
L 303.858729 273.958773 
L 305.091878 273.773433 
L 305.708453 273.764166 
L 306.325028 273.625162 
L 306.941602 273.606628 
L 308.174751 273.930972 
L 308.791326 274.144112 
L 309.407901 273.87537 
L 311.257624 273.588094 
L 311.874199 273.439823 
L 312.490773 273.430556 
L 313.107348 273.273017 
L 314.340497 273.282284 
L 315.573646 272.596529 
L 316.190221 271.929308 
L 318.656519 268.574668 
L 319.273094 268.222523 
L 319.889669 267.573836 
L 321.122818 265.72971 
L 322.972541 262.356536 
L 323.589116 260.753352 
L 326.055414 256.110603 
L 326.671989 255.332179 
L 327.288564 254.10894 
L 329.138287 252.663294 
L 329.754862 251.755131 
L 330.371436 251.134245 
L 330.988011 250.707965 
L 331.604586 251.338118 
L 332.22116 251.08791 
L 332.837735 251.477122 
L 333.454309 252.03314 
L 335.304033 254.887364 
L 335.920608 255.322912 
L 336.537182 255.990133 
L 337.153757 256.444214 
L 337.770331 256.51835 
L 339.003481 257.231906 
L 339.620055 257.074368 
L 340.23663 257.454313 
L 340.853204 258.686819 
L 342.702928 260.827487 
L 343.319503 260.799686 
L 343.936077 262.032192 
L 344.552652 262.662346 
L 345.785801 262.80135 
L 346.402376 263.607576 
L 347.01895 263.93192 
L 347.635525 264.87715 
L 348.868674 266.118923 
L 350.718398 266.563737 
L 351.951547 267.221691 
L 353.184696 267.19389 
L 353.801271 267.462632 
L 354.417845 267.879645 
L 355.03442 268.583935 
L 355.650994 269.48283 
L 356.884144 269.445762 
L 357.500718 269.6033 
L 358.117293 269.890576 
L 358.733867 270.011047 
L 359.350442 269.408694 
L 359.967017 269.417961 
L 360.583591 269.834974 
L 361.200166 270.094449 
L 361.81674 270.224187 
L 363.04989 270.261255 
L 363.666464 270.965544 
L 364.283039 270.808005 
L 365.516188 271.132349 
L 366.132762 271.086014 
L 366.749337 271.197218 
L 369.215635 270.567064 
L 369.83221 270.33539 
L 370.448785 270.511463 
L 371.065359 270.400259 
L 371.681934 270.511463 
L 372.298508 270.224187 
L 372.915083 270.066648 
L 373.531657 270.029581 
L 374.148232 269.760839 
L 375.381381 269.48283 
L 375.997956 269.112151 
L 376.61453 269.112151 
L 378.464254 268.528333 
L 379.697403 267.434831 
L 380.930552 266.934415 
L 381.547127 266.647139 
L 382.163702 265.868715 
L 383.396851 265.368299 
L 384.013425 265.266362 
L 385.863149 262.80135 
L 387.096298 260.975759 
L 388.329448 259.808121 
L 388.946022 259.557913 
L 390.179171 257.824991 
L 390.795746 257.630385 
L 391.41232 256.648087 
L 392.028895 255.332179 
L 392.64547 253.58999 
L 393.262044 252.654027 
L 394.495193 249.382789 
L 396.344917 245.759407 
L 397.578066 244.387896 
L 398.811215 243.044187 
L 399.42779 241.959952 
L 400.044365 241.524405 
L 400.660939 241.561473 
L 401.277514 241.301998 
L 402.510663 239.986089 
L 403.127238 240.403103 
L 404.360387 238.864787 
L 404.976961 237.660082 
L 405.593536 237.51181 
L 406.21011 236.863123 
L 406.826685 237.81762 
L 407.44326 237.270869 
L 408.676409 238.494108 
L 409.292983 239.411538 
L 409.909558 239.504207 
L 410.526133 240.421637 
L 411.142707 240.152895 
L 411.759282 240.949853 
L 412.375856 241.023989 
L 412.992431 241.589274 
L 413.609006 242.4233 
L 414.22558 243.498268 
L 414.842155 244.156222 
L 416.075304 246.547099 
L 416.691878 248.650699 
L 417.308453 249.447658 
L 417.925028 249.92954 
L 419.158177 251.504923 
L 420.391326 253.358316 
L 421.007901 253.627058 
L 422.24105 256.42568 
L 424.707348 259.326239 
L 425.323923 260.623614 
L 425.940497 260.753352 
L 427.173646 261.661514 
L 427.790221 262.338002 
L 429.02337 263.264698 
L 429.639945 263.477838 
L 430.256519 263.996788 
L 430.873094 264.321132 
L 432.106243 265.192226 
L 432.722818 265.257095 
L 433.339392 264.904951 
L 433.955967 264.932751 
L 435.189116 265.229294 
L 436.422265 265.043955 
L 437.03884 265.257095 
L 437.655414 266.137457 
L 438.888564 266.86028 
L 440.738287 268.102053 
L 442.588011 268.843409 
L 443.204586 268.519066 
L 443.82116 268.695138 
L 444.437735 269.08435 
L 446.904033 268.834143 
L 447.520608 269.297491 
L 449.370331 269.297491 
L 449.986906 269.770106 
L 450.603481 269.890576 
L 451.220055 270.33539 
L 451.83663 270.446594 
L 453.069779 270.984078 
L 454.302928 270.956277 
L 454.919503 271.280621 
L 455.536077 271.076747 
L 458.002376 271.493761 
L 458.61895 271.688367 
L 459.852099 271.855172 
L 460.468674 272.059045 
L 461.701823 272.253652 
L 462.934972 272.763334 
L 467.250994 273.708565 
L 467.867569 273.754899 
L 468.484144 274.125578 
L 469.717293 274.032908 
L 470.950442 274.023641 
L 471.567017 274.162646 
L 472.183591 274.486989 
L 472.800166 274.598193 
L 473.41674 274.950338 
L 474.033315 275.089342 
L 474.64989 275.395152 
L 475.883039 275.654627 
L 476.499613 275.663894 
L 477.116188 275.886301 
L 479.582486 276.080907 
L 480.815635 276.127242 
L 484.515083 276.405251 
L 488.831105 277.165141 
L 489.44768 277.026137 
L 490.680829 277.202209 
L 491.913978 277.100273 
L 496.23 277.647024 
L 496.846575 277.53582 
L 498.696298 277.508019 
L 500.546022 277.294879 
L 501.162597 277.350481 
L 503.01232 276.868599 
L 504.862044 275.988237 
L 506.095193 275.237613 
L 507.328343 273.958773 
L 508.561492 272.791135 
L 509.794641 271.354756 
L 512.877514 268.565401 
L 514.110663 267.62017 
L 514.727238 266.749076 
L 515.960387 265.599973 
L 517.81011 264.552806 
L 518.426685 264.246996 
L 519.04326 264.256263 
L 519.659834 264.525005 
L 520.276409 264.497204 
L 520.892983 264.719611 
L 522.126133 265.776045 
L 522.742707 266.424732 
L 523.975856 267.156822 
L 524.592431 267.916713 
L 527.058729 268.954613 
L 527.675304 269.723771 
L 528.291878 270.224187 
L 528.908453 270.474395 
L 529.525028 271.06748 
L 531.374751 272.337054 
L 533.224475 273.856836 
L 535.074199 274.931804 
L 536.307348 275.191279 
L 536.923923 275.283948 
L 538.157072 275.700961 
L 540.62337 276.275513 
L 541.239945 276.173577 
L 543.706243 276.331115 
L 544.939392 276.210644 
L 546.172541 276.488653 
L 553.571436 277.647024 
L 559.737182 278.101105 
L 560.970331 278.212308 
L 569.602376 278.508851 
L 572.068674 278.518118 
L 580.084144 278.796127 
L 583.167017 278.805394 
L 588.716188 278.870263 
L 592.415635 278.796127 
L 596.731657 278.898063 
L 599.81453 278.657122 
L 605.363702 278.443982 
L 606.596851 278.249376 
L 607.83 277.804562 
L 607.83 277.804562 
" clip-path="url(#p83925bb7e6)" style="fill: none; stroke: #21fc68; stroke-width: 1.5; stroke-linecap: square"/>
   </g>
   <g id="text_20">
    <!-- Taiwan* -->
    <g style="fill: #fe7b74" transform="translate(624.57 252.479662)scale(0.14 -0.14)">
     <defs>
      <path id="DejaVuSans-54" d="M -19 4666 
L 3928 4666 
L 3928 4134 
L 2272 4134 
L 2272 0 
L 1638 0 
L 1638 4134 
L -19 4134 
L -19 4666 
z
" transform="scale(0.015625)"/>
      <path id="DejaVuSans-61" d="M 2194 1759 
Q 1497 1759 1228 1600 
Q 959 1441 959 1056 
Q 959 750 1161 570 
Q 1363 391 1709 391 
Q 2188 391 2477 730 
Q 2766 1069 2766 1631 
L 2766 1759 
L 2194 1759 
z
M 3341 1997 
L 3341 0 
L 2766 0 
L 2766 531 
Q 2569 213 2275 61 
Q 1981 -91 1556 -91 
Q 1019 -91 701 211 
Q 384 513 384 1019 
Q 384 1609 779 1909 
Q 1175 2209 1959 2209 
L 2766 2209 
L 2766 2266 
Q 2766 2663 2505 2880 
Q 2244 3097 1772 3097 
Q 1472 3097 1187 3025 
Q 903 2953 641 2809 
L 641 3341 
Q 956 3463 1253 3523 
Q 1550 3584 1831 3584 
Q 2591 3584 2966 3190 
Q 3341 2797 3341 1997 
z
" transform="scale(0.015625)"/>
      <path id="DejaVuSans-69" d="M 603 3500 
L 1178 3500 
L 1178 0 
L 603 0 
L 603 3500 
z
M 603 4863 
L 1178 4863 
L 1178 4134 
L 603 4134 
L 603 4863 
z
" transform="scale(0.015625)"/>
      <path id="DejaVuSans-77" d="M 269 3500 
L 844 3500 
L 1563 769 
L 2278 3500 
L 2956 3500 
L 3675 769 
L 4391 3500 
L 4966 3500 
L 4050 0 
L 3372 0 
L 2619 2869 
L 1863 0 
L 1184 0 
L 269 3500 
z
" transform="scale(0.015625)"/>
      <path id="DejaVuSans-6e" d="M 3513 2113 
L 3513 0 
L 2938 0 
L 2938 2094 
Q 2938 2591 2744 2837 
Q 2550 3084 2163 3084 
Q 1697 3084 1428 2787 
Q 1159 2491 1159 1978 
L 1159 0 
L 581 0 
L 581 3500 
L 1159 3500 
L 1159 2956 
Q 1366 3272 1645 3428 
Q 1925 3584 2291 3584 
Q 2894 3584 3203 3211 
Q 3513 2838 3513 2113 
z
" transform="scale(0.015625)"/>
      <path id="DejaVuSans-2a" d="M 3009 3897 
L 1888 3291 
L 3009 2681 
L 2828 2375 
L 1778 3009 
L 1778 1831 
L 1422 1831 
L 1422 3009 
L 372 2375 
L 191 2681 
L 1313 3291 
L 191 3897 
L 372 4206 
L 1422 3572 
L 1422 4750 
L 1778 4750 
L 1778 3572 
L 2828 4206 
L 3009 3897 
z
" transform="scale(0.015625)"/>
     </defs>
     <use xlink:href="#DejaVuSans-54"/>
     <use xlink:href="#DejaVuSans-61" x="44.583984"/>
     <use xlink:href="#DejaVuSans-69" x="105.863281"/>
     <use xlink:href="#DejaVuSans-77" x="133.646484"/>
     <use xlink:href="#DejaVuSans-61" x="215.433594"/>
     <use xlink:href="#DejaVuSans-6e" x="276.712891"/>
     <use xlink:href="#DejaVuSans-2a" x="340.091797"/>
    </g>
   </g>
   <g id="text_21">
    <!-- India -->
    <g style="fill: #7d31e0" transform="translate(624.57 266.479662)scale(0.14 -0.14)">
     <defs>
      <path id="DejaVuSans-49" d="M 628 4666 
L 1259 4666 
L 1259 0 
L 628 0 
L 628 4666 
z
" transform="scale(0.015625)"/>
      <path id="DejaVuSans-64" d="M 2906 2969 
L 2906 4863 
L 3481 4863 
L 3481 0 
L 2906 0 
L 2906 525 
Q 2725 213 2448 61 
Q 2172 -91 1784 -91 
Q 1150 -91 751 415 
Q 353 922 353 1747 
Q 353 2572 751 3078 
Q 1150 3584 1784 3584 
Q 2172 3584 2448 3432 
Q 2725 3281 2906 2969 
z
M 947 1747 
Q 947 1113 1208 752 
Q 1469 391 1925 391 
Q 2381 391 2643 752 
Q 2906 1113 2906 1747 
Q 2906 2381 2643 2742 
Q 2381 3103 1925 3103 
Q 1469 3103 1208 2742 
Q 947 2381 947 1747 
z
" transform="scale(0.015625)"/>
     </defs>
     <use xlink:href="#DejaVuSans-49"/>
     <use xlink:href="#DejaVuSans-6e" x="29.492188"/>
     <use xlink:href="#DejaVuSans-64" x="92.871094"/>
     <use xlink:href="#DejaVuSans-69" x="156.347656"/>
     <use xlink:href="#DejaVuSans-61" x="184.130859"/>
    </g>
   </g>
   <g id="text_22">
    <!-- Japan -->
    <g style="fill: #53a577" transform="translate(624.57 280.479662)scale(0.14 -0.14)">
     <defs>
      <path id="DejaVuSans-4a" d="M 628 4666 
L 1259 4666 
L 1259 325 
Q 1259 -519 939 -900 
Q 619 -1281 -91 -1281 
L -331 -1281 
L -331 -750 
L -134 -750 
Q 284 -750 456 -515 
Q 628 -281 628 325 
L 628 4666 
z
" transform="scale(0.015625)"/>
      <path id="DejaVuSans-70" d="M 1159 525 
L 1159 -1331 
L 581 -1331 
L 581 3500 
L 1159 3500 
L 1159 2969 
Q 1341 3281 1617 3432 
Q 1894 3584 2278 3584 
Q 2916 3584 3314 3078 
Q 3713 2572 3713 1747 
Q 3713 922 3314 415 
Q 2916 -91 2278 -91 
Q 1894 -91 1617 61 
Q 1341 213 1159 525 
z
M 3116 1747 
Q 3116 2381 2855 2742 
Q 2594 3103 2138 3103 
Q 1681 3103 1420 2742 
Q 1159 2381 1159 1747 
Q 1159 1113 1420 752 
Q 1681 391 2138 391 
Q 2594 391 2855 752 
Q 3116 1113 3116 1747 
z
" transform="scale(0.015625)"/>
     </defs>
     <use xlink:href="#DejaVuSans-4a"/>
     <use xlink:href="#DejaVuSans-61" x="29.492188"/>
     <use xlink:href="#DejaVuSans-70" x="90.771484"/>
     <use xlink:href="#DejaVuSans-61" x="154.248047"/>
     <use xlink:href="#DejaVuSans-6e" x="215.527344"/>
    </g>
   </g>
   <g id="text_23">
    <!-- Thailand -->
    <g style="fill: #103357" transform="translate(624.57 294.479662)scale(0.14 -0.14)">
     <defs>
      <path id="DejaVuSans-68" d="M 3513 2113 
L 3513 0 
L 2938 0 
L 2938 2094 
Q 2938 2591 2744 2837 
Q 2550 3084 2163 3084 
Q 1697 3084 1428 2787 
Q 1159 2491 1159 1978 
L 1159 0 
L 581 0 
L 581 4863 
L 1159 4863 
L 1159 2956 
Q 1366 3272 1645 3428 
Q 1925 3584 2291 3584 
Q 2894 3584 3203 3211 
Q 3513 2838 3513 2113 
z
" transform="scale(0.015625)"/>
      <path id="DejaVuSans-6c" d="M 603 4863 
L 1178 4863 
L 1178 0 
L 603 0 
L 603 4863 
z
" transform="scale(0.015625)"/>
     </defs>
     <use xlink:href="#DejaVuSans-54"/>
     <use xlink:href="#DejaVuSans-68" x="61.083984"/>
     <use xlink:href="#DejaVuSans-61" x="124.462891"/>
     <use xlink:href="#DejaVuSans-69" x="185.742188"/>
     <use xlink:href="#DejaVuSans-6c" x="213.525391"/>
     <use xlink:href="#DejaVuSans-61" x="241.308594"/>
     <use xlink:href="#DejaVuSans-6e" x="302.587891"/>
     <use xlink:href="#DejaVuSans-64" x="365.966797"/>
    </g>
   </g>
   <g id="text_24">
    <!-- Iran -->
    <g style="fill: #21fc68" transform="translate(624.57 308.479662)scale(0.14 -0.14)">
     <defs>
      <path id="DejaVuSans-72" d="M 2631 2963 
Q 2534 3019 2420 3045 
Q 2306 3072 2169 3072 
Q 1681 3072 1420 2755 
Q 1159 2438 1159 1844 
L 1159 0 
L 581 0 
L 581 3500 
L 1159 3500 
L 1159 2956 
Q 1341 3275 1631 3429 
Q 1922 3584 2338 3584 
Q 2397 3584 2469 3576 
Q 2541 3569 2628 3553 
L 2631 2963 
z
" transform="scale(0.015625)"/>
     </defs>
     <use xlink:href="#DejaVuSans-49"/>
     <use xlink:href="#DejaVuSans-72" x="29.492188"/>
     <use xlink:href="#DejaVuSans-61" x="70.605469"/>
     <use xlink:href="#DejaVuSans-6e" x="131.884766"/>
    </g>
   </g>
  </g>
 </g>
 <defs>
  <clipPath id="p83925bb7e6">
   <rect x="49.83" y="7.2" width="558" height="271.8"/>
  </clipPath>
 </defs>
</svg>
