<?xml version="1.0" encoding="utf-8" standalone="no"?>
<!DOCTYPE svg PUBLIC "-//W3C//DTD SVG 1.1//EN"
  "http://www.w3.org/Graphics/SVG/1.1/DTD/svg11.dtd">
<svg xmlns:xlink="http://www.w3.org/1999/xlink" width="738.8525pt" height="310.75283pt" viewBox="0 0 738.8525 310.75283" xmlns="http://www.w3.org/2000/svg" version="1.1">
 <metadata>
  <rdf:RDF xmlns:dc="http://purl.org/dc/elements/1.1/" xmlns:cc="http://creativecommons.org/ns#" xmlns:rdf="http://www.w3.org/1999/02/22-rdf-syntax-ns#">
   <cc:Work>
    <dc:type rdf:resource="http://purl.org/dc/dcmitype/StillImage"/>
    <dc:date>2022-06-29T14:14:44.250643</dc:date>
    <dc:format>image/svg+xml</dc:format>
    <dc:creator>
     <cc:Agent>
      <dc:title>Matplotlib v3.5.1, https://matplotlib.org/</dc:title>
     </cc:Agent>
    </dc:creator>
   </cc:Work>
  </rdf:RDF>
 </metadata>
 <defs>
  <style type="text/css">*{stroke-linejoin: round; stroke-linecap: butt}</style>
 </defs>
 <g id="figure_1">
  <g id="patch_1">
   <path d="M 0 310.75283 
L 738.8525 310.75283 
L 738.8525 0 
L 0 0 
L 0 310.75283 
z
" style="fill: none"/>
  </g>
  <g id="axes_1">
   <g id="patch_2">
    <path d="M 67.645 280.96496 
L 625.645 280.96496 
L 625.645 9.16496 
L 67.645 9.16496 
L 67.645 280.96496 
z
" style="fill: none"/>
   </g>
   <g id="matplotlib.axis_1">
    <g id="xtick_1">
     <g id="line2d_1">
      <defs>
       <path id="m30bb0e6495" d="M 0 0 
L 0 3.5 
" style="stroke: #b0b0b0; stroke-width: 0.4"/>
      </defs>
      <g>
       <use xlink:href="#m30bb0e6495" x="108.134796" y="280.96496" style="fill: #b0b0b0; stroke: #b0b0b0; stroke-width: 0.4"/>
      </g>
     </g>
     <g id="text_1">
      <!-- 2020-04 -->
      <g style="fill: #b0b0b0" transform="translate(78.886827 298.602773)scale(0.14 -0.14)">
       <defs>
        <path id="DejaVuSans-32" d="M 1228 531 
L 3431 531 
L 3431 0 
L 469 0 
L 469 531 
Q 828 903 1448 1529 
Q 2069 2156 2228 2338 
Q 2531 2678 2651 2914 
Q 2772 3150 2772 3378 
Q 2772 3750 2511 3984 
Q 2250 4219 1831 4219 
Q 1534 4219 1204 4116 
Q 875 4013 500 3803 
L 500 4441 
Q 881 4594 1212 4672 
Q 1544 4750 1819 4750 
Q 2544 4750 2975 4387 
Q 3406 4025 3406 3419 
Q 3406 3131 3298 2873 
Q 3191 2616 2906 2266 
Q 2828 2175 2409 1742 
Q 1991 1309 1228 531 
z
" transform="scale(0.015625)"/>
        <path id="DejaVuSans-30" d="M 2034 4250 
Q 1547 4250 1301 3770 
Q 1056 3291 1056 2328 
Q 1056 1369 1301 889 
Q 1547 409 2034 409 
Q 2525 409 2770 889 
Q 3016 1369 3016 2328 
Q 3016 3291 2770 3770 
Q 2525 4250 2034 4250 
z
M 2034 4750 
Q 2819 4750 3233 4129 
Q 3647 3509 3647 2328 
Q 3647 1150 3233 529 
Q 2819 -91 2034 -91 
Q 1250 -91 836 529 
Q 422 1150 422 2328 
Q 422 3509 836 4129 
Q 1250 4750 2034 4750 
z
" transform="scale(0.015625)"/>
        <path id="DejaVuSans-2d" d="M 313 2009 
L 1997 2009 
L 1997 1497 
L 313 1497 
L 313 2009 
z
" transform="scale(0.015625)"/>
        <path id="DejaVuSans-34" d="M 2419 4116 
L 825 1625 
L 2419 1625 
L 2419 4116 
z
M 2253 4666 
L 3047 4666 
L 3047 1625 
L 3713 1625 
L 3713 1100 
L 3047 1100 
L 3047 0 
L 2419 0 
L 2419 1100 
L 313 1100 
L 313 1709 
L 2253 4666 
z
" transform="scale(0.015625)"/>
       </defs>
       <use xlink:href="#DejaVuSans-32"/>
       <use xlink:href="#DejaVuSans-30" x="63.623047"/>
       <use xlink:href="#DejaVuSans-32" x="127.246094"/>
       <use xlink:href="#DejaVuSans-30" x="190.869141"/>
       <use xlink:href="#DejaVuSans-2d" x="254.492188"/>
       <use xlink:href="#DejaVuSans-30" x="290.576172"/>
       <use xlink:href="#DejaVuSans-34" x="354.199219"/>
      </g>
     </g>
    </g>
    <g id="xtick_2">
     <g id="line2d_2">
      <g>
       <use xlink:href="#m30bb0e6495" x="165.706224" y="280.96496" style="fill: #b0b0b0; stroke: #b0b0b0; stroke-width: 0.4"/>
      </g>
     </g>
     <g id="text_2">
      <!-- 2020-07 -->
      <g style="fill: #b0b0b0" transform="translate(136.458256 298.602773)scale(0.14 -0.14)">
       <defs>
        <path id="DejaVuSans-37" d="M 525 4666 
L 3525 4666 
L 3525 4397 
L 1831 0 
L 1172 0 
L 2766 4134 
L 525 4134 
L 525 4666 
z
" transform="scale(0.015625)"/>
       </defs>
       <use xlink:href="#DejaVuSans-32"/>
       <use xlink:href="#DejaVuSans-30" x="63.623047"/>
       <use xlink:href="#DejaVuSans-32" x="127.246094"/>
       <use xlink:href="#DejaVuSans-30" x="190.869141"/>
       <use xlink:href="#DejaVuSans-2d" x="254.492188"/>
       <use xlink:href="#DejaVuSans-30" x="290.576172"/>
       <use xlink:href="#DejaVuSans-37" x="354.199219"/>
      </g>
     </g>
    </g>
    <g id="xtick_3">
     <g id="line2d_3">
      <g>
       <use xlink:href="#m30bb0e6495" x="223.910306" y="280.96496" style="fill: #b0b0b0; stroke: #b0b0b0; stroke-width: 0.4"/>
      </g>
     </g>
     <g id="text_3">
      <!-- 2020-10 -->
      <g style="fill: #b0b0b0" transform="translate(194.662337 298.602773)scale(0.14 -0.14)">
       <defs>
        <path id="DejaVuSans-31" d="M 794 531 
L 1825 531 
L 1825 4091 
L 703 3866 
L 703 4441 
L 1819 4666 
L 2450 4666 
L 2450 531 
L 3481 531 
L 3481 0 
L 794 0 
L 794 531 
z
" transform="scale(0.015625)"/>
       </defs>
       <use xlink:href="#DejaVuSans-32"/>
       <use xlink:href="#DejaVuSans-30" x="63.623047"/>
       <use xlink:href="#DejaVuSans-32" x="127.246094"/>
       <use xlink:href="#DejaVuSans-30" x="190.869141"/>
       <use xlink:href="#DejaVuSans-2d" x="254.492188"/>
       <use xlink:href="#DejaVuSans-31" x="290.576172"/>
       <use xlink:href="#DejaVuSans-30" x="354.199219"/>
      </g>
     </g>
    </g>
    <g id="xtick_4">
     <g id="line2d_4">
      <g>
       <use xlink:href="#m30bb0e6495" x="282.114388" y="280.96496" style="fill: #b0b0b0; stroke: #b0b0b0; stroke-width: 0.4"/>
      </g>
     </g>
     <g id="text_4">
      <!-- 2021-01 -->
      <g style="fill: #b0b0b0" transform="translate(252.866419 298.602773)scale(0.14 -0.14)">
       <use xlink:href="#DejaVuSans-32"/>
       <use xlink:href="#DejaVuSans-30" x="63.623047"/>
       <use xlink:href="#DejaVuSans-32" x="127.246094"/>
       <use xlink:href="#DejaVuSans-31" x="190.869141"/>
       <use xlink:href="#DejaVuSans-2d" x="254.492188"/>
       <use xlink:href="#DejaVuSans-30" x="290.576172"/>
       <use xlink:href="#DejaVuSans-31" x="354.199219"/>
      </g>
     </g>
    </g>
    <g id="xtick_5">
     <g id="line2d_5">
      <g>
       <use xlink:href="#m30bb0e6495" x="339.053163" y="280.96496" style="fill: #b0b0b0; stroke: #b0b0b0; stroke-width: 0.4"/>
      </g>
     </g>
     <g id="text_5">
      <!-- 2021-04 -->
      <g style="fill: #b0b0b0" transform="translate(309.805195 298.602773)scale(0.14 -0.14)">
       <use xlink:href="#DejaVuSans-32"/>
       <use xlink:href="#DejaVuSans-30" x="63.623047"/>
       <use xlink:href="#DejaVuSans-32" x="127.246094"/>
       <use xlink:href="#DejaVuSans-31" x="190.869141"/>
       <use xlink:href="#DejaVuSans-2d" x="254.492188"/>
       <use xlink:href="#DejaVuSans-30" x="290.576172"/>
       <use xlink:href="#DejaVuSans-34" x="354.199219"/>
      </g>
     </g>
    </g>
    <g id="xtick_6">
     <g id="line2d_6">
      <g>
       <use xlink:href="#m30bb0e6495" x="396.624592" y="280.96496" style="fill: #b0b0b0; stroke: #b0b0b0; stroke-width: 0.4"/>
      </g>
     </g>
     <g id="text_6">
      <!-- 2021-07 -->
      <g style="fill: #b0b0b0" transform="translate(367.376623 298.602773)scale(0.14 -0.14)">
       <use xlink:href="#DejaVuSans-32"/>
       <use xlink:href="#DejaVuSans-30" x="63.623047"/>
       <use xlink:href="#DejaVuSans-32" x="127.246094"/>
       <use xlink:href="#DejaVuSans-31" x="190.869141"/>
       <use xlink:href="#DejaVuSans-2d" x="254.492188"/>
       <use xlink:href="#DejaVuSans-30" x="290.576172"/>
       <use xlink:href="#DejaVuSans-37" x="354.199219"/>
      </g>
     </g>
    </g>
    <g id="xtick_7">
     <g id="line2d_7">
      <g>
       <use xlink:href="#m30bb0e6495" x="454.828673" y="280.96496" style="fill: #b0b0b0; stroke: #b0b0b0; stroke-width: 0.4"/>
      </g>
     </g>
     <g id="text_7">
      <!-- 2021-10 -->
      <g style="fill: #b0b0b0" transform="translate(425.580705 298.602773)scale(0.14 -0.14)">
       <use xlink:href="#DejaVuSans-32"/>
       <use xlink:href="#DejaVuSans-30" x="63.623047"/>
       <use xlink:href="#DejaVuSans-32" x="127.246094"/>
       <use xlink:href="#DejaVuSans-31" x="190.869141"/>
       <use xlink:href="#DejaVuSans-2d" x="254.492188"/>
       <use xlink:href="#DejaVuSans-31" x="290.576172"/>
       <use xlink:href="#DejaVuSans-30" x="354.199219"/>
      </g>
     </g>
    </g>
    <g id="xtick_8">
     <g id="line2d_8">
      <g>
       <use xlink:href="#m30bb0e6495" x="513.032755" y="280.96496" style="fill: #b0b0b0; stroke: #b0b0b0; stroke-width: 0.4"/>
      </g>
     </g>
     <g id="text_8">
      <!-- 2022-01 -->
      <g style="fill: #b0b0b0" transform="translate(483.784786 298.602773)scale(0.14 -0.14)">
       <use xlink:href="#DejaVuSans-32"/>
       <use xlink:href="#DejaVuSans-30" x="63.623047"/>
       <use xlink:href="#DejaVuSans-32" x="127.246094"/>
       <use xlink:href="#DejaVuSans-32" x="190.869141"/>
       <use xlink:href="#DejaVuSans-2d" x="254.492188"/>
       <use xlink:href="#DejaVuSans-30" x="290.576172"/>
       <use xlink:href="#DejaVuSans-31" x="354.199219"/>
      </g>
     </g>
    </g>
    <g id="xtick_9">
     <g id="line2d_9">
      <g>
       <use xlink:href="#m30bb0e6495" x="569.971531" y="280.96496" style="fill: #b0b0b0; stroke: #b0b0b0; stroke-width: 0.4"/>
      </g>
     </g>
     <g id="text_9">
      <!-- 2022-04 -->
      <g style="fill: #b0b0b0" transform="translate(540.723562 298.602773)scale(0.14 -0.14)">
       <use xlink:href="#DejaVuSans-32"/>
       <use xlink:href="#DejaVuSans-30" x="63.623047"/>
       <use xlink:href="#DejaVuSans-32" x="127.246094"/>
       <use xlink:href="#DejaVuSans-32" x="190.869141"/>
       <use xlink:href="#DejaVuSans-2d" x="254.492188"/>
       <use xlink:href="#DejaVuSans-30" x="290.576172"/>
       <use xlink:href="#DejaVuSans-34" x="354.199219"/>
      </g>
     </g>
    </g>
   </g>
   <g id="matplotlib.axis_2">
    <g id="ytick_1">
     <g id="line2d_10">
      <path d="M 67.645 280.96496 
L 625.645 280.96496 
" clip-path="url(#pf4d04c849e)" style="fill: none; stroke: #b0b0b0; stroke-width: 0.3; stroke-linecap: square"/>
     </g>
     <g id="line2d_11">
      <defs>
       <path id="md0f41ebb1f" d="M 0 0 
L -3.5 0 
" style="stroke: #b0b0b0; stroke-width: 0.3"/>
      </defs>
      <g>
       <use xlink:href="#md0f41ebb1f" x="67.645" y="280.96496" style="fill: #b0b0b0; stroke: #b0b0b0; stroke-width: 0.3"/>
      </g>
     </g>
     <g id="text_10">
      <!-- 0 -->
      <g style="fill: #b0b0b0" transform="translate(51.7375 286.283867)scale(0.14 -0.14)">
       <use xlink:href="#DejaVuSans-30"/>
      </g>
     </g>
    </g>
    <g id="ytick_2">
     <g id="line2d_12">
      <path d="M 67.645 247.409204 
L 625.645 247.409204 
" clip-path="url(#pf4d04c849e)" style="fill: none; stroke: #b0b0b0; stroke-width: 0.3; stroke-linecap: square"/>
     </g>
     <g id="line2d_13">
      <g>
       <use xlink:href="#md0f41ebb1f" x="67.645" y="247.409204" style="fill: #b0b0b0; stroke: #b0b0b0; stroke-width: 0.3"/>
      </g>
     </g>
     <g id="text_11">
      <!-- 50000 -->
      <g style="fill: #b0b0b0" transform="translate(16.1075 252.72811)scale(0.14 -0.14)">
       <defs>
        <path id="DejaVuSans-35" d="M 691 4666 
L 3169 4666 
L 3169 4134 
L 1269 4134 
L 1269 2991 
Q 1406 3038 1543 3061 
Q 1681 3084 1819 3084 
Q 2600 3084 3056 2656 
Q 3513 2228 3513 1497 
Q 3513 744 3044 326 
Q 2575 -91 1722 -91 
Q 1428 -91 1123 -41 
Q 819 9 494 109 
L 494 744 
Q 775 591 1075 516 
Q 1375 441 1709 441 
Q 2250 441 2565 725 
Q 2881 1009 2881 1497 
Q 2881 1984 2565 2268 
Q 2250 2553 1709 2553 
Q 1456 2553 1204 2497 
Q 953 2441 691 2322 
L 691 4666 
z
" transform="scale(0.015625)"/>
       </defs>
       <use xlink:href="#DejaVuSans-35"/>
       <use xlink:href="#DejaVuSans-30" x="63.623047"/>
       <use xlink:href="#DejaVuSans-30" x="127.246094"/>
       <use xlink:href="#DejaVuSans-30" x="190.869141"/>
       <use xlink:href="#DejaVuSans-30" x="254.492188"/>
      </g>
     </g>
    </g>
    <g id="ytick_3">
     <g id="line2d_14">
      <path d="M 67.645 213.853447 
L 625.645 213.853447 
" clip-path="url(#pf4d04c849e)" style="fill: none; stroke: #b0b0b0; stroke-width: 0.3; stroke-linecap: square"/>
     </g>
     <g id="line2d_15">
      <g>
       <use xlink:href="#md0f41ebb1f" x="67.645" y="213.853447" style="fill: #b0b0b0; stroke: #b0b0b0; stroke-width: 0.3"/>
      </g>
     </g>
     <g id="text_12">
      <!-- 100000 -->
      <g style="fill: #b0b0b0" transform="translate(7.2 219.172353)scale(0.14 -0.14)">
       <use xlink:href="#DejaVuSans-31"/>
       <use xlink:href="#DejaVuSans-30" x="63.623047"/>
       <use xlink:href="#DejaVuSans-30" x="127.246094"/>
       <use xlink:href="#DejaVuSans-30" x="190.869141"/>
       <use xlink:href="#DejaVuSans-30" x="254.492188"/>
       <use xlink:href="#DejaVuSans-30" x="318.115234"/>
      </g>
     </g>
    </g>
    <g id="ytick_4">
     <g id="line2d_16">
      <path d="M 67.645 180.29769 
L 625.645 180.29769 
" clip-path="url(#pf4d04c849e)" style="fill: none; stroke: #b0b0b0; stroke-width: 0.3; stroke-linecap: square"/>
     </g>
     <g id="line2d_17">
      <g>
       <use xlink:href="#md0f41ebb1f" x="67.645" y="180.29769" style="fill: #b0b0b0; stroke: #b0b0b0; stroke-width: 0.3"/>
      </g>
     </g>
     <g id="text_13">
      <!-- 150000 -->
      <g style="fill: #b0b0b0" transform="translate(7.2 185.616596)scale(0.14 -0.14)">
       <use xlink:href="#DejaVuSans-31"/>
       <use xlink:href="#DejaVuSans-35" x="63.623047"/>
       <use xlink:href="#DejaVuSans-30" x="127.246094"/>
       <use xlink:href="#DejaVuSans-30" x="190.869141"/>
       <use xlink:href="#DejaVuSans-30" x="254.492188"/>
       <use xlink:href="#DejaVuSans-30" x="318.115234"/>
      </g>
     </g>
    </g>
    <g id="ytick_5">
     <g id="line2d_18">
      <path d="M 67.645 146.741933 
L 625.645 146.741933 
" clip-path="url(#pf4d04c849e)" style="fill: none; stroke: #b0b0b0; stroke-width: 0.3; stroke-linecap: square"/>
     </g>
     <g id="line2d_19">
      <g>
       <use xlink:href="#md0f41ebb1f" x="67.645" y="146.741933" style="fill: #b0b0b0; stroke: #b0b0b0; stroke-width: 0.3"/>
      </g>
     </g>
     <g id="text_14">
      <!-- 200000 -->
      <g style="fill: #b0b0b0" transform="translate(7.2 152.06084)scale(0.14 -0.14)">
       <use xlink:href="#DejaVuSans-32"/>
       <use xlink:href="#DejaVuSans-30" x="63.623047"/>
       <use xlink:href="#DejaVuSans-30" x="127.246094"/>
       <use xlink:href="#DejaVuSans-30" x="190.869141"/>
       <use xlink:href="#DejaVuSans-30" x="254.492188"/>
       <use xlink:href="#DejaVuSans-30" x="318.115234"/>
      </g>
     </g>
    </g>
    <g id="ytick_6">
     <g id="line2d_20">
      <path d="M 67.645 113.186177 
L 625.645 113.186177 
" clip-path="url(#pf4d04c849e)" style="fill: none; stroke: #b0b0b0; stroke-width: 0.3; stroke-linecap: square"/>
     </g>
     <g id="line2d_21">
      <g>
       <use xlink:href="#md0f41ebb1f" x="67.645" y="113.186177" style="fill: #b0b0b0; stroke: #b0b0b0; stroke-width: 0.3"/>
      </g>
     </g>
     <g id="text_15">
      <!-- 250000 -->
      <g style="fill: #b0b0b0" transform="translate(7.2 118.505083)scale(0.14 -0.14)">
       <use xlink:href="#DejaVuSans-32"/>
       <use xlink:href="#DejaVuSans-35" x="63.623047"/>
       <use xlink:href="#DejaVuSans-30" x="127.246094"/>
       <use xlink:href="#DejaVuSans-30" x="190.869141"/>
       <use xlink:href="#DejaVuSans-30" x="254.492188"/>
       <use xlink:href="#DejaVuSans-30" x="318.115234"/>
      </g>
     </g>
    </g>
    <g id="ytick_7">
     <g id="line2d_22">
      <path d="M 67.645 79.63042 
L 625.645 79.63042 
" clip-path="url(#pf4d04c849e)" style="fill: none; stroke: #b0b0b0; stroke-width: 0.3; stroke-linecap: square"/>
     </g>
     <g id="line2d_23">
      <g>
       <use xlink:href="#md0f41ebb1f" x="67.645" y="79.63042" style="fill: #b0b0b0; stroke: #b0b0b0; stroke-width: 0.3"/>
      </g>
     </g>
     <g id="text_16">
      <!-- 300000 -->
      <g style="fill: #b0b0b0" transform="translate(7.2 84.949326)scale(0.14 -0.14)">
       <defs>
        <path id="DejaVuSans-33" d="M 2597 2516 
Q 3050 2419 3304 2112 
Q 3559 1806 3559 1356 
Q 3559 666 3084 287 
Q 2609 -91 1734 -91 
Q 1441 -91 1130 -33 
Q 819 25 488 141 
L 488 750 
Q 750 597 1062 519 
Q 1375 441 1716 441 
Q 2309 441 2620 675 
Q 2931 909 2931 1356 
Q 2931 1769 2642 2001 
Q 2353 2234 1838 2234 
L 1294 2234 
L 1294 2753 
L 1863 2753 
Q 2328 2753 2575 2939 
Q 2822 3125 2822 3475 
Q 2822 3834 2567 4026 
Q 2313 4219 1838 4219 
Q 1578 4219 1281 4162 
Q 984 4106 628 3988 
L 628 4550 
Q 988 4650 1302 4700 
Q 1616 4750 1894 4750 
Q 2613 4750 3031 4423 
Q 3450 4097 3450 3541 
Q 3450 3153 3228 2886 
Q 3006 2619 2597 2516 
z
" transform="scale(0.015625)"/>
       </defs>
       <use xlink:href="#DejaVuSans-33"/>
       <use xlink:href="#DejaVuSans-30" x="63.623047"/>
       <use xlink:href="#DejaVuSans-30" x="127.246094"/>
       <use xlink:href="#DejaVuSans-30" x="190.869141"/>
       <use xlink:href="#DejaVuSans-30" x="254.492188"/>
       <use xlink:href="#DejaVuSans-30" x="318.115234"/>
      </g>
     </g>
    </g>
    <g id="ytick_8">
     <g id="line2d_24">
      <path d="M 67.645 46.074663 
L 625.645 46.074663 
" clip-path="url(#pf4d04c849e)" style="fill: none; stroke: #b0b0b0; stroke-width: 0.3; stroke-linecap: square"/>
     </g>
     <g id="line2d_25">
      <g>
       <use xlink:href="#md0f41ebb1f" x="67.645" y="46.074663" style="fill: #b0b0b0; stroke: #b0b0b0; stroke-width: 0.3"/>
      </g>
     </g>
     <g id="text_17">
      <!-- 350000 -->
      <g style="fill: #b0b0b0" transform="translate(7.2 51.393569)scale(0.14 -0.14)">
       <use xlink:href="#DejaVuSans-33"/>
       <use xlink:href="#DejaVuSans-35" x="63.623047"/>
       <use xlink:href="#DejaVuSans-30" x="127.246094"/>
       <use xlink:href="#DejaVuSans-30" x="190.869141"/>
       <use xlink:href="#DejaVuSans-30" x="254.492188"/>
       <use xlink:href="#DejaVuSans-30" x="318.115234"/>
      </g>
     </g>
    </g>
    <g id="ytick_9">
     <g id="line2d_26">
      <path d="M 67.645 12.518906 
L 625.645 12.518906 
" clip-path="url(#pf4d04c849e)" style="fill: none; stroke: #b0b0b0; stroke-width: 0.3; stroke-linecap: square"/>
     </g>
     <g id="line2d_27">
      <g>
       <use xlink:href="#md0f41ebb1f" x="67.645" y="12.518906" style="fill: #b0b0b0; stroke: #b0b0b0; stroke-width: 0.3"/>
      </g>
     </g>
     <g id="text_18">
      <!-- 400000 -->
      <g style="fill: #b0b0b0" transform="translate(7.2 17.837812)scale(0.14 -0.14)">
       <use xlink:href="#DejaVuSans-34"/>
       <use xlink:href="#DejaVuSans-30" x="63.623047"/>
       <use xlink:href="#DejaVuSans-30" x="127.246094"/>
       <use xlink:href="#DejaVuSans-30" x="190.869141"/>
       <use xlink:href="#DejaVuSans-30" x="254.492188"/>
       <use xlink:href="#DejaVuSans-30" x="318.115234"/>
      </g>
     </g>
    </g>
   </g>
   <g id="line2d_28">
    <path d="M 67.645 280.964193 
L 367.522551 280.917215 
L 376.379694 280.596998 
L 381.440918 280.679257 
L 399.787857 280.932363 
L 456.726633 280.959496 
L 569.971531 280.853172 
L 580.09398 280.284546 
L 581.991939 279.949371 
L 583.257245 279.503559 
L 584.522551 278.85948 
L 585.787857 278.05884 
L 586.42051 277.441414 
L 587.685816 275.821055 
L 588.951122 273.631877 
L 589.583776 274.132145 
L 590.216429 270.81003 
L 592.114388 264.875838 
L 593.379694 267.963159 
L 594.012347 255.601698 
L 594.645 254.659069 
L 595.277653 251.911715 
L 595.910306 248.514818 
L 596.542959 251.982278 
L 597.175612 239.618995 
L 597.808265 233.030658 
L 598.440918 239.475376 
L 599.073571 238.038902 
L 600.338878 233.05779 
L 600.971531 224.838547 
L 601.604184 229.090349 
L 602.236837 228.059229 
L 602.86949 227.622524 
L 603.502143 226.033228 
L 604.134796 225.622985 
L 604.767449 226.344817 
L 605.400102 225.475627 
L 607.930714 226.895707 
L 608.563367 227.002414 
L 609.19602 227.478043 
L 609.828673 229.231667 
L 611.09398 231.820254 
L 611.726633 232.498368 
L 612.359286 232.271914 
L 612.991939 233.055968 
L 613.624592 233.447516 
L 614.257245 234.23483 
L 614.889898 233.133434 
L 615.522551 234.236939 
L 616.155204 234.995299 
L 616.787857 236.610961 
L 618.685816 239.863281 
L 619.318469 242.351201 
L 619.951122 242.345832 
L 621.216429 244.191686 
L 622.481735 247.214197 
L 623.114388 248.123654 
L 624.379694 250.451369 
L 625.012347 251.126606 
L 625.645 252.2722 
L 625.645 252.2722 
" clip-path="url(#pf4d04c849e)" style="fill: none; stroke: #fe7b74; stroke-width: 1.5; stroke-linecap: square"/>
   </g>
   <g id="line2d_29">
    <path d="M 67.645 280.964289 
L 107.502143 280.865444 
L 119.522551 280.635059 
L 123.318469 280.712046 
L 137.86949 280.926803 
L 151.155204 280.938499 
L 167.604184 280.849337 
L 178.359286 280.591725 
L 190.379694 280.038055 
L 193.542959 280.192795 
L 196.706224 280.254633 
L 199.86949 280.34926 
L 211.889898 280.604572 
L 240.359286 280.557402 
L 248.583776 280.318485 
L 254.277653 279.873823 
L 257.440918 279.529829 
L 259.338878 279.58812 
L 268.828673 279.351696 
L 271.359286 279.229553 
L 277.685816 278.967051 
L 281.481735 278.559684 
L 283.379694 278.671664 
L 284.645 278.454223 
L 285.910306 277.947243 
L 287.175612 277.037978 
L 287.808265 276.755918 
L 288.440918 276.606068 
L 290.971531 276.822167 
L 292.236837 276.93338 
L 294.767449 276.988795 
L 297.930714 277.933917 
L 301.09398 278.637725 
L 302.991939 279.005784 
L 304.889898 279.368761 
L 307.42051 279.668174 
L 310.583776 279.993665 
L 320.073571 280.308322 
L 322.604184 280.275821 
L 333.359286 280.059626 
L 337.787857 279.70499 
L 340.951122 279.347285 
L 342.849082 279.212104 
L 354.236837 277.76959 
L 359.930714 277.426554 
L 361.19602 277.739677 
L 363.09398 277.431443 
L 363.726633 277.385808 
L 364.991939 276.902988 
L 365.624592 276.662921 
L 366.889898 276.721308 
L 381.440918 279.330699 
L 387.134796 279.87622 
L 390.298061 280.007567 
L 399.787857 279.871139 
L 404.216429 279.51842 
L 408.645 278.748651 
L 410.542959 278.31348 
L 411.175612 278.341475 
L 412.440918 277.927397 
L 413.706224 277.103843 
L 414.971531 275.958154 
L 415.604184 275.111782 
L 416.86949 274.251029 
L 421.298061 271.371657 
L 421.930714 271.502812 
L 422.563367 271.338293 
L 423.828673 270.53238 
L 425.09398 269.780347 
L 425.726633 269.509121 
L 426.991939 267.837086 
L 428.257245 266.70549 
L 429.522551 265.764394 
L 430.787857 265.430658 
L 432.053163 265.429508 
L 433.318469 265.858638 
L 435.216429 266.837316 
L 435.849082 267.25753 
L 440.910306 272.599319 
L 442.175612 274.044517 
L 442.808265 274.590421 
L 444.073571 275.393746 
L 445.338878 276.37971 
L 447.236837 277.498076 
L 447.86949 277.685221 
L 449.134796 278.4594 
L 452.298061 279.367419 
L 452.930714 279.372021 
L 457.359286 280.122232 
L 459.889898 280.366422 
L 465.583776 280.616939 
L 473.175612 280.787403 
L 513.665408 280.710224 
L 514.930714 280.581274 
L 515.563367 280.380707 
L 516.19602 280.010155 
L 516.828673 279.468278 
L 518.09398 277.98799 
L 519.359286 276.964155 
L 519.991939 275.952306 
L 521.257245 273.057882 
L 523.155204 268.332752 
L 525.053163 260.519246 
L 526.951122 252.755307 
L 527.583776 250.46968 
L 531.379694 232.847635 
L 532.645 229.463393 
L 533.910306 224.775846 
L 535.175612 221.521225 
L 535.808265 220.388478 
L 536.440918 219.709598 
L 537.073571 217.840925 
L 537.706224 217.55062 
L 538.338878 218.005157 
L 538.971531 217.99346 
L 539.604184 221.242425 
L 540.236837 222.4349 
L 540.86949 223.190959 
L 541.502143 224.813716 
L 542.134796 225.476586 
L 542.767449 225.906962 
L 543.400102 226.929071 
L 544.032755 225.674373 
L 544.665408 226.238685 
L 545.298061 227.019479 
L 545.930714 228.429876 
L 546.563367 229.444506 
L 547.19602 232.700661 
L 547.828673 234.814194 
L 549.09398 236.468397 
L 549.726633 236.554012 
L 550.359286 236.945081 
L 550.991939 237.686471 
L 551.624592 236.812487 
L 552.257245 237.006536 
L 553.522551 238.753928 
L 554.787857 241.193335 
L 557.318469 244.474513 
L 557.951122 244.765777 
L 559.849082 246.082697 
L 561.114388 247.452539 
L 562.379694 249.555238 
L 563.012347 250.01476 
L 563.645 252.943027 
L 564.277653 254.562716 
L 564.910306 254.939307 
L 565.542959 255.106319 
L 567.440918 254.296667 
L 568.073571 251.975279 
L 568.706224 250.759506 
L 570.604184 250.256362 
L 571.236837 249.873251 
L 572.502143 249.728098 
L 573.134796 249.617652 
L 575.032755 248.662463 
L 575.665408 248.486823 
L 577.563367 247.520225 
L 578.19602 247.489354 
L 578.828673 247.695195 
L 579.461327 248.184629 
L 581.991939 251.778738 
L 583.257245 253.211665 
L 583.889898 253.559878 
L 584.522551 253.62814 
L 585.787857 253.606377 
L 586.42051 253.762363 
L 587.685816 254.881687 
L 588.318469 256.694944 
L 588.951122 257.808324 
L 589.583776 258.336109 
L 590.216429 259.295324 
L 592.114388 264.646221 
L 593.379694 261.791584 
L 594.012347 260.919614 
L 594.645 259.811028 
L 596.542959 254.21201 
L 597.175612 254.202231 
L 598.440918 255.563061 
L 599.706224 256.423622 
L 600.971531 256.836358 
L 603.502143 258.257396 
L 604.134796 258.925444 
L 605.400102 260.703803 
L 606.665408 262.701137 
L 607.298061 263.308401 
L 608.563367 265.50659 
L 609.19602 266.544518 
L 610.461327 268.041584 
L 611.09398 268.578859 
L 611.726633 268.864467 
L 612.991939 269.731835 
L 614.889898 270.678012 
L 618.053163 271.417005 
L 619.951122 271.575772 
L 621.849082 271.517481 
L 625.012347 270.843873 
L 625.645 270.46057 
L 625.645 270.46057 
" clip-path="url(#pf4d04c849e)" style="fill: none; stroke: #53a577; stroke-width: 1.5; stroke-linecap: square"/>
   </g>
   <g id="line2d_30">
    <path d="M 67.645 280.96496 
L 107.502143 280.882413 
L 115.09398 280.426438 
L 118.257245 280.31743 
L 123.318469 279.952439 
L 124.583776 279.918788 
L 127.747041 279.67872 
L 129.645 279.231949 
L 131.542959 278.813749 
L 137.86949 278.130937 
L 140.400102 277.224932 
L 142.298061 276.686889 
L 142.930714 276.716035 
L 146.09398 275.972535 
L 146.726633 275.843393 
L 148.624592 275.085321 
L 149.889898 274.752831 
L 150.522551 274.553222 
L 152.42051 274.274805 
L 153.685816 273.9845 
L 156.849082 273.26238 
L 158.747041 272.381494 
L 160.012347 271.653334 
L 161.277653 270.787116 
L 163.175612 269.61276 
L 164.440918 268.824967 
L 166.338878 268.008316 
L 169.502143 265.918943 
L 171.400102 264.417083 
L 172.665408 263.627084 
L 173.930714 262.38811 
L 175.828673 260.048411 
L 178.991939 255.084747 
L 180.257245 252.400383 
L 181.522551 250.533724 
L 182.155204 249.83145 
L 182.787857 248.503025 
L 184.053163 247.731531 
L 184.685816 246.549793 
L 185.318469 245.962663 
L 185.951122 245.675905 
L 186.583776 244.947937 
L 187.216429 244.860404 
L 187.849082 244.286313 
L 188.481735 243.351066 
L 189.114388 243.322784 
L 190.379694 241.524579 
L 191.012347 241.375879 
L 191.645 240.565363 
L 192.277653 239.537886 
L 194.175612 239.073762 
L 194.808265 239.4911 
L 195.440918 239.355247 
L 197.338878 238.336206 
L 199.86949 236.418063 
L 200.502143 237.122543 
L 201.134796 235.587127 
L 203.032755 233.239758 
L 203.665408 231.599936 
L 204.298061 230.742251 
L 204.930714 228.716154 
L 205.563367 228.88911 
L 206.19602 228.306678 
L 207.461327 226.213662 
L 208.09398 225.035376 
L 208.726633 224.470872 
L 209.991939 222.246509 
L 211.257245 219.912178 
L 211.889898 219.553611 
L 212.522551 219.431948 
L 213.155204 218.664959 
L 213.787857 218.62498 
L 214.42051 218.417989 
L 215.053163 218.430164 
L 215.685816 218.835997 
L 216.318469 219.005406 
L 216.951122 219.49532 
L 217.583776 220.331913 
L 218.216429 220.981552 
L 219.481735 223.06757 
L 220.114388 223.832162 
L 222.645 225.381959 
L 223.277653 225.35195 
L 224.542959 226.354213 
L 225.175612 227.578614 
L 226.440918 229.213259 
L 227.706224 230.816265 
L 228.338878 231.869724 
L 228.971531 232.464524 
L 229.604184 232.603157 
L 230.236837 233.342343 
L 230.86949 233.910394 
L 231.502143 234.729154 
L 232.134796 235.766123 
L 232.767449 236.449222 
L 235.298061 240.584634 
L 235.930714 241.492077 
L 236.563367 242.630001 
L 237.828673 244.341057 
L 239.09398 246.480572 
L 240.359286 248.4432 
L 242.257245 250.051767 
L 242.889898 250.355303 
L 243.522551 250.347346 
L 245.42051 249.913134 
L 246.053163 250.009967 
L 246.685816 249.809782 
L 247.318469 249.933364 
L 248.583776 249.891659 
L 250.481735 250.566225 
L 251.747041 251.548546 
L 252.379694 253.020685 
L 253.012347 253.874919 
L 253.645 254.417947 
L 254.277653 254.641236 
L 255.542959 254.396663 
L 256.175612 254.002718 
L 256.808265 252.70737 
L 257.440918 251.862532 
L 258.073571 251.310396 
L 258.706224 251.414611 
L 259.338878 251.683057 
L 259.971531 252.153796 
L 260.604184 252.47967 
L 261.236837 252.986554 
L 262.502143 254.389089 
L 263.134796 255.246007 
L 263.767449 255.867939 
L 265.032755 256.871639 
L 266.298061 257.863164 
L 267.563367 258.683267 
L 268.828673 260.010445 
L 273.257245 263.916335 
L 274.522551 264.526475 
L 275.787857 265.000186 
L 277.053163 264.915913 
L 277.685816 265.191933 
L 278.318469 265.948568 
L 279.583776 266.661867 
L 282.114388 267.861917 
L 282.747041 267.915127 
L 283.379694 268.252314 
L 284.012347 268.257779 
L 285.277653 268.635233 
L 285.910306 268.817009 
L 286.542959 270.646182 
L 287.175612 268.854304 
L 287.808265 268.872808 
L 288.440918 269.236265 
L 289.073571 269.439517 
L 290.338878 270.009869 
L 290.971531 268.556617 
L 291.604184 270.639279 
L 294.134796 271.493608 
L 296.032755 271.708557 
L 297.930714 271.963581 
L 298.563367 272.306616 
L 299.19602 271.893401 
L 300.461327 272.179009 
L 301.09398 272.348417 
L 301.726633 272.39319 
L 302.359286 272.551382 
L 302.991939 272.43317 
L 303.624592 273.051267 
L 304.889898 273.276953 
L 307.42051 273.188558 
L 308.053163 273.48567 
L 309.951122 273.44895 
L 311.849082 273.399863 
L 312.481735 273.02749 
L 315.645 272.062522 
L 316.910306 271.368302 
L 318.808265 270.764873 
L 320.073571 270.482142 
L 321.971531 270.220791 
L 323.236837 269.732698 
L 324.502143 269.154197 
L 325.767449 268.013876 
L 327.665408 266.014337 
L 328.930714 264.08862 
L 329.563367 262.840633 
L 331.461327 257.947437 
L 332.09398 255.966689 
L 333.359286 252.651188 
L 334.624592 249.104153 
L 336.522551 243.232662 
L 337.155204 241.747005 
L 337.787857 241.150863 
L 339.053163 237.20068 
L 340.318469 231.69696 
L 341.583776 224.380942 
L 342.849082 213.191056 
L 344.114388 202.955879 
L 345.379694 190.973214 
L 346.645 178.184636 
L 347.910306 162.908618 
L 348.542959 154.346339 
L 353.604184 72.711319 
L 354.236837 65.119185 
L 356.767449 41.349917 
L 357.400102 36.057023 
L 358.032755 31.953921 
L 358.665408 30.509202 
L 359.298061 27.221409 
L 359.930714 25.187067 
L 361.19602 19.362171 
L 361.828673 19.449896 
L 362.461327 18.403244 
L 363.09398 18.553382 
L 363.726633 21.177825 
L 364.359286 24.411162 
L 364.991939 29.176463 
L 366.257245 43.176308 
L 367.522551 60.178819 
L 368.155204 66.545688 
L 370.685816 97.234441 
L 371.951122 109.640388 
L 375.114388 142.911112 
L 378.277653 178.102856 
L 380.808265 198.279645 
L 383.971531 217.278435 
L 385.236837 223.399101 
L 387.134796 231.323437 
L 387.767449 234.181524 
L 389.032755 238.609638 
L 390.298061 241.946326 
L 393.461327 247.273926 
L 394.09398 247.973899 
L 397.889898 251.028432 
L 398.522551 251.637421 
L 401.053163 252.711109 
L 402.318469 252.990101 
L 403.583776 253.415684 
L 406.114388 255.156557 
L 406.747041 255.190017 
L 407.379694 255.093184 
L 408.012347 255.362877 
L 408.645 255.060875 
L 409.277653 255.094431 
L 409.910306 255.440247 
L 410.542959 255.342647 
L 411.175612 255.478309 
L 411.808265 255.363548 
L 412.440918 255.402281 
L 413.706224 255.041317 
L 414.338878 254.189192 
L 415.604184 253.744243 
L 416.86949 253.587681 
L 418.134796 253.736861 
L 418.767449 253.697265 
L 420.032755 254.251606 
L 420.665408 254.69598 
L 421.298061 254.920804 
L 421.930714 255.330376 
L 422.563367 255.501702 
L 423.19602 255.935338 
L 423.828673 255.931599 
L 426.359286 257.059264 
L 427.624592 257.859137 
L 428.889898 258.755076 
L 429.522551 259.509122 
L 430.155204 259.480264 
L 430.787857 259.248729 
L 432.685816 256.357949 
L 433.318469 255.002776 
L 433.951122 253.292678 
L 435.216429 252.348707 
L 436.481735 252.1932 
L 437.114388 252.590212 
L 437.747041 252.812352 
L 438.379694 253.192107 
L 439.012347 253.165166 
L 440.277653 253.924389 
L 441.542959 255.805525 
L 442.808265 258.285679 
L 443.440918 258.843472 
L 444.706224 261.086147 
L 445.338878 261.140795 
L 447.86949 260.356453 
L 448.502143 260.376778 
L 449.134796 260.247061 
L 449.767449 260.536695 
L 450.400102 261.116347 
L 451.032755 261.350949 
L 451.665408 261.755057 
L 452.930714 263.232852 
L 453.563367 264.037615 
L 454.828673 264.988394 
L 456.09398 266.016734 
L 457.991939 266.168597 
L 459.257245 267.135387 
L 459.889898 267.583692 
L 460.522551 267.839386 
L 461.787857 268.514624 
L 463.685816 269.626566 
L 464.951122 270.446861 
L 467.481735 270.836491 
L 468.114388 270.803414 
L 469.379694 270.566607 
L 470.645 270.739371 
L 474.440918 271.949487 
L 475.073571 272.0979 
L 475.706224 272.411502 
L 476.338878 272.566721 
L 476.971531 272.891158 
L 478.236837 273.182613 
L 480.767449 273.253656 
L 482.032755 273.122692 
L 488.359286 274.333864 
L 488.991939 274.60231 
L 489.624592 274.655711 
L 490.889898 275.010252 
L 494.685816 275.153966 
L 495.318469 275.995161 
L 495.951122 275.142653 
L 497.849082 275.241307 
L 499.114388 275.378119 
L 499.747041 274.622922 
L 500.379694 275.567373 
L 502.910306 276.036483 
L 503.542959 276.802513 
L 504.175612 276.872692 
L 504.808265 276.269264 
L 507.338878 276.499456 
L 507.971531 275.810221 
L 508.604184 275.825369 
L 509.236837 276.507318 
L 509.86949 276.408376 
L 510.502143 276.132452 
L 511.134796 275.589903 
L 511.767449 274.620238 
L 512.400102 273.125952 
L 513.032755 271.154216 
L 514.298061 265.570538 
L 514.930714 260.882128 
L 515.563367 253.425655 
L 516.19602 243.806082 
L 517.461327 219.714008 
L 520.624592 150.985011 
L 521.889898 128.127117 
L 525.685816 84.158625 
L 526.318469 78.182729 
L 526.951122 73.583193 
L 527.583776 71.871274 
L 528.216429 71.589022 
L 528.849082 74.575293 
L 532.012347 120.827589 
L 533.277653 143.691427 
L 534.542959 163.766878 
L 535.808265 188.00842 
L 538.338878 225.029911 
L 538.971531 232.464428 
L 539.604184 238.465827 
L 540.236837 243.236785 
L 542.134796 254.479402 
L 543.400102 260.260004 
L 544.032755 262.648119 
L 544.665408 264.379788 
L 545.930714 267.209689 
L 546.563367 268.802053 
L 547.828673 271.057479 
L 549.09398 272.757606 
L 550.359286 274.103479 
L 551.624592 275.479936 
L 552.889898 276.474625 
L 554.155204 277.104802 
L 555.42051 277.618301 
L 558.583776 278.591706 
L 561.747041 279.34949 
L 565.542959 279.819079 
L 576.298061 280.285313 
L 580.09398 280.183782 
L 581.359286 280.046683 
L 584.522551 279.449582 
L 585.155204 279.568082 
L 585.787857 279.248631 
L 588.951122 278.83091 
L 589.583776 278.585761 
L 590.216429 278.796108 
L 595.910306 278.921319 
L 600.338878 279.4724 
L 602.236837 279.565973 
L 605.400102 279.424272 
L 608.563367 279.07395 
L 611.726633 278.380017 
L 612.991939 277.803241 
L 614.257245 277.044881 
L 615.522551 276.289589 
L 616.787857 275.669383 
L 619.951122 273.355282 
L 621.216429 272.70756 
L 621.849082 272.602099 
L 622.481735 272.171722 
L 623.114388 271.910563 
L 623.747041 272.021776 
L 624.379694 271.610287 
L 625.645 271.214616 
L 625.645 271.214616 
" clip-path="url(#pf4d04c849e)" style="fill: none; stroke: #7d31e0; stroke-width: 1.5; stroke-linecap: square"/>
   </g>
   <g id="line2d_31">
    <path d="M 67.645 280.96496 
L 103.073571 280.863718 
L 104.338878 280.715497 
L 111.930714 280.595751 
L 115.726633 280.701212 
L 122.685816 280.783088 
L 135.971531 280.947416 
L 151.787857 280.875223 
L 166.971531 280.448873 
L 177.09398 279.890313 
L 184.053163 279.824256 
L 188.481735 280.045437 
L 191.012347 279.983023 
L 195.440918 280.010922 
L 199.86949 280.021085 
L 205.563367 279.66712 
L 208.09398 279.374513 
L 216.318469 277.836893 
L 217.583776 277.984059 
L 218.849082 277.597401 
L 220.747041 276.833096 
L 221.379694 276.753042 
L 222.645 277.207195 
L 223.277653 277.019954 
L 224.542959 277.195882 
L 225.175612 277.51121 
L 225.808265 277.556942 
L 226.440918 277.119567 
L 227.073571 277.145165 
L 228.338878 277.997385 
L 228.971531 278.389988 
L 230.86949 278.91921 
L 232.767449 279.549962 
L 234.032755 279.738641 
L 235.298061 279.966437 
L 237.19602 280.222228 
L 239.726633 280.391349 
L 244.787857 280.527106 
L 261.86949 280.301899 
L 271.359286 279.781401 
L 271.991939 279.548812 
L 275.155204 279.167043 
L 275.787857 278.869451 
L 276.42051 279.049406 
L 281.481735 277.745142 
L 282.114388 277.693849 
L 282.747041 277.500568 
L 283.379694 277.123114 
L 284.012347 277.044881 
L 285.277653 276.47194 
L 287.808265 276.192661 
L 288.440918 275.893247 
L 289.073571 275.795073 
L 290.338878 275.330853 
L 290.971531 275.433821 
L 291.604184 275.39806 
L 292.236837 275.177072 
L 292.86949 275.483292 
L 293.502143 275.637648 
L 294.134796 275.61694 
L 294.767449 275.878387 
L 295.400102 275.7898 
L 297.298061 276.859653 
L 299.19602 276.552283 
L 300.461327 276.667139 
L 301.09398 276.551707 
L 301.726633 276.058438 
L 302.359286 276.14041 
L 302.991939 276.431674 
L 304.257245 276.471845 
L 304.889898 276.478652 
L 305.522551 276.299176 
L 306.155204 276.719486 
L 306.787857 276.771354 
L 308.053163 277.207291 
L 309.318469 277.488296 
L 309.951122 277.870257 
L 310.583776 277.727789 
L 311.849082 278.194214 
L 313.747041 278.791794 
L 314.379694 278.504556 
L 315.012347 278.596403 
L 317.542959 278.446649 
L 318.175612 278.201692 
L 318.808265 278.494873 
L 319.440918 278.571956 
L 320.706224 278.498229 
L 323.86949 278.552973 
L 325.134796 278.85507 
L 329.563367 279.748708 
L 331.461327 280.061735 
L 339.685816 280.74215 
L 341.583776 280.727386 
L 349.175612 280.862376 
L 357.400102 280.908491 
L 368.787857 280.94895 
L 399.787857 280.734289 
L 407.379694 280.429123 
L 408.645 280.309952 
L 413.073571 279.960397 
L 415.604184 279.563289 
L 416.236837 279.512571 
L 417.502143 279.250165 
L 418.134796 279.188806 
L 418.767449 278.938384 
L 420.032755 278.730339 
L 421.930714 278.302455 
L 422.563367 277.851849 
L 424.461327 277.36299 
L 425.09398 277.237587 
L 425.726633 276.971538 
L 426.359286 276.579607 
L 426.991939 276.750741 
L 427.624592 276.569732 
L 428.257245 276.273099 
L 429.522551 276.059684 
L 430.155204 276.070422 
L 430.787857 275.700254 
L 431.42051 275.631321 
L 432.053163 275.43641 
L 432.685816 275.556635 
L 433.318469 275.182728 
L 434.583776 274.984558 
L 435.216429 275.679545 
L 435.849082 274.718221 
L 436.481735 274.387073 
L 437.114388 274.220445 
L 437.747041 274.525707 
L 438.379694 274.63855 
L 439.012347 275.585685 
L 439.645 276.052014 
L 440.277653 275.509178 
L 440.910306 276.262265 
L 441.542959 276.236954 
L 442.175612 275.910696 
L 442.808265 275.724798 
L 444.073571 273.564766 
L 444.706224 274.989639 
L 445.338878 274.975641 
L 445.971531 275.485114 
L 446.604184 275.719237 
L 447.236837 275.607928 
L 448.502143 276.412978 
L 449.134796 276.610286 
L 449.767449 276.559761 
L 450.400102 276.635597 
L 451.032755 276.885731 
L 451.665408 277.314382 
L 453.563367 278.123555 
L 454.19602 278.293251 
L 454.828673 278.187502 
L 455.461327 278.565053 
L 463.685816 279.86855 
L 474.440918 280.564401 
L 475.073571 280.322607 
L 478.86949 280.33718 
L 479.502143 280.621062 
L 485.19602 280.669286 
L 487.726633 280.643305 
L 488.359286 280.796798 
L 492.155204 280.788553 
L 492.787857 280.612817 
L 499.114388 280.552512 
L 504.808265 280.459131 
L 509.236837 280.057229 
L 511.134796 279.500108 
L 513.665408 278.073988 
L 514.298061 277.42617 
L 514.930714 277.05351 
L 516.19602 274.407015 
L 516.828673 273.365924 
L 517.461327 271.805389 
L 518.09398 270.613585 
L 518.726633 266.326885 
L 519.359286 263.966477 
L 519.991939 257.898541 
L 520.624592 257.278719 
L 521.257245 256.441551 
L 521.889898 253.349723 
L 522.522551 253.252891 
L 523.155204 258.47944 
L 523.787857 261.499649 
L 524.42051 245.894113 
L 525.685816 237.91513 
L 526.318469 238.880289 
L 526.951122 240.654046 
L 527.583776 220.306411 
L 528.216429 212.574877 
L 528.849082 226.889954 
L 529.481735 227.680144 
L 530.114388 229.472501 
L 530.747041 228.576275 
L 531.379694 221.756786 
L 532.012347 235.353483 
L 532.645 236.769344 
L 533.277653 239.002432 
L 533.910306 239.155254 
L 534.542959 242.020724 
L 535.175612 244.169923 
L 536.440918 247.711205 
L 537.073571 250.301806 
L 537.706224 254.207312 
L 538.338878 256.820347 
L 538.971531 255.712144 
L 539.604184 256.809897 
L 541.502143 262.955394 
L 542.767449 265.220791 
L 543.400102 266.702805 
L 544.032755 267.514183 
L 545.298061 269.912365 
L 545.930714 271.109539 
L 546.563367 271.629941 
L 547.828673 272.907073 
L 548.461327 273.278871 
L 549.09398 273.977693 
L 549.726633 274.474894 
L 550.359286 274.658491 
L 550.991939 275.030577 
L 551.624592 276.007912 
L 552.257245 275.734097 
L 552.889898 275.798524 
L 553.522551 276.423908 
L 554.787857 276.612204 
L 555.42051 277.153985 
L 556.053163 276.122577 
L 556.685816 276.611724 
L 557.318469 276.768765 
L 557.951122 276.522753 
L 558.583776 276.67222 
L 559.216429 276.700215 
L 559.849082 276.519206 
L 560.481735 277.006148 
L 561.747041 276.548256 
L 563.645 274.345081 
L 564.277653 273.555562 
L 564.910306 273.999073 
L 565.542959 272.849165 
L 566.175612 272.425883 
L 566.808265 272.202402 
L 567.440918 272.306712 
L 568.073571 272.095982 
L 568.706224 272.367976 
L 569.338878 271.36159 
L 569.971531 272.229055 
L 571.236837 273.089904 
L 571.86949 273.163055 
L 572.502143 273.90876 
L 573.134796 274.208173 
L 573.767449 274.800384 
L 575.032755 275.363929 
L 575.665408 276.020951 
L 576.298061 276.233119 
L 577.563367 276.925039 
L 580.09398 277.715037 
L 580.726633 278.105051 
L 581.359286 278.305044 
L 581.991939 278.273309 
L 583.257245 278.880381 
L 583.889898 278.542331 
L 585.155204 278.511172 
L 585.787857 278.560738 
L 586.42051 278.789301 
L 587.053163 278.683361 
L 587.685816 278.431405 
L 588.318469 278.877888 
L 590.216429 279.340862 
L 590.849082 279.265026 
L 592.114388 279.645165 
L 594.645 279.538074 
L 595.910306 279.491863 
L 596.542959 279.392634 
L 597.175612 279.528007 
L 597.808265 279.397811 
L 599.073571 279.527432 
L 604.767449 279.641905 
L 605.400102 279.824448 
L 606.032755 279.710263 
L 607.930714 279.862702 
L 608.563367 279.457732 
L 609.828673 279.497615 
L 610.461327 279.768937 
L 611.09398 279.328973 
L 611.726633 279.309703 
L 612.359286 278.94452 
L 612.991939 278.974625 
L 613.624592 278.745103 
L 614.257245 278.139757 
L 614.889898 277.743224 
L 615.522551 277.945038 
L 616.787857 277.26376 
L 617.42051 277.039704 
L 618.053163 277.107582 
L 618.685816 276.662154 
L 619.318469 276.510194 
L 622.481735 274.616019 
L 623.114388 274.675749 
L 624.379694 274.4608 
L 625.012347 274.085839 
L 625.645 273.907705 
L 625.645 273.907705 
" clip-path="url(#pf4d04c849e)" style="fill: none; stroke: #5a548c; stroke-width: 1.5; stroke-linecap: square"/>
   </g>
   <g id="line2d_32">
    <path d="M 67.645 280.964577 
L 85.359286 280.874264 
L 89.155204 280.629211 
L 90.42051 280.546952 
L 93.583776 280.66363 
L 95.481735 280.79421 
L 98.645 280.88759 
L 103.706224 280.895548 
L 127.114388 280.959016 
L 196.073571 280.836106 
L 201.767449 280.734193 
L 208.726633 280.845118 
L 218.216429 280.896698 
L 242.257245 280.894397 
L 268.19602 280.537939 
L 274.522551 280.283587 
L 285.277653 280.394896 
L 290.971531 280.598627 
L 298.563367 280.676573 
L 302.991939 280.693063 
L 309.951122 280.707636 
L 315.645 280.660658 
L 320.073571 280.706485 
L 375.114388 280.573125 
L 380.175612 280.558265 
L 385.236837 280.616364 
L 392.828673 280.606681 
L 401.685816 280.257413 
L 404.849082 280.055791 
L 412.440918 279.905557 
L 416.236837 279.926074 
L 419.400102 279.921568 
L 425.726633 279.731355 
L 427.624592 279.749571 
L 443.440918 279.763089 
L 449.767449 279.700004 
L 451.665408 279.429353 
L 454.19602 279.177781 
L 457.359286 279.560029 
L 461.155204 279.736724 
L 466.849082 280.020606 
L 469.379694 280.040356 
L 471.910306 279.855991 
L 476.338878 279.533759 
L 484.563367 279.266656 
L 492.787857 278.349049 
L 497.849082 277.228575 
L 499.747041 276.7238 
L 501.012347 276.521986 
L 503.542959 276.336088 
L 507.338878 276.683438 
L 513.665408 278.037269 
L 518.09398 278.550576 
L 520.624592 278.466686 
L 523.787857 277.989619 
L 526.318469 276.964347 
L 527.583776 276.183073 
L 528.849082 274.733752 
L 530.747041 271.882376 
L 532.012347 270.029331 
L 533.277653 268.528526 
L 533.910306 267.439689 
L 536.440918 260.099128 
L 538.338878 251.758893 
L 540.86949 244.462049 
L 542.134796 236.803955 
L 543.400102 226.911046 
L 544.665408 218.36545 
L 545.298061 214.302806 
L 546.563367 199.164654 
L 547.828673 187.653687 
L 548.461327 182.023031 
L 550.359286 169.415654 
L 550.991939 166.654878 
L 552.257245 148.528154 
L 553.522551 134.036669 
L 554.155204 127.927508 
L 555.42051 103.775033 
L 556.053163 102.227825 
L 556.685816 89.828973 
L 557.951122 70.115445 
L 558.583776 54.812678 
L 559.216429 49.223439 
L 559.849082 21.057216 
L 560.481735 9.16496 
L 561.114388 9.387579 
L 561.747041 10.870552 
L 562.379694 20.515435 
L 563.012347 21.340235 
L 563.645 12.713338 
L 564.277653 34.354692 
L 564.910306 40.83776 
L 565.542959 45.233564 
L 566.175612 46.822956 
L 566.808265 48.927957 
L 567.440918 49.53685 
L 569.971531 75.584171 
L 570.604184 83.621158 
L 571.236837 89.375779 
L 571.86949 97.177875 
L 572.502143 110.435755 
L 573.134796 119.631375 
L 575.032755 141.041865 
L 575.665408 144.518433 
L 576.298061 149.822064 
L 577.563367 165.853758 
L 579.461327 187.767969 
L 580.09398 191.90827 
L 581.359286 208.812797 
L 581.991939 214.334349 
L 582.624592 218.629294 
L 583.889898 224.453039 
L 584.522551 225.735157 
L 585.787857 232.70162 
L 586.42051 241.409338 
L 587.053163 238.822669 
L 588.318469 244.489373 
L 588.951122 245.859024 
L 590.216429 251.324202 
L 590.849082 247.270954 
L 591.481735 255.063176 
L 592.114388 255.418867 
L 592.747041 255.199029 
L 593.379694 255.149462 
L 594.012347 255.257224 
L 595.277653 256.362934 
L 595.910306 255.816934 
L 596.542959 256.776725 
L 597.175612 258.179355 
L 597.808265 258.879712 
L 599.073571 261.507415 
L 600.338878 262.953093 
L 601.604184 264.126106 
L 602.236837 264.444503 
L 605.400102 268.571381 
L 606.032755 269.208365 
L 606.665408 269.576137 
L 608.563367 272.087737 
L 609.19602 272.475546 
L 611.09398 273.079741 
L 611.726633 274.134734 
L 612.359286 274.370295 
L 612.991939 274.154772 
L 614.889898 275.042465 
L 615.522551 275.156938 
L 616.155204 274.812177 
L 617.42051 275.585397 
L 618.685816 275.940897 
L 619.951122 276.09439 
L 623.114388 276.239159 
L 625.012347 276.176458 
L 625.645 276.03562 
L 625.645 276.03562 
" clip-path="url(#pf4d04c849e)" style="fill: none; stroke: #2f618f; stroke-width: 1.5; stroke-linecap: square"/>
   </g>
   <g id="text_19">
    <!-- Taiwan* -->
    <g style="fill: #fe7b74" transform="translate(642.385 244.641267)scale(0.14 -0.14)">
     <defs>
      <path id="DejaVuSans-54" d="M -19 4666 
L 3928 4666 
L 3928 4134 
L 2272 4134 
L 2272 0 
L 1638 0 
L 1638 4134 
L -19 4134 
L -19 4666 
z
" transform="scale(0.015625)"/>
      <path id="DejaVuSans-61" d="M 2194 1759 
Q 1497 1759 1228 1600 
Q 959 1441 959 1056 
Q 959 750 1161 570 
Q 1363 391 1709 391 
Q 2188 391 2477 730 
Q 2766 1069 2766 1631 
L 2766 1759 
L 2194 1759 
z
M 3341 1997 
L 3341 0 
L 2766 0 
L 2766 531 
Q 2569 213 2275 61 
Q 1981 -91 1556 -91 
Q 1019 -91 701 211 
Q 384 513 384 1019 
Q 384 1609 779 1909 
Q 1175 2209 1959 2209 
L 2766 2209 
L 2766 2266 
Q 2766 2663 2505 2880 
Q 2244 3097 1772 3097 
Q 1472 3097 1187 3025 
Q 903 2953 641 2809 
L 641 3341 
Q 956 3463 1253 3523 
Q 1550 3584 1831 3584 
Q 2591 3584 2966 3190 
Q 3341 2797 3341 1997 
z
" transform="scale(0.015625)"/>
      <path id="DejaVuSans-69" d="M 603 3500 
L 1178 3500 
L 1178 0 
L 603 0 
L 603 3500 
z
M 603 4863 
L 1178 4863 
L 1178 4134 
L 603 4134 
L 603 4863 
z
" transform="scale(0.015625)"/>
      <path id="DejaVuSans-77" d="M 269 3500 
L 844 3500 
L 1563 769 
L 2278 3500 
L 2956 3500 
L 3675 769 
L 4391 3500 
L 4966 3500 
L 4050 0 
L 3372 0 
L 2619 2869 
L 1863 0 
L 1184 0 
L 269 3500 
z
" transform="scale(0.015625)"/>
      <path id="DejaVuSans-6e" d="M 3513 2113 
L 3513 0 
L 2938 0 
L 2938 2094 
Q 2938 2591 2744 2837 
Q 2550 3084 2163 3084 
Q 1697 3084 1428 2787 
Q 1159 2491 1159 1978 
L 1159 0 
L 581 0 
L 581 3500 
L 1159 3500 
L 1159 2956 
Q 1366 3272 1645 3428 
Q 1925 3584 2291 3584 
Q 2894 3584 3203 3211 
Q 3513 2838 3513 2113 
z
" transform="scale(0.015625)"/>
      <path id="DejaVuSans-2a" d="M 3009 3897 
L 1888 3291 
L 3009 2681 
L 2828 2375 
L 1778 3009 
L 1778 1831 
L 1422 1831 
L 1422 3009 
L 372 2375 
L 191 2681 
L 1313 3291 
L 191 3897 
L 372 4206 
L 1422 3572 
L 1422 4750 
L 1778 4750 
L 1778 3572 
L 2828 4206 
L 3009 3897 
z
" transform="scale(0.015625)"/>
     </defs>
     <use xlink:href="#DejaVuSans-54"/>
     <use xlink:href="#DejaVuSans-61" x="44.583984"/>
     <use xlink:href="#DejaVuSans-69" x="105.863281"/>
     <use xlink:href="#DejaVuSans-77" x="133.646484"/>
     <use xlink:href="#DejaVuSans-61" x="215.433594"/>
     <use xlink:href="#DejaVuSans-6e" x="276.712891"/>
     <use xlink:href="#DejaVuSans-2a" x="340.091797"/>
    </g>
   </g>
   <g id="text_20">
    <!-- Japan -->
    <g style="fill: #53a577" transform="translate(642.385 258.641267)scale(0.14 -0.14)">
     <defs>
      <path id="DejaVuSans-4a" d="M 628 4666 
L 1259 4666 
L 1259 325 
Q 1259 -519 939 -900 
Q 619 -1281 -91 -1281 
L -331 -1281 
L -331 -750 
L -134 -750 
Q 284 -750 456 -515 
Q 628 -281 628 325 
L 628 4666 
z
" transform="scale(0.015625)"/>
      <path id="DejaVuSans-70" d="M 1159 525 
L 1159 -1331 
L 581 -1331 
L 581 3500 
L 1159 3500 
L 1159 2969 
Q 1341 3281 1617 3432 
Q 1894 3584 2278 3584 
Q 2916 3584 3314 3078 
Q 3713 2572 3713 1747 
Q 3713 922 3314 415 
Q 2916 -91 2278 -91 
Q 1894 -91 1617 61 
Q 1341 213 1159 525 
z
M 3116 1747 
Q 3116 2381 2855 2742 
Q 2594 3103 2138 3103 
Q 1681 3103 1420 2742 
Q 1159 2381 1159 1747 
Q 1159 1113 1420 752 
Q 1681 391 2138 391 
Q 2594 391 2855 752 
Q 3116 1113 3116 1747 
z
" transform="scale(0.015625)"/>
     </defs>
     <use xlink:href="#DejaVuSans-4a"/>
     <use xlink:href="#DejaVuSans-61" x="29.492188"/>
     <use xlink:href="#DejaVuSans-70" x="90.771484"/>
     <use xlink:href="#DejaVuSans-61" x="154.248047"/>
     <use xlink:href="#DejaVuSans-6e" x="215.527344"/>
    </g>
   </g>
   <g id="text_21">
    <!-- India -->
    <g style="fill: #7d31e0" transform="translate(642.385 272.641267)scale(0.14 -0.14)">
     <defs>
      <path id="DejaVuSans-49" d="M 628 4666 
L 1259 4666 
L 1259 0 
L 628 0 
L 628 4666 
z
" transform="scale(0.015625)"/>
      <path id="DejaVuSans-64" d="M 2906 2969 
L 2906 4863 
L 3481 4863 
L 3481 0 
L 2906 0 
L 2906 525 
Q 2725 213 2448 61 
Q 2172 -91 1784 -91 
Q 1150 -91 751 415 
Q 353 922 353 1747 
Q 353 2572 751 3078 
Q 1150 3584 1784 3584 
Q 2172 3584 2448 3432 
Q 2725 3281 2906 2969 
z
M 947 1747 
Q 947 1113 1208 752 
Q 1469 391 1925 391 
Q 2381 391 2643 752 
Q 2906 1113 2906 1747 
Q 2906 2381 2643 2742 
Q 2381 3103 1925 3103 
Q 1469 3103 1208 2742 
Q 947 2381 947 1747 
z
" transform="scale(0.015625)"/>
     </defs>
     <use xlink:href="#DejaVuSans-49"/>
     <use xlink:href="#DejaVuSans-6e" x="29.492188"/>
     <use xlink:href="#DejaVuSans-64" x="92.871094"/>
     <use xlink:href="#DejaVuSans-69" x="156.347656"/>
     <use xlink:href="#DejaVuSans-61" x="184.130859"/>
    </g>
   </g>
   <g id="text_22">
    <!-- Israel -->
    <g style="fill: #5a548c" transform="translate(642.385 286.641267)scale(0.14 -0.14)">
     <defs>
      <path id="DejaVuSans-73" d="M 2834 3397 
L 2834 2853 
Q 2591 2978 2328 3040 
Q 2066 3103 1784 3103 
Q 1356 3103 1142 2972 
Q 928 2841 928 2578 
Q 928 2378 1081 2264 
Q 1234 2150 1697 2047 
L 1894 2003 
Q 2506 1872 2764 1633 
Q 3022 1394 3022 966 
Q 3022 478 2636 193 
Q 2250 -91 1575 -91 
Q 1294 -91 989 -36 
Q 684 19 347 128 
L 347 722 
Q 666 556 975 473 
Q 1284 391 1588 391 
Q 1994 391 2212 530 
Q 2431 669 2431 922 
Q 2431 1156 2273 1281 
Q 2116 1406 1581 1522 
L 1381 1569 
Q 847 1681 609 1914 
Q 372 2147 372 2553 
Q 372 3047 722 3315 
Q 1072 3584 1716 3584 
Q 2034 3584 2315 3537 
Q 2597 3491 2834 3397 
z
" transform="scale(0.015625)"/>
      <path id="DejaVuSans-72" d="M 2631 2963 
Q 2534 3019 2420 3045 
Q 2306 3072 2169 3072 
Q 1681 3072 1420 2755 
Q 1159 2438 1159 1844 
L 1159 0 
L 581 0 
L 581 3500 
L 1159 3500 
L 1159 2956 
Q 1341 3275 1631 3429 
Q 1922 3584 2338 3584 
Q 2397 3584 2469 3576 
Q 2541 3569 2628 3553 
L 2631 2963 
z
" transform="scale(0.015625)"/>
      <path id="DejaVuSans-65" d="M 3597 1894 
L 3597 1613 
L 953 1613 
Q 991 1019 1311 708 
Q 1631 397 2203 397 
Q 2534 397 2845 478 
Q 3156 559 3463 722 
L 3463 178 
Q 3153 47 2828 -22 
Q 2503 -91 2169 -91 
Q 1331 -91 842 396 
Q 353 884 353 1716 
Q 353 2575 817 3079 
Q 1281 3584 2069 3584 
Q 2775 3584 3186 3129 
Q 3597 2675 3597 1894 
z
M 3022 2063 
Q 3016 2534 2758 2815 
Q 2500 3097 2075 3097 
Q 1594 3097 1305 2825 
Q 1016 2553 972 2059 
L 3022 2063 
z
" transform="scale(0.015625)"/>
      <path id="DejaVuSans-6c" d="M 603 4863 
L 1178 4863 
L 1178 0 
L 603 0 
L 603 4863 
z
" transform="scale(0.015625)"/>
     </defs>
     <use xlink:href="#DejaVuSans-49"/>
     <use xlink:href="#DejaVuSans-73" x="29.492188"/>
     <use xlink:href="#DejaVuSans-72" x="81.591797"/>
     <use xlink:href="#DejaVuSans-61" x="122.705078"/>
     <use xlink:href="#DejaVuSans-65" x="183.984375"/>
     <use xlink:href="#DejaVuSans-6c" x="245.507812"/>
    </g>
   </g>
   <g id="text_23">
    <!-- Korea, South -->
    <g style="fill: #2f618f" transform="translate(642.385 300.641267)scale(0.14 -0.14)">
     <defs>
      <path id="DejaVuSans-4b" d="M 628 4666 
L 1259 4666 
L 1259 2694 
L 3353 4666 
L 4166 4666 
L 1850 2491 
L 4331 0 
L 3500 0 
L 1259 2247 
L 1259 0 
L 628 0 
L 628 4666 
z
" transform="scale(0.015625)"/>
      <path id="DejaVuSans-6f" d="M 1959 3097 
Q 1497 3097 1228 2736 
Q 959 2375 959 1747 
Q 959 1119 1226 758 
Q 1494 397 1959 397 
Q 2419 397 2687 759 
Q 2956 1122 2956 1747 
Q 2956 2369 2687 2733 
Q 2419 3097 1959 3097 
z
M 1959 3584 
Q 2709 3584 3137 3096 
Q 3566 2609 3566 1747 
Q 3566 888 3137 398 
Q 2709 -91 1959 -91 
Q 1206 -91 779 398 
Q 353 888 353 1747 
Q 353 2609 779 3096 
Q 1206 3584 1959 3584 
z
" transform="scale(0.015625)"/>
      <path id="DejaVuSans-2c" d="M 750 794 
L 1409 794 
L 1409 256 
L 897 -744 
L 494 -744 
L 750 256 
L 750 794 
z
" transform="scale(0.015625)"/>
      <path id="DejaVuSans-20" transform="scale(0.015625)"/>
      <path id="DejaVuSans-53" d="M 3425 4513 
L 3425 3897 
Q 3066 4069 2747 4153 
Q 2428 4238 2131 4238 
Q 1616 4238 1336 4038 
Q 1056 3838 1056 3469 
Q 1056 3159 1242 3001 
Q 1428 2844 1947 2747 
L 2328 2669 
Q 3034 2534 3370 2195 
Q 3706 1856 3706 1288 
Q 3706 609 3251 259 
Q 2797 -91 1919 -91 
Q 1588 -91 1214 -16 
Q 841 59 441 206 
L 441 856 
Q 825 641 1194 531 
Q 1563 422 1919 422 
Q 2459 422 2753 634 
Q 3047 847 3047 1241 
Q 3047 1584 2836 1778 
Q 2625 1972 2144 2069 
L 1759 2144 
Q 1053 2284 737 2584 
Q 422 2884 422 3419 
Q 422 4038 858 4394 
Q 1294 4750 2059 4750 
Q 2388 4750 2728 4690 
Q 3069 4631 3425 4513 
z
" transform="scale(0.015625)"/>
      <path id="DejaVuSans-75" d="M 544 1381 
L 544 3500 
L 1119 3500 
L 1119 1403 
Q 1119 906 1312 657 
Q 1506 409 1894 409 
Q 2359 409 2629 706 
Q 2900 1003 2900 1516 
L 2900 3500 
L 3475 3500 
L 3475 0 
L 2900 0 
L 2900 538 
Q 2691 219 2414 64 
Q 2138 -91 1772 -91 
Q 1169 -91 856 284 
Q 544 659 544 1381 
z
M 1991 3584 
L 1991 3584 
z
" transform="scale(0.015625)"/>
      <path id="DejaVuSans-74" d="M 1172 4494 
L 1172 3500 
L 2356 3500 
L 2356 3053 
L 1172 3053 
L 1172 1153 
Q 1172 725 1289 603 
Q 1406 481 1766 481 
L 2356 481 
L 2356 0 
L 1766 0 
Q 1100 0 847 248 
Q 594 497 594 1153 
L 594 3053 
L 172 3053 
L 172 3500 
L 594 3500 
L 594 4494 
L 1172 4494 
z
" transform="scale(0.015625)"/>
      <path id="DejaVuSans-68" d="M 3513 2113 
L 3513 0 
L 2938 0 
L 2938 2094 
Q 2938 2591 2744 2837 
Q 2550 3084 2163 3084 
Q 1697 3084 1428 2787 
Q 1159 2491 1159 1978 
L 1159 0 
L 581 0 
L 581 4863 
L 1159 4863 
L 1159 2956 
Q 1366 3272 1645 3428 
Q 1925 3584 2291 3584 
Q 2894 3584 3203 3211 
Q 3513 2838 3513 2113 
z
" transform="scale(0.015625)"/>
     </defs>
     <use xlink:href="#DejaVuSans-4b"/>
     <use xlink:href="#DejaVuSans-6f" x="60.576172"/>
     <use xlink:href="#DejaVuSans-72" x="121.757812"/>
     <use xlink:href="#DejaVuSans-65" x="160.621094"/>
     <use xlink:href="#DejaVuSans-61" x="222.144531"/>
     <use xlink:href="#DejaVuSans-2c" x="283.423828"/>
     <use xlink:href="#DejaVuSans-20" x="315.210938"/>
     <use xlink:href="#DejaVuSans-53" x="346.998047"/>
     <use xlink:href="#DejaVuSans-6f" x="410.474609"/>
     <use xlink:href="#DejaVuSans-75" x="471.65625"/>
     <use xlink:href="#DejaVuSans-74" x="535.035156"/>
     <use xlink:href="#DejaVuSans-68" x="574.244141"/>
    </g>
   </g>
  </g>
 </g>
 <defs>
  <clipPath id="pf4d04c849e">
   <rect x="67.645" y="9.16496" width="558" height="271.8"/>
  </clipPath>
 </defs>
</svg>
