<?xml version="1.0" encoding="utf-8" standalone="no"?>
<!DOCTYPE svg PUBLIC "-//W3C//DTD SVG 1.1//EN"
  "http://www.w3.org/Graphics/SVG/1.1/DTD/svg11.dtd">
<svg xmlns:xlink="http://www.w3.org/1999/xlink" width="738.8525pt" height="308.714335pt" viewBox="0 0 738.8525 308.714335" xmlns="http://www.w3.org/2000/svg" version="1.1">
 <metadata>
  <rdf:RDF xmlns:dc="http://purl.org/dc/elements/1.1/" xmlns:cc="http://creativecommons.org/ns#" xmlns:rdf="http://www.w3.org/1999/02/22-rdf-syntax-ns#">
   <cc:Work>
    <dc:type rdf:resource="http://purl.org/dc/dcmitype/StillImage"/>
    <dc:date>2022-07-22T10:50:38.435403</dc:date>
    <dc:format>image/svg+xml</dc:format>
    <dc:creator>
     <cc:Agent>
      <dc:title>Matplotlib v3.5.1, https://matplotlib.org/</dc:title>
     </cc:Agent>
    </dc:creator>
   </cc:Work>
  </rdf:RDF>
 </metadata>
 <defs>
  <style type="text/css">*{stroke-linejoin: round; stroke-linecap: butt}</style>
 </defs>
 <g id="figure_1">
  <g id="patch_1">
   <path d="M 0 308.714335 
L 738.8525 308.714335 
L 738.8525 0 
L 0 0 
L 0 308.714335 
z
" style="fill: none"/>
  </g>
  <g id="axes_1">
   <g id="patch_2">
    <path d="M 67.645 280.96496 
L 625.645 280.96496 
L 625.645 9.16496 
L 67.645 9.16496 
L 67.645 280.96496 
z
" style="fill: none"/>
   </g>
   <g id="matplotlib.axis_1">
    <g id="xtick_1">
     <g id="line2d_1">
      <defs>
       <path id="m75a1701b4e" d="M 0 0 
L 0 3.5 
" style="stroke: #b0b0b0; stroke-width: 0.4"/>
      </defs>
      <g>
       <use xlink:href="#m75a1701b4e" x="107.105773" y="280.96496" style="fill: #b0b0b0; stroke: #b0b0b0; stroke-width: 0.4"/>
      </g>
     </g>
     <g id="text_1">
      <!-- 2020-04 -->
      <g style="fill: #b0b0b0" transform="translate(77.857805 298.602773)scale(0.14 -0.14)">
       <defs>
        <path id="DejaVuSans-32" d="M 1228 531 
L 3431 531 
L 3431 0 
L 469 0 
L 469 531 
Q 828 903 1448 1529 
Q 2069 2156 2228 2338 
Q 2531 2678 2651 2914 
Q 2772 3150 2772 3378 
Q 2772 3750 2511 3984 
Q 2250 4219 1831 4219 
Q 1534 4219 1204 4116 
Q 875 4013 500 3803 
L 500 4441 
Q 881 4594 1212 4672 
Q 1544 4750 1819 4750 
Q 2544 4750 2975 4387 
Q 3406 4025 3406 3419 
Q 3406 3131 3298 2873 
Q 3191 2616 2906 2266 
Q 2828 2175 2409 1742 
Q 1991 1309 1228 531 
z
" transform="scale(0.015625)"/>
        <path id="DejaVuSans-30" d="M 2034 4250 
Q 1547 4250 1301 3770 
Q 1056 3291 1056 2328 
Q 1056 1369 1301 889 
Q 1547 409 2034 409 
Q 2525 409 2770 889 
Q 3016 1369 3016 2328 
Q 3016 3291 2770 3770 
Q 2525 4250 2034 4250 
z
M 2034 4750 
Q 2819 4750 3233 4129 
Q 3647 3509 3647 2328 
Q 3647 1150 3233 529 
Q 2819 -91 2034 -91 
Q 1250 -91 836 529 
Q 422 1150 422 2328 
Q 422 3509 836 4129 
Q 1250 4750 2034 4750 
z
" transform="scale(0.015625)"/>
        <path id="DejaVuSans-2d" d="M 313 2009 
L 1997 2009 
L 1997 1497 
L 313 1497 
L 313 2009 
z
" transform="scale(0.015625)"/>
        <path id="DejaVuSans-34" d="M 2419 4116 
L 825 1625 
L 2419 1625 
L 2419 4116 
z
M 2253 4666 
L 3047 4666 
L 3047 1625 
L 3713 1625 
L 3713 1100 
L 3047 1100 
L 3047 0 
L 2419 0 
L 2419 1100 
L 313 1100 
L 313 1709 
L 2253 4666 
z
" transform="scale(0.015625)"/>
       </defs>
       <use xlink:href="#DejaVuSans-32"/>
       <use xlink:href="#DejaVuSans-30" x="63.623047"/>
       <use xlink:href="#DejaVuSans-32" x="127.246094"/>
       <use xlink:href="#DejaVuSans-30" x="190.869141"/>
       <use xlink:href="#DejaVuSans-2d" x="254.492188"/>
       <use xlink:href="#DejaVuSans-30" x="290.576172"/>
       <use xlink:href="#DejaVuSans-34" x="354.199219"/>
      </g>
     </g>
    </g>
    <g id="xtick_2">
     <g id="line2d_2">
      <g>
       <use xlink:href="#m75a1701b4e" x="163.214061" y="280.96496" style="fill: #b0b0b0; stroke: #b0b0b0; stroke-width: 0.4"/>
      </g>
     </g>
     <g id="text_2">
      <!-- 2020-07 -->
      <g style="fill: #b0b0b0" transform="translate(133.966092 298.602773)scale(0.14 -0.14)">
       <defs>
        <path id="DejaVuSans-37" d="M 525 4666 
L 3525 4666 
L 3525 4397 
L 1831 0 
L 1172 0 
L 2766 4134 
L 525 4134 
L 525 4666 
z
" transform="scale(0.015625)"/>
       </defs>
       <use xlink:href="#DejaVuSans-32"/>
       <use xlink:href="#DejaVuSans-30" x="63.623047"/>
       <use xlink:href="#DejaVuSans-32" x="127.246094"/>
       <use xlink:href="#DejaVuSans-30" x="190.869141"/>
       <use xlink:href="#DejaVuSans-2d" x="254.492188"/>
       <use xlink:href="#DejaVuSans-30" x="290.576172"/>
       <use xlink:href="#DejaVuSans-37" x="354.199219"/>
      </g>
     </g>
    </g>
    <g id="xtick_3">
     <g id="line2d_3">
      <g>
       <use xlink:href="#m75a1701b4e" x="219.938923" y="280.96496" style="fill: #b0b0b0; stroke: #b0b0b0; stroke-width: 0.4"/>
      </g>
     </g>
     <g id="text_3">
      <!-- 2020-10 -->
      <g style="fill: #b0b0b0" transform="translate(190.690954 298.602773)scale(0.14 -0.14)">
       <defs>
        <path id="DejaVuSans-31" d="M 794 531 
L 1825 531 
L 1825 4091 
L 703 3866 
L 703 4441 
L 1819 4666 
L 2450 4666 
L 2450 531 
L 3481 531 
L 3481 0 
L 794 0 
L 794 531 
z
" transform="scale(0.015625)"/>
       </defs>
       <use xlink:href="#DejaVuSans-32"/>
       <use xlink:href="#DejaVuSans-30" x="63.623047"/>
       <use xlink:href="#DejaVuSans-32" x="127.246094"/>
       <use xlink:href="#DejaVuSans-30" x="190.869141"/>
       <use xlink:href="#DejaVuSans-2d" x="254.492188"/>
       <use xlink:href="#DejaVuSans-31" x="290.576172"/>
       <use xlink:href="#DejaVuSans-30" x="354.199219"/>
      </g>
     </g>
    </g>
    <g id="xtick_4">
     <g id="line2d_4">
      <g>
       <use xlink:href="#m75a1701b4e" x="276.663785" y="280.96496" style="fill: #b0b0b0; stroke: #b0b0b0; stroke-width: 0.4"/>
      </g>
     </g>
     <g id="text_4">
      <!-- 2021-01 -->
      <g style="fill: #b0b0b0" transform="translate(247.415816 298.602773)scale(0.14 -0.14)">
       <use xlink:href="#DejaVuSans-32"/>
       <use xlink:href="#DejaVuSans-30" x="63.623047"/>
       <use xlink:href="#DejaVuSans-32" x="127.246094"/>
       <use xlink:href="#DejaVuSans-31" x="190.869141"/>
       <use xlink:href="#DejaVuSans-2d" x="254.492188"/>
       <use xlink:href="#DejaVuSans-30" x="290.576172"/>
       <use xlink:href="#DejaVuSans-31" x="354.199219"/>
      </g>
     </g>
    </g>
    <g id="xtick_5">
     <g id="line2d_5">
      <g>
       <use xlink:href="#m75a1701b4e" x="332.155497" y="280.96496" style="fill: #b0b0b0; stroke: #b0b0b0; stroke-width: 0.4"/>
      </g>
     </g>
     <g id="text_5">
      <!-- 2021-04 -->
      <g style="fill: #b0b0b0" transform="translate(302.907528 298.602773)scale(0.14 -0.14)">
       <use xlink:href="#DejaVuSans-32"/>
       <use xlink:href="#DejaVuSans-30" x="63.623047"/>
       <use xlink:href="#DejaVuSans-32" x="127.246094"/>
       <use xlink:href="#DejaVuSans-31" x="190.869141"/>
       <use xlink:href="#DejaVuSans-2d" x="254.492188"/>
       <use xlink:href="#DejaVuSans-30" x="290.576172"/>
       <use xlink:href="#DejaVuSans-34" x="354.199219"/>
      </g>
     </g>
    </g>
    <g id="xtick_6">
     <g id="line2d_6">
      <g>
       <use xlink:href="#m75a1701b4e" x="388.263785" y="280.96496" style="fill: #b0b0b0; stroke: #b0b0b0; stroke-width: 0.4"/>
      </g>
     </g>
     <g id="text_6">
      <!-- 2021-07 -->
      <g style="fill: #b0b0b0" transform="translate(359.015816 298.602773)scale(0.14 -0.14)">
       <use xlink:href="#DejaVuSans-32"/>
       <use xlink:href="#DejaVuSans-30" x="63.623047"/>
       <use xlink:href="#DejaVuSans-32" x="127.246094"/>
       <use xlink:href="#DejaVuSans-31" x="190.869141"/>
       <use xlink:href="#DejaVuSans-2d" x="254.492188"/>
       <use xlink:href="#DejaVuSans-30" x="290.576172"/>
       <use xlink:href="#DejaVuSans-37" x="354.199219"/>
      </g>
     </g>
    </g>
    <g id="xtick_7">
     <g id="line2d_7">
      <g>
       <use xlink:href="#m75a1701b4e" x="444.988646" y="280.96496" style="fill: #b0b0b0; stroke: #b0b0b0; stroke-width: 0.4"/>
      </g>
     </g>
     <g id="text_7">
      <!-- 2021-10 -->
      <g style="fill: #b0b0b0" transform="translate(415.740678 298.602773)scale(0.14 -0.14)">
       <use xlink:href="#DejaVuSans-32"/>
       <use xlink:href="#DejaVuSans-30" x="63.623047"/>
       <use xlink:href="#DejaVuSans-32" x="127.246094"/>
       <use xlink:href="#DejaVuSans-31" x="190.869141"/>
       <use xlink:href="#DejaVuSans-2d" x="254.492188"/>
       <use xlink:href="#DejaVuSans-31" x="290.576172"/>
       <use xlink:href="#DejaVuSans-30" x="354.199219"/>
      </g>
     </g>
    </g>
    <g id="xtick_8">
     <g id="line2d_8">
      <g>
       <use xlink:href="#m75a1701b4e" x="501.713508" y="280.96496" style="fill: #b0b0b0; stroke: #b0b0b0; stroke-width: 0.4"/>
      </g>
     </g>
     <g id="text_8">
      <!-- 2022-01 -->
      <g style="fill: #b0b0b0" transform="translate(472.46554 298.602773)scale(0.14 -0.14)">
       <use xlink:href="#DejaVuSans-32"/>
       <use xlink:href="#DejaVuSans-30" x="63.623047"/>
       <use xlink:href="#DejaVuSans-32" x="127.246094"/>
       <use xlink:href="#DejaVuSans-32" x="190.869141"/>
       <use xlink:href="#DejaVuSans-2d" x="254.492188"/>
       <use xlink:href="#DejaVuSans-30" x="290.576172"/>
       <use xlink:href="#DejaVuSans-31" x="354.199219"/>
      </g>
     </g>
    </g>
    <g id="xtick_9">
     <g id="line2d_9">
      <g>
       <use xlink:href="#m75a1701b4e" x="557.205221" y="280.96496" style="fill: #b0b0b0; stroke: #b0b0b0; stroke-width: 0.4"/>
      </g>
     </g>
     <g id="text_9">
      <!-- 2022-04 -->
      <g style="fill: #b0b0b0" transform="translate(527.957252 298.602773)scale(0.14 -0.14)">
       <use xlink:href="#DejaVuSans-32"/>
       <use xlink:href="#DejaVuSans-30" x="63.623047"/>
       <use xlink:href="#DejaVuSans-32" x="127.246094"/>
       <use xlink:href="#DejaVuSans-32" x="190.869141"/>
       <use xlink:href="#DejaVuSans-2d" x="254.492188"/>
       <use xlink:href="#DejaVuSans-30" x="290.576172"/>
       <use xlink:href="#DejaVuSans-34" x="354.199219"/>
      </g>
     </g>
    </g>
    <g id="xtick_10">
     <g id="line2d_10">
      <g>
       <use xlink:href="#m75a1701b4e" x="613.313508" y="280.96496" style="fill: #b0b0b0; stroke: #b0b0b0; stroke-width: 0.4"/>
      </g>
     </g>
     <g id="text_10">
      <!-- 2022-07 -->
      <g style="fill: #b0b0b0" transform="translate(584.06554 298.602773)scale(0.14 -0.14)">
       <use xlink:href="#DejaVuSans-32"/>
       <use xlink:href="#DejaVuSans-30" x="63.623047"/>
       <use xlink:href="#DejaVuSans-32" x="127.246094"/>
       <use xlink:href="#DejaVuSans-32" x="190.869141"/>
       <use xlink:href="#DejaVuSans-2d" x="254.492188"/>
       <use xlink:href="#DejaVuSans-30" x="290.576172"/>
       <use xlink:href="#DejaVuSans-37" x="354.199219"/>
      </g>
     </g>
    </g>
   </g>
   <g id="matplotlib.axis_2">
    <g id="ytick_1">
     <g id="line2d_11">
      <path d="M 67.645 280.96496 
L 625.645 280.96496 
" clip-path="url(#pa601021521)" style="fill: none; stroke: #b0b0b0; stroke-width: 0.3; stroke-linecap: square"/>
     </g>
     <g id="line2d_12">
      <defs>
       <path id="m903f4d60b9" d="M 0 0 
L -3.5 0 
" style="stroke: #b0b0b0; stroke-width: 0.3"/>
      </defs>
      <g>
       <use xlink:href="#m903f4d60b9" x="67.645" y="280.96496" style="fill: #b0b0b0; stroke: #b0b0b0; stroke-width: 0.3"/>
      </g>
     </g>
     <g id="text_11">
      <!-- 0 -->
      <g style="fill: #b0b0b0" transform="translate(51.7375 286.283867)scale(0.14 -0.14)">
       <use xlink:href="#DejaVuSans-30"/>
      </g>
     </g>
    </g>
    <g id="ytick_2">
     <g id="line2d_13">
      <path d="M 67.645 247.409204 
L 625.645 247.409204 
" clip-path="url(#pa601021521)" style="fill: none; stroke: #b0b0b0; stroke-width: 0.3; stroke-linecap: square"/>
     </g>
     <g id="line2d_14">
      <g>
       <use xlink:href="#m903f4d60b9" x="67.645" y="247.409204" style="fill: #b0b0b0; stroke: #b0b0b0; stroke-width: 0.3"/>
      </g>
     </g>
     <g id="text_12">
      <!-- 50000 -->
      <g style="fill: #b0b0b0" transform="translate(16.1075 252.72811)scale(0.14 -0.14)">
       <defs>
        <path id="DejaVuSans-35" d="M 691 4666 
L 3169 4666 
L 3169 4134 
L 1269 4134 
L 1269 2991 
Q 1406 3038 1543 3061 
Q 1681 3084 1819 3084 
Q 2600 3084 3056 2656 
Q 3513 2228 3513 1497 
Q 3513 744 3044 326 
Q 2575 -91 1722 -91 
Q 1428 -91 1123 -41 
Q 819 9 494 109 
L 494 744 
Q 775 591 1075 516 
Q 1375 441 1709 441 
Q 2250 441 2565 725 
Q 2881 1009 2881 1497 
Q 2881 1984 2565 2268 
Q 2250 2553 1709 2553 
Q 1456 2553 1204 2497 
Q 953 2441 691 2322 
L 691 4666 
z
" transform="scale(0.015625)"/>
       </defs>
       <use xlink:href="#DejaVuSans-35"/>
       <use xlink:href="#DejaVuSans-30" x="63.623047"/>
       <use xlink:href="#DejaVuSans-30" x="127.246094"/>
       <use xlink:href="#DejaVuSans-30" x="190.869141"/>
       <use xlink:href="#DejaVuSans-30" x="254.492188"/>
      </g>
     </g>
    </g>
    <g id="ytick_3">
     <g id="line2d_15">
      <path d="M 67.645 213.853447 
L 625.645 213.853447 
" clip-path="url(#pa601021521)" style="fill: none; stroke: #b0b0b0; stroke-width: 0.3; stroke-linecap: square"/>
     </g>
     <g id="line2d_16">
      <g>
       <use xlink:href="#m903f4d60b9" x="67.645" y="213.853447" style="fill: #b0b0b0; stroke: #b0b0b0; stroke-width: 0.3"/>
      </g>
     </g>
     <g id="text_13">
      <!-- 100000 -->
      <g style="fill: #b0b0b0" transform="translate(7.2 219.172353)scale(0.14 -0.14)">
       <use xlink:href="#DejaVuSans-31"/>
       <use xlink:href="#DejaVuSans-30" x="63.623047"/>
       <use xlink:href="#DejaVuSans-30" x="127.246094"/>
       <use xlink:href="#DejaVuSans-30" x="190.869141"/>
       <use xlink:href="#DejaVuSans-30" x="254.492188"/>
       <use xlink:href="#DejaVuSans-30" x="318.115234"/>
      </g>
     </g>
    </g>
    <g id="ytick_4">
     <g id="line2d_17">
      <path d="M 67.645 180.29769 
L 625.645 180.29769 
" clip-path="url(#pa601021521)" style="fill: none; stroke: #b0b0b0; stroke-width: 0.3; stroke-linecap: square"/>
     </g>
     <g id="line2d_18">
      <g>
       <use xlink:href="#m903f4d60b9" x="67.645" y="180.29769" style="fill: #b0b0b0; stroke: #b0b0b0; stroke-width: 0.3"/>
      </g>
     </g>
     <g id="text_14">
      <!-- 150000 -->
      <g style="fill: #b0b0b0" transform="translate(7.2 185.616596)scale(0.14 -0.14)">
       <use xlink:href="#DejaVuSans-31"/>
       <use xlink:href="#DejaVuSans-35" x="63.623047"/>
       <use xlink:href="#DejaVuSans-30" x="127.246094"/>
       <use xlink:href="#DejaVuSans-30" x="190.869141"/>
       <use xlink:href="#DejaVuSans-30" x="254.492188"/>
       <use xlink:href="#DejaVuSans-30" x="318.115234"/>
      </g>
     </g>
    </g>
    <g id="ytick_5">
     <g id="line2d_19">
      <path d="M 67.645 146.741933 
L 625.645 146.741933 
" clip-path="url(#pa601021521)" style="fill: none; stroke: #b0b0b0; stroke-width: 0.3; stroke-linecap: square"/>
     </g>
     <g id="line2d_20">
      <g>
       <use xlink:href="#m903f4d60b9" x="67.645" y="146.741933" style="fill: #b0b0b0; stroke: #b0b0b0; stroke-width: 0.3"/>
      </g>
     </g>
     <g id="text_15">
      <!-- 200000 -->
      <g style="fill: #b0b0b0" transform="translate(7.2 152.06084)scale(0.14 -0.14)">
       <use xlink:href="#DejaVuSans-32"/>
       <use xlink:href="#DejaVuSans-30" x="63.623047"/>
       <use xlink:href="#DejaVuSans-30" x="127.246094"/>
       <use xlink:href="#DejaVuSans-30" x="190.869141"/>
       <use xlink:href="#DejaVuSans-30" x="254.492188"/>
       <use xlink:href="#DejaVuSans-30" x="318.115234"/>
      </g>
     </g>
    </g>
    <g id="ytick_6">
     <g id="line2d_21">
      <path d="M 67.645 113.186177 
L 625.645 113.186177 
" clip-path="url(#pa601021521)" style="fill: none; stroke: #b0b0b0; stroke-width: 0.3; stroke-linecap: square"/>
     </g>
     <g id="line2d_22">
      <g>
       <use xlink:href="#m903f4d60b9" x="67.645" y="113.186177" style="fill: #b0b0b0; stroke: #b0b0b0; stroke-width: 0.3"/>
      </g>
     </g>
     <g id="text_16">
      <!-- 250000 -->
      <g style="fill: #b0b0b0" transform="translate(7.2 118.505083)scale(0.14 -0.14)">
       <use xlink:href="#DejaVuSans-32"/>
       <use xlink:href="#DejaVuSans-35" x="63.623047"/>
       <use xlink:href="#DejaVuSans-30" x="127.246094"/>
       <use xlink:href="#DejaVuSans-30" x="190.869141"/>
       <use xlink:href="#DejaVuSans-30" x="254.492188"/>
       <use xlink:href="#DejaVuSans-30" x="318.115234"/>
      </g>
     </g>
    </g>
    <g id="ytick_7">
     <g id="line2d_23">
      <path d="M 67.645 79.63042 
L 625.645 79.63042 
" clip-path="url(#pa601021521)" style="fill: none; stroke: #b0b0b0; stroke-width: 0.3; stroke-linecap: square"/>
     </g>
     <g id="line2d_24">
      <g>
       <use xlink:href="#m903f4d60b9" x="67.645" y="79.63042" style="fill: #b0b0b0; stroke: #b0b0b0; stroke-width: 0.3"/>
      </g>
     </g>
     <g id="text_17">
      <!-- 300000 -->
      <g style="fill: #b0b0b0" transform="translate(7.2 84.949326)scale(0.14 -0.14)">
       <defs>
        <path id="DejaVuSans-33" d="M 2597 2516 
Q 3050 2419 3304 2112 
Q 3559 1806 3559 1356 
Q 3559 666 3084 287 
Q 2609 -91 1734 -91 
Q 1441 -91 1130 -33 
Q 819 25 488 141 
L 488 750 
Q 750 597 1062 519 
Q 1375 441 1716 441 
Q 2309 441 2620 675 
Q 2931 909 2931 1356 
Q 2931 1769 2642 2001 
Q 2353 2234 1838 2234 
L 1294 2234 
L 1294 2753 
L 1863 2753 
Q 2328 2753 2575 2939 
Q 2822 3125 2822 3475 
Q 2822 3834 2567 4026 
Q 2313 4219 1838 4219 
Q 1578 4219 1281 4162 
Q 984 4106 628 3988 
L 628 4550 
Q 988 4650 1302 4700 
Q 1616 4750 1894 4750 
Q 2613 4750 3031 4423 
Q 3450 4097 3450 3541 
Q 3450 3153 3228 2886 
Q 3006 2619 2597 2516 
z
" transform="scale(0.015625)"/>
       </defs>
       <use xlink:href="#DejaVuSans-33"/>
       <use xlink:href="#DejaVuSans-30" x="63.623047"/>
       <use xlink:href="#DejaVuSans-30" x="127.246094"/>
       <use xlink:href="#DejaVuSans-30" x="190.869141"/>
       <use xlink:href="#DejaVuSans-30" x="254.492188"/>
       <use xlink:href="#DejaVuSans-30" x="318.115234"/>
      </g>
     </g>
    </g>
    <g id="ytick_8">
     <g id="line2d_25">
      <path d="M 67.645 46.074663 
L 625.645 46.074663 
" clip-path="url(#pa601021521)" style="fill: none; stroke: #b0b0b0; stroke-width: 0.3; stroke-linecap: square"/>
     </g>
     <g id="line2d_26">
      <g>
       <use xlink:href="#m903f4d60b9" x="67.645" y="46.074663" style="fill: #b0b0b0; stroke: #b0b0b0; stroke-width: 0.3"/>
      </g>
     </g>
     <g id="text_18">
      <!-- 350000 -->
      <g style="fill: #b0b0b0" transform="translate(7.2 51.393569)scale(0.14 -0.14)">
       <use xlink:href="#DejaVuSans-33"/>
       <use xlink:href="#DejaVuSans-35" x="63.623047"/>
       <use xlink:href="#DejaVuSans-30" x="127.246094"/>
       <use xlink:href="#DejaVuSans-30" x="190.869141"/>
       <use xlink:href="#DejaVuSans-30" x="254.492188"/>
       <use xlink:href="#DejaVuSans-30" x="318.115234"/>
      </g>
     </g>
    </g>
    <g id="ytick_9">
     <g id="line2d_27">
      <path d="M 67.645 12.518906 
L 625.645 12.518906 
" clip-path="url(#pa601021521)" style="fill: none; stroke: #b0b0b0; stroke-width: 0.3; stroke-linecap: square"/>
     </g>
     <g id="line2d_28">
      <g>
       <use xlink:href="#m903f4d60b9" x="67.645" y="12.518906" style="fill: #b0b0b0; stroke: #b0b0b0; stroke-width: 0.3"/>
      </g>
     </g>
     <g id="text_19">
      <!-- 400000 -->
      <g style="fill: #b0b0b0" transform="translate(7.2 17.837812)scale(0.14 -0.14)">
       <use xlink:href="#DejaVuSans-34"/>
       <use xlink:href="#DejaVuSans-30" x="63.623047"/>
       <use xlink:href="#DejaVuSans-30" x="127.246094"/>
       <use xlink:href="#DejaVuSans-30" x="190.869141"/>
       <use xlink:href="#DejaVuSans-30" x="254.492188"/>
       <use xlink:href="#DejaVuSans-30" x="318.115234"/>
      </g>
     </g>
    </g>
   </g>
   <g id="line2d_29">
    <path d="M 67.645 280.964289 
L 106.489199 280.865444 
L 118.204116 280.635059 
L 121.903564 280.712046 
L 136.084779 280.926803 
L 149.032845 280.938499 
L 165.063785 280.849337 
L 175.545552 280.591725 
L 187.26047 280.038055 
L 190.343343 280.192795 
L 193.426215 280.254633 
L 196.509088 280.34926 
L 208.224006 280.604572 
L 235.969862 280.557402 
L 243.985331 280.318485 
L 249.534503 279.873823 
L 252.617376 279.529829 
L 254.467099 279.58812 
L 263.715718 279.351696 
L 266.182017 279.229553 
L 272.347762 278.967051 
L 276.04721 278.559684 
L 277.896934 278.671664 
L 279.130083 278.454223 
L 280.363232 277.947243 
L 281.596381 277.037978 
L 282.212956 276.755918 
L 282.82953 276.606068 
L 285.295829 276.822167 
L 286.528978 276.93338 
L 288.995276 276.988795 
L 292.078149 277.933917 
L 295.161022 278.637725 
L 297.010746 279.005784 
L 298.86047 279.368761 
L 301.326768 279.668174 
L 304.409641 279.993665 
L 313.65826 280.308322 
L 316.124558 280.275821 
L 326.606326 280.059626 
L 330.922348 279.70499 
L 334.005221 279.347285 
L 335.854945 279.212104 
L 346.953287 277.76959 
L 352.502459 277.426554 
L 353.735608 277.739677 
L 355.585331 277.431443 
L 356.201906 277.385808 
L 357.435055 276.902988 
L 358.05163 276.662921 
L 359.284779 276.721308 
L 373.465994 279.330699 
L 379.015166 279.87622 
L 382.098039 280.007567 
L 391.346657 279.871139 
L 395.66268 279.51842 
L 399.978702 278.748651 
L 401.828425 278.31348 
L 402.445 278.341475 
L 403.678149 277.927397 
L 404.911298 277.103843 
L 406.144448 275.958154 
L 406.761022 275.111782 
L 407.994171 274.251029 
L 412.310193 271.371657 
L 412.926768 271.502812 
L 413.543343 271.338293 
L 414.776492 270.53238 
L 416.009641 269.780347 
L 416.626215 269.509121 
L 417.859365 267.837086 
L 419.092514 266.70549 
L 420.325663 265.764394 
L 421.558812 265.430658 
L 422.791961 265.429508 
L 424.02511 265.858638 
L 425.874834 266.837316 
L 426.491409 267.25753 
L 431.424006 272.599319 
L 432.657155 274.044517 
L 433.273729 274.590421 
L 434.506878 275.393746 
L 435.740028 276.37971 
L 437.589751 277.498076 
L 438.206326 277.685221 
L 439.439475 278.4594 
L 442.522348 279.367419 
L 443.138923 279.372021 
L 447.454945 280.122232 
L 449.921243 280.366422 
L 455.470414 280.616939 
L 462.869309 280.787403 
L 502.330083 280.710224 
L 503.563232 280.581274 
L 504.179807 280.380707 
L 504.796381 280.010155 
L 505.412956 279.468278 
L 506.646105 277.98799 
L 507.879254 276.964155 
L 508.495829 275.952306 
L 509.728978 273.057882 
L 511.578702 268.332752 
L 513.428425 260.519246 
L 515.278149 252.755307 
L 515.894724 250.46968 
L 519.594171 232.847635 
L 520.82732 229.463393 
L 522.06047 224.775846 
L 523.293619 221.521225 
L 523.910193 220.388478 
L 524.526768 219.709598 
L 525.143343 217.840925 
L 525.759917 217.55062 
L 526.376492 218.005157 
L 526.993066 217.99346 
L 527.609641 221.242425 
L 528.226215 222.4349 
L 528.84279 223.190959 
L 529.459365 224.813716 
L 530.075939 225.476586 
L 530.692514 225.906962 
L 531.309088 226.929071 
L 531.925663 225.674373 
L 532.542238 226.238685 
L 533.158812 227.019479 
L 533.775387 228.429876 
L 534.391961 229.444506 
L 535.008536 232.700661 
L 535.62511 234.814194 
L 536.85826 236.468397 
L 537.474834 236.554012 
L 538.091409 236.945081 
L 538.707983 237.686471 
L 539.324558 236.812487 
L 539.941133 237.006536 
L 541.174282 238.753928 
L 542.407431 241.193335 
L 544.873729 244.474513 
L 545.490304 244.765777 
L 547.340028 246.082697 
L 548.573177 247.452539 
L 549.806326 249.555238 
L 550.422901 250.01476 
L 551.039475 252.943027 
L 551.65605 254.562716 
L 552.272624 254.939307 
L 552.889199 255.106319 
L 554.738923 254.296667 
L 555.355497 251.975279 
L 555.972072 250.759506 
L 557.821796 250.256362 
L 558.43837 249.873251 
L 559.671519 249.728098 
L 560.288094 249.617652 
L 562.137818 248.662463 
L 562.754392 248.486823 
L 564.604116 247.520225 
L 565.220691 247.489354 
L 565.837265 247.695195 
L 566.45384 248.184629 
L 568.920138 251.778738 
L 570.153287 253.211665 
L 570.769862 253.559878 
L 571.386436 253.62814 
L 572.619586 253.606377 
L 573.23616 253.762363 
L 574.469309 254.881687 
L 575.085884 256.694944 
L 575.702459 257.808324 
L 576.319033 258.336109 
L 576.935608 259.295324 
L 578.785331 264.646221 
L 580.018481 261.791584 
L 580.635055 260.919614 
L 581.25163 259.811028 
L 583.101354 254.21201 
L 583.717928 254.202231 
L 584.951077 255.563061 
L 586.184227 256.423622 
L 587.417376 256.836358 
L 589.883674 258.257396 
L 591.116823 259.755517 
L 592.966547 262.701137 
L 593.583122 263.308401 
L 594.816271 265.50659 
L 595.432845 266.544518 
L 596.665994 268.041584 
L 597.282569 268.578859 
L 597.899144 268.864467 
L 599.132293 269.731835 
L 600.982017 270.678012 
L 604.06489 271.417005 
L 605.914613 271.575772 
L 607.764337 271.517481 
L 610.84721 270.843873 
L 611.463785 270.46057 
L 612.696934 269.240196 
L 613.930083 267.756072 
L 615.163232 266.194004 
L 615.779807 264.583423 
L 617.012956 260.068928 
L 618.246105 254.612666 
L 618.86268 251.660526 
L 619.479254 249.711512 
L 620.095829 245.894401 
L 621.945552 231.338968 
L 623.178702 221.066976 
L 623.795276 217.324454 
L 624.411851 218.214737 
L 625.028425 212.652822 
L 625.645 204.177692 
L 625.645 204.177692 
" clip-path="url(#pa601021521)" style="fill: none; stroke: #53a577; stroke-width: 1.5; stroke-linecap: square"/>
   </g>
   <g id="line2d_30">
    <path d="M 67.645 280.964577 
L 84.909088 280.874264 
L 88.608536 280.629211 
L 89.841685 280.546952 
L 92.924558 280.66363 
L 94.774282 280.79421 
L 97.857155 280.88759 
L 102.789751 280.895548 
L 125.603011 280.959016 
L 192.809641 280.836106 
L 198.358812 280.734193 
L 205.141133 280.845118 
L 214.389751 280.896698 
L 237.819586 280.894397 
L 263.099144 280.537939 
L 269.26489 280.283587 
L 279.746657 280.394896 
L 285.295829 280.598627 
L 292.694724 280.676573 
L 297.010746 280.693063 
L 303.793066 280.707636 
L 309.342238 280.660658 
L 313.65826 280.706485 
L 367.300249 280.573125 
L 372.232845 280.558265 
L 377.165442 280.616364 
L 384.564337 280.606681 
L 393.196381 280.257413 
L 396.279254 280.055791 
L 403.678149 279.905557 
L 407.377597 279.926074 
L 410.46047 279.921568 
L 416.626215 279.731355 
L 418.475939 279.749571 
L 433.890304 279.763089 
L 440.05605 279.700004 
L 441.905773 279.429353 
L 444.372072 279.177781 
L 447.454945 279.560029 
L 451.154392 279.736724 
L 456.703564 280.020606 
L 459.169862 280.040356 
L 461.63616 279.855991 
L 465.952182 279.533759 
L 473.967652 279.266656 
L 481.983122 278.349049 
L 486.915718 277.228575 
L 488.765442 276.7238 
L 489.998591 276.521986 
L 492.46489 276.336088 
L 496.164337 276.683438 
L 502.330083 278.037269 
L 506.646105 278.550576 
L 509.112403 278.466686 
L 512.195276 277.989619 
L 514.661575 276.964347 
L 515.894724 276.183073 
L 517.127873 274.733752 
L 519.594171 270.965728 
L 520.210746 270.029331 
L 521.443895 268.528526 
L 522.06047 267.439689 
L 524.526768 260.099128 
L 526.376492 251.758893 
L 528.84279 244.462049 
L 530.075939 236.803955 
L 531.309088 226.911046 
L 532.542238 218.36545 
L 533.158812 214.302806 
L 534.391961 199.164654 
L 535.62511 187.653687 
L 536.241685 182.023031 
L 538.091409 169.415654 
L 538.707983 166.654878 
L 539.941133 148.528154 
L 541.174282 134.036669 
L 541.790856 127.927508 
L 543.024006 103.775033 
L 543.64058 102.227825 
L 544.873729 79.6123 
L 545.490304 70.115445 
L 546.106878 54.812678 
L 546.723453 49.223439 
L 547.340028 21.057216 
L 547.956602 9.16496 
L 548.573177 9.387579 
L 549.189751 10.870552 
L 549.806326 20.515435 
L 550.422901 21.340235 
L 551.039475 12.713338 
L 551.65605 34.354692 
L 552.272624 40.83776 
L 552.889199 45.233564 
L 553.505773 46.822956 
L 554.122348 48.927957 
L 554.738923 49.53685 
L 557.205221 75.584171 
L 557.821796 83.621158 
L 558.43837 89.375779 
L 559.054945 97.177875 
L 559.671519 110.435755 
L 560.288094 119.631375 
L 562.137818 141.041865 
L 562.754392 144.518433 
L 563.370967 149.822064 
L 564.604116 165.853758 
L 566.45384 187.767969 
L 567.070414 191.90827 
L 568.303564 208.812797 
L 568.920138 214.334349 
L 569.536713 218.629294 
L 570.769862 224.453039 
L 571.386436 225.735157 
L 572.619586 232.70162 
L 573.23616 241.409338 
L 573.852735 238.822669 
L 575.085884 244.489373 
L 575.702459 245.859024 
L 576.935608 251.324202 
L 577.552182 247.270954 
L 578.168757 255.063176 
L 578.785331 255.418867 
L 579.401906 255.199029 
L 580.018481 255.149462 
L 580.635055 255.257224 
L 581.868204 256.362934 
L 582.484779 255.816934 
L 583.101354 256.776725 
L 583.717928 258.179355 
L 584.334503 258.879712 
L 585.567652 261.507415 
L 586.800801 262.953093 
L 588.03395 264.126106 
L 588.650525 264.444503 
L 591.733398 268.571381 
L 592.349972 269.208365 
L 592.966547 269.576137 
L 594.816271 272.087737 
L 595.432845 272.475546 
L 597.282569 273.079741 
L 597.899144 274.134734 
L 598.515718 274.370295 
L 599.132293 274.154772 
L 600.982017 275.042465 
L 601.598591 275.156938 
L 602.215166 274.812177 
L 603.448315 275.585397 
L 604.681464 275.940897 
L 605.914613 276.09439 
L 608.997486 276.239159 
L 610.84721 276.176458 
L 612.080359 275.830163 
L 612.696934 275.609078 
L 614.546657 274.59742 
L 616.396381 272.09464 
L 618.246105 269.245948 
L 618.86268 268.628522 
L 621.328978 260.930256 
L 622.562127 257.005 
L 623.178702 255.700544 
L 625.028425 245.702462 
L 625.645 242.853578 
L 625.645 242.853578 
" clip-path="url(#pa601021521)" style="fill: none; stroke: #2f618f; stroke-width: 1.5; stroke-linecap: square"/>
   </g>
   <g id="line2d_31">
    <path d="M 67.645 280.964193 
L 359.901354 280.917215 
L 368.533398 280.596998 
L 373.465994 280.679257 
L 391.346657 280.932363 
L 446.83837 280.959496 
L 557.205221 280.853172 
L 567.070414 280.284546 
L 568.920138 279.949371 
L 570.153287 279.503559 
L 571.386436 278.85948 
L 572.619586 278.05884 
L 573.23616 277.441414 
L 574.469309 275.821055 
L 575.702459 273.631877 
L 576.319033 274.132145 
L 576.935608 270.81003 
L 578.785331 264.875838 
L 580.018481 267.963159 
L 580.635055 255.601698 
L 581.25163 254.659069 
L 581.868204 251.911715 
L 582.484779 248.514818 
L 583.101354 251.982278 
L 583.717928 239.618995 
L 584.334503 233.030658 
L 584.951077 239.475376 
L 585.567652 238.038902 
L 586.800801 233.05779 
L 587.417376 224.838547 
L 588.03395 229.090349 
L 588.650525 228.059229 
L 589.267099 227.622524 
L 589.883674 226.033228 
L 590.500249 225.622985 
L 591.116823 226.344817 
L 591.733398 225.475627 
L 594.199696 226.895707 
L 594.816271 227.002414 
L 595.432845 227.478043 
L 596.04942 229.231667 
L 597.282569 231.820254 
L 597.899144 232.498368 
L 598.515718 232.271914 
L 599.132293 233.055968 
L 599.748867 233.447516 
L 600.365442 234.23483 
L 600.982017 233.133434 
L 601.598591 234.236939 
L 602.215166 234.995299 
L 602.83174 236.610961 
L 604.681464 239.863281 
L 605.298039 242.351201 
L 605.914613 242.345832 
L 607.147762 244.191686 
L 608.380912 247.214197 
L 608.997486 248.123654 
L 610.230635 250.451369 
L 610.84721 251.126606 
L 612.080359 253.249439 
L 613.313508 255.106511 
L 615.163232 256.831468 
L 616.396381 258.355571 
L 617.012956 259.073376 
L 620.095829 261.521604 
L 621.945552 262.832101 
L 625.645 264.446132 
L 625.645 264.446132 
" clip-path="url(#pa601021521)" style="fill: none; stroke: #fe7b74; stroke-width: 1.5; stroke-linecap: square"/>
   </g>
   <g id="line2d_32">
    <path d="M 67.645 280.96496 
L 106.489199 280.882413 
L 113.888094 280.426438 
L 116.970967 280.31743 
L 121.903564 279.952439 
L 123.136713 279.918788 
L 126.219586 279.67872 
L 128.069309 279.231949 
L 129.919033 278.813749 
L 136.084779 278.130937 
L 138.551077 277.224932 
L 140.400801 276.686889 
L 141.017376 276.716035 
L 144.100249 275.972535 
L 144.716823 275.843393 
L 146.566547 275.085321 
L 147.799696 274.752831 
L 148.416271 274.553222 
L 150.265994 274.274805 
L 151.499144 273.9845 
L 154.582017 273.26238 
L 156.43174 272.381494 
L 157.66489 271.653334 
L 158.898039 270.787116 
L 160.747762 269.61276 
L 161.980912 268.824967 
L 163.830635 268.008316 
L 166.913508 265.918943 
L 168.763232 264.417083 
L 169.996381 263.627084 
L 171.22953 262.38811 
L 173.079254 260.048411 
L 176.162127 255.084747 
L 177.395276 252.400383 
L 178.628425 250.533724 
L 179.245 249.83145 
L 179.861575 248.503025 
L 181.094724 247.731531 
L 181.711298 246.549793 
L 182.327873 245.962663 
L 182.944448 245.675905 
L 183.561022 244.947937 
L 184.177597 244.860404 
L 184.794171 244.286313 
L 185.410746 243.351066 
L 186.02732 243.322784 
L 187.26047 241.524579 
L 187.877044 241.375879 
L 188.493619 240.565363 
L 189.110193 239.537886 
L 190.959917 239.073762 
L 191.576492 239.4911 
L 192.193066 239.355247 
L 194.04279 238.336206 
L 196.509088 236.418063 
L 197.125663 237.122543 
L 197.742238 235.587127 
L 199.591961 233.239758 
L 200.208536 231.599936 
L 200.82511 230.742251 
L 201.441685 228.716154 
L 202.05826 228.88911 
L 202.674834 228.306678 
L 203.907983 226.213662 
L 204.524558 225.035376 
L 205.141133 224.470872 
L 206.374282 222.246509 
L 207.607431 219.912178 
L 208.224006 219.553611 
L 208.84058 219.431948 
L 209.457155 218.664959 
L 210.073729 218.62498 
L 210.690304 218.417989 
L 211.306878 218.430164 
L 211.923453 218.835997 
L 212.540028 219.005406 
L 213.156602 219.49532 
L 215.006326 222.073169 
L 215.622901 223.06757 
L 216.239475 223.832162 
L 218.705773 225.381959 
L 219.322348 225.35195 
L 220.555497 226.354213 
L 221.172072 227.578614 
L 222.405221 229.213259 
L 223.63837 230.816265 
L 224.254945 231.869724 
L 224.871519 232.464524 
L 225.488094 232.603157 
L 227.337818 234.729154 
L 227.954392 235.766123 
L 228.570967 236.449222 
L 231.037265 240.584634 
L 231.65384 241.492077 
L 232.270414 242.630001 
L 233.503564 244.341057 
L 234.736713 246.480572 
L 235.969862 248.4432 
L 237.819586 250.051767 
L 238.43616 250.355303 
L 239.052735 250.347346 
L 240.902459 249.913134 
L 241.519033 250.009967 
L 242.135608 249.809782 
L 242.752182 249.933364 
L 243.985331 249.891659 
L 245.835055 250.566225 
L 247.068204 251.548546 
L 247.684779 253.020685 
L 248.301354 253.874919 
L 248.917928 254.417947 
L 249.534503 254.641236 
L 250.767652 254.396663 
L 251.384227 254.002718 
L 252.000801 252.70737 
L 252.617376 251.862532 
L 253.23395 251.310396 
L 253.850525 251.414611 
L 254.467099 251.683057 
L 255.083674 252.153796 
L 255.700249 252.47967 
L 256.316823 252.986554 
L 257.549972 254.389089 
L 258.166547 255.246007 
L 258.783122 255.867939 
L 260.016271 256.871639 
L 261.24942 257.863164 
L 262.482569 258.683267 
L 263.715718 260.010445 
L 268.03174 263.916335 
L 269.26489 264.526475 
L 270.498039 265.000186 
L 271.731188 264.915913 
L 272.347762 265.191933 
L 272.964337 265.948568 
L 274.197486 266.661867 
L 276.663785 267.861917 
L 277.280359 267.915127 
L 277.896934 268.252314 
L 278.513508 268.257779 
L 279.746657 268.635233 
L 280.363232 268.817009 
L 280.979807 270.646182 
L 281.596381 268.854304 
L 282.212956 268.872808 
L 282.82953 269.236265 
L 283.446105 269.439517 
L 284.679254 270.009869 
L 285.295829 268.556617 
L 285.912403 270.639279 
L 288.378702 271.493608 
L 290.228425 271.708557 
L 292.078149 271.963581 
L 292.694724 272.306616 
L 293.311298 271.893401 
L 294.544448 272.179009 
L 295.161022 272.348417 
L 295.777597 272.39319 
L 296.394171 272.551382 
L 297.010746 272.43317 
L 297.62732 273.051267 
L 298.86047 273.276953 
L 301.326768 273.188558 
L 301.943343 273.48567 
L 303.793066 273.44895 
L 305.64279 273.399863 
L 306.259365 273.02749 
L 309.342238 272.062522 
L 310.575387 271.368302 
L 312.42511 270.764873 
L 313.65826 270.482142 
L 315.507983 270.220791 
L 316.741133 269.732698 
L 317.974282 269.154197 
L 319.207431 268.013876 
L 321.057155 266.014337 
L 322.290304 264.08862 
L 322.906878 262.840633 
L 324.756602 257.947437 
L 325.373177 255.966689 
L 326.606326 252.651188 
L 327.839475 249.104153 
L 329.689199 243.232662 
L 330.305773 241.747005 
L 330.922348 241.150863 
L 332.155497 237.20068 
L 333.388646 231.69696 
L 334.621796 224.380942 
L 335.854945 213.191056 
L 337.088094 202.955879 
L 338.321243 190.973214 
L 339.554392 178.184636 
L 340.787541 162.908618 
L 341.404116 154.346339 
L 346.336713 72.711319 
L 346.953287 65.119185 
L 349.419586 41.349917 
L 350.03616 36.057023 
L 350.652735 31.953921 
L 351.269309 30.509202 
L 351.885884 27.221409 
L 352.502459 25.187067 
L 353.735608 19.362171 
L 354.352182 19.449896 
L 354.968757 18.403244 
L 355.585331 18.553382 
L 356.201906 21.177825 
L 356.818481 24.411162 
L 357.435055 29.176463 
L 358.668204 43.176308 
L 359.901354 60.178819 
L 360.517928 66.545688 
L 362.984227 97.234441 
L 364.217376 109.640388 
L 367.300249 142.911112 
L 370.383122 178.102856 
L 372.84942 198.279645 
L 375.932293 217.278435 
L 377.165442 223.399101 
L 379.015166 231.323437 
L 379.63174 234.181524 
L 380.86489 238.609638 
L 382.098039 241.946326 
L 385.180912 247.273926 
L 385.797486 247.973899 
L 389.496934 251.028432 
L 390.113508 251.637421 
L 392.579807 252.711109 
L 393.812956 252.990101 
L 395.046105 253.415684 
L 397.512403 255.156557 
L 398.128978 255.190017 
L 398.745552 255.093184 
L 399.362127 255.362877 
L 399.978702 255.060875 
L 400.595276 255.094431 
L 401.211851 255.440247 
L 401.828425 255.342647 
L 402.445 255.478309 
L 403.061575 255.363548 
L 403.678149 255.402281 
L 404.911298 255.041317 
L 405.527873 254.189192 
L 406.761022 253.744243 
L 407.994171 253.587681 
L 409.22732 253.736861 
L 409.843895 253.697265 
L 411.077044 254.251606 
L 411.693619 254.69598 
L 412.310193 254.920804 
L 412.926768 255.330376 
L 413.543343 255.501702 
L 414.159917 255.935338 
L 414.776492 255.931599 
L 417.24279 257.059264 
L 418.475939 257.859137 
L 419.709088 258.755076 
L 420.325663 259.509122 
L 420.942238 259.480264 
L 421.558812 259.248729 
L 423.408536 256.357949 
L 424.02511 255.002776 
L 424.641685 253.292678 
L 425.874834 252.348707 
L 427.107983 252.1932 
L 427.724558 252.590212 
L 428.341133 252.812352 
L 428.957707 253.192107 
L 429.574282 253.165166 
L 430.807431 253.924389 
L 432.04058 255.805525 
L 433.273729 258.285679 
L 433.890304 258.843472 
L 435.123453 261.086147 
L 435.740028 261.140795 
L 438.206326 260.356453 
L 438.822901 260.376778 
L 439.439475 260.247061 
L 440.05605 260.536695 
L 440.672624 261.116347 
L 441.289199 261.350949 
L 441.905773 261.755057 
L 443.138923 263.232852 
L 443.755497 264.037615 
L 444.988646 264.988394 
L 446.221796 266.016734 
L 448.071519 266.168597 
L 449.304669 267.135387 
L 449.921243 267.583692 
L 450.537818 267.839386 
L 451.770967 268.514624 
L 453.620691 269.626566 
L 454.85384 270.446861 
L 457.320138 270.836491 
L 457.936713 270.803414 
L 459.169862 270.566607 
L 460.403011 270.739371 
L 464.102459 271.949487 
L 464.719033 272.0979 
L 465.335608 272.411502 
L 465.952182 272.566721 
L 466.568757 272.891158 
L 467.801906 273.182613 
L 470.268204 273.253656 
L 471.501354 273.122692 
L 477.667099 274.333864 
L 478.283674 274.60231 
L 478.900249 274.655711 
L 480.133398 275.010252 
L 483.832845 275.153966 
L 484.44942 275.995161 
L 485.065994 275.142653 
L 486.915718 275.241307 
L 488.148867 275.378119 
L 488.765442 274.622922 
L 489.382017 275.567373 
L 491.848315 276.036483 
L 492.46489 276.802513 
L 493.081464 276.872692 
L 493.698039 276.269264 
L 496.164337 276.499456 
L 496.780912 275.810221 
L 497.397486 275.825369 
L 498.014061 276.507318 
L 498.630635 276.408376 
L 499.24721 276.132452 
L 499.863785 275.589903 
L 500.480359 274.620238 
L 501.096934 273.125952 
L 501.713508 271.154216 
L 502.946657 265.570538 
L 503.563232 260.882128 
L 504.179807 253.425655 
L 504.796381 243.806082 
L 506.02953 219.714008 
L 509.112403 150.985011 
L 510.345552 128.127117 
L 514.045 84.158625 
L 514.661575 78.182729 
L 515.278149 73.583193 
L 515.894724 71.871274 
L 516.511298 71.589022 
L 517.127873 74.575293 
L 520.210746 120.827589 
L 521.443895 143.691427 
L 522.677044 163.766878 
L 523.910193 188.00842 
L 526.376492 225.029911 
L 526.993066 232.464428 
L 527.609641 238.465827 
L 528.226215 243.236785 
L 530.075939 254.479402 
L 531.309088 260.260004 
L 531.925663 262.648119 
L 532.542238 264.379788 
L 533.775387 267.209689 
L 534.391961 268.802053 
L 535.62511 271.057479 
L 536.85826 272.757606 
L 538.091409 274.103479 
L 539.324558 275.479936 
L 540.557707 276.474625 
L 541.790856 277.104802 
L 543.024006 277.618301 
L 546.106878 278.591706 
L 549.189751 279.34949 
L 552.889199 279.819079 
L 563.370967 280.285313 
L 567.070414 280.183782 
L 568.303564 280.046683 
L 571.386436 279.449582 
L 572.003011 279.568082 
L 572.619586 279.248631 
L 575.702459 278.83091 
L 576.319033 278.585761 
L 576.935608 278.796108 
L 582.484779 278.921319 
L 586.800801 279.4724 
L 588.650525 279.565973 
L 591.733398 279.424272 
L 594.816271 279.07395 
L 597.899144 278.380017 
L 599.132293 277.803241 
L 600.365442 277.044881 
L 601.598591 276.289589 
L 602.83174 275.669383 
L 605.914613 273.355282 
L 607.147762 272.70756 
L 607.764337 272.602099 
L 608.380912 272.171722 
L 608.997486 271.910563 
L 609.614061 272.021776 
L 610.230635 271.610287 
L 611.463785 271.214616 
L 612.080359 270.686736 
L 612.696934 270.712239 
L 613.313508 270.601792 
L 613.930083 270.1834 
L 614.546657 270.273329 
L 620.095829 269.264452 
L 623.795276 268.490081 
L 624.411851 268.326137 
L 625.645 267.826635 
L 625.645 267.826635 
" clip-path="url(#pa601021521)" style="fill: none; stroke: #7d31e0; stroke-width: 1.5; stroke-linecap: square"/>
   </g>
   <g id="line2d_33">
    <path d="M 67.645 280.964289 
L 113.271519 280.858541 
L 116.970967 280.6829 
L 120.670414 280.317718 
L 122.520138 280.290394 
L 125.603011 280.4831 
L 129.919033 280.523367 
L 133.001906 280.471403 
L 136.701354 280.569674 
L 145.949972 280.626623 
L 148.416271 280.674847 
L 156.43174 280.808111 
L 161.980912 280.835723 
L 166.913508 280.846748 
L 172.46268 280.801688 
L 181.711298 280.693638 
L 185.410746 280.701692 
L 198.975387 280.921817 
L 430.807431 280.794114 
L 436.356602 280.469198 
L 442.522348 279.9278 
L 445.605221 279.446994 
L 446.83837 279.356297 
L 450.537818 278.748075 
L 455.470414 278.903486 
L 457.320138 278.692852 
L 461.63616 278.489025 
L 462.869309 278.477041 
L 464.719033 278.544632 
L 465.335608 278.706562 
L 465.952182 278.747692 
L 466.568757 278.985554 
L 472.117928 279.155826 
L 473.967652 279.322262 
L 474.584227 279.551975 
L 475.817376 279.523213 
L 477.667099 279.614102 
L 478.283674 279.747845 
L 478.900249 279.625606 
L 479.516823 279.882739 
L 481.366547 280.021852 
L 488.765442 280.54954 
L 500.480359 280.771392 
L 504.179807 280.614926 
L 507.879254 280.423562 
L 512.195276 280.272849 
L 513.428425 280.153486 
L 514.045 279.26004 
L 515.278149 278.863124 
L 515.894724 278.687004 
L 517.127873 277.942545 
L 517.744448 277.559339 
L 518.361022 278.010903 
L 518.977597 277.747826 
L 520.82732 277.48427 
L 522.06047 277.762591 
L 522.677044 277.028774 
L 523.293619 277.527988 
L 523.910193 276.963101 
L 524.526768 275.901109 
L 526.376492 273.950177 
L 526.993066 274.264451 
L 527.609641 273.257299 
L 528.226215 273.350296 
L 528.84279 273.971174 
L 530.692514 271.973456 
L 531.309088 271.190744 
L 531.925663 269.816779 
L 532.542238 270.117535 
L 533.158812 269.682173 
L 533.775387 269.048257 
L 534.391961 268.719506 
L 535.62511 268.66668 
L 536.241685 269.431655 
L 536.85826 268.669939 
L 537.474834 268.677513 
L 538.707983 268.975201 
L 540.557707 269.171454 
L 541.790856 269.27634 
L 542.407431 271.584976 
L 543.024006 269.658588 
L 544.257155 270.062791 
L 546.106878 271.172719 
L 546.723453 269.653027 
L 547.340028 272.334995 
L 548.573177 273.313193 
L 549.806326 273.718739 
L 551.039475 274.120353 
L 552.889199 274.847362 
L 553.505773 275.212641 
L 554.122348 275.966111 
L 554.738923 276.224011 
L 555.355497 276.231394 
L 557.205221 277.061467 
L 557.821796 277.240847 
L 558.43837 276.881992 
L 559.671519 277.674099 
L 562.754392 278.25586 
L 563.370967 278.009657 
L 563.987541 278.500817 
L 566.45384 278.872711 
L 568.303564 278.819597 
L 572.003011 278.908855 
L 572.619586 279.007605 
L 573.852735 279.668366 
L 574.469309 279.446802 
L 575.702459 279.902489 
L 576.319033 279.359078 
L 576.935608 279.562138 
L 577.552182 279.562138 
L 578.168757 278.951327 
L 578.785331 279.135021 
L 580.018481 278.599567 
L 580.635055 279.122558 
L 581.868204 278.436966 
L 582.484779 278.698317 
L 583.717928 278.593623 
L 584.951077 278.585953 
L 585.567652 278.793711 
L 586.184227 278.549042 
L 587.417376 278.454702 
L 589.267099 278.340037 
L 589.883674 278.046377 
L 590.500249 278.264489 
L 594.816271 278.607333 
L 602.83174 278.745295 
L 604.681464 278.55326 
L 606.531188 278.34416 
L 607.764337 277.966897 
L 608.380912 277.632682 
L 609.614061 277.25657 
L 610.84721 276.8725 
L 612.080359 276.112702 
L 613.313508 275.588274 
L 614.546657 275.320307 
L 618.86268 274.918213 
L 619.479254 275.057326 
L 620.095829 275.709745 
L 620.712403 275.050039 
L 621.945552 274.759638 
L 623.178702 274.662039 
L 623.795276 274.495986 
L 624.411851 273.746734 
L 625.028425 274.377294 
L 625.645 274.571247 
L 625.645 274.571247 
" clip-path="url(#pa601021521)" style="fill: none; stroke: #458e4c; stroke-width: 1.5; stroke-linecap: square"/>
   </g>
   <g id="text_20">
    <!-- Japan -->
    <g style="fill: #53a577" transform="translate(642.385 208.040817)scale(0.14 -0.14)">
     <defs>
      <path id="DejaVuSans-4a" d="M 628 4666 
L 1259 4666 
L 1259 325 
Q 1259 -519 939 -900 
Q 619 -1281 -91 -1281 
L -331 -1281 
L -331 -750 
L -134 -750 
Q 284 -750 456 -515 
Q 628 -281 628 325 
L 628 4666 
z
" transform="scale(0.015625)"/>
      <path id="DejaVuSans-61" d="M 2194 1759 
Q 1497 1759 1228 1600 
Q 959 1441 959 1056 
Q 959 750 1161 570 
Q 1363 391 1709 391 
Q 2188 391 2477 730 
Q 2766 1069 2766 1631 
L 2766 1759 
L 2194 1759 
z
M 3341 1997 
L 3341 0 
L 2766 0 
L 2766 531 
Q 2569 213 2275 61 
Q 1981 -91 1556 -91 
Q 1019 -91 701 211 
Q 384 513 384 1019 
Q 384 1609 779 1909 
Q 1175 2209 1959 2209 
L 2766 2209 
L 2766 2266 
Q 2766 2663 2505 2880 
Q 2244 3097 1772 3097 
Q 1472 3097 1187 3025 
Q 903 2953 641 2809 
L 641 3341 
Q 956 3463 1253 3523 
Q 1550 3584 1831 3584 
Q 2591 3584 2966 3190 
Q 3341 2797 3341 1997 
z
" transform="scale(0.015625)"/>
      <path id="DejaVuSans-70" d="M 1159 525 
L 1159 -1331 
L 581 -1331 
L 581 3500 
L 1159 3500 
L 1159 2969 
Q 1341 3281 1617 3432 
Q 1894 3584 2278 3584 
Q 2916 3584 3314 3078 
Q 3713 2572 3713 1747 
Q 3713 922 3314 415 
Q 2916 -91 2278 -91 
Q 1894 -91 1617 61 
Q 1341 213 1159 525 
z
M 3116 1747 
Q 3116 2381 2855 2742 
Q 2594 3103 2138 3103 
Q 1681 3103 1420 2742 
Q 1159 2381 1159 1747 
Q 1159 1113 1420 752 
Q 1681 391 2138 391 
Q 2594 391 2855 752 
Q 3116 1113 3116 1747 
z
" transform="scale(0.015625)"/>
      <path id="DejaVuSans-6e" d="M 3513 2113 
L 3513 0 
L 2938 0 
L 2938 2094 
Q 2938 2591 2744 2837 
Q 2550 3084 2163 3084 
Q 1697 3084 1428 2787 
Q 1159 2491 1159 1978 
L 1159 0 
L 581 0 
L 581 3500 
L 1159 3500 
L 1159 2956 
Q 1366 3272 1645 3428 
Q 1925 3584 2291 3584 
Q 2894 3584 3203 3211 
Q 3513 2838 3513 2113 
z
" transform="scale(0.015625)"/>
     </defs>
     <use xlink:href="#DejaVuSans-4a"/>
     <use xlink:href="#DejaVuSans-61" x="29.492188"/>
     <use xlink:href="#DejaVuSans-70" x="90.771484"/>
     <use xlink:href="#DejaVuSans-61" x="154.248047"/>
     <use xlink:href="#DejaVuSans-6e" x="215.527344"/>
    </g>
   </g>
   <g id="text_21">
    <!-- Korea, South -->
    <g style="fill: #2f618f" transform="translate(642.385 245.287523)scale(0.14 -0.14)">
     <defs>
      <path id="DejaVuSans-4b" d="M 628 4666 
L 1259 4666 
L 1259 2694 
L 3353 4666 
L 4166 4666 
L 1850 2491 
L 4331 0 
L 3500 0 
L 1259 2247 
L 1259 0 
L 628 0 
L 628 4666 
z
" transform="scale(0.015625)"/>
      <path id="DejaVuSans-6f" d="M 1959 3097 
Q 1497 3097 1228 2736 
Q 959 2375 959 1747 
Q 959 1119 1226 758 
Q 1494 397 1959 397 
Q 2419 397 2687 759 
Q 2956 1122 2956 1747 
Q 2956 2369 2687 2733 
Q 2419 3097 1959 3097 
z
M 1959 3584 
Q 2709 3584 3137 3096 
Q 3566 2609 3566 1747 
Q 3566 888 3137 398 
Q 2709 -91 1959 -91 
Q 1206 -91 779 398 
Q 353 888 353 1747 
Q 353 2609 779 3096 
Q 1206 3584 1959 3584 
z
" transform="scale(0.015625)"/>
      <path id="DejaVuSans-72" d="M 2631 2963 
Q 2534 3019 2420 3045 
Q 2306 3072 2169 3072 
Q 1681 3072 1420 2755 
Q 1159 2438 1159 1844 
L 1159 0 
L 581 0 
L 581 3500 
L 1159 3500 
L 1159 2956 
Q 1341 3275 1631 3429 
Q 1922 3584 2338 3584 
Q 2397 3584 2469 3576 
Q 2541 3569 2628 3553 
L 2631 2963 
z
" transform="scale(0.015625)"/>
      <path id="DejaVuSans-65" d="M 3597 1894 
L 3597 1613 
L 953 1613 
Q 991 1019 1311 708 
Q 1631 397 2203 397 
Q 2534 397 2845 478 
Q 3156 559 3463 722 
L 3463 178 
Q 3153 47 2828 -22 
Q 2503 -91 2169 -91 
Q 1331 -91 842 396 
Q 353 884 353 1716 
Q 353 2575 817 3079 
Q 1281 3584 2069 3584 
Q 2775 3584 3186 3129 
Q 3597 2675 3597 1894 
z
M 3022 2063 
Q 3016 2534 2758 2815 
Q 2500 3097 2075 3097 
Q 1594 3097 1305 2825 
Q 1016 2553 972 2059 
L 3022 2063 
z
" transform="scale(0.015625)"/>
      <path id="DejaVuSans-2c" d="M 750 794 
L 1409 794 
L 1409 256 
L 897 -744 
L 494 -744 
L 750 256 
L 750 794 
z
" transform="scale(0.015625)"/>
      <path id="DejaVuSans-20" transform="scale(0.015625)"/>
      <path id="DejaVuSans-53" d="M 3425 4513 
L 3425 3897 
Q 3066 4069 2747 4153 
Q 2428 4238 2131 4238 
Q 1616 4238 1336 4038 
Q 1056 3838 1056 3469 
Q 1056 3159 1242 3001 
Q 1428 2844 1947 2747 
L 2328 2669 
Q 3034 2534 3370 2195 
Q 3706 1856 3706 1288 
Q 3706 609 3251 259 
Q 2797 -91 1919 -91 
Q 1588 -91 1214 -16 
Q 841 59 441 206 
L 441 856 
Q 825 641 1194 531 
Q 1563 422 1919 422 
Q 2459 422 2753 634 
Q 3047 847 3047 1241 
Q 3047 1584 2836 1778 
Q 2625 1972 2144 2069 
L 1759 2144 
Q 1053 2284 737 2584 
Q 422 2884 422 3419 
Q 422 4038 858 4394 
Q 1294 4750 2059 4750 
Q 2388 4750 2728 4690 
Q 3069 4631 3425 4513 
z
" transform="scale(0.015625)"/>
      <path id="DejaVuSans-75" d="M 544 1381 
L 544 3500 
L 1119 3500 
L 1119 1403 
Q 1119 906 1312 657 
Q 1506 409 1894 409 
Q 2359 409 2629 706 
Q 2900 1003 2900 1516 
L 2900 3500 
L 3475 3500 
L 3475 0 
L 2900 0 
L 2900 538 
Q 2691 219 2414 64 
Q 2138 -91 1772 -91 
Q 1169 -91 856 284 
Q 544 659 544 1381 
z
M 1991 3584 
L 1991 3584 
z
" transform="scale(0.015625)"/>
      <path id="DejaVuSans-74" d="M 1172 4494 
L 1172 3500 
L 2356 3500 
L 2356 3053 
L 1172 3053 
L 1172 1153 
Q 1172 725 1289 603 
Q 1406 481 1766 481 
L 2356 481 
L 2356 0 
L 1766 0 
Q 1100 0 847 248 
Q 594 497 594 1153 
L 594 3053 
L 172 3053 
L 172 3500 
L 594 3500 
L 594 4494 
L 1172 4494 
z
" transform="scale(0.015625)"/>
      <path id="DejaVuSans-68" d="M 3513 2113 
L 3513 0 
L 2938 0 
L 2938 2094 
Q 2938 2591 2744 2837 
Q 2550 3084 2163 3084 
Q 1697 3084 1428 2787 
Q 1159 2491 1159 1978 
L 1159 0 
L 581 0 
L 581 4863 
L 1159 4863 
L 1159 2956 
Q 1366 3272 1645 3428 
Q 1925 3584 2291 3584 
Q 2894 3584 3203 3211 
Q 3513 2838 3513 2113 
z
" transform="scale(0.015625)"/>
     </defs>
     <use xlink:href="#DejaVuSans-4b"/>
     <use xlink:href="#DejaVuSans-6f" x="60.576172"/>
     <use xlink:href="#DejaVuSans-72" x="121.757812"/>
     <use xlink:href="#DejaVuSans-65" x="160.621094"/>
     <use xlink:href="#DejaVuSans-61" x="222.144531"/>
     <use xlink:href="#DejaVuSans-2c" x="283.423828"/>
     <use xlink:href="#DejaVuSans-20" x="315.210938"/>
     <use xlink:href="#DejaVuSans-53" x="346.998047"/>
     <use xlink:href="#DejaVuSans-6f" x="410.474609"/>
     <use xlink:href="#DejaVuSans-75" x="471.65625"/>
     <use xlink:href="#DejaVuSans-74" x="535.035156"/>
     <use xlink:href="#DejaVuSans-68" x="574.244141"/>
    </g>
   </g>
   <g id="text_22">
    <!-- Taiwan* -->
    <g style="fill: #fe7b74" transform="translate(642.385 259.287523)scale(0.14 -0.14)">
     <defs>
      <path id="DejaVuSans-54" d="M -19 4666 
L 3928 4666 
L 3928 4134 
L 2272 4134 
L 2272 0 
L 1638 0 
L 1638 4134 
L -19 4134 
L -19 4666 
z
" transform="scale(0.015625)"/>
      <path id="DejaVuSans-69" d="M 603 3500 
L 1178 3500 
L 1178 0 
L 603 0 
L 603 3500 
z
M 603 4863 
L 1178 4863 
L 1178 4134 
L 603 4134 
L 603 4863 
z
" transform="scale(0.015625)"/>
      <path id="DejaVuSans-77" d="M 269 3500 
L 844 3500 
L 1563 769 
L 2278 3500 
L 2956 3500 
L 3675 769 
L 4391 3500 
L 4966 3500 
L 4050 0 
L 3372 0 
L 2619 2869 
L 1863 0 
L 1184 0 
L 269 3500 
z
" transform="scale(0.015625)"/>
      <path id="DejaVuSans-2a" d="M 3009 3897 
L 1888 3291 
L 3009 2681 
L 2828 2375 
L 1778 3009 
L 1778 1831 
L 1422 1831 
L 1422 3009 
L 372 2375 
L 191 2681 
L 1313 3291 
L 191 3897 
L 372 4206 
L 1422 3572 
L 1422 4750 
L 1778 4750 
L 1778 3572 
L 2828 4206 
L 3009 3897 
z
" transform="scale(0.015625)"/>
     </defs>
     <use xlink:href="#DejaVuSans-54"/>
     <use xlink:href="#DejaVuSans-61" x="44.583984"/>
     <use xlink:href="#DejaVuSans-69" x="105.863281"/>
     <use xlink:href="#DejaVuSans-77" x="133.646484"/>
     <use xlink:href="#DejaVuSans-61" x="215.433594"/>
     <use xlink:href="#DejaVuSans-6e" x="276.712891"/>
     <use xlink:href="#DejaVuSans-2a" x="340.091797"/>
    </g>
   </g>
   <g id="text_23">
    <!-- India -->
    <g style="fill: #7d31e0" transform="translate(642.385 273.287523)scale(0.14 -0.14)">
     <defs>
      <path id="DejaVuSans-49" d="M 628 4666 
L 1259 4666 
L 1259 0 
L 628 0 
L 628 4666 
z
" transform="scale(0.015625)"/>
      <path id="DejaVuSans-64" d="M 2906 2969 
L 2906 4863 
L 3481 4863 
L 3481 0 
L 2906 0 
L 2906 525 
Q 2725 213 2448 61 
Q 2172 -91 1784 -91 
Q 1150 -91 751 415 
Q 353 922 353 1747 
Q 353 2572 751 3078 
Q 1150 3584 1784 3584 
Q 2172 3584 2448 3432 
Q 2725 3281 2906 2969 
z
M 947 1747 
Q 947 1113 1208 752 
Q 1469 391 1925 391 
Q 2381 391 2643 752 
Q 2906 1113 2906 1747 
Q 2906 2381 2643 2742 
Q 2381 3103 1925 3103 
Q 1469 3103 1208 2742 
Q 947 2381 947 1747 
z
" transform="scale(0.015625)"/>
     </defs>
     <use xlink:href="#DejaVuSans-49"/>
     <use xlink:href="#DejaVuSans-6e" x="29.492188"/>
     <use xlink:href="#DejaVuSans-64" x="92.871094"/>
     <use xlink:href="#DejaVuSans-69" x="156.347656"/>
     <use xlink:href="#DejaVuSans-61" x="184.130859"/>
    </g>
   </g>
   <g id="text_24">
    <!-- Singapore -->
    <g style="fill: #458e4c" transform="translate(642.385 287.287523)scale(0.14 -0.14)">
     <defs>
      <path id="DejaVuSans-67" d="M 2906 1791 
Q 2906 2416 2648 2759 
Q 2391 3103 1925 3103 
Q 1463 3103 1205 2759 
Q 947 2416 947 1791 
Q 947 1169 1205 825 
Q 1463 481 1925 481 
Q 2391 481 2648 825 
Q 2906 1169 2906 1791 
z
M 3481 434 
Q 3481 -459 3084 -895 
Q 2688 -1331 1869 -1331 
Q 1566 -1331 1297 -1286 
Q 1028 -1241 775 -1147 
L 775 -588 
Q 1028 -725 1275 -790 
Q 1522 -856 1778 -856 
Q 2344 -856 2625 -561 
Q 2906 -266 2906 331 
L 2906 616 
Q 2728 306 2450 153 
Q 2172 0 1784 0 
Q 1141 0 747 490 
Q 353 981 353 1791 
Q 353 2603 747 3093 
Q 1141 3584 1784 3584 
Q 2172 3584 2450 3431 
Q 2728 3278 2906 2969 
L 2906 3500 
L 3481 3500 
L 3481 434 
z
" transform="scale(0.015625)"/>
     </defs>
     <use xlink:href="#DejaVuSans-53"/>
     <use xlink:href="#DejaVuSans-69" x="63.476562"/>
     <use xlink:href="#DejaVuSans-6e" x="91.259766"/>
     <use xlink:href="#DejaVuSans-67" x="154.638672"/>
     <use xlink:href="#DejaVuSans-61" x="218.115234"/>
     <use xlink:href="#DejaVuSans-70" x="279.394531"/>
     <use xlink:href="#DejaVuSans-6f" x="342.871094"/>
     <use xlink:href="#DejaVuSans-72" x="404.052734"/>
     <use xlink:href="#DejaVuSans-65" x="442.916016"/>
    </g>
   </g>
  </g>
 </g>
 <defs>
  <clipPath id="pa601021521">
   <rect x="67.645" y="9.16496" width="558" height="271.8"/>
  </clipPath>
 </defs>
</svg>
