<?xml version="1.0" encoding="utf-8" standalone="no"?>
<!DOCTYPE svg PUBLIC "-//W3C//DTD SVG 1.1//EN"
  "http://www.w3.org/Graphics/SVG/1.1/DTD/svg11.dtd">
<svg xmlns:xlink="http://www.w3.org/1999/xlink" width="761.954688pt" height="306.749375pt" viewBox="0 0 761.954688 306.749375" xmlns="http://www.w3.org/2000/svg" version="1.1">
 <metadata>
  <rdf:RDF xmlns:dc="http://purl.org/dc/elements/1.1/" xmlns:cc="http://creativecommons.org/ns#" xmlns:rdf="http://www.w3.org/1999/02/22-rdf-syntax-ns#">
   <cc:Work>
    <dc:type rdf:resource="http://purl.org/dc/dcmitype/StillImage"/>
    <dc:date>2022-07-22T10:50:37.437328</dc:date>
    <dc:format>image/svg+xml</dc:format>
    <dc:creator>
     <cc:Agent>
      <dc:title>Matplotlib v3.5.1, https://matplotlib.org/</dc:title>
     </cc:Agent>
    </dc:creator>
   </cc:Work>
  </rdf:RDF>
 </metadata>
 <defs>
  <style type="text/css">*{stroke-linejoin: round; stroke-linecap: butt}</style>
 </defs>
 <g id="figure_1">
  <g id="patch_1">
   <path d="M 0 306.749375 
L 761.954688 306.749375 
L 761.954688 0 
L 0 0 
L 0 306.749375 
z
" style="fill: none"/>
  </g>
  <g id="axes_1">
   <g id="patch_2">
    <path d="M 67.645 279 
L 625.645 279 
L 625.645 7.2 
L 67.645 7.2 
L 67.645 279 
z
" style="fill: none"/>
   </g>
   <g id="matplotlib.axis_1">
    <g id="xtick_1">
     <g id="line2d_1">
      <defs>
       <path id="m43a9f60bd3" d="M 0 0 
L 0 3.5 
" style="stroke: #b0b0b0; stroke-width: 0.4"/>
      </defs>
      <g>
       <use xlink:href="#m43a9f60bd3" x="107.105773" y="279" style="fill: #b0b0b0; stroke: #b0b0b0; stroke-width: 0.4"/>
      </g>
     </g>
     <g id="text_1">
      <!-- 2020-04 -->
      <g style="fill: #b0b0b0" transform="translate(77.857805 296.637812)scale(0.14 -0.14)">
       <defs>
        <path id="DejaVuSans-32" d="M 1228 531 
L 3431 531 
L 3431 0 
L 469 0 
L 469 531 
Q 828 903 1448 1529 
Q 2069 2156 2228 2338 
Q 2531 2678 2651 2914 
Q 2772 3150 2772 3378 
Q 2772 3750 2511 3984 
Q 2250 4219 1831 4219 
Q 1534 4219 1204 4116 
Q 875 4013 500 3803 
L 500 4441 
Q 881 4594 1212 4672 
Q 1544 4750 1819 4750 
Q 2544 4750 2975 4387 
Q 3406 4025 3406 3419 
Q 3406 3131 3298 2873 
Q 3191 2616 2906 2266 
Q 2828 2175 2409 1742 
Q 1991 1309 1228 531 
z
" transform="scale(0.015625)"/>
        <path id="DejaVuSans-30" d="M 2034 4250 
Q 1547 4250 1301 3770 
Q 1056 3291 1056 2328 
Q 1056 1369 1301 889 
Q 1547 409 2034 409 
Q 2525 409 2770 889 
Q 3016 1369 3016 2328 
Q 3016 3291 2770 3770 
Q 2525 4250 2034 4250 
z
M 2034 4750 
Q 2819 4750 3233 4129 
Q 3647 3509 3647 2328 
Q 3647 1150 3233 529 
Q 2819 -91 2034 -91 
Q 1250 -91 836 529 
Q 422 1150 422 2328 
Q 422 3509 836 4129 
Q 1250 4750 2034 4750 
z
" transform="scale(0.015625)"/>
        <path id="DejaVuSans-2d" d="M 313 2009 
L 1997 2009 
L 1997 1497 
L 313 1497 
L 313 2009 
z
" transform="scale(0.015625)"/>
        <path id="DejaVuSans-34" d="M 2419 4116 
L 825 1625 
L 2419 1625 
L 2419 4116 
z
M 2253 4666 
L 3047 4666 
L 3047 1625 
L 3713 1625 
L 3713 1100 
L 3047 1100 
L 3047 0 
L 2419 0 
L 2419 1100 
L 313 1100 
L 313 1709 
L 2253 4666 
z
" transform="scale(0.015625)"/>
       </defs>
       <use xlink:href="#DejaVuSans-32"/>
       <use xlink:href="#DejaVuSans-30" x="63.623047"/>
       <use xlink:href="#DejaVuSans-32" x="127.246094"/>
       <use xlink:href="#DejaVuSans-30" x="190.869141"/>
       <use xlink:href="#DejaVuSans-2d" x="254.492188"/>
       <use xlink:href="#DejaVuSans-30" x="290.576172"/>
       <use xlink:href="#DejaVuSans-34" x="354.199219"/>
      </g>
     </g>
    </g>
    <g id="xtick_2">
     <g id="line2d_2">
      <g>
       <use xlink:href="#m43a9f60bd3" x="163.214061" y="279" style="fill: #b0b0b0; stroke: #b0b0b0; stroke-width: 0.4"/>
      </g>
     </g>
     <g id="text_2">
      <!-- 2020-07 -->
      <g style="fill: #b0b0b0" transform="translate(133.966092 296.637812)scale(0.14 -0.14)">
       <defs>
        <path id="DejaVuSans-37" d="M 525 4666 
L 3525 4666 
L 3525 4397 
L 1831 0 
L 1172 0 
L 2766 4134 
L 525 4134 
L 525 4666 
z
" transform="scale(0.015625)"/>
       </defs>
       <use xlink:href="#DejaVuSans-32"/>
       <use xlink:href="#DejaVuSans-30" x="63.623047"/>
       <use xlink:href="#DejaVuSans-32" x="127.246094"/>
       <use xlink:href="#DejaVuSans-30" x="190.869141"/>
       <use xlink:href="#DejaVuSans-2d" x="254.492188"/>
       <use xlink:href="#DejaVuSans-30" x="290.576172"/>
       <use xlink:href="#DejaVuSans-37" x="354.199219"/>
      </g>
     </g>
    </g>
    <g id="xtick_3">
     <g id="line2d_3">
      <g>
       <use xlink:href="#m43a9f60bd3" x="219.938923" y="279" style="fill: #b0b0b0; stroke: #b0b0b0; stroke-width: 0.4"/>
      </g>
     </g>
     <g id="text_3">
      <!-- 2020-10 -->
      <g style="fill: #b0b0b0" transform="translate(190.690954 296.637812)scale(0.14 -0.14)">
       <defs>
        <path id="DejaVuSans-31" d="M 794 531 
L 1825 531 
L 1825 4091 
L 703 3866 
L 703 4441 
L 1819 4666 
L 2450 4666 
L 2450 531 
L 3481 531 
L 3481 0 
L 794 0 
L 794 531 
z
" transform="scale(0.015625)"/>
       </defs>
       <use xlink:href="#DejaVuSans-32"/>
       <use xlink:href="#DejaVuSans-30" x="63.623047"/>
       <use xlink:href="#DejaVuSans-32" x="127.246094"/>
       <use xlink:href="#DejaVuSans-30" x="190.869141"/>
       <use xlink:href="#DejaVuSans-2d" x="254.492188"/>
       <use xlink:href="#DejaVuSans-31" x="290.576172"/>
       <use xlink:href="#DejaVuSans-30" x="354.199219"/>
      </g>
     </g>
    </g>
    <g id="xtick_4">
     <g id="line2d_4">
      <g>
       <use xlink:href="#m43a9f60bd3" x="276.663785" y="279" style="fill: #b0b0b0; stroke: #b0b0b0; stroke-width: 0.4"/>
      </g>
     </g>
     <g id="text_4">
      <!-- 2021-01 -->
      <g style="fill: #b0b0b0" transform="translate(247.415816 296.637812)scale(0.14 -0.14)">
       <use xlink:href="#DejaVuSans-32"/>
       <use xlink:href="#DejaVuSans-30" x="63.623047"/>
       <use xlink:href="#DejaVuSans-32" x="127.246094"/>
       <use xlink:href="#DejaVuSans-31" x="190.869141"/>
       <use xlink:href="#DejaVuSans-2d" x="254.492188"/>
       <use xlink:href="#DejaVuSans-30" x="290.576172"/>
       <use xlink:href="#DejaVuSans-31" x="354.199219"/>
      </g>
     </g>
    </g>
    <g id="xtick_5">
     <g id="line2d_5">
      <g>
       <use xlink:href="#m43a9f60bd3" x="332.155497" y="279" style="fill: #b0b0b0; stroke: #b0b0b0; stroke-width: 0.4"/>
      </g>
     </g>
     <g id="text_5">
      <!-- 2021-04 -->
      <g style="fill: #b0b0b0" transform="translate(302.907528 296.637812)scale(0.14 -0.14)">
       <use xlink:href="#DejaVuSans-32"/>
       <use xlink:href="#DejaVuSans-30" x="63.623047"/>
       <use xlink:href="#DejaVuSans-32" x="127.246094"/>
       <use xlink:href="#DejaVuSans-31" x="190.869141"/>
       <use xlink:href="#DejaVuSans-2d" x="254.492188"/>
       <use xlink:href="#DejaVuSans-30" x="290.576172"/>
       <use xlink:href="#DejaVuSans-34" x="354.199219"/>
      </g>
     </g>
    </g>
    <g id="xtick_6">
     <g id="line2d_6">
      <g>
       <use xlink:href="#m43a9f60bd3" x="388.263785" y="279" style="fill: #b0b0b0; stroke: #b0b0b0; stroke-width: 0.4"/>
      </g>
     </g>
     <g id="text_6">
      <!-- 2021-07 -->
      <g style="fill: #b0b0b0" transform="translate(359.015816 296.637812)scale(0.14 -0.14)">
       <use xlink:href="#DejaVuSans-32"/>
       <use xlink:href="#DejaVuSans-30" x="63.623047"/>
       <use xlink:href="#DejaVuSans-32" x="127.246094"/>
       <use xlink:href="#DejaVuSans-31" x="190.869141"/>
       <use xlink:href="#DejaVuSans-2d" x="254.492188"/>
       <use xlink:href="#DejaVuSans-30" x="290.576172"/>
       <use xlink:href="#DejaVuSans-37" x="354.199219"/>
      </g>
     </g>
    </g>
    <g id="xtick_7">
     <g id="line2d_7">
      <g>
       <use xlink:href="#m43a9f60bd3" x="444.988646" y="279" style="fill: #b0b0b0; stroke: #b0b0b0; stroke-width: 0.4"/>
      </g>
     </g>
     <g id="text_7">
      <!-- 2021-10 -->
      <g style="fill: #b0b0b0" transform="translate(415.740678 296.637812)scale(0.14 -0.14)">
       <use xlink:href="#DejaVuSans-32"/>
       <use xlink:href="#DejaVuSans-30" x="63.623047"/>
       <use xlink:href="#DejaVuSans-32" x="127.246094"/>
       <use xlink:href="#DejaVuSans-31" x="190.869141"/>
       <use xlink:href="#DejaVuSans-2d" x="254.492188"/>
       <use xlink:href="#DejaVuSans-31" x="290.576172"/>
       <use xlink:href="#DejaVuSans-30" x="354.199219"/>
      </g>
     </g>
    </g>
    <g id="xtick_8">
     <g id="line2d_8">
      <g>
       <use xlink:href="#m43a9f60bd3" x="501.713508" y="279" style="fill: #b0b0b0; stroke: #b0b0b0; stroke-width: 0.4"/>
      </g>
     </g>
     <g id="text_8">
      <!-- 2022-01 -->
      <g style="fill: #b0b0b0" transform="translate(472.46554 296.637812)scale(0.14 -0.14)">
       <use xlink:href="#DejaVuSans-32"/>
       <use xlink:href="#DejaVuSans-30" x="63.623047"/>
       <use xlink:href="#DejaVuSans-32" x="127.246094"/>
       <use xlink:href="#DejaVuSans-32" x="190.869141"/>
       <use xlink:href="#DejaVuSans-2d" x="254.492188"/>
       <use xlink:href="#DejaVuSans-30" x="290.576172"/>
       <use xlink:href="#DejaVuSans-31" x="354.199219"/>
      </g>
     </g>
    </g>
    <g id="xtick_9">
     <g id="line2d_9">
      <g>
       <use xlink:href="#m43a9f60bd3" x="557.205221" y="279" style="fill: #b0b0b0; stroke: #b0b0b0; stroke-width: 0.4"/>
      </g>
     </g>
     <g id="text_9">
      <!-- 2022-04 -->
      <g style="fill: #b0b0b0" transform="translate(527.957252 296.637812)scale(0.14 -0.14)">
       <use xlink:href="#DejaVuSans-32"/>
       <use xlink:href="#DejaVuSans-30" x="63.623047"/>
       <use xlink:href="#DejaVuSans-32" x="127.246094"/>
       <use xlink:href="#DejaVuSans-32" x="190.869141"/>
       <use xlink:href="#DejaVuSans-2d" x="254.492188"/>
       <use xlink:href="#DejaVuSans-30" x="290.576172"/>
       <use xlink:href="#DejaVuSans-34" x="354.199219"/>
      </g>
     </g>
    </g>
    <g id="xtick_10">
     <g id="line2d_10">
      <g>
       <use xlink:href="#m43a9f60bd3" x="613.313508" y="279" style="fill: #b0b0b0; stroke: #b0b0b0; stroke-width: 0.4"/>
      </g>
     </g>
     <g id="text_10">
      <!-- 2022-07 -->
      <g style="fill: #b0b0b0" transform="translate(584.06554 296.637812)scale(0.14 -0.14)">
       <use xlink:href="#DejaVuSans-32"/>
       <use xlink:href="#DejaVuSans-30" x="63.623047"/>
       <use xlink:href="#DejaVuSans-32" x="127.246094"/>
       <use xlink:href="#DejaVuSans-32" x="190.869141"/>
       <use xlink:href="#DejaVuSans-2d" x="254.492188"/>
       <use xlink:href="#DejaVuSans-30" x="290.576172"/>
       <use xlink:href="#DejaVuSans-37" x="354.199219"/>
      </g>
     </g>
    </g>
   </g>
   <g id="matplotlib.axis_2">
    <g id="ytick_1">
     <g id="line2d_11">
      <path d="M 67.645 279 
L 625.645 279 
" clip-path="url(#pcfacee33e2)" style="fill: none; stroke: #b0b0b0; stroke-width: 0.3; stroke-linecap: square"/>
     </g>
     <g id="line2d_12">
      <defs>
       <path id="me26fe00e03" d="M 0 0 
L -3.5 0 
" style="stroke: #b0b0b0; stroke-width: 0.3"/>
      </defs>
      <g>
       <use xlink:href="#me26fe00e03" x="67.645" y="279" style="fill: #b0b0b0; stroke: #b0b0b0; stroke-width: 0.3"/>
      </g>
     </g>
     <g id="text_11">
      <!-- 0 -->
      <g style="fill: #b0b0b0" transform="translate(51.7375 284.318906)scale(0.14 -0.14)">
       <use xlink:href="#DejaVuSans-30"/>
      </g>
     </g>
    </g>
    <g id="ytick_2">
     <g id="line2d_13">
      <path d="M 67.645 241.971771 
L 625.645 241.971771 
" clip-path="url(#pcfacee33e2)" style="fill: none; stroke: #b0b0b0; stroke-width: 0.3; stroke-linecap: square"/>
     </g>
     <g id="line2d_14">
      <g>
       <use xlink:href="#me26fe00e03" x="67.645" y="241.971771" style="fill: #b0b0b0; stroke: #b0b0b0; stroke-width: 0.3"/>
      </g>
     </g>
     <g id="text_12">
      <!-- 50000 -->
      <g style="fill: #b0b0b0" transform="translate(16.1075 247.290678)scale(0.14 -0.14)">
       <defs>
        <path id="DejaVuSans-35" d="M 691 4666 
L 3169 4666 
L 3169 4134 
L 1269 4134 
L 1269 2991 
Q 1406 3038 1543 3061 
Q 1681 3084 1819 3084 
Q 2600 3084 3056 2656 
Q 3513 2228 3513 1497 
Q 3513 744 3044 326 
Q 2575 -91 1722 -91 
Q 1428 -91 1123 -41 
Q 819 9 494 109 
L 494 744 
Q 775 591 1075 516 
Q 1375 441 1709 441 
Q 2250 441 2565 725 
Q 2881 1009 2881 1497 
Q 2881 1984 2565 2268 
Q 2250 2553 1709 2553 
Q 1456 2553 1204 2497 
Q 953 2441 691 2322 
L 691 4666 
z
" transform="scale(0.015625)"/>
       </defs>
       <use xlink:href="#DejaVuSans-35"/>
       <use xlink:href="#DejaVuSans-30" x="63.623047"/>
       <use xlink:href="#DejaVuSans-30" x="127.246094"/>
       <use xlink:href="#DejaVuSans-30" x="190.869141"/>
       <use xlink:href="#DejaVuSans-30" x="254.492188"/>
      </g>
     </g>
    </g>
    <g id="ytick_3">
     <g id="line2d_15">
      <path d="M 67.645 204.943543 
L 625.645 204.943543 
" clip-path="url(#pcfacee33e2)" style="fill: none; stroke: #b0b0b0; stroke-width: 0.3; stroke-linecap: square"/>
     </g>
     <g id="line2d_16">
      <g>
       <use xlink:href="#me26fe00e03" x="67.645" y="204.943543" style="fill: #b0b0b0; stroke: #b0b0b0; stroke-width: 0.3"/>
      </g>
     </g>
     <g id="text_13">
      <!-- 100000 -->
      <g style="fill: #b0b0b0" transform="translate(7.2 210.262449)scale(0.14 -0.14)">
       <use xlink:href="#DejaVuSans-31"/>
       <use xlink:href="#DejaVuSans-30" x="63.623047"/>
       <use xlink:href="#DejaVuSans-30" x="127.246094"/>
       <use xlink:href="#DejaVuSans-30" x="190.869141"/>
       <use xlink:href="#DejaVuSans-30" x="254.492188"/>
       <use xlink:href="#DejaVuSans-30" x="318.115234"/>
      </g>
     </g>
    </g>
    <g id="ytick_4">
     <g id="line2d_17">
      <path d="M 67.645 167.915314 
L 625.645 167.915314 
" clip-path="url(#pcfacee33e2)" style="fill: none; stroke: #b0b0b0; stroke-width: 0.3; stroke-linecap: square"/>
     </g>
     <g id="line2d_18">
      <g>
       <use xlink:href="#me26fe00e03" x="67.645" y="167.915314" style="fill: #b0b0b0; stroke: #b0b0b0; stroke-width: 0.3"/>
      </g>
     </g>
     <g id="text_14">
      <!-- 150000 -->
      <g style="fill: #b0b0b0" transform="translate(7.2 173.23422)scale(0.14 -0.14)">
       <use xlink:href="#DejaVuSans-31"/>
       <use xlink:href="#DejaVuSans-35" x="63.623047"/>
       <use xlink:href="#DejaVuSans-30" x="127.246094"/>
       <use xlink:href="#DejaVuSans-30" x="190.869141"/>
       <use xlink:href="#DejaVuSans-30" x="254.492188"/>
       <use xlink:href="#DejaVuSans-30" x="318.115234"/>
      </g>
     </g>
    </g>
    <g id="ytick_5">
     <g id="line2d_19">
      <path d="M 67.645 130.887085 
L 625.645 130.887085 
" clip-path="url(#pcfacee33e2)" style="fill: none; stroke: #b0b0b0; stroke-width: 0.3; stroke-linecap: square"/>
     </g>
     <g id="line2d_20">
      <g>
       <use xlink:href="#me26fe00e03" x="67.645" y="130.887085" style="fill: #b0b0b0; stroke: #b0b0b0; stroke-width: 0.3"/>
      </g>
     </g>
     <g id="text_15">
      <!-- 200000 -->
      <g style="fill: #b0b0b0" transform="translate(7.2 136.205991)scale(0.14 -0.14)">
       <use xlink:href="#DejaVuSans-32"/>
       <use xlink:href="#DejaVuSans-30" x="63.623047"/>
       <use xlink:href="#DejaVuSans-30" x="127.246094"/>
       <use xlink:href="#DejaVuSans-30" x="190.869141"/>
       <use xlink:href="#DejaVuSans-30" x="254.492188"/>
       <use xlink:href="#DejaVuSans-30" x="318.115234"/>
      </g>
     </g>
    </g>
    <g id="ytick_6">
     <g id="line2d_21">
      <path d="M 67.645 93.858856 
L 625.645 93.858856 
" clip-path="url(#pcfacee33e2)" style="fill: none; stroke: #b0b0b0; stroke-width: 0.3; stroke-linecap: square"/>
     </g>
     <g id="line2d_22">
      <g>
       <use xlink:href="#me26fe00e03" x="67.645" y="93.858856" style="fill: #b0b0b0; stroke: #b0b0b0; stroke-width: 0.3"/>
      </g>
     </g>
     <g id="text_16">
      <!-- 250000 -->
      <g style="fill: #b0b0b0" transform="translate(7.2 99.177763)scale(0.14 -0.14)">
       <use xlink:href="#DejaVuSans-32"/>
       <use xlink:href="#DejaVuSans-35" x="63.623047"/>
       <use xlink:href="#DejaVuSans-30" x="127.246094"/>
       <use xlink:href="#DejaVuSans-30" x="190.869141"/>
       <use xlink:href="#DejaVuSans-30" x="254.492188"/>
       <use xlink:href="#DejaVuSans-30" x="318.115234"/>
      </g>
     </g>
    </g>
    <g id="ytick_7">
     <g id="line2d_23">
      <path d="M 67.645 56.830628 
L 625.645 56.830628 
" clip-path="url(#pcfacee33e2)" style="fill: none; stroke: #b0b0b0; stroke-width: 0.3; stroke-linecap: square"/>
     </g>
     <g id="line2d_24">
      <g>
       <use xlink:href="#me26fe00e03" x="67.645" y="56.830628" style="fill: #b0b0b0; stroke: #b0b0b0; stroke-width: 0.3"/>
      </g>
     </g>
     <g id="text_17">
      <!-- 300000 -->
      <g style="fill: #b0b0b0" transform="translate(7.2 62.149534)scale(0.14 -0.14)">
       <defs>
        <path id="DejaVuSans-33" d="M 2597 2516 
Q 3050 2419 3304 2112 
Q 3559 1806 3559 1356 
Q 3559 666 3084 287 
Q 2609 -91 1734 -91 
Q 1441 -91 1130 -33 
Q 819 25 488 141 
L 488 750 
Q 750 597 1062 519 
Q 1375 441 1716 441 
Q 2309 441 2620 675 
Q 2931 909 2931 1356 
Q 2931 1769 2642 2001 
Q 2353 2234 1838 2234 
L 1294 2234 
L 1294 2753 
L 1863 2753 
Q 2328 2753 2575 2939 
Q 2822 3125 2822 3475 
Q 2822 3834 2567 4026 
Q 2313 4219 1838 4219 
Q 1578 4219 1281 4162 
Q 984 4106 628 3988 
L 628 4550 
Q 988 4650 1302 4700 
Q 1616 4750 1894 4750 
Q 2613 4750 3031 4423 
Q 3450 4097 3450 3541 
Q 3450 3153 3228 2886 
Q 3006 2619 2597 2516 
z
" transform="scale(0.015625)"/>
       </defs>
       <use xlink:href="#DejaVuSans-33"/>
       <use xlink:href="#DejaVuSans-30" x="63.623047"/>
       <use xlink:href="#DejaVuSans-30" x="127.246094"/>
       <use xlink:href="#DejaVuSans-30" x="190.869141"/>
       <use xlink:href="#DejaVuSans-30" x="254.492188"/>
       <use xlink:href="#DejaVuSans-30" x="318.115234"/>
      </g>
     </g>
    </g>
    <g id="ytick_8">
     <g id="line2d_25">
      <path d="M 67.645 19.802399 
L 625.645 19.802399 
" clip-path="url(#pcfacee33e2)" style="fill: none; stroke: #b0b0b0; stroke-width: 0.3; stroke-linecap: square"/>
     </g>
     <g id="line2d_26">
      <g>
       <use xlink:href="#me26fe00e03" x="67.645" y="19.802399" style="fill: #b0b0b0; stroke: #b0b0b0; stroke-width: 0.3"/>
      </g>
     </g>
     <g id="text_18">
      <!-- 350000 -->
      <g style="fill: #b0b0b0" transform="translate(7.2 25.121305)scale(0.14 -0.14)">
       <use xlink:href="#DejaVuSans-33"/>
       <use xlink:href="#DejaVuSans-35" x="63.623047"/>
       <use xlink:href="#DejaVuSans-30" x="127.246094"/>
       <use xlink:href="#DejaVuSans-30" x="190.869141"/>
       <use xlink:href="#DejaVuSans-30" x="254.492188"/>
       <use xlink:href="#DejaVuSans-30" x="318.115234"/>
      </g>
     </g>
    </g>
   </g>
   <g id="line2d_27">
    <path d="M 67.645 278.999577 
L 92.924558 278.898225 
L 95.390856 278.73255 
L 97.857155 278.380042 
L 98.473729 278.298474 
L 101.556602 277.237456 
L 102.789751 276.529053 
L 104.022901 276.002724 
L 104.639475 275.623026 
L 105.25605 275.409637 
L 109.572072 274.85633 
L 113.271519 275.627257 
L 113.888094 275.956809 
L 115.737818 276.423258 
L 116.970967 276.851834 
L 121.286989 277.248776 
L 122.520138 277.48946 
L 129.302459 278.262398 
L 131.152182 278.288846 
L 136.701354 278.502552 
L 141.017376 278.598826 
L 142.867099 278.65659 
L 146.566547 278.677643 
L 150.265994 278.736465 
L 153.348867 278.760057 
L 156.43174 278.67066 
L 159.514613 278.543495 
L 163.830635 278.666852 
L 177.395276 278.646645 
L 182.944448 278.510804 
L 194.659365 278.086461 
L 196.509088 277.988495 
L 206.374282 278.088153 
L 208.224006 277.996747 
L 210.690304 277.922055 
L 218.705773 277.596842 
L 221.172072 277.49475 
L 224.871519 276.856066 
L 226.104669 276.500383 
L 227.337818 276.228702 
L 229.187541 275.413869 
L 230.420691 274.86236 
L 231.65384 274.37528 
L 232.270414 274.114707 
L 233.503564 273.20942 
L 234.736713 271.88984 
L 235.969862 270.948159 
L 236.586436 270.168556 
L 237.203011 269.588059 
L 237.819586 268.80105 
L 238.43616 268.341371 
L 239.669309 267.662909 
L 240.285884 267.245759 
L 241.519033 266.667484 
L 242.135608 266.368613 
L 242.752182 265.909463 
L 243.985331 265.580864 
L 244.601906 265.58298 
L 245.835055 265.249832 
L 246.45163 265.034433 
L 247.068204 265.133669 
L 247.684779 265.03528 
L 248.301354 265.303893 
L 249.534503 265.49845 
L 251.384227 265.355415 
L 252.000801 265.483004 
L 254.467099 265.492949 
L 256.933398 265.803562 
L 257.549972 265.798273 
L 258.166547 265.942471 
L 259.399696 265.897932 
L 260.016271 265.726226 
L 260.632845 265.392338 
L 261.865994 265.22169 
L 262.482569 264.846647 
L 263.099144 264.673884 
L 264.332293 263.452376 
L 264.948867 263.194977 
L 265.565442 262.768623 
L 266.182017 262.728633 
L 266.798591 261.997272 
L 269.26489 260.666478 
L 269.881464 260.636749 
L 270.498039 260.097618 
L 271.114613 260.413733 
L 271.731188 259.855983 
L 272.347762 260.728156 
L 272.964337 262.510272 
L 273.580912 263.464119 
L 274.814061 264.765714 
L 275.430635 265.007032 
L 276.04721 264.969264 
L 277.896934 265.795945 
L 279.746657 266.149935 
L 280.363232 266.801738 
L 280.979807 265.857518 
L 281.596381 264.587555 
L 282.212956 263.886029 
L 282.82953 263.605673 
L 283.446105 263.509928 
L 284.679254 263.812925 
L 285.295829 264.815967 
L 285.912403 265.452429 
L 286.528978 265.776585 
L 287.145552 266.343222 
L 287.762127 266.494827 
L 288.995276 267.382658 
L 289.611851 267.85937 
L 290.845 268.270489 
L 291.461575 268.314076 
L 292.078149 268.838502 
L 293.927873 269.839428 
L 294.544448 270.272764 
L 296.394171 270.535559 
L 297.62732 271.258667 
L 298.86047 271.570762 
L 299.477044 271.84329 
L 300.093619 271.956808 
L 303.793066 273.65196 
L 307.492514 273.664126 
L 308.109088 273.498875 
L 309.958812 273.454335 
L 311.191961 273.184981 
L 313.041685 273.060672 
L 314.891409 272.942711 
L 316.124558 272.90272 
L 318.590856 272.804543 
L 321.673729 271.524953 
L 322.290304 271.395037 
L 324.140028 270.116505 
L 325.373177 269.449785 
L 326.606326 269.120763 
L 327.222901 268.869182 
L 328.45605 267.891214 
L 329.689199 267.057338 
L 331.538923 266.479169 
L 332.155497 266.305348 
L 332.772072 266.272022 
L 333.388646 266.5199 
L 334.005221 267.046759 
L 334.621796 267.192227 
L 335.23837 267.474065 
L 335.854945 268.254196 
L 336.471519 268.666056 
L 337.088094 268.287733 
L 338.321243 267.057656 
L 339.554392 266.140096 
L 340.170967 264.868864 
L 340.787541 263.9147 
L 342.637265 263.766164 
L 343.870414 264.0845 
L 344.486989 263.746909 
L 345.103564 263.737176 
L 345.720138 263.556055 
L 347.569862 263.593506 
L 348.186436 263.448885 
L 348.803011 263.729558 
L 349.419586 264.23547 
L 350.03616 264.575495 
L 350.652735 265.047023 
L 351.885884 265.60033 
L 353.735608 266.702925 
L 354.352182 267.321191 
L 356.201906 268.286252 
L 356.818481 268.435317 
L 357.435055 268.765927 
L 358.05163 269.245601 
L 359.284779 270.826177 
L 359.901354 271.265861 
L 361.134503 271.628314 
L 362.984227 272.850987 
L 364.217376 273.125842 
L 365.450525 273.657779 
L 366.067099 274.547937 
L 366.683674 275.18112 
L 367.916823 275.503266 
L 368.533398 275.806051 
L 369.766547 275.893861 
L 370.383122 275.651484 
L 370.999696 275.828479 
L 372.232845 276.605755 
L 373.465994 276.846227 
L 374.082569 276.907693 
L 375.315718 277.237351 
L 379.015166 277.763998 
L 380.248315 278.104763 
L 382.098039 278.279642 
L 392.579807 278.525404 
L 399.362127 278.075564 
L 407.994171 277.38631 
L 409.843895 277.235975 
L 412.310193 276.901028 
L 413.543343 276.674733 
L 416.009641 275.80002 
L 417.24279 275.548757 
L 419.709088 274.253827 
L 420.942238 273.845036 
L 421.558812 273.650902 
L 424.02511 272.336612 
L 425.25826 272.097832 
L 425.874834 272.097515 
L 427.724558 271.538812 
L 428.341133 271.482529 
L 428.957707 271.267025 
L 430.807431 271.140071 
L 431.424006 270.958527 
L 432.04058 271.094156 
L 432.657155 271.05406 
L 433.273729 271.38287 
L 433.890304 271.302254 
L 435.123453 271.462111 
L 436.973177 272.177919 
L 437.589751 272.178765 
L 441.289199 273.305587 
L 441.905773 273.259355 
L 443.138923 273.38705 
L 445.605221 272.913406 
L 446.221796 273.083735 
L 449.921243 273.019941 
L 450.537818 272.86675 
L 452.387541 272.808457 
L 453.620691 272.61517 
L 454.85384 272.280329 
L 456.086989 271.989922 
L 456.703564 271.449098 
L 457.320138 271.058186 
L 457.936713 270.206113 
L 459.786436 268.961647 
L 460.403011 268.569994 
L 461.019586 267.914383 
L 461.63616 266.649076 
L 463.485884 265.099286 
L 464.102459 264.772908 
L 464.719033 264.736938 
L 465.335608 265.034645 
L 465.952182 264.409185 
L 467.185331 261.773727 
L 468.418481 260.450127 
L 469.035055 259.284373 
L 470.268204 255.526007 
L 472.117928 252.081959 
L 472.734503 251.225655 
L 473.351077 250.144854 
L 474.584227 247.148212 
L 475.200801 246.69012 
L 475.817376 244.696626 
L 476.43395 243.720244 
L 477.050525 242.975871 
L 478.900249 238.963492 
L 479.516823 236.483236 
L 480.133398 236.144586 
L 480.749972 235.967485 
L 481.366547 236.102797 
L 482.599696 236.025673 
L 484.44942 236.811623 
L 485.682569 237.221473 
L 486.299144 238.247049 
L 486.915718 237.991554 
L 487.532293 238.266409 
L 488.765442 240.792475 
L 489.382017 241.7879 
L 490.615166 242.986451 
L 491.23174 244.922498 
L 491.848315 246.396645 
L 493.081464 248.639921 
L 493.698039 248.988832 
L 494.314613 249.587314 
L 494.931188 250.369668 
L 495.547762 250.966563 
L 496.164337 252.209653 
L 496.780912 253.853389 
L 498.014061 258.069 
L 499.24721 258.547828 
L 499.863785 259.141973 
L 500.480359 259.370172 
L 501.096934 258.755609 
L 501.713508 258.313598 
L 502.330083 258.058103 
L 502.946657 257.570389 
L 503.563232 256.567347 
L 505.412956 250.692131 
L 506.02953 247.571497 
L 506.646105 245.028504 
L 507.26268 244.315764 
L 507.879254 242.715192 
L 508.495829 240.438697 
L 509.112403 238.632037 
L 509.728978 234.835268 
L 510.345552 232.493708 
L 510.962127 230.806068 
L 511.578702 229.865551 
L 512.811851 223.453531 
L 514.661575 206.791357 
L 515.894724 200.212604 
L 517.127873 189.185915 
L 517.744448 181.822588 
L 518.977597 170.852393 
L 519.594171 167.305089 
L 520.210746 165.726099 
L 520.82732 161.953663 
L 521.443895 157.246 
L 522.06047 153.75646 
L 522.677044 147.547355 
L 523.293619 144.516436 
L 524.526768 141.220712 
L 525.143343 140.48459 
L 525.759917 137.760159 
L 526.376492 136.517915 
L 528.226215 139.131579 
L 528.84279 141.120735 
L 529.459365 142.216136 
L 530.692514 145.021183 
L 531.925663 149.338463 
L 532.542238 150.092569 
L 533.158812 150.367425 
L 533.775387 153.891983 
L 534.391961 155.047264 
L 535.008536 157.089529 
L 535.62511 158.073951 
L 536.241685 159.478062 
L 537.474834 161.767147 
L 538.091409 162.168215 
L 538.707983 164.564048 
L 539.324558 165.161683 
L 539.941133 164.436988 
L 540.557707 162.704384 
L 541.174282 161.754769 
L 541.790856 160.053692 
L 543.024006 153.268428 
L 543.64058 147.758733 
L 544.257155 144.030202 
L 544.873729 139.282548 
L 545.490304 136.138534 
L 546.106878 134.662695 
L 548.573177 117.099042 
L 549.189751 114.649572 
L 549.806326 116.216924 
L 550.422901 116.223695 
L 552.272624 109.052173 
L 552.889199 109.194679 
L 553.505773 110.063573 
L 554.122348 112.239563 
L 554.738923 114.864653 
L 555.355497 113.248953 
L 555.972072 114.862855 
L 556.588646 92.741133 
L 557.205221 124.115045 
L 557.821796 129.99407 
L 558.43837 129.575334 
L 559.671519 142.742149 
L 560.288094 127.059424 
L 560.904669 164.322941 
L 561.521243 148.376364 
L 562.137818 163.291863 
L 562.754392 172.220216 
L 563.370967 151.014467 
L 563.987541 155.430982 
L 564.604116 182.022117 
L 565.220691 183.968638 
L 565.837265 195.934786 
L 566.45384 197.594391 
L 567.070414 198.68482 
L 567.686989 217.511981 
L 568.303564 211.171479 
L 568.920138 208.954334 
L 569.536713 208.440806 
L 570.153287 198.124636 
L 571.386436 198.230748 
L 572.003011 186.136799 
L 572.619586 207.145876 
L 573.23616 198.106756 
L 573.852735 204.465878 
L 574.469309 209.520866 
L 575.085884 212.426101 
L 575.702459 214.124322 
L 576.319033 216.586805 
L 576.935608 205.305784 
L 577.552182 223.883164 
L 578.785331 227.224486 
L 579.401906 227.566203 
L 580.018481 227.638356 
L 580.635055 228.268259 
L 581.25163 229.286112 
L 581.868204 230.04847 
L 582.484779 231.749018 
L 583.101354 232.848545 
L 583.717928 233.095787 
L 584.334503 233.206343 
L 585.567652 238.102004 
L 586.184227 241.301455 
L 587.417376 245.488078 
L 588.03395 245.734368 
L 588.650525 245.846511 
L 590.500249 252.589775 
L 591.116823 257.568273 
L 591.733398 257.822075 
L 593.583122 258.260912 
L 594.199696 257.645609 
L 594.816271 256.714931 
L 595.432845 252.39416 
L 596.04942 252.276622 
L 596.665994 252.563643 
L 597.282569 252.286355 
L 597.899144 258.648757 
L 600.365442 246.136706 
L 600.982017 246.136706 
L 601.598591 245.924905 
L 602.215166 234.91271 
L 602.83174 234.099252 
L 603.448315 232.881976 
L 604.06489 238.146332 
L 604.681464 236.567131 
L 605.298039 236.566919 
L 605.914613 236.401562 
L 606.531188 234.575859 
L 607.764337 228.534333 
L 608.380912 220.06312 
L 608.997486 219.103349 
L 609.614061 219.103455 
L 610.230635 219.753247 
L 610.84721 217.718599 
L 612.080359 214.753273 
L 612.696934 214.233925 
L 613.313508 213.246541 
L 613.930083 213.246541 
L 614.546657 213.080866 
L 615.163232 212.534964 
L 615.779807 212.875836 
L 616.396381 212.58691 
L 617.012956 212.096762 
L 617.62953 212.387698 
L 618.246105 212.387803 
L 618.86268 212.268255 
L 619.479254 211.5023 
L 620.095829 211.832063 
L 620.712403 210.060315 
L 621.328978 210.910695 
L 621.945552 208.040795 
L 622.562127 208.040795 
L 623.178702 208.410549 
L 623.795276 207.779799 
L 624.411851 206.363416 
L 625.028425 208.005883 
L 625.645 208.204248 
L 625.645 208.204248 
" clip-path="url(#pcfacee33e2)" style="fill: none; stroke: #d8b009; stroke-width: 1.5; stroke-linecap: square"/>
   </g>
   <g id="line2d_28">
    <path d="M 67.645 278.999577 
L 92.307983 278.894734 
L 95.390856 278.675739 
L 97.857155 278.372424 
L 100.323453 277.945542 
L 101.556602 277.578433 
L 102.789751 277.285381 
L 105.25605 276.510116 
L 105.872624 276.405379 
L 106.489199 275.835779 
L 107.105773 275.636356 
L 107.722348 275.828797 
L 108.338923 275.677298 
L 108.955497 277.975588 
L 110.188646 278.339945 
L 110.805221 279 
L 112.654945 279 
L 113.271519 277.871274 
L 113.888094 272.592318 
L 114.504669 272.541325 
L 115.121243 270.326296 
L 115.737818 270.394851 
L 116.354392 269.464491 
L 116.970967 269.430107 
L 117.587541 269.180537 
L 118.204116 274.433573 
L 118.820691 274.506995 
L 119.437265 276.070856 
L 120.05384 276.219815 
L 120.670414 277.731307 
L 121.286989 277.633976 
L 121.903564 277.858896 
L 122.520138 277.907667 
L 123.753287 277.727287 
L 124.369862 278.071544 
L 124.986436 277.761882 
L 125.603011 278.003623 
L 126.83616 278.126134 
L 128.069309 278.669814 
L 128.685884 278.078314 
L 130.535608 278.15618 
L 132.385331 278.232669 
L 133.001906 278.615118 
L 141.63395 278.800788 
L 142.250525 278.475363 
L 142.867099 278.492502 
L 144.100249 278.289481 
L 145.333398 278.376233 
L 145.949972 278.73583 
L 147.183122 278.629612 
L 147.799696 278.758893 
L 149.64942 278.634478 
L 150.265994 278.227062 
L 150.882569 278.649819 
L 153.965442 278.632257 
L 157.66489 278.61607 
L 160.747762 278.638499 
L 161.364337 278.717845 
L 163.830635 278.585284 
L 165.063785 278.671401 
L 167.530083 278.604115 
L 173.695829 278.599249 
L 175.545552 278.492502 
L 183.561022 278.137031 
L 189.110193 277.642016 
L 190.343343 277.473167 
L 191.576492 276.822105 
L 192.193066 277.25851 
L 193.426215 277.058134 
L 194.659365 276.616969 
L 195.275939 276.589039 
L 197.125663 276.109788 
L 197.742238 276.48007 
L 198.358812 275.800232 
L 199.591961 275.307545 
L 200.82511 275.118807 
L 201.441685 274.958951 
L 202.05826 274.239545 
L 202.674834 274.673728 
L 203.291409 274.543071 
L 203.907983 274.211509 
L 208.224006 272.943557 
L 208.84058 273.014546 
L 210.073729 272.682138 
L 210.690304 272.505672 
L 211.306878 272.455208 
L 211.923453 272.063343 
L 212.540028 271.828161 
L 213.156602 271.384774 
L 213.773177 271.4674 
L 215.006326 270.914833 
L 215.622901 270.314976 
L 216.239475 270.011239 
L 217.472624 269.93094 
L 218.705773 270.282074 
L 219.322348 270.162102 
L 220.555497 270.855271 
L 221.788646 270.414846 
L 222.405221 270.273081 
L 223.021796 269.923429 
L 224.254945 268.975083 
L 225.488094 266.990582 
L 227.954392 265.573882 
L 228.570967 264.266785 
L 229.804116 263.201959 
L 230.420691 261.73744 
L 231.037265 261.200213 
L 231.65384 260.486097 
L 232.270414 260.015839 
L 232.886989 258.84617 
L 233.503564 257.02491 
L 234.120138 255.636246 
L 234.736713 258.09291 
L 235.353287 251.880631 
L 235.969862 250.390827 
L 236.586436 249.318066 
L 237.819586 248.001131 
L 238.43616 249.07643 
L 239.669309 241.391063 
L 240.285884 237.355726 
L 240.902459 246.207695 
L 242.135608 243.81017 
L 242.752182 238.356018 
L 243.368757 239.161858 
L 243.985331 248.119198 
L 244.601906 253.407675 
L 245.218481 244.676736 
L 245.835055 247.349328 
L 246.45163 251.24438 
L 247.068204 257.031152 
L 248.301354 259.437352 
L 248.917928 257.005126 
L 249.534503 257.805148 
L 250.151077 259.050248 
L 250.767652 259.142396 
L 252.000801 262.141576 
L 252.617376 262.669282 
L 253.23395 266.444257 
L 253.850525 267.723212 
L 254.467099 268.547143 
L 255.083674 269.656932 
L 255.700249 270.206325 
L 256.316823 270.562536 
L 257.549972 270.798776 
L 258.166547 271.06612 
L 261.24942 271.148852 
L 261.865994 270.556294 
L 263.099144 270.394216 
L 264.332293 270.072282 
L 265.565442 270.033667 
L 266.182017 270.279006 
L 266.798591 269.95686 
L 267.415166 269.478032 
L 269.881464 268.424315 
L 270.498039 268.409927 
L 271.114613 268.69917 
L 272.347762 267.883808 
L 272.964337 269.400379 
L 274.197486 270.124545 
L 274.814061 270.163372 
L 275.430635 268.943768 
L 276.663785 269.220951 
L 277.280359 269.181489 
L 277.896934 268.798088 
L 278.513508 268.694621 
L 279.130083 267.706602 
L 279.746657 267.847098 
L 280.363232 267.660369 
L 280.979807 267.60726 
L 281.596381 265.839321 
L 282.212956 265.474011 
L 283.446105 265.6162 
L 284.679254 265.79457 
L 286.528978 265.436242 
L 287.145552 265.438147 
L 287.762127 264.986826 
L 288.378702 264.687849 
L 289.611851 264.330051 
L 290.845 263.856301 
L 291.461575 263.803086 
L 292.078149 264.002086 
L 294.544448 263.879999 
L 296.394171 263.649154 
L 297.010746 263.706813 
L 297.62732 266.223463 
L 298.243895 263.856618 
L 298.86047 264.222351 
L 300.093619 264.187016 
L 300.710193 264.643733 
L 301.326768 264.74921 
L 301.943343 262.521592 
L 302.559917 265.155674 
L 303.176492 265.087648 
L 303.793066 265.409265 
L 305.64279 265.3807 
L 306.259365 265.228144 
L 306.875939 264.866537 
L 307.492514 264.74593 
L 308.109088 264.177706 
L 309.342238 264.088309 
L 309.958812 263.402017 
L 310.575387 263.095635 
L 311.808536 262.796447 
L 312.42511 263.017982 
L 313.041685 263.009941 
L 313.65826 262.726517 
L 314.274834 263.225446 
L 314.891409 263.238987 
L 316.124558 263.495752 
L 317.357707 263.209576 
L 317.974282 263.176992 
L 319.207431 262.578615 
L 319.824006 262.412729 
L 320.44058 261.738709 
L 321.057155 261.25036 
L 321.673729 261.152817 
L 322.290304 260.428439 
L 324.140028 257.690043 
L 325.373177 256.653993 
L 325.989751 255.666397 
L 326.606326 257.288339 
L 327.222901 254.445524 
L 327.839475 253.325473 
L 329.689199 251.155618 
L 330.305773 251.864762 
L 330.922348 250.169186 
L 331.538923 250.840032 
L 332.772072 249.801549 
L 333.388646 254.293496 
L 334.005221 249.690676 
L 334.621796 249.5122 
L 335.23837 251.910254 
L 335.854945 258.059373 
L 336.471519 253.155037 
L 337.088094 258.076512 
L 337.704669 257.945538 
L 338.321243 254.002878 
L 338.937818 254.240176 
L 339.554392 250.952704 
L 340.170967 246.447955 
L 340.787541 252.688587 
L 342.020691 245.203066 
L 342.637265 254.568457 
L 343.25384 254.763332 
L 343.870414 254.240176 
L 344.486989 255.148214 
L 345.720138 256.074025 
L 346.336713 256.415849 
L 346.953287 256.931387 
L 347.569862 257.010839 
L 348.186436 258.465625 
L 348.803011 258.823424 
L 350.652735 261.136736 
L 351.269309 262.679649 
L 351.885884 262.91134 
L 353.119033 264.126395 
L 354.968757 265.701576 
L 356.201906 265.834984 
L 357.435055 266.796871 
L 358.05163 267.035121 
L 358.668204 268.314817 
L 359.284779 268.853736 
L 359.901354 268.335553 
L 360.517928 268.330051 
L 361.751077 268.859978 
L 362.367652 279 
L 366.067099 279 
L 366.683674 271.895341 
L 369.149972 272.485359 
L 369.766547 271.776745 
L 370.383122 272.972545 
L 370.999696 272.800522 
L 372.84942 274.14105 
L 373.465994 274.055991 
L 374.082569 274.461397 
L 374.699144 274.015471 
L 375.315718 275.187256 
L 376.548867 275.796741 
L 377.165442 276.03023 
L 377.782017 276.080589 
L 379.63174 276.897008 
L 386.414061 277.643815 
L 387.030635 277.518765 
L 387.64721 277.61927 
L 391.346657 277.229839 
L 392.579807 276.755349 
L 394.42953 276.195482 
L 395.046105 276.146182 
L 395.66268 275.789653 
L 396.279254 276.068211 
L 398.745552 273.159485 
L 399.362127 272.850034 
L 399.978702 271.658889 
L 400.595276 269.529978 
L 401.211851 268.36179 
L 401.828425 267.465284 
L 402.445 265.906289 
L 403.061575 265.619585 
L 403.678149 265.490409 
L 404.294724 264.547671 
L 404.911298 263.875873 
L 405.527873 263.523682 
L 406.144448 263.005181 
L 406.761022 263.203969 
L 407.994171 262.394638 
L 408.610746 262.694038 
L 411.693619 261.953473 
L 412.310193 262.098835 
L 413.543343 261.236924 
L 414.776492 260.735667 
L 415.393066 260.886954 
L 416.009641 260.801366 
L 416.626215 260.147659 
L 419.092514 261.799859 
L 419.709088 261.981191 
L 420.325663 262.401091 
L 420.942238 262.981482 
L 421.558812 262.897799 
L 422.791961 264.170194 
L 423.408536 266.549628 
L 424.02511 265.182969 
L 424.641685 265.571237 
L 425.25826 265.594829 
L 425.874834 268.33386 
L 426.491409 267.336954 
L 427.107983 267.921895 
L 427.724558 266.359621 
L 428.341133 268.718319 
L 428.957707 269.058979 
L 429.574282 269.549655 
L 430.190856 268.01383 
L 430.807431 270.891241 
L 431.424006 270.471658 
L 432.04058 271.022533 
L 433.273729 271.659207 
L 434.506878 271.745641 
L 435.123453 272.332591 
L 435.740028 272.727841 
L 437.589751 273.370334 
L 438.206326 273.451902 
L 438.822901 274.052817 
L 439.439475 273.339548 
L 440.05605 274.088258 
L 440.672624 274.202623 
L 441.289199 274.477901 
L 447.454945 275.496072 
L 448.071519 275.127376 
L 451.770967 275.205876 
L 452.387541 276.064508 
L 453.004116 275.594144 
L 453.620691 275.446665 
L 456.086989 275.462535 
L 456.703564 274.988679 
L 457.320138 275.345208 
L 457.936713 275.317172 
L 459.169862 275.042423 
L 460.403011 274.943187 
L 461.019586 274.838027 
L 462.252735 274.853367 
L 464.102459 274.548255 
L 464.719033 275.041577 
L 466.568757 274.077996 
L 467.801906 273.604564 
L 468.418481 273.566689 
L 469.035055 272.46018 
L 469.65163 272.286888 
L 470.268204 271.943478 
L 470.884779 272.493188 
L 472.117928 271.545371 
L 472.734503 271.432594 
L 474.584227 268.947259 
L 475.200801 267.108226 
L 476.43395 265.492102 
L 477.050525 265.277127 
L 478.283674 262.855586 
L 480.749972 257.297755 
L 481.366547 256.958365 
L 483.832845 250.093331 
L 484.44942 248.572529 
L 485.065994 247.4547 
L 485.682569 247.128005 
L 486.915718 244.724556 
L 487.532293 243.831541 
L 488.148867 243.271462 
L 489.382017 242.832413 
L 489.998591 242.783113 
L 491.848315 241.435603 
L 492.46489 241.119593 
L 493.698039 240.141836 
L 494.314613 239.821172 
L 494.931188 238.819717 
L 495.547762 236.852143 
L 496.780912 229.794668 
L 497.397486 224.920166 
L 498.014061 227.118162 
L 498.630635 225.494315 
L 499.863785 201.074516 
L 500.480359 188.918043 
L 501.713508 162.195405 
L 502.330083 158.943797 
L 502.946657 155.028538 
L 503.563232 145.277842 
L 504.179807 132.14869 
L 504.796381 126.186933 
L 506.02953 107.081531 
L 506.646105 81.937777 
L 507.26268 79.139289 
L 507.879254 68.89379 
L 508.495829 65.764693 
L 509.112403 60.952081 
L 509.728978 60.795928 
L 510.345552 58.580476 
L 510.962127 60.481399 
L 511.578702 59.55855 
L 512.195276 49.354311 
L 512.811851 41.453439 
L 513.428425 28.871564 
L 514.661575 14.438067 
L 515.278149 11.950404 
L 515.894724 11.228565 
L 516.511298 7.2 
L 517.127873 8.13565 
L 517.744448 11.702844 
L 518.361022 16.691076 
L 519.594171 28.233621 
L 520.210746 30.458488 
L 520.82732 39.833401 
L 523.910193 98.195074 
L 524.526768 102.384447 
L 525.143343 121.009117 
L 525.759917 154.229469 
L 526.376492 148.101297 
L 527.609641 169.65363 
L 528.226215 176.940151 
L 528.84279 178.657732 
L 529.459365 203.702039 
L 530.075939 178.219635 
L 530.692514 203.68617 
L 531.925663 213.260717 
L 532.542238 216.175474 
L 533.158812 217.458449 
L 533.775387 207.349425 
L 534.391961 225.267914 
L 536.241685 233.191743 
L 536.85826 234.928262 
L 537.474834 235.428354 
L 538.707983 238.844684 
L 539.324558 239.607995 
L 540.557707 239.641849 
L 541.174282 239.353241 
L 541.790856 239.294207 
L 543.64058 235.268392 
L 544.257155 233.786205 
L 545.490304 230.553747 
L 546.106878 229.887344 
L 546.723453 227.381062 
L 547.340028 223.293886 
L 549.189751 214.871551 
L 549.806326 212.517931 
L 550.422901 212.31618 
L 551.039475 205.566146 
L 552.889199 191.891621 
L 553.505773 187.510335 
L 554.122348 184.453814 
L 554.738923 183.895851 
L 555.355497 180.036028 
L 555.972072 178.452384 
L 556.588646 175.366451 
L 557.205221 174.791562 
L 558.43837 176.411388 
L 559.054945 176.166896 
L 559.671519 177.004474 
L 560.288094 178.92095 
L 560.904669 180.048935 
L 561.521243 180.053802 
L 562.137818 179.031082 
L 562.754392 178.461059 
L 563.370967 179.15719 
L 563.987541 181.166236 
L 564.604116 181.639033 
L 565.837265 186.408692 
L 566.45384 189.603488 
L 567.070414 191.825605 
L 567.686989 192.431598 
L 568.303564 209.916539 
L 568.920138 208.934762 
L 571.386436 222.597015 
L 572.003011 223.205124 
L 572.619586 215.587042 
L 573.23616 224.895516 
L 573.852735 229.548801 
L 575.085884 236.597917 
L 575.702459 238.949527 
L 576.319033 239.510135 
L 576.935608 242.724714 
L 577.552182 244.810673 
L 578.785331 247.816307 
L 579.401906 249.035488 
L 580.018481 249.818582 
L 580.635055 249.966589 
L 581.25163 251.093517 
L 584.334503 255.018086 
L 584.951077 255.167574 
L 585.567652 256.514767 
L 586.184227 253.987008 
L 588.03395 256.601624 
L 588.650525 257.223593 
L 589.267099 260.988412 
L 589.883674 262.19934 
L 590.500249 266.679756 
L 591.116823 267.378849 
L 591.733398 269.444813 
L 592.349972 269.331083 
L 592.966547 269.386625 
L 593.583122 265.755849 
L 594.816271 264.991481 
L 595.432845 264.553278 
L 596.04942 262.405006 
L 596.665994 262.236792 
L 597.282569 261.802821 
L 597.899144 261.638627 
L 598.515718 264.125972 
L 599.132293 261.196616 
L 599.748867 259.633496 
L 601.598591 267.128432 
L 602.215166 267.783515 
L 602.83174 250.333486 
L 603.448315 250.532486 
L 604.06489 249.164558 
L 604.681464 243.818634 
L 605.914613 243.808689 
L 606.531188 233.02427 
L 607.147762 241.602653 
L 608.997486 232.983433 
L 610.230635 232.983433 
L 611.463785 220.793317 
L 613.313508 205.347362 
L 614.546657 205.347362 
L 615.163232 197.042036 
L 615.779807 190.736129 
L 617.012956 184.614516 
L 617.62953 182.907832 
L 618.86268 182.907832 
L 619.479254 182.05248 
L 620.712403 187.441039 
L 621.945552 219.422744 
L 623.178702 219.422744 
L 623.795276 208.170182 
L 624.411851 213.227815 
L 625.028425 217.203695 
L 625.645 208.648164 
L 625.645 208.648164 
" clip-path="url(#pcfacee33e2)" style="fill: none; stroke: #0309a6; stroke-width: 1.5; stroke-linecap: square"/>
   </g>
   <g id="line2d_29">
    <path d="M 67.645 279 
L 86.758812 278.90817 
L 89.841685 278.721125 
L 92.307983 278.398979 
L 96.007431 277.384088 
L 99.090304 276.257584 
L 100.323453 275.570022 
L 102.173177 275.014705 
L 103.406326 274.815387 
L 105.25605 274.921499 
L 107.722348 275.333888 
L 109.572072 275.692956 
L 110.805221 275.847946 
L 112.654945 276.06419 
L 115.121243 276.153905 
L 116.354392 276.321801 
L 117.587541 276.497527 
L 119.437265 276.728688 
L 120.05384 276.654315 
L 121.903564 276.944828 
L 131.768757 278.166759 
L 133.001906 278.190986 
L 139.167652 278.516835 
L 153.965442 278.794864 
L 156.43174 278.828189 
L 160.747762 278.803116 
L 176.778702 278.830517 
L 190.343343 278.677008 
L 197.742238 278.231717 
L 200.208536 278.061282 
L 214.389751 277.846095 
L 220.555497 277.553466 
L 223.63837 276.981538 
L 224.871519 276.475521 
L 227.954392 274.888914 
L 229.804116 273.388425 
L 231.037265 272.228172 
L 231.65384 271.702054 
L 234.120138 268.211773 
L 237.203011 263.038823 
L 238.43616 260.494243 
L 239.052735 259.581022 
L 240.902459 257.776371 
L 242.752182 255.401381 
L 243.985331 254.795705 
L 244.601906 254.071115 
L 245.835055 253.448195 
L 246.45163 253.12023 
L 247.068204 253.391065 
L 248.301354 253.026496 
L 248.917928 253.333196 
L 249.534503 253.193652 
L 250.151077 253.384189 
L 252.000801 254.631299 
L 252.617376 255.099442 
L 253.850525 256.939428 
L 254.467099 257.698506 
L 256.316823 260.347294 
L 256.933398 261.040357 
L 257.549972 261.450841 
L 260.016271 263.611174 
L 261.24942 264.082596 
L 261.865994 264.559731 
L 263.099144 266.059375 
L 263.715718 266.628975 
L 266.182017 267.025917 
L 266.798591 266.516726 
L 267.415166 266.386069 
L 269.26489 267.418311 
L 270.498039 267.701735 
L 271.114613 268.088945 
L 271.731188 268.109469 
L 272.347762 267.724799 
L 273.580912 269.001215 
L 274.814061 269.466077 
L 275.430635 269.223384 
L 276.04721 268.648071 
L 276.663785 268.312384 
L 277.280359 268.162155 
L 277.896934 267.600595 
L 278.513508 267.366048 
L 279.746657 266.489114 
L 280.979807 267.519768 
L 281.596381 266.657433 
L 282.212956 266.194052 
L 282.82953 266.010815 
L 283.446105 266.13068 
L 284.06268 266.612365 
L 285.295829 266.882988 
L 285.912403 267.270832 
L 286.528978 267.914172 
L 287.762127 268.70245 
L 288.995276 269.273002 
L 290.845 269.950724 
L 292.078149 269.969556 
L 292.694724 269.79785 
L 293.927873 269.772989 
L 296.394171 270.044247 
L 297.010746 270.256789 
L 297.62732 270.331268 
L 300.710193 270.038005 
L 301.326768 270.062867 
L 301.943343 269.906184 
L 305.64279 270.177654 
L 306.259365 270.323863 
L 308.109088 269.757014 
L 309.342238 269.206457 
L 309.958812 268.74773 
L 311.191961 267.569809 
L 314.274834 265.488928 
L 315.507983 264.801684 
L 316.124558 264.301169 
L 316.741133 263.953738 
L 317.357707 263.871641 
L 317.974282 263.590015 
L 318.590856 263.438199 
L 320.44058 262.593744 
L 323.523453 262.316773 
L 324.756602 262.655422 
L 325.373177 262.788618 
L 325.989751 261.810121 
L 328.45605 262.474725 
L 329.689199 262.529738 
L 330.305773 263.757065 
L 330.922348 264.041019 
L 331.538923 263.761614 
L 332.772072 264.148401 
L 334.005221 264.589989 
L 334.621796 264.824853 
L 335.23837 265.702105 
L 335.854945 266.781319 
L 336.471519 267.307649 
L 338.321243 268.256524 
L 338.937818 268.351739 
L 339.554392 267.751247 
L 340.170967 267.489511 
L 340.787541 267.515536 
L 342.637265 268.386969 
L 343.870414 268.628922 
L 344.486989 268.87479 
L 350.652735 269.891056 
L 351.269309 270.315505 
L 351.885884 270.579358 
L 352.502459 270.715304 
L 354.968757 271.879577 
L 356.201906 272.062074 
L 357.435055 272.580575 
L 359.284779 273.662328 
L 361.134503 274.366711 
L 364.217376 275.502314 
L 366.067099 275.899997 
L 368.533398 276.479965 
L 370.383122 276.738845 
L 371.616271 277.094422 
L 374.082569 277.382607 
L 380.86489 278.088788 
L 386.414061 278.471448 
L 389.496934 278.447539 
L 392.579807 278.331693 
L 396.895829 277.813616 
L 399.978702 276.948636 
L 403.678149 275.720145 
L 405.527873 275.348699 
L 407.377597 274.986881 
L 408.610746 274.945092 
L 410.46047 274.739849 
L 414.159917 274.425321 
L 415.393066 274.310745 
L 420.942238 274.298367 
L 422.175387 274.172471 
L 425.874834 274.225051 
L 428.341133 274.574175 
L 431.424006 275.011531 
L 433.273729 275.300034 
L 435.740028 275.591922 
L 437.589751 275.858102 
L 439.439475 276.057525 
L 441.905773 276.439445 
L 444.988646 276.665952 
L 448.688094 276.892671 
L 454.237265 277.156417 
L 456.703564 277.011055 
L 463.485884 275.743632 
L 464.102459 275.713692 
L 464.719033 275.842973 
L 465.952182 275.670316 
L 468.418481 274.999788 
L 470.268204 274.056097 
L 472.117928 273.497182 
L 473.351077 273.247929 
L 478.900249 271.123144 
L 479.516823 270.792323 
L 480.133398 270.651721 
L 480.749972 270.311062 
L 481.366547 270.145069 
L 483.832845 268.90473 
L 484.44942 268.507152 
L 486.299144 267.809963 
L 486.915718 267.506015 
L 487.532293 267.960298 
L 488.765442 267.126317 
L 491.23174 265.266547 
L 491.848315 263.829006 
L 493.081464 262.22653 
L 493.698039 261.687928 
L 494.314613 261.31754 
L 494.931188 260.247106 
L 495.547762 258.857384 
L 496.164337 256.902188 
L 496.780912 254.577344 
L 497.397486 251.749445 
L 498.014061 251.68819 
L 498.630635 250.144219 
L 499.24721 245.117161 
L 499.863785 238.590671 
L 501.096934 219.962298 
L 501.713508 210.814315 
L 502.946657 203.039445 
L 504.796381 173.835916 
L 505.412956 177.64009 
L 506.02953 171.686057 
L 506.646105 161.687906 
L 507.879254 151.2086 
L 508.495829 150.455658 
L 509.112403 154.142929 
L 509.728978 144.34928 
L 510.345552 144.83583 
L 510.962127 144.642966 
L 511.578702 148.241899 
L 512.195276 147.437434 
L 512.811851 146.933744 
L 513.428425 145.422146 
L 515.278149 150.272632 
L 515.894724 150.877885 
L 516.511298 152.660107 
L 517.127873 155.836706 
L 518.977597 168.953797 
L 519.594171 173.013889 
L 520.210746 175.133491 
L 520.82732 183.382428 
L 522.06047 193.401315 
L 523.293619 202.677627 
L 523.910193 205.340168 
L 524.526768 207.035955 
L 525.143343 210.302585 
L 526.993066 221.711194 
L 528.226215 227.801703 
L 528.84279 229.158629 
L 529.459365 232.481225 
L 530.692514 236.706675 
L 531.925663 239.385826 
L 532.542238 240.458904 
L 533.158812 240.912976 
L 536.85826 247.834609 
L 537.474834 248.491173 
L 538.707983 251.053209 
L 539.941133 251.965267 
L 540.557707 251.753254 
L 541.790856 250.865105 
L 543.024006 248.168816 
L 543.64058 246.839185 
L 544.873729 243.77494 
L 545.490304 242.279106 
L 546.106878 241.534732 
L 548.573177 230.762586 
L 549.189751 228.535814 
L 549.806326 227.315364 
L 550.422901 226.91895 
L 551.039475 225.809161 
L 551.65605 225.363659 
L 552.272624 225.334036 
L 553.505773 225.686545 
L 554.738923 225.986685 
L 555.355497 225.627829 
L 556.588646 227.239191 
L 557.205221 227.171165 
L 557.821796 227.510132 
L 558.43837 228.102901 
L 559.054945 228.12734 
L 559.671519 229.331498 
L 560.288094 229.492941 
L 560.904669 229.941617 
L 561.521243 230.935984 
L 562.137818 231.675596 
L 562.754392 231.790807 
L 563.370967 232.068413 
L 563.987541 232.582365 
L 564.604116 233.354562 
L 565.837265 234.397383 
L 566.45384 234.385534 
L 567.070414 234.561894 
L 567.686989 235.632221 
L 568.303564 241.633968 
L 568.920138 237.629206 
L 570.153287 235.319491 
L 570.769862 234.632353 
L 571.386436 234.146225 
L 572.003011 233.438034 
L 572.619586 233.156831 
L 573.23616 234.427323 
L 573.852735 235.057966 
L 575.085884 238.375696 
L 575.702459 239.989809 
L 576.319033 240.647219 
L 576.935608 237.216818 
L 577.552182 241.531982 
L 578.168757 243.787424 
L 579.401906 246.777718 
L 580.018481 247.874388 
L 580.635055 248.048633 
L 581.868204 249.230362 
L 582.484779 250.207061 
L 583.717928 251.242159 
L 584.951077 251.997958 
L 588.650525 258.932922 
L 589.267099 259.330182 
L 589.883674 260.831095 
L 590.500249 261.548596 
L 591.116823 262.591205 
L 592.966547 264.04853 
L 593.583122 264.278634 
L 594.816271 265.479407 
L 595.432845 265.812555 
L 596.04942 267.095636 
L 596.665994 266.652673 
L 597.899144 266.530374 
L 599.132293 265.687929 
L 599.748867 265.072625 
L 600.365442 263.769232 
L 600.982017 263.806366 
L 601.598591 263.405614 
L 602.215166 263.188523 
L 604.06489 259.515852 
L 605.914613 255.11309 
L 606.531188 254.453247 
L 607.764337 249.64127 
L 609.614061 243.028451 
L 610.230635 241.434121 
L 610.84721 240.575701 
L 611.463785 238.364904 
L 612.080359 234.071534 
L 613.313508 228.010331 
L 613.930083 224.934872 
L 614.546657 222.438957 
L 615.163232 221.183595 
L 615.779807 216.015089 
L 616.396381 214.474503 
L 617.012956 211.919343 
L 618.246105 208.965443 
L 618.86268 208.05074 
L 619.479254 203.091496 
L 620.095829 201.923203 
L 620.712403 201.756682 
L 621.328978 201.730656 
L 621.945552 202.146113 
L 622.562127 202.941373 
L 623.178702 204.270898 
L 623.795276 209.741555 
L 625.028425 214.792734 
L 625.645 217.659459 
L 625.645 217.659459 
" clip-path="url(#pcfacee33e2)" style="fill: none; stroke: #1007e1; stroke-width: 1.5; stroke-linecap: square"/>
   </g>
   <g id="line2d_30">
    <path d="M 67.645 279 
L 187.877044 278.892936 
L 200.208536 278.844481 
L 232.270414 278.593853 
L 237.819586 278.138935 
L 239.669309 277.880266 
L 243.985331 277.295961 
L 250.767652 277.081197 
L 258.783122 277.706022 
L 274.814061 278.519056 
L 287.145552 278.603692 
L 290.228425 278.653416 
L 295.777597 278.462244 
L 300.710193 278.222301 
L 303.793066 278.134386 
L 305.026215 278.170779 
L 306.259365 278.239652 
L 308.725663 278.169721 
L 310.575387 277.898675 
L 315.507983 277.574307 
L 316.741133 277.516755 
L 318.590856 277.432965 
L 321.673729 277.307281 
L 322.290304 277.484276 
L 324.140028 277.300827 
L 325.989751 277.2492 
L 326.606326 277.036658 
L 330.305773 277.209421 
L 334.621796 276.723081 
L 337.088094 276.806448 
L 340.170967 276.972017 
L 341.404116 276.876801 
L 343.870414 276.934248 
L 345.103564 277.054537 
L 350.03616 277.317966 
L 351.269309 277.593668 
L 351.885884 277.504906 
L 352.502459 277.707926 
L 353.119033 277.779761 
L 355.585331 277.351503 
L 356.201906 277.377529 
L 356.818481 277.186675 
L 357.435055 277.145732 
L 358.668204 277.332143 
L 362.367652 277.545214 
L 370.383122 277.894654 
L 374.082569 278.220186 
L 379.015166 278.54286 
L 385.797486 278.728848 
L 388.880359 278.590574 
L 391.963232 278.10032 
L 394.42953 277.641064 
L 398.128978 277.052421 
L 407.994171 276.980798 
L 411.077044 276.985876 
L 413.543343 276.779787 
L 415.393066 276.577825 
L 417.859365 276.639186 
L 419.709088 276.6723 
L 425.25826 276.688804 
L 428.957707 277.028406 
L 433.890304 277.407892 
L 440.672624 277.334682 
L 443.755497 277.453913 
L 455.470414 277.10881 
L 461.019586 276.461027 
L 462.252735 276.49795 
L 464.719033 275.838847 
L 465.335608 275.574148 
L 466.568757 274.822475 
L 469.65163 273.953052 
L 472.117928 274.030812 
L 474.584227 274.128249 
L 475.200801 274.031023 
L 477.050525 273.987118 
L 478.900249 274.016529 
L 480.133398 274.14708 
L 481.983122 274.308206 
L 483.216271 274.43717 
L 485.065994 274.586764 
L 485.682569 274.771905 
L 489.382017 275.121981 
L 492.46489 275.614456 
L 494.314613 275.71475 
L 495.547762 275.562617 
L 496.780912 275.049511 
L 498.014061 274.683672 
L 498.630635 274.09175 
L 499.24721 272.484724 
L 499.863785 270.031022 
L 501.713508 261.011792 
L 502.330083 259.573298 
L 503.563232 253.710989 
L 504.179807 252.170827 
L 504.796381 252.368557 
L 505.412956 253.556211 
L 506.02953 252.745716 
L 506.646105 252.644259 
L 507.26268 253.5414 
L 509.112403 258.809142 
L 509.728978 259.820753 
L 510.345552 261.960244 
L 511.578702 263.731357 
L 512.195276 264.698534 
L 512.811851 265.137054 
L 513.428425 265.30019 
L 515.894724 264.963233 
L 516.511298 265.578113 
L 517.127873 265.804515 
L 518.361022 265.518974 
L 518.977597 265.386625 
L 519.594171 265.491996 
L 520.210746 265.422383 
L 520.82732 264.669441 
L 521.443895 264.577928 
L 522.06047 264.794808 
L 523.293619 265.565206 
L 524.526768 265.672694 
L 525.143343 265.81118 
L 526.376492 265.56965 
L 526.993066 265.674916 
L 528.84279 265.483956 
L 529.459365 265.666875 
L 530.692514 265.641485 
L 531.309088 265.540027 
L 532.542238 265.7933 
L 534.391961 266.552485 
L 535.62511 267.227245 
L 536.241685 267.589275 
L 537.474834 267.92856 
L 538.707983 268.330369 
L 539.941133 268.319155 
L 541.174282 268.09561 
L 541.790856 268.90219 
L 542.407431 268.494986 
L 543.64058 267.028879 
L 544.873729 265.842389 
L 545.490304 265.54902 
L 546.106878 264.063342 
L 546.723453 263.474804 
L 547.340028 263.436824 
L 548.573177 262.933875 
L 551.039475 262.710224 
L 551.65605 262.772855 
L 552.272624 263.000208 
L 552.889199 263.781715 
L 553.505773 264.114652 
L 554.122348 264.012348 
L 554.738923 263.593295 
L 555.355497 263.343301 
L 556.588646 263.519132 
L 557.205221 263.004123 
L 557.821796 263.081882 
L 558.43837 263.406884 
L 559.671519 265.489034 
L 560.904669 267.64979 
L 561.521243 268.320424 
L 562.137818 268.670076 
L 562.754392 268.852255 
L 563.370967 270.068685 
L 563.987541 270.399295 
L 565.220691 270.690654 
L 565.837265 271.382553 
L 566.45384 271.858736 
L 567.686989 272.495621 
L 568.303564 273.037291 
L 569.536713 273.698404 
L 570.153287 273.82631 
L 570.769862 274.232774 
L 571.386436 274.832949 
L 572.003011 274.352111 
L 572.619586 274.911343 
L 573.23616 274.475256 
L 574.469309 274.340473 
L 575.085884 274.094818 
L 575.702459 273.597476 
L 576.319033 274.205585 
L 576.935608 274.275727 
L 578.168757 274.895791 
L 579.401906 275.332936 
L 580.018481 275.492263 
L 580.635055 275.475971 
L 581.25163 275.244174 
L 581.868204 275.588431 
L 584.951077 275.715808 
L 586.800801 275.838107 
L 591.116823 276.295352 
L 599.748867 276.169985 
L 601.598591 275.842127 
L 602.215166 276.10672 
L 602.83174 275.844031 
L 603.448315 275.337062 
L 605.914613 274.279112 
L 607.147762 273.296172 
L 607.764337 273.164986 
L 608.380912 272.81417 
L 610.230635 271.407944 
L 610.84721 271.106428 
L 611.463785 270.2862 
L 612.696934 269.16361 
L 613.930083 268.353855 
L 615.163232 267.9293 
L 615.779807 267.342985 
L 617.62953 266.383848 
L 618.86268 265.955167 
L 619.479254 266.945407 
L 620.095829 269.682851 
L 622.562127 277.592293 
L 623.178702 279 
L 623.795276 279 
L 624.411851 240.106712 
L 625.645 240.106712 
L 625.645 240.106712 
" clip-path="url(#pcfacee33e2)" style="fill: none; stroke: #6b7186; stroke-width: 1.5; stroke-linecap: square"/>
   </g>
   <g id="line2d_31">
    <path d="M 67.645 279 
L 93.541133 278.926049 
L 99.090304 278.499061 
L 100.940028 278.225158 
L 106.489199 276.498055 
L 108.338923 275.885185 
L 110.805221 275.465285 
L 112.654945 275.511412 
L 116.354392 275.772091 
L 120.05384 275.395037 
L 126.219586 275.690629 
L 127.452735 275.883387 
L 129.302459 276.289745 
L 130.535608 276.581633 
L 131.768757 276.629241 
L 133.001906 276.717051 
L 134.235055 276.89521 
L 135.468204 276.956465 
L 136.701354 277.098865 
L 147.183122 278.070274 
L 152.115718 278.24801 
L 155.815166 278.279325 
L 163.214061 278.633315 
L 164.44721 278.721125 
L 167.530083 278.658177 
L 169.379807 278.567193 
L 176.778702 278.511545 
L 189.726768 278.266524 
L 191.576492 278.177973 
L 197.125663 278.191832 
L 203.907983 277.772779 
L 208.84058 276.732497 
L 210.073729 276.700335 
L 211.306878 276.509481 
L 213.773177 276.08408 
L 215.006326 275.660371 
L 216.239475 275.048559 
L 217.472624 274.686317 
L 218.089199 274.720595 
L 218.705773 274.48573 
L 219.938923 274.35666 
L 220.555497 274.344917 
L 221.172072 273.621914 
L 221.788646 271.79547 
L 223.021796 270.108782 
L 223.63837 269.362187 
L 224.254945 268.238539 
L 224.871519 267.508131 
L 225.488094 267.265543 
L 226.104669 268.331744 
L 226.721243 268.185112 
L 227.337818 267.899783 
L 227.954392 267.308813 
L 229.804116 266.862252 
L 231.65384 265.480253 
L 232.270414 264.745719 
L 232.886989 264.50694 
L 233.503564 263.988756 
L 234.120138 263.263638 
L 235.353287 262.745877 
L 235.969862 262.583693 
L 236.586436 262.794331 
L 237.203011 262.601255 
L 237.819586 262.192675 
L 238.43616 262.311272 
L 239.052735 261.944798 
L 240.285884 262.451344 
L 242.135608 262.401091 
L 242.752182 262.07556 
L 243.368757 262.358244 
L 243.985331 262.104125 
L 244.601906 262.063394 
L 245.218481 262.296249 
L 245.835055 261.30696 
L 246.45163 260.882617 
L 247.068204 260.682135 
L 247.684779 260.217272 
L 248.917928 260.254301 
L 249.534503 260.610724 
L 250.151077 261.730563 
L 252.000801 263.881057 
L 252.617376 264.506728 
L 253.23395 265.432434 
L 253.850525 265.57896 
L 256.316823 267.83874 
L 256.933398 268.166492 
L 257.549972 267.937446 
L 258.783122 268.432355 
L 259.399696 268.263401 
L 260.016271 268.295139 
L 260.632845 267.750295 
L 261.24942 267.497339 
L 261.865994 267.61054 
L 262.482569 267.566635 
L 264.332293 265.719455 
L 264.948867 265.5943 
L 266.182017 264.347189 
L 266.798591 263.433227 
L 267.415166 261.907981 
L 268.648315 260.577504 
L 269.26489 258.717735 
L 269.881464 257.334572 
L 270.498039 255.386781 
L 271.114613 253.89539 
L 272.347762 253.060456 
L 272.964337 252.25377 
L 273.580912 252.642037 
L 274.197486 251.795572 
L 274.814061 250.073442 
L 275.430635 248.922499 
L 276.04721 247.142922 
L 277.280359 242.524444 
L 277.896934 240.125015 
L 278.513508 238.276566 
L 279.130083 237.45073 
L 279.746657 236.14776 
L 280.363232 236.487256 
L 280.979807 234.930801 
L 281.596381 234.698263 
L 282.212956 234.70842 
L 282.82953 236.043658 
L 284.06268 239.252207 
L 284.679254 239.675069 
L 285.295829 240.977405 
L 286.528978 244.678535 
L 287.145552 245.597681 
L 287.762127 246.889755 
L 288.378702 247.80742 
L 288.995276 248.952121 
L 289.611851 250.598185 
L 290.845 252.330048 
L 292.078149 255.358322 
L 292.694724 256.800625 
L 293.311298 257.770976 
L 294.544448 260.039325 
L 295.161022 260.982487 
L 296.394171 261.706019 
L 297.010746 262.351897 
L 297.62732 263.206403 
L 298.243895 264.262659 
L 301.326768 266.955564 
L 301.943343 267.715806 
L 303.176492 268.667431 
L 304.409641 269.648045 
L 305.026215 269.838899 
L 305.64279 269.873071 
L 306.259365 270.026473 
L 307.492514 270.661137 
L 308.109088 270.783436 
L 308.725663 270.690865 
L 310.575387 271.431536 
L 312.42511 272.520272 
L 313.041685 273.069559 
L 313.65826 273.293527 
L 315.507983 274.29477 
L 316.741133 274.520431 
L 318.590856 274.687798 
L 321.673729 274.678171 
L 325.373177 274.928482 
L 328.45605 274.772752 
L 329.689199 275.104842 
L 330.922348 275.313258 
L 332.155497 275.654341 
L 332.772072 275.951836 
L 333.388646 276.003147 
L 336.471519 276.840937 
L 337.088094 277.709513 
L 338.321243 277.856145 
L 339.554392 277.755111 
L 340.787541 277.821127 
L 341.404116 277.01772 
L 343.870414 277.111984 
L 349.419586 277.305588 
L 354.352182 277.465444 
L 360.517928 277.346848 
L 361.134503 277.860165 
L 362.984227 277.818271 
L 364.83395 277.711735 
L 365.450525 277.206035 
L 370.383122 276.415535 
L 372.232845 275.746382 
L 374.082569 274.975666 
L 375.315718 274.434843 
L 379.015166 273.274166 
L 379.63174 272.896055 
L 382.098039 271.896399 
L 382.714613 271.484539 
L 383.947762 270.104233 
L 384.564337 269.570814 
L 385.180912 268.735246 
L 385.797486 268.144804 
L 386.414061 266.854212 
L 387.64721 264.901661 
L 388.880359 262.527093 
L 389.496934 261.83329 
L 390.113508 260.84781 
L 390.730083 260.37406 
L 391.963232 258.821308 
L 392.579807 258.34851 
L 393.812956 256.620773 
L 395.66268 254.201455 
L 396.279254 253.136417 
L 397.512403 249.670681 
L 398.128978 247.303096 
L 398.745552 245.532406 
L 399.362127 244.948629 
L 399.978702 243.866664 
L 400.595276 243.658672 
L 401.211851 244.563747 
L 401.828425 246.243983 
L 403.061575 250.664201 
L 403.678149 252.284345 
L 404.294724 254.744923 
L 404.911298 256.695359 
L 405.527873 257.659997 
L 406.761022 259.009411 
L 407.377597 259.522623 
L 408.610746 259.947707 
L 409.22732 259.58684 
L 409.843895 259.678035 
L 411.693619 258.84617 
L 412.926768 258.379191 
L 413.543343 258.352531 
L 414.159917 258.051861 
L 415.393066 257.863123 
L 416.009641 257.942681 
L 417.859365 256.778937 
L 419.709088 255.633918 
L 420.325663 255.046439 
L 422.175387 254.061065 
L 423.408536 253.806945 
L 424.641685 253.67978 
L 425.25826 254.256997 
L 425.874834 254.120204 
L 427.107983 254.13893 
L 428.957707 252.799249 
L 429.574282 251.259297 
L 430.190856 250.680387 
L 430.807431 250.360146 
L 431.424006 250.404897 
L 432.04058 250.969948 
L 433.273729 252.634949 
L 435.740028 256.96704 
L 436.356602 257.438568 
L 437.589751 257.310133 
L 438.822901 256.254829 
L 439.439475 255.842017 
L 440.05605 254.863625 
L 440.672624 254.529419 
L 441.289199 254.477156 
L 441.905773 254.077463 
L 442.522348 253.900256 
L 443.138923 253.517067 
L 443.755497 253.36578 
L 444.988646 253.473903 
L 445.605221 253.523309 
L 446.83837 254.20812 
L 447.454945 254.378661 
L 448.688094 253.562559 
L 449.304669 253.518654 
L 449.921243 252.462292 
L 451.154392 251.495326 
L 451.770967 251.001898 
L 452.387541 250.711174 
L 453.004116 250.197328 
L 453.620691 249.215022 
L 454.237265 248.853097 
L 455.470414 246.69742 
L 456.703564 245.334146 
L 457.320138 244.597284 
L 457.936713 244.110204 
L 458.553287 243.876503 
L 459.169862 244.507253 
L 459.786436 245.841221 
L 460.403011 245.822919 
L 461.019586 246.321001 
L 461.63616 247.616883 
L 462.252735 248.224993 
L 462.869309 248.65579 
L 463.485884 248.769731 
L 464.102459 248.392255 
L 464.719033 249.453378 
L 465.952182 249.992403 
L 468.418481 253.730561 
L 469.035055 253.809379 
L 469.65163 254.019805 
L 473.351077 250.009013 
L 473.967652 250.156703 
L 475.200801 249.069765 
L 476.43395 248.465676 
L 478.283674 246.816227 
L 478.900249 246.914511 
L 479.516823 246.372206 
L 480.133398 246.402252 
L 481.983122 247.271357 
L 482.599696 246.753808 
L 483.216271 246.084655 
L 484.44942 245.760394 
L 485.065994 245.033794 
L 485.682569 244.098567 
L 486.299144 243.573507 
L 486.915718 243.251467 
L 487.532293 243.569804 
L 488.148867 242.787027 
L 488.765442 241.647404 
L 489.382017 241.147523 
L 489.998591 240.843151 
L 490.615166 239.342238 
L 491.23174 236.481543 
L 493.081464 224.985442 
L 496.164337 207.552975 
L 497.397486 201.007124 
L 498.014061 197.084354 
L 498.630635 195.411842 
L 499.24721 190.250741 
L 500.480359 174.972894 
L 501.096934 167.661194 
L 501.713508 163.288795 
L 502.330083 161.561376 
L 503.563232 143.993809 
L 504.179807 142.716017 
L 504.796381 143.587133 
L 505.412956 144.722101 
L 506.02953 147.011186 
L 506.646105 146.315584 
L 507.26268 151.019545 
L 507.879254 162.283849 
L 508.495829 168.964271 
L 510.345552 191.815766 
L 510.962127 199.379046 
L 511.578702 205.103399 
L 512.811851 210.030798 
L 513.428425 209.855707 
L 514.661575 210.685563 
L 515.894724 209.625815 
L 516.511298 209.542766 
L 517.127873 210.155742 
L 517.744448 211.315995 
L 518.361022 212.072746 
L 518.977597 212.577917 
L 519.594171 213.883955 
L 520.210746 134.254432 
L 520.82732 132.370013 
L 521.443895 133.940856 
L 522.06047 134.09775 
L 522.677044 134.808692 
L 523.293619 136.101294 
L 523.910193 137.073973 
L 524.526768 220.040692 
L 525.143343 224.945557 
L 525.759917 227.020936 
L 526.376492 219.745418 
L 526.993066 222.259106 
L 528.226215 225.13292 
L 529.459365 229.641054 
L 530.075939 231.090339 
L 530.692514 242.887003 
L 531.309088 244.072012 
L 531.925663 244.784541 
L 532.542238 245.862909 
L 533.158812 246.180082 
L 533.775387 246.677953 
L 535.62511 251.262154 
L 536.241685 255.411537 
L 536.85826 258.692238 
L 537.474834 254.059584 
L 538.091409 247.919774 
L 538.707983 247.424019 
L 539.324558 246.690437 
L 539.941133 245.326635 
L 541.174282 245.326635 
L 541.790856 240.631667 
L 542.407431 244.495404 
L 543.024006 242.02488 
L 543.64058 237.914641 
L 544.257155 234.935138 
L 545.490304 234.935138 
L 546.106878 230.199651 
L 546.723453 224.112951 
L 547.340028 221.437608 
L 547.956602 220.754173 
L 548.573177 218.634148 
L 549.806326 218.634148 
L 550.422901 212.842722 
L 551.039475 215.488865 
L 552.272624 213.424171 
L 552.889199 214.997024 
L 554.122348 214.996918 
L 554.738923 216.162038 
L 555.972072 219.160266 
L 556.588646 221.967747 
L 557.205221 222.861714 
L 558.43837 222.86182 
L 559.054945 230.477786 
L 559.671519 233.696068 
L 560.288094 237.654174 
L 561.521243 243.385721 
L 562.754392 243.385721 
L 563.370967 248.893194 
L 564.604116 251.699722 
L 565.220691 253.316692 
L 565.837265 257.758386 
L 567.070414 257.758386 
L 567.686989 267.422966 
L 568.303564 259.187993 
L 569.536713 261.500142 
L 570.153287 258.968257 
L 571.386436 258.968257 
L 572.003011 254.190664 
L 572.619586 264.716943 
L 573.23616 265.674704 
L 573.852735 266.413999 
L 574.469309 267.612127 
L 575.702459 267.606097 
L 576.319033 272.37237 
L 576.935608 270.401939 
L 577.552182 270.41601 
L 578.785331 270.734241 
L 580.018481 270.735934 
L 580.635055 267.96982 
L 581.25163 270.587292 
L 581.868204 271.493426 
L 582.484779 271.158373 
L 583.101354 271.686713 
L 584.334503 271.686078 
L 585.567652 272.163637 
L 586.184227 272.266998 
L 586.800801 272.484407 
L 588.650525 272.488427 
L 589.267099 272.266046 
L 590.500249 272.680128 
L 591.116823 274.542224 
L 591.733398 274.715622 
L 592.966547 274.719008 
L 593.583122 275.57838 
L 594.816271 275.744267 
L 595.432845 275.30088 
L 596.04942 275.817159 
L 597.282569 275.819487 
L 597.899144 274.159564 
L 598.515718 273.690258 
L 599.748867 271.703323 
L 600.365442 270.689596 
L 601.598591 270.689384 
L 602.215166 271.256234 
L 602.83174 271.066755 
L 603.448315 269.777644 
L 604.681464 269.208255 
L 605.914613 269.208361 
L 606.531188 268.271124 
L 607.147762 267.805414 
L 608.380912 266.510907 
L 608.997486 266.093335 
L 610.230635 266.053873 
L 610.84721 264.972014 
L 611.463785 264.444944 
L 612.080359 263.736329 
L 613.313508 262.609296 
L 614.546657 262.648652 
L 615.163232 267.655714 
L 615.779807 269.813931 
L 616.396381 258.834109 
L 617.62953 263.480623 
L 620.095829 263.548438 
L 620.712403 258.413574 
L 624.411851 258.443726 
L 625.028425 264.118461 
L 625.645 264.123433 
L 625.645 264.123433 
" clip-path="url(#pcfacee33e2)" style="fill: none; stroke: #89f9c9; stroke-width: 1.5; stroke-linecap: square"/>
   </g>
   <g id="text_19">
    <!-- Germany -->
    <g style="fill: #d8b009" transform="translate(642.385 201.367082)scale(0.14 -0.14)">
     <defs>
      <path id="DejaVuSans-47" d="M 3809 666 
L 3809 1919 
L 2778 1919 
L 2778 2438 
L 4434 2438 
L 4434 434 
Q 4069 175 3628 42 
Q 3188 -91 2688 -91 
Q 1594 -91 976 548 
Q 359 1188 359 2328 
Q 359 3472 976 4111 
Q 1594 4750 2688 4750 
Q 3144 4750 3555 4637 
Q 3966 4525 4313 4306 
L 4313 3634 
Q 3963 3931 3569 4081 
Q 3175 4231 2741 4231 
Q 1884 4231 1454 3753 
Q 1025 3275 1025 2328 
Q 1025 1384 1454 906 
Q 1884 428 2741 428 
Q 3075 428 3337 486 
Q 3600 544 3809 666 
z
" transform="scale(0.015625)"/>
      <path id="DejaVuSans-65" d="M 3597 1894 
L 3597 1613 
L 953 1613 
Q 991 1019 1311 708 
Q 1631 397 2203 397 
Q 2534 397 2845 478 
Q 3156 559 3463 722 
L 3463 178 
Q 3153 47 2828 -22 
Q 2503 -91 2169 -91 
Q 1331 -91 842 396 
Q 353 884 353 1716 
Q 353 2575 817 3079 
Q 1281 3584 2069 3584 
Q 2775 3584 3186 3129 
Q 3597 2675 3597 1894 
z
M 3022 2063 
Q 3016 2534 2758 2815 
Q 2500 3097 2075 3097 
Q 1594 3097 1305 2825 
Q 1016 2553 972 2059 
L 3022 2063 
z
" transform="scale(0.015625)"/>
      <path id="DejaVuSans-72" d="M 2631 2963 
Q 2534 3019 2420 3045 
Q 2306 3072 2169 3072 
Q 1681 3072 1420 2755 
Q 1159 2438 1159 1844 
L 1159 0 
L 581 0 
L 581 3500 
L 1159 3500 
L 1159 2956 
Q 1341 3275 1631 3429 
Q 1922 3584 2338 3584 
Q 2397 3584 2469 3576 
Q 2541 3569 2628 3553 
L 2631 2963 
z
" transform="scale(0.015625)"/>
      <path id="DejaVuSans-6d" d="M 3328 2828 
Q 3544 3216 3844 3400 
Q 4144 3584 4550 3584 
Q 5097 3584 5394 3201 
Q 5691 2819 5691 2113 
L 5691 0 
L 5113 0 
L 5113 2094 
Q 5113 2597 4934 2840 
Q 4756 3084 4391 3084 
Q 3944 3084 3684 2787 
Q 3425 2491 3425 1978 
L 3425 0 
L 2847 0 
L 2847 2094 
Q 2847 2600 2669 2842 
Q 2491 3084 2119 3084 
Q 1678 3084 1418 2786 
Q 1159 2488 1159 1978 
L 1159 0 
L 581 0 
L 581 3500 
L 1159 3500 
L 1159 2956 
Q 1356 3278 1631 3431 
Q 1906 3584 2284 3584 
Q 2666 3584 2933 3390 
Q 3200 3197 3328 2828 
z
" transform="scale(0.015625)"/>
      <path id="DejaVuSans-61" d="M 2194 1759 
Q 1497 1759 1228 1600 
Q 959 1441 959 1056 
Q 959 750 1161 570 
Q 1363 391 1709 391 
Q 2188 391 2477 730 
Q 2766 1069 2766 1631 
L 2766 1759 
L 2194 1759 
z
M 3341 1997 
L 3341 0 
L 2766 0 
L 2766 531 
Q 2569 213 2275 61 
Q 1981 -91 1556 -91 
Q 1019 -91 701 211 
Q 384 513 384 1019 
Q 384 1609 779 1909 
Q 1175 2209 1959 2209 
L 2766 2209 
L 2766 2266 
Q 2766 2663 2505 2880 
Q 2244 3097 1772 3097 
Q 1472 3097 1187 3025 
Q 903 2953 641 2809 
L 641 3341 
Q 956 3463 1253 3523 
Q 1550 3584 1831 3584 
Q 2591 3584 2966 3190 
Q 3341 2797 3341 1997 
z
" transform="scale(0.015625)"/>
      <path id="DejaVuSans-6e" d="M 3513 2113 
L 3513 0 
L 2938 0 
L 2938 2094 
Q 2938 2591 2744 2837 
Q 2550 3084 2163 3084 
Q 1697 3084 1428 2787 
Q 1159 2491 1159 1978 
L 1159 0 
L 581 0 
L 581 3500 
L 1159 3500 
L 1159 2956 
Q 1366 3272 1645 3428 
Q 1925 3584 2291 3584 
Q 2894 3584 3203 3211 
Q 3513 2838 3513 2113 
z
" transform="scale(0.015625)"/>
      <path id="DejaVuSans-79" d="M 2059 -325 
Q 1816 -950 1584 -1140 
Q 1353 -1331 966 -1331 
L 506 -1331 
L 506 -850 
L 844 -850 
Q 1081 -850 1212 -737 
Q 1344 -625 1503 -206 
L 1606 56 
L 191 3500 
L 800 3500 
L 1894 763 
L 2988 3500 
L 3597 3500 
L 2059 -325 
z
" transform="scale(0.015625)"/>
     </defs>
     <use xlink:href="#DejaVuSans-47"/>
     <use xlink:href="#DejaVuSans-65" x="77.490234"/>
     <use xlink:href="#DejaVuSans-72" x="139.013672"/>
     <use xlink:href="#DejaVuSans-6d" x="178.376953"/>
     <use xlink:href="#DejaVuSans-61" x="275.789062"/>
     <use xlink:href="#DejaVuSans-6e" x="337.068359"/>
     <use xlink:href="#DejaVuSans-79" x="400.447266"/>
    </g>
   </g>
   <g id="text_20">
    <!-- France -->
    <g style="fill: #0309a6" transform="translate(642.385 215.367082)scale(0.14 -0.14)">
     <defs>
      <path id="DejaVuSans-46" d="M 628 4666 
L 3309 4666 
L 3309 4134 
L 1259 4134 
L 1259 2759 
L 3109 2759 
L 3109 2228 
L 1259 2228 
L 1259 0 
L 628 0 
L 628 4666 
z
" transform="scale(0.015625)"/>
      <path id="DejaVuSans-63" d="M 3122 3366 
L 3122 2828 
Q 2878 2963 2633 3030 
Q 2388 3097 2138 3097 
Q 1578 3097 1268 2742 
Q 959 2388 959 1747 
Q 959 1106 1268 751 
Q 1578 397 2138 397 
Q 2388 397 2633 464 
Q 2878 531 3122 666 
L 3122 134 
Q 2881 22 2623 -34 
Q 2366 -91 2075 -91 
Q 1284 -91 818 406 
Q 353 903 353 1747 
Q 353 2603 823 3093 
Q 1294 3584 2113 3584 
Q 2378 3584 2631 3529 
Q 2884 3475 3122 3366 
z
" transform="scale(0.015625)"/>
     </defs>
     <use xlink:href="#DejaVuSans-46"/>
     <use xlink:href="#DejaVuSans-72" x="50.269531"/>
     <use xlink:href="#DejaVuSans-61" x="91.382812"/>
     <use xlink:href="#DejaVuSans-6e" x="152.662109"/>
     <use xlink:href="#DejaVuSans-63" x="216.041016"/>
     <use xlink:href="#DejaVuSans-65" x="271.021484"/>
    </g>
   </g>
   <g id="text_21">
    <!-- Italy -->
    <g style="fill: #1007e1" transform="translate(642.385 229.367082)scale(0.14 -0.14)">
     <defs>
      <path id="DejaVuSans-49" d="M 628 4666 
L 1259 4666 
L 1259 0 
L 628 0 
L 628 4666 
z
" transform="scale(0.015625)"/>
      <path id="DejaVuSans-74" d="M 1172 4494 
L 1172 3500 
L 2356 3500 
L 2356 3053 
L 1172 3053 
L 1172 1153 
Q 1172 725 1289 603 
Q 1406 481 1766 481 
L 2356 481 
L 2356 0 
L 1766 0 
Q 1100 0 847 248 
Q 594 497 594 1153 
L 594 3053 
L 172 3053 
L 172 3500 
L 594 3500 
L 594 4494 
L 1172 4494 
z
" transform="scale(0.015625)"/>
      <path id="DejaVuSans-6c" d="M 603 4863 
L 1178 4863 
L 1178 0 
L 603 0 
L 603 4863 
z
" transform="scale(0.015625)"/>
     </defs>
     <use xlink:href="#DejaVuSans-49"/>
     <use xlink:href="#DejaVuSans-74" x="29.492188"/>
     <use xlink:href="#DejaVuSans-61" x="68.701172"/>
     <use xlink:href="#DejaVuSans-6c" x="129.980469"/>
     <use xlink:href="#DejaVuSans-79" x="157.763672"/>
    </g>
   </g>
   <g id="text_22">
    <!-- Greece -->
    <g style="fill: #6b7186" transform="translate(642.385 243.969837)scale(0.14 -0.14)">
     <use xlink:href="#DejaVuSans-47"/>
     <use xlink:href="#DejaVuSans-72" x="77.490234"/>
     <use xlink:href="#DejaVuSans-65" x="116.353516"/>
     <use xlink:href="#DejaVuSans-65" x="177.876953"/>
     <use xlink:href="#DejaVuSans-63" x="239.400391"/>
     <use xlink:href="#DejaVuSans-65" x="294.380859"/>
    </g>
   </g>
   <g id="text_23">
    <!-- United Kingdom -->
    <g style="fill: #89f9c9" transform="translate(642.385 267.986558)scale(0.14 -0.14)">
     <defs>
      <path id="DejaVuSans-55" d="M 556 4666 
L 1191 4666 
L 1191 1831 
Q 1191 1081 1462 751 
Q 1734 422 2344 422 
Q 2950 422 3222 751 
Q 3494 1081 3494 1831 
L 3494 4666 
L 4128 4666 
L 4128 1753 
Q 4128 841 3676 375 
Q 3225 -91 2344 -91 
Q 1459 -91 1007 375 
Q 556 841 556 1753 
L 556 4666 
z
" transform="scale(0.015625)"/>
      <path id="DejaVuSans-69" d="M 603 3500 
L 1178 3500 
L 1178 0 
L 603 0 
L 603 3500 
z
M 603 4863 
L 1178 4863 
L 1178 4134 
L 603 4134 
L 603 4863 
z
" transform="scale(0.015625)"/>
      <path id="DejaVuSans-64" d="M 2906 2969 
L 2906 4863 
L 3481 4863 
L 3481 0 
L 2906 0 
L 2906 525 
Q 2725 213 2448 61 
Q 2172 -91 1784 -91 
Q 1150 -91 751 415 
Q 353 922 353 1747 
Q 353 2572 751 3078 
Q 1150 3584 1784 3584 
Q 2172 3584 2448 3432 
Q 2725 3281 2906 2969 
z
M 947 1747 
Q 947 1113 1208 752 
Q 1469 391 1925 391 
Q 2381 391 2643 752 
Q 2906 1113 2906 1747 
Q 2906 2381 2643 2742 
Q 2381 3103 1925 3103 
Q 1469 3103 1208 2742 
Q 947 2381 947 1747 
z
" transform="scale(0.015625)"/>
      <path id="DejaVuSans-20" transform="scale(0.015625)"/>
      <path id="DejaVuSans-4b" d="M 628 4666 
L 1259 4666 
L 1259 2694 
L 3353 4666 
L 4166 4666 
L 1850 2491 
L 4331 0 
L 3500 0 
L 1259 2247 
L 1259 0 
L 628 0 
L 628 4666 
z
" transform="scale(0.015625)"/>
      <path id="DejaVuSans-67" d="M 2906 1791 
Q 2906 2416 2648 2759 
Q 2391 3103 1925 3103 
Q 1463 3103 1205 2759 
Q 947 2416 947 1791 
Q 947 1169 1205 825 
Q 1463 481 1925 481 
Q 2391 481 2648 825 
Q 2906 1169 2906 1791 
z
M 3481 434 
Q 3481 -459 3084 -895 
Q 2688 -1331 1869 -1331 
Q 1566 -1331 1297 -1286 
Q 1028 -1241 775 -1147 
L 775 -588 
Q 1028 -725 1275 -790 
Q 1522 -856 1778 -856 
Q 2344 -856 2625 -561 
Q 2906 -266 2906 331 
L 2906 616 
Q 2728 306 2450 153 
Q 2172 0 1784 0 
Q 1141 0 747 490 
Q 353 981 353 1791 
Q 353 2603 747 3093 
Q 1141 3584 1784 3584 
Q 2172 3584 2450 3431 
Q 2728 3278 2906 2969 
L 2906 3500 
L 3481 3500 
L 3481 434 
z
" transform="scale(0.015625)"/>
      <path id="DejaVuSans-6f" d="M 1959 3097 
Q 1497 3097 1228 2736 
Q 959 2375 959 1747 
Q 959 1119 1226 758 
Q 1494 397 1959 397 
Q 2419 397 2687 759 
Q 2956 1122 2956 1747 
Q 2956 2369 2687 2733 
Q 2419 3097 1959 3097 
z
M 1959 3584 
Q 2709 3584 3137 3096 
Q 3566 2609 3566 1747 
Q 3566 888 3137 398 
Q 2709 -91 1959 -91 
Q 1206 -91 779 398 
Q 353 888 353 1747 
Q 353 2609 779 3096 
Q 1206 3584 1959 3584 
z
" transform="scale(0.015625)"/>
     </defs>
     <use xlink:href="#DejaVuSans-55"/>
     <use xlink:href="#DejaVuSans-6e" x="73.193359"/>
     <use xlink:href="#DejaVuSans-69" x="136.572266"/>
     <use xlink:href="#DejaVuSans-74" x="164.355469"/>
     <use xlink:href="#DejaVuSans-65" x="203.564453"/>
     <use xlink:href="#DejaVuSans-64" x="265.087891"/>
     <use xlink:href="#DejaVuSans-20" x="328.564453"/>
     <use xlink:href="#DejaVuSans-4b" x="360.351562"/>
     <use xlink:href="#DejaVuSans-69" x="425.927734"/>
     <use xlink:href="#DejaVuSans-6e" x="453.710938"/>
     <use xlink:href="#DejaVuSans-67" x="517.089844"/>
     <use xlink:href="#DejaVuSans-64" x="580.566406"/>
     <use xlink:href="#DejaVuSans-6f" x="644.042969"/>
     <use xlink:href="#DejaVuSans-6d" x="705.224609"/>
    </g>
   </g>
  </g>
 </g>
 <defs>
  <clipPath id="pcfacee33e2">
   <rect x="67.645" y="7.2" width="558" height="271.8"/>
  </clipPath>
 </defs>
</svg>
