<?xml version="1.0" encoding="utf-8" standalone="no"?>
<!DOCTYPE svg PUBLIC "-//W3C//DTD SVG 1.1//EN"
  "http://www.w3.org/Graphics/SVG/1.1/DTD/svg11.dtd">
<svg xmlns:xlink="http://www.w3.org/1999/xlink" width="713.9325pt" height="309.443582pt" viewBox="0 0 713.9325 309.443582" xmlns="http://www.w3.org/2000/svg" version="1.1">
 <metadata>
  <rdf:RDF xmlns:dc="http://purl.org/dc/elements/1.1/" xmlns:cc="http://creativecommons.org/ns#" xmlns:rdf="http://www.w3.org/1999/02/22-rdf-syntax-ns#">
   <cc:Work>
    <dc:type rdf:resource="http://purl.org/dc/dcmitype/StillImage"/>
    <dc:date>2022-06-29T10:15:10.118355</dc:date>
    <dc:format>image/svg+xml</dc:format>
    <dc:creator>
     <cc:Agent>
      <dc:title>Matplotlib v3.5.1, https://matplotlib.org/</dc:title>
     </cc:Agent>
    </dc:creator>
   </cc:Work>
  </rdf:RDF>
 </metadata>
 <defs>
  <style type="text/css">*{stroke-linejoin: round; stroke-linecap: butt}</style>
 </defs>
 <g id="figure_1">
  <g id="patch_1">
   <path d="M 0 309.443582 
L 713.9325 309.443582 
L 713.9325 0 
L 0 0 
L 0 309.443582 
z
" style="fill: none"/>
  </g>
  <g id="axes_1">
   <g id="patch_2">
    <path d="M 67.645 281.694207 
L 625.645 281.694207 
L 625.645 9.894207 
L 67.645 9.894207 
L 67.645 281.694207 
z
" style="fill: none"/>
   </g>
   <g id="matplotlib.axis_1">
    <g id="xtick_1">
     <g id="line2d_1">
      <defs>
       <path id="m47776de6a8" d="M 0 0 
L 0 3.5 
" style="stroke: #b0b0b0; stroke-width: 0.4"/>
      </defs>
      <g>
       <use xlink:href="#m47776de6a8" x="108.134796" y="281.694207" style="fill: #b0b0b0; stroke: #b0b0b0; stroke-width: 0.4"/>
      </g>
     </g>
     <g id="text_1">
      <!-- 2020-04 -->
      <g style="fill: #b0b0b0" transform="translate(78.886827 299.332019)scale(0.14 -0.14)">
       <defs>
        <path id="DejaVuSans-32" d="M 1228 531 
L 3431 531 
L 3431 0 
L 469 0 
L 469 531 
Q 828 903 1448 1529 
Q 2069 2156 2228 2338 
Q 2531 2678 2651 2914 
Q 2772 3150 2772 3378 
Q 2772 3750 2511 3984 
Q 2250 4219 1831 4219 
Q 1534 4219 1204 4116 
Q 875 4013 500 3803 
L 500 4441 
Q 881 4594 1212 4672 
Q 1544 4750 1819 4750 
Q 2544 4750 2975 4387 
Q 3406 4025 3406 3419 
Q 3406 3131 3298 2873 
Q 3191 2616 2906 2266 
Q 2828 2175 2409 1742 
Q 1991 1309 1228 531 
z
" transform="scale(0.015625)"/>
        <path id="DejaVuSans-30" d="M 2034 4250 
Q 1547 4250 1301 3770 
Q 1056 3291 1056 2328 
Q 1056 1369 1301 889 
Q 1547 409 2034 409 
Q 2525 409 2770 889 
Q 3016 1369 3016 2328 
Q 3016 3291 2770 3770 
Q 2525 4250 2034 4250 
z
M 2034 4750 
Q 2819 4750 3233 4129 
Q 3647 3509 3647 2328 
Q 3647 1150 3233 529 
Q 2819 -91 2034 -91 
Q 1250 -91 836 529 
Q 422 1150 422 2328 
Q 422 3509 836 4129 
Q 1250 4750 2034 4750 
z
" transform="scale(0.015625)"/>
        <path id="DejaVuSans-2d" d="M 313 2009 
L 1997 2009 
L 1997 1497 
L 313 1497 
L 313 2009 
z
" transform="scale(0.015625)"/>
        <path id="DejaVuSans-34" d="M 2419 4116 
L 825 1625 
L 2419 1625 
L 2419 4116 
z
M 2253 4666 
L 3047 4666 
L 3047 1625 
L 3713 1625 
L 3713 1100 
L 3047 1100 
L 3047 0 
L 2419 0 
L 2419 1100 
L 313 1100 
L 313 1709 
L 2253 4666 
z
" transform="scale(0.015625)"/>
       </defs>
       <use xlink:href="#DejaVuSans-32"/>
       <use xlink:href="#DejaVuSans-30" x="63.623047"/>
       <use xlink:href="#DejaVuSans-32" x="127.246094"/>
       <use xlink:href="#DejaVuSans-30" x="190.869141"/>
       <use xlink:href="#DejaVuSans-2d" x="254.492188"/>
       <use xlink:href="#DejaVuSans-30" x="290.576172"/>
       <use xlink:href="#DejaVuSans-34" x="354.199219"/>
      </g>
     </g>
    </g>
    <g id="xtick_2">
     <g id="line2d_2">
      <g>
       <use xlink:href="#m47776de6a8" x="165.706224" y="281.694207" style="fill: #b0b0b0; stroke: #b0b0b0; stroke-width: 0.4"/>
      </g>
     </g>
     <g id="text_2">
      <!-- 2020-07 -->
      <g style="fill: #b0b0b0" transform="translate(136.458256 299.332019)scale(0.14 -0.14)">
       <defs>
        <path id="DejaVuSans-37" d="M 525 4666 
L 3525 4666 
L 3525 4397 
L 1831 0 
L 1172 0 
L 2766 4134 
L 525 4134 
L 525 4666 
z
" transform="scale(0.015625)"/>
       </defs>
       <use xlink:href="#DejaVuSans-32"/>
       <use xlink:href="#DejaVuSans-30" x="63.623047"/>
       <use xlink:href="#DejaVuSans-32" x="127.246094"/>
       <use xlink:href="#DejaVuSans-30" x="190.869141"/>
       <use xlink:href="#DejaVuSans-2d" x="254.492188"/>
       <use xlink:href="#DejaVuSans-30" x="290.576172"/>
       <use xlink:href="#DejaVuSans-37" x="354.199219"/>
      </g>
     </g>
    </g>
    <g id="xtick_3">
     <g id="line2d_3">
      <g>
       <use xlink:href="#m47776de6a8" x="223.910306" y="281.694207" style="fill: #b0b0b0; stroke: #b0b0b0; stroke-width: 0.4"/>
      </g>
     </g>
     <g id="text_3">
      <!-- 2020-10 -->
      <g style="fill: #b0b0b0" transform="translate(194.662337 299.332019)scale(0.14 -0.14)">
       <defs>
        <path id="DejaVuSans-31" d="M 794 531 
L 1825 531 
L 1825 4091 
L 703 3866 
L 703 4441 
L 1819 4666 
L 2450 4666 
L 2450 531 
L 3481 531 
L 3481 0 
L 794 0 
L 794 531 
z
" transform="scale(0.015625)"/>
       </defs>
       <use xlink:href="#DejaVuSans-32"/>
       <use xlink:href="#DejaVuSans-30" x="63.623047"/>
       <use xlink:href="#DejaVuSans-32" x="127.246094"/>
       <use xlink:href="#DejaVuSans-30" x="190.869141"/>
       <use xlink:href="#DejaVuSans-2d" x="254.492188"/>
       <use xlink:href="#DejaVuSans-31" x="290.576172"/>
       <use xlink:href="#DejaVuSans-30" x="354.199219"/>
      </g>
     </g>
    </g>
    <g id="xtick_4">
     <g id="line2d_4">
      <g>
       <use xlink:href="#m47776de6a8" x="282.114388" y="281.694207" style="fill: #b0b0b0; stroke: #b0b0b0; stroke-width: 0.4"/>
      </g>
     </g>
     <g id="text_4">
      <!-- 2021-01 -->
      <g style="fill: #b0b0b0" transform="translate(252.866419 299.332019)scale(0.14 -0.14)">
       <use xlink:href="#DejaVuSans-32"/>
       <use xlink:href="#DejaVuSans-30" x="63.623047"/>
       <use xlink:href="#DejaVuSans-32" x="127.246094"/>
       <use xlink:href="#DejaVuSans-31" x="190.869141"/>
       <use xlink:href="#DejaVuSans-2d" x="254.492188"/>
       <use xlink:href="#DejaVuSans-30" x="290.576172"/>
       <use xlink:href="#DejaVuSans-31" x="354.199219"/>
      </g>
     </g>
    </g>
    <g id="xtick_5">
     <g id="line2d_5">
      <g>
       <use xlink:href="#m47776de6a8" x="339.053163" y="281.694207" style="fill: #b0b0b0; stroke: #b0b0b0; stroke-width: 0.4"/>
      </g>
     </g>
     <g id="text_5">
      <!-- 2021-04 -->
      <g style="fill: #b0b0b0" transform="translate(309.805195 299.332019)scale(0.14 -0.14)">
       <use xlink:href="#DejaVuSans-32"/>
       <use xlink:href="#DejaVuSans-30" x="63.623047"/>
       <use xlink:href="#DejaVuSans-32" x="127.246094"/>
       <use xlink:href="#DejaVuSans-31" x="190.869141"/>
       <use xlink:href="#DejaVuSans-2d" x="254.492188"/>
       <use xlink:href="#DejaVuSans-30" x="290.576172"/>
       <use xlink:href="#DejaVuSans-34" x="354.199219"/>
      </g>
     </g>
    </g>
    <g id="xtick_6">
     <g id="line2d_6">
      <g>
       <use xlink:href="#m47776de6a8" x="396.624592" y="281.694207" style="fill: #b0b0b0; stroke: #b0b0b0; stroke-width: 0.4"/>
      </g>
     </g>
     <g id="text_6">
      <!-- 2021-07 -->
      <g style="fill: #b0b0b0" transform="translate(367.376623 299.332019)scale(0.14 -0.14)">
       <use xlink:href="#DejaVuSans-32"/>
       <use xlink:href="#DejaVuSans-30" x="63.623047"/>
       <use xlink:href="#DejaVuSans-32" x="127.246094"/>
       <use xlink:href="#DejaVuSans-31" x="190.869141"/>
       <use xlink:href="#DejaVuSans-2d" x="254.492188"/>
       <use xlink:href="#DejaVuSans-30" x="290.576172"/>
       <use xlink:href="#DejaVuSans-37" x="354.199219"/>
      </g>
     </g>
    </g>
    <g id="xtick_7">
     <g id="line2d_7">
      <g>
       <use xlink:href="#m47776de6a8" x="454.828673" y="281.694207" style="fill: #b0b0b0; stroke: #b0b0b0; stroke-width: 0.4"/>
      </g>
     </g>
     <g id="text_7">
      <!-- 2021-10 -->
      <g style="fill: #b0b0b0" transform="translate(425.580705 299.332019)scale(0.14 -0.14)">
       <use xlink:href="#DejaVuSans-32"/>
       <use xlink:href="#DejaVuSans-30" x="63.623047"/>
       <use xlink:href="#DejaVuSans-32" x="127.246094"/>
       <use xlink:href="#DejaVuSans-31" x="190.869141"/>
       <use xlink:href="#DejaVuSans-2d" x="254.492188"/>
       <use xlink:href="#DejaVuSans-31" x="290.576172"/>
       <use xlink:href="#DejaVuSans-30" x="354.199219"/>
      </g>
     </g>
    </g>
    <g id="xtick_8">
     <g id="line2d_8">
      <g>
       <use xlink:href="#m47776de6a8" x="513.032755" y="281.694207" style="fill: #b0b0b0; stroke: #b0b0b0; stroke-width: 0.4"/>
      </g>
     </g>
     <g id="text_8">
      <!-- 2022-01 -->
      <g style="fill: #b0b0b0" transform="translate(483.784786 299.332019)scale(0.14 -0.14)">
       <use xlink:href="#DejaVuSans-32"/>
       <use xlink:href="#DejaVuSans-30" x="63.623047"/>
       <use xlink:href="#DejaVuSans-32" x="127.246094"/>
       <use xlink:href="#DejaVuSans-32" x="190.869141"/>
       <use xlink:href="#DejaVuSans-2d" x="254.492188"/>
       <use xlink:href="#DejaVuSans-30" x="290.576172"/>
       <use xlink:href="#DejaVuSans-31" x="354.199219"/>
      </g>
     </g>
    </g>
    <g id="xtick_9">
     <g id="line2d_9">
      <g>
       <use xlink:href="#m47776de6a8" x="569.971531" y="281.694207" style="fill: #b0b0b0; stroke: #b0b0b0; stroke-width: 0.4"/>
      </g>
     </g>
     <g id="text_9">
      <!-- 2022-04 -->
      <g style="fill: #b0b0b0" transform="translate(540.723562 299.332019)scale(0.14 -0.14)">
       <use xlink:href="#DejaVuSans-32"/>
       <use xlink:href="#DejaVuSans-30" x="63.623047"/>
       <use xlink:href="#DejaVuSans-32" x="127.246094"/>
       <use xlink:href="#DejaVuSans-32" x="190.869141"/>
       <use xlink:href="#DejaVuSans-2d" x="254.492188"/>
       <use xlink:href="#DejaVuSans-30" x="290.576172"/>
       <use xlink:href="#DejaVuSans-34" x="354.199219"/>
      </g>
     </g>
    </g>
   </g>
   <g id="matplotlib.axis_2">
    <g id="ytick_1">
     <g id="line2d_10">
      <path d="M 67.645 281.694207 
L 625.645 281.694207 
" clip-path="url(#pa6bb9b39e7)" style="fill: none; stroke: #b0b0b0; stroke-width: 0.3; stroke-linecap: square"/>
     </g>
     <g id="line2d_11">
      <defs>
       <path id="m4c95572e4d" d="M 0 0 
L -3.5 0 
" style="stroke: #b0b0b0; stroke-width: 0.3"/>
      </defs>
      <g>
       <use xlink:href="#m4c95572e4d" x="67.645" y="281.694207" style="fill: #b0b0b0; stroke: #b0b0b0; stroke-width: 0.3"/>
      </g>
     </g>
     <g id="text_10">
      <!-- 0 -->
      <g style="fill: #b0b0b0" transform="translate(51.7375 287.013113)scale(0.14 -0.14)">
       <use xlink:href="#DejaVuSans-30"/>
      </g>
     </g>
    </g>
    <g id="ytick_2">
     <g id="line2d_12">
      <path d="M 67.645 248.047294 
L 625.645 248.047294 
" clip-path="url(#pa6bb9b39e7)" style="fill: none; stroke: #b0b0b0; stroke-width: 0.3; stroke-linecap: square"/>
     </g>
     <g id="line2d_13">
      <g>
       <use xlink:href="#m4c95572e4d" x="67.645" y="248.047294" style="fill: #b0b0b0; stroke: #b0b0b0; stroke-width: 0.3"/>
      </g>
     </g>
     <g id="text_11">
      <!-- 100000 -->
      <g style="fill: #b0b0b0" transform="translate(7.2 253.3662)scale(0.14 -0.14)">
       <use xlink:href="#DejaVuSans-31"/>
       <use xlink:href="#DejaVuSans-30" x="63.623047"/>
       <use xlink:href="#DejaVuSans-30" x="127.246094"/>
       <use xlink:href="#DejaVuSans-30" x="190.869141"/>
       <use xlink:href="#DejaVuSans-30" x="254.492188"/>
       <use xlink:href="#DejaVuSans-30" x="318.115234"/>
      </g>
     </g>
    </g>
    <g id="ytick_3">
     <g id="line2d_14">
      <path d="M 67.645 214.400382 
L 625.645 214.400382 
" clip-path="url(#pa6bb9b39e7)" style="fill: none; stroke: #b0b0b0; stroke-width: 0.3; stroke-linecap: square"/>
     </g>
     <g id="line2d_15">
      <g>
       <use xlink:href="#m4c95572e4d" x="67.645" y="214.400382" style="fill: #b0b0b0; stroke: #b0b0b0; stroke-width: 0.3"/>
      </g>
     </g>
     <g id="text_12">
      <!-- 200000 -->
      <g style="fill: #b0b0b0" transform="translate(7.2 219.719288)scale(0.14 -0.14)">
       <use xlink:href="#DejaVuSans-32"/>
       <use xlink:href="#DejaVuSans-30" x="63.623047"/>
       <use xlink:href="#DejaVuSans-30" x="127.246094"/>
       <use xlink:href="#DejaVuSans-30" x="190.869141"/>
       <use xlink:href="#DejaVuSans-30" x="254.492188"/>
       <use xlink:href="#DejaVuSans-30" x="318.115234"/>
      </g>
     </g>
    </g>
    <g id="ytick_4">
     <g id="line2d_16">
      <path d="M 67.645 180.753469 
L 625.645 180.753469 
" clip-path="url(#pa6bb9b39e7)" style="fill: none; stroke: #b0b0b0; stroke-width: 0.3; stroke-linecap: square"/>
     </g>
     <g id="line2d_17">
      <g>
       <use xlink:href="#m4c95572e4d" x="67.645" y="180.753469" style="fill: #b0b0b0; stroke: #b0b0b0; stroke-width: 0.3"/>
      </g>
     </g>
     <g id="text_13">
      <!-- 300000 -->
      <g style="fill: #b0b0b0" transform="translate(7.2 186.072375)scale(0.14 -0.14)">
       <defs>
        <path id="DejaVuSans-33" d="M 2597 2516 
Q 3050 2419 3304 2112 
Q 3559 1806 3559 1356 
Q 3559 666 3084 287 
Q 2609 -91 1734 -91 
Q 1441 -91 1130 -33 
Q 819 25 488 141 
L 488 750 
Q 750 597 1062 519 
Q 1375 441 1716 441 
Q 2309 441 2620 675 
Q 2931 909 2931 1356 
Q 2931 1769 2642 2001 
Q 2353 2234 1838 2234 
L 1294 2234 
L 1294 2753 
L 1863 2753 
Q 2328 2753 2575 2939 
Q 2822 3125 2822 3475 
Q 2822 3834 2567 4026 
Q 2313 4219 1838 4219 
Q 1578 4219 1281 4162 
Q 984 4106 628 3988 
L 628 4550 
Q 988 4650 1302 4700 
Q 1616 4750 1894 4750 
Q 2613 4750 3031 4423 
Q 3450 4097 3450 3541 
Q 3450 3153 3228 2886 
Q 3006 2619 2597 2516 
z
" transform="scale(0.015625)"/>
       </defs>
       <use xlink:href="#DejaVuSans-33"/>
       <use xlink:href="#DejaVuSans-30" x="63.623047"/>
       <use xlink:href="#DejaVuSans-30" x="127.246094"/>
       <use xlink:href="#DejaVuSans-30" x="190.869141"/>
       <use xlink:href="#DejaVuSans-30" x="254.492188"/>
       <use xlink:href="#DejaVuSans-30" x="318.115234"/>
      </g>
     </g>
    </g>
    <g id="ytick_5">
     <g id="line2d_18">
      <path d="M 67.645 147.106556 
L 625.645 147.106556 
" clip-path="url(#pa6bb9b39e7)" style="fill: none; stroke: #b0b0b0; stroke-width: 0.3; stroke-linecap: square"/>
     </g>
     <g id="line2d_19">
      <g>
       <use xlink:href="#m4c95572e4d" x="67.645" y="147.106556" style="fill: #b0b0b0; stroke: #b0b0b0; stroke-width: 0.3"/>
      </g>
     </g>
     <g id="text_14">
      <!-- 400000 -->
      <g style="fill: #b0b0b0" transform="translate(7.2 152.425463)scale(0.14 -0.14)">
       <use xlink:href="#DejaVuSans-34"/>
       <use xlink:href="#DejaVuSans-30" x="63.623047"/>
       <use xlink:href="#DejaVuSans-30" x="127.246094"/>
       <use xlink:href="#DejaVuSans-30" x="190.869141"/>
       <use xlink:href="#DejaVuSans-30" x="254.492188"/>
       <use xlink:href="#DejaVuSans-30" x="318.115234"/>
      </g>
     </g>
    </g>
    <g id="ytick_6">
     <g id="line2d_20">
      <path d="M 67.645 113.459644 
L 625.645 113.459644 
" clip-path="url(#pa6bb9b39e7)" style="fill: none; stroke: #b0b0b0; stroke-width: 0.3; stroke-linecap: square"/>
     </g>
     <g id="line2d_21">
      <g>
       <use xlink:href="#m4c95572e4d" x="67.645" y="113.459644" style="fill: #b0b0b0; stroke: #b0b0b0; stroke-width: 0.3"/>
      </g>
     </g>
     <g id="text_15">
      <!-- 500000 -->
      <g style="fill: #b0b0b0" transform="translate(7.2 118.77855)scale(0.14 -0.14)">
       <defs>
        <path id="DejaVuSans-35" d="M 691 4666 
L 3169 4666 
L 3169 4134 
L 1269 4134 
L 1269 2991 
Q 1406 3038 1543 3061 
Q 1681 3084 1819 3084 
Q 2600 3084 3056 2656 
Q 3513 2228 3513 1497 
Q 3513 744 3044 326 
Q 2575 -91 1722 -91 
Q 1428 -91 1123 -41 
Q 819 9 494 109 
L 494 744 
Q 775 591 1075 516 
Q 1375 441 1709 441 
Q 2250 441 2565 725 
Q 2881 1009 2881 1497 
Q 2881 1984 2565 2268 
Q 2250 2553 1709 2553 
Q 1456 2553 1204 2497 
Q 953 2441 691 2322 
L 691 4666 
z
" transform="scale(0.015625)"/>
       </defs>
       <use xlink:href="#DejaVuSans-35"/>
       <use xlink:href="#DejaVuSans-30" x="63.623047"/>
       <use xlink:href="#DejaVuSans-30" x="127.246094"/>
       <use xlink:href="#DejaVuSans-30" x="190.869141"/>
       <use xlink:href="#DejaVuSans-30" x="254.492188"/>
       <use xlink:href="#DejaVuSans-30" x="318.115234"/>
      </g>
     </g>
    </g>
    <g id="ytick_7">
     <g id="line2d_22">
      <path d="M 67.645 79.812731 
L 625.645 79.812731 
" clip-path="url(#pa6bb9b39e7)" style="fill: none; stroke: #b0b0b0; stroke-width: 0.3; stroke-linecap: square"/>
     </g>
     <g id="line2d_23">
      <g>
       <use xlink:href="#m4c95572e4d" x="67.645" y="79.812731" style="fill: #b0b0b0; stroke: #b0b0b0; stroke-width: 0.3"/>
      </g>
     </g>
     <g id="text_16">
      <!-- 600000 -->
      <g style="fill: #b0b0b0" transform="translate(7.2 85.131638)scale(0.14 -0.14)">
       <defs>
        <path id="DejaVuSans-36" d="M 2113 2584 
Q 1688 2584 1439 2293 
Q 1191 2003 1191 1497 
Q 1191 994 1439 701 
Q 1688 409 2113 409 
Q 2538 409 2786 701 
Q 3034 994 3034 1497 
Q 3034 2003 2786 2293 
Q 2538 2584 2113 2584 
z
M 3366 4563 
L 3366 3988 
Q 3128 4100 2886 4159 
Q 2644 4219 2406 4219 
Q 1781 4219 1451 3797 
Q 1122 3375 1075 2522 
Q 1259 2794 1537 2939 
Q 1816 3084 2150 3084 
Q 2853 3084 3261 2657 
Q 3669 2231 3669 1497 
Q 3669 778 3244 343 
Q 2819 -91 2113 -91 
Q 1303 -91 875 529 
Q 447 1150 447 2328 
Q 447 3434 972 4092 
Q 1497 4750 2381 4750 
Q 2619 4750 2861 4703 
Q 3103 4656 3366 4563 
z
" transform="scale(0.015625)"/>
       </defs>
       <use xlink:href="#DejaVuSans-36"/>
       <use xlink:href="#DejaVuSans-30" x="63.623047"/>
       <use xlink:href="#DejaVuSans-30" x="127.246094"/>
       <use xlink:href="#DejaVuSans-30" x="190.869141"/>
       <use xlink:href="#DejaVuSans-30" x="254.492188"/>
       <use xlink:href="#DejaVuSans-30" x="318.115234"/>
      </g>
     </g>
    </g>
    <g id="ytick_8">
     <g id="line2d_24">
      <path d="M 67.645 46.165819 
L 625.645 46.165819 
" clip-path="url(#pa6bb9b39e7)" style="fill: none; stroke: #b0b0b0; stroke-width: 0.3; stroke-linecap: square"/>
     </g>
     <g id="line2d_25">
      <g>
       <use xlink:href="#m4c95572e4d" x="67.645" y="46.165819" style="fill: #b0b0b0; stroke: #b0b0b0; stroke-width: 0.3"/>
      </g>
     </g>
     <g id="text_17">
      <!-- 700000 -->
      <g style="fill: #b0b0b0" transform="translate(7.2 51.484725)scale(0.14 -0.14)">
       <use xlink:href="#DejaVuSans-37"/>
       <use xlink:href="#DejaVuSans-30" x="63.623047"/>
       <use xlink:href="#DejaVuSans-30" x="127.246094"/>
       <use xlink:href="#DejaVuSans-30" x="190.869141"/>
       <use xlink:href="#DejaVuSans-30" x="254.492188"/>
       <use xlink:href="#DejaVuSans-30" x="318.115234"/>
      </g>
     </g>
    </g>
    <g id="ytick_9">
     <g id="line2d_26">
      <path d="M 67.645 12.518906 
L 625.645 12.518906 
" clip-path="url(#pa6bb9b39e7)" style="fill: none; stroke: #b0b0b0; stroke-width: 0.3; stroke-linecap: square"/>
     </g>
     <g id="line2d_27">
      <g>
       <use xlink:href="#m4c95572e4d" x="67.645" y="12.518906" style="fill: #b0b0b0; stroke: #b0b0b0; stroke-width: 0.3"/>
      </g>
     </g>
     <g id="text_18">
      <!-- 800000 -->
      <g style="fill: #b0b0b0" transform="translate(7.2 17.837812)scale(0.14 -0.14)">
       <defs>
        <path id="DejaVuSans-38" d="M 2034 2216 
Q 1584 2216 1326 1975 
Q 1069 1734 1069 1313 
Q 1069 891 1326 650 
Q 1584 409 2034 409 
Q 2484 409 2743 651 
Q 3003 894 3003 1313 
Q 3003 1734 2745 1975 
Q 2488 2216 2034 2216 
z
M 1403 2484 
Q 997 2584 770 2862 
Q 544 3141 544 3541 
Q 544 4100 942 4425 
Q 1341 4750 2034 4750 
Q 2731 4750 3128 4425 
Q 3525 4100 3525 3541 
Q 3525 3141 3298 2862 
Q 3072 2584 2669 2484 
Q 3125 2378 3379 2068 
Q 3634 1759 3634 1313 
Q 3634 634 3220 271 
Q 2806 -91 2034 -91 
Q 1263 -91 848 271 
Q 434 634 434 1313 
Q 434 1759 690 2068 
Q 947 2378 1403 2484 
z
M 1172 3481 
Q 1172 3119 1398 2916 
Q 1625 2713 2034 2713 
Q 2441 2713 2670 2916 
Q 2900 3119 2900 3481 
Q 2900 3844 2670 4047 
Q 2441 4250 2034 4250 
Q 1625 4250 1398 4047 
Q 1172 3844 1172 3481 
z
" transform="scale(0.015625)"/>
       </defs>
       <use xlink:href="#DejaVuSans-38"/>
       <use xlink:href="#DejaVuSans-30" x="63.623047"/>
       <use xlink:href="#DejaVuSans-30" x="127.246094"/>
       <use xlink:href="#DejaVuSans-30" x="190.869141"/>
       <use xlink:href="#DejaVuSans-30" x="254.492188"/>
       <use xlink:href="#DejaVuSans-30" x="318.115234"/>
      </g>
     </g>
    </g>
   </g>
   <g id="line2d_28">
    <path d="M 67.645 281.693966 
L 96.114388 281.598938 
L 98.645 281.418783 
L 99.910306 281.113701 
L 101.808265 280.168944 
L 104.338878 278.185362 
L 104.971531 277.597791 
L 105.604184 276.820596 
L 106.236837 276.474129 
L 106.86949 275.945295 
L 109.400102 272.91342 
L 110.032755 272.448083 
L 110.665408 271.81778 
L 111.298061 271.354991 
L 111.930714 271.179306 
L 112.563367 271.18469 
L 113.828673 270.933972 
L 116.359286 271.52039 
L 117.624592 272.05576 
L 119.522551 272.231541 
L 120.155204 272.090176 
L 120.787857 272.198471 
L 122.053163 271.89512 
L 122.685816 271.950013 
L 123.318469 271.777693 
L 123.951122 271.751304 
L 124.583776 272.0125 
L 130.910306 272.781092 
L 131.542959 273.15164 
L 132.175612 273.262675 
L 133.440918 273.729454 
L 134.073571 273.760121 
L 134.706224 273.974836 
L 136.604184 274.195223 
L 137.236837 274.196088 
L 137.86949 274.040784 
L 138.502143 274.179121 
L 139.134796 274.043956 
L 140.400102 274.128554 
L 141.032755 274.314141 
L 141.665408 274.244684 
L 144.19602 274.866671 
L 146.09398 274.727806 
L 146.726633 274.788082 
L 147.991939 274.703628 
L 148.624592 274.383165 
L 149.257245 274.31789 
L 150.522551 274.505544 
L 151.787857 274.539623 
L 152.42051 274.416476 
L 153.053163 274.688343 
L 153.685816 274.730738 
L 154.318469 274.543853 
L 154.951122 274.492181 
L 156.849082 273.835634 
L 159.379694 272.583536 
L 160.012347 272.16045 
L 160.645 271.47886 
L 161.910306 270.504397 
L 162.542959 269.639575 
L 163.175612 269.210433 
L 163.808265 268.389016 
L 165.706224 266.684463 
L 166.338878 265.932503 
L 166.971531 265.814354 
L 167.604184 265.56479 
L 168.236837 265.045522 
L 168.86949 264.955637 
L 169.502143 264.599652 
L 170.134796 264.062119 
L 170.767449 263.835579 
L 172.032755 262.304741 
L 172.665408 261.99692 
L 173.298061 261.218282 
L 175.19602 260.001754 
L 175.828673 260.11649 
L 176.461327 259.929846 
L 177.09398 259.987526 
L 178.991939 259.730367 
L 179.624592 259.871108 
L 180.257245 259.454126 
L 180.889898 259.45999 
L 183.42051 259.979691 
L 184.053163 259.91456 
L 184.685816 260.422677 
L 185.951122 261.160602 
L 186.583776 262.027731 
L 187.216429 262.180247 
L 188.481735 263.085974 
L 189.114388 263.277713 
L 190.379694 262.628184 
L 191.012347 262.150734 
L 191.645 262.376745 
L 192.277653 262.333677 
L 192.910306 262.743352 
L 193.542959 262.284889 
L 194.175612 262.839534 
L 194.808265 263.781888 
L 196.073571 265.023027 
L 197.338878 265.786716 
L 197.971531 266.869858 
L 198.604184 267.192916 
L 201.134796 267.804184 
L 201.767449 267.545103 
L 203.665408 267.61581 
L 205.563367 267.777699 
L 206.19602 268.036156 
L 207.461327 267.921564 
L 208.09398 268.162476 
L 208.726633 268.585418 
L 209.359286 269.317671 
L 210.624592 269.895196 
L 211.257245 270.073573 
L 211.889898 269.979361 
L 212.522551 269.442356 
L 214.42051 268.332585 
L 215.685816 267.783179 
L 218.216429 267.682911 
L 219.481735 267.375619 
L 220.747041 267.629317 
L 221.379694 268.005729 
L 222.645 267.551112 
L 223.910306 267.797599 
L 225.175612 267.218824 
L 226.440918 267.268381 
L 227.073571 267.147589 
L 228.338878 266.082808 
L 228.971531 266.004171 
L 229.604184 265.711635 
L 230.236837 265.0498 
L 231.502143 264.554662 
L 232.134796 264.107398 
L 232.767449 263.835964 
L 233.400102 263.110392 
L 234.032755 263.136108 
L 234.665408 262.882795 
L 235.298061 261.64257 
L 235.930714 261.084319 
L 236.563367 260.975495 
L 237.19602 260.202386 
L 237.828673 259.650336 
L 238.461327 258.518694 
L 239.09398 258.095464 
L 239.726633 258.25495 
L 240.359286 257.510584 
L 240.991939 256.271849 
L 241.624592 255.710811 
L 242.257245 254.836472 
L 242.889898 254.405407 
L 244.155204 252.766466 
L 244.787857 250.481216 
L 245.42051 249.81866 
L 246.053163 248.05037 
L 246.685816 246.742611 
L 248.583776 241.132565 
L 249.216429 240.566047 
L 249.849082 238.286661 
L 250.481735 236.810331 
L 251.114388 234.288591 
L 251.747041 232.510784 
L 252.379694 231.547425 
L 253.012347 229.810619 
L 255.542959 224.617603 
L 256.175612 223.859634 
L 256.808265 223.529318 
L 257.440918 222.163109 
L 258.706224 221.338423 
L 259.338878 224.945901 
L 259.971531 224.322664 
L 260.604184 224.880001 
L 261.236837 225.179747 
L 261.86949 226.458233 
L 262.502143 225.326063 
L 263.134796 224.559346 
L 263.767449 219.609885 
L 264.400102 218.613167 
L 265.032755 216.027787 
L 266.298061 212.205449 
L 266.930714 210.766275 
L 268.19602 209.008464 
L 269.461327 208.71737 
L 270.726633 207.437105 
L 271.359286 207.472771 
L 271.991939 206.569255 
L 272.624592 206.410586 
L 273.257245 205.975772 
L 273.889898 206.873856 
L 274.522551 207.085351 
L 275.155204 207.708732 
L 275.787857 208.68853 
L 276.42051 209.330994 
L 277.053163 210.643079 
L 277.685816 216.448037 
L 278.318469 215.891132 
L 278.951122 218.35375 
L 279.583776 219.485968 
L 280.216429 219.483997 
L 280.849082 219.635072 
L 281.481735 214.725651 
L 282.747041 209.60363 
L 283.379694 206.362038 
L 284.012347 205.775669 
L 284.645 204.483194 
L 285.277653 202.490096 
L 285.910306 203.876493 
L 286.542959 197.860232 
L 287.175612 198.222706 
L 287.808265 197.865087 
L 288.440918 196.977578 
L 289.073571 197.508622 
L 289.706224 198.971301 
L 291.604184 206.507249 
L 292.236837 208.155322 
L 293.502143 214.310544 
L 294.767449 218.394943 
L 295.400102 220.95331 
L 296.665408 224.60275 
L 297.298061 225.142447 
L 297.930714 225.425465 
L 298.563367 226.960053 
L 300.461327 230.856366 
L 301.09398 232.167874 
L 301.726633 232.373889 
L 304.889898 240.713757 
L 305.522551 241.839919 
L 306.155204 243.883489 
L 306.787857 244.924092 
L 307.42051 246.322217 
L 308.053163 247.199777 
L 309.318469 249.92186 
L 309.951122 250.937083 
L 310.583776 252.251764 
L 311.216429 253.989868 
L 311.849082 255.260663 
L 312.481735 256.904171 
L 313.114388 258.126131 
L 313.747041 258.942068 
L 314.379694 259.569006 
L 315.012347 259.567372 
L 315.645 258.863719 
L 316.910306 258.340798 
L 317.542959 258.328253 
L 318.808265 258.616366 
L 319.440918 258.85872 
L 320.073571 259.600971 
L 322.604184 261.240633 
L 323.236837 261.728754 
L 323.86949 262.033931 
L 324.502143 262.174095 
L 325.767449 262.963836 
L 327.032755 263.419896 
L 327.665408 263.532132 
L 328.298061 263.198499 
L 328.930714 263.267475 
L 330.19602 263.16639 
L 330.828673 263.212967 
L 331.461327 263.114574 
L 332.726633 263.475269 
L 333.359286 263.533382 
L 333.991939 262.164241 
L 334.624592 261.912514 
L 335.257245 261.204054 
L 335.889898 260.954682 
L 336.522551 260.428733 
L 337.155204 259.541993 
L 337.787857 259.117513 
L 338.42051 259.993679 
L 339.053163 259.550068 
L 339.685816 259.662881 
L 340.318469 259.623226 
L 340.951122 260.026845 
L 342.216429 259.913791 
L 342.849082 259.613517 
L 343.481735 259.459221 
L 344.114388 258.94351 
L 344.747041 258.671691 
L 345.379694 258.213468 
L 346.012347 258.449189 
L 346.645 257.583262 
L 347.277653 257.591577 
L 347.910306 257.884017 
L 348.542959 257.945543 
L 349.175612 258.668855 
L 350.440918 259.018014 
L 351.073571 259.902495 
L 351.706224 260.443634 
L 352.338878 260.792745 
L 352.971531 261.781868 
L 353.604184 261.80667 
L 354.236837 262.242206 
L 354.86949 263.023727 
L 356.134796 263.952286 
L 356.767449 264.331679 
L 358.665408 265.062298 
L 359.298061 264.950061 
L 360.563367 265.840743 
L 362.461327 267.545007 
L 363.09398 267.91445 
L 363.726633 268.503079 
L 366.889898 270.226137 
L 368.155204 270.817938 
L 370.053163 271.857628 
L 370.685816 272.501341 
L 371.318469 272.960093 
L 374.481735 273.920712 
L 376.379694 274.926082 
L 377.012347 275.675832 
L 377.645 275.855458 
L 378.910306 276.640248 
L 379.542959 276.850638 
L 380.175612 276.74042 
L 380.808265 276.804734 
L 381.440918 276.430003 
L 382.073571 276.805551 
L 382.706224 276.716579 
L 383.338878 276.890341 
L 383.971531 276.540125 
L 384.604184 276.849868 
L 385.86949 276.995512 
L 386.502143 277.106546 
L 387.134796 277.426528 
L 389.032755 277.767564 
L 391.563367 277.802268 
L 393.461327 277.492236 
L 394.09398 277.508339 
L 394.726633 277.362744 
L 395.359286 277.522278 
L 397.257245 277.114429 
L 397.889898 277.304534 
L 398.522551 277.320781 
L 399.155204 277.545783 
L 399.787857 276.834151 
L 401.053163 276.326082 
L 401.685816 275.468807 
L 402.318469 275.242652 
L 402.951122 274.883927 
L 403.583776 273.897592 
L 404.216429 273.693355 
L 405.481735 272.633718 
L 406.114388 271.166857 
L 406.747041 270.975406 
L 407.379694 270.562895 
L 408.012347 269.629385 
L 408.645 268.995141 
L 409.277653 268.1967 
L 409.910306 267.015933 
L 410.542959 264.963808 
L 411.175612 264.260011 
L 411.808265 263.892683 
L 413.073571 261.210303 
L 413.706224 259.968251 
L 414.338878 259.198266 
L 414.971531 255.802763 
L 416.236837 254.276924 
L 418.134796 249.921619 
L 418.767449 248.136314 
L 419.400102 245.230567 
L 420.032755 244.311766 
L 420.665408 244.777631 
L 421.298061 242.305737 
L 421.930714 241.342137 
L 422.563367 238.842412 
L 423.19602 237.189003 
L 423.828673 238.394956 
L 425.09398 237.33878 
L 426.359286 234.100985 
L 428.889898 231.424518 
L 429.522551 231.548819 
L 430.155204 230.882226 
L 430.787857 230.696206 
L 431.42051 230.149156 
L 432.053163 228.776842 
L 432.685816 228.796165 
L 433.318469 229.435841 
L 433.951122 229.060534 
L 434.583776 228.051703 
L 435.216429 226.826042 
L 435.849082 226.271637 
L 437.114388 226.649684 
L 437.747041 226.312254 
L 438.379694 225.759868 
L 439.012347 232.271891 
L 439.645 230.86795 
L 440.910306 232.132497 
L 441.542959 231.816841 
L 442.175612 231.662017 
L 442.808265 232.39028 
L 443.440918 226.76442 
L 444.073571 229.82951 
L 444.706224 230.006204 
L 445.338878 230.373436 
L 445.971531 231.870676 
L 446.604184 232.551209 
L 447.236837 232.71853 
L 447.86949 234.591942 
L 448.502143 235.729448 
L 449.134796 237.74336 
L 449.767449 239.166624 
L 450.400102 240.901603 
L 451.032755 241.597421 
L 451.665408 241.14338 
L 452.298061 241.905483 
L 453.563367 242.816353 
L 454.828673 244.677364 
L 456.726633 246.353124 
L 457.359286 247.195066 
L 458.624592 248.063973 
L 459.257245 249.189415 
L 459.889898 249.640139 
L 460.522551 249.885761 
L 461.155204 252.137605 
L 461.787857 251.398719 
L 462.42051 251.577048 
L 463.053163 252.277769 
L 463.685816 253.332071 
L 464.318469 253.28607 
L 464.951122 253.671135 
L 465.583776 253.532366 
L 466.216429 254.911409 
L 466.849082 255.721001 
L 467.481735 256.147164 
L 468.114388 256.797462 
L 468.747041 257.151428 
L 469.379694 257.751641 
L 470.012347 257.096968 
L 470.645 257.830374 
L 471.277653 257.304377 
L 472.542959 257.488618 
L 473.175612 257.398492 
L 473.808265 256.766219 
L 475.073571 256.632881 
L 475.706224 257.44853 
L 476.338878 257.143785 
L 478.236837 256.815824 
L 478.86949 256.936184 
L 480.134796 256.018825 
L 480.767449 257.162435 
L 481.400102 254.920013 
L 482.032755 254.483035 
L 482.665408 254.719237 
L 483.298061 253.599948 
L 483.930714 253.171527 
L 484.563367 252.317135 
L 485.19602 249.808902 
L 485.828673 250.608497 
L 486.461327 250.540771 
L 488.359286 249.455706 
L 488.991939 249.516559 
L 490.257245 256.436383 
L 490.889898 257.3411 
L 491.522551 257.181662 
L 492.155204 255.178373 
L 493.42051 252.712583 
L 494.685816 242.872303 
L 495.318469 240.959188 
L 495.951122 240.380701 
L 496.583776 240.794414 
L 497.216429 240.979328 
L 497.849082 240.36431 
L 498.481735 241.052678 
L 499.114388 241.07176 
L 499.747041 241.54051 
L 500.379694 241.678703 
L 501.012347 241.303828 
L 501.645 241.324978 
L 502.277653 241.520274 
L 502.910306 240.693569 
L 503.542959 239.038141 
L 504.175612 237.924428 
L 504.808265 236.151284 
L 505.440918 233.52894 
L 506.073571 230.328109 
L 506.706224 225.622781 
L 507.338878 219.468904 
L 507.971531 216.783496 
L 508.604184 216.451738 
L 509.236837 212.164688 
L 509.86949 199.642173 
L 510.502143 190.864318 
L 511.134796 178.445147 
L 512.400102 150.275759 
L 513.665408 140.197115 
L 514.930714 92.389611 
L 515.563367 84.673701 
L 516.19602 72.930544 
L 516.828673 55.812196 
L 518.09398 36.201574 
L 518.726633 19.910604 
L 519.359286 21.104829 
L 519.991939 12.16446 
L 520.624592 10.899192 
L 521.889898 9.894207 
L 522.522551 10.145886 
L 523.155204 44.214009 
L 523.787857 27.76985 
L 524.42051 24.909911 
L 525.053163 31.098443 
L 525.685816 32.972047 
L 526.951122 43.554386 
L 527.583776 31.681111 
L 528.216429 62.271586 
L 528.849082 75.927042 
L 530.114388 97.717359 
L 530.747041 103.671805 
L 531.379694 111.722502 
L 532.012347 129.98321 
L 532.645 138.043136 
L 533.277653 152.199209 
L 534.542959 175.77935 
L 535.175612 180.2106 
L 535.808265 185.713457 
L 536.440918 195.125363 
L 537.073571 200.462581 
L 537.706224 207.24676 
L 538.338878 212.216312 
L 538.971531 219.217081 
L 539.604184 220.878181 
L 540.236837 222.087259 
L 540.86949 230.559263 
L 541.502143 235.519395 
L 542.767449 242.407399 
L 543.400102 245.490465 
L 544.032755 246.473916 
L 544.665408 248.171499 
L 545.298061 252.367365 
L 545.930714 253.417005 
L 547.19602 256.507618 
L 547.828673 259.910715 
L 548.461327 259.141402 
L 549.09398 259.371211 
L 549.726633 258.600744 
L 550.359286 260.649745 
L 550.991939 262.17496 
L 551.624592 263.062229 
L 552.257245 264.173058 
L 552.889898 265.734803 
L 553.522551 266.014794 
L 554.155204 267.68916 
L 555.42051 269.25874 
L 557.951122 269.72153 
L 558.583776 271.100957 
L 559.216429 271.359461 
L 560.481735 270.637303 
L 561.114388 271.519284 
L 562.379694 271.468477 
L 563.012347 271.137248 
L 563.645 271.128211 
L 564.277653 271.374218 
L 564.910306 271.863348 
L 565.542959 271.138593 
L 568.706224 271.455932 
L 569.338878 271.328843 
L 569.971531 272.01226 
L 570.604184 271.898389 
L 571.236837 272.23654 
L 571.86949 272.720479 
L 573.134796 272.566713 
L 573.767449 272.326281 
L 574.400102 270.268532 
L 575.032755 270.224503 
L 575.665408 269.994839 
L 577.563367 268.262455 
L 578.19602 268.260725 
L 578.828673 270.163121 
L 580.09398 270.27853 
L 580.726633 269.266431 
L 581.359286 269.096755 
L 582.624592 267.913633 
L 583.257245 265.288213 
L 585.787857 263.927147 
L 586.42051 262.913365 
L 587.053163 262.16078 
L 587.685816 263.547225 
L 588.951122 263.187636 
L 589.583776 262.00884 
L 590.216429 261.804555 
L 590.849082 260.746072 
L 591.481735 260.206279 
L 592.114388 256.95767 
L 592.747041 256.772708 
L 593.379694 257.297888 
L 594.012347 255.598767 
L 594.645 254.604549 
L 595.277653 252.288776 
L 595.910306 251.065903 
L 596.542959 253.055012 
L 597.175612 253.572165 
L 597.808265 252.305792 
L 598.440918 249.969158 
L 599.073571 249.283097 
L 599.706224 247.192422 
L 600.338878 246.178064 
L 600.971531 243.216174 
L 601.604184 242.743387 
L 602.236837 243.346388 
L 602.86949 245.090259 
L 603.502143 245.165869 
L 604.134796 244.86396 
L 604.767449 244.366514 
L 605.400102 246.340194 
L 606.665408 247.684965 
L 607.298061 251.6031 
L 607.930714 247.415742 
L 608.563367 246.583702 
L 609.19602 247.728466 
L 609.828673 245.352753 
L 610.461327 244.693178 
L 611.09398 244.26168 
L 611.726633 239.390136 
L 612.359286 243.413682 
L 612.991939 244.769075 
L 613.624592 243.752795 
L 614.257245 246.154655 
L 614.889898 245.792134 
L 615.522551 245.707392 
L 616.155204 246.094187 
L 616.787857 245.937825 
L 618.053163 247.266061 
L 618.685816 245.737866 
L 619.318469 246.588845 
L 619.951122 246.908683 
L 620.583776 249.866919 
L 621.216429 248.694949 
L 621.849082 248.744891 
L 622.481735 247.879396 
L 623.114388 248.99234 
L 623.747041 247.883097 
L 624.379694 247.467269 
L 625.012347 245.921915 
L 625.645 245.375201 
L 625.645 245.375201 
" clip-path="url(#pa6bb9b39e7)" style="fill: none; stroke: #7516fd; stroke-width: 1.5; stroke-linecap: square"/>
   </g>
   <g id="line2d_29">
    <path d="M 67.645 281.694014 
L 95.481735 281.597111 
L 99.277653 281.375474 
L 103.073571 280.719408 
L 106.236837 280.062956 
L 111.298061 279.86319 
L 114.461327 280.16183 
L 115.726633 280.366355 
L 119.522551 280.760841 
L 131.542959 281.379752 
L 135.338878 281.398691 
L 146.09398 281.540344 
L 170.134796 281.568463 
L 181.522551 281.516599 
L 195.440918 281.324716 
L 201.134796 281.236849 
L 209.991939 281.279917 
L 213.155204 281.234878 
L 215.685816 281.169171 
L 218.849082 281.104713 
L 223.910306 281.037996 
L 228.338878 280.808716 
L 235.298061 279.724997 
L 237.19602 279.251152 
L 237.828673 279.063307 
L 239.09398 278.463767 
L 240.359286 278.035922 
L 242.257245 277.060402 
L 244.155204 276.543297 
L 245.42051 276.245618 
L 247.951122 275.658191 
L 251.747041 275.394159 
L 252.379694 275.349457 
L 253.645 275.515384 
L 254.910306 275.52418 
L 259.338878 275.557394 
L 263.767449 275.772302 
L 265.032755 275.663382 
L 266.298061 275.455781 
L 266.930714 275.434151 
L 268.828673 274.876381 
L 269.461327 274.630278 
L 271.359286 274.301451 
L 271.991939 273.969164 
L 274.522551 273.364529 
L 275.155204 273.351022 
L 275.787857 273.106073 
L 276.42051 273.249697 
L 277.053163 272.996288 
L 277.685816 273.392552 
L 278.318469 274.202241 
L 278.951122 274.635613 
L 280.849082 275.336623 
L 281.481735 275.319463 
L 284.012347 275.749326 
L 285.277653 275.855891 
L 285.910306 276.152031 
L 286.542959 275.723033 
L 287.175612 275.146037 
L 287.808265 274.827304 
L 289.073571 274.656426 
L 290.338878 274.79409 
L 290.971531 275.249814 
L 291.604184 275.538985 
L 294.134796 276.18688 
L 295.400102 276.632557 
L 296.665408 276.819346 
L 297.298061 276.83915 
L 298.563367 277.210852 
L 301.726633 277.834137 
L 302.359286 277.848461 
L 303.624592 278.176999 
L 306.155204 278.494193 
L 309.951122 279.264371 
L 315.012347 279.197558 
L 316.910306 279.094694 
L 320.706224 278.944197 
L 325.134796 278.879354 
L 330.19602 277.881483 
L 331.461327 277.49661 
L 332.726633 277.302035 
L 333.991939 277.091357 
L 335.889898 276.433656 
L 337.155204 276.164192 
L 339.053163 275.926501 
L 339.685816 275.91136 
L 340.318469 276.023981 
L 340.951122 276.263355 
L 342.216429 276.457497 
L 342.849082 276.811944 
L 343.481735 276.999068 
L 344.747041 276.540317 
L 346.012347 276.040083 
L 346.645 275.85142 
L 347.910306 274.840331 
L 350.440918 274.85975 
L 351.073571 274.917478 
L 351.706224 274.764096 
L 356.134796 274.756213 
L 358.032755 275.354792 
L 359.930714 275.771629 
L 363.09398 276.718934 
L 364.991939 277.044444 
L 365.624592 277.26238 
L 367.522551 278.180267 
L 368.787857 278.344945 
L 370.685816 278.900456 
L 371.951122 279.025334 
L 373.216429 279.267015 
L 374.481735 279.959132 
L 377.645 280.282959 
L 378.277653 280.172838 
L 378.910306 280.253254 
L 380.175612 280.606402 
L 383.971531 280.928211 
L 386.502143 281.046167 
L 389.032755 281.326061 
L 394.09398 281.466898 
L 402.951122 281.441711 
L 406.747041 281.311161 
L 423.19602 280.536849 
L 431.42051 279.108297 
L 432.685816 278.77303 
L 434.583776 278.558266 
L 435.849082 278.46343 
L 441.542959 278.102255 
L 442.175612 278.084037 
L 442.808265 278.23343 
L 444.073571 278.216077 
L 445.971531 278.483474 
L 447.236837 278.595038 
L 451.665408 279.085994 
L 453.563367 279.080274 
L 455.461327 278.928815 
L 456.726633 279.003031 
L 459.257245 278.993417 
L 463.685816 278.793314 
L 465.583776 278.595759 
L 466.216429 278.509238 
L 470.012347 277.133368 
L 470.645 276.955424 
L 471.277653 276.657552 
L 471.910306 276.082671 
L 473.808265 275.378537 
L 474.440918 275.23025 
L 475.073571 275.213908 
L 475.706224 275.349168 
L 476.338878 275.064996 
L 477.604184 273.867598 
L 478.86949 273.266232 
L 479.502143 272.736581 
L 480.767449 271.029001 
L 482.665408 269.464227 
L 483.930714 268.58412 
L 485.19602 267.222622 
L 485.828673 267.014491 
L 486.461327 266.108765 
L 488.359286 264.688721 
L 488.991939 264.012995 
L 489.624592 263.503965 
L 490.257245 262.377082 
L 491.522551 262.142755 
L 492.787857 262.183708 
L 493.42051 262.169192 
L 495.951122 262.639047 
L 496.583776 262.712493 
L 497.216429 263.178455 
L 497.849082 263.062373 
L 498.481735 263.187251 
L 499.747041 264.334947 
L 500.379694 264.78721 
L 501.645 265.331761 
L 502.277653 266.211388 
L 502.910306 266.881153 
L 504.175612 267.900367 
L 505.440918 268.330807 
L 507.338878 269.522244 
L 507.971531 270.269061 
L 509.236837 272.184388 
L 510.502143 272.401939 
L 511.134796 272.671883 
L 511.767449 272.775564 
L 513.032755 272.295519 
L 514.298061 271.957848 
L 514.930714 271.502124 
L 516.828673 268.832771 
L 518.09398 266.259551 
L 518.726633 265.935723 
L 519.359286 265.208517 
L 519.991939 264.174211 
L 520.624592 263.353371 
L 521.257245 261.628342 
L 521.889898 260.564474 
L 522.522551 259.797709 
L 523.155204 259.370394 
L 524.42051 256.457148 
L 526.318469 248.886833 
L 527.583776 245.897833 
L 528.849082 240.887952 
L 529.481735 237.542488 
L 530.747041 232.558274 
L 531.379694 230.946587 
L 532.012347 230.229187 
L 532.645 228.515213 
L 533.277653 226.376327 
L 533.910306 224.790885 
L 534.542959 221.969831 
L 535.175612 220.592759 
L 536.440918 219.095376 
L 537.073571 218.760925 
L 537.706224 217.523104 
L 538.338878 216.958701 
L 540.236837 218.146196 
L 540.86949 219.049952 
L 541.502143 219.547638 
L 542.767449 220.822087 
L 544.032755 222.783606 
L 544.665408 223.126228 
L 545.298061 223.251106 
L 545.930714 224.852459 
L 546.563367 225.37735 
L 547.19602 226.305236 
L 547.828673 226.7525 
L 549.09398 227.876835 
L 549.726633 228.430471 
L 550.359286 228.612693 
L 550.991939 229.701219 
L 551.624592 229.97275 
L 552.257245 229.64349 
L 552.889898 228.856297 
L 553.522551 228.424847 
L 554.155204 227.651978 
L 555.42051 224.569152 
L 556.053163 222.065869 
L 556.685816 220.371843 
L 557.318469 218.214788 
L 557.951122 216.786332 
L 558.583776 216.115797 
L 561.114388 208.135903 
L 561.747041 207.023008 
L 562.379694 207.735121 
L 563.012347 207.738197 
L 564.910306 204.479878 
L 565.542959 204.544624 
L 566.175612 204.939399 
L 567.440918 207.120728 
L 568.073571 206.386648 
L 568.706224 207.119911 
L 569.338878 197.069097 
L 569.971531 211.323564 
L 570.604184 213.994648 
L 571.236837 213.804399 
L 572.502143 219.786627 
L 573.134796 212.661317 
L 573.767449 229.591674 
L 574.400102 222.346485 
L 575.032755 229.123213 
L 575.665408 233.179733 
L 576.298061 223.545084 
L 576.930714 225.551689 
L 577.563367 237.633142 
L 578.19602 238.517527 
L 578.828673 243.954243 
L 579.461327 244.708271 
L 580.09398 245.203697 
L 580.726633 253.757656 
L 581.359286 250.876903 
L 581.991939 249.869563 
L 582.624592 249.636246 
L 583.257245 244.949183 
L 584.522551 244.997394 
L 585.155204 239.502613 
L 585.787857 249.047905 
L 586.42051 244.941059 
L 587.053163 247.830272 
L 587.685816 250.126962 
L 588.318469 251.44693 
L 588.951122 252.218502 
L 589.583776 253.33731 
L 590.216429 248.211876 
L 590.849082 256.652348 
L 592.114388 258.170448 
L 592.747041 258.325705 
L 593.379694 258.358487 
L 594.012347 258.644678 
L 595.277653 259.453501 
L 595.910306 260.226131 
L 596.542959 260.725691 
L 597.808265 260.888254 
L 599.073571 263.112555 
L 599.706224 264.566198 
L 600.971531 266.468354 
L 602.236837 266.631205 
L 604.134796 269.694949 
L 604.767449 271.956886 
L 606.032755 272.125554 
L 607.298061 272.271581 
L 607.930714 271.992023 
L 608.563367 271.569178 
L 609.19602 269.606073 
L 609.828673 269.55267 
L 610.461327 269.683076 
L 611.09398 269.557092 
L 611.726633 272.447795 
L 614.257245 266.763053 
L 615.522551 266.666823 
L 616.155204 261.663527 
L 616.787857 261.293939 
L 617.42051 260.74088 
L 618.053163 263.132695 
L 618.685816 262.415199 
L 619.951122 262.339974 
L 620.583776 261.510481 
L 621.849082 258.765566 
L 622.481735 254.916744 
L 623.114388 254.48068 
L 623.747041 254.480728 
L 624.379694 254.775956 
L 625.012347 253.851531 
L 625.645 253.14408 
L 625.645 253.14408 
" clip-path="url(#pa6bb9b39e7)" style="fill: none; stroke: #d8b009; stroke-width: 1.5; stroke-linecap: square"/>
   </g>
   <g id="line2d_30">
    <path d="M 67.645 281.694014 
L 95.481735 281.604466 
L 99.910306 281.277129 
L 101.175612 281.215123 
L 103.073571 280.989688 
L 104.971531 280.719071 
L 105.604184 280.57761 
L 106.86949 280.515363 
L 107.502143 280.25657 
L 108.134796 280.165964 
L 108.767449 280.253398 
L 109.400102 280.184566 
L 110.032755 281.228774 
L 111.298061 281.394317 
L 111.930714 281.694207 
L 113.828673 281.694207 
L 114.461327 281.18138 
L 115.09398 278.782932 
L 115.726633 278.759763 
L 116.359286 277.753384 
L 116.991939 277.784532 
L 117.624592 277.36183 
L 118.889898 277.232818 
L 119.522551 279.61949 
L 120.155204 279.652849 
L 120.787857 280.363375 
L 121.42051 280.431054 
L 122.053163 281.117787 
L 122.685816 281.073565 
L 123.951122 281.197915 
L 125.216429 281.115961 
L 125.849082 281.272371 
L 126.481735 281.131678 
L 127.747041 281.284099 
L 128.379694 281.297173 
L 129.645 281.54419 
L 130.277653 281.275447 
L 140.400102 281.549813 
L 145.461327 281.403642 
L 147.359286 281.410804 
L 147.991939 281.574183 
L 149.257245 281.525924 
L 150.522551 281.579423 
L 151.787857 281.528135 
L 152.42051 281.343029 
L 153.053163 281.535105 
L 160.645 281.518089 
L 167.604184 281.544911 
L 171.400102 281.510447 
L 178.359286 281.463629 
L 190.379694 281.208538 
L 192.910306 281.025835 
L 193.542959 281.000504 
L 194.808265 280.704699 
L 195.440918 280.902976 
L 197.338878 280.709554 
L 199.236837 280.516373 
L 200.502143 280.381064 
L 201.134796 280.549298 
L 201.767449 280.24042 
L 203.032755 280.016572 
L 204.930714 279.858191 
L 205.563367 279.531335 
L 206.19602 279.728602 
L 208.726633 279.384635 
L 214.42051 278.743565 
L 215.053163 278.720637 
L 216.951122 278.234295 
L 217.583776 278.271835 
L 218.849082 278.020781 
L 219.481735 277.748241 
L 220.747041 277.578516 
L 222.012347 277.633361 
L 222.645 277.733292 
L 223.277653 277.678784 
L 224.542959 277.993719 
L 227.706224 277.349862 
L 228.338878 277.139472 
L 229.604184 276.237831 
L 232.134796 275.594166 
L 232.767449 275.000298 
L 234.032755 274.516503 
L 234.665408 273.851111 
L 236.563367 273.068917 
L 237.19602 272.537488 
L 237.828673 271.710014 
L 238.461327 271.079086 
L 239.09398 272.195251 
L 239.726633 269.372755 
L 240.359286 268.695876 
L 240.991939 268.208476 
L 242.257245 267.610138 
L 242.889898 268.098691 
L 244.155204 264.606911 
L 244.787857 262.77349 
L 245.42051 266.795306 
L 246.685816 265.706011 
L 247.318469 263.227964 
L 247.951122 263.59409 
L 248.583776 267.663781 
L 249.216429 270.066555 
L 249.849082 266.099728 
L 250.481735 267.313997 
L 251.114388 269.08368 
L 251.747041 271.71285 
L 253.012347 272.806086 
L 253.645 271.701026 
L 254.277653 272.064508 
L 254.910306 272.630209 
L 255.542959 272.672076 
L 256.808265 274.034727 
L 257.440918 274.274486 
L 258.073571 275.989613 
L 258.706224 276.570695 
L 259.338878 276.945041 
L 259.971531 277.449264 
L 261.236837 277.860718 
L 262.502143 277.968052 
L 263.767449 278.099803 
L 265.032755 278.141045 
L 266.298061 278.127105 
L 266.930714 277.857882 
L 268.828673 277.689167 
L 270.726633 277.620431 
L 271.359286 277.731898 
L 275.155204 276.889235 
L 275.787857 276.882698 
L 276.42051 277.014113 
L 277.685816 276.643661 
L 278.318469 277.332702 
L 279.583776 277.66172 
L 280.216429 277.679361 
L 280.849082 277.125244 
L 282.114388 277.25118 
L 282.747041 277.233251 
L 283.379694 277.059056 
L 284.012347 277.012047 
L 284.645 276.563149 
L 285.277653 276.626982 
L 286.542959 276.518014 
L 287.175612 275.714766 
L 287.808265 275.54879 
L 292.236837 275.53163 
L 292.86949 275.532496 
L 294.134796 275.191604 
L 296.032755 274.90003 
L 297.298061 274.78962 
L 298.563367 274.870757 
L 299.828673 274.822257 
L 301.726633 274.777123 
L 302.991939 274.745879 
L 303.624592 275.889297 
L 304.257245 274.813942 
L 304.889898 274.98011 
L 306.155204 274.964055 
L 306.787857 275.17156 
L 307.42051 275.219483 
L 308.053163 274.207384 
L 308.685816 275.404157 
L 309.318469 275.37325 
L 309.951122 275.519373 
L 312.481735 275.437083 
L 314.379694 274.959825 
L 315.645 274.919209 
L 316.277653 274.607398 
L 317.542959 274.415851 
L 318.175612 274.332262 
L 319.440918 274.429262 
L 320.073571 274.30049 
L 320.706224 274.527174 
L 324.502143 274.505159 
L 327.032755 273.851688 
L 327.665408 273.629811 
L 328.298061 273.585493 
L 330.19602 272.494949 
L 330.828673 272.012212 
L 332.726633 271.092786 
L 333.359286 271.829701 
L 333.991939 270.538092 
L 334.624592 270.029207 
L 336.522551 269.043352 
L 337.155204 269.365545 
L 337.787857 268.595175 
L 338.42051 268.899968 
L 339.685816 268.428142 
L 340.318469 270.46902 
L 340.951122 268.377768 
L 341.583776 268.296679 
L 342.216429 269.386214 
L 342.849082 272.180013 
L 343.481735 269.951771 
L 344.114388 272.1878 
L 344.747041 272.128293 
L 345.379694 270.33698 
L 346.012347 270.444794 
L 346.645 268.95116 
L 347.277653 266.904466 
L 347.910306 269.739843 
L 349.175612 266.338861 
L 349.808265 270.593946 
L 350.440918 270.682486 
L 351.073571 270.444794 
L 351.706224 270.857353 
L 354.236837 271.667523 
L 354.86949 271.703621 
L 355.502143 272.364591 
L 356.134796 272.527153 
L 358.032755 273.578187 
L 358.665408 274.279196 
L 359.298061 274.384463 
L 361.828673 275.417087 
L 362.461327 275.652183 
L 363.726633 275.712795 
L 365.624592 276.258067 
L 366.257245 276.839486 
L 366.889898 277.084339 
L 367.522551 276.848907 
L 368.155204 276.846408 
L 369.42051 277.087175 
L 370.053163 281.694207 
L 373.849082 281.694207 
L 374.481735 278.466266 
L 377.012347 278.734336 
L 377.645 278.412383 
L 378.277653 278.955685 
L 378.910306 278.877528 
L 380.808265 279.486585 
L 381.440918 279.447939 
L 382.073571 279.632132 
L 382.706224 279.429529 
L 383.338878 279.961919 
L 385.236837 280.344917 
L 386.502143 280.501328 
L 388.400102 280.771993 
L 390.930714 280.947101 
L 394.726633 281.078036 
L 395.991939 281.066884 
L 400.42051 280.760024 
L 404.216429 280.235613 
L 404.849082 280.362174 
L 407.379694 279.040619 
L 408.012347 278.900023 
L 408.645 278.358836 
L 409.277653 277.391584 
L 411.175612 275.745192 
L 412.440918 275.556241 
L 413.706224 274.82269 
L 414.971531 274.427098 
L 415.604184 274.517416 
L 416.86949 274.149704 
L 417.502143 274.285733 
L 421.930714 273.794488 
L 423.828673 273.395965 
L 425.09398 273.425814 
L 425.726633 273.128808 
L 430.155204 274.416331 
L 430.787857 274.37831 
L 432.053163 274.956412 
L 432.685816 276.037488 
L 433.318469 275.416558 
L 433.951122 275.592964 
L 434.583776 275.603683 
L 435.216429 276.848138 
L 435.849082 276.395203 
L 436.481735 276.660965 
L 437.114388 275.951159 
L 437.747041 277.022814 
L 439.012347 277.400524 
L 439.645 276.702735 
L 440.277653 278.010062 
L 440.910306 277.819428 
L 442.175612 278.24213 
L 443.440918 278.394166 
L 444.073571 278.398251 
L 445.338878 278.844506 
L 448.502143 279.446497 
L 449.134796 279.122429 
L 449.767449 279.462599 
L 457.359286 280.102227 
L 457.991939 279.934714 
L 461.787857 279.970379 
L 462.42051 280.360491 
L 463.053163 280.146785 
L 464.318469 280.072666 
L 466.216429 280.08699 
L 466.849082 279.871698 
L 467.481735 280.033684 
L 470.012347 279.886166 
L 474.440918 279.671595 
L 475.073571 279.895731 
L 477.604184 279.349065 
L 478.86949 279.225629 
L 479.502143 278.722896 
L 480.767449 278.488137 
L 481.400102 278.737893 
L 482.665408 278.30726 
L 483.298061 278.256021 
L 485.19602 277.126831 
L 485.828673 276.291282 
L 487.09398 275.55701 
L 487.726633 275.459338 
L 488.991939 274.359132 
L 491.522551 271.833979 
L 492.155204 271.67978 
L 494.685816 268.560711 
L 495.318469 267.869748 
L 495.951122 267.361872 
L 496.583776 267.213441 
L 497.849082 266.121454 
L 498.481735 265.715721 
L 499.114388 265.461254 
L 500.379694 265.261776 
L 501.012347 265.239376 
L 504.808265 264.039335 
L 505.440918 263.893644 
L 506.073571 263.438642 
L 506.706224 262.544691 
L 507.971531 259.338189 
L 508.604184 257.123501 
L 509.236837 258.122141 
L 509.86949 257.38436 
L 511.134796 246.289435 
L 511.767449 240.766246 
L 513.032755 228.625047 
L 513.665408 227.147707 
L 514.298061 225.368843 
L 514.930714 220.938698 
L 515.563367 214.973581 
L 516.19602 212.264908 
L 517.461327 203.584534 
L 518.09398 192.160686 
L 518.726633 190.889217 
L 519.359286 186.234263 
L 519.991939 184.812585 
L 520.624592 182.626016 
L 521.257245 182.555069 
L 521.889898 181.548498 
L 522.522551 182.412166 
L 523.155204 181.992877 
L 523.787857 177.356669 
L 524.42051 173.766976 
L 525.053163 168.05051 
L 526.318469 161.492775 
L 526.951122 160.362527 
L 527.583776 160.034566 
L 528.216429 158.204222 
L 528.849082 158.629326 
L 529.481735 160.25005 
L 530.114388 162.51641 
L 531.379694 167.760666 
L 532.012347 168.771515 
L 532.645 173.030926 
L 535.808265 199.547048 
L 536.440918 201.450454 
L 537.073571 209.912412 
L 537.706224 225.005792 
L 538.338878 222.22151 
L 539.604184 232.013627 
L 540.236837 235.324195 
L 540.86949 236.104563 
L 541.502143 247.483228 
L 542.134796 235.905517 
L 542.767449 247.476018 
L 544.032755 251.826131 
L 544.665408 253.150425 
L 545.298061 253.733334 
L 545.930714 249.140386 
L 546.563367 257.281497 
L 548.461327 260.881621 
L 549.09398 261.670593 
L 549.726633 261.897805 
L 550.991939 263.449986 
L 551.624592 263.796789 
L 552.889898 263.812171 
L 554.155204 263.654222 
L 556.685816 261.151709 
L 557.951122 259.683069 
L 558.583776 259.380295 
L 559.216429 258.241588 
L 559.849082 256.384615 
L 561.747041 252.557999 
L 562.379694 251.488652 
L 563.012347 251.396989 
L 563.645 248.330169 
L 565.542959 242.117266 
L 566.175612 240.126667 
L 566.808265 238.737963 
L 567.440918 238.484457 
L 568.073571 236.73078 
L 568.706224 236.011265 
L 569.338878 234.609198 
L 569.971531 234.348002 
L 571.236837 235.083956 
L 571.86949 234.972873 
L 572.502143 235.35342 
L 573.134796 236.224154 
L 573.767449 236.736644 
L 574.400102 236.738855 
L 575.032755 236.274191 
L 575.665408 236.015206 
L 576.298061 236.331487 
L 576.930714 237.24428 
L 577.563367 237.459091 
L 578.828673 239.626145 
L 579.461327 241.077673 
L 580.09398 242.087272 
L 580.726633 242.3626 
L 581.359286 250.306732 
L 581.991939 249.86067 
L 584.522551 256.067997 
L 585.155204 256.344286 
L 585.787857 252.883077 
L 586.42051 257.112301 
L 587.053163 259.226481 
L 588.318469 262.429186 
L 588.951122 263.49762 
L 589.583776 263.752327 
L 590.216429 265.212843 
L 591.481735 266.913599 
L 592.747041 268.080089 
L 593.379694 268.435881 
L 594.012347 268.503127 
L 594.645 269.015137 
L 597.808265 270.798231 
L 598.440918 270.86615 
L 599.073571 271.478235 
L 599.706224 270.32977 
L 602.236837 271.800284 
L 602.86949 273.510797 
L 603.502143 274.060972 
L 604.134796 276.09661 
L 604.767449 276.414237 
L 605.400102 277.35289 
L 606.665408 277.326453 
L 607.298061 275.676841 
L 609.19602 275.130463 
L 609.828673 274.154414 
L 610.461327 274.077988 
L 611.09398 273.880817 
L 611.726633 273.806217 
L 612.359286 274.93632 
L 612.991939 273.605393 
L 613.624592 272.895203 
L 615.522551 276.300462 
L 616.155204 276.598093 
L 616.787857 268.669823 
L 617.42051 268.760237 
L 618.053163 268.138731 
L 618.685816 265.709856 
L 619.951122 265.705338 
L 620.583776 260.80553 
L 621.216429 264.703045 
L 623.114388 260.786977 
L 624.379694 260.786977 
L 625.645 255.248503 
L 625.645 255.248503 
" clip-path="url(#pa6bb9b39e7)" style="fill: none; stroke: #0309a6; stroke-width: 1.5; stroke-linecap: square"/>
   </g>
   <g id="line2d_31">
    <path d="M 67.645 281.694207 
L 103.706224 281.589325 
L 109.400102 281.423157 
L 115.09398 281.162489 
L 118.257245 281.019154 
L 119.522551 280.902927 
L 123.951122 280.51916 
L 125.216429 280.244698 
L 126.481735 279.908469 
L 129.645 279.664817 
L 130.277653 279.438614 
L 130.910306 279.358823 
L 132.175612 278.860127 
L 134.073571 278.677569 
L 134.706224 278.640701 
L 137.236837 277.926666 
L 138.502143 277.191721 
L 139.134796 276.671828 
L 141.665408 275.688089 
L 143.563367 275.890499 
L 144.19602 275.400215 
L 144.828673 275.155891 
L 145.461327 274.419312 
L 146.09398 274.479155 
L 146.726633 274.366582 
L 147.359286 273.628753 
L 148.624592 273.171973 
L 149.257245 272.921495 
L 149.889898 273.331555 
L 150.522551 273.102516 
L 151.787857 272.996288 
L 152.42051 272.625931 
L 153.053163 272.782726 
L 153.685816 273.158562 
L 154.951122 273.339005 
L 156.216429 272.735091 
L 157.481735 273.025272 
L 158.114388 271.497846 
L 158.747041 269.464948 
L 159.379694 271.22372 
L 160.645 270.929598 
L 161.277653 270.443737 
L 161.910306 269.677356 
L 162.542959 270.214505 
L 163.175612 271.493232 
L 163.808265 268.961109 
L 164.440918 269.280371 
L 165.073571 269.273016 
L 165.706224 268.994612 
L 166.338878 268.853439 
L 167.604184 269.103244 
L 168.236837 269.472879 
L 168.86949 269.333292 
L 169.502143 268.99591 
L 170.767449 269.140784 
L 172.032755 269.013358 
L 173.930714 269.343723 
L 174.563367 269.589249 
L 175.19602 269.554593 
L 176.461327 270.462435 
L 177.726633 270.480989 
L 178.359286 270.28848 
L 178.991939 269.038353 
L 179.624592 268.382575 
L 180.889898 266.264406 
L 181.522551 266.299927 
L 182.787857 265.70702 
L 183.42051 266.221289 
L 184.053163 266.186249 
L 185.318469 266.649278 
L 185.951122 266.582321 
L 186.583776 266.962291 
L 187.849082 266.818234 
L 189.114388 267.199261 
L 189.747041 266.966232 
L 190.379694 267.03045 
L 191.012347 266.722821 
L 191.645 266.999831 
L 192.277653 267.058232 
L 192.910306 266.73503 
L 193.542959 266.734837 
L 194.175612 267.191859 
L 194.808265 267.178592 
L 196.073571 267.340338 
L 196.706224 267.645611 
L 197.971531 269.319305 
L 198.604184 268.885404 
L 201.767449 269.180487 
L 202.400102 268.615123 
L 203.665408 269.38208 
L 204.298061 268.098114 
L 205.563367 268.274857 
L 206.19602 268.0562 
L 207.461327 268.439919 
L 208.09398 268.433286 
L 208.726633 270.390046 
L 209.359286 271.617822 
L 209.991939 272.068017 
L 210.624592 272.358727 
L 211.257245 272.262881 
L 211.889898 272.409822 
L 212.522551 272.441162 
L 213.155204 271.907858 
L 213.787857 271.150033 
L 214.42051 271.139939 
L 215.053163 271.349319 
L 216.318469 271.495635 
L 216.951122 271.427284 
L 217.583776 271.570331 
L 218.216429 271.550384 
L 219.481735 271.981112 
L 220.747041 272.570462 
L 223.277653 272.780178 
L 223.910306 272.599062 
L 225.175612 272.656838 
L 225.808265 272.900634 
L 226.440918 272.459283 
L 227.706224 272.617183 
L 228.338878 273.047527 
L 228.971531 273.291948 
L 229.604184 273.25657 
L 230.236837 273.08949 
L 231.502143 274.799906 
L 232.134796 274.948626 
L 232.767449 274.775777 
L 233.400102 274.734295 
L 234.032755 274.876958 
L 234.665408 274.883687 
L 235.930714 274.001657 
L 236.563367 274.097215 
L 237.19602 274.36937 
L 237.828673 274.301836 
L 238.461327 274.09957 
L 239.726633 273.99214 
L 240.359286 273.693355 
L 241.624592 273.480371 
L 242.257245 273.751853 
L 242.889898 274.319717 
L 243.522551 274.419023 
L 244.155204 274.917094 
L 244.787857 275.657326 
L 246.053163 276.036575 
L 246.685816 276.236197 
L 247.318469 276.016338 
L 247.951122 276.001245 
L 248.583776 275.752979 
L 249.216429 274.222429 
L 249.849082 274.081545 
L 250.481735 273.597318 
L 251.114388 272.707213 
L 251.747041 272.297009 
L 253.012347 272.021392 
L 253.645 272.546957 
L 254.277653 272.138147 
L 256.808265 271.659448 
L 257.440918 271.543414 
L 258.073571 271.589414 
L 258.706224 271.114704 
L 259.338878 270.873264 
L 259.971531 271.126192 
L 260.604184 270.104143 
L 261.236837 269.955808 
L 261.86949 269.689661 
L 262.502143 268.850796 
L 263.134796 268.665882 
L 263.767449 268.22107 
L 264.400102 267.540296 
L 265.032755 268.078791 
L 266.298061 267.658349 
L 266.930714 267.859702 
L 267.563367 267.565724 
L 269.461327 267.069096 
L 270.09398 267.280638 
L 271.359286 267.252183 
L 271.991939 266.697826 
L 272.624592 265.969659 
L 273.257245 265.955094 
L 273.889898 265.670634 
L 275.155204 265.539891 
L 275.787857 265.124929 
L 276.42051 266.107659 
L 277.053163 266.611786 
L 278.318469 269.610158 
L 278.951122 269.940379 
L 280.216429 269.964508 
L 280.849082 269.487636 
L 281.481735 269.667502 
L 282.114388 269.583097 
L 284.012347 269.823528 
L 284.645 269.741237 
L 285.277653 269.409238 
L 287.175612 264.305146 
L 287.808265 263.736177 
L 289.073571 263.157017 
L 289.706224 263.285837 
L 290.338878 264.229873 
L 291.604184 263.433739 
L 292.236837 263.318907 
L 293.502143 263.515453 
L 294.134796 263.291941 
L 294.767449 263.742762 
L 295.400102 264.343215 
L 296.032755 264.350281 
L 296.665408 264.489531 
L 297.930714 264.438772 
L 299.19602 264.337591 
L 299.828673 264.198293 
L 300.461327 264.447472 
L 301.726633 264.575282 
L 302.359286 264.83148 
L 302.991939 265.329358 
L 303.624592 265.504947 
L 304.889898 266.207542 
L 306.787857 266.529736 
L 307.42051 266.207975 
L 308.685816 266.508442 
L 309.318469 266.578331 
L 309.951122 266.359098 
L 310.583776 266.492628 
L 311.216429 265.816469 
L 311.849082 266.483783 
L 312.481735 266.489792 
L 313.114388 266.335256 
L 313.747041 265.974033 
L 314.379694 266.03354 
L 315.012347 265.743311 
L 315.645 265.824977 
L 316.910306 264.24064 
L 317.542959 263.700463 
L 319.440918 262.812857 
L 320.073571 262.999838 
L 321.971531 261.828637 
L 322.604184 261.42074 
L 323.236837 259.09819 
L 323.86949 259.280845 
L 325.134796 258.311477 
L 325.767449 258.261055 
L 326.400102 257.782019 
L 327.032755 257.616716 
L 327.665408 259.454607 
L 328.298061 259.083097 
L 328.930714 258.393287 
L 329.563367 258.047926 
L 330.19602 257.526158 
L 330.828673 257.247946 
L 332.09398 256.920706 
L 332.726633 256.360437 
L 333.359286 256.381442 
L 333.991939 256.273099 
L 334.624592 255.776326 
L 335.257245 256.156681 
L 335.889898 255.745756 
L 336.522551 255.769164 
L 337.155204 256.411099 
L 337.787857 256.351833 
L 338.42051 256.456667 
L 339.685816 257.488137 
L 340.318469 259.523679 
L 340.951122 260.22738 
L 343.481735 260.25127 
L 344.114388 259.350734 
L 344.747041 258.043455 
L 345.379694 257.71386 
L 346.645 257.977988 
L 347.910306 259.490273 
L 348.542959 259.669226 
L 349.175612 259.572467 
L 349.808265 259.588666 
L 350.440918 259.739019 
L 351.073571 260.220555 
L 351.706224 260.25026 
L 352.338878 261.359407 
L 352.971531 262.085507 
L 354.86949 262.763492 
L 356.134796 262.451441 
L 356.767449 261.465779 
L 357.400102 261.3347 
L 358.665408 261.807776 
L 359.298061 261.490966 
L 359.930714 261.794221 
L 360.563367 261.837818 
L 363.09398 261.096961 
L 363.726633 261.226165 
L 364.991939 261.204679 
L 365.624592 260.83264 
L 366.257245 260.781209 
L 367.522551 260.279677 
L 368.155204 260.313468 
L 370.053163 259.733251 
L 371.318469 259.768725 
L 373.849082 259.671101 
L 375.114388 261.670641 
L 375.747041 261.287691 
L 376.379694 261.145701 
L 377.012347 261.187663 
L 377.645 260.953481 
L 378.277653 260.182822 
L 378.910306 259.628321 
L 379.542959 260.143455 
L 380.175612 260.825815 
L 380.808265 260.878977 
L 381.440918 260.729537 
L 382.073571 261.844691 
L 382.706224 262.393184 
L 383.338878 261.663671 
L 383.971531 259.590012 
L 384.604184 259.008112 
L 385.236837 259.16957 
L 385.86949 259.026522 
L 386.502143 257.515872 
L 387.134796 257.436033 
L 387.767449 258.145117 
L 388.400102 257.706169 
L 389.032755 257.506162 
L 389.665408 257.140709 
L 390.298061 257.010063 
L 390.930714 255.22644 
L 391.563367 255.665388 
L 392.19602 255.659043 
L 393.461327 257.468862 
L 394.726633 258.716586 
L 395.359286 261.518509 
L 395.991939 262.97268 
L 396.624592 263.71743 
L 397.257245 264.269672 
L 398.522551 264.916174 
L 399.787857 265.319793 
L 400.42051 264.98217 
L 403.583776 266.747768 
L 404.216429 267.378263 
L 405.481735 267.273428 
L 406.114388 268.020246 
L 406.747041 267.784285 
L 408.012347 268.018708 
L 408.645 268.855891 
L 409.277653 268.868436 
L 409.910306 269.143235 
L 410.542959 266.057093 
L 411.175612 266.748392 
L 411.808265 266.675859 
L 412.440918 266.450617 
L 413.073571 265.852567 
L 414.338878 266.628706 
L 414.971531 269.836794 
L 416.86949 269.838236 
L 417.502143 270.37154 
L 418.134796 270.684552 
L 418.767449 270.772852 
L 420.032755 270.448976 
L 420.665408 270.759441 
L 421.298061 270.919648 
L 421.930714 270.777081 
L 423.19602 271.196226 
L 424.461327 272.153096 
L 425.09398 272.1592 
L 426.359286 271.861569 
L 426.991939 271.634309 
L 428.257245 271.568313 
L 428.889898 271.759619 
L 429.522551 271.751063 
L 430.155204 271.872961 
L 430.787857 272.2189 
L 431.42051 272.708799 
L 433.318469 273.377988 
L 434.583776 273.644039 
L 436.481735 274.273428 
L 437.747041 274.599034 
L 438.379694 274.531837 
L 439.012347 274.658205 
L 440.277653 275.850651 
L 440.910306 275.571863 
L 442.175612 276.230958 
L 442.808265 276.461679 
L 444.706224 276.580068 
L 445.338878 276.45394 
L 445.971531 275.546339 
L 446.604184 270.205324 
L 448.502143 270.024592 
L 449.134796 269.096562 
L 449.767449 269.602708 
L 450.400102 270.404081 
L 451.032755 275.740241 
L 452.930714 275.680398 
L 453.563367 276.434954 
L 454.828673 276.606505 
L 456.09398 276.663224 
L 456.726633 276.558775 
L 457.359286 276.305894 
L 457.991939 276.226055 
L 458.624592 276.578626 
L 460.522551 276.475282 
L 461.155204 276.692785 
L 461.787857 277.403697 
L 462.42051 277.89273 
L 463.053163 277.863121 
L 464.951122 278.416228 
L 465.583776 278.304424 
L 466.849082 277.669267 
L 467.481735 277.584957 
L 468.114388 277.628218 
L 468.747041 277.525162 
L 470.645 277.670757 
L 471.277653 277.602694 
L 471.910306 277.761315 
L 474.440918 277.964014 
L 475.073571 278.321008 
L 476.971531 278.365998 
L 478.86949 278.224345 
L 479.502143 277.941134 
L 480.134796 278.005063 
L 481.400102 277.817986 
L 483.298061 278.169452 
L 483.930714 278.42142 
L 485.19602 278.710014 
L 486.461327 278.871952 
L 487.726633 278.766973 
L 488.359286 278.484724 
L 491.522551 278.625512 
L 492.155204 278.608785 
L 493.42051 278.711023 
L 495.951122 278.728039 
L 497.216429 278.661755 
L 498.481735 278.917856 
L 501.012347 279.619875 
L 502.910306 280.384284 
L 503.542959 280.514161 
L 508.604184 280.62784 
L 509.86949 280.251764 
L 511.134796 279.682025 
L 512.400102 278.944004 
L 513.032755 278.938813 
L 513.665408 279.090849 
L 514.298061 278.864838 
L 514.930714 278.378448 
L 515.563367 277.749202 
L 516.19602 276.633663 
L 517.461327 271.89315 
L 518.09398 270.554387 
L 518.726633 269.484079 
L 519.359286 266.884422 
L 520.624592 260.773181 
L 521.257245 258.474617 
L 521.889898 258.510234 
L 522.522551 258.33628 
L 523.155204 256.391488 
L 523.787857 253.166816 
L 524.42051 247.991536 
L 525.685816 241.644287 
L 526.318469 236.042172 
L 526.951122 231.739261 
L 527.583776 231.102565 
L 528.216429 228.221043 
L 528.849082 227.152513 
L 529.481735 224.27253 
L 530.114388 219.971253 
L 530.747041 218.025164 
L 531.379694 218.907049 
L 532.012347 218.173739 
L 533.277653 221.098424 
L 533.910306 218.337118 
L 536.440918 226.297738 
L 537.073571 225.998184 
L 537.706224 226.312879 
L 538.338878 232.297847 
L 538.971531 234.93067 
L 539.604184 236.043037 
L 540.236837 236.198534 
L 540.86949 236.691317 
L 541.502143 239.204357 
L 544.032755 245.976519 
L 545.298061 247.749711 
L 545.930714 248.79315 
L 546.563367 249.328761 
L 547.19602 250.493136 
L 548.461327 254.19098 
L 549.09398 254.843298 
L 549.726633 255.82872 
L 550.359286 259.732434 
L 550.991939 264.718907 
L 551.624592 266.435957 
L 552.257245 267.351922 
L 552.889898 267.694784 
L 553.522551 268.248372 
L 554.155204 268.174877 
L 554.787857 265.665394 
L 555.42051 264.793555 
L 556.053163 264.748949 
L 557.318469 266.301994 
L 557.951122 266.39409 
L 558.583776 266.624524 
L 559.216429 267.816249 
L 559.849082 267.722278 
L 560.481735 268.542878 
L 561.114388 268.640551 
L 561.747041 269.032825 
L 562.379694 269.053494 
L 563.012347 269.257491 
L 563.645 269.648516 
L 564.277653 269.6974 
L 564.910306 270.025554 
L 565.542959 270.880618 
L 566.175612 271.375756 
L 567.440918 271.717465 
L 568.706224 272.934377 
L 569.971531 273.583186 
L 570.604184 274.173064 
L 571.236837 274.33779 
L 571.86949 274.113269 
L 572.502143 274.239926 
L 573.767449 274.788995 
L 575.032755 274.426762 
L 575.665408 274.426762 
L 576.930714 274.868017 
L 577.563367 274.876381 
L 578.19602 275.027504 
L 579.461327 276.728499 
L 580.09398 276.952924 
L 580.726633 276.926968 
L 581.359286 277.323329 
L 581.991939 276.837756 
L 583.257245 277.301122 
L 583.889898 277.092703 
L 584.522551 277.039156 
L 585.155204 277.135963 
L 585.787857 276.750898 
L 586.42051 277.510694 
L 587.053163 277.450322 
L 588.951122 276.645439 
L 591.481735 276.634528 
L 592.114388 276.365209 
L 593.379694 276.405056 
L 594.012347 276.250713 
L 594.645 276.312671 
L 595.277653 276.152801 
L 595.910306 276.169047 
L 596.542959 275.886221 
L 597.175612 275.754854 
L 597.808265 275.740914 
L 598.440918 275.558212 
L 599.706224 277.651098 
L 600.338878 278.67704 
L 600.971531 276.999309 
L 601.604184 277.833512 
L 602.236837 276.751475 
L 602.86949 276.786805 
L 603.502143 275.209245 
L 604.134796 274.518234 
L 604.767449 273.108861 
L 605.400102 274.064433 
L 606.032755 272.899336 
L 606.665408 273.890094 
L 607.930714 272.935291 
L 608.563367 271.656564 
L 609.19602 271.082067 
L 609.828673 271.295676 
L 610.461327 272.460773 
L 611.09398 272.854682 
L 612.359286 269.815645 
L 612.991939 269.400586 
L 613.624592 269.217932 
L 614.257245 268.242075 
L 614.889898 266.906004 
L 615.522551 266.342274 
L 616.155204 267.181813 
L 616.787857 268.460588 
L 617.42051 267.466754 
L 618.053163 269.633279 
L 618.685816 272.348633 
L 619.318469 273.684703 
L 619.951122 274.248433 
L 620.583776 269.320459 
L 621.216429 268.362915 
L 621.849082 268.285239 
L 623.114388 261.91958 
L 624.379694 261.91958 
L 625.012347 263.62817 
L 625.645 263.038099 
L 625.645 263.038099 
" clip-path="url(#pa6bb9b39e7)" style="fill: none; stroke: #42537f; stroke-width: 1.5; stroke-linecap: square"/>
   </g>
   <g id="line2d_32">
    <path d="M 67.645 281.694207 
L 89.787857 281.589421 
L 94.216429 281.326638 
L 99.277653 280.576601 
L 103.073571 279.883522 
L 104.971531 279.796665 
L 109.400102 280.092181 
L 113.19602 280.329872 
L 137.236837 281.38826 
L 151.155204 281.594179 
L 189.114388 281.587546 
L 198.604184 281.468388 
L 203.665408 281.267708 
L 223.277653 281.101829 
L 227.706224 280.777136 
L 229.604184 280.40875 
L 232.767449 279.617519 
L 235.298061 278.617485 
L 235.930714 278.378448 
L 238.461327 276.792669 
L 241.624592 274.442384 
L 242.889898 273.286276 
L 243.522551 272.871361 
L 245.42051 272.051434 
L 247.318469 270.972378 
L 248.583776 270.697194 
L 249.216429 270.367983 
L 251.114388 269.935957 
L 251.747041 270.059008 
L 253.012347 269.893369 
L 253.645 270.032716 
L 254.277653 269.969315 
L 255.542959 270.231953 
L 256.175612 270.3514 
L 258.073571 271.266067 
L 261.236837 273.219511 
L 261.86949 273.534398 
L 263.134796 273.968107 
L 265.032755 274.702426 
L 266.298061 274.916613 
L 266.930714 275.133395 
L 268.19602 275.814745 
L 268.828673 276.073538 
L 271.359286 276.253886 
L 271.991939 276.022539 
L 272.624592 275.963176 
L 274.522551 276.432166 
L 275.787857 276.560938 
L 276.42051 276.736863 
L 277.053163 276.746188 
L 277.685816 276.571416 
L 278.951122 277.151345 
L 280.216429 277.362551 
L 280.849082 277.252286 
L 282.114388 276.83838 
L 282.747041 276.770125 
L 283.379694 276.514986 
L 284.645 276.208222 
L 285.277653 276.009993 
L 286.542959 276.478262 
L 287.175612 276.086468 
L 287.808265 275.875935 
L 288.440918 275.792682 
L 289.073571 275.847142 
L 289.706224 276.065992 
L 290.971531 276.188947 
L 291.604184 276.365161 
L 292.86949 276.835544 
L 294.767449 277.274829 
L 296.665408 277.582746 
L 298.563367 277.513289 
L 301.09398 277.549917 
L 305.522551 277.670709 
L 313.747041 277.609616 
L 315.645 277.244595 
L 316.910306 276.742198 
L 318.808265 276.117519 
L 324.502143 274.692813 
L 325.767449 274.489057 
L 327.032755 274.240166 
L 330.828673 274.166383 
L 332.09398 274.328705 
L 332.726633 273.884133 
L 335.889898 274.189888 
L 336.522551 274.211085 
L 337.155204 274.768711 
L 337.787857 274.897723 
L 338.42051 274.770778 
L 340.951122 275.147142 
L 341.583776 275.253851 
L 343.481735 276.381888 
L 346.012347 276.856261 
L 346.645 276.583433 
L 347.277653 276.464515 
L 347.910306 276.47634 
L 349.808265 276.872268 
L 352.971531 277.19398 
L 354.236837 277.245941 
L 356.134796 277.368415 
L 359.930714 277.930127 
L 363.09398 278.50025 
L 364.359286 278.646325 
L 371.318469 280.020705 
L 375.114388 280.433361 
L 380.175612 280.872357 
L 393.461327 281.444547 
L 400.42051 281.415178 
L 406.114388 281.08265 
L 415.604184 279.898663 
L 425.09398 279.567145 
L 428.257245 279.608194 
L 435.216429 279.52475 
L 442.175612 279.981915 
L 461.155204 280.82006 
L 467.481735 280.736471 
L 474.440918 280.201101 
L 475.706224 280.231335 
L 478.86949 279.876745 
L 480.767449 279.447987 
L 488.991939 278.264961 
L 491.522551 277.746463 
L 493.42051 277.41456 
L 497.849082 276.472014 
L 498.481735 276.678413 
L 501.012347 275.943228 
L 502.277653 275.454531 
L 502.910306 274.801396 
L 504.175612 274.073325 
L 505.440918 273.660333 
L 506.073571 273.173991 
L 506.706224 272.542583 
L 507.971531 270.597984 
L 508.604184 269.313152 
L 509.236837 269.285322 
L 509.86949 268.583831 
L 510.502143 266.299831 
L 511.134796 263.334577 
L 512.400102 254.870936 
L 513.032755 250.714629 
L 514.298061 247.182184 
L 516.19602 233.913812 
L 516.828673 235.642206 
L 517.461327 232.937043 
L 518.09398 228.394469 
L 519.359286 223.633287 
L 519.991939 223.291194 
L 520.624592 224.966473 
L 521.257245 220.516814 
L 521.889898 220.737874 
L 522.522551 220.650248 
L 523.155204 222.285391 
L 523.787857 221.91989 
L 524.42051 221.691043 
L 525.053163 221.004261 
L 526.951122 223.208038 
L 527.583776 223.483029 
L 528.216429 224.292766 
L 528.849082 225.736026 
L 530.747041 231.695664 
L 531.379694 233.540332 
L 532.012347 234.503354 
L 532.645 238.251188 
L 533.910306 242.803183 
L 535.175612 247.017795 
L 535.808265 248.227497 
L 536.440918 248.997964 
L 537.073571 250.482129 
L 538.971531 255.665532 
L 540.236837 258.432702 
L 540.86949 259.04921 
L 541.502143 260.558802 
L 542.767449 262.478599 
L 544.032755 263.695848 
L 544.665408 264.183392 
L 545.298061 264.389696 
L 549.09398 267.53448 
L 549.726633 267.832784 
L 550.991939 268.996823 
L 552.257245 269.411209 
L 553.522551 269.122086 
L 554.155204 268.91136 
L 557.951122 265.010385 
L 558.583776 264.672186 
L 561.114388 259.777954 
L 561.747041 258.766239 
L 562.379694 258.211738 
L 563.012347 258.031631 
L 563.645 257.527408 
L 564.277653 257.324998 
L 564.910306 257.311539 
L 566.808265 257.517458 
L 567.440918 257.608064 
L 568.073571 257.445021 
L 569.338878 258.17713 
L 569.971531 258.146223 
L 570.604184 258.300229 
L 571.236837 258.569549 
L 571.86949 258.580652 
L 572.502143 259.127751 
L 573.134796 259.201101 
L 573.767449 259.404954 
L 575.032755 260.192772 
L 576.298061 260.371245 
L 578.19602 261.172186 
L 578.828673 261.429392 
L 580.09398 261.504137 
L 580.726633 261.990431 
L 581.359286 264.717272 
L 581.991939 262.897744 
L 583.889898 261.536149 
L 585.787857 260.865758 
L 586.42051 261.442995 
L 587.053163 261.729523 
L 588.318469 263.236904 
L 588.951122 263.970263 
L 589.583776 264.268951 
L 590.216429 262.710378 
L 590.849082 264.670936 
L 591.481735 265.695677 
L 592.747041 267.054291 
L 593.379694 267.552554 
L 594.012347 267.63172 
L 597.175612 269.082671 
L 598.440918 269.426062 
L 602.236837 272.576903 
L 602.86949 272.757394 
L 603.502143 273.439321 
L 604.134796 273.765312 
L 604.767449 274.239012 
L 606.665408 274.901135 
L 607.298061 275.005681 
L 608.563367 275.551242 
L 609.19602 275.702605 
L 609.828673 276.285562 
L 610.461327 276.084305 
L 611.726633 276.02874 
L 613.624592 275.366424 
L 614.257245 274.774238 
L 614.889898 274.79111 
L 616.155204 274.510399 
L 618.053163 272.841752 
L 619.951122 270.841395 
L 620.583776 270.541601 
L 622.481735 267.376484 
L 624.379694 264.626474 
L 625.012347 264.236458 
L 625.645 263.232002 
L 625.645 263.232002 
" clip-path="url(#pa6bb9b39e7)" style="fill: none; stroke: #1007e1; stroke-width: 1.5; stroke-linecap: square"/>
   </g>
   <g id="text_19">
    <!-- US -->
    <g style="fill: #7516fd" transform="translate(642.385 231.870702)scale(0.14 -0.14)">
     <defs>
      <path id="DejaVuSans-55" d="M 556 4666 
L 1191 4666 
L 1191 1831 
Q 1191 1081 1462 751 
Q 1734 422 2344 422 
Q 2950 422 3222 751 
Q 3494 1081 3494 1831 
L 3494 4666 
L 4128 4666 
L 4128 1753 
Q 4128 841 3676 375 
Q 3225 -91 2344 -91 
Q 1459 -91 1007 375 
Q 556 841 556 1753 
L 556 4666 
z
" transform="scale(0.015625)"/>
      <path id="DejaVuSans-53" d="M 3425 4513 
L 3425 3897 
Q 3066 4069 2747 4153 
Q 2428 4238 2131 4238 
Q 1616 4238 1336 4038 
Q 1056 3838 1056 3469 
Q 1056 3159 1242 3001 
Q 1428 2844 1947 2747 
L 2328 2669 
Q 3034 2534 3370 2195 
Q 3706 1856 3706 1288 
Q 3706 609 3251 259 
Q 2797 -91 1919 -91 
Q 1588 -91 1214 -16 
Q 841 59 441 206 
L 441 856 
Q 825 641 1194 531 
Q 1563 422 1919 422 
Q 2459 422 2753 634 
Q 3047 847 3047 1241 
Q 3047 1584 2836 1778 
Q 2625 1972 2144 2069 
L 1759 2144 
Q 1053 2284 737 2584 
Q 422 2884 422 3419 
Q 422 4038 858 4394 
Q 1294 4750 2059 4750 
Q 2388 4750 2728 4690 
Q 3069 4631 3425 4513 
z
" transform="scale(0.015625)"/>
     </defs>
     <use xlink:href="#DejaVuSans-55"/>
     <use xlink:href="#DejaVuSans-53" x="73.193359"/>
    </g>
   </g>
   <g id="text_20">
    <!-- Germany -->
    <g style="fill: #d8b009" transform="translate(642.385 245.870702)scale(0.14 -0.14)">
     <defs>
      <path id="DejaVuSans-47" d="M 3809 666 
L 3809 1919 
L 2778 1919 
L 2778 2438 
L 4434 2438 
L 4434 434 
Q 4069 175 3628 42 
Q 3188 -91 2688 -91 
Q 1594 -91 976 548 
Q 359 1188 359 2328 
Q 359 3472 976 4111 
Q 1594 4750 2688 4750 
Q 3144 4750 3555 4637 
Q 3966 4525 4313 4306 
L 4313 3634 
Q 3963 3931 3569 4081 
Q 3175 4231 2741 4231 
Q 1884 4231 1454 3753 
Q 1025 3275 1025 2328 
Q 1025 1384 1454 906 
Q 1884 428 2741 428 
Q 3075 428 3337 486 
Q 3600 544 3809 666 
z
" transform="scale(0.015625)"/>
      <path id="DejaVuSans-65" d="M 3597 1894 
L 3597 1613 
L 953 1613 
Q 991 1019 1311 708 
Q 1631 397 2203 397 
Q 2534 397 2845 478 
Q 3156 559 3463 722 
L 3463 178 
Q 3153 47 2828 -22 
Q 2503 -91 2169 -91 
Q 1331 -91 842 396 
Q 353 884 353 1716 
Q 353 2575 817 3079 
Q 1281 3584 2069 3584 
Q 2775 3584 3186 3129 
Q 3597 2675 3597 1894 
z
M 3022 2063 
Q 3016 2534 2758 2815 
Q 2500 3097 2075 3097 
Q 1594 3097 1305 2825 
Q 1016 2553 972 2059 
L 3022 2063 
z
" transform="scale(0.015625)"/>
      <path id="DejaVuSans-72" d="M 2631 2963 
Q 2534 3019 2420 3045 
Q 2306 3072 2169 3072 
Q 1681 3072 1420 2755 
Q 1159 2438 1159 1844 
L 1159 0 
L 581 0 
L 581 3500 
L 1159 3500 
L 1159 2956 
Q 1341 3275 1631 3429 
Q 1922 3584 2338 3584 
Q 2397 3584 2469 3576 
Q 2541 3569 2628 3553 
L 2631 2963 
z
" transform="scale(0.015625)"/>
      <path id="DejaVuSans-6d" d="M 3328 2828 
Q 3544 3216 3844 3400 
Q 4144 3584 4550 3584 
Q 5097 3584 5394 3201 
Q 5691 2819 5691 2113 
L 5691 0 
L 5113 0 
L 5113 2094 
Q 5113 2597 4934 2840 
Q 4756 3084 4391 3084 
Q 3944 3084 3684 2787 
Q 3425 2491 3425 1978 
L 3425 0 
L 2847 0 
L 2847 2094 
Q 2847 2600 2669 2842 
Q 2491 3084 2119 3084 
Q 1678 3084 1418 2786 
Q 1159 2488 1159 1978 
L 1159 0 
L 581 0 
L 581 3500 
L 1159 3500 
L 1159 2956 
Q 1356 3278 1631 3431 
Q 1906 3584 2284 3584 
Q 2666 3584 2933 3390 
Q 3200 3197 3328 2828 
z
" transform="scale(0.015625)"/>
      <path id="DejaVuSans-61" d="M 2194 1759 
Q 1497 1759 1228 1600 
Q 959 1441 959 1056 
Q 959 750 1161 570 
Q 1363 391 1709 391 
Q 2188 391 2477 730 
Q 2766 1069 2766 1631 
L 2766 1759 
L 2194 1759 
z
M 3341 1997 
L 3341 0 
L 2766 0 
L 2766 531 
Q 2569 213 2275 61 
Q 1981 -91 1556 -91 
Q 1019 -91 701 211 
Q 384 513 384 1019 
Q 384 1609 779 1909 
Q 1175 2209 1959 2209 
L 2766 2209 
L 2766 2266 
Q 2766 2663 2505 2880 
Q 2244 3097 1772 3097 
Q 1472 3097 1187 3025 
Q 903 2953 641 2809 
L 641 3341 
Q 956 3463 1253 3523 
Q 1550 3584 1831 3584 
Q 2591 3584 2966 3190 
Q 3341 2797 3341 1997 
z
" transform="scale(0.015625)"/>
      <path id="DejaVuSans-6e" d="M 3513 2113 
L 3513 0 
L 2938 0 
L 2938 2094 
Q 2938 2591 2744 2837 
Q 2550 3084 2163 3084 
Q 1697 3084 1428 2787 
Q 1159 2491 1159 1978 
L 1159 0 
L 581 0 
L 581 3500 
L 1159 3500 
L 1159 2956 
Q 1366 3272 1645 3428 
Q 1925 3584 2291 3584 
Q 2894 3584 3203 3211 
Q 3513 2838 3513 2113 
z
" transform="scale(0.015625)"/>
      <path id="DejaVuSans-79" d="M 2059 -325 
Q 1816 -950 1584 -1140 
Q 1353 -1331 966 -1331 
L 506 -1331 
L 506 -850 
L 844 -850 
Q 1081 -850 1212 -737 
Q 1344 -625 1503 -206 
L 1606 56 
L 191 3500 
L 800 3500 
L 1894 763 
L 2988 3500 
L 3597 3500 
L 2059 -325 
z
" transform="scale(0.015625)"/>
     </defs>
     <use xlink:href="#DejaVuSans-47"/>
     <use xlink:href="#DejaVuSans-65" x="77.490234"/>
     <use xlink:href="#DejaVuSans-72" x="139.013672"/>
     <use xlink:href="#DejaVuSans-6d" x="178.376953"/>
     <use xlink:href="#DejaVuSans-61" x="275.789062"/>
     <use xlink:href="#DejaVuSans-6e" x="337.068359"/>
     <use xlink:href="#DejaVuSans-79" x="400.447266"/>
    </g>
   </g>
   <g id="text_21">
    <!-- France -->
    <g style="fill: #0309a6" transform="translate(642.385 259.870702)scale(0.14 -0.14)">
     <defs>
      <path id="DejaVuSans-46" d="M 628 4666 
L 3309 4666 
L 3309 4134 
L 1259 4134 
L 1259 2759 
L 3109 2759 
L 3109 2228 
L 1259 2228 
L 1259 0 
L 628 0 
L 628 4666 
z
" transform="scale(0.015625)"/>
      <path id="DejaVuSans-63" d="M 3122 3366 
L 3122 2828 
Q 2878 2963 2633 3030 
Q 2388 3097 2138 3097 
Q 1578 3097 1268 2742 
Q 959 2388 959 1747 
Q 959 1106 1268 751 
Q 1578 397 2138 397 
Q 2388 397 2633 464 
Q 2878 531 3122 666 
L 3122 134 
Q 2881 22 2623 -34 
Q 2366 -91 2075 -91 
Q 1284 -91 818 406 
Q 353 903 353 1747 
Q 353 2603 823 3093 
Q 1294 3584 2113 3584 
Q 2378 3584 2631 3529 
Q 2884 3475 3122 3366 
z
" transform="scale(0.015625)"/>
     </defs>
     <use xlink:href="#DejaVuSans-46"/>
     <use xlink:href="#DejaVuSans-72" x="50.269531"/>
     <use xlink:href="#DejaVuSans-61" x="91.382812"/>
     <use xlink:href="#DejaVuSans-6e" x="152.662109"/>
     <use xlink:href="#DejaVuSans-63" x="216.041016"/>
     <use xlink:href="#DejaVuSans-65" x="271.021484"/>
    </g>
   </g>
   <g id="text_22">
    <!-- Brazil -->
    <g style="fill: #42537f" transform="translate(642.385 273.870702)scale(0.14 -0.14)">
     <defs>
      <path id="DejaVuSans-42" d="M 1259 2228 
L 1259 519 
L 2272 519 
Q 2781 519 3026 730 
Q 3272 941 3272 1375 
Q 3272 1813 3026 2020 
Q 2781 2228 2272 2228 
L 1259 2228 
z
M 1259 4147 
L 1259 2741 
L 2194 2741 
Q 2656 2741 2882 2914 
Q 3109 3088 3109 3444 
Q 3109 3797 2882 3972 
Q 2656 4147 2194 4147 
L 1259 4147 
z
M 628 4666 
L 2241 4666 
Q 2963 4666 3353 4366 
Q 3744 4066 3744 3513 
Q 3744 3084 3544 2831 
Q 3344 2578 2956 2516 
Q 3422 2416 3680 2098 
Q 3938 1781 3938 1306 
Q 3938 681 3513 340 
Q 3088 0 2303 0 
L 628 0 
L 628 4666 
z
" transform="scale(0.015625)"/>
      <path id="DejaVuSans-7a" d="M 353 3500 
L 3084 3500 
L 3084 2975 
L 922 459 
L 3084 459 
L 3084 0 
L 275 0 
L 275 525 
L 2438 3041 
L 353 3041 
L 353 3500 
z
" transform="scale(0.015625)"/>
      <path id="DejaVuSans-69" d="M 603 3500 
L 1178 3500 
L 1178 0 
L 603 0 
L 603 3500 
z
M 603 4863 
L 1178 4863 
L 1178 4134 
L 603 4134 
L 603 4863 
z
" transform="scale(0.015625)"/>
      <path id="DejaVuSans-6c" d="M 603 4863 
L 1178 4863 
L 1178 0 
L 603 0 
L 603 4863 
z
" transform="scale(0.015625)"/>
     </defs>
     <use xlink:href="#DejaVuSans-42"/>
     <use xlink:href="#DejaVuSans-72" x="68.603516"/>
     <use xlink:href="#DejaVuSans-61" x="109.716797"/>
     <use xlink:href="#DejaVuSans-7a" x="170.996094"/>
     <use xlink:href="#DejaVuSans-69" x="223.486328"/>
     <use xlink:href="#DejaVuSans-6c" x="251.269531"/>
    </g>
   </g>
   <g id="text_23">
    <!-- Italy -->
    <g style="fill: #1007e1" transform="translate(642.385 287.870702)scale(0.14 -0.14)">
     <defs>
      <path id="DejaVuSans-49" d="M 628 4666 
L 1259 4666 
L 1259 0 
L 628 0 
L 628 4666 
z
" transform="scale(0.015625)"/>
      <path id="DejaVuSans-74" d="M 1172 4494 
L 1172 3500 
L 2356 3500 
L 2356 3053 
L 1172 3053 
L 1172 1153 
Q 1172 725 1289 603 
Q 1406 481 1766 481 
L 2356 481 
L 2356 0 
L 1766 0 
Q 1100 0 847 248 
Q 594 497 594 1153 
L 594 3053 
L 172 3053 
L 172 3500 
L 594 3500 
L 594 4494 
L 1172 4494 
z
" transform="scale(0.015625)"/>
     </defs>
     <use xlink:href="#DejaVuSans-49"/>
     <use xlink:href="#DejaVuSans-74" x="29.492188"/>
     <use xlink:href="#DejaVuSans-61" x="68.701172"/>
     <use xlink:href="#DejaVuSans-6c" x="129.980469"/>
     <use xlink:href="#DejaVuSans-79" x="157.763672"/>
    </g>
   </g>
  </g>
 </g>
 <defs>
  <clipPath id="pa6bb9b39e7">
   <rect x="67.645" y="9.894207" width="558" height="271.8"/>
  </clipPath>
 </defs>
</svg>
