<?xml version="1.0" encoding="utf-8" standalone="no"?>
<!DOCTYPE svg PUBLIC "-//W3C//DTD SVG 1.1//EN"
  "http://www.w3.org/Graphics/SVG/1.1/DTD/svg11.dtd">
<svg xmlns:xlink="http://www.w3.org/1999/xlink" width="761.954688pt" height="306.749375pt" viewBox="0 0 761.954688 306.749375" xmlns="http://www.w3.org/2000/svg" version="1.1">
 <metadata>
  <rdf:RDF xmlns:dc="http://purl.org/dc/elements/1.1/" xmlns:cc="http://creativecommons.org/ns#" xmlns:rdf="http://www.w3.org/1999/02/22-rdf-syntax-ns#">
   <cc:Work>
    <dc:type rdf:resource="http://purl.org/dc/dcmitype/StillImage"/>
    <dc:date>2022-06-29T10:15:10.678930</dc:date>
    <dc:format>image/svg+xml</dc:format>
    <dc:creator>
     <cc:Agent>
      <dc:title>Matplotlib v3.5.1, https://matplotlib.org/</dc:title>
     </cc:Agent>
    </dc:creator>
   </cc:Work>
  </rdf:RDF>
 </metadata>
 <defs>
  <style type="text/css">*{stroke-linejoin: round; stroke-linecap: butt}</style>
 </defs>
 <g id="figure_1">
  <g id="patch_1">
   <path d="M 0 306.749375 
L 761.954688 306.749375 
L 761.954688 0 
L 0 0 
L 0 306.749375 
z
" style="fill: none"/>
  </g>
  <g id="axes_1">
   <g id="patch_2">
    <path d="M 67.645 279 
L 625.645 279 
L 625.645 7.2 
L 67.645 7.2 
L 67.645 279 
z
" style="fill: none"/>
   </g>
   <g id="matplotlib.axis_1">
    <g id="xtick_1">
     <g id="line2d_1">
      <defs>
       <path id="m6c8eedb57f" d="M 0 0 
L 0 3.5 
" style="stroke: #b0b0b0; stroke-width: 0.4"/>
      </defs>
      <g>
       <use xlink:href="#m6c8eedb57f" x="108.134796" y="279" style="fill: #b0b0b0; stroke: #b0b0b0; stroke-width: 0.4"/>
      </g>
     </g>
     <g id="text_1">
      <!-- 2020-04 -->
      <g style="fill: #b0b0b0" transform="translate(78.886827 296.637812)scale(0.14 -0.14)">
       <defs>
        <path id="DejaVuSans-32" d="M 1228 531 
L 3431 531 
L 3431 0 
L 469 0 
L 469 531 
Q 828 903 1448 1529 
Q 2069 2156 2228 2338 
Q 2531 2678 2651 2914 
Q 2772 3150 2772 3378 
Q 2772 3750 2511 3984 
Q 2250 4219 1831 4219 
Q 1534 4219 1204 4116 
Q 875 4013 500 3803 
L 500 4441 
Q 881 4594 1212 4672 
Q 1544 4750 1819 4750 
Q 2544 4750 2975 4387 
Q 3406 4025 3406 3419 
Q 3406 3131 3298 2873 
Q 3191 2616 2906 2266 
Q 2828 2175 2409 1742 
Q 1991 1309 1228 531 
z
" transform="scale(0.015625)"/>
        <path id="DejaVuSans-30" d="M 2034 4250 
Q 1547 4250 1301 3770 
Q 1056 3291 1056 2328 
Q 1056 1369 1301 889 
Q 1547 409 2034 409 
Q 2525 409 2770 889 
Q 3016 1369 3016 2328 
Q 3016 3291 2770 3770 
Q 2525 4250 2034 4250 
z
M 2034 4750 
Q 2819 4750 3233 4129 
Q 3647 3509 3647 2328 
Q 3647 1150 3233 529 
Q 2819 -91 2034 -91 
Q 1250 -91 836 529 
Q 422 1150 422 2328 
Q 422 3509 836 4129 
Q 1250 4750 2034 4750 
z
" transform="scale(0.015625)"/>
        <path id="DejaVuSans-2d" d="M 313 2009 
L 1997 2009 
L 1997 1497 
L 313 1497 
L 313 2009 
z
" transform="scale(0.015625)"/>
        <path id="DejaVuSans-34" d="M 2419 4116 
L 825 1625 
L 2419 1625 
L 2419 4116 
z
M 2253 4666 
L 3047 4666 
L 3047 1625 
L 3713 1625 
L 3713 1100 
L 3047 1100 
L 3047 0 
L 2419 0 
L 2419 1100 
L 313 1100 
L 313 1709 
L 2253 4666 
z
" transform="scale(0.015625)"/>
       </defs>
       <use xlink:href="#DejaVuSans-32"/>
       <use xlink:href="#DejaVuSans-30" x="63.623047"/>
       <use xlink:href="#DejaVuSans-32" x="127.246094"/>
       <use xlink:href="#DejaVuSans-30" x="190.869141"/>
       <use xlink:href="#DejaVuSans-2d" x="254.492188"/>
       <use xlink:href="#DejaVuSans-30" x="290.576172"/>
       <use xlink:href="#DejaVuSans-34" x="354.199219"/>
      </g>
     </g>
    </g>
    <g id="xtick_2">
     <g id="line2d_2">
      <g>
       <use xlink:href="#m6c8eedb57f" x="165.706224" y="279" style="fill: #b0b0b0; stroke: #b0b0b0; stroke-width: 0.4"/>
      </g>
     </g>
     <g id="text_2">
      <!-- 2020-07 -->
      <g style="fill: #b0b0b0" transform="translate(136.458256 296.637812)scale(0.14 -0.14)">
       <defs>
        <path id="DejaVuSans-37" d="M 525 4666 
L 3525 4666 
L 3525 4397 
L 1831 0 
L 1172 0 
L 2766 4134 
L 525 4134 
L 525 4666 
z
" transform="scale(0.015625)"/>
       </defs>
       <use xlink:href="#DejaVuSans-32"/>
       <use xlink:href="#DejaVuSans-30" x="63.623047"/>
       <use xlink:href="#DejaVuSans-32" x="127.246094"/>
       <use xlink:href="#DejaVuSans-30" x="190.869141"/>
       <use xlink:href="#DejaVuSans-2d" x="254.492188"/>
       <use xlink:href="#DejaVuSans-30" x="290.576172"/>
       <use xlink:href="#DejaVuSans-37" x="354.199219"/>
      </g>
     </g>
    </g>
    <g id="xtick_3">
     <g id="line2d_3">
      <g>
       <use xlink:href="#m6c8eedb57f" x="223.910306" y="279" style="fill: #b0b0b0; stroke: #b0b0b0; stroke-width: 0.4"/>
      </g>
     </g>
     <g id="text_3">
      <!-- 2020-10 -->
      <g style="fill: #b0b0b0" transform="translate(194.662337 296.637812)scale(0.14 -0.14)">
       <defs>
        <path id="DejaVuSans-31" d="M 794 531 
L 1825 531 
L 1825 4091 
L 703 3866 
L 703 4441 
L 1819 4666 
L 2450 4666 
L 2450 531 
L 3481 531 
L 3481 0 
L 794 0 
L 794 531 
z
" transform="scale(0.015625)"/>
       </defs>
       <use xlink:href="#DejaVuSans-32"/>
       <use xlink:href="#DejaVuSans-30" x="63.623047"/>
       <use xlink:href="#DejaVuSans-32" x="127.246094"/>
       <use xlink:href="#DejaVuSans-30" x="190.869141"/>
       <use xlink:href="#DejaVuSans-2d" x="254.492188"/>
       <use xlink:href="#DejaVuSans-31" x="290.576172"/>
       <use xlink:href="#DejaVuSans-30" x="354.199219"/>
      </g>
     </g>
    </g>
    <g id="xtick_4">
     <g id="line2d_4">
      <g>
       <use xlink:href="#m6c8eedb57f" x="282.114388" y="279" style="fill: #b0b0b0; stroke: #b0b0b0; stroke-width: 0.4"/>
      </g>
     </g>
     <g id="text_4">
      <!-- 2021-01 -->
      <g style="fill: #b0b0b0" transform="translate(252.866419 296.637812)scale(0.14 -0.14)">
       <use xlink:href="#DejaVuSans-32"/>
       <use xlink:href="#DejaVuSans-30" x="63.623047"/>
       <use xlink:href="#DejaVuSans-32" x="127.246094"/>
       <use xlink:href="#DejaVuSans-31" x="190.869141"/>
       <use xlink:href="#DejaVuSans-2d" x="254.492188"/>
       <use xlink:href="#DejaVuSans-30" x="290.576172"/>
       <use xlink:href="#DejaVuSans-31" x="354.199219"/>
      </g>
     </g>
    </g>
    <g id="xtick_5">
     <g id="line2d_5">
      <g>
       <use xlink:href="#m6c8eedb57f" x="339.053163" y="279" style="fill: #b0b0b0; stroke: #b0b0b0; stroke-width: 0.4"/>
      </g>
     </g>
     <g id="text_5">
      <!-- 2021-04 -->
      <g style="fill: #b0b0b0" transform="translate(309.805195 296.637812)scale(0.14 -0.14)">
       <use xlink:href="#DejaVuSans-32"/>
       <use xlink:href="#DejaVuSans-30" x="63.623047"/>
       <use xlink:href="#DejaVuSans-32" x="127.246094"/>
       <use xlink:href="#DejaVuSans-31" x="190.869141"/>
       <use xlink:href="#DejaVuSans-2d" x="254.492188"/>
       <use xlink:href="#DejaVuSans-30" x="290.576172"/>
       <use xlink:href="#DejaVuSans-34" x="354.199219"/>
      </g>
     </g>
    </g>
    <g id="xtick_6">
     <g id="line2d_6">
      <g>
       <use xlink:href="#m6c8eedb57f" x="396.624592" y="279" style="fill: #b0b0b0; stroke: #b0b0b0; stroke-width: 0.4"/>
      </g>
     </g>
     <g id="text_6">
      <!-- 2021-07 -->
      <g style="fill: #b0b0b0" transform="translate(367.376623 296.637812)scale(0.14 -0.14)">
       <use xlink:href="#DejaVuSans-32"/>
       <use xlink:href="#DejaVuSans-30" x="63.623047"/>
       <use xlink:href="#DejaVuSans-32" x="127.246094"/>
       <use xlink:href="#DejaVuSans-31" x="190.869141"/>
       <use xlink:href="#DejaVuSans-2d" x="254.492188"/>
       <use xlink:href="#DejaVuSans-30" x="290.576172"/>
       <use xlink:href="#DejaVuSans-37" x="354.199219"/>
      </g>
     </g>
    </g>
    <g id="xtick_7">
     <g id="line2d_7">
      <g>
       <use xlink:href="#m6c8eedb57f" x="454.828673" y="279" style="fill: #b0b0b0; stroke: #b0b0b0; stroke-width: 0.4"/>
      </g>
     </g>
     <g id="text_7">
      <!-- 2021-10 -->
      <g style="fill: #b0b0b0" transform="translate(425.580705 296.637812)scale(0.14 -0.14)">
       <use xlink:href="#DejaVuSans-32"/>
       <use xlink:href="#DejaVuSans-30" x="63.623047"/>
       <use xlink:href="#DejaVuSans-32" x="127.246094"/>
       <use xlink:href="#DejaVuSans-31" x="190.869141"/>
       <use xlink:href="#DejaVuSans-2d" x="254.492188"/>
       <use xlink:href="#DejaVuSans-31" x="290.576172"/>
       <use xlink:href="#DejaVuSans-30" x="354.199219"/>
      </g>
     </g>
    </g>
    <g id="xtick_8">
     <g id="line2d_8">
      <g>
       <use xlink:href="#m6c8eedb57f" x="513.032755" y="279" style="fill: #b0b0b0; stroke: #b0b0b0; stroke-width: 0.4"/>
      </g>
     </g>
     <g id="text_8">
      <!-- 2022-01 -->
      <g style="fill: #b0b0b0" transform="translate(483.784786 296.637812)scale(0.14 -0.14)">
       <use xlink:href="#DejaVuSans-32"/>
       <use xlink:href="#DejaVuSans-30" x="63.623047"/>
       <use xlink:href="#DejaVuSans-32" x="127.246094"/>
       <use xlink:href="#DejaVuSans-32" x="190.869141"/>
       <use xlink:href="#DejaVuSans-2d" x="254.492188"/>
       <use xlink:href="#DejaVuSans-30" x="290.576172"/>
       <use xlink:href="#DejaVuSans-31" x="354.199219"/>
      </g>
     </g>
    </g>
    <g id="xtick_9">
     <g id="line2d_9">
      <g>
       <use xlink:href="#m6c8eedb57f" x="569.971531" y="279" style="fill: #b0b0b0; stroke: #b0b0b0; stroke-width: 0.4"/>
      </g>
     </g>
     <g id="text_9">
      <!-- 2022-04 -->
      <g style="fill: #b0b0b0" transform="translate(540.723562 296.637812)scale(0.14 -0.14)">
       <use xlink:href="#DejaVuSans-32"/>
       <use xlink:href="#DejaVuSans-30" x="63.623047"/>
       <use xlink:href="#DejaVuSans-32" x="127.246094"/>
       <use xlink:href="#DejaVuSans-32" x="190.869141"/>
       <use xlink:href="#DejaVuSans-2d" x="254.492188"/>
       <use xlink:href="#DejaVuSans-30" x="290.576172"/>
       <use xlink:href="#DejaVuSans-34" x="354.199219"/>
      </g>
     </g>
    </g>
   </g>
   <g id="matplotlib.axis_2">
    <g id="ytick_1">
     <g id="line2d_10">
      <path d="M 67.645 279 
L 625.645 279 
" clip-path="url(#p250fa4bb47)" style="fill: none; stroke: #b0b0b0; stroke-width: 0.3; stroke-linecap: square"/>
     </g>
     <g id="line2d_11">
      <defs>
       <path id="m04ce91a833" d="M 0 0 
L -3.5 0 
" style="stroke: #b0b0b0; stroke-width: 0.3"/>
      </defs>
      <g>
       <use xlink:href="#m04ce91a833" x="67.645" y="279" style="fill: #b0b0b0; stroke: #b0b0b0; stroke-width: 0.3"/>
      </g>
     </g>
     <g id="text_10">
      <!-- 0 -->
      <g style="fill: #b0b0b0" transform="translate(51.7375 284.318906)scale(0.14 -0.14)">
       <use xlink:href="#DejaVuSans-30"/>
      </g>
     </g>
    </g>
    <g id="ytick_2">
     <g id="line2d_12">
      <path d="M 67.645 241.971771 
L 625.645 241.971771 
" clip-path="url(#p250fa4bb47)" style="fill: none; stroke: #b0b0b0; stroke-width: 0.3; stroke-linecap: square"/>
     </g>
     <g id="line2d_13">
      <g>
       <use xlink:href="#m04ce91a833" x="67.645" y="241.971771" style="fill: #b0b0b0; stroke: #b0b0b0; stroke-width: 0.3"/>
      </g>
     </g>
     <g id="text_11">
      <!-- 50000 -->
      <g style="fill: #b0b0b0" transform="translate(16.1075 247.290678)scale(0.14 -0.14)">
       <defs>
        <path id="DejaVuSans-35" d="M 691 4666 
L 3169 4666 
L 3169 4134 
L 1269 4134 
L 1269 2991 
Q 1406 3038 1543 3061 
Q 1681 3084 1819 3084 
Q 2600 3084 3056 2656 
Q 3513 2228 3513 1497 
Q 3513 744 3044 326 
Q 2575 -91 1722 -91 
Q 1428 -91 1123 -41 
Q 819 9 494 109 
L 494 744 
Q 775 591 1075 516 
Q 1375 441 1709 441 
Q 2250 441 2565 725 
Q 2881 1009 2881 1497 
Q 2881 1984 2565 2268 
Q 2250 2553 1709 2553 
Q 1456 2553 1204 2497 
Q 953 2441 691 2322 
L 691 4666 
z
" transform="scale(0.015625)"/>
       </defs>
       <use xlink:href="#DejaVuSans-35"/>
       <use xlink:href="#DejaVuSans-30" x="63.623047"/>
       <use xlink:href="#DejaVuSans-30" x="127.246094"/>
       <use xlink:href="#DejaVuSans-30" x="190.869141"/>
       <use xlink:href="#DejaVuSans-30" x="254.492188"/>
      </g>
     </g>
    </g>
    <g id="ytick_3">
     <g id="line2d_14">
      <path d="M 67.645 204.943543 
L 625.645 204.943543 
" clip-path="url(#p250fa4bb47)" style="fill: none; stroke: #b0b0b0; stroke-width: 0.3; stroke-linecap: square"/>
     </g>
     <g id="line2d_15">
      <g>
       <use xlink:href="#m04ce91a833" x="67.645" y="204.943543" style="fill: #b0b0b0; stroke: #b0b0b0; stroke-width: 0.3"/>
      </g>
     </g>
     <g id="text_12">
      <!-- 100000 -->
      <g style="fill: #b0b0b0" transform="translate(7.2 210.262449)scale(0.14 -0.14)">
       <use xlink:href="#DejaVuSans-31"/>
       <use xlink:href="#DejaVuSans-30" x="63.623047"/>
       <use xlink:href="#DejaVuSans-30" x="127.246094"/>
       <use xlink:href="#DejaVuSans-30" x="190.869141"/>
       <use xlink:href="#DejaVuSans-30" x="254.492188"/>
       <use xlink:href="#DejaVuSans-30" x="318.115234"/>
      </g>
     </g>
    </g>
    <g id="ytick_4">
     <g id="line2d_16">
      <path d="M 67.645 167.915314 
L 625.645 167.915314 
" clip-path="url(#p250fa4bb47)" style="fill: none; stroke: #b0b0b0; stroke-width: 0.3; stroke-linecap: square"/>
     </g>
     <g id="line2d_17">
      <g>
       <use xlink:href="#m04ce91a833" x="67.645" y="167.915314" style="fill: #b0b0b0; stroke: #b0b0b0; stroke-width: 0.3"/>
      </g>
     </g>
     <g id="text_13">
      <!-- 150000 -->
      <g style="fill: #b0b0b0" transform="translate(7.2 173.23422)scale(0.14 -0.14)">
       <use xlink:href="#DejaVuSans-31"/>
       <use xlink:href="#DejaVuSans-35" x="63.623047"/>
       <use xlink:href="#DejaVuSans-30" x="127.246094"/>
       <use xlink:href="#DejaVuSans-30" x="190.869141"/>
       <use xlink:href="#DejaVuSans-30" x="254.492188"/>
       <use xlink:href="#DejaVuSans-30" x="318.115234"/>
      </g>
     </g>
    </g>
    <g id="ytick_5">
     <g id="line2d_18">
      <path d="M 67.645 130.887085 
L 625.645 130.887085 
" clip-path="url(#p250fa4bb47)" style="fill: none; stroke: #b0b0b0; stroke-width: 0.3; stroke-linecap: square"/>
     </g>
     <g id="line2d_19">
      <g>
       <use xlink:href="#m04ce91a833" x="67.645" y="130.887085" style="fill: #b0b0b0; stroke: #b0b0b0; stroke-width: 0.3"/>
      </g>
     </g>
     <g id="text_14">
      <!-- 200000 -->
      <g style="fill: #b0b0b0" transform="translate(7.2 136.205991)scale(0.14 -0.14)">
       <use xlink:href="#DejaVuSans-32"/>
       <use xlink:href="#DejaVuSans-30" x="63.623047"/>
       <use xlink:href="#DejaVuSans-30" x="127.246094"/>
       <use xlink:href="#DejaVuSans-30" x="190.869141"/>
       <use xlink:href="#DejaVuSans-30" x="254.492188"/>
       <use xlink:href="#DejaVuSans-30" x="318.115234"/>
      </g>
     </g>
    </g>
    <g id="ytick_6">
     <g id="line2d_20">
      <path d="M 67.645 93.858856 
L 625.645 93.858856 
" clip-path="url(#p250fa4bb47)" style="fill: none; stroke: #b0b0b0; stroke-width: 0.3; stroke-linecap: square"/>
     </g>
     <g id="line2d_21">
      <g>
       <use xlink:href="#m04ce91a833" x="67.645" y="93.858856" style="fill: #b0b0b0; stroke: #b0b0b0; stroke-width: 0.3"/>
      </g>
     </g>
     <g id="text_15">
      <!-- 250000 -->
      <g style="fill: #b0b0b0" transform="translate(7.2 99.177763)scale(0.14 -0.14)">
       <use xlink:href="#DejaVuSans-32"/>
       <use xlink:href="#DejaVuSans-35" x="63.623047"/>
       <use xlink:href="#DejaVuSans-30" x="127.246094"/>
       <use xlink:href="#DejaVuSans-30" x="190.869141"/>
       <use xlink:href="#DejaVuSans-30" x="254.492188"/>
       <use xlink:href="#DejaVuSans-30" x="318.115234"/>
      </g>
     </g>
    </g>
    <g id="ytick_7">
     <g id="line2d_22">
      <path d="M 67.645 56.830628 
L 625.645 56.830628 
" clip-path="url(#p250fa4bb47)" style="fill: none; stroke: #b0b0b0; stroke-width: 0.3; stroke-linecap: square"/>
     </g>
     <g id="line2d_23">
      <g>
       <use xlink:href="#m04ce91a833" x="67.645" y="56.830628" style="fill: #b0b0b0; stroke: #b0b0b0; stroke-width: 0.3"/>
      </g>
     </g>
     <g id="text_16">
      <!-- 300000 -->
      <g style="fill: #b0b0b0" transform="translate(7.2 62.149534)scale(0.14 -0.14)">
       <defs>
        <path id="DejaVuSans-33" d="M 2597 2516 
Q 3050 2419 3304 2112 
Q 3559 1806 3559 1356 
Q 3559 666 3084 287 
Q 2609 -91 1734 -91 
Q 1441 -91 1130 -33 
Q 819 25 488 141 
L 488 750 
Q 750 597 1062 519 
Q 1375 441 1716 441 
Q 2309 441 2620 675 
Q 2931 909 2931 1356 
Q 2931 1769 2642 2001 
Q 2353 2234 1838 2234 
L 1294 2234 
L 1294 2753 
L 1863 2753 
Q 2328 2753 2575 2939 
Q 2822 3125 2822 3475 
Q 2822 3834 2567 4026 
Q 2313 4219 1838 4219 
Q 1578 4219 1281 4162 
Q 984 4106 628 3988 
L 628 4550 
Q 988 4650 1302 4700 
Q 1616 4750 1894 4750 
Q 2613 4750 3031 4423 
Q 3450 4097 3450 3541 
Q 3450 3153 3228 2886 
Q 3006 2619 2597 2516 
z
" transform="scale(0.015625)"/>
       </defs>
       <use xlink:href="#DejaVuSans-33"/>
       <use xlink:href="#DejaVuSans-30" x="63.623047"/>
       <use xlink:href="#DejaVuSans-30" x="127.246094"/>
       <use xlink:href="#DejaVuSans-30" x="190.869141"/>
       <use xlink:href="#DejaVuSans-30" x="254.492188"/>
       <use xlink:href="#DejaVuSans-30" x="318.115234"/>
      </g>
     </g>
    </g>
    <g id="ytick_8">
     <g id="line2d_24">
      <path d="M 67.645 19.802399 
L 625.645 19.802399 
" clip-path="url(#p250fa4bb47)" style="fill: none; stroke: #b0b0b0; stroke-width: 0.3; stroke-linecap: square"/>
     </g>
     <g id="line2d_25">
      <g>
       <use xlink:href="#m04ce91a833" x="67.645" y="19.802399" style="fill: #b0b0b0; stroke: #b0b0b0; stroke-width: 0.3"/>
      </g>
     </g>
     <g id="text_17">
      <!-- 350000 -->
      <g style="fill: #b0b0b0" transform="translate(7.2 25.121305)scale(0.14 -0.14)">
       <use xlink:href="#DejaVuSans-33"/>
       <use xlink:href="#DejaVuSans-35" x="63.623047"/>
       <use xlink:href="#DejaVuSans-30" x="127.246094"/>
       <use xlink:href="#DejaVuSans-30" x="190.869141"/>
       <use xlink:href="#DejaVuSans-30" x="254.492188"/>
       <use xlink:href="#DejaVuSans-30" x="318.115234"/>
      </g>
     </g>
    </g>
   </g>
   <g id="line2d_26">
    <path d="M 67.645 278.999577 
L 93.583776 278.898225 
L 96.114388 278.73255 
L 98.645 278.380042 
L 99.277653 278.298474 
L 102.440918 277.237456 
L 103.706224 276.529053 
L 104.971531 276.002724 
L 105.604184 275.623026 
L 106.236837 275.409637 
L 110.665408 274.85633 
L 114.461327 275.627257 
L 115.09398 275.956809 
L 116.991939 276.423258 
L 118.257245 276.851834 
L 122.685816 277.248776 
L 123.951122 277.48946 
L 130.910306 278.262398 
L 132.808265 278.288846 
L 138.502143 278.502552 
L 142.930714 278.598826 
L 144.828673 278.65659 
L 148.624592 278.677643 
L 152.42051 278.736465 
L 155.583776 278.760057 
L 158.747041 278.67066 
L 161.910306 278.543495 
L 166.338878 278.666852 
L 180.257245 278.646645 
L 185.951122 278.510804 
L 197.971531 278.086461 
L 199.86949 277.988495 
L 209.991939 278.088153 
L 211.889898 277.996747 
L 214.42051 277.922055 
L 222.645 277.596842 
L 225.175612 277.49475 
L 228.971531 276.856066 
L 230.236837 276.500383 
L 231.502143 276.228702 
L 233.400102 275.413869 
L 234.665408 274.86236 
L 235.930714 274.37528 
L 236.563367 274.114707 
L 237.828673 273.20942 
L 239.09398 271.88984 
L 240.359286 270.948159 
L 240.991939 270.168556 
L 241.624592 269.588059 
L 242.257245 268.80105 
L 242.889898 268.341371 
L 244.155204 267.662909 
L 244.787857 267.245759 
L 246.053163 266.667484 
L 246.685816 266.368613 
L 247.318469 265.909463 
L 248.583776 265.580864 
L 249.216429 265.58298 
L 250.481735 265.249832 
L 251.114388 265.034433 
L 251.747041 265.133669 
L 252.379694 265.03528 
L 253.012347 265.303893 
L 254.277653 265.49845 
L 256.175612 265.355415 
L 256.808265 265.483004 
L 259.338878 265.492949 
L 261.86949 265.803562 
L 262.502143 265.798273 
L 263.134796 265.942471 
L 264.400102 265.897932 
L 265.032755 265.726226 
L 265.665408 265.392338 
L 266.930714 265.22169 
L 267.563367 264.846647 
L 268.19602 264.673884 
L 269.461327 263.452376 
L 270.09398 263.194977 
L 270.726633 262.768623 
L 271.359286 262.728633 
L 271.991939 261.997272 
L 274.522551 260.666478 
L 275.155204 260.636749 
L 275.787857 260.097618 
L 276.42051 260.413733 
L 277.053163 259.855983 
L 277.685816 260.728156 
L 278.318469 262.510272 
L 278.951122 263.464119 
L 280.216429 264.765714 
L 280.849082 265.007032 
L 281.481735 264.969264 
L 283.379694 265.795945 
L 285.277653 266.149935 
L 285.910306 266.801738 
L 286.542959 265.857518 
L 287.175612 264.587555 
L 287.808265 263.886029 
L 288.440918 263.605673 
L 289.073571 263.509928 
L 290.338878 263.812925 
L 290.971531 264.815967 
L 291.604184 265.452429 
L 292.236837 265.776585 
L 292.86949 266.343222 
L 293.502143 266.494827 
L 294.767449 267.382658 
L 295.400102 267.85937 
L 296.665408 268.270489 
L 297.298061 268.314076 
L 297.930714 268.838502 
L 299.828673 269.839428 
L 300.461327 270.272764 
L 302.359286 270.535559 
L 303.624592 271.258667 
L 304.889898 271.570762 
L 305.522551 271.84329 
L 306.155204 271.956808 
L 309.951122 273.65196 
L 313.747041 273.664126 
L 314.379694 273.498875 
L 316.277653 273.454335 
L 317.542959 273.184981 
L 319.440918 273.060672 
L 321.338878 272.942711 
L 322.604184 272.90272 
L 325.134796 272.804543 
L 328.298061 271.524953 
L 328.930714 271.395037 
L 330.828673 270.116505 
L 332.09398 269.449785 
L 333.359286 269.120763 
L 333.991939 268.869182 
L 335.257245 267.891214 
L 336.522551 267.057338 
L 338.42051 266.479169 
L 339.053163 266.305348 
L 339.685816 266.272022 
L 340.318469 266.5199 
L 340.951122 267.046759 
L 341.583776 267.192227 
L 342.216429 267.474065 
L 342.849082 268.254196 
L 343.481735 268.666056 
L 344.114388 268.287733 
L 345.379694 267.057656 
L 346.645 266.140096 
L 347.277653 264.868864 
L 347.910306 263.9147 
L 349.808265 263.766164 
L 351.073571 264.0845 
L 351.706224 263.746909 
L 352.338878 263.737176 
L 352.971531 263.556055 
L 354.86949 263.593506 
L 355.502143 263.448885 
L 356.134796 263.729558 
L 356.767449 264.23547 
L 357.400102 264.575495 
L 358.032755 265.047023 
L 359.298061 265.60033 
L 361.19602 266.702925 
L 361.828673 267.321191 
L 363.726633 268.286252 
L 364.359286 268.435317 
L 364.991939 268.765927 
L 365.624592 269.245601 
L 366.889898 270.826177 
L 367.522551 271.265861 
L 368.787857 271.628314 
L 369.42051 272.037635 
L 370.053163 272.579411 
L 370.685816 272.850987 
L 371.951122 273.125842 
L 373.216429 273.657779 
L 373.849082 274.547937 
L 374.481735 275.18112 
L 375.747041 275.503266 
L 376.379694 275.806051 
L 377.645 275.893861 
L 378.277653 275.651484 
L 378.910306 275.828479 
L 380.175612 276.605755 
L 381.440918 276.846227 
L 382.073571 276.907693 
L 383.338878 277.237351 
L 387.134796 277.763998 
L 388.400102 278.104763 
L 390.298061 278.279642 
L 401.053163 278.525404 
L 408.012347 278.075564 
L 416.86949 277.38631 
L 418.767449 277.235975 
L 421.298061 276.901028 
L 422.563367 276.674733 
L 425.09398 275.80002 
L 426.359286 275.548757 
L 428.889898 274.253827 
L 430.155204 273.845036 
L 430.787857 273.650902 
L 433.318469 272.336612 
L 434.583776 272.097832 
L 435.216429 272.097515 
L 437.114388 271.538812 
L 437.747041 271.482529 
L 438.379694 271.267025 
L 440.277653 271.140071 
L 440.910306 270.958527 
L 441.542959 271.094156 
L 442.175612 271.05406 
L 442.808265 271.38287 
L 443.440918 271.302254 
L 444.706224 271.462111 
L 446.604184 272.177919 
L 447.236837 272.178765 
L 451.032755 273.305587 
L 451.665408 273.259355 
L 452.930714 273.38705 
L 455.461327 272.913406 
L 456.09398 273.083735 
L 459.889898 273.019941 
L 460.522551 272.86675 
L 462.42051 272.808457 
L 463.685816 272.61517 
L 464.951122 272.280329 
L 466.216429 271.989922 
L 466.849082 271.449098 
L 467.481735 271.058186 
L 468.114388 270.206113 
L 470.012347 268.961647 
L 470.645 268.569994 
L 471.277653 267.914383 
L 471.910306 266.649076 
L 473.808265 265.099286 
L 474.440918 264.772908 
L 475.073571 264.736938 
L 475.706224 265.034645 
L 476.338878 264.409185 
L 477.604184 261.773727 
L 478.86949 260.450127 
L 479.502143 259.284373 
L 480.767449 255.526007 
L 482.665408 252.081959 
L 483.298061 251.225655 
L 483.930714 250.144854 
L 485.19602 247.148212 
L 485.828673 246.69012 
L 486.461327 244.696626 
L 487.09398 243.720244 
L 487.726633 242.975871 
L 489.624592 238.963492 
L 490.257245 236.483236 
L 490.889898 236.144586 
L 491.522551 235.967485 
L 492.155204 236.102797 
L 493.42051 236.025673 
L 495.318469 236.811623 
L 496.583776 237.221473 
L 497.216429 238.247049 
L 497.849082 237.991554 
L 498.481735 238.266409 
L 499.747041 240.792475 
L 500.379694 241.7879 
L 501.645 242.986451 
L 502.277653 244.922498 
L 502.910306 246.396645 
L 504.175612 248.639921 
L 504.808265 248.988832 
L 505.440918 249.587314 
L 506.073571 250.369668 
L 506.706224 250.966563 
L 507.338878 252.209653 
L 507.971531 253.853389 
L 509.236837 258.069 
L 510.502143 258.547828 
L 511.134796 259.141973 
L 511.767449 259.370172 
L 512.400102 258.755609 
L 513.032755 258.313598 
L 513.665408 258.058103 
L 514.298061 257.570389 
L 514.930714 256.567347 
L 516.828673 250.692131 
L 517.461327 247.571497 
L 518.09398 245.028504 
L 518.726633 244.315764 
L 519.359286 242.715192 
L 519.991939 240.438697 
L 520.624592 238.632037 
L 521.257245 234.835268 
L 521.889898 232.493708 
L 522.522551 230.806068 
L 523.155204 229.865551 
L 524.42051 223.453531 
L 526.318469 206.791357 
L 527.583776 200.212604 
L 528.849082 189.185915 
L 529.481735 181.822588 
L 530.747041 170.852393 
L 531.379694 167.305089 
L 532.012347 165.726099 
L 532.645 161.953663 
L 533.277653 157.246 
L 533.910306 153.75646 
L 534.542959 147.547355 
L 535.175612 144.516436 
L 535.808265 143.01383 
L 536.440918 141.220712 
L 537.073571 140.48459 
L 537.706224 137.760159 
L 538.338878 136.517915 
L 540.236837 139.131579 
L 540.86949 141.120735 
L 541.502143 142.216136 
L 542.767449 145.021183 
L 544.032755 149.338463 
L 544.665408 150.092569 
L 545.298061 150.367425 
L 545.930714 153.891983 
L 546.563367 155.047264 
L 547.19602 157.089529 
L 547.828673 158.073951 
L 548.461327 159.478062 
L 549.726633 161.767147 
L 550.359286 162.168215 
L 550.991939 164.564048 
L 551.624592 165.161683 
L 552.257245 164.436988 
L 552.889898 162.704384 
L 553.522551 161.754769 
L 554.155204 160.053692 
L 555.42051 153.268428 
L 556.053163 147.758733 
L 556.685816 144.030202 
L 557.318469 139.282548 
L 557.951122 136.138534 
L 558.583776 134.662695 
L 561.114388 117.099042 
L 561.747041 114.649572 
L 562.379694 116.216924 
L 563.012347 116.223695 
L 564.910306 109.052173 
L 565.542959 109.194679 
L 566.175612 110.063573 
L 566.808265 112.239563 
L 567.440918 114.864653 
L 568.073571 113.248953 
L 568.706224 114.862855 
L 569.338878 92.741133 
L 569.971531 124.115045 
L 570.604184 129.99407 
L 571.236837 129.575334 
L 572.502143 142.742149 
L 573.134796 127.059424 
L 573.767449 164.322941 
L 574.400102 148.376364 
L 575.032755 163.291863 
L 575.665408 172.220216 
L 576.298061 151.014467 
L 576.930714 155.430982 
L 577.563367 182.022117 
L 578.19602 183.968638 
L 578.828673 195.934786 
L 579.461327 197.594391 
L 580.09398 198.68482 
L 580.726633 217.511981 
L 581.359286 211.171479 
L 581.991939 208.954334 
L 582.624592 208.440806 
L 583.257245 198.124636 
L 584.522551 198.230748 
L 585.155204 186.136799 
L 585.787857 207.145876 
L 586.42051 198.106756 
L 587.053163 204.465878 
L 587.685816 209.520866 
L 588.318469 212.426101 
L 588.951122 214.124322 
L 589.583776 216.586805 
L 590.216429 205.305784 
L 590.849082 223.883164 
L 592.114388 227.224486 
L 592.747041 227.566203 
L 593.379694 227.638356 
L 594.012347 228.268259 
L 594.645 229.286112 
L 595.277653 230.04847 
L 595.910306 231.749018 
L 596.542959 232.848545 
L 597.175612 233.095787 
L 597.808265 233.206343 
L 599.073571 238.102004 
L 599.706224 241.301455 
L 600.971531 245.488078 
L 601.604184 245.734368 
L 602.236837 245.846511 
L 604.134796 252.589775 
L 604.767449 257.568273 
L 605.400102 257.822075 
L 607.298061 258.260912 
L 607.930714 257.645609 
L 608.563367 256.714931 
L 609.19602 252.39416 
L 609.828673 252.276622 
L 610.461327 252.563643 
L 611.09398 252.286355 
L 611.726633 258.648757 
L 614.257245 246.136706 
L 614.889898 246.136706 
L 615.522551 245.924905 
L 616.155204 234.91271 
L 616.787857 234.099252 
L 617.42051 232.881976 
L 618.053163 238.146332 
L 618.685816 236.567131 
L 619.318469 236.566919 
L 619.951122 236.401562 
L 620.583776 234.575859 
L 621.849082 228.534333 
L 622.481735 220.06312 
L 623.114388 219.103349 
L 623.747041 219.103455 
L 624.379694 219.753247 
L 625.012347 217.718599 
L 625.645 216.161509 
L 625.645 216.161509 
" clip-path="url(#p250fa4bb47)" style="fill: none; stroke: #d8b009; stroke-width: 1.5; stroke-linecap: square"/>
   </g>
   <g id="line2d_27">
    <path d="M 67.645 278.999577 
L 92.951122 278.894734 
L 96.114388 278.675739 
L 98.645 278.372424 
L 101.175612 277.945542 
L 102.440918 277.578433 
L 103.706224 277.285381 
L 106.236837 276.510116 
L 106.86949 276.405379 
L 107.502143 275.835779 
L 108.134796 275.636356 
L 108.767449 275.828797 
L 109.400102 275.677298 
L 110.032755 277.975588 
L 111.298061 278.339945 
L 111.930714 279 
L 113.828673 279 
L 114.461327 277.871274 
L 115.09398 272.592318 
L 115.726633 272.541325 
L 116.359286 270.326296 
L 116.991939 270.394851 
L 117.624592 269.464491 
L 118.257245 269.430107 
L 118.889898 269.180537 
L 119.522551 274.433573 
L 120.155204 274.506995 
L 120.787857 276.070856 
L 121.42051 276.219815 
L 122.053163 277.731307 
L 122.685816 277.633976 
L 123.318469 277.858896 
L 123.951122 277.907667 
L 125.216429 277.727287 
L 125.849082 278.071544 
L 126.481735 277.761882 
L 127.114388 278.003623 
L 128.379694 278.126134 
L 129.645 278.669814 
L 130.277653 278.078314 
L 132.175612 278.15618 
L 134.073571 278.232669 
L 134.706224 278.615118 
L 143.563367 278.800788 
L 144.19602 278.475363 
L 144.828673 278.492502 
L 146.09398 278.289481 
L 147.359286 278.376233 
L 147.991939 278.73583 
L 149.257245 278.629612 
L 149.889898 278.758893 
L 151.787857 278.634478 
L 152.42051 278.227062 
L 153.053163 278.649819 
L 156.216429 278.632257 
L 160.012347 278.61607 
L 163.175612 278.638499 
L 163.808265 278.717845 
L 166.338878 278.585284 
L 167.604184 278.671401 
L 170.134796 278.604115 
L 176.461327 278.599249 
L 178.359286 278.492502 
L 186.583776 278.137031 
L 192.277653 277.642016 
L 193.542959 277.473167 
L 194.808265 276.822105 
L 195.440918 277.25851 
L 196.706224 277.058134 
L 197.971531 276.616969 
L 198.604184 276.589039 
L 200.502143 276.109788 
L 201.134796 276.48007 
L 201.767449 275.800232 
L 203.032755 275.307545 
L 204.298061 275.118807 
L 204.930714 274.958951 
L 205.563367 274.239545 
L 206.19602 274.673728 
L 206.828673 274.543071 
L 207.461327 274.211509 
L 211.889898 272.943557 
L 212.522551 273.014546 
L 213.787857 272.682138 
L 214.42051 272.505672 
L 215.053163 272.455208 
L 215.685816 272.063343 
L 216.318469 271.828161 
L 216.951122 271.384774 
L 217.583776 271.4674 
L 218.849082 270.914833 
L 219.481735 270.314976 
L 220.114388 270.011239 
L 221.379694 269.93094 
L 222.645 270.282074 
L 223.277653 270.162102 
L 224.542959 270.855271 
L 225.808265 270.414846 
L 226.440918 270.273081 
L 227.073571 269.923429 
L 228.338878 268.975083 
L 229.604184 266.990582 
L 232.134796 265.573882 
L 232.767449 264.266785 
L 234.032755 263.201959 
L 234.665408 261.73744 
L 235.298061 261.200213 
L 235.930714 260.486097 
L 236.563367 260.015839 
L 237.19602 258.84617 
L 237.828673 257.02491 
L 238.461327 255.636246 
L 239.09398 258.09291 
L 239.726633 251.880631 
L 240.359286 250.390827 
L 240.991939 249.318066 
L 242.257245 248.001131 
L 242.889898 249.07643 
L 244.155204 241.391063 
L 244.787857 237.355726 
L 245.42051 246.207695 
L 246.685816 243.81017 
L 247.318469 238.356018 
L 247.951122 239.161858 
L 248.583776 248.119198 
L 249.216429 253.407675 
L 249.849082 244.676736 
L 250.481735 247.349328 
L 251.114388 251.24438 
L 251.747041 257.031152 
L 253.012347 259.437352 
L 253.645 257.005126 
L 254.277653 257.805148 
L 254.910306 259.050248 
L 255.542959 259.142396 
L 256.808265 262.141576 
L 257.440918 262.669282 
L 258.073571 266.444257 
L 258.706224 267.723212 
L 259.338878 268.547143 
L 259.971531 269.656932 
L 260.604184 270.206325 
L 261.236837 270.562536 
L 262.502143 270.798776 
L 263.134796 271.06612 
L 266.298061 271.148852 
L 266.930714 270.556294 
L 268.19602 270.394216 
L 269.461327 270.072282 
L 270.726633 270.033667 
L 271.359286 270.279006 
L 271.991939 269.95686 
L 272.624592 269.478032 
L 275.155204 268.424315 
L 275.787857 268.409927 
L 276.42051 268.69917 
L 277.685816 267.883808 
L 278.318469 269.400379 
L 279.583776 270.124545 
L 280.216429 270.163372 
L 280.849082 268.943768 
L 282.114388 269.220951 
L 282.747041 269.181489 
L 283.379694 268.798088 
L 284.012347 268.694621 
L 284.645 267.706602 
L 285.277653 267.847098 
L 285.910306 267.660369 
L 286.542959 267.60726 
L 287.175612 265.839321 
L 287.808265 265.474011 
L 289.073571 265.6162 
L 290.338878 265.79457 
L 292.236837 265.436242 
L 292.86949 265.438147 
L 293.502143 264.986826 
L 294.134796 264.687849 
L 295.400102 264.330051 
L 296.665408 263.856301 
L 297.298061 263.803086 
L 297.930714 264.002086 
L 300.461327 263.879999 
L 302.359286 263.649154 
L 302.991939 263.706813 
L 303.624592 266.223463 
L 304.257245 263.856618 
L 304.889898 264.222351 
L 306.155204 264.187016 
L 306.787857 264.643733 
L 307.42051 264.74921 
L 308.053163 262.521592 
L 308.685816 265.155674 
L 309.318469 265.087648 
L 309.951122 265.409265 
L 311.849082 265.3807 
L 312.481735 265.228144 
L 313.114388 264.866537 
L 313.747041 264.74593 
L 314.379694 264.177706 
L 315.645 264.088309 
L 316.277653 263.402017 
L 316.910306 263.095635 
L 318.175612 262.796447 
L 318.808265 263.017982 
L 319.440918 263.009941 
L 320.073571 262.726517 
L 320.706224 263.225446 
L 321.338878 263.238987 
L 322.604184 263.495752 
L 323.86949 263.209576 
L 324.502143 263.176992 
L 325.767449 262.578615 
L 326.400102 262.412729 
L 327.032755 261.738709 
L 327.665408 261.25036 
L 328.298061 261.152817 
L 328.930714 260.428439 
L 330.828673 257.690043 
L 332.09398 256.653993 
L 332.726633 255.666397 
L 333.359286 257.288339 
L 333.991939 254.445524 
L 334.624592 253.325473 
L 336.522551 251.155618 
L 337.155204 251.864762 
L 337.787857 250.169186 
L 338.42051 250.840032 
L 339.685816 249.801549 
L 340.318469 254.293496 
L 340.951122 249.690676 
L 341.583776 249.5122 
L 342.216429 251.910254 
L 342.849082 258.059373 
L 343.481735 253.155037 
L 344.114388 258.076512 
L 344.747041 257.945538 
L 345.379694 254.002878 
L 346.012347 254.240176 
L 346.645 250.952704 
L 347.277653 246.447955 
L 347.910306 252.688587 
L 349.175612 245.203066 
L 349.808265 254.568457 
L 350.440918 254.763332 
L 351.073571 254.240176 
L 351.706224 255.148214 
L 352.971531 256.074025 
L 353.604184 256.415849 
L 354.236837 256.931387 
L 354.86949 257.010839 
L 355.502143 258.465625 
L 356.134796 258.823424 
L 358.032755 261.136736 
L 358.665408 262.679649 
L 359.298061 262.91134 
L 360.563367 264.126395 
L 362.461327 265.701576 
L 363.726633 265.834984 
L 364.991939 266.796871 
L 365.624592 267.035121 
L 366.257245 268.314817 
L 366.889898 268.853736 
L 367.522551 268.335553 
L 368.155204 268.330051 
L 369.42051 268.859978 
L 370.053163 279 
L 373.849082 279 
L 374.481735 271.895341 
L 377.012347 272.485359 
L 377.645 271.776745 
L 378.277653 272.972545 
L 378.910306 272.800522 
L 380.808265 274.14105 
L 381.440918 274.055991 
L 382.073571 274.461397 
L 382.706224 274.015471 
L 383.338878 275.187256 
L 384.604184 275.796741 
L 385.236837 276.03023 
L 385.86949 276.080589 
L 387.767449 276.897008 
L 394.726633 277.643815 
L 395.359286 277.518765 
L 395.991939 277.61927 
L 399.787857 277.229839 
L 401.053163 276.755349 
L 402.951122 276.195482 
L 403.583776 276.146182 
L 404.216429 275.789653 
L 404.849082 276.068211 
L 407.379694 273.159485 
L 408.012347 272.850034 
L 408.645 271.658889 
L 409.277653 269.529978 
L 409.910306 268.36179 
L 410.542959 267.465284 
L 411.175612 265.906289 
L 411.808265 265.619585 
L 412.440918 265.490409 
L 413.073571 264.547671 
L 413.706224 263.875873 
L 414.338878 263.523682 
L 414.971531 263.005181 
L 415.604184 263.203969 
L 416.86949 262.394638 
L 417.502143 262.694038 
L 420.665408 261.953473 
L 421.298061 262.098835 
L 422.563367 261.236924 
L 423.828673 260.735667 
L 424.461327 260.886954 
L 425.09398 260.801366 
L 425.726633 260.147659 
L 428.257245 261.799859 
L 428.889898 261.981191 
L 429.522551 262.401091 
L 430.155204 262.981482 
L 430.787857 262.897799 
L 432.053163 264.170194 
L 432.685816 266.549628 
L 433.318469 265.182969 
L 433.951122 265.571237 
L 434.583776 265.594829 
L 435.216429 268.33386 
L 435.849082 267.336954 
L 436.481735 267.921895 
L 437.114388 266.359621 
L 437.747041 268.718319 
L 438.379694 269.058979 
L 439.012347 269.549655 
L 439.645 268.01383 
L 440.277653 270.891241 
L 440.910306 270.471658 
L 441.542959 271.022533 
L 442.808265 271.659207 
L 444.073571 271.745641 
L 444.706224 272.332591 
L 445.338878 272.727841 
L 447.236837 273.370334 
L 447.86949 273.451902 
L 448.502143 274.052817 
L 449.134796 273.339548 
L 449.767449 274.088258 
L 450.400102 274.202623 
L 451.032755 274.477901 
L 457.359286 275.496072 
L 457.991939 275.127376 
L 461.787857 275.205876 
L 462.42051 276.064508 
L 463.053163 275.594144 
L 463.685816 275.446665 
L 466.216429 275.462535 
L 466.849082 274.988679 
L 467.481735 275.345208 
L 468.114388 275.317172 
L 469.379694 275.042423 
L 470.645 274.943187 
L 471.277653 274.838027 
L 472.542959 274.853367 
L 474.440918 274.548255 
L 475.073571 275.041577 
L 476.971531 274.077996 
L 478.236837 273.604564 
L 478.86949 273.566689 
L 479.502143 272.46018 
L 480.134796 272.286888 
L 480.767449 271.943478 
L 481.400102 272.493188 
L 482.665408 271.545371 
L 483.298061 271.432594 
L 485.19602 268.947259 
L 485.828673 267.108226 
L 487.09398 265.492102 
L 487.726633 265.277127 
L 488.991939 262.855586 
L 491.522551 257.297755 
L 492.155204 256.958365 
L 494.685816 250.093331 
L 495.318469 248.572529 
L 495.951122 247.4547 
L 496.583776 247.128005 
L 497.849082 244.724556 
L 498.481735 243.831541 
L 499.114388 243.271462 
L 500.379694 242.832413 
L 501.012347 242.783113 
L 502.910306 241.435603 
L 503.542959 241.119593 
L 504.808265 240.141836 
L 505.440918 239.821172 
L 506.073571 238.819717 
L 506.706224 236.852143 
L 507.971531 229.794668 
L 508.604184 224.920166 
L 509.236837 227.118162 
L 509.86949 225.494315 
L 511.134796 201.074516 
L 511.767449 188.918043 
L 513.032755 162.195405 
L 513.665408 158.943797 
L 514.298061 155.028538 
L 514.930714 145.277842 
L 515.563367 132.14869 
L 516.19602 126.186933 
L 517.461327 107.081531 
L 518.09398 81.937777 
L 518.726633 79.139289 
L 519.359286 68.89379 
L 519.991939 65.764693 
L 520.624592 60.952081 
L 521.257245 60.795928 
L 521.889898 58.580476 
L 522.522551 60.481399 
L 523.155204 59.55855 
L 523.787857 49.354311 
L 524.42051 41.453439 
L 525.053163 28.871564 
L 526.318469 14.438067 
L 526.951122 11.950404 
L 527.583776 11.228565 
L 528.216429 7.2 
L 528.849082 8.13565 
L 529.481735 11.702844 
L 530.114388 16.691076 
L 531.379694 28.233621 
L 532.012347 30.458488 
L 532.645 39.833401 
L 535.808265 98.195074 
L 536.440918 102.384447 
L 537.073571 121.009117 
L 537.706224 154.229469 
L 538.338878 148.101297 
L 539.604184 169.65363 
L 540.236837 176.940151 
L 540.86949 178.657732 
L 541.502143 203.702039 
L 542.134796 178.219635 
L 542.767449 203.68617 
L 544.032755 213.260717 
L 544.665408 216.175474 
L 545.298061 217.458449 
L 545.930714 207.349425 
L 546.563367 225.267914 
L 548.461327 233.191743 
L 549.09398 234.928262 
L 549.726633 235.428354 
L 550.991939 238.844684 
L 551.624592 239.607995 
L 552.889898 239.641849 
L 553.522551 239.353241 
L 554.155204 239.294207 
L 556.053163 235.268392 
L 556.685816 233.786205 
L 557.951122 230.553747 
L 558.583776 229.887344 
L 559.216429 227.381062 
L 559.849082 223.293886 
L 561.747041 214.871551 
L 562.379694 212.517931 
L 563.012347 212.31618 
L 563.645 205.566146 
L 565.542959 191.891621 
L 566.175612 187.510335 
L 566.808265 184.453814 
L 567.440918 183.895851 
L 568.073571 180.036028 
L 568.706224 178.452384 
L 569.338878 175.366451 
L 569.971531 174.791562 
L 571.236837 176.411388 
L 571.86949 176.166896 
L 572.502143 177.004474 
L 573.134796 178.92095 
L 573.767449 180.048935 
L 574.400102 180.053802 
L 575.032755 179.031082 
L 575.665408 178.461059 
L 576.298061 179.15719 
L 576.930714 181.166236 
L 577.563367 181.639033 
L 578.828673 186.408692 
L 579.461327 189.603488 
L 580.09398 191.825605 
L 580.726633 192.431598 
L 581.359286 209.916539 
L 581.991939 208.934762 
L 584.522551 222.597015 
L 585.155204 223.205124 
L 585.787857 215.587042 
L 586.42051 224.895516 
L 587.053163 229.548801 
L 588.318469 236.597917 
L 588.951122 238.949527 
L 589.583776 239.510135 
L 590.216429 242.724714 
L 590.849082 244.810673 
L 592.114388 247.816307 
L 592.747041 249.035488 
L 593.379694 249.818582 
L 594.012347 249.966589 
L 594.645 251.093517 
L 597.808265 255.018086 
L 598.440918 255.167574 
L 599.073571 256.514767 
L 599.706224 253.987008 
L 601.604184 256.601624 
L 602.236837 257.223593 
L 602.86949 260.988412 
L 603.502143 262.19934 
L 604.134796 266.679756 
L 604.767449 267.378849 
L 605.400102 269.444813 
L 606.032755 269.331083 
L 606.665408 269.386625 
L 607.298061 265.755849 
L 608.563367 264.991481 
L 609.19602 264.553278 
L 609.828673 262.405006 
L 610.461327 262.236792 
L 611.09398 261.802821 
L 611.726633 261.638627 
L 612.359286 264.125972 
L 612.991939 261.196616 
L 613.624592 259.633496 
L 615.522551 267.128432 
L 616.155204 267.783515 
L 616.787857 250.333486 
L 617.42051 250.532486 
L 618.053163 249.164558 
L 618.685816 243.818634 
L 619.951122 243.808689 
L 620.583776 233.02427 
L 621.216429 241.602653 
L 623.114388 232.983433 
L 624.379694 232.983433 
L 625.645 220.793317 
L 625.645 220.793317 
" clip-path="url(#p250fa4bb47)" style="fill: none; stroke: #0309a6; stroke-width: 1.5; stroke-linecap: square"/>
   </g>
   <g id="line2d_28">
    <path d="M 67.645 279 
L 87.257245 278.90817 
L 90.42051 278.721125 
L 92.951122 278.398979 
L 96.747041 277.384088 
L 99.910306 276.257584 
L 101.175612 275.570022 
L 103.073571 275.014705 
L 104.338878 274.815387 
L 106.236837 274.921499 
L 108.767449 275.333888 
L 110.665408 275.692956 
L 111.930714 275.847946 
L 113.828673 276.06419 
L 116.359286 276.153905 
L 117.624592 276.321801 
L 118.889898 276.497527 
L 120.787857 276.728688 
L 121.42051 276.654315 
L 123.318469 276.944828 
L 133.440918 278.166759 
L 134.706224 278.190986 
L 141.032755 278.516835 
L 156.216429 278.794864 
L 158.747041 278.828189 
L 163.175612 278.803116 
L 179.624592 278.830517 
L 193.542959 278.677008 
L 201.134796 278.231717 
L 203.665408 278.061282 
L 218.216429 277.846095 
L 224.542959 277.553466 
L 227.706224 276.981538 
L 228.971531 276.475521 
L 232.134796 274.888914 
L 234.032755 273.388425 
L 234.665408 272.727312 
L 235.930714 271.702054 
L 238.461327 268.211773 
L 241.624592 263.038823 
L 242.889898 260.494243 
L 243.522551 259.581022 
L 245.42051 257.776371 
L 247.318469 255.401381 
L 248.583776 254.795705 
L 249.216429 254.071115 
L 250.481735 253.448195 
L 251.114388 253.12023 
L 251.747041 253.391065 
L 253.012347 253.026496 
L 253.645 253.333196 
L 254.277653 253.193652 
L 254.910306 253.384189 
L 256.808265 254.631299 
L 257.440918 255.099442 
L 258.706224 256.939428 
L 259.338878 257.698506 
L 261.236837 260.347294 
L 261.86949 261.040357 
L 262.502143 261.450841 
L 265.032755 263.611174 
L 266.298061 264.082596 
L 266.930714 264.559731 
L 268.19602 266.059375 
L 268.828673 266.628975 
L 271.359286 267.025917 
L 271.991939 266.516726 
L 272.624592 266.386069 
L 274.522551 267.418311 
L 275.787857 267.701735 
L 276.42051 268.088945 
L 277.053163 268.109469 
L 277.685816 267.724799 
L 278.951122 269.001215 
L 280.216429 269.466077 
L 280.849082 269.223384 
L 281.481735 268.648071 
L 282.114388 268.312384 
L 282.747041 268.162155 
L 283.379694 267.600595 
L 284.012347 267.366048 
L 285.277653 266.489114 
L 286.542959 267.519768 
L 287.175612 266.657433 
L 287.808265 266.194052 
L 288.440918 266.010815 
L 289.073571 266.13068 
L 289.706224 266.612365 
L 290.971531 266.882988 
L 291.604184 267.270832 
L 292.236837 267.914172 
L 293.502143 268.70245 
L 294.767449 269.273002 
L 296.665408 269.950724 
L 297.930714 269.969556 
L 298.563367 269.79785 
L 299.828673 269.772989 
L 302.359286 270.044247 
L 302.991939 270.256789 
L 303.624592 270.331268 
L 306.787857 270.038005 
L 307.42051 270.062867 
L 308.053163 269.906184 
L 311.849082 270.177654 
L 312.481735 270.323863 
L 314.379694 269.757014 
L 315.645 269.206457 
L 316.277653 268.74773 
L 317.542959 267.569809 
L 320.706224 265.488928 
L 321.971531 264.801684 
L 322.604184 264.301169 
L 323.236837 263.953738 
L 323.86949 263.871641 
L 324.502143 263.590015 
L 325.134796 263.438199 
L 327.032755 262.593744 
L 330.19602 262.316773 
L 331.461327 262.655422 
L 332.09398 262.788618 
L 332.726633 261.810121 
L 335.257245 262.474725 
L 336.522551 262.529738 
L 337.155204 263.757065 
L 337.787857 264.041019 
L 338.42051 263.761614 
L 339.685816 264.148401 
L 340.951122 264.589989 
L 341.583776 264.824853 
L 342.216429 265.702105 
L 342.849082 266.781319 
L 343.481735 267.307649 
L 345.379694 268.256524 
L 346.012347 268.351739 
L 346.645 267.751247 
L 347.277653 267.489511 
L 347.910306 267.515536 
L 349.808265 268.386969 
L 351.073571 268.628922 
L 351.706224 268.87479 
L 358.032755 269.891056 
L 358.665408 270.315505 
L 359.298061 270.579358 
L 359.930714 270.715304 
L 362.461327 271.879577 
L 363.726633 272.062074 
L 364.991939 272.580575 
L 366.889898 273.662328 
L 368.787857 274.366711 
L 371.951122 275.502314 
L 373.849082 275.899997 
L 376.379694 276.479965 
L 378.277653 276.738845 
L 379.542959 277.094422 
L 382.073571 277.382607 
L 389.032755 278.088788 
L 394.726633 278.471448 
L 397.889898 278.447539 
L 401.053163 278.331693 
L 405.481735 277.813616 
L 408.645 276.948636 
L 412.440918 275.720145 
L 414.338878 275.348699 
L 416.236837 274.986881 
L 417.502143 274.945092 
L 419.400102 274.739849 
L 423.19602 274.425321 
L 424.461327 274.310745 
L 430.155204 274.298367 
L 431.42051 274.172471 
L 435.216429 274.225051 
L 437.747041 274.574175 
L 440.910306 275.011531 
L 442.808265 275.300034 
L 445.338878 275.591922 
L 447.236837 275.858102 
L 449.134796 276.057525 
L 451.665408 276.439445 
L 454.828673 276.665952 
L 458.624592 276.892671 
L 464.318469 277.156417 
L 466.849082 277.011055 
L 473.808265 275.743632 
L 474.440918 275.713692 
L 475.073571 275.842973 
L 476.338878 275.670316 
L 478.86949 274.999788 
L 480.767449 274.056097 
L 482.665408 273.497182 
L 483.930714 273.247929 
L 489.624592 271.123144 
L 490.257245 270.792323 
L 490.889898 270.651721 
L 491.522551 270.311062 
L 492.155204 270.145069 
L 494.685816 268.90473 
L 495.318469 268.507152 
L 497.216429 267.809963 
L 497.849082 267.506015 
L 498.481735 267.960298 
L 499.747041 267.126317 
L 502.277653 265.266547 
L 502.910306 263.829006 
L 504.175612 262.22653 
L 504.808265 261.687928 
L 505.440918 261.31754 
L 506.073571 260.247106 
L 506.706224 258.857384 
L 507.338878 256.902188 
L 507.971531 254.577344 
L 508.604184 251.749445 
L 509.236837 251.68819 
L 509.86949 250.144219 
L 510.502143 245.117161 
L 511.134796 238.590671 
L 512.400102 219.962298 
L 513.032755 210.814315 
L 514.298061 203.039445 
L 516.19602 173.835916 
L 516.828673 177.64009 
L 517.461327 171.686057 
L 518.09398 161.687906 
L 519.359286 151.2086 
L 519.991939 150.455658 
L 520.624592 154.142929 
L 521.257245 144.34928 
L 521.889898 144.83583 
L 522.522551 144.642966 
L 523.155204 148.241899 
L 523.787857 147.437434 
L 524.42051 146.933744 
L 525.053163 145.422146 
L 526.951122 150.272632 
L 527.583776 150.877885 
L 528.216429 152.660107 
L 528.849082 155.836706 
L 530.747041 168.953797 
L 531.379694 173.013889 
L 532.012347 175.133491 
L 532.645 183.382428 
L 533.910306 193.401315 
L 535.175612 202.677627 
L 535.808265 205.340168 
L 536.440918 207.035955 
L 537.073571 210.302585 
L 538.971531 221.711194 
L 540.236837 227.801703 
L 540.86949 229.158629 
L 541.502143 232.481225 
L 542.767449 236.706675 
L 544.032755 239.385826 
L 544.665408 240.458904 
L 545.298061 240.912976 
L 549.09398 247.834609 
L 549.726633 248.491173 
L 550.991939 251.053209 
L 552.257245 251.965267 
L 552.889898 251.753254 
L 554.155204 250.865105 
L 555.42051 248.168816 
L 556.053163 246.839185 
L 557.318469 243.77494 
L 557.951122 242.279106 
L 558.583776 241.534732 
L 561.114388 230.762586 
L 561.747041 228.535814 
L 562.379694 227.315364 
L 563.012347 226.91895 
L 563.645 225.809161 
L 564.277653 225.363659 
L 564.910306 225.334036 
L 566.175612 225.686545 
L 567.440918 225.986685 
L 568.073571 225.627829 
L 569.338878 227.239191 
L 569.971531 227.171165 
L 570.604184 227.510132 
L 571.236837 228.102901 
L 571.86949 228.12734 
L 572.502143 229.331498 
L 573.134796 229.492941 
L 573.767449 229.941617 
L 574.400102 230.935984 
L 575.032755 231.675596 
L 575.665408 231.790807 
L 576.298061 232.068413 
L 576.930714 232.582365 
L 577.563367 233.354562 
L 578.828673 234.397383 
L 579.461327 234.385534 
L 580.09398 234.561894 
L 580.726633 235.632221 
L 581.359286 241.633968 
L 581.991939 237.629206 
L 583.257245 235.319491 
L 583.889898 234.632353 
L 584.522551 234.146225 
L 585.155204 233.438034 
L 585.787857 233.156831 
L 586.42051 234.427323 
L 587.053163 235.057966 
L 588.318469 238.375696 
L 588.951122 239.989809 
L 589.583776 240.647219 
L 590.216429 237.216818 
L 590.849082 241.531982 
L 591.481735 243.787424 
L 592.747041 246.777718 
L 593.379694 247.874388 
L 594.012347 248.048633 
L 595.277653 249.230362 
L 595.910306 250.207061 
L 597.175612 251.242159 
L 598.440918 251.997958 
L 602.236837 258.932922 
L 602.86949 259.330182 
L 603.502143 260.831095 
L 604.134796 261.548596 
L 604.767449 262.591205 
L 606.665408 264.04853 
L 607.298061 264.278634 
L 608.563367 265.479407 
L 609.19602 265.812555 
L 609.828673 267.095636 
L 610.461327 266.652673 
L 611.726633 266.530374 
L 612.991939 265.687929 
L 613.624592 265.072625 
L 614.257245 263.769232 
L 614.889898 263.806366 
L 615.522551 263.405614 
L 616.155204 263.188523 
L 618.053163 259.515852 
L 619.951122 255.11309 
L 620.583776 254.453247 
L 621.849082 249.64127 
L 623.747041 243.028451 
L 624.379694 241.434121 
L 625.012347 240.575701 
L 625.645 238.364904 
L 625.645 238.364904 
" clip-path="url(#p250fa4bb47)" style="fill: none; stroke: #1007e1; stroke-width: 1.5; stroke-linecap: square"/>
   </g>
   <g id="line2d_29">
    <path d="M 67.645 279 
L 94.216429 278.926049 
L 99.910306 278.499061 
L 101.808265 278.225158 
L 107.502143 276.498055 
L 109.400102 275.885185 
L 111.930714 275.465285 
L 113.828673 275.511412 
L 117.624592 275.772091 
L 121.42051 275.395037 
L 127.747041 275.690629 
L 129.012347 275.883387 
L 130.910306 276.289745 
L 132.175612 276.581633 
L 133.440918 276.629241 
L 134.706224 276.717051 
L 135.971531 276.89521 
L 137.236837 276.956465 
L 138.502143 277.098865 
L 149.257245 278.070274 
L 154.318469 278.24801 
L 158.114388 278.279325 
L 165.706224 278.633315 
L 166.971531 278.721125 
L 170.134796 278.658177 
L 172.032755 278.567193 
L 179.624592 278.511545 
L 192.910306 278.266524 
L 194.808265 278.177973 
L 200.502143 278.191832 
L 207.461327 277.772779 
L 212.522551 276.732497 
L 213.787857 276.700335 
L 215.053163 276.509481 
L 217.583776 276.08408 
L 218.849082 275.660371 
L 220.114388 275.048559 
L 221.379694 274.686317 
L 222.012347 274.720595 
L 222.645 274.48573 
L 223.910306 274.35666 
L 224.542959 274.344917 
L 225.175612 273.621914 
L 225.808265 271.79547 
L 227.073571 270.108782 
L 227.706224 269.362187 
L 228.338878 268.238539 
L 228.971531 267.508131 
L 229.604184 267.265543 
L 230.236837 268.331744 
L 230.86949 268.185112 
L 231.502143 267.899783 
L 232.134796 267.308813 
L 234.032755 266.862252 
L 235.930714 265.480253 
L 236.563367 264.745719 
L 237.19602 264.50694 
L 237.828673 263.988756 
L 238.461327 263.263638 
L 239.726633 262.745877 
L 240.359286 262.583693 
L 240.991939 262.794331 
L 241.624592 262.601255 
L 242.257245 262.192675 
L 242.889898 262.311272 
L 243.522551 261.944798 
L 244.787857 262.451344 
L 246.685816 262.401091 
L 247.318469 262.07556 
L 247.951122 262.358244 
L 248.583776 262.104125 
L 249.216429 262.063394 
L 249.849082 262.296249 
L 250.481735 261.30696 
L 251.114388 260.882617 
L 251.747041 260.682135 
L 252.379694 260.217272 
L 253.645 260.254301 
L 254.277653 260.610724 
L 254.910306 261.730563 
L 256.808265 263.881057 
L 257.440918 264.506728 
L 258.073571 265.432434 
L 258.706224 265.57896 
L 261.236837 267.83874 
L 261.86949 268.166492 
L 262.502143 267.937446 
L 263.767449 268.432355 
L 264.400102 268.263401 
L 265.032755 268.295139 
L 265.665408 267.750295 
L 266.298061 267.497339 
L 266.930714 267.61054 
L 267.563367 267.566635 
L 269.461327 265.719455 
L 270.09398 265.5943 
L 271.359286 264.347189 
L 271.991939 263.433227 
L 272.624592 261.907981 
L 273.889898 260.577504 
L 274.522551 258.717735 
L 275.155204 257.334572 
L 275.787857 255.386781 
L 276.42051 253.89539 
L 277.685816 253.060456 
L 278.318469 252.25377 
L 278.951122 252.642037 
L 279.583776 251.795572 
L 280.216429 250.073442 
L 280.849082 248.922499 
L 281.481735 247.142922 
L 282.747041 242.524444 
L 283.379694 240.125015 
L 284.012347 238.276566 
L 284.645 237.45073 
L 285.277653 236.14776 
L 285.910306 236.487256 
L 286.542959 234.930801 
L 287.175612 234.698263 
L 287.808265 234.70842 
L 288.440918 236.043658 
L 289.706224 239.252207 
L 290.338878 239.675069 
L 290.971531 240.977405 
L 292.236837 244.678535 
L 292.86949 245.597681 
L 293.502143 246.889755 
L 294.134796 247.80742 
L 294.767449 248.952121 
L 295.400102 250.598185 
L 296.665408 252.330048 
L 297.930714 255.358322 
L 298.563367 256.800625 
L 299.19602 257.770976 
L 300.461327 260.039325 
L 301.09398 260.982487 
L 302.359286 261.706019 
L 302.991939 262.351897 
L 303.624592 263.206403 
L 304.257245 264.262659 
L 307.42051 266.955564 
L 308.053163 267.715806 
L 309.318469 268.667431 
L 310.583776 269.648045 
L 311.216429 269.838899 
L 311.849082 269.873071 
L 312.481735 270.026473 
L 313.747041 270.661137 
L 314.379694 270.783436 
L 315.012347 270.690865 
L 316.910306 271.431536 
L 318.808265 272.520272 
L 319.440918 273.069559 
L 320.073571 273.293527 
L 321.971531 274.29477 
L 323.236837 274.520431 
L 325.134796 274.687798 
L 328.298061 274.678171 
L 332.09398 274.928482 
L 335.257245 274.772752 
L 336.522551 275.104842 
L 337.787857 275.313258 
L 339.053163 275.654341 
L 339.685816 275.951836 
L 340.318469 276.003147 
L 343.481735 276.840937 
L 344.114388 277.709513 
L 345.379694 277.856145 
L 346.645 277.755111 
L 347.910306 277.821127 
L 348.542959 277.01772 
L 351.073571 277.111984 
L 356.767449 277.305588 
L 361.828673 277.465444 
L 368.155204 277.346848 
L 368.787857 277.860165 
L 370.685816 277.818271 
L 372.583776 277.711735 
L 373.216429 277.206035 
L 378.277653 276.415535 
L 380.175612 275.746382 
L 382.073571 274.975666 
L 383.338878 274.434843 
L 387.134796 273.274166 
L 387.767449 272.896055 
L 390.298061 271.896399 
L 390.930714 271.484539 
L 392.19602 270.104233 
L 392.828673 269.570814 
L 393.461327 268.735246 
L 394.09398 268.144804 
L 394.726633 266.854212 
L 395.991939 264.901661 
L 397.257245 262.527093 
L 397.889898 261.83329 
L 398.522551 260.84781 
L 399.155204 260.37406 
L 400.42051 258.821308 
L 401.053163 258.34851 
L 402.318469 256.620773 
L 404.216429 254.201455 
L 404.849082 253.136417 
L 406.114388 249.670681 
L 406.747041 247.303096 
L 407.379694 245.532406 
L 408.012347 244.948629 
L 408.645 243.866664 
L 409.277653 243.658672 
L 409.910306 244.563747 
L 410.542959 246.243983 
L 411.808265 250.664201 
L 412.440918 252.284345 
L 413.073571 254.744923 
L 413.706224 256.695359 
L 414.338878 257.659997 
L 415.604184 259.009411 
L 416.236837 259.522623 
L 417.502143 259.947707 
L 418.134796 259.58684 
L 418.767449 259.678035 
L 420.665408 258.84617 
L 421.930714 258.379191 
L 422.563367 258.352531 
L 423.19602 258.051861 
L 424.461327 257.863123 
L 425.09398 257.942681 
L 426.991939 256.778937 
L 428.889898 255.633918 
L 429.522551 255.046439 
L 431.42051 254.061065 
L 432.685816 253.806945 
L 433.951122 253.67978 
L 434.583776 254.256997 
L 435.216429 254.120204 
L 436.481735 254.13893 
L 438.379694 252.799249 
L 439.012347 251.259297 
L 439.645 250.680387 
L 440.277653 250.360146 
L 440.910306 250.404897 
L 441.542959 250.969948 
L 442.808265 252.634949 
L 445.338878 256.96704 
L 445.971531 257.438568 
L 447.236837 257.310133 
L 448.502143 256.254829 
L 449.134796 255.842017 
L 449.767449 254.863625 
L 450.400102 254.529419 
L 451.032755 254.477156 
L 451.665408 254.077463 
L 452.298061 253.900256 
L 452.930714 253.517067 
L 453.563367 253.36578 
L 454.828673 253.473903 
L 455.461327 253.523309 
L 456.726633 254.20812 
L 457.359286 254.378661 
L 458.624592 253.562559 
L 459.257245 253.518654 
L 459.889898 252.462292 
L 461.155204 251.495326 
L 461.787857 251.001898 
L 462.42051 250.711174 
L 463.053163 250.197328 
L 463.685816 249.215022 
L 464.318469 248.853097 
L 465.583776 246.69742 
L 466.849082 245.334146 
L 467.481735 244.597284 
L 468.114388 244.110204 
L 468.747041 243.876503 
L 469.379694 244.507253 
L 470.012347 245.841221 
L 470.645 245.822919 
L 471.277653 246.321001 
L 471.910306 247.616883 
L 472.542959 248.224993 
L 473.175612 248.65579 
L 473.808265 248.769731 
L 474.440918 248.392255 
L 475.073571 249.453378 
L 476.338878 249.992403 
L 478.86949 253.730561 
L 479.502143 253.809379 
L 480.134796 254.019805 
L 483.298061 250.447321 
L 483.930714 250.009013 
L 484.563367 250.156703 
L 485.828673 249.069765 
L 487.09398 248.465676 
L 488.991939 246.816227 
L 489.624592 246.914511 
L 490.257245 246.372206 
L 490.889898 246.402252 
L 492.787857 247.271357 
L 493.42051 246.753808 
L 494.053163 246.084655 
L 495.318469 245.760394 
L 495.951122 245.033794 
L 496.583776 244.098567 
L 497.216429 243.573507 
L 497.849082 243.251467 
L 498.481735 243.569804 
L 499.114388 242.787027 
L 499.747041 241.647404 
L 500.379694 241.147523 
L 501.012347 240.843151 
L 501.645 239.342238 
L 502.277653 236.481543 
L 504.175612 224.985442 
L 506.073571 214.208111 
L 506.706224 211.280236 
L 507.338878 207.552975 
L 508.604184 201.007124 
L 509.236837 197.084354 
L 509.86949 195.411842 
L 510.502143 190.250741 
L 511.767449 174.972894 
L 512.400102 167.661194 
L 513.032755 163.288795 
L 513.665408 161.561376 
L 514.930714 143.993809 
L 515.563367 142.716017 
L 516.19602 143.587133 
L 516.828673 144.722101 
L 517.461327 147.011186 
L 518.09398 146.315584 
L 518.726633 151.019545 
L 519.359286 162.283849 
L 519.991939 168.964271 
L 521.889898 191.815766 
L 522.522551 199.379046 
L 523.155204 205.103399 
L 524.42051 210.030798 
L 525.053163 209.855707 
L 526.318469 210.685563 
L 527.583776 209.625815 
L 528.216429 209.542766 
L 528.849082 210.155742 
L 529.481735 211.315995 
L 530.114388 212.072746 
L 530.747041 212.577917 
L 531.379694 213.883955 
L 532.012347 134.254432 
L 532.645 132.370013 
L 533.277653 133.940856 
L 533.910306 134.09775 
L 534.542959 134.808692 
L 535.175612 136.101294 
L 535.808265 137.073973 
L 536.440918 220.040692 
L 537.073571 224.945557 
L 537.706224 227.020936 
L 538.338878 219.745418 
L 538.971531 222.259106 
L 540.236837 225.13292 
L 541.502143 229.641054 
L 542.134796 231.090339 
L 542.767449 242.887003 
L 543.400102 244.072012 
L 544.032755 244.784541 
L 544.665408 245.862909 
L 545.298061 246.180082 
L 545.930714 246.677953 
L 547.828673 251.262154 
L 548.461327 255.411537 
L 549.09398 258.692238 
L 549.726633 254.059584 
L 550.359286 247.919774 
L 550.991939 247.424019 
L 551.624592 246.690437 
L 552.257245 245.326635 
L 553.522551 245.326635 
L 554.155204 240.631667 
L 554.787857 244.495404 
L 555.42051 242.02488 
L 556.053163 237.914641 
L 556.685816 234.935138 
L 557.951122 234.935138 
L 558.583776 230.199651 
L 559.216429 224.112951 
L 559.849082 221.437608 
L 560.481735 220.754173 
L 561.114388 218.634148 
L 562.379694 218.634148 
L 563.012347 212.842722 
L 563.645 215.488865 
L 564.910306 213.424171 
L 565.542959 214.997024 
L 566.808265 214.996918 
L 567.440918 216.162038 
L 568.706224 219.160266 
L 569.338878 221.967747 
L 569.971531 222.861714 
L 571.236837 222.86182 
L 571.86949 230.477786 
L 572.502143 233.696068 
L 573.134796 237.654174 
L 574.400102 243.385721 
L 575.665408 243.385721 
L 576.298061 248.893194 
L 577.563367 251.699722 
L 578.19602 253.316692 
L 578.828673 257.758386 
L 580.09398 257.758386 
L 580.726633 267.422966 
L 581.359286 259.187993 
L 582.624592 261.500142 
L 583.257245 258.968257 
L 584.522551 258.968257 
L 585.155204 254.190664 
L 585.787857 264.716943 
L 586.42051 265.674704 
L 587.053163 266.413999 
L 587.685816 267.612127 
L 588.951122 267.606097 
L 589.583776 272.37237 
L 590.216429 270.401939 
L 590.849082 270.41601 
L 592.114388 270.734241 
L 593.379694 270.735934 
L 594.012347 267.96982 
L 594.645 270.587292 
L 595.277653 271.493426 
L 595.910306 271.158373 
L 596.542959 271.686713 
L 597.808265 271.686078 
L 599.073571 272.163637 
L 599.706224 272.266998 
L 600.338878 272.484407 
L 602.236837 272.488427 
L 602.86949 272.266046 
L 604.134796 272.680128 
L 604.767449 274.542224 
L 605.400102 274.715622 
L 606.665408 274.719008 
L 607.298061 275.57838 
L 608.563367 275.744267 
L 609.19602 275.30088 
L 609.828673 275.817159 
L 611.09398 275.819487 
L 611.726633 274.159564 
L 612.359286 273.690258 
L 613.624592 271.703323 
L 614.257245 270.689596 
L 615.522551 270.689384 
L 616.155204 271.256234 
L 616.787857 271.066755 
L 617.42051 269.777644 
L 618.685816 269.208255 
L 619.951122 269.208361 
L 620.583776 268.271124 
L 621.216429 267.805414 
L 622.481735 266.510907 
L 623.114388 266.093335 
L 624.379694 266.053873 
L 625.012347 264.972014 
L 625.645 264.444944 
L 625.645 264.444944 
" clip-path="url(#p250fa4bb47)" style="fill: none; stroke: #89f9c9; stroke-width: 1.5; stroke-linecap: square"/>
   </g>
   <g id="line2d_30">
    <path d="M 67.645 279 
L 93.583776 278.899177 
L 95.481735 278.786506 
L 96.114388 278.488799 
L 98.645 277.936443 
L 99.277653 277.769287 
L 99.910306 277.340501 
L 100.542959 277.394244 
L 101.175612 276.991695 
L 101.808265 276.78148 
L 103.073571 276.023248 
L 103.706224 275.233171 
L 106.236837 273.568276 
L 106.86949 273.411911 
L 107.502143 273.071463 
L 108.134796 273.223279 
L 110.032755 273.399956 
L 110.665408 273.547752 
L 113.19602 274.645798 
L 116.991939 275.88709 
L 117.624592 275.64355 
L 118.257245 275.554682 
L 118.889898 275.963791 
L 119.522551 275.631172 
L 120.155204 275.814409 
L 120.787857 275.652966 
L 121.42051 275.747335 
L 122.053163 276.029701 
L 122.685816 277.714486 
L 123.318469 277.499934 
L 123.951122 278.052077 
L 124.583776 278.020868 
L 126.481735 278.956518 
L 127.114388 277.706551 
L 129.012347 278.095876 
L 129.645 278.094819 
L 130.277653 278.216271 
L 131.542959 278.191621 
L 132.808265 278.271708 
L 133.440918 278.002883 
L 135.971531 278.224946 
L 137.236837 278.328414 
L 137.86949 278.558835 
L 139.767449 278.630035 
L 140.400102 278.509006 
L 147.991939 278.569732 
L 149.257245 278.744611 
L 151.787857 278.784813 
L 156.849082 278.745775 
L 160.645 278.743553 
L 170.767449 278.687588 
L 177.09398 278.32852 
L 177.726633 278.060224 
L 184.685816 277.296596 
L 185.951122 277.296596 
L 186.583776 277.066915 
L 187.216429 276.650929 
L 190.379694 276.266259 
L 191.012347 276.25716 
L 191.645 276.482292 
L 192.277653 276.459123 
L 192.910306 276.092861 
L 194.175612 275.990028 
L 194.808265 275.990028 
L 195.440918 275.180591 
L 196.073571 275.023803 
L 196.706224 274.653627 
L 197.338878 274.707688 
L 197.971531 274.425321 
L 199.236837 274.425321 
L 200.502143 273.884074 
L 201.134796 273.817952 
L 202.400102 273.368324 
L 203.665408 273.368324 
L 204.298061 272.925043 
L 205.563367 272.683513 
L 206.19602 272.757464 
L 207.461327 272.683725 
L 208.09398 272.683725 
L 208.726633 272.367609 
L 210.624592 272.056678 
L 211.257245 271.876086 
L 213.155204 271.786795 
L 213.787857 271.736754 
L 214.42051 271.490569 
L 215.053163 271.434815 
L 215.685816 271.201432 
L 216.951122 271.201432 
L 217.583776 270.775713 
L 218.216429 270.63162 
L 219.481735 270.688961 
L 220.114388 270.912929 
L 222.012347 270.87516 
L 222.645 272.01764 
L 223.277653 270.998517 
L 224.542959 271.229256 
L 225.808265 271.229256 
L 226.440918 272.107883 
L 227.073571 270.838555 
L 227.706224 271.942102 
L 228.338878 271.624294 
L 228.971531 271.469516 
L 230.236837 271.469516 
L 230.86949 271.006558 
L 231.502143 271.522837 
L 233.400102 271.017983 
L 234.665408 271.017983 
L 235.298061 269.956543 
L 235.930714 269.241898 
L 236.563367 268.712606 
L 237.19602 267.90137 
L 237.828673 267.407837 
L 239.09398 267.407837 
L 239.726633 265.895075 
L 240.359286 265.414237 
L 241.624592 264.844426 
L 242.257245 264.236739 
L 243.522551 264.236739 
L 244.155204 263.937234 
L 244.787857 263.910679 
L 245.42051 263.3524 
L 246.053163 263.529289 
L 246.685816 263.855031 
L 247.951122 263.855031 
L 248.583776 264.133589 
L 249.216429 266.108675 
L 249.849082 264.897429 
L 250.481735 265.151019 
L 251.114388 265.272154 
L 252.379694 265.272154 
L 253.012347 266.765238 
L 253.645 265.373083 
L 254.277653 267.613079 
L 254.910306 267.959875 
L 255.542959 268.61739 
L 256.808265 268.61739 
L 257.440918 269.927872 
L 258.073571 270.026367 
L 259.338878 270.982754 
L 259.971531 271.437989 
L 261.236837 271.437989 
L 261.86949 272.06292 
L 262.502143 272.483032 
L 263.134796 272.577295 
L 264.400102 273.029039 
L 265.665408 273.029039 
L 266.298061 273.272156 
L 266.930714 274.145705 
L 267.563367 274.098944 
L 268.19602 274.32873 
L 268.828673 274.14105 
L 270.09398 274.14105 
L 270.726633 273.757226 
L 271.359286 272.664576 
L 271.991939 272.526513 
L 272.624592 272.084714 
L 273.257245 271.947604 
L 275.787857 271.838635 
L 277.053163 271.644078 
L 277.685816 272.894045 
L 278.951122 272.894045 
L 280.216429 272.271548 
L 281.481735 271.24375 
L 283.379694 271.24375 
L 284.012347 270.596602 
L 284.645 269.579807 
L 285.277653 271.348275 
L 286.542959 266.082967 
L 287.808265 266.082967 
L 288.440918 262.819934 
L 289.073571 262.636062 
L 289.706224 258.523918 
L 290.338878 259.209681 
L 290.971531 257.650158 
L 292.236837 257.650158 
L 292.86949 255.231157 
L 293.502143 254.294554 
L 294.134796 254.008167 
L 294.767449 253.111132 
L 295.400102 252.826755 
L 296.665408 252.826755 
L 297.298061 251.818 
L 297.930714 251.591176 
L 298.563367 251.727757 
L 299.19602 252.728366 
L 299.828673 253.23269 
L 301.09398 253.23269 
L 301.726633 254.728208 
L 304.257245 257.960455 
L 305.522551 257.960455 
L 306.155204 261.408418 
L 308.685816 266.934616 
L 309.951122 266.934616 
L 310.583776 268.716626 
L 311.849082 270.158611 
L 313.114388 270.844586 
L 314.379694 270.844586 
L 315.012347 271.83927 
L 316.277653 272.284984 
L 316.910306 272.808351 
L 317.542959 273.135681 
L 318.808265 273.135681 
L 319.440918 273.651008 
L 320.073571 279 
L 323.86949 279 
L 324.502143 275.318548 
L 325.767449 275.191594 
L 326.400102 275.329762 
L 330.19602 275.405511 
L 330.828673 275.971302 
L 332.09398 275.971302 
L 332.726633 275.430373 
L 333.359286 275.371763 
L 333.991939 276.016265 
L 335.257245 274.451664 
L 337.155204 274.554285 
L 337.787857 274.60951 
L 338.42051 273.706656 
L 339.685816 275.183977 
L 340.318469 274.171413 
L 340.951122 274.171413 
L 341.583776 274.715305 
L 342.216429 274.542965 
L 342.849082 274.516093 
L 343.481735 274.21352 
L 344.114388 273.063 
L 344.747041 274.075563 
L 345.379694 274.075563 
L 346.012347 272.765398 
L 346.645 272.800417 
L 347.277653 272.622046 
L 350.440918 272.853526 
L 351.073571 273.519187 
L 351.706224 272.752809 
L 352.971531 272.511173 
L 354.236837 272.511173 
L 354.86949 272.640137 
L 355.502143 271.829219 
L 356.134796 272.786981 
L 356.767449 272.857969 
L 357.400102 273.132613 
L 358.665408 273.132613 
L 359.930714 273.836043 
L 361.19602 274.3154 
L 362.461327 274.415799 
L 363.09398 274.415799 
L 363.726633 274.666428 
L 364.991939 274.610674 
L 366.257245 275.044221 
L 367.522551 275.044221 
L 368.155204 275.35346 
L 369.42051 275.490041 
L 370.053163 275.486656 
L 370.685816 275.651167 
L 372.583776 275.650532 
L 373.216429 275.505487 
L 374.481735 275.665872 
L 375.747041 275.592874 
L 376.379694 275.592874 
L 377.645 275.836837 
L 381.440918 275.917876 
L 382.706224 276.070327 
L 383.338878 275.144198 
L 384.604184 275.23169 
L 385.236837 275.23169 
L 385.86949 275.377158 
L 387.134796 275.447723 
L 387.767449 276.485254 
L 389.665408 276.477637 
L 390.298061 276.578989 
L 393.461327 276.352905 
L 394.09398 276.352905 
L 395.359286 275.715913 
L 395.991939 275.198999 
L 397.257245 273.561611 
L 398.522551 273.561611 
L 399.155204 271.188842 
L 401.685816 268.068844 
L 402.951122 268.068844 
L 403.583776 267.928665 
L 404.216429 264.773543 
L 406.114388 261.752251 
L 407.379694 261.752251 
L 408.012347 258.822154 
L 408.645 260.586179 
L 409.277653 260.142158 
L 409.910306 259.946755 
L 412.440918 259.935329 
L 413.073571 260.029169 
L 414.338878 260.693984 
L 414.971531 261.372976 
L 416.236837 261.372976 
L 418.767449 263.735906 
L 419.400102 264.073604 
L 420.665408 264.073604 
L 421.298061 265.798167 
L 423.828673 267.848367 
L 425.09398 267.848367 
L 425.726633 269.320186 
L 426.359286 269.462375 
L 427.624592 270.523709 
L 428.257245 270.862994 
L 429.522551 270.862994 
L 430.155204 271.056281 
L 430.787857 271.507391 
L 431.42051 271.6317 
L 432.053163 272.195587 
L 432.685816 272.508846 
L 433.951122 272.508846 
L 434.583776 273.398581 
L 435.216429 273.642438 
L 435.849082 274.061704 
L 436.481735 273.802929 
L 437.114388 274.139146 
L 438.379694 274.139146 
L 439.012347 274.78788 
L 440.277653 275.151709 
L 440.910306 275.659313 
L 441.542959 275.857256 
L 442.808265 275.857256 
L 445.971531 276.663519 
L 447.236837 276.663519 
L 448.502143 276.941442 
L 450.400102 277.195667 
L 452.298061 277.296067 
L 456.09398 277.463117 
L 458.624592 277.707292 
L 460.522551 277.678515 
L 461.155204 277.725277 
L 461.787857 277.915813 
L 463.685816 277.860906 
L 465.583776 277.790764 
L 466.216429 277.590917 
L 468.747041 277.588061 
L 473.808265 277.580655 
L 474.440918 278.055145 
L 475.073571 277.64318 
L 475.706224 277.6691 
L 476.971531 277.466926 
L 478.236837 277.466926 
L 478.86949 276.788039 
L 479.502143 277.403766 
L 480.134796 276.962178 
L 482.032755 276.72361 
L 482.665408 276.72361 
L 483.930714 275.933111 
L 484.563367 275.911317 
L 485.828673 275.455129 
L 487.09398 275.455129 
L 487.726633 274.812213 
L 490.257245 273.673331 
L 491.522551 273.673331 
L 492.155204 272.928957 
L 492.787857 272.560368 
L 493.42051 272.347826 
L 494.053163 271.793249 
L 494.685816 271.388477 
L 495.951122 271.388477 
L 496.583776 273.812345 
L 497.216429 270.263242 
L 497.849082 271.377898 
L 498.481735 270.117668 
L 499.114388 269.762515 
L 500.379694 269.771296 
L 501.012347 264.502496 
L 501.645 266.372104 
L 502.277653 263.50083 
L 502.910306 263.237612 
L 503.542959 261.516963 
L 504.808265 261.508182 
L 505.440918 258.344702 
L 506.073571 255.838737 
L 506.706224 252.357978 
L 507.338878 247.701731 
L 507.971531 251.230944 
L 509.236837 251.230944 
L 509.86949 236.95762 
L 510.502143 231.683954 
L 511.134796 227.37609 
L 511.767449 217.984038 
L 513.665408 217.984038 
L 514.298061 201.252886 
L 514.930714 199.337575 
L 515.563367 195.484523 
L 516.19602 212.590295 
L 516.828673 186.94137 
L 518.09398 186.94137 
L 518.726633 195.444321 
L 519.359286 193.628139 
L 519.991939 189.19057 
L 520.624592 172.352142 
L 521.257245 180.808543 
L 522.522551 180.808543 
L 523.155204 176.674817 
L 523.787857 180.956339 
L 524.42051 183.197499 
L 525.053163 183.378831 
L 525.685816 185.644218 
L 526.951122 185.644218 
L 527.583776 188.398589 
L 528.216429 186.239844 
L 530.114388 193.97557 
L 531.379694 193.97557 
L 532.012347 207.021038 
L 532.645 210.935874 
L 533.277653 215.943254 
L 533.910306 221.922784 
L 534.542959 234.50413 
L 535.808265 234.50413 
L 536.440918 233.061933 
L 537.073571 236.663404 
L 538.338878 241.392015 
L 538.971531 236.20764 
L 540.236837 236.20764 
L 540.86949 249.648781 
L 541.502143 250.648649 
L 542.134796 253.370859 
L 543.400102 257.30971 
L 544.665408 257.30971 
L 545.298061 259.417992 
L 545.930714 260.707314 
L 546.563367 261.045435 
L 547.19602 260.867805 
L 547.828673 261.1945 
L 549.09398 261.1945 
L 549.726633 266.354966 
L 550.359286 262.507415 
L 551.624592 265.454968 
L 552.257245 265.997379 
L 553.522551 265.997379 
L 554.155204 262.189078 
L 554.787857 265.935489 
L 555.42051 265.604033 
L 556.053163 265.659576 
L 556.685816 265.929458 
L 557.951122 265.929458 
L 558.583776 269.737759 
L 559.216429 268.371206 
L 560.481735 273.084476 
L 561.114388 268.350364 
L 563.012347 268.350364 
L 563.645 266.437486 
L 564.910306 266.437486 
L 565.542959 265.559917 
L 567.440918 265.559917 
L 568.073571 265.29691 
L 569.338878 265.29691 
L 569.971531 268.431297 
L 571.86949 268.431297 
L 572.502143 271.557961 
L 573.767449 271.557961 
L 574.400102 270.968789 
L 576.298061 270.968789 
L 576.930714 270.159669 
L 578.19602 270.159669 
L 578.828673 275.326059 
L 580.726633 275.326059 
L 581.359286 271.09934 
L 582.624592 271.09934 
L 583.257245 265.900259 
L 585.155204 265.900259 
L 585.787857 268.784017 
L 587.053163 268.784017 
L 587.685816 267.350284 
L 589.583776 267.350284 
L 590.216429 266.302068 
L 591.481735 266.302068 
L 592.114388 267.055011 
L 593.379694 267.055011 
L 594.012347 261.783355 
L 594.645 267.848473 
L 595.910306 267.848473 
L 596.542959 266.509532 
L 597.808265 266.509532 
L 598.440918 271.781188 
L 599.073571 266.268002 
L 600.338878 266.268002 
L 600.971531 273.486814 
L 601.604184 267.607578 
L 602.86949 267.607578 
L 603.502143 272.775132 
L 604.134796 272.775132 
L 605.400102 263.44497 
L 606.032755 269.324206 
L 607.298061 269.324206 
L 607.930714 269.669839 
L 608.563367 266.073657 
L 609.19602 270.545821 
L 609.828673 270.8558 
L 611.726633 270.8558 
L 612.359286 267.333569 
L 612.991939 270.92975 
L 616.155204 270.986139 
L 616.787857 270.685682 
L 618.053163 270.685682 
L 618.685816 270.070378 
L 620.583776 270.070378 
L 621.216429 268.578458 
L 622.481735 268.578458 
L 623.114388 266.471658 
L 625.012347 266.471658 
L 625.645 266.261866 
L 625.645 266.261866 
" clip-path="url(#p250fa4bb47)" style="fill: none; stroke: #907eba; stroke-width: 1.5; stroke-linecap: square"/>
   </g>
   <g id="text_18">
    <!-- Germany -->
    <g style="fill: #d8b009" transform="translate(642.385 214.969702)scale(0.14 -0.14)">
     <defs>
      <path id="DejaVuSans-47" d="M 3809 666 
L 3809 1919 
L 2778 1919 
L 2778 2438 
L 4434 2438 
L 4434 434 
Q 4069 175 3628 42 
Q 3188 -91 2688 -91 
Q 1594 -91 976 548 
Q 359 1188 359 2328 
Q 359 3472 976 4111 
Q 1594 4750 2688 4750 
Q 3144 4750 3555 4637 
Q 3966 4525 4313 4306 
L 4313 3634 
Q 3963 3931 3569 4081 
Q 3175 4231 2741 4231 
Q 1884 4231 1454 3753 
Q 1025 3275 1025 2328 
Q 1025 1384 1454 906 
Q 1884 428 2741 428 
Q 3075 428 3337 486 
Q 3600 544 3809 666 
z
" transform="scale(0.015625)"/>
      <path id="DejaVuSans-65" d="M 3597 1894 
L 3597 1613 
L 953 1613 
Q 991 1019 1311 708 
Q 1631 397 2203 397 
Q 2534 397 2845 478 
Q 3156 559 3463 722 
L 3463 178 
Q 3153 47 2828 -22 
Q 2503 -91 2169 -91 
Q 1331 -91 842 396 
Q 353 884 353 1716 
Q 353 2575 817 3079 
Q 1281 3584 2069 3584 
Q 2775 3584 3186 3129 
Q 3597 2675 3597 1894 
z
M 3022 2063 
Q 3016 2534 2758 2815 
Q 2500 3097 2075 3097 
Q 1594 3097 1305 2825 
Q 1016 2553 972 2059 
L 3022 2063 
z
" transform="scale(0.015625)"/>
      <path id="DejaVuSans-72" d="M 2631 2963 
Q 2534 3019 2420 3045 
Q 2306 3072 2169 3072 
Q 1681 3072 1420 2755 
Q 1159 2438 1159 1844 
L 1159 0 
L 581 0 
L 581 3500 
L 1159 3500 
L 1159 2956 
Q 1341 3275 1631 3429 
Q 1922 3584 2338 3584 
Q 2397 3584 2469 3576 
Q 2541 3569 2628 3553 
L 2631 2963 
z
" transform="scale(0.015625)"/>
      <path id="DejaVuSans-6d" d="M 3328 2828 
Q 3544 3216 3844 3400 
Q 4144 3584 4550 3584 
Q 5097 3584 5394 3201 
Q 5691 2819 5691 2113 
L 5691 0 
L 5113 0 
L 5113 2094 
Q 5113 2597 4934 2840 
Q 4756 3084 4391 3084 
Q 3944 3084 3684 2787 
Q 3425 2491 3425 1978 
L 3425 0 
L 2847 0 
L 2847 2094 
Q 2847 2600 2669 2842 
Q 2491 3084 2119 3084 
Q 1678 3084 1418 2786 
Q 1159 2488 1159 1978 
L 1159 0 
L 581 0 
L 581 3500 
L 1159 3500 
L 1159 2956 
Q 1356 3278 1631 3431 
Q 1906 3584 2284 3584 
Q 2666 3584 2933 3390 
Q 3200 3197 3328 2828 
z
" transform="scale(0.015625)"/>
      <path id="DejaVuSans-61" d="M 2194 1759 
Q 1497 1759 1228 1600 
Q 959 1441 959 1056 
Q 959 750 1161 570 
Q 1363 391 1709 391 
Q 2188 391 2477 730 
Q 2766 1069 2766 1631 
L 2766 1759 
L 2194 1759 
z
M 3341 1997 
L 3341 0 
L 2766 0 
L 2766 531 
Q 2569 213 2275 61 
Q 1981 -91 1556 -91 
Q 1019 -91 701 211 
Q 384 513 384 1019 
Q 384 1609 779 1909 
Q 1175 2209 1959 2209 
L 2766 2209 
L 2766 2266 
Q 2766 2663 2505 2880 
Q 2244 3097 1772 3097 
Q 1472 3097 1187 3025 
Q 903 2953 641 2809 
L 641 3341 
Q 956 3463 1253 3523 
Q 1550 3584 1831 3584 
Q 2591 3584 2966 3190 
Q 3341 2797 3341 1997 
z
" transform="scale(0.015625)"/>
      <path id="DejaVuSans-6e" d="M 3513 2113 
L 3513 0 
L 2938 0 
L 2938 2094 
Q 2938 2591 2744 2837 
Q 2550 3084 2163 3084 
Q 1697 3084 1428 2787 
Q 1159 2491 1159 1978 
L 1159 0 
L 581 0 
L 581 3500 
L 1159 3500 
L 1159 2956 
Q 1366 3272 1645 3428 
Q 1925 3584 2291 3584 
Q 2894 3584 3203 3211 
Q 3513 2838 3513 2113 
z
" transform="scale(0.015625)"/>
      <path id="DejaVuSans-79" d="M 2059 -325 
Q 1816 -950 1584 -1140 
Q 1353 -1331 966 -1331 
L 506 -1331 
L 506 -850 
L 844 -850 
Q 1081 -850 1212 -737 
Q 1344 -625 1503 -206 
L 1606 56 
L 191 3500 
L 800 3500 
L 1894 763 
L 2988 3500 
L 3597 3500 
L 2059 -325 
z
" transform="scale(0.015625)"/>
     </defs>
     <use xlink:href="#DejaVuSans-47"/>
     <use xlink:href="#DejaVuSans-65" x="77.490234"/>
     <use xlink:href="#DejaVuSans-72" x="139.013672"/>
     <use xlink:href="#DejaVuSans-6d" x="178.376953"/>
     <use xlink:href="#DejaVuSans-61" x="275.789062"/>
     <use xlink:href="#DejaVuSans-6e" x="337.068359"/>
     <use xlink:href="#DejaVuSans-79" x="400.447266"/>
    </g>
   </g>
   <g id="text_19">
    <!-- France -->
    <g style="fill: #0309a6" transform="translate(642.385 228.969702)scale(0.14 -0.14)">
     <defs>
      <path id="DejaVuSans-46" d="M 628 4666 
L 3309 4666 
L 3309 4134 
L 1259 4134 
L 1259 2759 
L 3109 2759 
L 3109 2228 
L 1259 2228 
L 1259 0 
L 628 0 
L 628 4666 
z
" transform="scale(0.015625)"/>
      <path id="DejaVuSans-63" d="M 3122 3366 
L 3122 2828 
Q 2878 2963 2633 3030 
Q 2388 3097 2138 3097 
Q 1578 3097 1268 2742 
Q 959 2388 959 1747 
Q 959 1106 1268 751 
Q 1578 397 2138 397 
Q 2388 397 2633 464 
Q 2878 531 3122 666 
L 3122 134 
Q 2881 22 2623 -34 
Q 2366 -91 2075 -91 
Q 1284 -91 818 406 
Q 353 903 353 1747 
Q 353 2603 823 3093 
Q 1294 3584 2113 3584 
Q 2378 3584 2631 3529 
Q 2884 3475 3122 3366 
z
" transform="scale(0.015625)"/>
     </defs>
     <use xlink:href="#DejaVuSans-46"/>
     <use xlink:href="#DejaVuSans-72" x="50.269531"/>
     <use xlink:href="#DejaVuSans-61" x="91.382812"/>
     <use xlink:href="#DejaVuSans-6e" x="152.662109"/>
     <use xlink:href="#DejaVuSans-63" x="216.041016"/>
     <use xlink:href="#DejaVuSans-65" x="271.021484"/>
    </g>
   </g>
   <g id="text_20">
    <!-- Italy -->
    <g style="fill: #1007e1" transform="translate(642.385 242.969702)scale(0.14 -0.14)">
     <defs>
      <path id="DejaVuSans-49" d="M 628 4666 
L 1259 4666 
L 1259 0 
L 628 0 
L 628 4666 
z
" transform="scale(0.015625)"/>
      <path id="DejaVuSans-74" d="M 1172 4494 
L 1172 3500 
L 2356 3500 
L 2356 3053 
L 1172 3053 
L 1172 1153 
Q 1172 725 1289 603 
Q 1406 481 1766 481 
L 2356 481 
L 2356 0 
L 1766 0 
Q 1100 0 847 248 
Q 594 497 594 1153 
L 594 3053 
L 172 3053 
L 172 3500 
L 594 3500 
L 594 4494 
L 1172 4494 
z
" transform="scale(0.015625)"/>
      <path id="DejaVuSans-6c" d="M 603 4863 
L 1178 4863 
L 1178 0 
L 603 0 
L 603 4863 
z
" transform="scale(0.015625)"/>
     </defs>
     <use xlink:href="#DejaVuSans-49"/>
     <use xlink:href="#DejaVuSans-74" x="29.492188"/>
     <use xlink:href="#DejaVuSans-61" x="68.701172"/>
     <use xlink:href="#DejaVuSans-6c" x="129.980469"/>
     <use xlink:href="#DejaVuSans-79" x="157.763672"/>
    </g>
   </g>
   <g id="text_21">
    <!-- United Kingdom -->
    <g style="fill: #89f9c9" transform="translate(642.385 262.21653)scale(0.14 -0.14)">
     <defs>
      <path id="DejaVuSans-55" d="M 556 4666 
L 1191 4666 
L 1191 1831 
Q 1191 1081 1462 751 
Q 1734 422 2344 422 
Q 2950 422 3222 751 
Q 3494 1081 3494 1831 
L 3494 4666 
L 4128 4666 
L 4128 1753 
Q 4128 841 3676 375 
Q 3225 -91 2344 -91 
Q 1459 -91 1007 375 
Q 556 841 556 1753 
L 556 4666 
z
" transform="scale(0.015625)"/>
      <path id="DejaVuSans-69" d="M 603 3500 
L 1178 3500 
L 1178 0 
L 603 0 
L 603 3500 
z
M 603 4863 
L 1178 4863 
L 1178 4134 
L 603 4134 
L 603 4863 
z
" transform="scale(0.015625)"/>
      <path id="DejaVuSans-64" d="M 2906 2969 
L 2906 4863 
L 3481 4863 
L 3481 0 
L 2906 0 
L 2906 525 
Q 2725 213 2448 61 
Q 2172 -91 1784 -91 
Q 1150 -91 751 415 
Q 353 922 353 1747 
Q 353 2572 751 3078 
Q 1150 3584 1784 3584 
Q 2172 3584 2448 3432 
Q 2725 3281 2906 2969 
z
M 947 1747 
Q 947 1113 1208 752 
Q 1469 391 1925 391 
Q 2381 391 2643 752 
Q 2906 1113 2906 1747 
Q 2906 2381 2643 2742 
Q 2381 3103 1925 3103 
Q 1469 3103 1208 2742 
Q 947 2381 947 1747 
z
" transform="scale(0.015625)"/>
      <path id="DejaVuSans-20" transform="scale(0.015625)"/>
      <path id="DejaVuSans-4b" d="M 628 4666 
L 1259 4666 
L 1259 2694 
L 3353 4666 
L 4166 4666 
L 1850 2491 
L 4331 0 
L 3500 0 
L 1259 2247 
L 1259 0 
L 628 0 
L 628 4666 
z
" transform="scale(0.015625)"/>
      <path id="DejaVuSans-67" d="M 2906 1791 
Q 2906 2416 2648 2759 
Q 2391 3103 1925 3103 
Q 1463 3103 1205 2759 
Q 947 2416 947 1791 
Q 947 1169 1205 825 
Q 1463 481 1925 481 
Q 2391 481 2648 825 
Q 2906 1169 2906 1791 
z
M 3481 434 
Q 3481 -459 3084 -895 
Q 2688 -1331 1869 -1331 
Q 1566 -1331 1297 -1286 
Q 1028 -1241 775 -1147 
L 775 -588 
Q 1028 -725 1275 -790 
Q 1522 -856 1778 -856 
Q 2344 -856 2625 -561 
Q 2906 -266 2906 331 
L 2906 616 
Q 2728 306 2450 153 
Q 2172 0 1784 0 
Q 1141 0 747 490 
Q 353 981 353 1791 
Q 353 2603 747 3093 
Q 1141 3584 1784 3584 
Q 2172 3584 2450 3431 
Q 2728 3278 2906 2969 
L 2906 3500 
L 3481 3500 
L 3481 434 
z
" transform="scale(0.015625)"/>
      <path id="DejaVuSans-6f" d="M 1959 3097 
Q 1497 3097 1228 2736 
Q 959 2375 959 1747 
Q 959 1119 1226 758 
Q 1494 397 1959 397 
Q 2419 397 2687 759 
Q 2956 1122 2956 1747 
Q 2956 2369 2687 2733 
Q 2419 3097 1959 3097 
z
M 1959 3584 
Q 2709 3584 3137 3096 
Q 3566 2609 3566 1747 
Q 3566 888 3137 398 
Q 2709 -91 1959 -91 
Q 1206 -91 779 398 
Q 353 888 353 1747 
Q 353 2609 779 3096 
Q 1206 3584 1959 3584 
z
" transform="scale(0.015625)"/>
     </defs>
     <use xlink:href="#DejaVuSans-55"/>
     <use xlink:href="#DejaVuSans-6e" x="73.193359"/>
     <use xlink:href="#DejaVuSans-69" x="136.572266"/>
     <use xlink:href="#DejaVuSans-74" x="164.355469"/>
     <use xlink:href="#DejaVuSans-65" x="203.564453"/>
     <use xlink:href="#DejaVuSans-64" x="265.087891"/>
     <use xlink:href="#DejaVuSans-20" x="328.564453"/>
     <use xlink:href="#DejaVuSans-4b" x="360.351562"/>
     <use xlink:href="#DejaVuSans-69" x="425.927734"/>
     <use xlink:href="#DejaVuSans-6e" x="453.710938"/>
     <use xlink:href="#DejaVuSans-67" x="517.089844"/>
     <use xlink:href="#DejaVuSans-64" x="580.566406"/>
     <use xlink:href="#DejaVuSans-6f" x="644.042969"/>
     <use xlink:href="#DejaVuSans-6d" x="705.224609"/>
    </g>
   </g>
   <g id="text_22">
    <!-- Spain -->
    <g style="fill: #907eba" transform="translate(642.385 276.21653)scale(0.14 -0.14)">
     <defs>
      <path id="DejaVuSans-53" d="M 3425 4513 
L 3425 3897 
Q 3066 4069 2747 4153 
Q 2428 4238 2131 4238 
Q 1616 4238 1336 4038 
Q 1056 3838 1056 3469 
Q 1056 3159 1242 3001 
Q 1428 2844 1947 2747 
L 2328 2669 
Q 3034 2534 3370 2195 
Q 3706 1856 3706 1288 
Q 3706 609 3251 259 
Q 2797 -91 1919 -91 
Q 1588 -91 1214 -16 
Q 841 59 441 206 
L 441 856 
Q 825 641 1194 531 
Q 1563 422 1919 422 
Q 2459 422 2753 634 
Q 3047 847 3047 1241 
Q 3047 1584 2836 1778 
Q 2625 1972 2144 2069 
L 1759 2144 
Q 1053 2284 737 2584 
Q 422 2884 422 3419 
Q 422 4038 858 4394 
Q 1294 4750 2059 4750 
Q 2388 4750 2728 4690 
Q 3069 4631 3425 4513 
z
" transform="scale(0.015625)"/>
      <path id="DejaVuSans-70" d="M 1159 525 
L 1159 -1331 
L 581 -1331 
L 581 3500 
L 1159 3500 
L 1159 2969 
Q 1341 3281 1617 3432 
Q 1894 3584 2278 3584 
Q 2916 3584 3314 3078 
Q 3713 2572 3713 1747 
Q 3713 922 3314 415 
Q 2916 -91 2278 -91 
Q 1894 -91 1617 61 
Q 1341 213 1159 525 
z
M 3116 1747 
Q 3116 2381 2855 2742 
Q 2594 3103 2138 3103 
Q 1681 3103 1420 2742 
Q 1159 2381 1159 1747 
Q 1159 1113 1420 752 
Q 1681 391 2138 391 
Q 2594 391 2855 752 
Q 3116 1113 3116 1747 
z
" transform="scale(0.015625)"/>
     </defs>
     <use xlink:href="#DejaVuSans-53"/>
     <use xlink:href="#DejaVuSans-70" x="63.476562"/>
     <use xlink:href="#DejaVuSans-61" x="126.953125"/>
     <use xlink:href="#DejaVuSans-69" x="188.232422"/>
     <use xlink:href="#DejaVuSans-6e" x="216.015625"/>
    </g>
   </g>
  </g>
 </g>
 <defs>
  <clipPath id="p250fa4bb47">
   <rect x="67.645" y="7.2" width="558" height="271.8"/>
  </clipPath>
 </defs>
</svg>
