<?xml version="1.0" encoding="utf-8" standalone="no"?>
<!DOCTYPE svg PUBLIC "-//W3C//DTD SVG 1.1//EN"
  "http://www.w3.org/Graphics/SVG/1.1/DTD/svg11.dtd">
<svg xmlns:xlink="http://www.w3.org/1999/xlink" width="717.876563pt" height="307.293771pt" viewBox="0 0 717.876563 307.293771" xmlns="http://www.w3.org/2000/svg" version="1.1">
 <metadata>
  <rdf:RDF xmlns:dc="http://purl.org/dc/elements/1.1/" xmlns:cc="http://creativecommons.org/ns#" xmlns:rdf="http://www.w3.org/1999/02/22-rdf-syntax-ns#">
   <cc:Work>
    <dc:type rdf:resource="http://purl.org/dc/dcmitype/StillImage"/>
    <dc:date>2022-06-29T14:14:43.798108</dc:date>
    <dc:format>image/svg+xml</dc:format>
    <dc:creator>
     <cc:Agent>
      <dc:title>Matplotlib v3.5.1, https://matplotlib.org/</dc:title>
     </cc:Agent>
    </dc:creator>
   </cc:Work>
  </rdf:RDF>
 </metadata>
 <defs>
  <style type="text/css">*{stroke-linejoin: round; stroke-linecap: butt}</style>
 </defs>
 <g id="figure_1">
  <g id="patch_1">
   <path d="M 0 307.293771 
L 717.876563 307.293771 
L 717.876563 0 
L 0 0 
L 0 307.293771 
z
" style="fill: none"/>
  </g>
  <g id="axes_1">
   <g id="patch_2">
    <path d="M 67.645 279 
L 625.645 279 
L 625.645 7.2 
L 67.645 7.2 
L 67.645 279 
z
" style="fill: none"/>
   </g>
   <g id="matplotlib.axis_1">
    <g id="xtick_1">
     <g id="line2d_1">
      <defs>
       <path id="m138ec7e799" d="M 0 0 
L 0 3.5 
" style="stroke: #b0b0b0; stroke-width: 0.4"/>
      </defs>
      <g>
       <use xlink:href="#m138ec7e799" x="108.134796" y="279" style="fill: #b0b0b0; stroke: #b0b0b0; stroke-width: 0.4"/>
      </g>
     </g>
     <g id="text_1">
      <!-- 2020-04 -->
      <g style="fill: #b0b0b0" transform="translate(78.886827 296.637813)scale(0.14 -0.14)">
       <defs>
        <path id="DejaVuSans-32" d="M 1228 531 
L 3431 531 
L 3431 0 
L 469 0 
L 469 531 
Q 828 903 1448 1529 
Q 2069 2156 2228 2338 
Q 2531 2678 2651 2914 
Q 2772 3150 2772 3378 
Q 2772 3750 2511 3984 
Q 2250 4219 1831 4219 
Q 1534 4219 1204 4116 
Q 875 4013 500 3803 
L 500 4441 
Q 881 4594 1212 4672 
Q 1544 4750 1819 4750 
Q 2544 4750 2975 4387 
Q 3406 4025 3406 3419 
Q 3406 3131 3298 2873 
Q 3191 2616 2906 2266 
Q 2828 2175 2409 1742 
Q 1991 1309 1228 531 
z
" transform="scale(0.015625)"/>
        <path id="DejaVuSans-30" d="M 2034 4250 
Q 1547 4250 1301 3770 
Q 1056 3291 1056 2328 
Q 1056 1369 1301 889 
Q 1547 409 2034 409 
Q 2525 409 2770 889 
Q 3016 1369 3016 2328 
Q 3016 3291 2770 3770 
Q 2525 4250 2034 4250 
z
M 2034 4750 
Q 2819 4750 3233 4129 
Q 3647 3509 3647 2328 
Q 3647 1150 3233 529 
Q 2819 -91 2034 -91 
Q 1250 -91 836 529 
Q 422 1150 422 2328 
Q 422 3509 836 4129 
Q 1250 4750 2034 4750 
z
" transform="scale(0.015625)"/>
        <path id="DejaVuSans-2d" d="M 313 2009 
L 1997 2009 
L 1997 1497 
L 313 1497 
L 313 2009 
z
" transform="scale(0.015625)"/>
        <path id="DejaVuSans-34" d="M 2419 4116 
L 825 1625 
L 2419 1625 
L 2419 4116 
z
M 2253 4666 
L 3047 4666 
L 3047 1625 
L 3713 1625 
L 3713 1100 
L 3047 1100 
L 3047 0 
L 2419 0 
L 2419 1100 
L 313 1100 
L 313 1709 
L 2253 4666 
z
" transform="scale(0.015625)"/>
       </defs>
       <use xlink:href="#DejaVuSans-32"/>
       <use xlink:href="#DejaVuSans-30" x="63.623047"/>
       <use xlink:href="#DejaVuSans-32" x="127.246094"/>
       <use xlink:href="#DejaVuSans-30" x="190.869141"/>
       <use xlink:href="#DejaVuSans-2d" x="254.492188"/>
       <use xlink:href="#DejaVuSans-30" x="290.576172"/>
       <use xlink:href="#DejaVuSans-34" x="354.199219"/>
      </g>
     </g>
    </g>
    <g id="xtick_2">
     <g id="line2d_2">
      <g>
       <use xlink:href="#m138ec7e799" x="165.706224" y="279" style="fill: #b0b0b0; stroke: #b0b0b0; stroke-width: 0.4"/>
      </g>
     </g>
     <g id="text_2">
      <!-- 2020-07 -->
      <g style="fill: #b0b0b0" transform="translate(136.458256 296.637813)scale(0.14 -0.14)">
       <defs>
        <path id="DejaVuSans-37" d="M 525 4666 
L 3525 4666 
L 3525 4397 
L 1831 0 
L 1172 0 
L 2766 4134 
L 525 4134 
L 525 4666 
z
" transform="scale(0.015625)"/>
       </defs>
       <use xlink:href="#DejaVuSans-32"/>
       <use xlink:href="#DejaVuSans-30" x="63.623047"/>
       <use xlink:href="#DejaVuSans-32" x="127.246094"/>
       <use xlink:href="#DejaVuSans-30" x="190.869141"/>
       <use xlink:href="#DejaVuSans-2d" x="254.492188"/>
       <use xlink:href="#DejaVuSans-30" x="290.576172"/>
       <use xlink:href="#DejaVuSans-37" x="354.199219"/>
      </g>
     </g>
    </g>
    <g id="xtick_3">
     <g id="line2d_3">
      <g>
       <use xlink:href="#m138ec7e799" x="223.910306" y="279" style="fill: #b0b0b0; stroke: #b0b0b0; stroke-width: 0.4"/>
      </g>
     </g>
     <g id="text_3">
      <!-- 2020-10 -->
      <g style="fill: #b0b0b0" transform="translate(194.662337 296.637813)scale(0.14 -0.14)">
       <defs>
        <path id="DejaVuSans-31" d="M 794 531 
L 1825 531 
L 1825 4091 
L 703 3866 
L 703 4441 
L 1819 4666 
L 2450 4666 
L 2450 531 
L 3481 531 
L 3481 0 
L 794 0 
L 794 531 
z
" transform="scale(0.015625)"/>
       </defs>
       <use xlink:href="#DejaVuSans-32"/>
       <use xlink:href="#DejaVuSans-30" x="63.623047"/>
       <use xlink:href="#DejaVuSans-32" x="127.246094"/>
       <use xlink:href="#DejaVuSans-30" x="190.869141"/>
       <use xlink:href="#DejaVuSans-2d" x="254.492188"/>
       <use xlink:href="#DejaVuSans-31" x="290.576172"/>
       <use xlink:href="#DejaVuSans-30" x="354.199219"/>
      </g>
     </g>
    </g>
    <g id="xtick_4">
     <g id="line2d_4">
      <g>
       <use xlink:href="#m138ec7e799" x="282.114388" y="279" style="fill: #b0b0b0; stroke: #b0b0b0; stroke-width: 0.4"/>
      </g>
     </g>
     <g id="text_4">
      <!-- 2021-01 -->
      <g style="fill: #b0b0b0" transform="translate(252.866419 296.637813)scale(0.14 -0.14)">
       <use xlink:href="#DejaVuSans-32"/>
       <use xlink:href="#DejaVuSans-30" x="63.623047"/>
       <use xlink:href="#DejaVuSans-32" x="127.246094"/>
       <use xlink:href="#DejaVuSans-31" x="190.869141"/>
       <use xlink:href="#DejaVuSans-2d" x="254.492188"/>
       <use xlink:href="#DejaVuSans-30" x="290.576172"/>
       <use xlink:href="#DejaVuSans-31" x="354.199219"/>
      </g>
     </g>
    </g>
    <g id="xtick_5">
     <g id="line2d_5">
      <g>
       <use xlink:href="#m138ec7e799" x="339.053163" y="279" style="fill: #b0b0b0; stroke: #b0b0b0; stroke-width: 0.4"/>
      </g>
     </g>
     <g id="text_5">
      <!-- 2021-04 -->
      <g style="fill: #b0b0b0" transform="translate(309.805195 296.637813)scale(0.14 -0.14)">
       <use xlink:href="#DejaVuSans-32"/>
       <use xlink:href="#DejaVuSans-30" x="63.623047"/>
       <use xlink:href="#DejaVuSans-32" x="127.246094"/>
       <use xlink:href="#DejaVuSans-31" x="190.869141"/>
       <use xlink:href="#DejaVuSans-2d" x="254.492188"/>
       <use xlink:href="#DejaVuSans-30" x="290.576172"/>
       <use xlink:href="#DejaVuSans-34" x="354.199219"/>
      </g>
     </g>
    </g>
    <g id="xtick_6">
     <g id="line2d_6">
      <g>
       <use xlink:href="#m138ec7e799" x="396.624592" y="279" style="fill: #b0b0b0; stroke: #b0b0b0; stroke-width: 0.4"/>
      </g>
     </g>
     <g id="text_6">
      <!-- 2021-07 -->
      <g style="fill: #b0b0b0" transform="translate(367.376623 296.637813)scale(0.14 -0.14)">
       <use xlink:href="#DejaVuSans-32"/>
       <use xlink:href="#DejaVuSans-30" x="63.623047"/>
       <use xlink:href="#DejaVuSans-32" x="127.246094"/>
       <use xlink:href="#DejaVuSans-31" x="190.869141"/>
       <use xlink:href="#DejaVuSans-2d" x="254.492188"/>
       <use xlink:href="#DejaVuSans-30" x="290.576172"/>
       <use xlink:href="#DejaVuSans-37" x="354.199219"/>
      </g>
     </g>
    </g>
    <g id="xtick_7">
     <g id="line2d_7">
      <g>
       <use xlink:href="#m138ec7e799" x="454.828673" y="279" style="fill: #b0b0b0; stroke: #b0b0b0; stroke-width: 0.4"/>
      </g>
     </g>
     <g id="text_7">
      <!-- 2021-10 -->
      <g style="fill: #b0b0b0" transform="translate(425.580705 296.637813)scale(0.14 -0.14)">
       <use xlink:href="#DejaVuSans-32"/>
       <use xlink:href="#DejaVuSans-30" x="63.623047"/>
       <use xlink:href="#DejaVuSans-32" x="127.246094"/>
       <use xlink:href="#DejaVuSans-31" x="190.869141"/>
       <use xlink:href="#DejaVuSans-2d" x="254.492188"/>
       <use xlink:href="#DejaVuSans-31" x="290.576172"/>
       <use xlink:href="#DejaVuSans-30" x="354.199219"/>
      </g>
     </g>
    </g>
    <g id="xtick_8">
     <g id="line2d_8">
      <g>
       <use xlink:href="#m138ec7e799" x="513.032755" y="279" style="fill: #b0b0b0; stroke: #b0b0b0; stroke-width: 0.4"/>
      </g>
     </g>
     <g id="text_8">
      <!-- 2022-01 -->
      <g style="fill: #b0b0b0" transform="translate(483.784786 296.637813)scale(0.14 -0.14)">
       <use xlink:href="#DejaVuSans-32"/>
       <use xlink:href="#DejaVuSans-30" x="63.623047"/>
       <use xlink:href="#DejaVuSans-32" x="127.246094"/>
       <use xlink:href="#DejaVuSans-32" x="190.869141"/>
       <use xlink:href="#DejaVuSans-2d" x="254.492188"/>
       <use xlink:href="#DejaVuSans-30" x="290.576172"/>
       <use xlink:href="#DejaVuSans-31" x="354.199219"/>
      </g>
     </g>
    </g>
    <g id="xtick_9">
     <g id="line2d_9">
      <g>
       <use xlink:href="#m138ec7e799" x="569.971531" y="279" style="fill: #b0b0b0; stroke: #b0b0b0; stroke-width: 0.4"/>
      </g>
     </g>
     <g id="text_9">
      <!-- 2022-04 -->
      <g style="fill: #b0b0b0" transform="translate(540.723562 296.637813)scale(0.14 -0.14)">
       <use xlink:href="#DejaVuSans-32"/>
       <use xlink:href="#DejaVuSans-30" x="63.623047"/>
       <use xlink:href="#DejaVuSans-32" x="127.246094"/>
       <use xlink:href="#DejaVuSans-32" x="190.869141"/>
       <use xlink:href="#DejaVuSans-2d" x="254.492188"/>
       <use xlink:href="#DejaVuSans-30" x="290.576172"/>
       <use xlink:href="#DejaVuSans-34" x="354.199219"/>
      </g>
     </g>
    </g>
   </g>
   <g id="matplotlib.axis_2">
    <g id="ytick_1">
     <g id="line2d_10">
      <path d="M 67.645 279 
L 625.645 279 
" clip-path="url(#p432d3fc265)" style="fill: none; stroke: #b0b0b0; stroke-width: 0.3; stroke-linecap: square"/>
     </g>
     <g id="line2d_11">
      <defs>
       <path id="m05bf14275e" d="M 0 0 
L -3.5 0 
" style="stroke: #b0b0b0; stroke-width: 0.3"/>
      </defs>
      <g>
       <use xlink:href="#m05bf14275e" x="67.645" y="279" style="fill: #b0b0b0; stroke: #b0b0b0; stroke-width: 0.3"/>
      </g>
     </g>
     <g id="text_10">
      <!-- 0 -->
      <g style="fill: #b0b0b0" transform="translate(51.7375 284.318906)scale(0.14 -0.14)">
       <use xlink:href="#DejaVuSans-30"/>
      </g>
     </g>
    </g>
    <g id="ytick_2">
     <g id="line2d_12">
      <path d="M 67.645 243.090748 
L 625.645 243.090748 
" clip-path="url(#p432d3fc265)" style="fill: none; stroke: #b0b0b0; stroke-width: 0.3; stroke-linecap: square"/>
     </g>
     <g id="line2d_13">
      <g>
       <use xlink:href="#m05bf14275e" x="67.645" y="243.090748" style="fill: #b0b0b0; stroke: #b0b0b0; stroke-width: 0.3"/>
      </g>
     </g>
     <g id="text_11">
      <!-- 25000 -->
      <g style="fill: #b0b0b0" transform="translate(16.1075 248.409654)scale(0.14 -0.14)">
       <defs>
        <path id="DejaVuSans-35" d="M 691 4666 
L 3169 4666 
L 3169 4134 
L 1269 4134 
L 1269 2991 
Q 1406 3038 1543 3061 
Q 1681 3084 1819 3084 
Q 2600 3084 3056 2656 
Q 3513 2228 3513 1497 
Q 3513 744 3044 326 
Q 2575 -91 1722 -91 
Q 1428 -91 1123 -41 
Q 819 9 494 109 
L 494 744 
Q 775 591 1075 516 
Q 1375 441 1709 441 
Q 2250 441 2565 725 
Q 2881 1009 2881 1497 
Q 2881 1984 2565 2268 
Q 2250 2553 1709 2553 
Q 1456 2553 1204 2497 
Q 953 2441 691 2322 
L 691 4666 
z
" transform="scale(0.015625)"/>
       </defs>
       <use xlink:href="#DejaVuSans-32"/>
       <use xlink:href="#DejaVuSans-35" x="63.623047"/>
       <use xlink:href="#DejaVuSans-30" x="127.246094"/>
       <use xlink:href="#DejaVuSans-30" x="190.869141"/>
       <use xlink:href="#DejaVuSans-30" x="254.492188"/>
      </g>
     </g>
    </g>
    <g id="ytick_3">
     <g id="line2d_14">
      <path d="M 67.645 207.181496 
L 625.645 207.181496 
" clip-path="url(#p432d3fc265)" style="fill: none; stroke: #b0b0b0; stroke-width: 0.3; stroke-linecap: square"/>
     </g>
     <g id="line2d_15">
      <g>
       <use xlink:href="#m05bf14275e" x="67.645" y="207.181496" style="fill: #b0b0b0; stroke: #b0b0b0; stroke-width: 0.3"/>
      </g>
     </g>
     <g id="text_12">
      <!-- 50000 -->
      <g style="fill: #b0b0b0" transform="translate(16.1075 212.500403)scale(0.14 -0.14)">
       <use xlink:href="#DejaVuSans-35"/>
       <use xlink:href="#DejaVuSans-30" x="63.623047"/>
       <use xlink:href="#DejaVuSans-30" x="127.246094"/>
       <use xlink:href="#DejaVuSans-30" x="190.869141"/>
       <use xlink:href="#DejaVuSans-30" x="254.492188"/>
      </g>
     </g>
    </g>
    <g id="ytick_4">
     <g id="line2d_16">
      <path d="M 67.645 171.272244 
L 625.645 171.272244 
" clip-path="url(#p432d3fc265)" style="fill: none; stroke: #b0b0b0; stroke-width: 0.3; stroke-linecap: square"/>
     </g>
     <g id="line2d_17">
      <g>
       <use xlink:href="#m05bf14275e" x="67.645" y="171.272244" style="fill: #b0b0b0; stroke: #b0b0b0; stroke-width: 0.3"/>
      </g>
     </g>
     <g id="text_13">
      <!-- 75000 -->
      <g style="fill: #b0b0b0" transform="translate(16.1075 176.591151)scale(0.14 -0.14)">
       <use xlink:href="#DejaVuSans-37"/>
       <use xlink:href="#DejaVuSans-35" x="63.623047"/>
       <use xlink:href="#DejaVuSans-30" x="127.246094"/>
       <use xlink:href="#DejaVuSans-30" x="190.869141"/>
       <use xlink:href="#DejaVuSans-30" x="254.492188"/>
      </g>
     </g>
    </g>
    <g id="ytick_5">
     <g id="line2d_18">
      <path d="M 67.645 135.362993 
L 625.645 135.362993 
" clip-path="url(#p432d3fc265)" style="fill: none; stroke: #b0b0b0; stroke-width: 0.3; stroke-linecap: square"/>
     </g>
     <g id="line2d_19">
      <g>
       <use xlink:href="#m05bf14275e" x="67.645" y="135.362993" style="fill: #b0b0b0; stroke: #b0b0b0; stroke-width: 0.3"/>
      </g>
     </g>
     <g id="text_14">
      <!-- 100000 -->
      <g style="fill: #b0b0b0" transform="translate(7.2 140.681899)scale(0.14 -0.14)">
       <use xlink:href="#DejaVuSans-31"/>
       <use xlink:href="#DejaVuSans-30" x="63.623047"/>
       <use xlink:href="#DejaVuSans-30" x="127.246094"/>
       <use xlink:href="#DejaVuSans-30" x="190.869141"/>
       <use xlink:href="#DejaVuSans-30" x="254.492188"/>
       <use xlink:href="#DejaVuSans-30" x="318.115234"/>
      </g>
     </g>
    </g>
    <g id="ytick_6">
     <g id="line2d_20">
      <path d="M 67.645 99.453741 
L 625.645 99.453741 
" clip-path="url(#p432d3fc265)" style="fill: none; stroke: #b0b0b0; stroke-width: 0.3; stroke-linecap: square"/>
     </g>
     <g id="line2d_21">
      <g>
       <use xlink:href="#m05bf14275e" x="67.645" y="99.453741" style="fill: #b0b0b0; stroke: #b0b0b0; stroke-width: 0.3"/>
      </g>
     </g>
     <g id="text_15">
      <!-- 125000 -->
      <g style="fill: #b0b0b0" transform="translate(7.2 104.772647)scale(0.14 -0.14)">
       <use xlink:href="#DejaVuSans-31"/>
       <use xlink:href="#DejaVuSans-32" x="63.623047"/>
       <use xlink:href="#DejaVuSans-35" x="127.246094"/>
       <use xlink:href="#DejaVuSans-30" x="190.869141"/>
       <use xlink:href="#DejaVuSans-30" x="254.492188"/>
       <use xlink:href="#DejaVuSans-30" x="318.115234"/>
      </g>
     </g>
    </g>
    <g id="ytick_7">
     <g id="line2d_22">
      <path d="M 67.645 63.544489 
L 625.645 63.544489 
" clip-path="url(#p432d3fc265)" style="fill: none; stroke: #b0b0b0; stroke-width: 0.3; stroke-linecap: square"/>
     </g>
     <g id="line2d_23">
      <g>
       <use xlink:href="#m05bf14275e" x="67.645" y="63.544489" style="fill: #b0b0b0; stroke: #b0b0b0; stroke-width: 0.3"/>
      </g>
     </g>
     <g id="text_16">
      <!-- 150000 -->
      <g style="fill: #b0b0b0" transform="translate(7.2 68.863395)scale(0.14 -0.14)">
       <use xlink:href="#DejaVuSans-31"/>
       <use xlink:href="#DejaVuSans-35" x="63.623047"/>
       <use xlink:href="#DejaVuSans-30" x="127.246094"/>
       <use xlink:href="#DejaVuSans-30" x="190.869141"/>
       <use xlink:href="#DejaVuSans-30" x="254.492188"/>
       <use xlink:href="#DejaVuSans-30" x="318.115234"/>
      </g>
     </g>
    </g>
    <g id="ytick_8">
     <g id="line2d_24">
      <path d="M 67.645 27.635237 
L 625.645 27.635237 
" clip-path="url(#p432d3fc265)" style="fill: none; stroke: #b0b0b0; stroke-width: 0.3; stroke-linecap: square"/>
     </g>
     <g id="line2d_25">
      <g>
       <use xlink:href="#m05bf14275e" x="67.645" y="27.635237" style="fill: #b0b0b0; stroke: #b0b0b0; stroke-width: 0.3"/>
      </g>
     </g>
     <g id="text_17">
      <!-- 175000 -->
      <g style="fill: #b0b0b0" transform="translate(7.2 32.954143)scale(0.14 -0.14)">
       <use xlink:href="#DejaVuSans-31"/>
       <use xlink:href="#DejaVuSans-37" x="63.623047"/>
       <use xlink:href="#DejaVuSans-35" x="127.246094"/>
       <use xlink:href="#DejaVuSans-30" x="190.869141"/>
       <use xlink:href="#DejaVuSans-30" x="254.492188"/>
       <use xlink:href="#DejaVuSans-30" x="318.115234"/>
      </g>
     </g>
    </g>
   </g>
   <g id="line2d_26">
    <path d="M 67.645 279 
L 99.277653 278.931465 
L 107.502143 278.287971 
L 110.032755 277.675256 
L 111.298061 277.444206 
L 113.828673 276.828619 
L 114.461327 276.872736 
L 115.726633 276.687649 
L 116.359286 276.696062 
L 116.991939 276.506872 
L 117.624592 276.469321 
L 118.889898 275.731027 
L 120.787857 275.344028 
L 121.42051 275.422002 
L 122.053163 274.975907 
L 122.685816 274.82201 
L 125.216429 272.812118 
L 126.481735 271.376774 
L 127.114388 271.169936 
L 127.747041 271.248526 
L 128.379694 271.05359 
L 129.012347 270.551271 
L 129.645 270.336636 
L 130.277653 269.370985 
L 130.910306 269.030361 
L 131.542959 267.777435 
L 132.175612 266.901455 
L 132.808265 266.509121 
L 133.440918 266.488396 
L 134.073571 266.122122 
L 134.706224 265.964736 
L 135.338878 265.17145 
L 135.971531 263.939249 
L 136.604184 263.107591 
L 137.236837 262.916554 
L 138.502143 259.779111 
L 139.134796 257.559714 
L 140.400102 255.550848 
L 141.032755 254.775824 
L 141.665408 253.360179 
L 142.298061 253.664073 
L 142.930714 253.703061 
L 143.563367 254.224258 
L 144.19602 252.131261 
L 144.828673 251.088252 
L 145.461327 247.943832 
L 146.09398 248.199301 
L 146.726633 247.718733 
L 147.359286 244.568978 
L 147.991939 243.361196 
L 148.624592 242.619003 
L 149.257245 241.549728 
L 149.889898 243.300253 
L 150.522551 242.322495 
L 151.155204 241.873322 
L 151.787857 241.869013 
L 152.42051 240.28798 
L 153.053163 240.957328 
L 153.685816 242.561754 
L 154.318469 243.087055 
L 154.951122 243.332058 
L 155.583776 241.838439 
L 156.216429 240.753979 
L 157.481735 241.992746 
L 158.114388 235.472241 
L 158.747041 226.793898 
L 159.379694 234.30201 
L 160.012347 233.568435 
L 160.645 233.046417 
L 161.277653 230.972299 
L 161.910306 227.700658 
L 162.542959 229.993721 
L 163.175612 235.452542 
L 163.808265 224.643037 
L 164.440918 226.005947 
L 165.073571 225.974552 
L 165.706224 224.786058 
L 166.338878 224.183398 
L 166.971531 224.561779 
L 167.604184 225.249801 
L 168.236837 226.827756 
L 168.86949 226.231867 
L 169.502143 224.791599 
L 170.767449 225.410059 
L 172.032755 224.866085 
L 173.298061 225.501371 
L 173.930714 226.276395 
L 174.563367 227.324535 
L 175.19602 227.176589 
L 176.461327 231.05212 
L 177.726633 231.131326 
L 178.359286 230.309517 
L 178.991939 224.972786 
L 179.624592 222.173301 
L 180.889898 213.130941 
L 181.522551 213.282581 
L 182.155204 212.203662 
L 182.787857 210.751492 
L 183.42051 212.946881 
L 184.053163 212.797293 
L 184.685816 213.544 
L 185.318469 214.773943 
L 185.951122 214.488106 
L 186.583776 216.110178 
L 187.216429 215.642537 
L 187.849082 215.495206 
L 189.114388 217.121793 
L 189.747041 216.127004 
L 190.379694 216.401145 
L 191.012347 215.087893 
L 191.645 216.270436 
L 192.277653 216.519749 
L 192.910306 215.140012 
L 193.542959 215.139192 
L 194.175612 217.090193 
L 194.808265 217.033559 
L 195.440918 217.466316 
L 196.073571 217.724042 
L 196.706224 219.02724 
L 197.971531 226.172155 
L 198.604184 224.319854 
L 199.86949 224.733733 
L 200.502143 225.340497 
L 201.767449 225.57955 
L 202.400102 223.166038 
L 203.665408 226.440141 
L 204.298061 220.958953 
L 205.563367 221.713458 
L 206.19602 220.780022 
L 206.828673 221.713458 
L 207.461327 222.4181 
L 208.09398 222.389783 
L 208.726633 230.743095 
L 209.359286 235.98441 
L 209.991939 237.906273 
L 210.624592 239.147297 
L 211.257245 238.738136 
L 211.889898 239.36542 
L 212.522551 239.499207 
L 213.155204 237.222561 
L 213.787857 233.987445 
L 214.42051 233.944354 
L 215.053163 234.838186 
L 216.318469 235.462802 
L 216.951122 235.171014 
L 217.583776 235.781676 
L 218.216429 235.69652 
L 219.481735 237.535279 
L 220.114388 239.058037 
L 220.747041 240.051184 
L 221.379694 240.390783 
L 222.012347 240.547552 
L 222.645 240.982362 
L 223.277653 240.946453 
L 223.910306 240.173275 
L 224.542959 240.069036 
L 225.175612 240.419921 
L 225.808265 241.460673 
L 226.440918 239.576566 
L 227.073571 239.847835 
L 227.706224 240.250634 
L 228.338878 242.087751 
L 228.971531 243.131172 
L 229.604184 242.980148 
L 230.236837 242.266887 
L 231.502143 249.568572 
L 232.134796 250.203448 
L 232.767449 249.465564 
L 233.400102 249.28848 
L 234.032755 249.897501 
L 234.665408 249.926228 
L 235.298061 248.296358 
L 235.930714 246.160887 
L 236.563367 246.568816 
L 237.19602 247.730634 
L 237.828673 247.442334 
L 238.461327 246.57887 
L 239.09398 246.537216 
L 239.726633 246.120258 
L 240.359286 244.844761 
L 241.624592 243.935539 
L 242.257245 245.094484 
L 242.889898 247.518667 
L 243.522551 247.942601 
L 244.155204 250.068839 
L 244.787857 253.228853 
L 245.42051 254.262014 
L 246.053163 254.847848 
L 246.685816 255.700025 
L 247.318469 254.76146 
L 247.951122 254.697029 
L 248.583776 253.637193 
L 249.216429 247.103351 
L 249.849082 246.501922 
L 250.481735 244.43478 
L 251.114388 240.634966 
L 251.747041 238.883825 
L 252.379694 238.185339 
L 253.012347 237.707233 
L 253.645 239.950843 
L 254.277653 238.205654 
L 254.910306 237.806958 
L 255.542959 237.796288 
L 256.808265 236.162109 
L 257.440918 235.666767 
L 258.073571 235.863139 
L 258.706224 233.836626 
L 259.338878 232.805928 
L 259.971531 233.885668 
L 260.604184 229.522591 
L 261.236837 228.889357 
L 261.86949 227.753188 
L 262.502143 224.172113 
L 263.134796 223.382725 
L 263.767449 221.483844 
L 264.400102 218.577656 
L 265.032755 220.876464 
L 265.665408 219.764714 
L 266.298061 219.081617 
L 266.930714 219.941182 
L 267.563367 218.686205 
L 268.19602 217.986282 
L 268.828673 216.985132 
L 269.461327 216.566123 
L 270.09398 217.469189 
L 271.359286 217.347713 
L 271.991939 214.981191 
L 272.624592 211.872681 
L 273.257245 211.810507 
L 273.889898 210.596158 
L 274.522551 210.092403 
L 275.155204 210.038026 
L 275.787857 208.266571 
L 276.42051 212.461798 
L 277.053163 214.613891 
L 278.318469 227.413795 
L 278.951122 228.823489 
L 280.216429 228.926498 
L 280.849082 226.890751 
L 281.481735 227.658593 
L 282.114388 227.29827 
L 282.747041 227.745596 
L 283.379694 227.832599 
L 284.012347 228.324659 
L 284.645 227.973364 
L 285.277653 226.556077 
L 287.175612 204.766958 
L 287.808265 202.338056 
L 289.073571 199.865653 
L 289.706224 200.415578 
L 290.338878 204.445622 
L 290.971531 202.494005 
L 291.604184 201.046965 
L 292.236837 200.556752 
L 293.502143 201.395798 
L 294.134796 200.441638 
L 294.767449 202.366168 
L 295.400102 204.929473 
L 296.032755 204.959637 
L 296.665408 205.554089 
L 297.298061 205.226391 
L 297.930714 205.337402 
L 298.563367 205.27687 
L 299.19602 204.905465 
L 299.828673 204.310808 
L 300.461327 205.374543 
L 301.09398 205.501559 
L 301.726633 205.920158 
L 302.359286 207.013851 
L 302.991939 209.139269 
L 303.624592 209.888849 
L 304.889898 212.888195 
L 305.522551 213.244825 
L 306.155204 213.225126 
L 306.787857 214.263622 
L 307.42051 212.890041 
L 308.685816 214.17272 
L 309.318469 214.471074 
L 309.951122 213.535177 
L 310.583776 214.10521 
L 311.216429 211.218722 
L 311.849082 214.067454 
L 312.481735 214.093104 
L 313.114388 213.4334 
L 313.747041 211.891354 
L 314.379694 212.145386 
L 315.012347 210.906414 
L 315.645 211.255042 
L 316.277653 207.528482 
L 316.910306 204.491586 
L 317.542959 202.185596 
L 318.175612 200.944777 
L 318.808265 200.148618 
L 319.440918 198.396452 
L 320.073571 199.194663 
L 321.338878 196.064197 
L 322.604184 192.453573 
L 323.236837 182.538721 
L 323.86949 183.318465 
L 324.502143 180.938399 
L 325.134796 179.180282 
L 325.767449 178.965032 
L 326.400102 176.920052 
L 327.032755 176.214383 
L 327.665408 184.060247 
L 328.298061 182.474289 
L 328.930714 179.529526 
L 329.563367 178.055194 
L 330.19602 175.827795 
L 330.828673 174.640122 
L 331.461327 174.063317 
L 332.09398 173.243149 
L 332.726633 170.851388 
L 333.359286 170.941059 
L 333.991939 170.478547 
L 334.624592 168.35785 
L 335.257245 169.981563 
L 335.889898 168.227345 
L 336.522551 168.327275 
L 337.155204 171.067664 
L 337.787857 170.814658 
L 338.42051 171.26219 
L 339.685816 175.665485 
L 340.318469 184.355113 
L 340.951122 187.359179 
L 341.583776 187.347072 
L 342.216429 187.615674 
L 342.849082 187.621624 
L 343.481735 187.461161 
L 344.114388 183.616819 
L 344.747041 178.036111 
L 345.379694 176.629084 
L 346.645 177.756635 
L 347.277653 180.647842 
L 347.910306 184.212502 
L 348.542959 184.976446 
L 349.175612 184.563387 
L 349.808265 184.632538 
L 350.440918 185.27439 
L 351.073571 187.330041 
L 351.706224 187.456852 
L 352.338878 192.191743 
L 352.971531 195.29143 
L 354.86949 198.185716 
L 356.134796 196.853585 
L 356.767449 192.645842 
L 357.400102 192.086273 
L 358.032755 193.212592 
L 358.665408 194.105809 
L 359.298061 192.753364 
L 359.930714 194.047944 
L 360.563367 194.234056 
L 361.19602 193.479757 
L 361.828673 192.48743 
L 363.09398 191.071375 
L 363.726633 191.622941 
L 364.359286 191.505774 
L 364.991939 191.531218 
L 365.624592 189.943003 
L 366.257245 189.723444 
L 367.522551 187.582432 
L 368.155204 187.726684 
L 369.42051 185.938609 
L 370.053163 185.249767 
L 370.685816 185.513033 
L 371.951122 185.210164 
L 372.583776 184.823986 
L 373.216429 184.980755 
L 373.849082 184.984449 
L 374.481735 188.853619 
L 375.114388 193.520386 
L 375.747041 191.885591 
L 376.379694 191.279443 
L 377.012347 191.458579 
L 377.645 190.458866 
L 378.277653 187.168962 
L 378.910306 184.801825 
L 379.542959 187.000907 
L 380.175612 189.913866 
L 380.808265 190.140812 
L 381.440918 189.502859 
L 382.073571 194.263399 
L 382.706224 196.604888 
L 383.338878 193.490632 
L 383.971531 184.638284 
L 384.604184 182.154184 
L 385.236837 182.843437 
L 385.86949 182.232774 
L 386.502143 175.783883 
L 387.134796 175.443053 
L 387.767449 178.4701 
L 388.400102 176.596253 
L 389.032755 175.742433 
L 389.665408 174.18233 
L 390.298061 173.624608 
L 390.930714 166.01041 
L 391.563367 167.884258 
L 392.19602 167.857172 
L 393.461327 175.583201 
L 394.726633 180.909672 
L 395.359286 192.870941 
L 395.991939 199.078728 
L 396.624592 202.25803 
L 397.257245 204.615524 
L 398.522551 207.375406 
L 399.787857 209.098435 
L 400.42051 207.65714 
L 401.053163 209.090022 
L 401.685816 210.140624 
L 402.318469 212.112965 
L 402.951122 213.408776 
L 403.583776 215.194389 
L 404.216429 217.885942 
L 404.849082 217.489914 
L 405.481735 217.43841 
L 406.114388 220.626536 
L 406.747041 219.61923 
L 408.012347 220.61997 
L 408.645 224.193863 
L 409.277653 224.24742 
L 409.910306 225.420523 
L 410.542959 212.245932 
L 411.175612 215.197057 
L 411.808265 214.887417 
L 412.440918 213.925869 
L 413.073571 211.372824 
L 414.338878 214.68612 
L 414.971531 228.381293 
L 415.604184 228.291006 
L 416.236837 227.860711 
L 416.86949 228.387448 
L 417.502143 230.664095 
L 418.134796 232.00033 
L 418.767449 232.377274 
L 419.400102 231.90676 
L 420.032755 230.994665 
L 420.665408 232.320025 
L 421.298061 233.003942 
L 421.930714 232.395331 
L 422.563367 233.440598 
L 423.19602 234.184638 
L 424.461327 238.269469 
L 425.09398 238.295529 
L 425.726633 237.752171 
L 426.359286 237.024957 
L 426.991939 236.054792 
L 427.624592 236.022987 
L 428.257245 235.773058 
L 428.889898 236.589737 
L 429.522551 236.553212 
L 430.155204 237.073589 
L 430.787857 238.550382 
L 431.42051 240.641737 
L 432.053163 241.686183 
L 432.685816 243.011132 
L 433.951122 244.048807 
L 434.583776 244.63423 
L 435.849082 246.5208 
L 437.114388 248.173036 
L 437.747041 248.711059 
L 438.379694 248.424195 
L 439.012347 248.963655 
L 440.277653 254.054151 
L 440.910306 252.864015 
L 442.175612 255.677659 
L 442.808265 256.662599 
L 443.440918 256.975317 
L 444.073571 256.982088 
L 444.706224 257.167996 
L 445.338878 256.629562 
L 445.971531 252.755056 
L 446.604184 229.954528 
L 447.236837 229.684901 
L 447.86949 229.554191 
L 448.502143 229.182992 
L 449.134796 225.221278 
L 449.767449 227.381989 
L 450.400102 230.803013 
L 451.032755 253.582816 
L 452.298061 253.635962 
L 452.930714 253.327347 
L 453.563367 256.54851 
L 454.19602 257.15712 
L 454.828673 257.280853 
L 455.461327 257.583927 
L 456.09398 257.522984 
L 456.726633 257.077094 
L 457.359286 255.997559 
L 457.991939 255.656729 
L 458.624592 257.16184 
L 459.257245 257.064782 
L 459.889898 256.568619 
L 460.522551 256.720669 
L 461.155204 257.64918 
L 461.787857 260.684024 
L 462.42051 262.771686 
L 463.053163 262.645285 
L 464.318469 264.549501 
L 464.951122 265.006472 
L 465.583776 264.529187 
L 466.216429 263.323047 
L 466.849082 261.817731 
L 467.481735 261.457817 
L 468.114388 261.642494 
L 468.747041 261.202554 
L 470.012347 261.847074 
L 470.645 261.824092 
L 471.277653 261.533535 
L 471.910306 262.210681 
L 472.542959 262.357806 
L 473.175612 262.746241 
L 473.808265 262.419159 
L 474.440918 263.075991 
L 475.073571 264.59998 
L 476.338878 264.85709 
L 476.971531 264.792043 
L 477.604184 264.553811 
L 478.236837 264.650047 
L 478.86949 264.187331 
L 479.502143 262.978318 
L 480.134796 263.251228 
L 480.767449 262.781125 
L 481.400102 262.452606 
L 482.665408 263.103898 
L 483.298061 263.952997 
L 483.930714 265.028633 
L 484.563367 265.411939 
L 485.19602 266.260629 
L 485.828673 266.717394 
L 486.461327 266.951933 
L 487.09398 266.790649 
L 487.726633 266.503786 
L 488.359286 265.298876 
L 488.991939 265.474934 
L 489.624592 265.294157 
L 490.257245 265.600719 
L 490.889898 265.581431 
L 491.522551 265.899895 
L 492.155204 265.828486 
L 492.787857 266.270683 
L 494.053163 266.337167 
L 494.685816 266.389902 
L 495.318469 266.574988 
L 496.583776 266.024038 
L 497.216429 266.054612 
L 497.849082 266.495783 
L 499.114388 267.877776 
L 499.747041 268.846916 
L 501.012347 270.144778 
L 502.277653 272.363149 
L 502.910306 273.408006 
L 503.542959 273.962445 
L 506.073571 274.216067 
L 506.706224 274.596089 
L 507.338878 274.572902 
L 507.971531 274.713051 
L 508.604184 274.447733 
L 509.86949 272.842281 
L 510.502143 271.751051 
L 511.134796 270.410097 
L 511.767449 268.595346 
L 512.400102 267.259521 
L 513.032755 267.23736 
L 513.665408 267.886394 
L 514.298061 266.921564 
L 514.930714 264.845189 
L 515.563367 262.158971 
L 516.19602 257.396789 
L 517.461327 237.159771 
L 518.09398 231.44466 
L 518.726633 226.875566 
L 519.359286 215.777761 
L 520.624592 189.689176 
L 521.257245 179.876717 
L 521.889898 180.028767 
L 522.522551 179.286163 
L 523.155204 170.983944 
L 523.787857 157.217979 
L 524.42051 135.124966 
L 525.685816 108.02887 
L 526.318469 84.113719 
L 526.951122 65.744803 
L 527.583776 63.02678 
L 528.216429 50.725707 
L 528.849082 46.164206 
L 529.481735 33.869699 
L 530.114388 15.507759 
L 530.747041 7.2 
L 531.379694 10.964726 
L 532.012347 7.83426 
L 533.277653 20.319599 
L 533.910306 8.53172 
L 536.440918 42.51521 
L 537.073571 41.23643 
L 537.706224 42.579847 
L 538.338878 68.129382 
L 538.971531 79.368773 
L 539.604184 84.117412 
L 540.236837 84.78122 
L 540.86949 86.884887 
L 541.502143 97.61293 
L 543.400102 120.403814 
L 544.032755 126.522956 
L 545.298061 134.092626 
L 545.930714 138.547015 
L 546.563367 140.833511 
L 547.19602 145.804172 
L 548.461327 161.590084 
L 549.09398 164.374795 
L 549.726633 168.581513 
L 550.359286 185.246279 
L 550.991939 206.533283 
L 551.624592 213.863285 
L 552.257245 217.773494 
L 552.889898 219.237156 
L 553.522551 221.600395 
L 554.155204 221.28665 
L 554.787857 210.573792 
L 555.42051 206.851952 
L 556.053163 206.66153 
L 557.318469 213.291404 
L 557.951122 213.684559 
L 558.583776 214.668268 
L 559.216429 219.755685 
L 559.849082 219.354527 
L 560.481735 222.857629 
L 561.114388 223.274587 
L 561.747041 224.949189 
L 562.379694 225.037423 
L 563.012347 225.908274 
L 563.645 227.577541 
L 564.277653 227.786225 
L 564.910306 229.187096 
L 565.542959 232.837323 
L 566.175612 234.951044 
L 566.808265 235.513691 
L 567.440918 236.409781 
L 568.706224 241.604721 
L 569.338878 242.864622 
L 569.971531 244.374453 
L 570.604184 246.892615 
L 571.236837 247.59582 
L 571.86949 246.637351 
L 572.502143 247.178042 
L 573.134796 248.530487 
L 573.767449 249.521993 
L 575.032755 247.975638 
L 575.665408 247.975638 
L 576.930714 249.859334 
L 577.563367 249.895038 
L 578.19602 250.540174 
L 579.461327 257.80164 
L 580.09398 258.759699 
L 580.726633 258.648893 
L 581.359286 260.340937 
L 581.991939 258.26805 
L 583.257245 260.246137 
L 583.889898 259.356408 
L 584.522551 259.12782 
L 585.155204 259.541084 
L 585.787857 257.897261 
L 586.42051 261.14079 
L 587.053163 260.883064 
L 587.685816 259.640809 
L 588.318469 257.982212 
L 588.951122 257.447062 
L 589.583776 257.438444 
L 590.849082 257.762858 
L 591.481735 257.400482 
L 592.114388 256.250771 
L 593.379694 256.420878 
L 594.012347 255.761995 
L 594.645 256.026492 
L 595.277653 255.344011 
L 595.910306 255.413367 
L 596.542959 254.205995 
L 597.175612 253.645195 
L 597.808265 253.585689 
L 598.440918 252.80574 
L 599.706224 261.740167 
L 600.338878 266.119864 
L 600.971531 258.957713 
L 601.604184 262.518885 
L 602.236837 257.899724 
L 602.86949 258.050542 
L 603.502143 251.316019 
L 604.134796 248.366125 
L 604.767449 242.349581 
L 605.400102 246.428872 
L 606.032755 241.455133 
L 606.665408 245.684627 
L 607.298061 243.364479 
L 607.930714 241.608619 
L 608.563367 236.149798 
L 609.19602 233.697298 
L 609.828673 234.609188 
L 610.461327 239.582927 
L 611.09398 241.264506 
L 612.359286 228.291006 
L 612.991939 226.519141 
L 613.624592 225.739398 
L 614.257245 221.573514 
L 614.889898 215.869894 
L 615.522551 213.463358 
L 616.155204 217.047307 
L 616.787857 222.506334 
L 617.42051 218.263707 
L 618.053163 227.512494 
L 618.685816 239.104206 
L 619.318469 244.807826 
L 619.951122 247.214361 
L 620.583776 226.17708 
L 621.216429 222.089376 
L 621.849082 221.75778 
L 623.114388 194.583094 
L 624.379694 194.583094 
L 625.012347 201.876982 
L 625.645 199.357999 
L 625.645 199.357999 
" clip-path="url(#p432d3fc265)" style="fill: none; stroke: #42537f; stroke-width: 1.5; stroke-linecap: square"/>
   </g>
   <g id="line2d_27">
    <path d="M 67.645 279 
L 101.175612 278.896581 
L 106.86949 278.640087 
L 116.359286 278.374974 
L 118.889898 278.336807 
L 125.849082 278.097139 
L 129.012347 277.373003 
L 130.277653 277.099477 
L 131.542959 276.935115 
L 132.808265 276.657896 
L 134.073571 276.554888 
L 135.338878 275.989779 
L 135.971531 275.761806 
L 136.604184 275.345875 
L 137.86949 274.97919 
L 139.134796 274.314356 
L 140.400102 273.682558 
L 141.032755 272.78852 
L 141.665408 272.510275 
L 142.298061 271.973278 
L 144.19602 271.681079 
L 144.828673 271.800298 
L 145.461327 271.113713 
L 146.726633 270.765701 
L 147.359286 270.855166 
L 147.991939 270.729176 
L 149.257245 270.622064 
L 149.889898 270.457497 
L 150.522551 270.134314 
L 151.155204 270.293135 
L 152.42051 270.059212 
L 153.053163 269.859762 
L 153.685816 269.337128 
L 154.318469 270.528905 
L 156.216429 270.102098 
L 156.849082 270.881226 
L 157.481735 271.119458 
L 158.114388 271.214669 
L 158.747041 271.794757 
L 159.379694 272.067873 
L 160.012347 272.177653 
L 160.645 272.425734 
L 161.277653 272.066847 
L 161.910306 272.031348 
L 162.542959 272.440508 
L 165.706224 273.331058 
L 166.338878 273.772229 
L 170.134796 274.682682 
L 170.767449 274.552383 
L 172.032755 274.85874 
L 173.930714 275.209214 
L 176.461327 275.549223 
L 177.726633 275.845731 
L 180.889898 275.974184 
L 184.053163 275.967823 
L 187.216429 276.299214 
L 191.012347 276.219393 
L 192.910306 276.25797 
L 194.808265 276.355027 
L 196.706224 276.564532 
L 199.86949 276.524108 
L 208.726633 276.425204 
L 211.889898 276.490046 
L 216.318469 276.53601 
L 218.849082 276.821642 
L 219.481735 276.848728 
L 222.645 276.378214 
L 223.910306 276.308653 
L 226.440918 276.522262 
L 227.706224 276.650714 
L 230.236837 276.703449 
L 236.563367 276.893666 
L 237.828673 276.801123 
L 242.889898 277.006729 
L 244.787857 277.014321 
L 246.053163 277.044074 
L 247.318469 277.005292 
L 259.971531 277.01822 
L 262.502143 276.993801 
L 266.298061 276.86617 
L 268.19602 276.73587 
L 269.461327 276.71966 
L 270.726633 276.601672 
L 272.624592 276.477734 
L 273.889898 276.214673 
L 276.42051 276.089709 
L 277.053163 275.835882 
L 277.685816 275.984444 
L 278.318469 275.914061 
L 279.583776 276.120078 
L 280.849082 275.709481 
L 281.481735 275.958794 
L 282.114388 275.56646 
L 284.012347 275.180692 
L 284.645 275.077684 
L 285.277653 275.197108 
L 285.910306 274.854431 
L 287.175612 274.518525 
L 288.440918 273.818603 
L 290.338878 273.349731 
L 292.236837 273.273193 
L 294.134796 273.210403 
L 298.563367 273.018955 
L 299.828673 273.114371 
L 301.726633 273.314026 
L 302.359286 273.349936 
L 304.257245 273.814704 
L 305.522551 273.915866 
L 307.42051 274.089461 
L 310.583776 274.03611 
L 311.849082 274.129064 
L 313.114388 274.184467 
L 316.277653 274.165999 
L 318.175612 273.75253 
L 318.808265 273.83625 
L 319.440918 273.508757 
L 322.604184 273.035986 
L 323.236837 272.606101 
L 323.86949 272.687564 
L 327.665408 271.751461 
L 328.298061 271.674923 
L 328.930714 271.465623 
L 329.563367 271.558987 
L 330.19602 271.211386 
L 331.461327 270.851678 
L 332.726633 270.409891 
L 333.359286 270.345665 
L 333.991939 270.059417 
L 334.624592 270.099841 
L 335.889898 269.802307 
L 336.522551 269.703813 
L 337.155204 269.48097 
L 337.787857 269.451422 
L 339.053163 269.03508 
L 340.318469 268.829474 
L 340.951122 268.834193 
L 341.583776 269.12434 
L 342.216429 269.091509 
L 342.849082 269.256486 
L 343.481735 269.178512 
L 344.114388 268.958542 
L 344.747041 268.936381 
L 347.277653 268.484745 
L 347.910306 268.65239 
L 348.542959 268.967981 
L 349.175612 268.981114 
L 349.808265 269.105667 
L 350.440918 269.064423 
L 351.073571 269.257512 
L 352.971531 269.439726 
L 354.236837 269.803538 
L 357.400102 270.311397 
L 358.032755 270.598466 
L 358.665408 270.50818 
L 359.930714 270.93745 
L 361.828673 271.298389 
L 362.461327 271.157214 
L 363.09398 271.500301 
L 364.991939 271.305366 
L 366.257245 271.256324 
L 368.155204 270.93827 
L 368.787857 270.932525 
L 369.42051 270.755031 
L 370.053163 270.441286 
L 371.951122 270.100661 
L 372.583776 270.142727 
L 374.481735 269.886847 
L 378.277653 268.667369 
L 381.440918 268.629818 
L 382.073571 268.522706 
L 383.971531 268.725234 
L 384.604184 269.001633 
L 385.86949 269.195953 
L 388.400102 270.05716 
L 391.563367 271.438948 
L 392.19602 272.097011 
L 395.359286 273.287146 
L 396.624592 273.524352 
L 397.889898 274.112443 
L 399.787857 274.754295 
L 400.42051 274.807031 
L 401.053163 274.683913 
L 402.951122 275.369267 
L 407.379694 276.455368 
L 408.012347 276.689496 
L 410.542959 276.987235 
L 411.175612 277.098246 
L 413.706224 277.140311 
L 415.604184 277.35392 
L 420.665408 277.682438 
L 423.19602 277.726555 
L 424.461327 277.813148 
L 426.359286 277.869987 
L 435.216429 278.199531 
L 437.114388 278.268477 
L 442.175612 278.3918 
L 449.767449 278.263553 
L 454.19602 278.003775 
L 458.624592 277.948987 
L 463.053163 277.660072 
L 465.583776 277.218491 
L 475.073571 276.225959 
L 476.338878 276.360773 
L 477.604184 276.179585 
L 479.502143 275.909547 
L 481.400102 275.470839 
L 488.991939 275.609551 
L 491.522551 275.661876 
L 493.42051 275.886155 
L 498.481735 276.56289 
L 499.114388 276.991955 
L 499.747041 276.823489 
L 502.910306 277.090449 
L 503.542959 276.796403 
L 504.175612 277.092295 
L 506.073571 277.222595 
L 511.134796 277.329502 
L 513.032755 277.09722 
L 514.298061 276.893871 
L 515.563367 276.681904 
L 516.19602 276.41084 
L 518.09398 275.07358 
L 519.991939 273.248364 
L 521.257245 271.470753 
L 523.787857 267.565468 
L 524.42051 266.598176 
L 525.053163 265.24019 
L 525.685816 263.314839 
L 526.951122 260.782108 
L 529.481735 252.457523 
L 530.114388 249.96501 
L 531.379694 243.634517 
L 532.012347 241.696648 
L 532.645 240.173891 
L 533.910306 235.471626 
L 534.542959 233.649898 
L 536.440918 229.817047 
L 537.073571 229.489555 
L 537.706224 228.763572 
L 538.338878 228.488405 
L 538.971531 227.884309 
L 539.604184 228.13198 
L 540.236837 227.784378 
L 540.86949 228.308243 
L 541.502143 228.553247 
L 542.134796 228.982311 
L 542.767449 229.058644 
L 543.400102 230.237493 
L 544.032755 230.509788 
L 546.563367 235.646863 
L 548.461327 238.702843 
L 549.726633 241.128256 
L 550.359286 245.124648 
L 550.991939 242.684666 
L 552.889898 247.665587 
L 554.155204 249.955982 
L 554.787857 247.542059 
L 555.42051 251.774016 
L 556.685816 254.042454 
L 557.318469 254.757972 
L 557.951122 255.75153 
L 558.583776 256.288937 
L 559.216429 256.634076 
L 561.114388 258.553888 
L 562.379694 260.279789 
L 563.012347 260.96268 
L 564.910306 264.043694 
L 565.542959 265.415222 
L 566.808265 267.280041 
L 567.440918 267.936872 
L 568.073571 268.338235 
L 569.971531 270.380548 
L 571.236837 271.498249 
L 575.032755 273.586732 
L 576.298061 273.997739 
L 577.563367 274.298761 
L 578.828673 274.678168 
L 579.461327 274.881722 
L 580.09398 275.25764 
L 581.359286 275.558662 
L 582.624592 275.630481 
L 583.889898 275.750315 
L 585.787857 275.577746 
L 587.685816 276.016249 
L 588.318469 276.092787 
L 589.583776 276.015633 
L 590.216429 276.060982 
L 591.481735 275.812079 
L 592.747041 275.407433 
L 593.379694 275.896825 
L 594.012347 275.131445 
L 595.277653 274.826524 
L 596.542959 274.249514 
L 597.175612 273.919969 
L 597.808265 272.970734 
L 598.440918 273.261907 
L 599.073571 273.134275 
L 600.338878 272.271222 
L 600.971531 271.864729 
L 602.236837 271.281768 
L 602.86949 271.197843 
L 604.767449 270.38732 
L 605.400102 269.900801 
L 606.665408 268.718668 
L 607.298061 268.472228 
L 607.930714 268.357524 
L 609.19602 267.822578 
L 611.09398 267.636671 
L 611.726633 267.19037 
L 612.359286 267.108908 
L 614.257245 265.251271 
L 616.155204 264.041437 
L 618.685816 263.848758 
L 619.318469 263.927348 
L 619.951122 263.873587 
L 620.583776 264.206209 
L 621.216429 264.208056 
L 621.849082 264.434181 
L 622.481735 265.333144 
L 623.114388 265.738611 
L 623.747041 265.541828 
L 624.379694 265.539366 
L 625.645 265.21413 
L 625.645 265.21413 
" clip-path="url(#p432d3fc265)" style="fill: none; stroke: #2e6507; stroke-width: 1.5; stroke-linecap: square"/>
   </g>
   <g id="line2d_28">
    <path d="M 67.645 279 
L 106.86949 278.893503 
L 110.032755 278.843846 
L 116.359286 278.866828 
L 120.787857 278.845282 
L 123.318469 278.79029 
L 138.502143 278.53913 
L 140.400102 278.34953 
L 143.563367 278.04584 
L 152.42051 277.62129 
L 160.645 276.323427 
L 161.277653 276.065906 
L 164.440918 275.442522 
L 167.604184 275.381989 
L 169.502143 275.122622 
L 172.032755 274.458403 
L 173.298061 274.317844 
L 174.563367 274.0515 
L 175.19602 274.056835 
L 175.828673 273.820655 
L 176.461327 273.867029 
L 177.09398 273.544051 
L 177.726633 273.355271 
L 178.991939 272.689411 
L 179.624592 272.178473 
L 180.257245 271.978407 
L 180.889898 271.651941 
L 181.522551 271.659944 
L 182.787857 271.359127 
L 184.053163 271.33676 
L 185.318469 271.159677 
L 185.951122 270.916725 
L 186.583776 270.930268 
L 187.216429 270.755236 
L 189.114388 269.89444 
L 189.747041 269.7112 
L 190.379694 269.852375 
L 191.012347 269.330151 
L 192.910306 269.175844 
L 193.542959 269.405048 
L 194.808265 269.136242 
L 195.440918 269.713252 
L 196.073571 269.754907 
L 196.706224 269.953946 
L 197.338878 269.804769 
L 197.971531 269.436648 
L 198.604184 269.211754 
L 199.236837 269.235761 
L 199.86949 268.382968 
L 200.502143 267.986735 
L 201.134796 267.195295 
L 201.767449 266.809732 
L 202.400102 266.079646 
L 204.930714 264.923368 
L 205.563367 264.844778 
L 206.19602 264.450392 
L 206.828673 264.662359 
L 207.461327 264.519953 
L 208.726633 264.580486 
L 209.991939 263.995883 
L 210.624592 264.020712 
L 211.889898 263.677009 
L 212.522551 263.252254 
L 213.155204 263.109848 
L 215.053163 263.094253 
L 215.685816 263.004378 
L 216.318469 263.312171 
L 218.216429 263.643973 
L 220.114388 263.081531 
L 220.747041 262.67668 
L 221.379694 262.59255 
L 222.012347 261.971833 
L 223.277653 261.311718 
L 223.910306 261.202144 
L 224.542959 260.849617 
L 225.175612 260.874241 
L 225.808265 261.114935 
L 226.440918 261.230871 
L 227.073571 260.971709 
L 228.338878 260.251882 
L 228.971531 260.167342 
L 229.604184 259.903665 
L 230.236837 259.358665 
L 232.134796 260.316519 
L 233.400102 259.682669 
L 234.032755 259.457775 
L 234.665408 259.409143 
L 236.563367 257.380989 
L 237.828673 257.709097 
L 240.359286 258.970845 
L 240.991939 259.874117 
L 242.257245 260.981558 
L 244.787857 262.857868 
L 245.42051 263.529268 
L 246.685816 264.300804 
L 247.951122 264.913519 
L 248.583776 265.176374 
L 249.849082 265.164063 
L 251.747041 265.047717 
L 252.379694 264.983285 
L 253.012347 265.070288 
L 253.645 265.348534 
L 254.910306 265.67972 
L 255.542959 266.141615 
L 256.808265 266.713906 
L 258.073571 268.167718 
L 258.706224 268.524553 
L 259.338878 268.740829 
L 259.971531 269.102384 
L 260.604184 269.316198 
L 262.502143 268.581187 
L 265.032755 269.467222 
L 266.298061 270.427743 
L 266.930714 271.336145 
L 267.563367 271.793731 
L 268.19602 271.924031 
L 270.09398 271.80789 
L 270.726633 271.42561 
L 271.359286 270.733895 
L 271.991939 270.417894 
L 275.155204 269.988625 
L 275.787857 269.750598 
L 276.42051 269.392941 
L 277.053163 270.896205 
L 277.685816 270.139649 
L 278.318469 270.566866 
L 279.583776 270.099635 
L 280.849082 268.727286 
L 281.481735 266.349889 
L 282.114388 267.706027 
L 282.747041 267.392693 
L 284.012347 267.011029 
L 285.910306 265.766517 
L 286.542959 263.865174 
L 287.175612 262.67155 
L 287.808265 262.276754 
L 289.073571 262.179286 
L 290.971531 262.646927 
L 291.604184 263.082968 
L 292.86949 263.301091 
L 293.502143 263.638022 
L 294.134796 263.763807 
L 295.400102 264.475631 
L 296.032755 264.592593 
L 296.665408 265.050795 
L 297.298061 265.175348 
L 299.19602 266.186143 
L 305.522551 268.102465 
L 309.318469 269.794099 
L 309.951122 269.673649 
L 310.583776 270.062495 
L 311.216429 270.840392 
L 311.849082 271.184095 
L 313.747041 270.982593 
L 314.379694 271.092578 
L 315.012347 270.649765 
L 315.645 269.936915 
L 316.277653 269.502105 
L 316.910306 269.38658 
L 317.542959 269.961744 
L 319.440918 270.325966 
L 321.338878 270.726919 
L 321.971531 270.150729 
L 323.236837 270.326172 
L 326.400102 269.993344 
L 327.032755 269.702377 
L 330.19602 268.975163 
L 332.726633 268.681528 
L 333.359286 268.441449 
L 334.624592 268.460737 
L 335.257245 267.480722 
L 336.522551 266.108373 
L 337.155204 264.546218 
L 337.787857 264.392527 
L 338.42051 262.801029 
L 339.053163 261.530457 
L 339.685816 262.153021 
L 340.318469 262.143582 
L 340.951122 261.579909 
L 341.583776 261.651112 
L 342.216429 259.452234 
L 342.849082 258.224548 
L 343.481735 256.325872 
L 344.114388 253.406348 
L 344.747041 251.552404 
L 346.012347 249.279451 
L 346.645 248.021396 
L 347.277653 247.381596 
L 347.910306 247.111558 
L 348.542959 246.015403 
L 349.175612 246.076962 
L 350.440918 245.660619 
L 351.073571 245.22068 
L 351.706224 245.061653 
L 352.338878 244.606734 
L 352.971531 244.932585 
L 353.604184 244.501469 
L 354.86949 245.101256 
L 355.502143 245.85022 
L 356.134796 246.304524 
L 356.767449 246.543166 
L 358.032755 248.632469 
L 359.298061 249.964395 
L 360.563367 249.737858 
L 361.19602 250.141478 
L 361.828673 250.114393 
L 362.461327 249.802085 
L 363.09398 249.763508 
L 363.726633 249.463717 
L 364.359286 249.517478 
L 364.991939 249.436221 
L 365.624592 248.934517 
L 366.257245 247.947321 
L 366.889898 247.240421 
L 367.522551 246.262048 
L 368.787857 241.980434 
L 369.42051 238.866179 
L 371.951122 231.353758 
L 372.583776 232.590883 
L 373.216429 234.836135 
L 373.849082 235.708832 
L 374.481735 234.642635 
L 375.114388 233.875408 
L 375.747041 234.353514 
L 376.379694 235.062465 
L 377.012347 233.928964 
L 377.645 231.722289 
L 378.277653 231.800674 
L 379.542959 235.29844 
L 380.175612 236.573527 
L 380.808265 237.585347 
L 381.440918 238.812417 
L 382.073571 239.677933 
L 383.338878 241.71409 
L 383.971531 242.538156 
L 384.604184 243.681096 
L 385.236837 244.373016 
L 385.86949 244.558308 
L 387.767449 246.939399 
L 388.400102 248.28774 
L 389.665408 249.328903 
L 390.298061 251.932016 
L 390.930714 253.137131 
L 391.563367 252.841444 
L 392.19602 252.701295 
L 393.461327 251.350286 
L 394.09398 250.999402 
L 394.726633 248.991972 
L 395.359286 248.442458 
L 395.991939 249.395797 
L 397.257245 250.713359 
L 397.889898 251.641049 
L 398.522551 252.278182 
L 399.155204 252.506359 
L 399.787857 253.014219 
L 400.42051 253.681105 
L 401.053163 254.075286 
L 401.685816 255.382382 
L 402.318469 255.889831 
L 402.951122 255.920611 
L 403.583776 256.390099 
L 404.216429 256.71164 
L 404.849082 256.655417 
L 405.481735 257.057806 
L 406.114388 256.494954 
L 406.747041 256.357678 
L 408.012347 257.207188 
L 409.277653 259.261402 
L 409.910306 260.04012 
L 411.175612 260.60092 
L 411.808265 260.483753 
L 412.440918 260.526639 
L 413.706224 259.925211 
L 414.338878 259.799015 
L 414.971531 260.237929 
L 415.604184 260.397982 
L 417.502143 261.362812 
L 418.134796 261.803367 
L 420.032755 261.970807 
L 420.665408 261.958905 
L 421.298061 262.164717 
L 422.563367 263.144937 
L 423.19602 263.230503 
L 423.828673 264.272282 
L 424.461327 265.015091 
L 425.09398 265.510433 
L 425.726633 266.853234 
L 426.359286 267.723264 
L 426.991939 268.058348 
L 427.624592 268.627356 
L 429.522551 268.905191 
L 430.155204 268.392407 
L 430.787857 268.403282 
L 431.42051 268.971675 
L 432.053163 269.740953 
L 433.318469 270.667822 
L 435.216429 271.297978 
L 437.747041 272.649808 
L 438.379694 272.78852 
L 439.012347 273.089132 
L 439.645 273.627771 
L 440.277653 273.996507 
L 444.706224 275.506338 
L 445.338878 275.746006 
L 447.236837 275.984033 
L 447.86949 276.011735 
L 448.502143 276.253866 
L 453.563367 276.948864 
L 456.09398 277.084293 
L 459.889898 277.732711 
L 461.155204 277.859933 
L 462.42051 277.884966 
L 470.012347 277.3334 
L 473.808265 277.266301 
L 479.502143 277.331143 
L 482.032755 277.160831 
L 484.563367 277.081625 
L 485.828673 277.040791 
L 487.09398 277.02889 
L 487.726633 277.188122 
L 488.359286 277.183607 
L 490.257245 276.859398 
L 491.522551 276.722327 
L 492.155204 276.450033 
L 492.787857 276.308858 
L 493.42051 276.381292 
L 497.849082 275.820697 
L 498.481735 275.80777 
L 499.747041 275.408459 
L 500.379694 275.351825 
L 501.645 274.838631 
L 502.910306 273.71108 
L 504.175612 272.932773 
L 505.440918 272.212741 
L 506.073571 271.2317 
L 506.706224 269.938557 
L 507.338878 268.265186 
L 507.971531 266.08375 
L 508.604184 265.464059 
L 509.236837 264.567559 
L 509.86949 261.504807 
L 510.502143 256.463969 
L 511.134796 250.121164 
L 512.400102 236.0788 
L 513.665408 230.801987 
L 514.298061 225.849998 
L 515.563367 205.241166 
L 516.828673 180.213033 
L 517.461327 163.454903 
L 519.359286 132.675134 
L 519.991939 125.303888 
L 520.624592 121.447439 
L 521.257245 115.431101 
L 521.889898 116.464672 
L 522.522551 118.122243 
L 523.155204 115.227752 
L 523.787857 117.989071 
L 524.42051 118.555616 
L 525.053163 118.287425 
L 525.685816 122.736479 
L 526.318469 122.429916 
L 526.951122 121.477193 
L 528.216429 130.599374 
L 528.849082 138.769857 
L 531.379694 182.014651 
L 532.012347 189.124478 
L 533.277653 208.653776 
L 533.910306 215.895543 
L 535.175612 224.910202 
L 535.808265 226.737675 
L 538.971531 245.848373 
L 539.604184 248.005801 
L 540.236837 249.313924 
L 542.134796 256.86328 
L 542.767449 258.599236 
L 543.400102 258.827824 
L 544.032755 259.549087 
L 545.930714 260.645242 
L 546.563367 261.562467 
L 547.828673 264.076936 
L 548.461327 264.530829 
L 549.09398 264.703193 
L 549.726633 266.281559 
L 550.359286 269.037337 
L 550.991939 269.944918 
L 553.522551 270.910364 
L 554.787857 269.728026 
L 555.42051 270.147651 
L 556.685816 271.343737 
L 560.481735 273.08667 
L 561.114388 271.280742 
L 561.747041 271.545239 
L 562.379694 271.547086 
L 563.012347 271.759053 
L 563.645 271.838259 
L 564.277653 272.05946 
L 564.910306 272.674431 
L 565.542959 275.10477 
L 566.808265 275.240404 
L 568.706224 275.826238 
L 569.338878 275.579182 
L 573.134796 276.479991 
L 573.767449 276.673286 
L 575.665408 276.658306 
L 578.19602 276.927318 
L 578.828673 277.214592 
L 580.09398 277.279023 
L 581.359286 278.031476 
L 582.624592 278.677432 
L 584.522551 279 
L 585.155204 276.679852 
L 588.318469 276.679852 
L 588.951122 274.331797 
L 589.583776 276.651945 
L 592.747041 276.651945 
L 593.379694 275.379116 
L 597.175612 275.379116 
L 597.808265 272.025603 
L 601.604184 272.025603 
L 602.236837 270.076654 
L 606.032755 270.076654 
L 606.665408 268.375376 
L 610.461327 268.375376 
L 611.09398 269.551763 
L 614.889898 269.551763 
L 615.522551 279 
L 616.155204 279 
L 616.787857 271.441615 
L 619.318469 271.441615 
L 619.951122 265.688133 
L 620.583776 265.688133 
L 621.216429 273.246517 
L 623.747041 273.246517 
L 624.379694 273.730574 
L 625.645 273.730574 
L 625.645 273.730574 
" clip-path="url(#p432d3fc265)" style="fill: none; stroke: #3536be; stroke-width: 1.5; stroke-linecap: square"/>
   </g>
   <g id="line2d_29">
    <path d="M 67.645 279 
L 107.502143 278.891657 
L 116.991939 278.784339 
L 121.42051 278.7433 
L 130.277653 278.435301 
L 137.86949 278.039274 
L 140.400102 277.991463 
L 144.828673 277.449336 
L 146.09398 277.315753 
L 151.155204 276.901669 
L 154.318469 276.800507 
L 155.583776 276.467064 
L 156.849082 276.257764 
L 158.114388 275.631097 
L 160.645 275.174946 
L 161.277653 274.882337 
L 162.542959 274.656827 
L 163.175612 274.289117 
L 163.808265 274.25649 
L 165.706224 273.891447 
L 166.338878 273.765252 
L 167.604184 273.911556 
L 168.236837 273.800135 
L 168.86949 273.82127 
L 169.502143 273.531944 
L 170.134796 273.535843 
L 170.767449 273.282632 
L 171.400102 272.583324 
L 174.563367 271.503995 
L 177.726633 268.796027 
L 178.359286 268.506291 
L 178.991939 268.071481 
L 179.624592 268.090359 
L 180.889898 268.72072 
L 182.155204 268.104928 
L 182.787857 267.437836 
L 183.42051 267.175186 
L 184.685816 266.284637 
L 185.951122 264.908184 
L 186.583776 264.482608 
L 187.216429 265.13 
L 188.481735 264.289518 
L 189.114388 264.288287 
L 190.379694 264.671183 
L 191.012347 264.682879 
L 191.645 263.513058 
L 192.277653 263.239942 
L 192.910306 263.385631 
L 194.175612 262.621482 
L 194.808265 262.40972 
L 195.440918 262.781945 
L 196.073571 262.857458 
L 196.706224 262.654314 
L 197.338878 262.601989 
L 197.971531 263.194389 
L 198.604184 263.320174 
L 199.236837 264.060315 
L 199.86949 263.604575 
L 200.502143 264.022559 
L 201.134796 264.622962 
L 201.767449 264.990057 
L 202.400102 264.974051 
L 203.032755 265.296824 
L 203.665408 265.300107 
L 204.298061 265.98936 
L 204.930714 266.295717 
L 205.563367 266.467056 
L 206.19602 266.774644 
L 206.828673 266.776285 
L 207.461327 266.981276 
L 208.09398 266.972042 
L 209.991939 268.015873 
L 210.624592 268.106159 
L 212.522551 268.781663 
L 213.155204 268.731185 
L 213.787857 268.929609 
L 214.42051 268.837477 
L 215.053163 268.887749 
L 215.685816 269.072015 
L 216.318469 268.856355 
L 217.583776 269.039184 
L 218.216429 268.956285 
L 219.481735 269.380835 
L 220.114388 269.182205 
L 220.747041 269.224476 
L 221.379694 269.154709 
L 222.012347 269.198211 
L 224.542959 270.132467 
L 225.175612 270.359413 
L 225.808265 270.3826 
L 227.706224 269.149579 
L 228.338878 268.567849 
L 230.236837 267.454868 
L 230.86949 267.319028 
L 231.502143 267.859924 
L 232.767449 268.575442 
L 233.400102 268.523937 
L 235.298061 269.397045 
L 235.930714 268.731801 
L 237.19602 268.044395 
L 237.828673 268.003971 
L 238.461327 267.644469 
L 239.09398 267.444813 
L 239.726633 266.858774 
L 240.359286 266.877242 
L 240.991939 266.640036 
L 241.624592 266.124173 
L 242.257245 265.824588 
L 242.889898 265.360025 
L 244.155204 265.004831 
L 244.787857 265.421378 
L 245.42051 265.426098 
L 246.053163 265.692031 
L 246.685816 265.74805 
L 247.951122 266.572116 
L 248.583776 267.548437 
L 249.216429 267.516426 
L 249.849082 267.254597 
L 251.114388 267.721622 
L 251.747041 267.675864 
L 252.379694 267.743168 
L 253.012347 267.477644 
L 253.645 267.555824 
L 254.277653 268.190905 
L 256.175612 268.974342 
L 256.808265 268.807723 
L 257.440918 268.78905 
L 259.338878 267.714851 
L 260.604184 266.868829 
L 261.236837 266.69667 
L 261.86949 266.313364 
L 263.767449 266.106527 
L 264.400102 266.257961 
L 265.665408 266.128688 
L 266.298061 266.627929 
L 266.930714 266.725602 
L 268.19602 267.388179 
L 268.828673 267.44707 
L 269.461327 267.750555 
L 270.09398 267.781745 
L 271.359286 266.680869 
L 273.257245 263.987265 
L 273.889898 262.79159 
L 277.053163 260.33314 
L 277.685816 259.991694 
L 278.318469 260.770207 
L 280.216429 261.716569 
L 280.849082 262.248847 
L 281.481735 261.966908 
L 282.114388 262.548843 
L 282.747041 262.275522 
L 283.379694 262.312868 
L 284.012347 262.107467 
L 285.277653 259.853187 
L 285.910306 259.59423 
L 286.542959 258.339253 
L 287.175612 257.463683 
L 287.808265 256.206859 
L 288.440918 255.244081 
L 289.073571 255.78908 
L 290.338878 256.068557 
L 290.971531 255.482313 
L 291.604184 254.444022 
L 292.236837 254.066052 
L 292.86949 254.124327 
L 294.134796 253.35074 
L 294.767449 253.710858 
L 296.032755 256.031417 
L 296.665408 257.029283 
L 297.930714 258.012376 
L 299.828673 260.488268 
L 300.461327 261.797006 
L 301.09398 262.707665 
L 301.726633 263.249176 
L 302.991939 264.571252 
L 304.257245 265.656738 
L 304.889898 265.78519 
L 305.522551 266.20974 
L 306.787857 268.266827 
L 307.42051 269.207034 
L 308.053163 269.924398 
L 308.685816 270.277335 
L 309.318469 271.01604 
L 311.849082 271.950706 
L 313.114388 272.46821 
L 313.747041 272.453846 
L 314.379694 272.593174 
L 315.645 272.640779 
L 318.808265 273.782283 
L 320.073571 273.662859 
L 320.706224 273.848767 
L 323.236837 273.877084 
L 324.502143 274.327078 
L 325.767449 274.007998 
L 328.298061 273.454996 
L 328.930714 273.412931 
L 330.828673 272.883321 
L 332.726633 271.532107 
L 334.624592 270.658999 
L 335.257245 270.194846 
L 337.155204 269.252998 
L 338.42051 268.090359 
L 339.053163 267.122451 
L 339.685816 266.542362 
L 340.318469 266.358712 
L 340.951122 265.972329 
L 342.849082 263.971465 
L 343.481735 263.763191 
L 344.114388 263.372704 
L 344.747041 262.272855 
L 345.379694 260.536694 
L 346.012347 259.192867 
L 348.542959 255.358169 
L 349.175612 254.918025 
L 349.808265 255.043604 
L 350.440918 255.566853 
L 351.706224 255.297431 
L 352.338878 254.807424 
L 352.971531 254.146283 
L 354.236837 254.065231 
L 354.86949 254.342245 
L 355.502143 254.21646 
L 356.134796 253.6967 
L 357.400102 254.544774 
L 358.032755 254.279661 
L 359.298061 254.796959 
L 359.930714 255.418087 
L 360.563367 256.431548 
L 362.461327 256.881953 
L 364.359286 256.034289 
L 365.624592 255.037654 
L 366.257245 255.231358 
L 366.889898 254.828559 
L 367.522551 255.265421 
L 368.155204 255.17493 
L 368.787857 255.849613 
L 369.42051 255.934564 
L 370.053163 256.565336 
L 370.685816 256.922992 
L 371.318469 256.950899 
L 371.951122 255.601531 
L 372.583776 254.782185 
L 375.114388 248.114555 
L 375.747041 247.754026 
L 376.379694 248.051765 
L 377.012347 246.779552 
L 377.645 245.79769 
L 378.910306 244.352086 
L 379.542959 242.992459 
L 380.175612 241.253015 
L 380.808265 240.466705 
L 381.440918 240.718686 
L 382.073571 242.23303 
L 382.706224 243.283837 
L 383.338878 242.661684 
L 383.971531 242.749918 
L 384.604184 242.539182 
L 385.236837 241.622162 
L 385.86949 241.124152 
L 387.134796 238.69997 
L 387.767449 239.05106 
L 389.665408 239.614322 
L 390.298061 239.84763 
L 390.930714 238.993195 
L 391.563367 238.54833 
L 392.19602 237.922073 
L 392.828673 237.112986 
L 394.726633 234.105433 
L 395.991939 235.095092 
L 397.257245 237.025983 
L 398.522551 239.647769 
L 399.155204 240.286338 
L 399.787857 240.113769 
L 400.42051 240.868684 
L 401.053163 241.90287 
L 403.583776 247.246167 
L 404.216429 249.13171 
L 404.849082 250.567875 
L 405.481735 251.635919 
L 406.114388 252.383447 
L 407.379694 252.836314 
L 408.012347 253.286719 
L 408.645 254.251754 
L 409.910306 256.607401 
L 410.542959 257.577772 
L 411.175612 259.396011 
L 412.440918 262.496518 
L 413.706224 263.170176 
L 414.338878 263.762371 
L 414.971531 264.522005 
L 416.86949 265.723631 
L 417.502143 266.646397 
L 418.134796 267.114243 
L 419.400102 268.269905 
L 420.032755 268.880978 
L 420.665408 269.854427 
L 422.563367 271.354407 
L 423.19602 271.819791 
L 423.828673 272.425734 
L 424.461327 272.845154 
L 425.726633 273.271961 
L 426.359286 273.415804 
L 426.991939 273.870107 
L 428.889898 274.430702 
L 431.42051 274.931584 
L 433.318469 275.633354 
L 435.849082 276.141213 
L 437.747041 276.193743 
L 438.379694 276.252224 
L 439.012347 276.433207 
L 442.808265 276.61973 
L 444.073571 276.622192 
L 447.86949 276.807278 
L 450.400102 276.759878 
L 451.665408 276.822668 
L 452.930714 276.793325 
L 459.889898 276.932243 
L 461.787857 276.959123 
L 467.481735 277.110968 
L 470.012347 276.945786 
L 471.910306 276.702834 
L 473.175612 276.743668 
L 474.440918 276.662615 
L 476.338878 276.627322 
L 479.502143 276.177328 
L 482.032755 275.644229 
L 483.298061 275.448678 
L 485.19602 275.63438 
L 486.461327 275.701068 
L 488.991939 275.571385 
L 490.889898 275.354698 
L 492.787857 275.529935 
L 495.951122 275.780274 
L 497.849082 276.011529 
L 500.379694 276.441209 
L 501.645 276.288544 
L 504.808265 276.170556 
L 506.073571 276.310294 
L 506.706224 276.337996 
L 507.971531 275.925142 
L 509.86949 275.111746 
L 510.502143 274.590549 
L 511.134796 273.688714 
L 511.767449 272.465542 
L 512.400102 270.9592 
L 513.665408 267.40993 
L 514.298061 266.06241 
L 514.930714 264.4112 
L 515.563367 262.37299 
L 516.828673 256.136682 
L 518.726633 244.784434 
L 519.359286 242.58453 
L 519.991939 239.794279 
L 520.624592 238.307841 
L 521.257245 236.515867 
L 521.889898 235.61198 
L 522.522551 235.265814 
L 523.155204 235.847134 
L 523.787857 234.662129 
L 524.42051 235.12464 
L 525.053163 235.078881 
L 525.685816 235.875861 
L 526.951122 238.703048 
L 527.583776 239.329511 
L 528.849082 243.238694 
L 529.481735 245.874023 
L 531.379694 251.955614 
L 532.645 254.21133 
L 533.277653 254.781569 
L 533.910306 255.621846 
L 534.542959 257.172305 
L 542.134796 271.442847 
L 542.767449 272.31616 
L 543.400102 272.603639 
L 544.665408 273.470591 
L 545.298061 273.5223 
L 546.563367 274.244179 
L 547.828673 274.988013 
L 548.461327 275.484587 
L 549.726633 275.997781 
L 554.155204 277.343455 
L 559.849082 278.111092 
L 563.645 278.164443 
L 567.440918 278.52805 
L 578.828673 278.602331 
L 583.257245 278.708212 
L 586.42051 278.6485 
L 590.216429 278.812451 
L 590.849082 278.854721 
L 591.481735 278.696721 
L 594.012347 278.799319 
L 595.277653 278.799319 
L 595.910306 278.657118 
L 599.706224 278.657118 
L 600.338878 278.221282 
L 604.134796 278.221282 
L 605.400102 278.10863 
L 608.563367 278.10863 
L 609.19602 277.840644 
L 612.991939 277.840644 
L 613.624592 277.206179 
L 617.42051 277.206179 
L 618.053163 276.166247 
L 621.849082 276.166247 
L 622.481735 274.95826 
L 625.645 274.95826 
L 625.645 274.95826 
" clip-path="url(#p432d3fc265)" style="fill: none; stroke: #ef3388; stroke-width: 1.5; stroke-linecap: square"/>
   </g>
   <g id="line2d_30">
    <path d="M 67.645 279 
L 106.236837 278.899659 
L 110.665408 278.706775 
L 111.930714 278.612385 
L 113.19602 278.211638 
L 115.09398 277.925185 
L 115.726633 277.517871 
L 119.522551 277.336068 
L 120.155204 277.657815 
L 120.787857 277.454055 
L 122.685816 277.325808 
L 123.318469 276.761109 
L 126.481735 275.704146 
L 127.114388 275.140063 
L 127.747041 275.470018 
L 128.379694 275.222142 
L 129.012347 275.16838 
L 130.277653 274.714282 
L 130.910306 274.578032 
L 131.542959 274.611274 
L 132.175612 274.386995 
L 132.808265 274.613121 
L 133.440918 274.598552 
L 134.073571 274.717565 
L 136.604184 274.172565 
L 138.502143 273.372712 
L 139.767449 273.220662 
L 140.400102 273.418061 
L 141.665408 273.318951 
L 144.19602 272.226489 
L 146.09398 269.865302 
L 146.726633 269.548685 
L 147.359286 269.065654 
L 147.991939 270.174737 
L 148.624592 270.500998 
L 149.257245 270.973769 
L 149.889898 271.595102 
L 150.522551 272.425734 
L 151.155204 272.91451 
L 151.787857 273.75294 
L 152.42051 272.862801 
L 153.053163 272.517867 
L 153.685816 273.380099 
L 154.318469 273.051171 
L 154.951122 272.183193 
L 156.216429 272.142359 
L 156.849082 272.416295 
L 157.481735 272.926207 
L 158.114388 272.200429 
L 158.747041 272.723268 
L 159.379694 273.829068 
L 160.645 274.1463 
L 165.073571 273.992609 
L 166.338878 274.19801 
L 168.236837 274.219145 
L 168.86949 274.211142 
L 170.134796 273.986248 
L 171.400102 274.065658 
L 172.665408 274.155739 
L 173.298061 273.98912 
L 175.19602 273.84179 
L 177.09398 273.405544 
L 178.359286 273.209377 
L 180.257245 272.757125 
L 181.522551 274.409566 
L 182.155204 272.42635 
L 183.42051 271.996054 
L 184.053163 272.928874 
L 184.685816 272.529974 
L 185.318469 272.529974 
L 185.951122 268.147403 
L 186.583776 270.097994 
L 187.849082 269.367907 
L 188.481735 267.770459 
L 189.114388 267.430449 
L 189.747041 267.430449 
L 190.379694 268.909705 
L 191.012347 268.733442 
L 191.645 268.783305 
L 192.277653 270.370289 
L 192.910306 270.146625 
L 193.542959 268.243435 
L 194.175612 268.243435 
L 194.808265 269.195953 
L 195.440918 268.162998 
L 196.073571 268.368194 
L 196.706224 266.761922 
L 197.338878 266.715958 
L 197.971531 268.583649 
L 198.604184 266.735246 
L 199.236837 266.804602 
L 199.86949 267.020674 
L 200.502143 266.904738 
L 201.134796 267.086131 
L 201.767449 267.722853 
L 202.400102 267.726957 
L 203.032755 267.941182 
L 203.665408 267.878597 
L 205.563367 268.792128 
L 206.19602 270.022482 
L 206.828673 269.120236 
L 207.461327 269.378988 
L 208.09398 269.916601 
L 208.726633 270.215366 
L 209.359286 270.886971 
L 209.991939 270.98485 
L 210.624592 269.633431 
L 211.257245 270.808176 
L 211.889898 270.828696 
L 212.522551 270.970691 
L 213.155204 270.865631 
L 213.787857 270.323299 
L 215.053163 270.458933 
L 215.685816 270.78581 
L 216.318469 270.845112 
L 216.951122 270.7854 
L 217.583776 270.940733 
L 218.216429 271.810968 
L 218.849082 271.09463 
L 219.481735 271.14203 
L 220.114388 269.871663 
L 220.747041 271.167269 
L 222.012347 271.529439 
L 222.645 270.829311 
L 223.277653 271.772596 
L 223.910306 272.406241 
L 224.542959 274.134194 
L 225.175612 273.463819 
L 225.808265 274.604297 
L 226.440918 274.307789 
L 227.073571 274.632409 
L 228.338878 274.725157 
L 228.971531 274.831038 
L 229.604184 273.96778 
L 230.236837 273.294122 
L 230.86949 274.280088 
L 231.502143 274.080432 
L 232.134796 274.681656 
L 232.767449 274.059297 
L 233.400102 274.665035 
L 234.032755 275.649359 
L 234.665408 275.680344 
L 235.298061 275.408254 
L 235.930714 275.531782 
L 236.563367 274.866537 
L 237.828673 274.868179 
L 238.461327 274.752654 
L 239.09398 274.246436 
L 239.726633 274.887878 
L 240.359286 274.958055 
L 240.991939 275.228708 
L 241.624592 275.911394 
L 242.257245 275.364342 
L 242.889898 275.49854 
L 243.522551 276.170761 
L 244.155204 276.170761 
L 244.787857 276.55222 
L 245.42051 275.041774 
L 246.053163 274.938356 
L 246.685816 275.485408 
L 247.951122 275.407638 
L 248.583776 274.930969 
L 249.216429 274.685965 
L 249.849082 276.20031 
L 250.481735 276.27418 
L 251.114388 275.816388 
L 253.012347 275.988137 
L 254.277653 276.024662 
L 254.910306 276.553041 
L 256.175612 275.833625 
L 256.808265 276.29511 
L 258.073571 276.47835 
L 259.971531 276.449417 
L 260.604184 276.47876 
L 261.236837 276.035127 
L 261.86949 276.361183 
L 262.502143 276.322606 
L 263.134796 276.708785 
L 263.767449 275.996755 
L 264.400102 276.79866 
L 265.665408 276.915622 
L 266.298061 276.664462 
L 266.930714 276.885048 
L 267.563367 276.329172 
L 268.19602 276.530264 
L 268.828673 276.530264 
L 270.09398 277.306109 
L 270.726633 276.73033 
L 271.359286 276.492919 
L 271.991939 277.048794 
L 272.624592 276.877045 
L 273.257245 276.877045 
L 273.889898 277.252964 
L 274.522551 275.931093 
L 275.155204 276.426025 
L 275.787857 276.466859 
L 276.42051 276.12254 
L 277.053163 276.805227 
L 277.685816 276.019532 
L 278.318469 275.698606 
L 278.951122 277.020477 
L 280.216429 276.859193 
L 280.849082 276.877661 
L 281.481735 275.925347 
L 282.114388 276.711042 
L 282.747041 277.031968 
L 283.379694 276.424178 
L 284.645 276.831697 
L 285.277653 276.635735 
L 285.910306 277.588048 
L 286.542959 276.734024 
L 287.175612 276.734024 
L 287.808265 277.341813 
L 288.440918 275.77658 
L 289.073571 275.332126 
L 290.338878 275.26277 
L 290.971531 272.876344 
L 291.604184 272.876344 
L 292.236837 271.943935 
L 292.86949 273.791517 
L 293.502143 274.235971 
L 294.134796 272.232029 
L 294.767449 272.232029 
L 295.400102 273.483518 
L 296.032755 273.483518 
L 296.665408 272.152413 
L 297.298061 272.152413 
L 297.930714 269.423105 
L 298.563367 272.018215 
L 299.19602 270.637043 
L 299.828673 271.453312 
L 300.461327 268.716616 
L 301.09398 269.909624 
L 301.726633 269.909624 
L 302.359286 271.720271 
L 302.991939 268.514909 
L 303.624592 269.896081 
L 304.257245 269.690886 
L 304.889898 270.787452 
L 305.522551 269.05642 
L 306.155204 269.05642 
L 306.787857 267.906709 
L 307.42051 271.112071 
L 308.053163 269.732335 
L 308.685816 269.303066 
L 309.951122 269.027488 
L 310.583776 268.370246 
L 311.216429 270.438619 
L 311.849082 269.16066 
L 313.114388 268.843838 
L 314.379694 269.148348 
L 315.012347 269.80559 
L 315.645 269.098075 
L 316.277653 268.993015 
L 316.910306 269.014766 
L 317.542959 267.804726 
L 318.175612 267.849664 
L 318.808265 270.678493 
L 320.073571 268.424212 
L 320.706224 269.807232 
L 321.338878 269.936505 
L 321.971531 272.129226 
L 322.604184 271.934906 
L 323.236837 270.566251 
L 325.767449 270.281644 
L 326.400102 269.822826 
L 327.032755 269.906546 
L 328.298061 270.53978 
L 328.930714 271.007421 
L 329.563367 267.596248 
L 330.19602 269.121673 
L 330.828673 267.288659 
L 331.461327 268.938228 
L 332.09398 267.024162 
L 332.726633 267.935847 
L 333.359286 266.219384 
L 333.991939 269.630558 
L 334.624592 265.689569 
L 335.257245 266.536617 
L 335.889898 264.774191 
L 336.522551 265.958581 
L 337.155204 265.293952 
L 337.787857 268.358139 
L 338.42051 265.139439 
L 339.685816 267.517042 
L 340.318469 268.127089 
L 340.951122 268.230302 
L 341.583776 267.285786 
L 342.216429 267.285786 
L 342.849082 268.784126 
L 343.481735 267.480107 
L 344.114388 266.652552 
L 344.747041 265.49689 
L 345.379694 265.595179 
L 346.012347 266.049893 
L 346.645 264.739308 
L 347.277653 264.811947 
L 347.910306 268.766274 
L 348.542959 268.218196 
L 349.175612 267.127581 
L 349.808265 268.754167 
L 351.073571 266.815273 
L 351.706224 268.462994 
L 352.338878 265.278767 
L 352.971531 265.745998 
L 353.604184 267.401517 
L 354.236837 265.877939 
L 354.86949 266.606383 
L 355.502143 268.9253 
L 356.134796 265.815969 
L 356.767449 269.000197 
L 357.400102 267.962522 
L 358.032755 269.70566 
L 358.665408 268.858612 
L 359.298061 269.573103 
L 359.930714 268.637 
L 360.563367 271.746331 
L 361.19602 270.562762 
L 361.828673 273.867645 
L 362.461327 269.640818 
L 363.09398 270.93745 
L 363.726633 271.579507 
L 364.359286 271.883607 
L 364.991939 269.366061 
L 365.624592 270.54963 
L 366.257245 267.797955 
L 366.889898 272.024782 
L 367.522551 271.046203 
L 368.155204 271.046203 
L 368.787857 270.799558 
L 369.42051 271.207487 
L 370.053163 271.207487 
L 370.685816 272.575117 
L 371.318469 270.422408 
L 371.951122 271.564323 
L 372.583776 271.564323 
L 373.216429 271.013577 
L 373.849082 272.099268 
L 374.481735 271.112482 
L 375.114388 272.496527 
L 376.379694 274.431112 
L 377.012347 272.807193 
L 377.645 274.236586 
L 378.277653 273.216148 
L 378.910306 274.202934 
L 379.542959 272.000363 
L 380.175612 272.262193 
L 380.808265 272.262193 
L 381.440918 273.233795 
L 382.073571 272.94057 
L 382.706224 274.382891 
L 383.338878 272.880038 
L 383.971531 274.508266 
L 384.604184 275.375218 
L 385.236837 274.232483 
L 385.86949 274.8848 
L 386.502143 274.38761 
L 387.134796 274.989655 
L 387.767449 273.981118 
L 388.400102 273.844868 
L 389.032755 273.844868 
L 389.665408 274.259158 
L 390.298061 273.462588 
L 390.930714 274.253002 
L 391.563367 273.638441 
L 392.19602 275.56646 
L 392.828673 274.879054 
L 393.461327 274.879054 
L 394.09398 275.033977 
L 394.726633 275.408254 
L 395.359286 275.408254 
L 395.991939 275.212292 
L 396.624592 274.669344 
L 397.257245 276.067343 
L 397.889898 276.067343 
L 398.522551 275.08979 
L 399.155204 275.191157 
L 399.787857 274.704022 
L 400.42051 274.983909 
L 401.053163 275.587185 
L 401.685816 275.587185 
L 402.318469 274.637334 
L 402.951122 275.785814 
L 404.216429 276.021379 
L 405.481735 276.136083 
L 406.114388 275.719126 
L 406.747041 276.268845 
L 414.338878 277.138259 
L 414.971531 277.470061 
L 415.604184 277.258093 
L 416.86949 277.062952 
L 418.767449 276.44203 
L 419.400102 276.135057 
L 420.032755 276.386832 
L 421.298061 276.660153 
L 422.563367 277.061311 
L 423.828673 277.198382 
L 425.09398 277.262608 
L 425.726633 277.365821 
L 426.359286 277.195714 
L 430.155204 277.288462 
L 431.42051 277.408502 
L 432.685816 277.517871 
L 433.951122 277.946936 
L 434.583776 277.473754 
L 435.849082 277.983255 
L 436.481735 277.779291 
L 437.114388 277.808428 
L 438.379694 277.409938 
L 439.012347 277.785857 
L 440.277653 277.454876 
L 440.910306 277.691877 
L 444.706224 277.814789 
L 445.338878 277.792013 
L 445.971531 277.958837 
L 446.604184 277.749948 
L 447.86949 277.708498 
L 449.767449 277.749332 
L 450.400102 277.564861 
L 451.032755 277.801247 
L 452.298061 277.829974 
L 453.563367 277.79386 
L 454.19602 278.008905 
L 454.828673 277.787498 
L 457.991939 277.79386 
L 458.624592 277.604464 
L 459.257245 277.83059 
L 460.522551 277.915746 
L 461.155204 277.822792 
L 462.42051 277.961094 
L 466.849082 277.777239 
L 467.481735 278.007468 
L 468.114388 277.813764 
L 470.645 277.793244 
L 471.277653 277.803093 
L 471.910306 277.598308 
L 472.542959 277.821356 
L 474.440918 277.783189 
L 475.073571 277.94591 
L 479.502143 277.830179 
L 480.134796 277.60077 
L 483.298061 277.46452 
L 483.930714 277.16514 
L 484.563367 277.343455 
L 485.828673 277.227109 
L 487.09398 276.988877 
L 488.991939 276.945991 
L 490.889898 276.974718 
L 494.053163 277.013705 
L 495.318469 276.969178 
L 496.583776 277.267122 
L 497.216429 276.890178 
L 497.849082 277.196124 
L 498.481735 276.896744 
L 499.747041 276.907004 
L 500.379694 276.751465 
L 501.012347 276.751465 
L 501.645 277.217875 
L 502.277653 276.914596 
L 502.910306 277.197356 
L 503.542959 277.121844 
L 504.175612 276.764803 
L 505.440918 276.753722 
L 506.073571 276.456189 
L 507.338878 276.313372 
L 507.971531 276.392988 
L 508.604184 275.908111 
L 509.236837 276.131569 
L 509.86949 275.70825 
L 510.502143 275.766321 
L 511.767449 274.751423 
L 512.400102 274.086383 
L 513.032755 274.409772 
L 513.665408 274.202729 
L 514.298061 274.216477 
L 514.930714 273.586526 
L 515.563367 272.628878 
L 516.19602 271.312753 
L 516.828673 269.618657 
L 517.461327 267.199604 
L 518.09398 263.993011 
L 518.726633 261.842559 
L 520.624592 249.453457 
L 521.257245 244.067685 
L 521.889898 237.171057 
L 522.522551 231.740757 
L 523.787857 226.542329 
L 525.053163 216.140342 
L 525.685816 211.956401 
L 526.318469 210.940477 
L 526.951122 209.228324 
L 527.583776 208.323616 
L 528.216429 206.661941 
L 528.849082 217.935804 
L 529.481735 209.161225 
L 530.114388 221.364214 
L 530.747041 224.311851 
L 531.379694 221.903264 
L 532.645 234.106869 
L 533.277653 224.542081 
L 533.910306 240.363287 
L 534.542959 235.726479 
L 535.175612 240.307063 
L 535.808265 250.460763 
L 536.440918 250.460763 
L 537.073571 249.244978 
L 537.706224 256.123549 
L 538.338878 260.749071 
L 538.971531 259.792859 
L 539.604184 261.259804 
L 540.236837 262.134758 
L 540.86949 261.307409 
L 542.134796 266.862262 
L 542.767449 263.132625 
L 543.400102 267.332981 
L 544.032755 267.666014 
L 544.665408 268.672704 
L 545.298061 269.112849 
L 545.930714 269.952715 
L 546.563367 269.334666 
L 547.19602 272.616361 
L 547.828673 273.482287 
L 548.461327 274.605528 
L 550.991939 275.570769 
L 552.257245 275.745185 
L 553.522551 276.684366 
L 554.787857 276.90331 
L 555.42051 277.289694 
L 556.053163 277.237164 
L 556.685816 276.910492 
L 560.481735 277.291746 
L 561.114388 277.887634 
L 562.379694 277.994336 
L 564.277653 277.950629 
L 564.910306 278.099191 
L 567.440918 278.254319 
L 568.073571 278.379078 
L 568.706224 278.159929 
L 569.338878 278.403701 
L 570.604184 278.338039 
L 573.134796 278.422374 
L 573.767449 278.272786 
L 575.665408 278.388312 
L 580.09398 278.138383 
L 581.991939 277.891533 
L 582.624592 278.054663 
L 583.257245 277.90487 
L 583.889898 278.137357 
L 584.522551 277.94591 
L 587.053163 277.90918 
L 593.379694 278.190913 
L 594.012347 278.331267 
L 594.645 278.34994 
L 595.277653 278.491935 
L 597.175612 278.550621 
L 598.440918 278.644191 
L 599.073571 278.488447 
L 599.706224 277.892148 
L 600.338878 278.380104 
L 602.86949 278.016497 
L 603.502143 278.218615 
L 604.134796 278.691591 
L 604.767449 278.235646 
L 605.400102 278.284277 
L 606.032755 278.129355 
L 607.298061 278.17142 
L 609.828673 277.966019 
L 610.461327 278.031066 
L 611.09398 277.906307 
L 611.726633 277.967045 
L 613.624592 277.912052 
L 614.889898 277.866088 
L 615.522551 278.096934 
L 616.155204 277.679566 
L 616.787857 277.661508 
L 618.053163 278.002954 
L 618.685816 277.424097 
L 619.318469 277.341198 
L 619.951122 277.005703 
L 620.583776 277.116919 
L 621.216429 276.873762 
L 622.481735 275.757908 
L 623.114388 275.974184 
L 623.747041 275.799357 
L 624.379694 276.134852 
L 625.012347 275.586364 
L 625.645 275.373371 
L 625.645 275.373371 
" clip-path="url(#p432d3fc265)" style="fill: none; stroke: #84c8fa; stroke-width: 1.5; stroke-linecap: square"/>
   </g>
   <g id="text_18">
    <!-- Brazil -->
    <g style="fill: #42537f" transform="translate(642.385 203.221124)scale(0.14 -0.14)">
     <defs>
      <path id="DejaVuSans-42" d="M 1259 2228 
L 1259 519 
L 2272 519 
Q 2781 519 3026 730 
Q 3272 941 3272 1375 
Q 3272 1813 3026 2020 
Q 2781 2228 2272 2228 
L 1259 2228 
z
M 1259 4147 
L 1259 2741 
L 2194 2741 
Q 2656 2741 2882 2914 
Q 3109 3088 3109 3444 
Q 3109 3797 2882 3972 
Q 2656 4147 2194 4147 
L 1259 4147 
z
M 628 4666 
L 2241 4666 
Q 2963 4666 3353 4366 
Q 3744 4066 3744 3513 
Q 3744 3084 3544 2831 
Q 3344 2578 2956 2516 
Q 3422 2416 3680 2098 
Q 3938 1781 3938 1306 
Q 3938 681 3513 340 
Q 3088 0 2303 0 
L 628 0 
L 628 4666 
z
" transform="scale(0.015625)"/>
      <path id="DejaVuSans-72" d="M 2631 2963 
Q 2534 3019 2420 3045 
Q 2306 3072 2169 3072 
Q 1681 3072 1420 2755 
Q 1159 2438 1159 1844 
L 1159 0 
L 581 0 
L 581 3500 
L 1159 3500 
L 1159 2956 
Q 1341 3275 1631 3429 
Q 1922 3584 2338 3584 
Q 2397 3584 2469 3576 
Q 2541 3569 2628 3553 
L 2631 2963 
z
" transform="scale(0.015625)"/>
      <path id="DejaVuSans-61" d="M 2194 1759 
Q 1497 1759 1228 1600 
Q 959 1441 959 1056 
Q 959 750 1161 570 
Q 1363 391 1709 391 
Q 2188 391 2477 730 
Q 2766 1069 2766 1631 
L 2766 1759 
L 2194 1759 
z
M 3341 1997 
L 3341 0 
L 2766 0 
L 2766 531 
Q 2569 213 2275 61 
Q 1981 -91 1556 -91 
Q 1019 -91 701 211 
Q 384 513 384 1019 
Q 384 1609 779 1909 
Q 1175 2209 1959 2209 
L 2766 2209 
L 2766 2266 
Q 2766 2663 2505 2880 
Q 2244 3097 1772 3097 
Q 1472 3097 1187 3025 
Q 903 2953 641 2809 
L 641 3341 
Q 956 3463 1253 3523 
Q 1550 3584 1831 3584 
Q 2591 3584 2966 3190 
Q 3341 2797 3341 1997 
z
" transform="scale(0.015625)"/>
      <path id="DejaVuSans-7a" d="M 353 3500 
L 3084 3500 
L 3084 2975 
L 922 459 
L 3084 459 
L 3084 0 
L 275 0 
L 275 525 
L 2438 3041 
L 353 3041 
L 353 3500 
z
" transform="scale(0.015625)"/>
      <path id="DejaVuSans-69" d="M 603 3500 
L 1178 3500 
L 1178 0 
L 603 0 
L 603 3500 
z
M 603 4863 
L 1178 4863 
L 1178 4134 
L 603 4134 
L 603 4863 
z
" transform="scale(0.015625)"/>
      <path id="DejaVuSans-6c" d="M 603 4863 
L 1178 4863 
L 1178 0 
L 603 0 
L 603 4863 
z
" transform="scale(0.015625)"/>
     </defs>
     <use xlink:href="#DejaVuSans-42"/>
     <use xlink:href="#DejaVuSans-72" x="68.603516"/>
     <use xlink:href="#DejaVuSans-61" x="109.716797"/>
     <use xlink:href="#DejaVuSans-7a" x="170.996094"/>
     <use xlink:href="#DejaVuSans-69" x="223.486328"/>
     <use xlink:href="#DejaVuSans-6c" x="251.269531"/>
    </g>
   </g>
   <g id="text_19">
    <!-- Chile -->
    <g style="fill: #2e6507" transform="translate(642.385 255.182209)scale(0.14 -0.14)">
     <defs>
      <path id="DejaVuSans-43" d="M 4122 4306 
L 4122 3641 
Q 3803 3938 3442 4084 
Q 3081 4231 2675 4231 
Q 1875 4231 1450 3742 
Q 1025 3253 1025 2328 
Q 1025 1406 1450 917 
Q 1875 428 2675 428 
Q 3081 428 3442 575 
Q 3803 722 4122 1019 
L 4122 359 
Q 3791 134 3420 21 
Q 3050 -91 2638 -91 
Q 1578 -91 968 557 
Q 359 1206 359 2328 
Q 359 3453 968 4101 
Q 1578 4750 2638 4750 
Q 3056 4750 3426 4639 
Q 3797 4528 4122 4306 
z
" transform="scale(0.015625)"/>
      <path id="DejaVuSans-68" d="M 3513 2113 
L 3513 0 
L 2938 0 
L 2938 2094 
Q 2938 2591 2744 2837 
Q 2550 3084 2163 3084 
Q 1697 3084 1428 2787 
Q 1159 2491 1159 1978 
L 1159 0 
L 581 0 
L 581 4863 
L 1159 4863 
L 1159 2956 
Q 1366 3272 1645 3428 
Q 1925 3584 2291 3584 
Q 2894 3584 3203 3211 
Q 3513 2838 3513 2113 
z
" transform="scale(0.015625)"/>
      <path id="DejaVuSans-65" d="M 3597 1894 
L 3597 1613 
L 953 1613 
Q 991 1019 1311 708 
Q 1631 397 2203 397 
Q 2534 397 2845 478 
Q 3156 559 3463 722 
L 3463 178 
Q 3153 47 2828 -22 
Q 2503 -91 2169 -91 
Q 1331 -91 842 396 
Q 353 884 353 1716 
Q 353 2575 817 3079 
Q 1281 3584 2069 3584 
Q 2775 3584 3186 3129 
Q 3597 2675 3597 1894 
z
M 3022 2063 
Q 3016 2534 2758 2815 
Q 2500 3097 2075 3097 
Q 1594 3097 1305 2825 
Q 1016 2553 972 2059 
L 3022 2063 
z
" transform="scale(0.015625)"/>
     </defs>
     <use xlink:href="#DejaVuSans-43"/>
     <use xlink:href="#DejaVuSans-68" x="69.824219"/>
     <use xlink:href="#DejaVuSans-69" x="133.203125"/>
     <use xlink:href="#DejaVuSans-6c" x="160.986328"/>
     <use xlink:href="#DejaVuSans-65" x="188.769531"/>
    </g>
   </g>
   <g id="text_20">
    <!-- Argentina -->
    <g style="fill: #3536be" transform="translate(642.385 269.182209)scale(0.14 -0.14)">
     <defs>
      <path id="DejaVuSans-41" d="M 2188 4044 
L 1331 1722 
L 3047 1722 
L 2188 4044 
z
M 1831 4666 
L 2547 4666 
L 4325 0 
L 3669 0 
L 3244 1197 
L 1141 1197 
L 716 0 
L 50 0 
L 1831 4666 
z
" transform="scale(0.015625)"/>
      <path id="DejaVuSans-67" d="M 2906 1791 
Q 2906 2416 2648 2759 
Q 2391 3103 1925 3103 
Q 1463 3103 1205 2759 
Q 947 2416 947 1791 
Q 947 1169 1205 825 
Q 1463 481 1925 481 
Q 2391 481 2648 825 
Q 2906 1169 2906 1791 
z
M 3481 434 
Q 3481 -459 3084 -895 
Q 2688 -1331 1869 -1331 
Q 1566 -1331 1297 -1286 
Q 1028 -1241 775 -1147 
L 775 -588 
Q 1028 -725 1275 -790 
Q 1522 -856 1778 -856 
Q 2344 -856 2625 -561 
Q 2906 -266 2906 331 
L 2906 616 
Q 2728 306 2450 153 
Q 2172 0 1784 0 
Q 1141 0 747 490 
Q 353 981 353 1791 
Q 353 2603 747 3093 
Q 1141 3584 1784 3584 
Q 2172 3584 2450 3431 
Q 2728 3278 2906 2969 
L 2906 3500 
L 3481 3500 
L 3481 434 
z
" transform="scale(0.015625)"/>
      <path id="DejaVuSans-6e" d="M 3513 2113 
L 3513 0 
L 2938 0 
L 2938 2094 
Q 2938 2591 2744 2837 
Q 2550 3084 2163 3084 
Q 1697 3084 1428 2787 
Q 1159 2491 1159 1978 
L 1159 0 
L 581 0 
L 581 3500 
L 1159 3500 
L 1159 2956 
Q 1366 3272 1645 3428 
Q 1925 3584 2291 3584 
Q 2894 3584 3203 3211 
Q 3513 2838 3513 2113 
z
" transform="scale(0.015625)"/>
      <path id="DejaVuSans-74" d="M 1172 4494 
L 1172 3500 
L 2356 3500 
L 2356 3053 
L 1172 3053 
L 1172 1153 
Q 1172 725 1289 603 
Q 1406 481 1766 481 
L 2356 481 
L 2356 0 
L 1766 0 
Q 1100 0 847 248 
Q 594 497 594 1153 
L 594 3053 
L 172 3053 
L 172 3500 
L 594 3500 
L 594 4494 
L 1172 4494 
z
" transform="scale(0.015625)"/>
     </defs>
     <use xlink:href="#DejaVuSans-41"/>
     <use xlink:href="#DejaVuSans-72" x="68.408203"/>
     <use xlink:href="#DejaVuSans-67" x="107.771484"/>
     <use xlink:href="#DejaVuSans-65" x="171.248047"/>
     <use xlink:href="#DejaVuSans-6e" x="232.771484"/>
     <use xlink:href="#DejaVuSans-74" x="296.150391"/>
     <use xlink:href="#DejaVuSans-69" x="335.359375"/>
     <use xlink:href="#DejaVuSans-6e" x="363.142578"/>
     <use xlink:href="#DejaVuSans-61" x="426.521484"/>
    </g>
   </g>
   <g id="text_21">
    <!-- Colombia -->
    <g style="fill: #ef3388" transform="translate(642.385 283.182209)scale(0.14 -0.14)">
     <defs>
      <path id="DejaVuSans-6f" d="M 1959 3097 
Q 1497 3097 1228 2736 
Q 959 2375 959 1747 
Q 959 1119 1226 758 
Q 1494 397 1959 397 
Q 2419 397 2687 759 
Q 2956 1122 2956 1747 
Q 2956 2369 2687 2733 
Q 2419 3097 1959 3097 
z
M 1959 3584 
Q 2709 3584 3137 3096 
Q 3566 2609 3566 1747 
Q 3566 888 3137 398 
Q 2709 -91 1959 -91 
Q 1206 -91 779 398 
Q 353 888 353 1747 
Q 353 2609 779 3096 
Q 1206 3584 1959 3584 
z
" transform="scale(0.015625)"/>
      <path id="DejaVuSans-6d" d="M 3328 2828 
Q 3544 3216 3844 3400 
Q 4144 3584 4550 3584 
Q 5097 3584 5394 3201 
Q 5691 2819 5691 2113 
L 5691 0 
L 5113 0 
L 5113 2094 
Q 5113 2597 4934 2840 
Q 4756 3084 4391 3084 
Q 3944 3084 3684 2787 
Q 3425 2491 3425 1978 
L 3425 0 
L 2847 0 
L 2847 2094 
Q 2847 2600 2669 2842 
Q 2491 3084 2119 3084 
Q 1678 3084 1418 2786 
Q 1159 2488 1159 1978 
L 1159 0 
L 581 0 
L 581 3500 
L 1159 3500 
L 1159 2956 
Q 1356 3278 1631 3431 
Q 1906 3584 2284 3584 
Q 2666 3584 2933 3390 
Q 3200 3197 3328 2828 
z
" transform="scale(0.015625)"/>
      <path id="DejaVuSans-62" d="M 3116 1747 
Q 3116 2381 2855 2742 
Q 2594 3103 2138 3103 
Q 1681 3103 1420 2742 
Q 1159 2381 1159 1747 
Q 1159 1113 1420 752 
Q 1681 391 2138 391 
Q 2594 391 2855 752 
Q 3116 1113 3116 1747 
z
M 1159 2969 
Q 1341 3281 1617 3432 
Q 1894 3584 2278 3584 
Q 2916 3584 3314 3078 
Q 3713 2572 3713 1747 
Q 3713 922 3314 415 
Q 2916 -91 2278 -91 
Q 1894 -91 1617 61 
Q 1341 213 1159 525 
L 1159 0 
L 581 0 
L 581 4863 
L 1159 4863 
L 1159 2969 
z
" transform="scale(0.015625)"/>
     </defs>
     <use xlink:href="#DejaVuSans-43"/>
     <use xlink:href="#DejaVuSans-6f" x="69.824219"/>
     <use xlink:href="#DejaVuSans-6c" x="131.005859"/>
     <use xlink:href="#DejaVuSans-6f" x="158.789062"/>
     <use xlink:href="#DejaVuSans-6d" x="219.970703"/>
     <use xlink:href="#DejaVuSans-62" x="317.382812"/>
     <use xlink:href="#DejaVuSans-69" x="380.859375"/>
     <use xlink:href="#DejaVuSans-61" x="408.642578"/>
    </g>
   </g>
   <g id="text_22">
    <!-- Peru -->
    <g style="fill: #84c8fa" transform="translate(642.385 297.182209)scale(0.14 -0.14)">
     <defs>
      <path id="DejaVuSans-50" d="M 1259 4147 
L 1259 2394 
L 2053 2394 
Q 2494 2394 2734 2622 
Q 2975 2850 2975 3272 
Q 2975 3691 2734 3919 
Q 2494 4147 2053 4147 
L 1259 4147 
z
M 628 4666 
L 2053 4666 
Q 2838 4666 3239 4311 
Q 3641 3956 3641 3272 
Q 3641 2581 3239 2228 
Q 2838 1875 2053 1875 
L 1259 1875 
L 1259 0 
L 628 0 
L 628 4666 
z
" transform="scale(0.015625)"/>
      <path id="DejaVuSans-75" d="M 544 1381 
L 544 3500 
L 1119 3500 
L 1119 1403 
Q 1119 906 1312 657 
Q 1506 409 1894 409 
Q 2359 409 2629 706 
Q 2900 1003 2900 1516 
L 2900 3500 
L 3475 3500 
L 3475 0 
L 2900 0 
L 2900 538 
Q 2691 219 2414 64 
Q 2138 -91 1772 -91 
Q 1169 -91 856 284 
Q 544 659 544 1381 
z
M 1991 3584 
L 1991 3584 
z
" transform="scale(0.015625)"/>
     </defs>
     <use xlink:href="#DejaVuSans-50"/>
     <use xlink:href="#DejaVuSans-65" x="56.677734"/>
     <use xlink:href="#DejaVuSans-72" x="118.201172"/>
     <use xlink:href="#DejaVuSans-75" x="159.314453"/>
    </g>
   </g>
  </g>
 </g>
 <defs>
  <clipPath id="p432d3fc265">
   <rect x="67.645" y="7.2" width="558" height="271.8"/>
  </clipPath>
 </defs>
</svg>
