<?xml version="1.0" encoding="utf-8" standalone="no"?>
<!DOCTYPE svg PUBLIC "-//W3C//DTD SVG 1.1//EN"
  "http://www.w3.org/Graphics/SVG/1.1/DTD/svg11.dtd">
<svg xmlns:xlink="http://www.w3.org/1999/xlink" width="721.0375pt" height="318.218693pt" viewBox="0 0 721.0375 318.218693" xmlns="http://www.w3.org/2000/svg" version="1.1">
 <metadata>
  <rdf:RDF xmlns:dc="http://purl.org/dc/elements/1.1/" xmlns:cc="http://creativecommons.org/ns#" xmlns:rdf="http://www.w3.org/1999/02/22-rdf-syntax-ns#">
   <cc:Work>
    <dc:type rdf:resource="http://purl.org/dc/dcmitype/StillImage"/>
    <dc:date>2022-06-29T14:14:44.480333</dc:date>
    <dc:format>image/svg+xml</dc:format>
    <dc:creator>
     <cc:Agent>
      <dc:title>Matplotlib v3.5.1, https://matplotlib.org/</dc:title>
     </cc:Agent>
    </dc:creator>
   </cc:Work>
  </rdf:RDF>
 </metadata>
 <defs>
  <style type="text/css">*{stroke-linejoin: round; stroke-linecap: butt}</style>
 </defs>
 <g id="figure_1">
  <g id="patch_1">
   <path d="M 0 318.218693 
L 721.0375 318.218693 
L 721.0375 0 
L 0 0 
L 0 318.218693 
z
" style="fill: none"/>
  </g>
  <g id="axes_1">
   <g id="patch_2">
    <path d="M 49.83 279 
L 607.83 279 
L 607.83 7.2 
L 49.83 7.2 
L 49.83 279 
z
" style="fill: none"/>
   </g>
   <g id="matplotlib.axis_1">
    <g id="xtick_1">
     <g id="line2d_1">
      <defs>
       <path id="m20be852533" d="M 0 0 
L 0 3.5 
" style="stroke: #b0b0b0; stroke-width: 0.4"/>
      </defs>
      <g>
       <use xlink:href="#m20be852533" x="90.319796" y="279" style="fill: #b0b0b0; stroke: #b0b0b0; stroke-width: 0.4"/>
      </g>
     </g>
     <g id="text_1">
      <!-- 2020-04 -->
      <g style="fill: #b0b0b0" transform="translate(61.071827 296.637813)scale(0.14 -0.14)">
       <defs>
        <path id="DejaVuSans-32" d="M 1228 531 
L 3431 531 
L 3431 0 
L 469 0 
L 469 531 
Q 828 903 1448 1529 
Q 2069 2156 2228 2338 
Q 2531 2678 2651 2914 
Q 2772 3150 2772 3378 
Q 2772 3750 2511 3984 
Q 2250 4219 1831 4219 
Q 1534 4219 1204 4116 
Q 875 4013 500 3803 
L 500 4441 
Q 881 4594 1212 4672 
Q 1544 4750 1819 4750 
Q 2544 4750 2975 4387 
Q 3406 4025 3406 3419 
Q 3406 3131 3298 2873 
Q 3191 2616 2906 2266 
Q 2828 2175 2409 1742 
Q 1991 1309 1228 531 
z
" transform="scale(0.015625)"/>
        <path id="DejaVuSans-30" d="M 2034 4250 
Q 1547 4250 1301 3770 
Q 1056 3291 1056 2328 
Q 1056 1369 1301 889 
Q 1547 409 2034 409 
Q 2525 409 2770 889 
Q 3016 1369 3016 2328 
Q 3016 3291 2770 3770 
Q 2525 4250 2034 4250 
z
M 2034 4750 
Q 2819 4750 3233 4129 
Q 3647 3509 3647 2328 
Q 3647 1150 3233 529 
Q 2819 -91 2034 -91 
Q 1250 -91 836 529 
Q 422 1150 422 2328 
Q 422 3509 836 4129 
Q 1250 4750 2034 4750 
z
" transform="scale(0.015625)"/>
        <path id="DejaVuSans-2d" d="M 313 2009 
L 1997 2009 
L 1997 1497 
L 313 1497 
L 313 2009 
z
" transform="scale(0.015625)"/>
        <path id="DejaVuSans-34" d="M 2419 4116 
L 825 1625 
L 2419 1625 
L 2419 4116 
z
M 2253 4666 
L 3047 4666 
L 3047 1625 
L 3713 1625 
L 3713 1100 
L 3047 1100 
L 3047 0 
L 2419 0 
L 2419 1100 
L 313 1100 
L 313 1709 
L 2253 4666 
z
" transform="scale(0.015625)"/>
       </defs>
       <use xlink:href="#DejaVuSans-32"/>
       <use xlink:href="#DejaVuSans-30" x="63.623047"/>
       <use xlink:href="#DejaVuSans-32" x="127.246094"/>
       <use xlink:href="#DejaVuSans-30" x="190.869141"/>
       <use xlink:href="#DejaVuSans-2d" x="254.492188"/>
       <use xlink:href="#DejaVuSans-30" x="290.576172"/>
       <use xlink:href="#DejaVuSans-34" x="354.199219"/>
      </g>
     </g>
    </g>
    <g id="xtick_2">
     <g id="line2d_2">
      <g>
       <use xlink:href="#m20be852533" x="147.891224" y="279" style="fill: #b0b0b0; stroke: #b0b0b0; stroke-width: 0.4"/>
      </g>
     </g>
     <g id="text_2">
      <!-- 2020-07 -->
      <g style="fill: #b0b0b0" transform="translate(118.643256 296.637813)scale(0.14 -0.14)">
       <defs>
        <path id="DejaVuSans-37" d="M 525 4666 
L 3525 4666 
L 3525 4397 
L 1831 0 
L 1172 0 
L 2766 4134 
L 525 4134 
L 525 4666 
z
" transform="scale(0.015625)"/>
       </defs>
       <use xlink:href="#DejaVuSans-32"/>
       <use xlink:href="#DejaVuSans-30" x="63.623047"/>
       <use xlink:href="#DejaVuSans-32" x="127.246094"/>
       <use xlink:href="#DejaVuSans-30" x="190.869141"/>
       <use xlink:href="#DejaVuSans-2d" x="254.492188"/>
       <use xlink:href="#DejaVuSans-30" x="290.576172"/>
       <use xlink:href="#DejaVuSans-37" x="354.199219"/>
      </g>
     </g>
    </g>
    <g id="xtick_3">
     <g id="line2d_3">
      <g>
       <use xlink:href="#m20be852533" x="206.095306" y="279" style="fill: #b0b0b0; stroke: #b0b0b0; stroke-width: 0.4"/>
      </g>
     </g>
     <g id="text_3">
      <!-- 2020-10 -->
      <g style="fill: #b0b0b0" transform="translate(176.847337 296.637813)scale(0.14 -0.14)">
       <defs>
        <path id="DejaVuSans-31" d="M 794 531 
L 1825 531 
L 1825 4091 
L 703 3866 
L 703 4441 
L 1819 4666 
L 2450 4666 
L 2450 531 
L 3481 531 
L 3481 0 
L 794 0 
L 794 531 
z
" transform="scale(0.015625)"/>
       </defs>
       <use xlink:href="#DejaVuSans-32"/>
       <use xlink:href="#DejaVuSans-30" x="63.623047"/>
       <use xlink:href="#DejaVuSans-32" x="127.246094"/>
       <use xlink:href="#DejaVuSans-30" x="190.869141"/>
       <use xlink:href="#DejaVuSans-2d" x="254.492188"/>
       <use xlink:href="#DejaVuSans-31" x="290.576172"/>
       <use xlink:href="#DejaVuSans-30" x="354.199219"/>
      </g>
     </g>
    </g>
    <g id="xtick_4">
     <g id="line2d_4">
      <g>
       <use xlink:href="#m20be852533" x="264.299388" y="279" style="fill: #b0b0b0; stroke: #b0b0b0; stroke-width: 0.4"/>
      </g>
     </g>
     <g id="text_4">
      <!-- 2021-01 -->
      <g style="fill: #b0b0b0" transform="translate(235.051419 296.637813)scale(0.14 -0.14)">
       <use xlink:href="#DejaVuSans-32"/>
       <use xlink:href="#DejaVuSans-30" x="63.623047"/>
       <use xlink:href="#DejaVuSans-32" x="127.246094"/>
       <use xlink:href="#DejaVuSans-31" x="190.869141"/>
       <use xlink:href="#DejaVuSans-2d" x="254.492188"/>
       <use xlink:href="#DejaVuSans-30" x="290.576172"/>
       <use xlink:href="#DejaVuSans-31" x="354.199219"/>
      </g>
     </g>
    </g>
    <g id="xtick_5">
     <g id="line2d_5">
      <g>
       <use xlink:href="#m20be852533" x="321.238163" y="279" style="fill: #b0b0b0; stroke: #b0b0b0; stroke-width: 0.4"/>
      </g>
     </g>
     <g id="text_5">
      <!-- 2021-04 -->
      <g style="fill: #b0b0b0" transform="translate(291.990195 296.637813)scale(0.14 -0.14)">
       <use xlink:href="#DejaVuSans-32"/>
       <use xlink:href="#DejaVuSans-30" x="63.623047"/>
       <use xlink:href="#DejaVuSans-32" x="127.246094"/>
       <use xlink:href="#DejaVuSans-31" x="190.869141"/>
       <use xlink:href="#DejaVuSans-2d" x="254.492188"/>
       <use xlink:href="#DejaVuSans-30" x="290.576172"/>
       <use xlink:href="#DejaVuSans-34" x="354.199219"/>
      </g>
     </g>
    </g>
    <g id="xtick_6">
     <g id="line2d_6">
      <g>
       <use xlink:href="#m20be852533" x="378.809592" y="279" style="fill: #b0b0b0; stroke: #b0b0b0; stroke-width: 0.4"/>
      </g>
     </g>
     <g id="text_6">
      <!-- 2021-07 -->
      <g style="fill: #b0b0b0" transform="translate(349.561623 296.637813)scale(0.14 -0.14)">
       <use xlink:href="#DejaVuSans-32"/>
       <use xlink:href="#DejaVuSans-30" x="63.623047"/>
       <use xlink:href="#DejaVuSans-32" x="127.246094"/>
       <use xlink:href="#DejaVuSans-31" x="190.869141"/>
       <use xlink:href="#DejaVuSans-2d" x="254.492188"/>
       <use xlink:href="#DejaVuSans-30" x="290.576172"/>
       <use xlink:href="#DejaVuSans-37" x="354.199219"/>
      </g>
     </g>
    </g>
    <g id="xtick_7">
     <g id="line2d_7">
      <g>
       <use xlink:href="#m20be852533" x="437.013673" y="279" style="fill: #b0b0b0; stroke: #b0b0b0; stroke-width: 0.4"/>
      </g>
     </g>
     <g id="text_7">
      <!-- 2021-10 -->
      <g style="fill: #b0b0b0" transform="translate(407.765705 296.637813)scale(0.14 -0.14)">
       <use xlink:href="#DejaVuSans-32"/>
       <use xlink:href="#DejaVuSans-30" x="63.623047"/>
       <use xlink:href="#DejaVuSans-32" x="127.246094"/>
       <use xlink:href="#DejaVuSans-31" x="190.869141"/>
       <use xlink:href="#DejaVuSans-2d" x="254.492188"/>
       <use xlink:href="#DejaVuSans-31" x="290.576172"/>
       <use xlink:href="#DejaVuSans-30" x="354.199219"/>
      </g>
     </g>
    </g>
    <g id="xtick_8">
     <g id="line2d_8">
      <g>
       <use xlink:href="#m20be852533" x="495.217755" y="279" style="fill: #b0b0b0; stroke: #b0b0b0; stroke-width: 0.4"/>
      </g>
     </g>
     <g id="text_8">
      <!-- 2022-01 -->
      <g style="fill: #b0b0b0" transform="translate(465.969786 296.637813)scale(0.14 -0.14)">
       <use xlink:href="#DejaVuSans-32"/>
       <use xlink:href="#DejaVuSans-30" x="63.623047"/>
       <use xlink:href="#DejaVuSans-32" x="127.246094"/>
       <use xlink:href="#DejaVuSans-32" x="190.869141"/>
       <use xlink:href="#DejaVuSans-2d" x="254.492188"/>
       <use xlink:href="#DejaVuSans-30" x="290.576172"/>
       <use xlink:href="#DejaVuSans-31" x="354.199219"/>
      </g>
     </g>
    </g>
    <g id="xtick_9">
     <g id="line2d_9">
      <g>
       <use xlink:href="#m20be852533" x="552.156531" y="279" style="fill: #b0b0b0; stroke: #b0b0b0; stroke-width: 0.4"/>
      </g>
     </g>
     <g id="text_9">
      <!-- 2022-04 -->
      <g style="fill: #b0b0b0" transform="translate(522.908562 296.637813)scale(0.14 -0.14)">
       <use xlink:href="#DejaVuSans-32"/>
       <use xlink:href="#DejaVuSans-30" x="63.623047"/>
       <use xlink:href="#DejaVuSans-32" x="127.246094"/>
       <use xlink:href="#DejaVuSans-32" x="190.869141"/>
       <use xlink:href="#DejaVuSans-2d" x="254.492188"/>
       <use xlink:href="#DejaVuSans-30" x="290.576172"/>
       <use xlink:href="#DejaVuSans-34" x="354.199219"/>
      </g>
     </g>
    </g>
   </g>
   <g id="matplotlib.axis_2">
    <g id="ytick_1">
     <g id="line2d_10">
      <path d="M 49.83 279 
L 607.83 279 
" clip-path="url(#pce57530ac2)" style="fill: none; stroke: #b0b0b0; stroke-width: 0.3; stroke-linecap: square"/>
     </g>
     <g id="line2d_11">
      <defs>
       <path id="ma5d8e3f054" d="M 0 0 
L -3.5 0 
" style="stroke: #b0b0b0; stroke-width: 0.3"/>
      </defs>
      <g>
       <use xlink:href="#ma5d8e3f054" x="49.83" y="279" style="fill: #b0b0b0; stroke: #b0b0b0; stroke-width: 0.3"/>
      </g>
     </g>
     <g id="text_10">
      <!-- 0 -->
      <g style="fill: #b0b0b0" transform="translate(33.9225 284.318906)scale(0.14 -0.14)">
       <use xlink:href="#DejaVuSans-30"/>
      </g>
     </g>
    </g>
    <g id="ytick_2">
     <g id="line2d_12">
      <path d="M 49.83 246.565632 
L 607.83 246.565632 
" clip-path="url(#pce57530ac2)" style="fill: none; stroke: #b0b0b0; stroke-width: 0.3; stroke-linecap: square"/>
     </g>
     <g id="line2d_13">
      <g>
       <use xlink:href="#ma5d8e3f054" x="49.83" y="246.565632" style="fill: #b0b0b0; stroke: #b0b0b0; stroke-width: 0.3"/>
      </g>
     </g>
     <g id="text_11">
      <!-- 500 -->
      <g style="fill: #b0b0b0" transform="translate(16.1075 251.884539)scale(0.14 -0.14)">
       <defs>
        <path id="DejaVuSans-35" d="M 691 4666 
L 3169 4666 
L 3169 4134 
L 1269 4134 
L 1269 2991 
Q 1406 3038 1543 3061 
Q 1681 3084 1819 3084 
Q 2600 3084 3056 2656 
Q 3513 2228 3513 1497 
Q 3513 744 3044 326 
Q 2575 -91 1722 -91 
Q 1428 -91 1123 -41 
Q 819 9 494 109 
L 494 744 
Q 775 591 1075 516 
Q 1375 441 1709 441 
Q 2250 441 2565 725 
Q 2881 1009 2881 1497 
Q 2881 1984 2565 2268 
Q 2250 2553 1709 2553 
Q 1456 2553 1204 2497 
Q 953 2441 691 2322 
L 691 4666 
z
" transform="scale(0.015625)"/>
       </defs>
       <use xlink:href="#DejaVuSans-35"/>
       <use xlink:href="#DejaVuSans-30" x="63.623047"/>
       <use xlink:href="#DejaVuSans-30" x="127.246094"/>
      </g>
     </g>
    </g>
    <g id="ytick_3">
     <g id="line2d_14">
      <path d="M 49.83 214.131265 
L 607.83 214.131265 
" clip-path="url(#pce57530ac2)" style="fill: none; stroke: #b0b0b0; stroke-width: 0.3; stroke-linecap: square"/>
     </g>
     <g id="line2d_15">
      <g>
       <use xlink:href="#ma5d8e3f054" x="49.83" y="214.131265" style="fill: #b0b0b0; stroke: #b0b0b0; stroke-width: 0.3"/>
      </g>
     </g>
     <g id="text_12">
      <!-- 1000 -->
      <g style="fill: #b0b0b0" transform="translate(7.2 219.450171)scale(0.14 -0.14)">
       <use xlink:href="#DejaVuSans-31"/>
       <use xlink:href="#DejaVuSans-30" x="63.623047"/>
       <use xlink:href="#DejaVuSans-30" x="127.246094"/>
       <use xlink:href="#DejaVuSans-30" x="190.869141"/>
      </g>
     </g>
    </g>
    <g id="ytick_4">
     <g id="line2d_16">
      <path d="M 49.83 181.696897 
L 607.83 181.696897 
" clip-path="url(#pce57530ac2)" style="fill: none; stroke: #b0b0b0; stroke-width: 0.3; stroke-linecap: square"/>
     </g>
     <g id="line2d_17">
      <g>
       <use xlink:href="#ma5d8e3f054" x="49.83" y="181.696897" style="fill: #b0b0b0; stroke: #b0b0b0; stroke-width: 0.3"/>
      </g>
     </g>
     <g id="text_13">
      <!-- 1500 -->
      <g style="fill: #b0b0b0" transform="translate(7.2 187.015804)scale(0.14 -0.14)">
       <use xlink:href="#DejaVuSans-31"/>
       <use xlink:href="#DejaVuSans-35" x="63.623047"/>
       <use xlink:href="#DejaVuSans-30" x="127.246094"/>
       <use xlink:href="#DejaVuSans-30" x="190.869141"/>
      </g>
     </g>
    </g>
    <g id="ytick_5">
     <g id="line2d_18">
      <path d="M 49.83 149.26253 
L 607.83 149.26253 
" clip-path="url(#pce57530ac2)" style="fill: none; stroke: #b0b0b0; stroke-width: 0.3; stroke-linecap: square"/>
     </g>
     <g id="line2d_19">
      <g>
       <use xlink:href="#ma5d8e3f054" x="49.83" y="149.26253" style="fill: #b0b0b0; stroke: #b0b0b0; stroke-width: 0.3"/>
      </g>
     </g>
     <g id="text_14">
      <!-- 2000 -->
      <g style="fill: #b0b0b0" transform="translate(7.2 154.581436)scale(0.14 -0.14)">
       <use xlink:href="#DejaVuSans-32"/>
       <use xlink:href="#DejaVuSans-30" x="63.623047"/>
       <use xlink:href="#DejaVuSans-30" x="127.246094"/>
       <use xlink:href="#DejaVuSans-30" x="190.869141"/>
      </g>
     </g>
    </g>
    <g id="ytick_6">
     <g id="line2d_20">
      <path d="M 49.83 116.828162 
L 607.83 116.828162 
" clip-path="url(#pce57530ac2)" style="fill: none; stroke: #b0b0b0; stroke-width: 0.3; stroke-linecap: square"/>
     </g>
     <g id="line2d_21">
      <g>
       <use xlink:href="#ma5d8e3f054" x="49.83" y="116.828162" style="fill: #b0b0b0; stroke: #b0b0b0; stroke-width: 0.3"/>
      </g>
     </g>
     <g id="text_15">
      <!-- 2500 -->
      <g style="fill: #b0b0b0" transform="translate(7.2 122.147069)scale(0.14 -0.14)">
       <use xlink:href="#DejaVuSans-32"/>
       <use xlink:href="#DejaVuSans-35" x="63.623047"/>
       <use xlink:href="#DejaVuSans-30" x="127.246094"/>
       <use xlink:href="#DejaVuSans-30" x="190.869141"/>
      </g>
     </g>
    </g>
    <g id="ytick_7">
     <g id="line2d_22">
      <path d="M 49.83 84.393795 
L 607.83 84.393795 
" clip-path="url(#pce57530ac2)" style="fill: none; stroke: #b0b0b0; stroke-width: 0.3; stroke-linecap: square"/>
     </g>
     <g id="line2d_23">
      <g>
       <use xlink:href="#ma5d8e3f054" x="49.83" y="84.393795" style="fill: #b0b0b0; stroke: #b0b0b0; stroke-width: 0.3"/>
      </g>
     </g>
     <g id="text_16">
      <!-- 3000 -->
      <g style="fill: #b0b0b0" transform="translate(7.2 89.712701)scale(0.14 -0.14)">
       <defs>
        <path id="DejaVuSans-33" d="M 2597 2516 
Q 3050 2419 3304 2112 
Q 3559 1806 3559 1356 
Q 3559 666 3084 287 
Q 2609 -91 1734 -91 
Q 1441 -91 1130 -33 
Q 819 25 488 141 
L 488 750 
Q 750 597 1062 519 
Q 1375 441 1716 441 
Q 2309 441 2620 675 
Q 2931 909 2931 1356 
Q 2931 1769 2642 2001 
Q 2353 2234 1838 2234 
L 1294 2234 
L 1294 2753 
L 1863 2753 
Q 2328 2753 2575 2939 
Q 2822 3125 2822 3475 
Q 2822 3834 2567 4026 
Q 2313 4219 1838 4219 
Q 1578 4219 1281 4162 
Q 984 4106 628 3988 
L 628 4550 
Q 988 4650 1302 4700 
Q 1616 4750 1894 4750 
Q 2613 4750 3031 4423 
Q 3450 4097 3450 3541 
Q 3450 3153 3228 2886 
Q 3006 2619 2597 2516 
z
" transform="scale(0.015625)"/>
       </defs>
       <use xlink:href="#DejaVuSans-33"/>
       <use xlink:href="#DejaVuSans-30" x="63.623047"/>
       <use xlink:href="#DejaVuSans-30" x="127.246094"/>
       <use xlink:href="#DejaVuSans-30" x="190.869141"/>
      </g>
     </g>
    </g>
    <g id="ytick_8">
     <g id="line2d_24">
      <path d="M 49.83 51.959427 
L 607.83 51.959427 
" clip-path="url(#pce57530ac2)" style="fill: none; stroke: #b0b0b0; stroke-width: 0.3; stroke-linecap: square"/>
     </g>
     <g id="line2d_25">
      <g>
       <use xlink:href="#ma5d8e3f054" x="49.83" y="51.959427" style="fill: #b0b0b0; stroke: #b0b0b0; stroke-width: 0.3"/>
      </g>
     </g>
     <g id="text_17">
      <!-- 3500 -->
      <g style="fill: #b0b0b0" transform="translate(7.2 57.278333)scale(0.14 -0.14)">
       <use xlink:href="#DejaVuSans-33"/>
       <use xlink:href="#DejaVuSans-35" x="63.623047"/>
       <use xlink:href="#DejaVuSans-30" x="127.246094"/>
       <use xlink:href="#DejaVuSans-30" x="190.869141"/>
      </g>
     </g>
    </g>
    <g id="ytick_9">
     <g id="line2d_26">
      <path d="M 49.83 19.52506 
L 607.83 19.52506 
" clip-path="url(#pce57530ac2)" style="fill: none; stroke: #b0b0b0; stroke-width: 0.3; stroke-linecap: square"/>
     </g>
     <g id="line2d_27">
      <g>
       <use xlink:href="#ma5d8e3f054" x="49.83" y="19.52506" style="fill: #b0b0b0; stroke: #b0b0b0; stroke-width: 0.3"/>
      </g>
     </g>
     <g id="text_18">
      <!-- 4000 -->
      <g style="fill: #b0b0b0" transform="translate(7.2 24.843966)scale(0.14 -0.14)">
       <use xlink:href="#DejaVuSans-34"/>
       <use xlink:href="#DejaVuSans-30" x="63.623047"/>
       <use xlink:href="#DejaVuSans-30" x="127.246094"/>
       <use xlink:href="#DejaVuSans-30" x="190.869141"/>
      </g>
     </g>
    </g>
   </g>
   <g id="line2d_28">
    <path d="M 49.83 279 
L 354.136122 278.898063 
L 356.666735 278.592254 
L 357.932041 278.240109 
L 361.727959 277.989901 
L 365.523878 277.192942 
L 366.156531 277.165141 
L 370.585102 277.767494 
L 373.115714 277.934299 
L 373.748367 277.878698 
L 375.646327 278.212308 
L 376.27898 278.230842 
L 376.911633 278.38838 
L 377.544286 278.369847 
L 378.176939 278.545919 
L 380.074898 278.416181 
L 381.340204 278.499584 
L 382.60551 278.379114 
L 383.870816 278.499584 
L 389.564694 278.740525 
L 394.625918 278.842462 
L 399.687143 278.962932 
L 401.585102 278.935131 
L 402.850408 278.814661 
L 405.38102 278.759059 
L 407.27898 278.888796 
L 409.176939 278.953665 
L 411.074898 278.935131 
L 571.768776 278.888796 
L 574.299388 278.684923 
L 575.564694 278.740525 
L 576.197347 278.416181 
L 578.727959 278.332779 
L 579.360612 277.582155 
L 579.993265 277.406083 
L 580.625918 277.461684 
L 581.891224 276.914934 
L 583.156531 276.07164 
L 583.789184 276.275513 
L 584.421837 275.960436 
L 585.687143 275.821432 
L 586.952449 275.080075 
L 587.585102 274.366519 
L 588.217755 273.402755 
L 590.748367 271.37329 
L 591.38102 271.002612 
L 592.013673 270.85434 
L 592.646327 272.364855 
L 593.27898 270.817272 
L 595.809592 269.149219 
L 596.442245 268.491265 
L 597.074898 266.535936 
L 597.707551 267.583103 
L 598.340204 267.972315 
L 598.972857 267.981582 
L 599.60551 268.129853 
L 600.238163 268.528333 
L 600.870816 269.075084 
L 601.503469 269.353092 
L 602.136122 269.26969 
L 602.768776 268.945346 
L 603.401429 269.019482 
L 604.034082 268.760007 
L 605.299388 268.797075 
L 606.564694 269.427228 
L 607.197347 269.918377 
L 607.83 270.029581 
L 607.83 270.029581 
" clip-path="url(#pce57530ac2)" style="fill: none; stroke: #fe7b74; stroke-width: 1.5; stroke-linecap: square"/>
   </g>
   <g id="line2d_29">
    <path d="M 49.83 279 
L 77.034082 278.925864 
L 80.197347 278.814661 
L 83.360612 278.870263 
L 90.952449 278.740525 
L 95.38102 278.647855 
L 101.707551 277.999168 
L 104.238163 277.637757 
L 108.666735 277.795295 
L 109.299388 277.609956 
L 111.197347 277.470951 
L 115.625918 278.045503 
L 117.523878 277.84163 
L 119.421837 277.878698 
L 123.217755 278.379114 
L 130.176939 278.647855 
L 131.442245 278.749792 
L 137.136122 278.888796 
L 139.666735 278.860996 
L 140.299388 278.721991 
L 143.462653 278.721991 
L 144.095306 278.712724 
L 144.727959 278.888796 
L 147.891224 278.935131 
L 157.38102 278.972199 
L 164.972857 278.879529 
L 167.503469 278.860996 
L 170.034082 278.777593 
L 172.564694 278.666389 
L 175.727959 278.601521 
L 181.421837 278.203041 
L 184.585102 278.203041 
L 187.115714 278.101105 
L 189.646327 278.17524 
L 190.911633 278.258643 
L 192.809592 278.221575 
L 194.074898 278.258643 
L 200.401429 278.518118 
L 201.666735 278.555186 
L 204.197347 278.564453 
L 207.993265 278.536652 
L 209.891224 278.620055 
L 212.421837 278.721991 
L 215.585102 278.629322 
L 218.115714 278.610788 
L 220.646327 278.601521 
L 228.238163 278.443982 
L 230.768776 278.555186 
L 233.299388 278.323512 
L 236.462653 278.342046 
L 238.360612 278.138173 
L 240.891224 278.05477 
L 243.421837 277.721159 
L 245.319796 277.248544 
L 247.217755 276.979802 
L 249.115714 276.664726 
L 249.748367 276.572056 
L 251.013673 276.701793 
L 251.646327 276.646192 
L 252.27898 276.748128 
L 256.074898 276.229178 
L 256.707551 276.080907 
L 259.238163 275.941902 
L 260.503469 275.728762 
L 263.666735 275.580491 
L 264.932041 275.867767 
L 265.564694 275.682428 
L 266.197347 275.710228 
L 267.462653 275.497088 
L 268.095306 275.358084 
L 269.360612 274.829867 
L 269.993265 274.968871 
L 270.625918 274.968871 
L 271.258571 275.080075 
L 271.891224 274.783532 
L 275.05449 274.663062 
L 275.687143 274.292383 
L 276.319796 274.338718 
L 278.217755 273.551026 
L 281.38102 273.180348 
L 282.013673 273.291551 
L 284.544286 272.939407 
L 285.176939 272.661398 
L 285.809592 272.744801 
L 287.074898 272.62433 
L 287.707551 272.744801 
L 288.340204 272.717 
L 288.972857 272.948674 
L 289.60551 272.939407 
L 290.238163 273.180348 
L 291.503469 273.847569 
L 292.768776 274.069976 
L 293.401429 274.005107 
L 294.034082 274.39432 
L 295.299388 274.385053 
L 296.564694 274.153379 
L 297.197347 274.310917 
L 297.83 274.746464 
L 299.095306 274.857668 
L 299.727959 274.72793 
L 300.360612 275.070808 
L 300.993265 275.256147 
L 301.625918 275.302482 
L 302.258571 275.200546 
L 303.523878 275.321016 
L 304.156531 275.55269 
L 306.05449 275.673161 
L 307.319796 275.821432 
L 307.952449 276.025305 
L 311.115714 275.988237 
L 312.38102 276.210644 
L 313.646327 276.738861 
L 315.544286 276.840798 
L 316.176939 277.044671 
L 317.442245 277.091006 
L 318.707551 276.887133 
L 319.340204 276.9242 
L 319.972857 277.10954 
L 320.60551 276.850065 
L 321.870816 277.035404 
L 323.136122 277.415349 
L 325.034082 277.730426 
L 328.197347 277.350481 
L 329.462653 277.165141 
L 330.727959 276.8964 
L 331.360612 276.766662 
L 333.258571 276.71106 
L 334.523878 276.49792 
L 335.789184 276.28478 
L 336.421837 275.960436 
L 337.05449 275.914102 
L 337.687143 275.747296 
L 338.319796 275.738029 
L 338.952449 275.404419 
L 339.585102 275.561957 
L 340.217755 275.293215 
L 341.483061 275.070808 
L 342.115714 275.191279 
L 342.748367 275.107876 
L 343.38102 275.228346 
L 344.013673 274.218248 
L 345.27898 274.153379 
L 345.911633 273.949506 
L 346.544286 273.365687 
L 347.809592 272.605796 
L 348.442245 273.226683 
L 349.074898 273.152547 
L 349.707551 273.319352 
L 350.340204 272.846737 
L 350.972857 271.89224 
L 351.60551 271.975643 
L 352.238163 271.938575 
L 352.870816 271.651299 
L 353.503469 271.753236 
L 354.136122 271.614231 
L 354.768776 271.957109 
L 355.401429 272.995009 
L 356.666735 272.689199 
L 357.299388 272.846737 
L 357.932041 272.772601 
L 359.197347 272.939407 
L 361.727959 273.152547 
L 362.360612 273.402755 
L 364.258571 273.458357 
L 364.891224 273.615895 
L 365.523878 273.986573 
L 366.156531 274.199714 
L 367.421837 274.449922 
L 368.05449 274.588926 
L 368.687143 274.885469 
L 370.585102 275.395152 
L 371.217755 275.64536 
L 371.850408 275.756563 
L 373.748367 276.405251 
L 377.544286 276.794463 
L 380.074898 277.359748 
L 380.707551 277.396816 
L 382.60551 277.897232 
L 384.503469 277.989901 
L 385.136122 277.989901 
L 386.401429 278.17524 
L 387.666735 278.073304 
L 388.299388 278.165973 
L 391.462653 278.036236 
L 392.095306 278.184507 
L 395.258571 278.351313 
L 395.891224 278.462516 
L 397.156531 278.379114 
L 403.483061 278.193774 
L 406.646327 277.823096 
L 407.27898 277.813829 
L 407.911633 277.674824 
L 408.544286 277.415349 
L 412.340204 276.859332 
L 412.972857 276.905667 
L 414.238163 276.544255 
L 414.870816 276.349649 
L 415.503469 276.275513 
L 416.768776 275.914102 
L 418.666735 275.348817 
L 419.932041 275.117143 
L 421.197347 275.33955 
L 421.83 275.358084 
L 423.727959 274.941071 
L 424.360612 274.978138 
L 425.625918 274.802066 
L 426.891224 275.005939 
L 427.523878 275.237613 
L 428.789184 275.209812 
L 429.421837 275.209812 
L 430.05449 275.450753 
L 431.319796 275.710228 
L 432.585102 276.016038 
L 433.850408 276.479386 
L 435.115714 276.405251 
L 439.544286 276.840798 
L 440.176939 277.044671 
L 440.809592 277.072472 
L 441.442245 276.961268 
L 443.972857 277.202209 
L 444.60551 277.137341 
L 445.238163 277.192942 
L 446.503469 277.508019 
L 448.401429 277.526553 
L 449.666735 277.897232 
L 452.83 278.323512 
L 455.993265 278.369847 
L 458.523878 278.462516 
L 466.748367 278.833195 
L 471.176939 278.851729 
L 474.972857 278.90733 
L 482.564694 278.916597 
L 502.809592 278.842462 
L 504.074898 278.712724 
L 505.340204 278.703457 
L 509.768776 278.156706 
L 510.401429 277.850897 
L 511.034082 277.674824 
L 512.299388 276.998336 
L 514.83 276.080907 
L 516.727959 274.690863 
L 517.360612 274.005107 
L 517.993265 273.652963 
L 518.625918 273.05061 
L 519.891224 271.484494 
L 520.523878 270.798738 
L 521.156531 270.363191 
L 521.789184 270.094449 
L 522.421837 269.455029 
L 523.05449 269.121418 
L 524.319796 267.777709 
L 524.952449 266.786144 
L 526.217755 265.553638 
L 527.483061 265.127358 
L 528.115714 264.330399 
L 528.748367 264.182128 
L 529.38102 264.78448 
L 530.013673 264.154327 
L 530.646327 263.802182 
L 531.27898 263.941186 
L 531.911633 263.709512 
L 532.544286 264.487937 
L 533.176939 264.589874 
L 533.809592 264.107992 
L 534.442245 264.515738 
L 535.074898 265.182959 
L 535.707551 265.294163 
L 536.340204 266.016986 
L 536.972857 265.915049 
L 537.60551 266.118923 
L 538.238163 266.76761 
L 538.870816 266.999284 
L 540.136122 267.786976 
L 540.768776 267.824044 
L 542.034082 268.852676 
L 542.666735 269.010215 
L 543.299388 269.501364 
L 545.197347 270.604132 
L 545.83 271.688367 
L 547.727959 272.865271 
L 549.625918 272.874538 
L 550.258571 272.781868 
L 552.156531 273.588094 
L 552.789184 274.014374 
L 554.05449 274.449922 
L 554.687143 274.60746 
L 555.952449 275.191279 
L 557.217755 275.330283 
L 557.850408 275.283948 
L 561.013673 275.756563 
L 562.27898 275.877034 
L 567.340204 276.294047 
L 568.60551 276.07164 
L 570.503469 276.433051 
L 571.136122 276.256979 
L 572.401429 276.433051 
L 573.034082 276.80373 
L 573.666735 276.998336 
L 574.299388 277.072472 
L 574.932041 276.952001 
L 576.197347 276.998336 
L 576.83 277.035404 
L 578.095306 276.71106 
L 582.523878 276.766662 
L 583.789184 276.673992 
L 585.05449 276.692526 
L 586.952449 276.673992 
L 588.217755 276.683259 
L 589.483061 276.738861 
L 590.748367 276.831531 
L 591.38102 277.007603 
L 594.544286 277.331947 
L 595.176939 277.470951 
L 596.442245 277.572888 
L 598.340204 277.739693 
L 600.238163 277.721159 
L 605.299388 278.026969 
L 605.932041 278.128906 
L 607.197347 278.110372 
L 607.83 277.267078 
L 607.83 277.267078 
" clip-path="url(#pce57530ac2)" style="fill: none; stroke: #53a577; stroke-width: 1.5; stroke-linecap: square"/>
   </g>
   <g id="line2d_30">
    <path d="M 49.83 279 
L 85.891224 278.916597 
L 87.789184 278.814661 
L 89.687143 278.768326 
L 90.319796 278.57372 
L 92.850408 278.332779 
L 93.483061 278.036236 
L 94.748367 277.887965 
L 95.38102 277.572888 
L 96.646327 277.128074 
L 97.27898 276.850065 
L 97.911633 276.942734 
L 98.544286 276.748128 
L 99.809592 276.942734 
L 100.442245 276.775929 
L 101.707551 276.887133 
L 102.972857 276.664726 
L 103.60551 276.442318 
L 104.238163 276.470119 
L 105.503469 276.182844 
L 107.401429 275.636093 
L 108.666735 274.987405 
L 109.299388 274.894736 
L 109.932041 274.385053 
L 110.564694 274.273849 
L 111.197347 273.189615 
L 111.83 272.652131 
L 113.095306 272.188783 
L 114.993265 271.391824 
L 115.625918 272.253652 
L 116.258571 272.309253 
L 116.891224 271.901507 
L 117.523878 271.957109 
L 118.789184 271.864439 
L 120.687143 270.780205 
L 121.319796 270.817272 
L 122.585102 269.983246 
L 123.217755 269.760839 
L 123.850408 269.742305 
L 125.115714 269.343825 
L 125.748367 268.806342 
L 126.38102 268.556134 
L 127.013673 267.379229 
L 128.911633 265.692642 
L 129.544286 265.238561 
L 130.176939 264.599141 
L 130.809592 263.690979 
L 131.442245 263.53344 
L 132.074898 262.68088 
L 132.707551 262.328735 
L 133.972857 261.198166 
L 134.60551 260.336338 
L 135.870816 258.28834 
L 136.503469 258.158602 
L 137.136122 257.565517 
L 137.768776 256.509083 
L 138.401429 240.514306 
L 139.034082 240.681111 
L 139.666735 241.237129 
L 140.932041 241.385401 
L 141.564694 240.273365 
L 142.197347 240.903519 
L 142.83 255.156106 
L 144.095306 253.719727 
L 144.727959 253.636325 
L 145.360612 252.672561 
L 145.993265 253.274913 
L 146.625918 252.292615 
L 147.258571 251.903403 
L 147.891224 251.755131 
L 148.523878 252.014606 
L 149.156531 251.477122 
L 149.789184 249.595929 
L 151.05449 248.734102 
L 151.687143 248.956509 
L 152.319796 248.46536 
L 153.585102 246.862175 
L 154.217755 247.445994 
L 155.483061 245.935479 
L 156.748367 243.924548 
L 157.38102 241.950685 
L 158.013673 240.542107 
L 158.646327 240.606976 
L 159.27898 238.938923 
L 159.911633 238.64238 
L 160.544286 238.012226 
L 161.176939 233.156338 
L 161.809592 232.674456 
L 162.442245 231.877497 
L 163.074898 230.40405 
L 163.707551 230.126042 
L 164.340204 229.64416 
L 164.972857 228.39312 
L 165.60551 231.794095 
L 166.238163 231.580955 
L 166.870816 231.247344 
L 167.503469 229.848033 
L 168.136122 229.292015 
L 168.768776 227.753699 
L 169.401429 227.086478 
L 171.299388 223.333358 
L 171.932041 223.259223 
L 172.564694 221.07222 
L 173.197347 220.442066 
L 173.83 220.655206 
L 174.462653 220.303062 
L 175.095306 219.181759 
L 175.727959 218.597941 
L 176.360612 217.828783 
L 176.993265 218.440402 
L 177.625918 218.394068 
L 178.258571 216.012458 
L 178.891224 215.678848 
L 179.523878 215.901255 
L 180.156531 216.37387 
L 180.789184 216.670413 
L 181.421837 217.643444 
L 182.05449 217.902919 
L 182.687143 219.052022 
L 183.319796 217.782448 
L 184.585102 216.392404 
L 185.217755 216.058793 
L 185.850408 214.807753 
L 186.483061 215.076495 
L 187.115714 214.353672 
L 187.748367 215.020893 
L 188.38102 214.659482 
L 189.013673 214.029328 
L 189.646327 212.945094 
L 190.27898 212.52808 
L 190.911633 209.618254 
L 191.544286 208.969567 
L 192.809592 206.726962 
L 193.442245 205.689062 
L 194.074898 205.234981 
L 194.707551 204.122946 
L 195.340204 204.855036 
L 195.972857 203.233317 
L 197.238163 203.92834 
L 197.870816 203.502059 
L 198.503469 203.325987 
L 199.768776 203.390856 
L 200.401429 205.290583 
L 201.034082 205.318384 
L 201.666735 205.624194 
L 202.299388 207.088374 
L 202.932041 207.171776 
L 203.564694 208.01507 
L 204.197347 210.582018 
L 204.83 209.710924 
L 205.462653 209.229042 
L 206.095306 209.655322 
L 206.727959 209.840661 
L 207.360612 211.545782 
L 207.993265 212.806089 
L 208.625918 211.805257 
L 209.891224 215.539843 
L 211.156531 218.078991 
L 211.789184 218.282864 
L 212.421837 219.08909 
L 213.05449 220.738609 
L 214.319796 225.807637 
L 214.952449 226.447058 
L 215.585102 227.271817 
L 216.217755 226.206117 
L 216.850408 228.402387 
L 217.483061 229.505155 
L 218.115714 229.625626 
L 218.748367 229.421752 
L 220.013673 233.054402 
L 220.646327 237.270869 
L 221.911633 239.105728 
L 223.176939 242.756911 
L 223.809592 243.933815 
L 225.074898 245.852076 
L 225.707551 245.703805 
L 226.972857 245.629669 
L 227.60551 243.896747 
L 228.238163 242.905182 
L 228.870816 242.664241 
L 229.503469 241.839482 
L 230.136122 241.895084 
L 230.768776 242.284296 
L 231.401429 242.30283 
L 232.034082 243.729942 
L 232.666735 244.869778 
L 233.299388 245.397995 
L 233.932041 246.435895 
L 234.564694 246.945578 
L 235.197347 246.936311 
L 235.83 247.288456 
L 237.727959 246.213488 
L 238.360612 245.713072 
L 238.993265 245.008783 
L 239.625918 244.721507 
L 240.258571 244.656638 
L 240.891224 245.221923 
L 242.156531 246.806573 
L 242.789184 246.852908 
L 243.421837 247.483062 
L 244.05449 247.464528 
L 244.687143 247.279189 
L 245.319796 247.260655 
L 245.952449 246.81584 
L 246.585102 246.565632 
L 247.217755 246.69537 
L 247.850408 247.177252 
L 249.748367 250.05001 
L 250.38102 251.226914 
L 251.013673 251.866335 
L 251.646327 252.709628 
L 252.27898 253.219311 
L 252.911633 253.506587 
L 253.544286 253.645592 
L 254.176939 254.173808 
L 254.809592 254.868831 
L 255.442245 255.758459 
L 256.074898 256.221807 
L 256.707551 256.249608 
L 258.60551 257.639652 
L 259.238163 257.658186 
L 259.870816 258.547815 
L 261.136122 259.622782 
L 262.401429 260.512411 
L 263.034082 260.632881 
L 263.666735 261.374238 
L 264.299388 261.624446 
L 266.197347 263.273965 
L 266.83 263.477838 
L 267.462653 264.191394 
L 268.095306 264.395268 
L 268.727959 266.471067 
L 269.360612 264.506471 
L 269.993265 264.99762 
L 270.625918 265.312697 
L 271.258571 265.887249 
L 271.891224 266.109656 
L 272.523878 266.508135 
L 273.156531 264.886417 
L 273.789184 267.184623 
L 274.421837 267.332895 
L 275.687143 267.981582 
L 276.319796 268.417129 
L 278.217755 269.130685 
L 279.483061 269.445762 
L 280.748367 269.936911 
L 281.38102 269.936911 
L 282.013673 270.075915 
L 282.646327 270.33539 
L 283.911633 270.669001 
L 285.809592 271.46596 
L 287.707551 272.62433 
L 288.972857 272.920873 
L 289.60551 272.911606 
L 290.238163 273.217416 
L 293.401429 272.874538 
L 294.034082 272.939407 
L 295.299388 272.865271 
L 297.83 272.939407 
L 298.462653 272.596529 
L 300.993265 271.845905 
L 301.625918 271.725435 
L 302.258571 271.781036 
L 302.891224 272.235118 
L 305.421837 272.550194 
L 306.05449 272.679932 
L 307.319796 272.012711 
L 307.952449 271.975643 
L 308.585102 271.6791 
L 309.217755 271.113815 
L 309.850408 270.919209 
L 311.748367 269.48283 
L 313.646327 268.361527 
L 314.27898 267.490433 
L 314.911633 266.86028 
L 316.809592 264.367467 
L 318.707551 261.615179 
L 319.972857 260.215868 
L 321.238163 256.323744 
L 321.870816 252.403819 
L 323.136122 248.808237 
L 323.768776 247.186519 
L 324.401429 244.628837 
L 325.034082 242.534504 
L 325.666735 239.652479 
L 326.299388 238.911122 
L 326.932041 235.890092 
L 328.83 224.250788 
L 330.095306 217.22643 
L 330.727959 212.157402 
L 331.993265 199.396795 
L 333.258571 181.99344 
L 334.523878 162.125073 
L 336.421837 127.448101 
L 337.05449 118.088469 
L 337.687143 106.319427 
L 338.319796 92.039039 
L 338.952449 80.59434 
L 340.217755 63.719202 
L 342.115714 47.316679 
L 342.748367 44.212247 
L 343.38102 40.347924 
L 344.013673 34.194661 
L 346.544286 19.441657 
L 347.176939 18.144282 
L 347.809592 17.356591 
L 348.442245 20.108878 
L 349.074898 20.108878 
L 349.707551 16.985912 
L 350.340204 12.787978 
L 350.972857 9.785482 
L 351.60551 12.065155 
L 352.238163 10.12836 
L 352.870816 7.311204 
L 353.503469 10.424903 
L 354.136122 7.2 
L 354.768776 14.780375 
L 355.401429 18.227685 
L 356.034082 18.477893 
L 357.299388 28.912492 
L 357.932041 31.516509 
L 358.564694 43.804501 
L 359.197347 50.439645 
L 361.095306 76.915356 
L 361.727959 79.111626 
L 362.993265 92.863798 
L 363.625918 99.091197 
L 364.258571 108.246955 
L 364.891224 114.826498 
L 365.523878 71.633188 
L 366.789184 60.068019 
L 367.421837 46.223178 
L 368.05449 40.635199 
L 368.687143 37.641971 
L 369.319796 36.224125 
L 369.952449 89.852035 
L 370.585102 111.675731 
L 371.217755 127.72611 
L 371.850408 150.837913 
L 372.483061 165.285107 
L 373.748367 185.607555 
L 374.38102 187.998432 
L 375.013673 192.298302 
L 375.646327 195.198861 
L 376.27898 199.35046 
L 376.911633 201.75987 
L 377.544286 206.773297 
L 378.176939 209.701657 
L 379.442245 218.236529 
L 381.340204 226.697266 
L 381.972857 225.650099 
L 382.60551 227.392288 
L 383.238163 226.854804 
L 383.870816 222.517866 
L 384.503469 223.073883 
L 385.136122 223.064616 
L 385.768776 209.469983 
L 386.401429 212.324207 
L 387.034082 214.492676 
L 387.666735 217.912185 
L 388.299388 223.898643 
L 388.932041 227.392288 
L 389.564694 229.477354 
L 390.197347 244.730774 
L 390.83 213.44551 
L 392.095306 214.69655 
L 392.727959 214.826287 
L 393.360612 214.668749 
L 393.993265 215.437907 
L 394.625918 215.057961 
L 395.258571 246.17642 
L 395.891224 244.943914 
L 396.523878 244.276693 
L 397.156531 243.841146 
L 399.05449 243.665073 
L 399.687143 244.387896 
L 400.952449 246.222755 
L 401.585102 246.000348 
L 402.217755 246.463696 
L 402.850408 246.232022 
L 403.483061 246.686103 
L 404.115714 247.288456 
L 404.748367 247.686935 
L 405.38102 246.565632 
L 406.013673 247.85374 
L 406.646327 247.835206 
L 407.27898 248.113215 
L 407.911633 247.52013 
L 408.544286 248.048346 
L 409.176939 247.677668 
L 409.809592 248.094681 
L 411.074898 249.883205 
L 411.707551 250.14268 
L 412.340204 250.911838 
L 412.972857 248.98431 
L 413.60551 248.270753 
L 414.238163 248.6785 
L 414.870816 247.436727 
L 415.503469 246.90851 
L 416.768776 247.028981 
L 417.401429 248.771169 
L 418.034082 249.679332 
L 418.666735 250.884037 
L 419.932041 253.951401 
L 420.564694 255.443382 
L 421.197347 255.9994 
L 421.83 256.842693 
L 422.462653 258.427344 
L 423.095306 259.409642 
L 423.727959 259.613515 
L 424.360612 259.335506 
L 424.993265 259.335506 
L 425.625918 258.881425 
L 426.258571 259.669117 
L 426.891224 258.807289 
L 427.523878 258.251272 
L 428.789184 258.770222 
L 429.421837 258.065932 
L 430.05449 258.872158 
L 430.687143 257.954729 
L 431.319796 259.335506 
L 432.585102 259.270638 
L 433.217755 259.724719 
L 433.850408 259.900791 
L 434.483061 260.577279 
L 435.115714 260.623614 
L 435.748367 260.354872 
L 436.38102 260.734818 
L 437.013673 261.253767 
L 437.646327 261.402039 
L 438.27898 262.291667 
L 438.911633 261.513242 
L 439.544286 262.439939 
L 440.176939 262.37507 
L 440.809592 262.430672 
L 441.442245 262.300934 
L 442.074898 262.578943 
L 442.707551 262.458473 
L 443.340204 263.218363 
L 443.972857 263.700245 
L 444.60551 264.367467 
L 445.238163 263.366635 
L 446.503469 264.775213 
L 448.401429 265.451701 
L 449.034082 266.24866 
L 449.666735 267.62017 
L 450.932041 259.122366 
L 451.564694 256.555418 
L 452.197347 254.776161 
L 452.83 251.18058 
L 454.095306 240.551374 
L 455.360612 242.701309 
L 455.993265 244.480566 
L 456.625918 243.67434 
L 457.891224 248.734102 
L 458.523878 254.146008 
L 459.156531 255.600921 
L 459.789184 254.859564 
L 460.421837 254.720559 
L 461.05449 255.749192 
L 461.687143 254.368415 
L 462.319796 255.489717 
L 462.952449 252.894968 
L 463.585102 251.384453 
L 464.217755 253.617791 
L 466.115714 257.648919 
L 466.748367 256.444214 
L 467.38102 256.833427 
L 468.013673 259.502312 
L 468.646327 259.242837 
L 469.27898 258.093733 
L 469.911633 257.732322 
L 470.544286 256.472015 
L 471.176939 257.15777 
L 471.809592 256.889028 
L 472.442245 255.05417 
L 473.074898 252.199945 
L 473.707551 252.320416 
L 474.340204 252.746696 
L 474.972857 254.32208 
L 475.60551 253.571456 
L 476.238163 254.470351 
L 476.870816 254.933699 
L 477.503469 260.688483 
L 478.136122 235.009731 
L 478.768776 234.731722 
L 479.401429 235.398943 
L 480.034082 238.345837 
L 481.299388 238.76285 
L 481.932041 233.554818 
L 482.564694 259.548646 
L 483.197347 259.252104 
L 483.83 258.770222 
L 484.462653 257.065101 
L 485.095306 256.85196 
L 485.727959 260.493877 
L 486.360612 263.023757 
L 487.625918 259.363307 
L 488.258571 258.705353 
L 488.891224 257.862059 
L 489.523878 258.019598 
L 490.156531 254.433283 
L 490.789184 255.610188 
L 491.421837 256.360811 
L 492.05449 257.843525 
L 492.687143 257.991797 
L 493.952449 260.957225 
L 494.585102 260.781152 
L 495.217755 259.650583 
L 496.483061 262.995956 
L 497.115714 260.846021 
L 497.748367 260.317804 
L 498.38102 259.557913 
L 499.013673 260.679216 
L 499.646327 260.280736 
L 500.27898 260.067596 
L 500.911633 258.649751 
L 501.544286 259.502312 
L 502.176939 258.992629 
L 502.809592 257.98253 
L 503.442245 257.787924 
L 504.074898 257.908394 
L 504.707551 255.69359 
L 505.340204 255.38778 
L 505.972857 255.397047 
L 506.60551 254.368415 
L 507.238163 251.662462 
L 508.503469 248.020546 
L 509.136122 247.52013 
L 509.768776 244.702973 
L 510.401429 242.627174 
L 511.034082 241.867283 
L 511.666735 242.571572 
L 512.932041 235.612083 
L 514.197347 225.436959 
L 514.83 215.539843 
L 516.095306 207.384916 
L 516.727959 205.642728 
L 517.360612 205.902203 
L 517.993265 206.495288 
L 518.625918 206.532356 
L 519.258571 211.314108 
L 519.891224 209.154906 
L 520.523878 213.000696 
L 521.156531 215.363771 
L 521.789184 217.041091 
L 522.421837 222.128653 
L 523.687143 236.436843 
L 524.319796 242.923716 
L 524.952449 244.452765 
L 525.585102 248.89164 
L 526.217755 248.993577 
L 526.850408 250.290951 
L 527.483061 251.328851 
L 529.38102 257.491381 
L 530.013673 258.140068 
L 530.646327 262.124862 
L 531.27898 262.931088 
L 532.544286 263.950453 
L 533.176939 265.433167 
L 533.809592 266.369131 
L 534.442245 266.054054 
L 535.074898 266.841746 
L 535.707551 267.332895 
L 536.972857 268.722939 
L 537.60551 269.075084 
L 538.238163 268.574668 
L 538.870816 270.42806 
L 539.503469 271.456693 
L 540.136122 271.818104 
L 540.768776 271.920041 
L 542.034082 272.763334 
L 542.666735 273.745632 
L 543.299388 273.912438 
L 543.932041 273.171081 
L 544.564694 273.134013 
L 545.197347 273.727099 
L 545.83 274.060709 
L 546.462653 273.99584 
L 547.095306 274.60746 
L 547.727959 237.270869 
L 548.360612 237.066996 
L 549.625918 237.048462 
L 551.523878 237.984426 
L 552.156531 275.209812 
L 552.789184 275.839966 
L 553.421837 276.006771 
L 554.05449 275.793631 
L 554.687143 275.422953 
L 555.319796 275.283948 
L 556.585102 275.367351 
L 557.217755 275.849233 
L 557.850408 275.914102 
L 560.38102 277.424616 
L 561.013673 278.156706 
L 561.646327 278.38838 
L 562.27898 276.460852 
L 562.911633 276.627658 
L 563.544286 276.49792 
L 564.809592 275.543423 
L 566.074898 274.904003 
L 566.707551 276.609124 
L 567.340204 276.618391 
L 567.972857 263.728046 
L 568.60551 263.885585 
L 571.768776 263.561241 
L 572.401429 276.534988 
L 573.034082 276.386717 
L 574.299388 276.952001 
L 576.197347 277.01687 
L 576.83 276.80373 
L 578.095306 277.257811 
L 578.727959 277.359748 
L 579.360612 277.609956 
L 581.258571 277.739693 
L 581.891224 277.869431 
L 583.156531 277.637757 
L 583.789184 277.155875 
L 585.05449 276.868599 
L 585.687143 277.01687 
L 586.319796 276.942734 
L 586.952449 276.998336 
L 587.585102 276.9242 
L 588.217755 277.396816 
L 589.483061 277.702625 
L 592.013673 278.026969 
L 592.646327 278.017702 
L 593.911633 278.277177 
L 595.176939 278.240109 
L 595.809592 278.110372 
L 597.074898 278.36058 
L 600.870816 278.230842 
L 602.768776 277.952833 
L 603.401429 277.971367 
L 604.034082 277.721159 
L 605.932041 277.665557 
L 607.197347 277.545087 
L 607.83 277.387549 
L 607.83 277.387549 
" clip-path="url(#pce57530ac2)" style="fill: none; stroke: #7d31e0; stroke-width: 1.5; stroke-linecap: square"/>
   </g>
   <g id="line2d_31">
    <path d="M 49.83 279 
L 90.952449 278.898063 
L 94.748367 278.833195 
L 112.462653 278.990733 
L 333.258571 278.898063 
L 335.789184 278.731258 
L 344.646327 277.53582 
L 346.544286 277.619223 
L 347.809592 277.313413 
L 351.60551 277.220743 
L 352.870816 277.267078 
L 353.503469 277.202209 
L 355.401429 277.304146 
L 358.564694 276.812997 
L 359.197347 276.914934 
L 359.83 276.80373 
L 362.993265 276.9242 
L 363.625918 276.794463 
L 364.891224 276.914934 
L 366.156531 276.914934 
L 371.217755 277.350481 
L 372.483061 277.220743 
L 373.748367 276.970535 
L 374.38102 276.961268 
L 376.27898 276.37745 
L 377.544286 276.433051 
L 378.176939 276.414518 
L 379.442245 276.016038 
L 380.707551 276.090174 
L 381.972857 275.636093 
L 382.60551 275.626826 
L 383.870816 275.358084 
L 385.136122 274.505523 
L 385.768776 274.227514 
L 386.401429 274.236781 
L 387.666735 273.717832 
L 388.299388 273.764166 
L 388.932041 273.300818 
L 389.564694 273.161814 
L 390.197347 273.152547 
L 391.462653 272.735534 
L 392.095306 272.83747 
L 392.727959 272.401923 
L 393.360612 272.605796 
L 393.993265 272.346321 
L 394.625918 272.290719 
L 395.891224 271.706901 
L 396.523878 270.984078 
L 397.156531 270.956277 
L 397.789184 270.409526 
L 398.421837 270.372458 
L 399.05449 269.529165 
L 399.687143 269.260423 
L 400.319796 268.75074 
L 400.952449 268.797075 
L 401.585102 268.111319 
L 402.217755 267.796243 
L 402.850408 267.749908 
L 403.483061 268.01865 
L 404.115714 267.203157 
L 404.748367 267.027085 
L 406.013673 267.212424 
L 406.646327 267.166089 
L 407.27898 266.508135 
L 407.911633 266.202325 
L 408.544286 266.165257 
L 409.176939 265.192226 
L 409.809592 263.765114 
L 411.074898 262.838418 
L 411.707551 262.616011 
L 412.340204 262.059993 
L 413.60551 262.319468 
L 414.238163 262.986689 
L 416.136122 262.106328 
L 416.768776 261.976591 
L 418.034082 262.727214 
L 418.666735 262.421405 
L 419.299388 262.439939 
L 420.564694 263.134961 
L 421.197347 263.774381 
L 421.83 263.301766 
L 422.462653 263.524173 
L 423.095306 263.913386 
L 423.727959 264.673277 
L 424.360612 264.710344 
L 425.625918 265.627774 
L 426.891224 267.379229 
L 427.523878 267.675772 
L 428.156531 267.842578 
L 428.789184 269.05655 
L 429.421837 269.640368 
L 430.05449 269.881309 
L 431.319796 269.844241 
L 431.952449 270.372458 
L 432.585102 270.73387 
L 434.483061 270.659734 
L 435.748367 270.965544 
L 436.38102 271.187951 
L 437.013673 271.271354 
L 438.27898 272.086846 
L 438.911633 272.123914 
L 439.544286 272.466792 
L 440.176939 272.652131 
L 440.809592 272.596529 
L 442.707551 272.726267 
L 443.340204 273.069144 
L 445.238163 273.337886 
L 445.870816 273.541759 
L 446.503469 273.458357 
L 447.136122 273.606628 
L 447.768776 273.578827 
L 449.034082 273.727099 
L 450.299388 274.347985 
L 451.564694 274.533324 
L 452.197347 274.709397 
L 452.83 274.755731 
L 453.462653 274.959605 
L 454.095306 274.857668 
L 454.727959 274.876202 
L 455.360612 274.746464 
L 455.993265 274.829867 
L 457.891224 274.625994 
L 458.523878 274.774265 
L 459.156531 274.625994 
L 459.789184 274.802066 
L 460.421837 274.746464 
L 461.687143 275.052274 
L 462.319796 274.996672 
L 462.952449 275.098609 
L 463.585102 275.367351 
L 464.850408 275.55269 
L 466.115714 275.487821 
L 468.013673 275.561957 
L 468.646327 275.580491 
L 469.27898 275.747296 
L 469.911633 275.710228 
L 471.809592 275.969703 
L 472.442245 275.849233 
L 473.074898 276.043839 
L 473.707551 276.034572 
L 474.972857 276.386717 
L 477.503469 276.775929 
L 481.299388 276.850065 
L 483.83 276.831531 
L 484.462653 276.914934 
L 485.095306 277.128074 
L 485.727959 277.007603 
L 486.360612 277.10954 
L 489.523878 277.007603 
L 490.156531 277.137341 
L 491.421837 277.118807 
L 492.05449 277.239277 
L 492.687143 277.239277 
L 493.952449 277.415349 
L 494.585102 277.424616 
L 495.850408 277.702625 
L 496.483061 277.702625 
L 497.115714 277.887965 
L 497.748367 277.869431 
L 499.013673 278.064037 
L 500.27898 278.026969 
L 502.176939 278.073304 
L 504.707551 278.073304 
L 511.666735 277.971367 
L 512.299388 277.832363 
L 513.564694 277.84163 
L 514.83 277.609956 
L 516.727959 277.65629 
L 517.993265 277.647024 
L 518.625918 277.74896 
L 521.789184 277.65629 
L 523.05449 277.433883 
L 527.483061 277.128074 
L 531.27898 276.433051 
L 531.911633 276.757395 
L 532.544286 276.303314 
L 535.074898 275.812165 
L 535.707551 275.599025 
L 536.340204 274.959605 
L 536.972857 275.135677 
L 537.60551 274.904003 
L 540.768776 274.561125 
L 542.034082 274.524057 
L 545.83 273.634429 
L 546.462653 274.347985 
L 547.095306 274.329451 
L 547.727959 273.87537 
L 548.993265 273.940239 
L 550.258571 273.921705 
L 550.891224 273.134013 
L 551.523878 273.041343 
L 552.156531 273.412022 
L 554.05449 273.022809 
L 554.687143 273.829035 
L 555.319796 272.902339 
L 555.952449 273.754899 
L 556.585102 272.911606 
L 558.483061 272.642864 
L 559.115714 272.642864 
L 559.748367 272.309253 
L 560.38102 271.206485 
L 561.013673 271.781036 
L 562.911633 271.16015 
L 563.544286 269.973979 
L 564.176939 270.826539 
L 565.442245 270.706069 
L 568.60551 270.85434 
L 569.238163 272.040511 
L 569.870816 270.872874 
L 570.503469 271.197218 
L 571.136122 272.346321 
L 571.768776 271.966376 
L 572.401429 272.364855 
L 573.034082 273.541759 
L 573.666735 273.041343 
L 574.299388 274.292383 
L 574.932041 274.635261 
L 575.564694 274.125578 
L 576.197347 275.12641 
L 576.83 275.367351 
L 577.462653 274.8206 
L 578.095306 274.802066 
L 578.727959 275.413686 
L 579.993265 275.580491 
L 581.258571 275.821432 
L 581.891224 276.368183 
L 582.523878 276.117975 
L 583.156531 276.618391 
L 583.789184 276.460852 
L 585.687143 276.692526 
L 586.319796 276.349649 
L 586.952449 276.850065 
L 587.585102 276.49792 
L 588.217755 276.905667 
L 589.483061 277.072472 
L 592.013673 277.192942 
L 593.911633 277.155875 
L 600.238163 277.739693 
L 600.870816 277.999168 
L 601.503469 277.767494 
L 604.666735 277.730426 
L 605.299388 277.730426 
L 606.564694 278.008435 
L 607.197347 277.943566 
L 607.83 278.119639 
L 607.83 278.119639 
" clip-path="url(#pce57530ac2)" style="fill: none; stroke: #103357; stroke-width: 1.5; stroke-linecap: square"/>
   </g>
   <g id="line2d_32">
    <path d="M 49.83 279 
L 67.544286 278.90733 
L 75.768776 278.768326 
L 90.952449 278.647855 
L 94.115714 278.721991 
L 96.013673 278.684923 
L 99.809592 278.768326 
L 105.503469 278.90733 
L 116.258571 278.962932 
L 187.115714 278.870263 
L 189.646327 278.898063 
L 201.034082 278.805394 
L 203.564694 278.805394 
L 209.891224 278.888796 
L 247.850408 278.78686 
L 253.544286 278.48105 
L 254.809592 278.323512 
L 256.074898 278.128906 
L 257.340204 277.869431 
L 259.870816 277.758227 
L 260.503469 277.758227 
L 261.136122 277.878698 
L 261.768776 277.730426 
L 266.197347 277.62849 
L 267.462653 277.647024 
L 268.095306 277.480218 
L 269.360612 277.489485 
L 279.483061 278.184507 
L 280.748367 278.351313 
L 283.911633 278.406914 
L 310.483061 278.69419 
L 311.748367 278.666389 
L 313.013673 278.759059 
L 319.340204 278.768326 
L 325.034082 278.78686 
L 326.932041 278.777593 
L 328.83 278.759059 
L 330.727959 278.731258 
L 335.156531 278.833195 
L 338.952449 278.842462 
L 347.176939 278.629322 
L 349.074898 278.759059 
L 354.768776 278.684923 
L 356.666735 278.777593 
L 361.095306 278.78686 
L 366.156531 278.898063 
L 375.013673 278.860996 
L 377.544286 278.898063 
L 381.972857 278.860996 
L 385.768776 278.870263 
L 392.095306 278.860996 
L 393.993265 278.823928 
L 410.442245 278.499584 
L 411.707551 278.490317 
L 413.60551 278.38838 
L 415.503469 278.406914 
L 418.666735 278.601521 
L 420.564694 278.601521 
L 423.727959 278.601521 
L 425.625918 278.657122 
L 426.891224 278.601521 
L 428.789184 278.582987 
L 430.05449 278.57372 
L 431.319796 278.620055 
L 435.115714 278.490317 
L 438.911633 278.443982 
L 440.809592 278.471783 
L 441.442245 278.48105 
L 442.707551 278.351313 
L 445.238163 278.332779 
L 446.503469 278.212308 
L 449.034082 278.156706 
L 450.932041 278.017702 
L 454.095306 278.147439 
L 455.360612 278.230842 
L 457.258571 278.119639 
L 459.156531 277.832363 
L 460.421837 277.869431 
L 462.319796 277.915765 
L 462.952449 277.934299 
L 464.217755 277.739693 
L 465.483061 277.711892 
L 471.176939 277.01687 
L 472.442245 276.701793 
L 473.074898 276.460852 
L 475.60551 276.182844 
L 476.238163 276.229178 
L 476.870816 276.062373 
L 477.503469 276.182844 
L 478.768776 275.914102 
L 479.401429 275.654627 
L 481.932041 275.283948 
L 482.564694 275.293215 
L 483.197347 275.015206 
L 484.462653 274.91327 
L 485.095306 274.72793 
L 485.727959 274.978138 
L 486.360612 274.653795 
L 486.993265 274.524057 
L 487.625918 274.91327 
L 488.258571 274.829867 
L 488.891224 274.39432 
L 489.523878 274.551858 
L 490.156531 274.069976 
L 491.421837 274.144112 
L 492.05449 274.199714 
L 493.319796 274.922537 
L 493.952449 274.440655 
L 494.585102 274.839134 
L 495.217755 274.839134 
L 495.850408 275.015206 
L 496.483061 274.968871 
L 497.115714 274.774265 
L 497.748367 274.996672 
L 498.38102 275.580491 
L 502.176939 276.006771 
L 502.809592 275.969703 
L 504.074898 276.470119 
L 504.707551 276.572056 
L 505.340204 276.553522 
L 505.972857 276.349649 
L 508.503469 276.868599 
L 509.136122 276.850065 
L 509.768776 277.053938 
L 510.401429 277.44315 
L 513.564694 277.239277 
L 514.83 277.452417 
L 517.993265 277.786028 
L 518.625918 277.609956 
L 520.523878 277.369015 
L 522.421837 276.998336 
L 523.687143 276.599857 
L 524.319796 276.451585 
L 524.952449 276.488653 
L 525.585102 276.136509 
L 527.483061 275.802898 
L 528.748367 274.8206 
L 530.013673 273.986573 
L 530.646327 274.005107 
L 531.911633 272.865271 
L 532.544286 272.893072 
L 533.176939 272.466792 
L 534.442245 270.650467 
L 535.074898 269.612567 
L 535.707551 269.380893 
L 537.60551 267.397763 
L 538.870816 266.508135 
L 539.503469 265.674108 
L 540.136122 265.108824 
L 540.768776 264.117259 
L 541.401429 264.061657 
L 542.034082 261.995124 
L 542.666735 261.327903 
L 543.299388 260.864555 
L 543.932041 260.160266 
L 544.564694 258.964828 
L 545.197347 258.121534 
L 545.83 256.94463 
L 546.462653 256.564685 
L 547.095306 255.721391 
L 547.727959 255.684323 
L 548.993265 256.490549 
L 549.625918 257.852792 
L 550.258571 256.546151 
L 550.891224 257.426512 
L 551.523878 257.723055 
L 552.789184 257.352376 
L 553.421837 257.991797 
L 554.05449 258.251272 
L 554.687143 258.816556 
L 555.319796 259.066764 
L 555.952449 258.946294 
L 556.585102 258.955561 
L 557.217755 258.742421 
L 557.850408 258.371742 
L 558.483061 258.723887 
L 559.115714 260.456809 
L 559.748367 260.734818 
L 560.38102 261.744916 
L 561.013673 262.347269 
L 562.27898 264.682543 
L 562.911633 265.062489 
L 563.544286 265.229294 
L 564.176939 266.813945 
L 564.809592 267.351429 
L 565.442245 268.481998 
L 566.074898 269.353092 
L 566.707551 269.556966 
L 567.340204 270.761671 
L 567.972857 270.233454 
L 568.60551 271.595697 
L 569.238163 271.113815 
L 569.870816 271.864439 
L 571.136122 272.374122 
L 571.768776 271.920041 
L 572.401429 273.319352 
L 573.034082 272.587262 
L 573.666735 274.533324 
L 574.299388 274.412854 
L 574.932041 274.505523 
L 575.564694 274.904003 
L 576.197347 274.783532 
L 576.83 275.182012 
L 577.462653 275.330283 
L 578.095306 275.293215 
L 579.360612 275.76583 
L 579.993265 275.812165 
L 580.625918 276.136509 
L 581.258571 276.117975 
L 581.891224 276.331115 
L 582.523878 276.414518 
L 583.156531 276.683259 
L 583.789184 276.627658 
L 585.687143 276.8964 
L 586.952449 276.979802 
L 587.585102 276.887133 
L 588.217755 277.211476 
L 589.483061 277.424616 
L 590.115714 277.44315 
L 592.646327 278.073304 
L 593.911633 277.860164 
L 594.544286 277.999168 
L 597.074898 277.952833 
L 597.707551 277.989901 
L 598.340204 278.156706 
L 598.972857 278.128906 
L 600.870816 278.295711 
L 602.136122 278.416181 
L 604.034082 278.249376 
L 606.564694 278.314245 
L 607.83 278.416181 
L 607.83 278.416181 
" clip-path="url(#pce57530ac2)" style="fill: none; stroke: #2f618f; stroke-width: 1.5; stroke-linecap: square"/>
   </g>
   <g id="text_19">
    <!-- Taiwan* -->
    <g style="fill: #fe7b74" transform="translate(624.57 252.10713)scale(0.14 -0.14)">
     <defs>
      <path id="DejaVuSans-54" d="M -19 4666 
L 3928 4666 
L 3928 4134 
L 2272 4134 
L 2272 0 
L 1638 0 
L 1638 4134 
L -19 4134 
L -19 4666 
z
" transform="scale(0.015625)"/>
      <path id="DejaVuSans-61" d="M 2194 1759 
Q 1497 1759 1228 1600 
Q 959 1441 959 1056 
Q 959 750 1161 570 
Q 1363 391 1709 391 
Q 2188 391 2477 730 
Q 2766 1069 2766 1631 
L 2766 1759 
L 2194 1759 
z
M 3341 1997 
L 3341 0 
L 2766 0 
L 2766 531 
Q 2569 213 2275 61 
Q 1981 -91 1556 -91 
Q 1019 -91 701 211 
Q 384 513 384 1019 
Q 384 1609 779 1909 
Q 1175 2209 1959 2209 
L 2766 2209 
L 2766 2266 
Q 2766 2663 2505 2880 
Q 2244 3097 1772 3097 
Q 1472 3097 1187 3025 
Q 903 2953 641 2809 
L 641 3341 
Q 956 3463 1253 3523 
Q 1550 3584 1831 3584 
Q 2591 3584 2966 3190 
Q 3341 2797 3341 1997 
z
" transform="scale(0.015625)"/>
      <path id="DejaVuSans-69" d="M 603 3500 
L 1178 3500 
L 1178 0 
L 603 0 
L 603 3500 
z
M 603 4863 
L 1178 4863 
L 1178 4134 
L 603 4134 
L 603 4863 
z
" transform="scale(0.015625)"/>
      <path id="DejaVuSans-77" d="M 269 3500 
L 844 3500 
L 1563 769 
L 2278 3500 
L 2956 3500 
L 3675 769 
L 4391 3500 
L 4966 3500 
L 4050 0 
L 3372 0 
L 2619 2869 
L 1863 0 
L 1184 0 
L 269 3500 
z
" transform="scale(0.015625)"/>
      <path id="DejaVuSans-6e" d="M 3513 2113 
L 3513 0 
L 2938 0 
L 2938 2094 
Q 2938 2591 2744 2837 
Q 2550 3084 2163 3084 
Q 1697 3084 1428 2787 
Q 1159 2491 1159 1978 
L 1159 0 
L 581 0 
L 581 3500 
L 1159 3500 
L 1159 2956 
Q 1366 3272 1645 3428 
Q 1925 3584 2291 3584 
Q 2894 3584 3203 3211 
Q 3513 2838 3513 2113 
z
" transform="scale(0.015625)"/>
      <path id="DejaVuSans-2a" d="M 3009 3897 
L 1888 3291 
L 3009 2681 
L 2828 2375 
L 1778 3009 
L 1778 1831 
L 1422 1831 
L 1422 3009 
L 372 2375 
L 191 2681 
L 1313 3291 
L 191 3897 
L 372 4206 
L 1422 3572 
L 1422 4750 
L 1778 4750 
L 1778 3572 
L 2828 4206 
L 3009 3897 
z
" transform="scale(0.015625)"/>
     </defs>
     <use xlink:href="#DejaVuSans-54"/>
     <use xlink:href="#DejaVuSans-61" x="44.583984"/>
     <use xlink:href="#DejaVuSans-69" x="105.863281"/>
     <use xlink:href="#DejaVuSans-77" x="133.646484"/>
     <use xlink:href="#DejaVuSans-61" x="215.433594"/>
     <use xlink:href="#DejaVuSans-6e" x="276.712891"/>
     <use xlink:href="#DejaVuSans-2a" x="340.091797"/>
    </g>
   </g>
   <g id="text_20">
    <!-- Japan -->
    <g style="fill: #53a577" transform="translate(624.57 266.10713)scale(0.14 -0.14)">
     <defs>
      <path id="DejaVuSans-4a" d="M 628 4666 
L 1259 4666 
L 1259 325 
Q 1259 -519 939 -900 
Q 619 -1281 -91 -1281 
L -331 -1281 
L -331 -750 
L -134 -750 
Q 284 -750 456 -515 
Q 628 -281 628 325 
L 628 4666 
z
" transform="scale(0.015625)"/>
      <path id="DejaVuSans-70" d="M 1159 525 
L 1159 -1331 
L 581 -1331 
L 581 3500 
L 1159 3500 
L 1159 2969 
Q 1341 3281 1617 3432 
Q 1894 3584 2278 3584 
Q 2916 3584 3314 3078 
Q 3713 2572 3713 1747 
Q 3713 922 3314 415 
Q 2916 -91 2278 -91 
Q 1894 -91 1617 61 
Q 1341 213 1159 525 
z
M 3116 1747 
Q 3116 2381 2855 2742 
Q 2594 3103 2138 3103 
Q 1681 3103 1420 2742 
Q 1159 2381 1159 1747 
Q 1159 1113 1420 752 
Q 1681 391 2138 391 
Q 2594 391 2855 752 
Q 3116 1113 3116 1747 
z
" transform="scale(0.015625)"/>
     </defs>
     <use xlink:href="#DejaVuSans-4a"/>
     <use xlink:href="#DejaVuSans-61" x="29.492188"/>
     <use xlink:href="#DejaVuSans-70" x="90.771484"/>
     <use xlink:href="#DejaVuSans-61" x="154.248047"/>
     <use xlink:href="#DejaVuSans-6e" x="215.527344"/>
    </g>
   </g>
   <g id="text_21">
    <!-- India -->
    <g style="fill: #7d31e0" transform="translate(624.57 280.10713)scale(0.14 -0.14)">
     <defs>
      <path id="DejaVuSans-49" d="M 628 4666 
L 1259 4666 
L 1259 0 
L 628 0 
L 628 4666 
z
" transform="scale(0.015625)"/>
      <path id="DejaVuSans-64" d="M 2906 2969 
L 2906 4863 
L 3481 4863 
L 3481 0 
L 2906 0 
L 2906 525 
Q 2725 213 2448 61 
Q 2172 -91 1784 -91 
Q 1150 -91 751 415 
Q 353 922 353 1747 
Q 353 2572 751 3078 
Q 1150 3584 1784 3584 
Q 2172 3584 2448 3432 
Q 2725 3281 2906 2969 
z
M 947 1747 
Q 947 1113 1208 752 
Q 1469 391 1925 391 
Q 2381 391 2643 752 
Q 2906 1113 2906 1747 
Q 2906 2381 2643 2742 
Q 2381 3103 1925 3103 
Q 1469 3103 1208 2742 
Q 947 2381 947 1747 
z
" transform="scale(0.015625)"/>
     </defs>
     <use xlink:href="#DejaVuSans-49"/>
     <use xlink:href="#DejaVuSans-6e" x="29.492188"/>
     <use xlink:href="#DejaVuSans-64" x="92.871094"/>
     <use xlink:href="#DejaVuSans-69" x="156.347656"/>
     <use xlink:href="#DejaVuSans-61" x="184.130859"/>
    </g>
   </g>
   <g id="text_22">
    <!-- Thailand -->
    <g style="fill: #103357" transform="translate(624.57 294.10713)scale(0.14 -0.14)">
     <defs>
      <path id="DejaVuSans-68" d="M 3513 2113 
L 3513 0 
L 2938 0 
L 2938 2094 
Q 2938 2591 2744 2837 
Q 2550 3084 2163 3084 
Q 1697 3084 1428 2787 
Q 1159 2491 1159 1978 
L 1159 0 
L 581 0 
L 581 4863 
L 1159 4863 
L 1159 2956 
Q 1366 3272 1645 3428 
Q 1925 3584 2291 3584 
Q 2894 3584 3203 3211 
Q 3513 2838 3513 2113 
z
" transform="scale(0.015625)"/>
      <path id="DejaVuSans-6c" d="M 603 4863 
L 1178 4863 
L 1178 0 
L 603 0 
L 603 4863 
z
" transform="scale(0.015625)"/>
     </defs>
     <use xlink:href="#DejaVuSans-54"/>
     <use xlink:href="#DejaVuSans-68" x="61.083984"/>
     <use xlink:href="#DejaVuSans-61" x="124.462891"/>
     <use xlink:href="#DejaVuSans-69" x="185.742188"/>
     <use xlink:href="#DejaVuSans-6c" x="213.525391"/>
     <use xlink:href="#DejaVuSans-61" x="241.308594"/>
     <use xlink:href="#DejaVuSans-6e" x="302.587891"/>
     <use xlink:href="#DejaVuSans-64" x="365.966797"/>
    </g>
   </g>
   <g id="text_23">
    <!-- Korea, South -->
    <g style="fill: #2f618f" transform="translate(624.57 308.10713)scale(0.14 -0.14)">
     <defs>
      <path id="DejaVuSans-4b" d="M 628 4666 
L 1259 4666 
L 1259 2694 
L 3353 4666 
L 4166 4666 
L 1850 2491 
L 4331 0 
L 3500 0 
L 1259 2247 
L 1259 0 
L 628 0 
L 628 4666 
z
" transform="scale(0.015625)"/>
      <path id="DejaVuSans-6f" d="M 1959 3097 
Q 1497 3097 1228 2736 
Q 959 2375 959 1747 
Q 959 1119 1226 758 
Q 1494 397 1959 397 
Q 2419 397 2687 759 
Q 2956 1122 2956 1747 
Q 2956 2369 2687 2733 
Q 2419 3097 1959 3097 
z
M 1959 3584 
Q 2709 3584 3137 3096 
Q 3566 2609 3566 1747 
Q 3566 888 3137 398 
Q 2709 -91 1959 -91 
Q 1206 -91 779 398 
Q 353 888 353 1747 
Q 353 2609 779 3096 
Q 1206 3584 1959 3584 
z
" transform="scale(0.015625)"/>
      <path id="DejaVuSans-72" d="M 2631 2963 
Q 2534 3019 2420 3045 
Q 2306 3072 2169 3072 
Q 1681 3072 1420 2755 
Q 1159 2438 1159 1844 
L 1159 0 
L 581 0 
L 581 3500 
L 1159 3500 
L 1159 2956 
Q 1341 3275 1631 3429 
Q 1922 3584 2338 3584 
Q 2397 3584 2469 3576 
Q 2541 3569 2628 3553 
L 2631 2963 
z
" transform="scale(0.015625)"/>
      <path id="DejaVuSans-65" d="M 3597 1894 
L 3597 1613 
L 953 1613 
Q 991 1019 1311 708 
Q 1631 397 2203 397 
Q 2534 397 2845 478 
Q 3156 559 3463 722 
L 3463 178 
Q 3153 47 2828 -22 
Q 2503 -91 2169 -91 
Q 1331 -91 842 396 
Q 353 884 353 1716 
Q 353 2575 817 3079 
Q 1281 3584 2069 3584 
Q 2775 3584 3186 3129 
Q 3597 2675 3597 1894 
z
M 3022 2063 
Q 3016 2534 2758 2815 
Q 2500 3097 2075 3097 
Q 1594 3097 1305 2825 
Q 1016 2553 972 2059 
L 3022 2063 
z
" transform="scale(0.015625)"/>
      <path id="DejaVuSans-2c" d="M 750 794 
L 1409 794 
L 1409 256 
L 897 -744 
L 494 -744 
L 750 256 
L 750 794 
z
" transform="scale(0.015625)"/>
      <path id="DejaVuSans-20" transform="scale(0.015625)"/>
      <path id="DejaVuSans-53" d="M 3425 4513 
L 3425 3897 
Q 3066 4069 2747 4153 
Q 2428 4238 2131 4238 
Q 1616 4238 1336 4038 
Q 1056 3838 1056 3469 
Q 1056 3159 1242 3001 
Q 1428 2844 1947 2747 
L 2328 2669 
Q 3034 2534 3370 2195 
Q 3706 1856 3706 1288 
Q 3706 609 3251 259 
Q 2797 -91 1919 -91 
Q 1588 -91 1214 -16 
Q 841 59 441 206 
L 441 856 
Q 825 641 1194 531 
Q 1563 422 1919 422 
Q 2459 422 2753 634 
Q 3047 847 3047 1241 
Q 3047 1584 2836 1778 
Q 2625 1972 2144 2069 
L 1759 2144 
Q 1053 2284 737 2584 
Q 422 2884 422 3419 
Q 422 4038 858 4394 
Q 1294 4750 2059 4750 
Q 2388 4750 2728 4690 
Q 3069 4631 3425 4513 
z
" transform="scale(0.015625)"/>
      <path id="DejaVuSans-75" d="M 544 1381 
L 544 3500 
L 1119 3500 
L 1119 1403 
Q 1119 906 1312 657 
Q 1506 409 1894 409 
Q 2359 409 2629 706 
Q 2900 1003 2900 1516 
L 2900 3500 
L 3475 3500 
L 3475 0 
L 2900 0 
L 2900 538 
Q 2691 219 2414 64 
Q 2138 -91 1772 -91 
Q 1169 -91 856 284 
Q 544 659 544 1381 
z
M 1991 3584 
L 1991 3584 
z
" transform="scale(0.015625)"/>
      <path id="DejaVuSans-74" d="M 1172 4494 
L 1172 3500 
L 2356 3500 
L 2356 3053 
L 1172 3053 
L 1172 1153 
Q 1172 725 1289 603 
Q 1406 481 1766 481 
L 2356 481 
L 2356 0 
L 1766 0 
Q 1100 0 847 248 
Q 594 497 594 1153 
L 594 3053 
L 172 3053 
L 172 3500 
L 594 3500 
L 594 4494 
L 1172 4494 
z
" transform="scale(0.015625)"/>
     </defs>
     <use xlink:href="#DejaVuSans-4b"/>
     <use xlink:href="#DejaVuSans-6f" x="60.576172"/>
     <use xlink:href="#DejaVuSans-72" x="121.757812"/>
     <use xlink:href="#DejaVuSans-65" x="160.621094"/>
     <use xlink:href="#DejaVuSans-61" x="222.144531"/>
     <use xlink:href="#DejaVuSans-2c" x="283.423828"/>
     <use xlink:href="#DejaVuSans-20" x="315.210938"/>
     <use xlink:href="#DejaVuSans-53" x="346.998047"/>
     <use xlink:href="#DejaVuSans-6f" x="410.474609"/>
     <use xlink:href="#DejaVuSans-75" x="471.65625"/>
     <use xlink:href="#DejaVuSans-74" x="535.035156"/>
     <use xlink:href="#DejaVuSans-68" x="574.244141"/>
    </g>
   </g>
  </g>
 </g>
 <defs>
  <clipPath id="pce57530ac2">
   <rect x="49.83" y="7.2" width="558" height="271.8"/>
  </clipPath>
 </defs>
</svg>
