<?xml version="1.0" encoding="utf-8" standalone="no"?>
<!DOCTYPE svg PUBLIC "-//W3C//DTD SVG 1.1//EN"
  "http://www.w3.org/Graphics/SVG/1.1/DTD/svg11.dtd">
<svg xmlns:xlink="http://www.w3.org/1999/xlink" width="713.9325pt" height="309.443106pt" viewBox="0 0 713.9325 309.443106" xmlns="http://www.w3.org/2000/svg" version="1.1">
 <metadata>
  <rdf:RDF xmlns:dc="http://purl.org/dc/elements/1.1/" xmlns:cc="http://creativecommons.org/ns#" xmlns:rdf="http://www.w3.org/1999/02/22-rdf-syntax-ns#">
   <cc:Work>
    <dc:type rdf:resource="http://purl.org/dc/dcmitype/StillImage"/>
    <dc:date>2022-07-22T10:50:36.931818</dc:date>
    <dc:format>image/svg+xml</dc:format>
    <dc:creator>
     <cc:Agent>
      <dc:title>Matplotlib v3.5.1, https://matplotlib.org/</dc:title>
     </cc:Agent>
    </dc:creator>
   </cc:Work>
  </rdf:RDF>
 </metadata>
 <defs>
  <style type="text/css">*{stroke-linejoin: round; stroke-linecap: butt}</style>
 </defs>
 <g id="figure_1">
  <g id="patch_1">
   <path d="M 0 309.443106 
L 713.9325 309.443106 
L 713.9325 0 
L 0 0 
L 0 309.443106 
z
" style="fill: none"/>
  </g>
  <g id="axes_1">
   <g id="patch_2">
    <path d="M 67.645 281.693731 
L 625.645 281.693731 
L 625.645 9.893731 
L 67.645 9.893731 
L 67.645 281.693731 
z
" style="fill: none"/>
   </g>
   <g id="matplotlib.axis_1">
    <g id="xtick_1">
     <g id="line2d_1">
      <defs>
       <path id="mb9e581c259" d="M 0 0 
L 0 3.5 
" style="stroke: #b0b0b0; stroke-width: 0.4"/>
      </defs>
      <g>
       <use xlink:href="#mb9e581c259" x="107.105773" y="281.693731" style="fill: #b0b0b0; stroke: #b0b0b0; stroke-width: 0.4"/>
      </g>
     </g>
     <g id="text_1">
      <!-- 2020-04 -->
      <g style="fill: #b0b0b0" transform="translate(77.857805 299.331543)scale(0.14 -0.14)">
       <defs>
        <path id="DejaVuSans-32" d="M 1228 531 
L 3431 531 
L 3431 0 
L 469 0 
L 469 531 
Q 828 903 1448 1529 
Q 2069 2156 2228 2338 
Q 2531 2678 2651 2914 
Q 2772 3150 2772 3378 
Q 2772 3750 2511 3984 
Q 2250 4219 1831 4219 
Q 1534 4219 1204 4116 
Q 875 4013 500 3803 
L 500 4441 
Q 881 4594 1212 4672 
Q 1544 4750 1819 4750 
Q 2544 4750 2975 4387 
Q 3406 4025 3406 3419 
Q 3406 3131 3298 2873 
Q 3191 2616 2906 2266 
Q 2828 2175 2409 1742 
Q 1991 1309 1228 531 
z
" transform="scale(0.015625)"/>
        <path id="DejaVuSans-30" d="M 2034 4250 
Q 1547 4250 1301 3770 
Q 1056 3291 1056 2328 
Q 1056 1369 1301 889 
Q 1547 409 2034 409 
Q 2525 409 2770 889 
Q 3016 1369 3016 2328 
Q 3016 3291 2770 3770 
Q 2525 4250 2034 4250 
z
M 2034 4750 
Q 2819 4750 3233 4129 
Q 3647 3509 3647 2328 
Q 3647 1150 3233 529 
Q 2819 -91 2034 -91 
Q 1250 -91 836 529 
Q 422 1150 422 2328 
Q 422 3509 836 4129 
Q 1250 4750 2034 4750 
z
" transform="scale(0.015625)"/>
        <path id="DejaVuSans-2d" d="M 313 2009 
L 1997 2009 
L 1997 1497 
L 313 1497 
L 313 2009 
z
" transform="scale(0.015625)"/>
        <path id="DejaVuSans-34" d="M 2419 4116 
L 825 1625 
L 2419 1625 
L 2419 4116 
z
M 2253 4666 
L 3047 4666 
L 3047 1625 
L 3713 1625 
L 3713 1100 
L 3047 1100 
L 3047 0 
L 2419 0 
L 2419 1100 
L 313 1100 
L 313 1709 
L 2253 4666 
z
" transform="scale(0.015625)"/>
       </defs>
       <use xlink:href="#DejaVuSans-32"/>
       <use xlink:href="#DejaVuSans-30" x="63.623047"/>
       <use xlink:href="#DejaVuSans-32" x="127.246094"/>
       <use xlink:href="#DejaVuSans-30" x="190.869141"/>
       <use xlink:href="#DejaVuSans-2d" x="254.492188"/>
       <use xlink:href="#DejaVuSans-30" x="290.576172"/>
       <use xlink:href="#DejaVuSans-34" x="354.199219"/>
      </g>
     </g>
    </g>
    <g id="xtick_2">
     <g id="line2d_2">
      <g>
       <use xlink:href="#mb9e581c259" x="163.214061" y="281.693731" style="fill: #b0b0b0; stroke: #b0b0b0; stroke-width: 0.4"/>
      </g>
     </g>
     <g id="text_2">
      <!-- 2020-07 -->
      <g style="fill: #b0b0b0" transform="translate(133.966092 299.331543)scale(0.14 -0.14)">
       <defs>
        <path id="DejaVuSans-37" d="M 525 4666 
L 3525 4666 
L 3525 4397 
L 1831 0 
L 1172 0 
L 2766 4134 
L 525 4134 
L 525 4666 
z
" transform="scale(0.015625)"/>
       </defs>
       <use xlink:href="#DejaVuSans-32"/>
       <use xlink:href="#DejaVuSans-30" x="63.623047"/>
       <use xlink:href="#DejaVuSans-32" x="127.246094"/>
       <use xlink:href="#DejaVuSans-30" x="190.869141"/>
       <use xlink:href="#DejaVuSans-2d" x="254.492188"/>
       <use xlink:href="#DejaVuSans-30" x="290.576172"/>
       <use xlink:href="#DejaVuSans-37" x="354.199219"/>
      </g>
     </g>
    </g>
    <g id="xtick_3">
     <g id="line2d_3">
      <g>
       <use xlink:href="#mb9e581c259" x="219.938923" y="281.693731" style="fill: #b0b0b0; stroke: #b0b0b0; stroke-width: 0.4"/>
      </g>
     </g>
     <g id="text_3">
      <!-- 2020-10 -->
      <g style="fill: #b0b0b0" transform="translate(190.690954 299.331543)scale(0.14 -0.14)">
       <defs>
        <path id="DejaVuSans-31" d="M 794 531 
L 1825 531 
L 1825 4091 
L 703 3866 
L 703 4441 
L 1819 4666 
L 2450 4666 
L 2450 531 
L 3481 531 
L 3481 0 
L 794 0 
L 794 531 
z
" transform="scale(0.015625)"/>
       </defs>
       <use xlink:href="#DejaVuSans-32"/>
       <use xlink:href="#DejaVuSans-30" x="63.623047"/>
       <use xlink:href="#DejaVuSans-32" x="127.246094"/>
       <use xlink:href="#DejaVuSans-30" x="190.869141"/>
       <use xlink:href="#DejaVuSans-2d" x="254.492188"/>
       <use xlink:href="#DejaVuSans-31" x="290.576172"/>
       <use xlink:href="#DejaVuSans-30" x="354.199219"/>
      </g>
     </g>
    </g>
    <g id="xtick_4">
     <g id="line2d_4">
      <g>
       <use xlink:href="#mb9e581c259" x="276.663785" y="281.693731" style="fill: #b0b0b0; stroke: #b0b0b0; stroke-width: 0.4"/>
      </g>
     </g>
     <g id="text_4">
      <!-- 2021-01 -->
      <g style="fill: #b0b0b0" transform="translate(247.415816 299.331543)scale(0.14 -0.14)">
       <use xlink:href="#DejaVuSans-32"/>
       <use xlink:href="#DejaVuSans-30" x="63.623047"/>
       <use xlink:href="#DejaVuSans-32" x="127.246094"/>
       <use xlink:href="#DejaVuSans-31" x="190.869141"/>
       <use xlink:href="#DejaVuSans-2d" x="254.492188"/>
       <use xlink:href="#DejaVuSans-30" x="290.576172"/>
       <use xlink:href="#DejaVuSans-31" x="354.199219"/>
      </g>
     </g>
    </g>
    <g id="xtick_5">
     <g id="line2d_5">
      <g>
       <use xlink:href="#mb9e581c259" x="332.155497" y="281.693731" style="fill: #b0b0b0; stroke: #b0b0b0; stroke-width: 0.4"/>
      </g>
     </g>
     <g id="text_5">
      <!-- 2021-04 -->
      <g style="fill: #b0b0b0" transform="translate(302.907528 299.331543)scale(0.14 -0.14)">
       <use xlink:href="#DejaVuSans-32"/>
       <use xlink:href="#DejaVuSans-30" x="63.623047"/>
       <use xlink:href="#DejaVuSans-32" x="127.246094"/>
       <use xlink:href="#DejaVuSans-31" x="190.869141"/>
       <use xlink:href="#DejaVuSans-2d" x="254.492188"/>
       <use xlink:href="#DejaVuSans-30" x="290.576172"/>
       <use xlink:href="#DejaVuSans-34" x="354.199219"/>
      </g>
     </g>
    </g>
    <g id="xtick_6">
     <g id="line2d_6">
      <g>
       <use xlink:href="#mb9e581c259" x="388.263785" y="281.693731" style="fill: #b0b0b0; stroke: #b0b0b0; stroke-width: 0.4"/>
      </g>
     </g>
     <g id="text_6">
      <!-- 2021-07 -->
      <g style="fill: #b0b0b0" transform="translate(359.015816 299.331543)scale(0.14 -0.14)">
       <use xlink:href="#DejaVuSans-32"/>
       <use xlink:href="#DejaVuSans-30" x="63.623047"/>
       <use xlink:href="#DejaVuSans-32" x="127.246094"/>
       <use xlink:href="#DejaVuSans-31" x="190.869141"/>
       <use xlink:href="#DejaVuSans-2d" x="254.492188"/>
       <use xlink:href="#DejaVuSans-30" x="290.576172"/>
       <use xlink:href="#DejaVuSans-37" x="354.199219"/>
      </g>
     </g>
    </g>
    <g id="xtick_7">
     <g id="line2d_7">
      <g>
       <use xlink:href="#mb9e581c259" x="444.988646" y="281.693731" style="fill: #b0b0b0; stroke: #b0b0b0; stroke-width: 0.4"/>
      </g>
     </g>
     <g id="text_7">
      <!-- 2021-10 -->
      <g style="fill: #b0b0b0" transform="translate(415.740678 299.331543)scale(0.14 -0.14)">
       <use xlink:href="#DejaVuSans-32"/>
       <use xlink:href="#DejaVuSans-30" x="63.623047"/>
       <use xlink:href="#DejaVuSans-32" x="127.246094"/>
       <use xlink:href="#DejaVuSans-31" x="190.869141"/>
       <use xlink:href="#DejaVuSans-2d" x="254.492188"/>
       <use xlink:href="#DejaVuSans-31" x="290.576172"/>
       <use xlink:href="#DejaVuSans-30" x="354.199219"/>
      </g>
     </g>
    </g>
    <g id="xtick_8">
     <g id="line2d_8">
      <g>
       <use xlink:href="#mb9e581c259" x="501.713508" y="281.693731" style="fill: #b0b0b0; stroke: #b0b0b0; stroke-width: 0.4"/>
      </g>
     </g>
     <g id="text_8">
      <!-- 2022-01 -->
      <g style="fill: #b0b0b0" transform="translate(472.46554 299.331543)scale(0.14 -0.14)">
       <use xlink:href="#DejaVuSans-32"/>
       <use xlink:href="#DejaVuSans-30" x="63.623047"/>
       <use xlink:href="#DejaVuSans-32" x="127.246094"/>
       <use xlink:href="#DejaVuSans-32" x="190.869141"/>
       <use xlink:href="#DejaVuSans-2d" x="254.492188"/>
       <use xlink:href="#DejaVuSans-30" x="290.576172"/>
       <use xlink:href="#DejaVuSans-31" x="354.199219"/>
      </g>
     </g>
    </g>
    <g id="xtick_9">
     <g id="line2d_9">
      <g>
       <use xlink:href="#mb9e581c259" x="557.205221" y="281.693731" style="fill: #b0b0b0; stroke: #b0b0b0; stroke-width: 0.4"/>
      </g>
     </g>
     <g id="text_9">
      <!-- 2022-04 -->
      <g style="fill: #b0b0b0" transform="translate(527.957252 299.331543)scale(0.14 -0.14)">
       <use xlink:href="#DejaVuSans-32"/>
       <use xlink:href="#DejaVuSans-30" x="63.623047"/>
       <use xlink:href="#DejaVuSans-32" x="127.246094"/>
       <use xlink:href="#DejaVuSans-32" x="190.869141"/>
       <use xlink:href="#DejaVuSans-2d" x="254.492188"/>
       <use xlink:href="#DejaVuSans-30" x="290.576172"/>
       <use xlink:href="#DejaVuSans-34" x="354.199219"/>
      </g>
     </g>
    </g>
    <g id="xtick_10">
     <g id="line2d_10">
      <g>
       <use xlink:href="#mb9e581c259" x="613.313508" y="281.693731" style="fill: #b0b0b0; stroke: #b0b0b0; stroke-width: 0.4"/>
      </g>
     </g>
     <g id="text_10">
      <!-- 2022-07 -->
      <g style="fill: #b0b0b0" transform="translate(584.06554 299.331543)scale(0.14 -0.14)">
       <use xlink:href="#DejaVuSans-32"/>
       <use xlink:href="#DejaVuSans-30" x="63.623047"/>
       <use xlink:href="#DejaVuSans-32" x="127.246094"/>
       <use xlink:href="#DejaVuSans-32" x="190.869141"/>
       <use xlink:href="#DejaVuSans-2d" x="254.492188"/>
       <use xlink:href="#DejaVuSans-30" x="290.576172"/>
       <use xlink:href="#DejaVuSans-37" x="354.199219"/>
      </g>
     </g>
    </g>
   </g>
   <g id="matplotlib.axis_2">
    <g id="ytick_1">
     <g id="line2d_11">
      <path d="M 67.645 281.693731 
L 625.645 281.693731 
" clip-path="url(#p92936dc21f)" style="fill: none; stroke: #b0b0b0; stroke-width: 0.3; stroke-linecap: square"/>
     </g>
     <g id="line2d_12">
      <defs>
       <path id="m882a2edae5" d="M 0 0 
L -3.5 0 
" style="stroke: #b0b0b0; stroke-width: 0.3"/>
      </defs>
      <g>
       <use xlink:href="#m882a2edae5" x="67.645" y="281.693731" style="fill: #b0b0b0; stroke: #b0b0b0; stroke-width: 0.3"/>
      </g>
     </g>
     <g id="text_11">
      <!-- 0 -->
      <g style="fill: #b0b0b0" transform="translate(51.7375 287.012637)scale(0.14 -0.14)">
       <use xlink:href="#DejaVuSans-30"/>
      </g>
     </g>
    </g>
    <g id="ytick_2">
     <g id="line2d_13">
      <path d="M 67.645 248.046878 
L 625.645 248.046878 
" clip-path="url(#p92936dc21f)" style="fill: none; stroke: #b0b0b0; stroke-width: 0.3; stroke-linecap: square"/>
     </g>
     <g id="line2d_14">
      <g>
       <use xlink:href="#m882a2edae5" x="67.645" y="248.046878" style="fill: #b0b0b0; stroke: #b0b0b0; stroke-width: 0.3"/>
      </g>
     </g>
     <g id="text_12">
      <!-- 100000 -->
      <g style="fill: #b0b0b0" transform="translate(7.2 253.365784)scale(0.14 -0.14)">
       <use xlink:href="#DejaVuSans-31"/>
       <use xlink:href="#DejaVuSans-30" x="63.623047"/>
       <use xlink:href="#DejaVuSans-30" x="127.246094"/>
       <use xlink:href="#DejaVuSans-30" x="190.869141"/>
       <use xlink:href="#DejaVuSans-30" x="254.492188"/>
       <use xlink:href="#DejaVuSans-30" x="318.115234"/>
      </g>
     </g>
    </g>
    <g id="ytick_3">
     <g id="line2d_15">
      <path d="M 67.645 214.400025 
L 625.645 214.400025 
" clip-path="url(#p92936dc21f)" style="fill: none; stroke: #b0b0b0; stroke-width: 0.3; stroke-linecap: square"/>
     </g>
     <g id="line2d_16">
      <g>
       <use xlink:href="#m882a2edae5" x="67.645" y="214.400025" style="fill: #b0b0b0; stroke: #b0b0b0; stroke-width: 0.3"/>
      </g>
     </g>
     <g id="text_13">
      <!-- 200000 -->
      <g style="fill: #b0b0b0" transform="translate(7.2 219.718931)scale(0.14 -0.14)">
       <use xlink:href="#DejaVuSans-32"/>
       <use xlink:href="#DejaVuSans-30" x="63.623047"/>
       <use xlink:href="#DejaVuSans-30" x="127.246094"/>
       <use xlink:href="#DejaVuSans-30" x="190.869141"/>
       <use xlink:href="#DejaVuSans-30" x="254.492188"/>
       <use xlink:href="#DejaVuSans-30" x="318.115234"/>
      </g>
     </g>
    </g>
    <g id="ytick_4">
     <g id="line2d_17">
      <path d="M 67.645 180.753172 
L 625.645 180.753172 
" clip-path="url(#p92936dc21f)" style="fill: none; stroke: #b0b0b0; stroke-width: 0.3; stroke-linecap: square"/>
     </g>
     <g id="line2d_18">
      <g>
       <use xlink:href="#m882a2edae5" x="67.645" y="180.753172" style="fill: #b0b0b0; stroke: #b0b0b0; stroke-width: 0.3"/>
      </g>
     </g>
     <g id="text_14">
      <!-- 300000 -->
      <g style="fill: #b0b0b0" transform="translate(7.2 186.072078)scale(0.14 -0.14)">
       <defs>
        <path id="DejaVuSans-33" d="M 2597 2516 
Q 3050 2419 3304 2112 
Q 3559 1806 3559 1356 
Q 3559 666 3084 287 
Q 2609 -91 1734 -91 
Q 1441 -91 1130 -33 
Q 819 25 488 141 
L 488 750 
Q 750 597 1062 519 
Q 1375 441 1716 441 
Q 2309 441 2620 675 
Q 2931 909 2931 1356 
Q 2931 1769 2642 2001 
Q 2353 2234 1838 2234 
L 1294 2234 
L 1294 2753 
L 1863 2753 
Q 2328 2753 2575 2939 
Q 2822 3125 2822 3475 
Q 2822 3834 2567 4026 
Q 2313 4219 1838 4219 
Q 1578 4219 1281 4162 
Q 984 4106 628 3988 
L 628 4550 
Q 988 4650 1302 4700 
Q 1616 4750 1894 4750 
Q 2613 4750 3031 4423 
Q 3450 4097 3450 3541 
Q 3450 3153 3228 2886 
Q 3006 2619 2597 2516 
z
" transform="scale(0.015625)"/>
       </defs>
       <use xlink:href="#DejaVuSans-33"/>
       <use xlink:href="#DejaVuSans-30" x="63.623047"/>
       <use xlink:href="#DejaVuSans-30" x="127.246094"/>
       <use xlink:href="#DejaVuSans-30" x="190.869141"/>
       <use xlink:href="#DejaVuSans-30" x="254.492188"/>
       <use xlink:href="#DejaVuSans-30" x="318.115234"/>
      </g>
     </g>
    </g>
    <g id="ytick_5">
     <g id="line2d_19">
      <path d="M 67.645 147.106318 
L 625.645 147.106318 
" clip-path="url(#p92936dc21f)" style="fill: none; stroke: #b0b0b0; stroke-width: 0.3; stroke-linecap: square"/>
     </g>
     <g id="line2d_20">
      <g>
       <use xlink:href="#m882a2edae5" x="67.645" y="147.106318" style="fill: #b0b0b0; stroke: #b0b0b0; stroke-width: 0.3"/>
      </g>
     </g>
     <g id="text_15">
      <!-- 400000 -->
      <g style="fill: #b0b0b0" transform="translate(7.2 152.425225)scale(0.14 -0.14)">
       <use xlink:href="#DejaVuSans-34"/>
       <use xlink:href="#DejaVuSans-30" x="63.623047"/>
       <use xlink:href="#DejaVuSans-30" x="127.246094"/>
       <use xlink:href="#DejaVuSans-30" x="190.869141"/>
       <use xlink:href="#DejaVuSans-30" x="254.492188"/>
       <use xlink:href="#DejaVuSans-30" x="318.115234"/>
      </g>
     </g>
    </g>
    <g id="ytick_6">
     <g id="line2d_21">
      <path d="M 67.645 113.459465 
L 625.645 113.459465 
" clip-path="url(#p92936dc21f)" style="fill: none; stroke: #b0b0b0; stroke-width: 0.3; stroke-linecap: square"/>
     </g>
     <g id="line2d_22">
      <g>
       <use xlink:href="#m882a2edae5" x="67.645" y="113.459465" style="fill: #b0b0b0; stroke: #b0b0b0; stroke-width: 0.3"/>
      </g>
     </g>
     <g id="text_16">
      <!-- 500000 -->
      <g style="fill: #b0b0b0" transform="translate(7.2 118.778372)scale(0.14 -0.14)">
       <defs>
        <path id="DejaVuSans-35" d="M 691 4666 
L 3169 4666 
L 3169 4134 
L 1269 4134 
L 1269 2991 
Q 1406 3038 1543 3061 
Q 1681 3084 1819 3084 
Q 2600 3084 3056 2656 
Q 3513 2228 3513 1497 
Q 3513 744 3044 326 
Q 2575 -91 1722 -91 
Q 1428 -91 1123 -41 
Q 819 9 494 109 
L 494 744 
Q 775 591 1075 516 
Q 1375 441 1709 441 
Q 2250 441 2565 725 
Q 2881 1009 2881 1497 
Q 2881 1984 2565 2268 
Q 2250 2553 1709 2553 
Q 1456 2553 1204 2497 
Q 953 2441 691 2322 
L 691 4666 
z
" transform="scale(0.015625)"/>
       </defs>
       <use xlink:href="#DejaVuSans-35"/>
       <use xlink:href="#DejaVuSans-30" x="63.623047"/>
       <use xlink:href="#DejaVuSans-30" x="127.246094"/>
       <use xlink:href="#DejaVuSans-30" x="190.869141"/>
       <use xlink:href="#DejaVuSans-30" x="254.492188"/>
       <use xlink:href="#DejaVuSans-30" x="318.115234"/>
      </g>
     </g>
    </g>
    <g id="ytick_7">
     <g id="line2d_23">
      <path d="M 67.645 79.812612 
L 625.645 79.812612 
" clip-path="url(#p92936dc21f)" style="fill: none; stroke: #b0b0b0; stroke-width: 0.3; stroke-linecap: square"/>
     </g>
     <g id="line2d_24">
      <g>
       <use xlink:href="#m882a2edae5" x="67.645" y="79.812612" style="fill: #b0b0b0; stroke: #b0b0b0; stroke-width: 0.3"/>
      </g>
     </g>
     <g id="text_17">
      <!-- 600000 -->
      <g style="fill: #b0b0b0" transform="translate(7.2 85.131519)scale(0.14 -0.14)">
       <defs>
        <path id="DejaVuSans-36" d="M 2113 2584 
Q 1688 2584 1439 2293 
Q 1191 2003 1191 1497 
Q 1191 994 1439 701 
Q 1688 409 2113 409 
Q 2538 409 2786 701 
Q 3034 994 3034 1497 
Q 3034 2003 2786 2293 
Q 2538 2584 2113 2584 
z
M 3366 4563 
L 3366 3988 
Q 3128 4100 2886 4159 
Q 2644 4219 2406 4219 
Q 1781 4219 1451 3797 
Q 1122 3375 1075 2522 
Q 1259 2794 1537 2939 
Q 1816 3084 2150 3084 
Q 2853 3084 3261 2657 
Q 3669 2231 3669 1497 
Q 3669 778 3244 343 
Q 2819 -91 2113 -91 
Q 1303 -91 875 529 
Q 447 1150 447 2328 
Q 447 3434 972 4092 
Q 1497 4750 2381 4750 
Q 2619 4750 2861 4703 
Q 3103 4656 3366 4563 
z
" transform="scale(0.015625)"/>
       </defs>
       <use xlink:href="#DejaVuSans-36"/>
       <use xlink:href="#DejaVuSans-30" x="63.623047"/>
       <use xlink:href="#DejaVuSans-30" x="127.246094"/>
       <use xlink:href="#DejaVuSans-30" x="190.869141"/>
       <use xlink:href="#DejaVuSans-30" x="254.492188"/>
       <use xlink:href="#DejaVuSans-30" x="318.115234"/>
      </g>
     </g>
    </g>
    <g id="ytick_8">
     <g id="line2d_25">
      <path d="M 67.645 46.165759 
L 625.645 46.165759 
" clip-path="url(#p92936dc21f)" style="fill: none; stroke: #b0b0b0; stroke-width: 0.3; stroke-linecap: square"/>
     </g>
     <g id="line2d_26">
      <g>
       <use xlink:href="#m882a2edae5" x="67.645" y="46.165759" style="fill: #b0b0b0; stroke: #b0b0b0; stroke-width: 0.3"/>
      </g>
     </g>
     <g id="text_18">
      <!-- 700000 -->
      <g style="fill: #b0b0b0" transform="translate(7.2 51.484666)scale(0.14 -0.14)">
       <use xlink:href="#DejaVuSans-37"/>
       <use xlink:href="#DejaVuSans-30" x="63.623047"/>
       <use xlink:href="#DejaVuSans-30" x="127.246094"/>
       <use xlink:href="#DejaVuSans-30" x="190.869141"/>
       <use xlink:href="#DejaVuSans-30" x="254.492188"/>
       <use xlink:href="#DejaVuSans-30" x="318.115234"/>
      </g>
     </g>
    </g>
    <g id="ytick_9">
     <g id="line2d_27">
      <path d="M 67.645 12.518906 
L 625.645 12.518906 
" clip-path="url(#p92936dc21f)" style="fill: none; stroke: #b0b0b0; stroke-width: 0.3; stroke-linecap: square"/>
     </g>
     <g id="line2d_28">
      <g>
       <use xlink:href="#m882a2edae5" x="67.645" y="12.518906" style="fill: #b0b0b0; stroke: #b0b0b0; stroke-width: 0.3"/>
      </g>
     </g>
     <g id="text_19">
      <!-- 800000 -->
      <g style="fill: #b0b0b0" transform="translate(7.2 17.837812)scale(0.14 -0.14)">
       <defs>
        <path id="DejaVuSans-38" d="M 2034 2216 
Q 1584 2216 1326 1975 
Q 1069 1734 1069 1313 
Q 1069 891 1326 650 
Q 1584 409 2034 409 
Q 2484 409 2743 651 
Q 3003 894 3003 1313 
Q 3003 1734 2745 1975 
Q 2488 2216 2034 2216 
z
M 1403 2484 
Q 997 2584 770 2862 
Q 544 3141 544 3541 
Q 544 4100 942 4425 
Q 1341 4750 2034 4750 
Q 2731 4750 3128 4425 
Q 3525 4100 3525 3541 
Q 3525 3141 3298 2862 
Q 3072 2584 2669 2484 
Q 3125 2378 3379 2068 
Q 3634 1759 3634 1313 
Q 3634 634 3220 271 
Q 2806 -91 2034 -91 
Q 1263 -91 848 271 
Q 434 634 434 1313 
Q 434 1759 690 2068 
Q 947 2378 1403 2484 
z
M 1172 3481 
Q 1172 3119 1398 2916 
Q 1625 2713 2034 2713 
Q 2441 2713 2670 2916 
Q 2900 3119 2900 3481 
Q 2900 3844 2670 4047 
Q 2441 4250 2034 4250 
Q 1625 4250 1398 4047 
Q 1172 3844 1172 3481 
z
" transform="scale(0.015625)"/>
       </defs>
       <use xlink:href="#DejaVuSans-38"/>
       <use xlink:href="#DejaVuSans-30" x="63.623047"/>
       <use xlink:href="#DejaVuSans-30" x="127.246094"/>
       <use xlink:href="#DejaVuSans-30" x="190.869141"/>
       <use xlink:href="#DejaVuSans-30" x="254.492188"/>
       <use xlink:href="#DejaVuSans-30" x="318.115234"/>
      </g>
     </g>
    </g>
   </g>
   <g id="line2d_29">
    <path d="M 67.645 281.69349 
L 95.390856 281.598462 
L 97.857155 281.418307 
L 99.090304 281.113226 
L 100.940028 280.168471 
L 103.406326 278.184893 
L 104.022901 277.597322 
L 104.639475 276.820128 
L 105.25605 276.473662 
L 105.872624 275.944829 
L 108.338923 272.91296 
L 108.955497 272.447624 
L 109.572072 271.817322 
L 110.188646 271.354533 
L 110.805221 271.178849 
L 111.421796 271.184232 
L 112.654945 270.933515 
L 115.121243 271.519932 
L 116.354392 272.055301 
L 118.204116 272.231082 
L 118.820691 272.089717 
L 119.437265 272.198012 
L 120.670414 271.894662 
L 121.286989 271.949554 
L 121.903564 271.777234 
L 122.520138 271.750845 
L 123.136713 272.012041 
L 129.302459 272.780583 
L 129.919033 273.151131 
L 130.535608 273.262166 
L 131.768757 273.728944 
L 132.385331 273.759659 
L 133.001906 273.974374 
L 134.85163 274.19476 
L 135.468204 274.195626 
L 136.084779 274.040321 
L 136.701354 274.178658 
L 137.317928 274.043446 
L 138.551077 274.128044 
L 139.167652 274.31363 
L 139.784227 274.244173 
L 142.250525 274.866207 
L 144.100249 274.727342 
L 144.716823 274.787618 
L 145.949972 274.703164 
L 146.566547 274.382702 
L 147.183122 274.317427 
L 148.416271 274.505081 
L 149.64942 274.53916 
L 150.265994 274.416013 
L 150.882569 274.687879 
L 151.499144 274.730274 
L 152.115718 274.54339 
L 152.732293 274.491718 
L 154.582017 273.835172 
L 157.048315 272.583076 
L 157.66489 272.159991 
L 158.281464 271.478402 
L 159.514613 270.503941 
L 160.131188 269.639121 
L 160.747762 269.209979 
L 161.364337 268.388563 
L 163.214061 266.683918 
L 163.830635 265.931959 
L 164.44721 265.813762 
L 165.063785 265.564198 
L 165.680359 265.044931 
L 166.296934 264.955094 
L 166.913508 264.599111 
L 167.530083 264.061578 
L 168.146657 263.835039 
L 169.379807 262.304203 
L 169.996381 261.996382 
L 170.612956 261.217794 
L 172.46268 260.001268 
L 173.079254 260.116052 
L 173.695829 259.929408 
L 174.312403 259.987088 
L 176.162127 259.72993 
L 176.778702 259.87067 
L 177.395276 259.45369 
L 178.011851 259.459554 
L 180.478149 259.979205 
L 181.094724 259.914075 
L 181.711298 260.42219 
L 182.944448 261.160114 
L 183.561022 262.027241 
L 184.177597 262.179806 
L 185.410746 263.085531 
L 186.02732 263.27727 
L 187.26047 262.627741 
L 187.877044 262.150293 
L 188.493619 262.376351 
L 189.110193 262.333283 
L 189.726768 262.742958 
L 190.343343 262.284495 
L 190.959917 262.83914 
L 191.576492 263.781492 
L 192.809641 265.02258 
L 194.04279 265.786268 
L 194.659365 266.869408 
L 195.275939 267.192514 
L 197.742238 267.803781 
L 198.358812 267.5447 
L 200.208536 267.615359 
L 202.05826 267.7772 
L 202.674834 268.035656 
L 203.907983 267.921064 
L 204.524558 268.161976 
L 205.141133 268.584917 
L 205.757707 269.317216 
L 206.990856 269.894693 
L 207.607431 270.073069 
L 208.224006 269.978858 
L 208.84058 269.441854 
L 210.690304 268.332133 
L 211.923453 267.78268 
L 214.389751 267.682412 
L 215.622901 267.37512 
L 216.85605 267.628865 
L 217.472624 268.005278 
L 218.705773 267.550661 
L 219.938923 267.797148 
L 221.172072 267.218374 
L 222.405221 267.267979 
L 223.021796 267.147139 
L 224.254945 266.08236 
L 224.871519 266.003722 
L 225.488094 265.711187 
L 226.104669 265.049305 
L 227.337818 264.554216 
L 227.954392 264.106953 
L 228.570967 263.835471 
L 229.187541 263.109901 
L 229.804116 263.135617 
L 230.420691 262.882304 
L 231.037265 261.642081 
L 231.65384 261.083832 
L 232.270414 260.975008 
L 232.886989 260.201948 
L 233.503564 259.649899 
L 234.120138 258.518259 
L 234.736713 258.09503 
L 235.353287 258.254516 
L 235.969862 257.510151 
L 236.586436 256.271418 
L 237.203011 255.710381 
L 237.819586 254.83614 
L 238.43616 254.405075 
L 239.669309 252.766137 
L 240.285884 250.480891 
L 240.902459 249.818336 
L 241.519033 248.05005 
L 242.135608 246.742245 
L 243.985331 241.132209 
L 244.601906 240.565596 
L 245.218481 238.286214 
L 245.835055 236.809886 
L 246.45163 234.288103 
L 247.068204 232.510299 
L 247.684779 231.546942 
L 248.301354 229.810139 
L 250.767652 224.617228 
L 251.384227 223.859261 
L 252.000801 223.528945 
L 252.617376 222.162738 
L 253.850525 221.338054 
L 254.467099 224.945525 
L 255.083674 224.322289 
L 255.700249 224.879625 
L 256.316823 225.179371 
L 256.933398 226.457807 
L 257.549972 225.325638 
L 258.166547 224.559067 
L 258.783122 219.609615 
L 259.399696 218.612947 
L 260.016271 216.027715 
L 261.24942 212.205481 
L 261.865994 210.766405 
L 263.099144 209.008501 
L 264.332293 208.717167 
L 265.565442 207.437049 
L 266.182017 207.472714 
L 266.798591 206.5692 
L 267.415166 206.410531 
L 268.03174 205.975766 
L 268.648315 206.873897 
L 269.26489 207.085343 
L 269.881464 207.708723 
L 270.498039 208.688423 
L 271.114613 209.330886 
L 271.731188 210.643017 
L 272.347762 216.447916 
L 272.964337 215.891013 
L 273.580912 218.35353 
L 274.197486 219.485698 
L 274.814061 219.483631 
L 275.430635 219.634706 
L 276.04721 214.725149 
L 277.280359 209.603185 
L 277.896934 206.361599 
L 278.513508 205.775086 
L 279.130083 204.482759 
L 279.746657 202.489615 
L 280.363232 203.876106 
L 280.979807 197.85976 
L 281.596381 198.22257 
L 282.212956 197.864952 
L 282.82953 196.977588 
L 283.446105 197.508535 
L 284.06268 198.971116 
L 285.912403 206.506665 
L 286.528978 208.154736 
L 287.762127 214.310476 
L 288.995276 218.394867 
L 289.611851 220.953711 
L 290.845 224.603385 
L 291.461575 225.142888 
L 292.078149 225.425618 
L 293.311298 228.199849 
L 295.161022 232.16763 
L 295.777597 232.373597 
L 298.86047 240.713498 
L 299.477044 241.839658 
L 300.093619 243.883272 
L 300.710193 244.923873 
L 301.326768 246.322092 
L 301.943343 247.199698 
L 303.176492 249.921728 
L 303.793066 250.936902 
L 304.409641 252.251533 
L 305.026215 253.989633 
L 305.64279 255.260282 
L 306.259365 256.903739 
L 306.875939 258.125696 
L 307.492514 258.941584 
L 308.109088 259.568521 
L 308.725663 259.566887 
L 309.342238 258.863283 
L 310.575387 258.340411 
L 311.191961 258.327914 
L 312.42511 258.616075 
L 313.041685 258.858429 
L 313.65826 259.60063 
L 316.124558 261.240289 
L 316.741133 261.728361 
L 317.357707 262.033586 
L 317.974282 262.173749 
L 319.207431 262.963489 
L 320.44058 263.419452 
L 321.057155 263.531736 
L 321.673729 263.198056 
L 322.290304 263.267032 
L 323.523453 263.165947 
L 324.140028 263.212524 
L 324.756602 263.114131 
L 325.989751 263.474825 
L 326.606326 263.532938 
L 327.222901 262.163799 
L 327.839475 261.912121 
L 328.45605 261.20371 
L 329.072624 260.954339 
L 329.689199 260.428391 
L 330.305773 259.541652 
L 330.922348 259.117173 
L 331.538923 259.993337 
L 332.155497 259.549679 
L 332.772072 259.662492 
L 333.388646 259.622837 
L 334.005221 260.026455 
L 335.23837 259.913402 
L 335.854945 259.613176 
L 336.471519 259.458881 
L 337.088094 258.943123 
L 337.704669 258.671304 
L 338.321243 258.213082 
L 338.937818 258.448802 
L 339.554392 257.582973 
L 340.170967 257.59124 
L 340.787541 257.883679 
L 341.404116 257.945253 
L 342.020691 258.668564 
L 343.25384 259.017867 
L 343.870414 259.90225 
L 344.486989 260.443388 
L 345.103564 260.792498 
L 345.720138 261.781571 
L 346.336713 261.806374 
L 346.953287 262.241764 
L 347.569862 263.023284 
L 348.803011 263.951889 
L 349.419586 264.331282 
L 351.269309 265.061899 
L 351.885884 264.949663 
L 353.119033 265.840295 
L 354.968757 267.544556 
L 355.585331 267.913999 
L 356.201906 268.502626 
L 359.284779 270.22573 
L 360.517928 270.81753 
L 362.367652 271.857217 
L 362.984227 272.50093 
L 363.600801 272.959681 
L 366.683674 273.920298 
L 368.533398 274.925666 
L 369.149972 275.675366 
L 369.766547 275.854992 
L 370.999696 276.639877 
L 371.616271 276.850266 
L 372.232845 276.740049 
L 372.84942 276.804362 
L 373.465994 276.429632 
L 374.082569 276.805179 
L 374.699144 276.716111 
L 375.315718 276.889873 
L 375.932293 276.539658 
L 376.548867 276.849401 
L 377.782017 276.995044 
L 378.398591 277.106078 
L 379.015166 277.42606 
L 380.86489 277.767095 
L 383.331188 277.801751 
L 385.180912 277.491719 
L 385.797486 277.507726 
L 386.414061 277.362179 
L 387.030635 277.521713 
L 388.880359 277.113865 
L 389.496934 277.30397 
L 390.113508 277.320313 
L 390.730083 277.545314 
L 391.346657 276.833683 
L 392.579807 276.32552 
L 393.196381 275.468198 
L 393.812956 275.242043 
L 394.42953 274.883319 
L 395.046105 273.896986 
L 395.66268 273.692749 
L 396.895829 272.633258 
L 397.512403 271.166448 
L 398.128978 270.974997 
L 398.745552 270.562487 
L 399.362127 269.628979 
L 399.978702 268.994735 
L 400.595276 268.196296 
L 401.211851 267.015579 
L 401.828425 264.963506 
L 402.445 264.25971 
L 403.061575 263.892382 
L 404.294724 261.210151 
L 404.911298 259.968102 
L 405.527873 259.198118 
L 406.144448 255.802621 
L 407.377597 254.276785 
L 409.22732 249.921488 
L 409.843895 248.136042 
L 410.46047 245.230252 
L 411.077044 244.311644 
L 411.693619 244.777461 
L 412.310193 242.305571 
L 412.926768 241.341973 
L 413.543343 238.842108 
L 414.159917 237.188798 
L 414.776492 238.394749 
L 416.009641 237.338526 
L 417.24279 234.10069 
L 419.709088 231.424467 
L 420.325663 231.548768 
L 420.942238 230.882224 
L 421.558812 230.696013 
L 422.175387 230.148819 
L 422.791961 228.7767 
L 423.408536 228.795927 
L 424.02511 229.43565 
L 424.641685 229.060343 
L 425.25826 228.051466 
L 425.874834 226.825952 
L 426.491409 226.2715 
L 427.724558 226.649402 
L 428.341133 226.311876 
L 428.957707 225.759443 
L 429.574282 232.271599 
L 430.190856 230.867708 
L 431.424006 232.132349 
L 432.04058 231.816549 
L 432.657155 231.661773 
L 433.273729 232.390036 
L 433.890304 226.763993 
L 434.506878 229.829029 
L 435.123453 230.005675 
L 435.740028 230.373003 
L 436.356602 231.870336 
L 436.973177 232.550916 
L 437.589751 232.718237 
L 438.206326 234.591693 
L 438.822901 235.729197 
L 439.439475 237.743154 
L 440.05605 239.166368 
L 440.672624 240.901344 
L 441.289199 241.59716 
L 441.905773 241.143216 
L 442.522348 241.905366 
L 443.755497 242.816282 
L 444.988646 244.677338 
L 446.83837 246.353095 
L 447.454945 247.194987 
L 448.688094 248.063797 
L 449.304669 249.189284 
L 449.921243 249.63996 
L 450.537818 249.885486 
L 451.154392 252.137278 
L 451.770967 251.398489 
L 452.387541 251.576961 
L 453.004116 252.277585 
L 453.620691 253.331885 
L 454.237265 253.285885 
L 454.85384 253.670997 
L 455.470414 253.531988 
L 456.086989 254.910788 
L 456.703564 255.720427 
L 457.320138 256.146637 
L 457.936713 256.796886 
L 458.553287 257.150803 
L 459.169862 257.751063 
L 459.786436 257.096583 
L 460.403011 257.830181 
L 461.019586 257.304136 
L 462.252735 257.488281 
L 462.869309 257.398203 
L 463.485884 256.765979 
L 464.719033 256.632497 
L 465.335608 257.448145 
L 465.952182 257.143401 
L 467.801906 256.815344 
L 468.418481 256.935799 
L 469.65163 256.018394 
L 470.268204 257.162099 
L 470.884779 254.91968 
L 471.501354 254.482752 
L 472.117928 254.719001 
L 472.734503 253.599666 
L 473.351077 253.171197 
L 473.967652 252.316856 
L 474.584227 249.808531 
L 475.200801 250.608124 
L 475.817376 250.540398 
L 477.667099 249.455335 
L 478.283674 249.516188 
L 479.516823 256.436096 
L 480.133398 257.340763 
L 480.749972 257.181325 
L 481.366547 255.177992 
L 482.599696 252.71211 
L 483.832845 242.871607 
L 484.44942 240.958399 
L 485.065994 240.379913 
L 485.682569 240.793674 
L 486.299144 240.978635 
L 486.915718 240.363667 
L 487.532293 241.05213 
L 488.148867 241.07126 
L 488.765442 241.540153 
L 489.382017 241.678346 
L 489.998591 241.303423 
L 490.615166 241.324621 
L 491.23174 241.519725 
L 491.848315 240.692973 
L 492.46489 239.037596 
L 493.081464 237.923837 
L 493.698039 236.1506 
L 494.314613 233.528309 
L 494.931188 230.327339 
L 495.547762 225.621875 
L 496.164337 219.467817 
L 496.780912 216.78227 
L 497.397486 216.450272 
L 498.014061 212.16323 
L 498.630635 199.640688 
L 499.24721 190.862849 
L 499.863785 178.443988 
L 501.096934 150.27465 
L 502.330083 140.195591 
L 503.563232 92.387499 
L 504.179807 84.671458 
L 504.796381 72.928034 
L 505.412956 55.810101 
L 506.646105 36.199706 
L 507.26268 19.908572 
L 507.879254 21.103036 
L 508.495829 12.163163 
L 509.112403 10.898089 
L 510.345552 9.893731 
L 510.962127 10.146082 
L 511.578702 44.214722 
L 512.195276 27.771457 
L 512.811851 24.911379 
L 513.428425 31.100525 
L 514.045 32.973982 
L 515.278149 43.556302 
L 515.894724 31.683144 
L 516.511298 62.272989 
L 518.361022 95.081795 
L 518.977597 101.036086 
L 519.594171 109.08672 
L 520.210746 127.287168 
L 520.82732 135.322325 
L 521.443895 152.000926 
L 522.677044 175.585448 
L 523.293619 180.016738 
L 523.910193 185.519537 
L 524.526768 194.947721 
L 525.143343 200.295312 
L 525.759917 207.094716 
L 526.376492 212.079593 
L 526.993066 219.107748 
L 527.609641 220.768797 
L 528.226215 221.977729 
L 528.84279 230.473703 
L 529.459365 235.439306 
L 531.309088 245.43319 
L 531.925663 246.41664 
L 532.542238 248.114364 
L 533.158812 252.319115 
L 533.775387 253.367983 
L 535.008536 256.468156 
L 535.62511 259.874179 
L 536.241685 259.10482 
L 536.85826 259.33458 
L 537.474834 258.57493 
L 538.091409 260.633444 
L 538.707983 262.15534 
L 539.324558 263.044386 
L 539.941133 264.156751 
L 540.557707 265.718541 
L 541.174282 265.998579 
L 541.790856 267.669722 
L 543.024006 269.243722 
L 545.490304 269.710308 
L 546.106878 271.090694 
L 546.723453 271.351025 
L 547.956602 270.630742 
L 548.573177 271.512097 
L 549.806326 271.46129 
L 550.422901 271.13083 
L 551.039475 271.121889 
L 551.65605 271.368233 
L 552.272624 271.857986 
L 552.889199 271.133666 
L 555.972072 271.452157 
L 556.588646 271.324155 
L 557.205221 272.007523 
L 557.821796 271.893748 
L 558.43837 272.231899 
L 559.054945 272.714924 
L 560.288094 272.558129 
L 560.904669 272.31842 
L 561.521243 270.26029 
L 562.137818 270.216164 
L 562.754392 269.986452 
L 564.604116 268.255802 
L 565.220691 268.252149 
L 565.837265 270.155696 
L 567.070414 270.271153 
L 567.686989 269.256412 
L 568.303564 269.086591 
L 569.536713 267.905539 
L 570.153287 265.278969 
L 572.619586 263.917618 
L 573.23616 262.903261 
L 573.852735 262.1501 
L 574.469309 263.535293 
L 575.702459 263.175897 
L 576.319033 261.997296 
L 576.935608 261.791377 
L 577.552182 260.731741 
L 578.168757 260.190171 
L 578.785331 256.939693 
L 579.401906 256.754924 
L 580.018481 257.280247 
L 580.635055 255.578101 
L 581.25163 254.582635 
L 581.868204 252.264799 
L 582.484779 251.04015 
L 583.101354 253.028631 
L 583.717928 253.545398 
L 584.334503 252.278931 
L 584.951077 249.938311 
L 585.567652 249.24908 
L 586.184227 247.154611 
L 586.800801 246.136025 
L 587.417376 243.16943 
L 588.03395 242.696499 
L 588.650525 243.299114 
L 589.267099 245.040195 
L 589.883674 245.114266 
L 590.500249 244.809426 
L 591.116823 244.312125 
L 591.733398 246.283254 
L 592.966547 247.62759 
L 593.583122 251.558504 
L 594.199696 247.359376 
L 594.816271 246.523012 
L 595.432845 247.666091 
L 596.04942 245.283606 
L 596.665994 244.62432 
L 597.282569 244.188305 
L 597.899144 239.283795 
L 598.515718 243.307526 
L 599.132293 244.666282 
L 599.748867 243.647119 
L 600.365442 246.05234 
L 600.982017 245.690252 
L 601.598591 245.609452 
L 602.215166 246.010186 
L 602.83174 245.853343 
L 604.06489 247.171242 
L 604.681464 245.650453 
L 605.298039 246.49273 
L 605.914613 246.47581 
L 606.531188 249.256386 
L 607.147762 248.210257 
L 607.764337 248.182811 
L 608.380912 247.260935 
L 608.997486 248.298652 
L 609.614061 247.18547 
L 610.230635 246.985896 
L 610.84721 243.753395 
L 611.463785 244.456855 
L 612.080359 244.223874 
L 612.696934 243.34324 
L 613.313508 241.454161 
L 613.930083 242.446263 
L 614.546657 243.10949 
L 615.163232 247.127069 
L 615.779807 245.064709 
L 616.396381 244.572263 
L 617.012956 245.802825 
L 617.62953 246.704945 
L 618.246105 246.299933 
L 618.86268 245.54682 
L 619.479254 239.693854 
L 620.095829 239.352531 
L 620.712403 239.217367 
L 621.328978 237.672063 
L 622.562127 236.540375 
L 623.178702 236.739324 
L 623.795276 238.545679 
L 624.411851 239.939957 
L 625.028425 239.345946 
L 625.645 240.309976 
L 625.645 240.309976 
" clip-path="url(#p92936dc21f)" style="fill: none; stroke: #7516fd; stroke-width: 1.5; stroke-linecap: square"/>
   </g>
   <g id="line2d_30">
    <path d="M 67.645 281.693394 
L 110.188646 281.592358 
L 122.520138 281.573996 
L 138.551077 281.682339 
L 165.063785 281.635762 
L 179.861575 281.415904 
L 187.26047 281.22902 
L 227.337818 281.51944 
L 244.601906 281.349523 
L 247.684779 281.20614 
L 250.767652 281.07732 
L 253.23395 280.996856 
L 256.933398 281.002769 
L 259.399696 280.94355 
L 263.099144 280.901395 
L 279.130083 280.434954 
L 280.363232 280.180776 
L 282.212956 279.583496 
L 283.446105 279.525287 
L 285.912403 279.655741 
L 289.611851 279.80196 
L 292.694724 280.250425 
L 298.86047 280.893464 
L 303.793066 281.194652 
L 316.741133 281.344765 
L 323.523453 281.288286 
L 330.305773 281.09025 
L 340.787541 280.515081 
L 347.569862 280.071952 
L 352.502459 279.919724 
L 353.735608 280.076711 
L 359.284779 279.566144 
L 374.699144 280.949078 
L 380.248315 281.186625 
L 383.947762 281.2034 
L 394.42953 281.025793 
L 397.512403 280.808338 
L 401.828425 280.364392 
L 403.061575 280.285273 
L 404.294724 279.982836 
L 405.527873 279.500629 
L 407.994171 278.327651 
L 412.310193 276.884057 
L 412.926768 276.949813 
L 414.159917 276.688665 
L 416.009641 276.086242 
L 416.626215 275.950261 
L 417.859365 275.111974 
L 419.709088 274.287049 
L 420.325663 274.072815 
L 422.175387 273.890353 
L 423.408536 273.985333 
L 425.874834 274.610732 
L 427.107983 275.149322 
L 428.957707 276.152623 
L 430.190856 276.75644 
L 433.273729 278.497808 
L 435.123453 279.168727 
L 437.589751 279.955582 
L 438.206326 280.049409 
L 439.439475 280.437549 
L 442.522348 280.892791 
L 443.755497 280.955663 
L 445.605221 281.15293 
L 448.688094 281.341448 
L 454.237265 281.506558 
L 481.366547 281.661958 
L 500.480359 281.595001 
L 503.563232 281.501367 
L 504.796381 281.215032 
L 506.02953 280.566225 
L 507.26268 279.932366 
L 507.879254 279.687898 
L 508.495829 279.180599 
L 509.728978 277.729458 
L 511.578702 275.36048 
L 513.428425 271.443121 
L 515.278149 267.550612 
L 515.894724 266.404697 
L 519.594171 257.569754 
L 520.82732 255.87304 
L 522.677044 252.731385 
L 523.293619 251.891175 
L 523.910193 251.323264 
L 524.526768 250.982902 
L 525.143343 250.046029 
L 525.759917 249.900483 
L 526.376492 250.128368 
L 526.993066 250.122504 
L 527.609641 251.751396 
L 528.226215 252.349253 
L 528.84279 252.728309 
L 529.459365 253.541889 
L 531.309088 254.602438 
L 531.925663 253.973386 
L 533.158812 254.647765 
L 533.775387 255.354878 
L 534.391961 255.86357 
L 535.008536 257.496068 
L 535.62511 258.555703 
L 536.85826 259.38505 
L 537.474834 259.427974 
L 538.091409 259.624039 
L 538.707983 259.99574 
L 539.324558 259.557562 
L 539.941133 259.65485 
L 541.174282 260.530918 
L 542.407431 261.753933 
L 544.873729 263.398975 
L 546.723453 263.924059 
L 547.956602 264.569838 
L 548.573177 264.89203 
L 549.806326 265.946234 
L 550.422901 266.176619 
L 551.039475 267.644728 
L 551.65605 268.45677 
L 552.889199 268.72931 
L 554.738923 268.323385 
L 555.355497 267.15954 
L 555.972072 266.550003 
L 562.754392 265.410577 
L 565.220691 264.910488 
L 565.837265 265.013688 
L 566.45384 265.25907 
L 568.920138 267.061003 
L 570.153287 267.779411 
L 570.769862 267.95399 
L 573.23616 268.055508 
L 574.469309 268.616689 
L 575.085884 269.525779 
L 575.702459 270.08398 
L 576.319033 270.348589 
L 576.935608 270.829498 
L 578.785331 273.51221 
L 580.018481 272.081017 
L 581.25163 271.08805 
L 583.101354 268.280941 
L 583.717928 268.276039 
L 584.951077 268.958301 
L 586.184227 269.389749 
L 588.03395 269.764047 
L 589.883674 270.309126 
L 591.116823 271.06022 
L 596.665994 275.2145 
L 597.282569 275.483868 
L 598.515718 275.856963 
L 600.365442 276.396995 
L 601.598591 276.618632 
L 606.531188 276.994275 
L 608.380912 276.900881 
L 610.84721 276.619449 
L 612.080359 276.135944 
L 613.930083 275.071357 
L 615.163232 274.288203 
L 615.779807 273.480726 
L 617.012956 271.21735 
L 618.246105 268.481813 
L 618.86268 267.001736 
L 619.479254 266.024584 
L 620.095829 264.110847 
L 621.945552 256.813373 
L 623.178702 251.663434 
L 623.795276 249.787093 
L 624.411851 250.233442 
L 625.028425 247.444935 
L 625.645 243.195867 
L 625.645 243.195867 
" clip-path="url(#p92936dc21f)" style="fill: none; stroke: #53a577; stroke-width: 1.5; stroke-linecap: square"/>
   </g>
   <g id="line2d_31">
    <path d="M 67.645 281.693538 
L 94.774282 281.596636 
L 98.473729 281.374999 
L 102.173177 280.718933 
L 105.25605 280.062483 
L 110.188646 279.862717 
L 113.271519 280.161357 
L 114.504669 280.365882 
L 118.204116 280.760367 
L 129.919033 281.379277 
L 133.618481 281.398215 
L 144.100249 281.539868 
L 167.530083 281.567988 
L 178.628425 281.516123 
L 192.193066 281.32424 
L 197.742238 281.236374 
L 206.374282 281.279442 
L 209.457155 281.234403 
L 211.923453 281.168696 
L 215.006326 281.104238 
L 219.938923 281.037521 
L 224.254945 280.808242 
L 231.037265 279.724525 
L 232.886989 279.250681 
L 233.503564 279.062835 
L 234.736713 278.463296 
L 235.969862 278.035453 
L 237.819586 277.059934 
L 239.669309 276.54283 
L 240.902459 276.245152 
L 243.368757 275.657726 
L 247.068204 275.393694 
L 247.684779 275.348992 
L 248.917928 275.514919 
L 250.151077 275.523715 
L 254.467099 275.556929 
L 258.783122 275.771837 
L 260.016271 275.662917 
L 261.24942 275.455316 
L 261.865994 275.433686 
L 263.715718 274.875917 
L 264.332293 274.629814 
L 266.182017 274.300988 
L 266.798591 273.968702 
L 269.26489 273.364068 
L 269.881464 273.350561 
L 270.498039 273.105612 
L 271.114613 273.249236 
L 271.731188 272.995827 
L 272.347762 273.392091 
L 272.964337 274.201778 
L 273.580912 274.63515 
L 275.430635 275.336158 
L 276.04721 275.318998 
L 278.513508 275.748861 
L 279.746657 275.855425 
L 280.363232 276.151565 
L 280.979807 275.722568 
L 281.596381 275.145572 
L 282.212956 274.826841 
L 283.446105 274.655963 
L 284.679254 274.793626 
L 285.295829 275.249349 
L 285.912403 275.53852 
L 288.378702 276.186414 
L 289.611851 276.63209 
L 290.845 276.818879 
L 291.461575 276.838682 
L 292.694724 277.210384 
L 295.777597 277.833668 
L 296.394171 277.847992 
L 297.62732 278.176529 
L 300.093619 278.493723 
L 303.793066 279.263899 
L 308.725663 279.197086 
L 310.575387 279.094223 
L 314.274834 278.943725 
L 318.590856 278.878883 
L 323.523453 277.881014 
L 324.756602 277.496142 
L 325.989751 277.301567 
L 327.222901 277.090889 
L 329.072624 276.433189 
L 330.305773 276.163726 
L 332.155497 275.926035 
L 332.772072 275.910894 
L 333.388646 276.023515 
L 334.005221 276.262888 
L 335.23837 276.457031 
L 335.854945 276.811476 
L 336.471519 276.998601 
L 337.704669 276.53985 
L 338.937818 276.039617 
L 339.554392 275.850955 
L 340.787541 274.839867 
L 343.25384 274.859286 
L 343.870414 274.917014 
L 344.486989 274.763633 
L 348.803011 274.75575 
L 350.652735 275.354327 
L 352.502459 275.771164 
L 355.585331 276.718467 
L 357.435055 277.043976 
L 358.05163 277.261911 
L 359.901354 278.179798 
L 361.134503 278.344475 
L 362.984227 278.899984 
L 364.217376 279.024862 
L 365.450525 279.266543 
L 366.683674 279.958659 
L 369.766547 280.282486 
L 370.383122 280.172364 
L 370.999696 280.25278 
L 372.232845 280.605928 
L 375.932293 280.927736 
L 378.398591 281.045692 
L 380.86489 281.325586 
L 385.797486 281.466422 
L 394.42953 281.441235 
L 398.128978 281.310685 
L 414.159917 280.536375 
L 422.175387 279.107826 
L 423.408536 278.772559 
L 425.25826 278.557796 
L 426.491409 278.46296 
L 432.04058 278.101785 
L 432.657155 278.083568 
L 433.273729 278.23296 
L 434.506878 278.215607 
L 436.356602 278.483004 
L 437.589751 278.594567 
L 441.905773 279.085523 
L 443.755497 279.079803 
L 445.605221 278.928344 
L 446.83837 279.002559 
L 449.304669 278.992946 
L 453.620691 278.792843 
L 455.470414 278.595288 
L 456.086989 278.508768 
L 459.786436 277.1329 
L 460.403011 276.954956 
L 461.019586 276.657085 
L 461.63616 276.082205 
L 463.485884 275.378072 
L 464.102459 275.229786 
L 464.719033 275.213443 
L 465.335608 275.348703 
L 465.952182 275.064532 
L 467.185331 273.867136 
L 468.418481 273.265771 
L 469.035055 272.736121 
L 470.268204 271.028543 
L 472.117928 269.463773 
L 473.351077 268.583667 
L 474.584227 267.222171 
L 475.200801 267.014041 
L 475.817376 266.108316 
L 477.667099 264.688275 
L 478.283674 264.01255 
L 478.900249 263.503521 
L 479.516823 262.37664 
L 480.749972 262.142313 
L 481.983122 262.183266 
L 482.599696 262.16875 
L 485.065994 262.638605 
L 485.682569 262.712051 
L 486.299144 263.178012 
L 486.915718 263.06193 
L 487.532293 263.186808 
L 488.765442 264.334502 
L 489.382017 264.786764 
L 490.615166 265.331314 
L 491.23174 266.210939 
L 491.848315 266.880704 
L 493.081464 267.899915 
L 494.314613 268.330354 
L 496.164337 269.521789 
L 496.780912 270.268605 
L 498.014061 272.183928 
L 499.24721 272.401479 
L 499.863785 272.671423 
L 500.480359 272.775104 
L 501.713508 272.295059 
L 502.946657 271.957389 
L 503.563232 271.501666 
L 505.412956 268.832317 
L 506.646105 266.259102 
L 507.26268 265.935275 
L 507.879254 265.208071 
L 509.112403 263.352927 
L 509.728978 261.627901 
L 510.345552 260.564036 
L 510.962127 259.797272 
L 511.578702 259.369957 
L 512.811851 256.456716 
L 514.661575 248.886415 
L 515.894724 245.897421 
L 517.127873 240.887548 
L 517.744448 237.54209 
L 518.977597 232.557885 
L 519.594171 230.946201 
L 520.210746 230.228802 
L 520.82732 228.514831 
L 521.443895 226.375949 
L 522.06047 224.790509 
L 522.677044 221.969461 
L 523.293619 220.592391 
L 524.526768 219.09501 
L 525.143343 218.760561 
L 525.759917 217.522741 
L 526.376492 216.958339 
L 528.226215 218.145833 
L 528.84279 219.049587 
L 529.459365 219.547272 
L 530.692514 220.821719 
L 531.925663 222.783234 
L 532.542238 223.125855 
L 533.158812 223.250733 
L 533.775387 224.852083 
L 534.391961 225.376974 
L 535.008536 226.304858 
L 535.62511 226.752121 
L 536.85826 227.876454 
L 537.474834 228.430089 
L 538.091409 228.612311 
L 538.707983 229.700835 
L 539.324558 229.972365 
L 539.941133 229.643107 
L 540.557707 228.855914 
L 541.174282 228.424466 
L 541.790856 227.651597 
L 543.024006 224.568777 
L 543.64058 222.065499 
L 544.257155 220.371476 
L 544.873729 218.214424 
L 545.490304 216.785971 
L 546.106878 216.115437 
L 548.573177 208.135557 
L 549.189751 207.022664 
L 549.806326 207.734775 
L 550.422901 207.737852 
L 552.272624 204.479538 
L 552.889199 204.544285 
L 553.505773 204.939058 
L 554.738923 207.120384 
L 555.355497 206.386306 
L 555.972072 207.119567 
L 556.588646 197.068771 
L 557.205221 211.323212 
L 557.821796 213.994292 
L 558.43837 213.804043 
L 559.671519 219.786261 
L 560.288094 212.660963 
L 560.904669 229.59129 
L 561.521243 222.346113 
L 562.137818 229.12283 
L 562.754392 233.179343 
L 563.370967 223.544711 
L 563.987541 225.551313 
L 564.604116 237.632744 
L 565.220691 238.517128 
L 565.837265 243.953834 
L 566.45384 244.70786 
L 567.070414 245.203286 
L 567.686989 253.757229 
L 568.303564 250.876482 
L 568.920138 249.869143 
L 569.536713 249.635826 
L 570.153287 244.948772 
L 571.386436 244.996983 
L 572.003011 239.502211 
L 572.619586 249.047487 
L 573.23616 244.940648 
L 573.852735 247.829855 
L 574.469309 250.126542 
L 575.085884 251.446508 
L 575.702459 252.218078 
L 576.319033 253.336884 
L 576.935608 248.211459 
L 577.552182 256.651916 
L 578.785331 258.170014 
L 579.401906 258.32527 
L 580.018481 258.358052 
L 580.635055 258.644242 
L 581.868204 259.453065 
L 582.484779 260.225693 
L 583.101354 260.725252 
L 584.334503 260.887815 
L 585.567652 263.112112 
L 586.184227 264.565752 
L 587.417376 266.467905 
L 588.650525 266.630756 
L 590.500249 269.694494 
L 591.116823 271.956428 
L 592.349972 272.125094 
L 593.583122 272.271122 
L 594.199696 271.991564 
L 594.816271 271.56872 
L 595.432845 269.605618 
L 596.04942 269.552216 
L 596.665994 269.682621 
L 597.282569 269.556638 
L 597.899144 272.447335 
L 600.365442 266.762603 
L 601.598591 266.666373 
L 602.215166 261.663086 
L 602.83174 261.293499 
L 603.448315 260.740441 
L 604.06489 263.132252 
L 604.681464 262.414757 
L 605.914613 262.339532 
L 606.531188 261.510041 
L 607.764337 258.765131 
L 608.380912 254.916315 
L 608.997486 254.480252 
L 609.614061 254.4803 
L 610.230635 254.775527 
L 610.84721 253.851104 
L 612.080359 252.503836 
L 612.696934 252.267875 
L 613.313508 251.819267 
L 614.546657 251.743994 
L 615.163232 251.495968 
L 615.779807 251.65084 
L 617.012956 251.296875 
L 617.62953 251.429059 
L 618.86268 251.374792 
L 619.479254 251.026787 
L 620.095829 251.176612 
L 620.712403 250.371635 
L 621.328978 250.757997 
L 621.945552 249.454085 
L 622.562127 249.454085 
L 623.178702 249.622079 
L 623.795276 249.335504 
L 624.411851 248.691984 
L 625.028425 249.438223 
L 625.645 249.528349 
L 625.645 249.528349 
" clip-path="url(#p92936dc21f)" style="fill: none; stroke: #d8b009; stroke-width: 1.5; stroke-linecap: square"/>
   </g>
   <g id="line2d_32">
    <path d="M 67.645 281.693538 
L 94.774282 281.60399 
L 99.090304 281.276654 
L 100.323453 281.214648 
L 102.173177 280.989214 
L 104.022901 280.718597 
L 104.639475 280.577136 
L 105.872624 280.514889 
L 106.489199 280.256097 
L 107.105773 280.165491 
L 107.722348 280.252924 
L 108.338923 280.184093 
L 108.955497 281.228299 
L 110.188646 281.393841 
L 110.805221 281.693731 
L 112.654945 281.693731 
L 113.271519 281.180905 
L 113.888094 278.782461 
L 114.504669 278.759293 
L 115.121243 277.752915 
L 115.737818 277.784063 
L 116.354392 277.361362 
L 117.587541 277.23235 
L 118.204116 279.619018 
L 118.820691 279.652376 
L 119.437265 280.362902 
L 120.05384 280.43058 
L 120.670414 281.117312 
L 121.286989 281.07309 
L 122.520138 281.19744 
L 123.753287 281.115486 
L 124.369862 281.271895 
L 124.986436 281.131203 
L 126.219586 281.283624 
L 126.83616 281.296698 
L 128.069309 281.543714 
L 128.685884 281.274972 
L 138.551077 281.549338 
L 143.483674 281.403166 
L 145.333398 281.410328 
L 145.949972 281.573708 
L 147.183122 281.525448 
L 148.416271 281.578947 
L 149.64942 281.527659 
L 150.265994 281.342554 
L 150.882569 281.534629 
L 158.281464 281.517613 
L 165.063785 281.544435 
L 168.763232 281.509971 
L 175.545552 281.463154 
L 187.26047 281.208062 
L 189.726768 281.02536 
L 190.343343 281.000029 
L 191.576492 280.704225 
L 192.193066 280.902501 
L 194.04279 280.70908 
L 195.892514 280.515899 
L 197.125663 280.38059 
L 197.742238 280.548824 
L 198.358812 280.239946 
L 199.591961 280.016099 
L 201.441685 279.857718 
L 202.05826 279.530863 
L 202.674834 279.72813 
L 205.141133 279.384163 
L 210.690304 278.743094 
L 211.306878 278.720166 
L 213.156602 278.233825 
L 213.773177 278.271365 
L 215.006326 278.020311 
L 215.622901 277.747772 
L 216.85605 277.578048 
L 218.089199 277.632892 
L 218.705773 277.732823 
L 219.322348 277.678315 
L 220.555497 277.99325 
L 223.63837 277.349393 
L 224.254945 277.139004 
L 225.488094 276.237365 
L 227.954392 275.5937 
L 228.570967 274.999833 
L 229.804116 274.51604 
L 230.420691 273.850649 
L 232.270414 273.068456 
L 232.886989 272.537028 
L 233.503564 271.709556 
L 234.120138 271.078629 
L 234.736713 272.194791 
L 235.353287 269.372301 
L 235.969862 268.695423 
L 236.586436 268.208024 
L 237.819586 267.609687 
L 238.43616 268.098239 
L 239.669309 264.606465 
L 240.285884 262.773048 
L 240.902459 266.794856 
L 242.135608 265.705563 
L 242.752182 263.227521 
L 243.368757 263.593646 
L 243.985331 267.663329 
L 244.601906 270.066099 
L 245.218481 266.09928 
L 245.835055 267.313546 
L 246.45163 269.083227 
L 247.068204 271.712392 
L 248.301354 272.805626 
L 248.917928 271.700567 
L 249.534503 272.064049 
L 250.151077 272.629749 
L 250.767652 272.671615 
L 252.000801 274.034265 
L 252.617376 274.274023 
L 253.23395 275.989147 
L 253.850525 276.570228 
L 255.700249 277.698407 
L 256.316823 277.860249 
L 257.549972 277.967582 
L 258.783122 278.099334 
L 260.016271 278.140575 
L 261.24942 278.126636 
L 261.865994 277.857413 
L 263.715718 277.688698 
L 265.565442 277.619962 
L 266.182017 277.731429 
L 269.881464 276.888768 
L 270.498039 276.882231 
L 271.114613 277.013646 
L 272.347762 276.643194 
L 272.964337 277.332233 
L 274.197486 277.661252 
L 274.814061 277.678892 
L 275.430635 277.124776 
L 276.663785 277.250712 
L 277.280359 277.232783 
L 277.896934 277.058588 
L 278.513508 277.011579 
L 279.130083 276.562682 
L 279.746657 276.626515 
L 280.979807 276.517547 
L 281.596381 275.7143 
L 282.212956 275.548325 
L 286.528978 275.531165 
L 287.145552 275.532031 
L 288.378702 275.19114 
L 290.228425 274.899566 
L 291.461575 274.789156 
L 292.694724 274.870293 
L 293.927873 274.821794 
L 295.777597 274.776659 
L 297.010746 274.745415 
L 297.62732 275.888831 
L 298.243895 274.813478 
L 298.86047 274.979645 
L 300.093619 274.963591 
L 300.710193 275.171096 
L 301.326768 275.219019 
L 301.943343 274.206921 
L 302.559917 275.403692 
L 303.176492 275.372785 
L 303.793066 275.518908 
L 306.259365 275.436618 
L 308.109088 274.959361 
L 309.342238 274.918745 
L 309.958812 274.606934 
L 311.191961 274.415388 
L 311.808536 274.331799 
L 313.041685 274.428798 
L 313.65826 274.300027 
L 314.274834 274.526711 
L 317.974282 274.504696 
L 320.44058 273.851226 
L 321.057155 273.629349 
L 321.673729 273.585031 
L 323.523453 272.494489 
L 324.140028 272.011753 
L 325.989751 271.092328 
L 326.606326 271.829242 
L 327.222901 270.537636 
L 327.839475 270.028751 
L 329.689199 269.042898 
L 330.305773 269.365091 
L 330.922348 268.594722 
L 331.538923 268.899515 
L 332.772072 268.42769 
L 333.388646 270.468564 
L 334.005221 268.377316 
L 334.621796 268.296227 
L 335.23837 269.38576 
L 335.854945 272.179554 
L 336.471519 269.951315 
L 337.088094 272.187341 
L 337.704669 272.127834 
L 338.321243 270.336524 
L 338.937818 270.444338 
L 339.554392 268.950706 
L 340.170967 266.904016 
L 340.787541 269.739388 
L 342.020691 266.338413 
L 342.637265 270.59349 
L 343.25384 270.682029 
L 343.870414 270.444338 
L 344.486989 270.856896 
L 346.953287 271.667065 
L 347.569862 271.703163 
L 348.186436 272.364131 
L 348.803011 272.526694 
L 350.652735 273.577725 
L 351.269309 274.278733 
L 351.885884 274.384 
L 354.352182 275.416622 
L 354.968757 275.651717 
L 356.201906 275.71233 
L 358.05163 276.257601 
L 358.668204 276.839019 
L 359.284779 277.083872 
L 359.901354 276.84844 
L 360.517928 276.84594 
L 361.751077 277.086707 
L 362.367652 281.693731 
L 366.067099 281.693731 
L 366.683674 278.465796 
L 369.149972 278.733865 
L 369.766547 278.411913 
L 370.383122 278.955213 
L 370.999696 278.877057 
L 372.84942 279.486113 
L 373.465994 279.447467 
L 374.082569 279.631659 
L 374.699144 279.429057 
L 375.315718 279.961447 
L 377.165442 280.344444 
L 378.398591 280.500854 
L 380.248315 280.771519 
L 382.714613 280.946626 
L 386.414061 281.077561 
L 387.64721 281.066409 
L 391.963232 280.75955 
L 395.66268 280.23514 
L 396.279254 280.3617 
L 398.745552 279.040148 
L 399.362127 278.899552 
L 399.978702 278.358366 
L 400.595276 277.391115 
L 402.445 275.744727 
L 403.678149 275.555776 
L 404.911298 274.822226 
L 406.144448 274.426635 
L 406.761022 274.516953 
L 407.994171 274.149241 
L 408.610746 274.28527 
L 412.926768 273.794026 
L 414.776492 273.395503 
L 416.009641 273.425353 
L 416.626215 273.128347 
L 420.942238 274.415868 
L 421.558812 274.377847 
L 422.791961 274.955948 
L 423.408536 276.037022 
L 424.02511 275.416093 
L 424.641685 275.592499 
L 425.25826 275.603218 
L 425.874834 276.847671 
L 426.491409 276.394736 
L 427.107983 276.660498 
L 427.724558 275.950694 
L 428.341133 277.022346 
L 429.574282 277.400056 
L 430.190856 276.702268 
L 430.807431 278.009593 
L 431.424006 277.818959 
L 432.657155 278.24166 
L 433.890304 278.393695 
L 434.506878 278.397781 
L 435.740028 278.844035 
L 438.822901 279.446025 
L 439.439475 279.121958 
L 440.05605 279.462127 
L 447.454945 280.101754 
L 448.071519 279.934241 
L 451.770967 279.969906 
L 452.387541 280.360018 
L 453.004116 280.146312 
L 454.237265 280.072193 
L 456.086989 280.086517 
L 456.703564 279.871225 
L 457.320138 280.03321 
L 459.786436 279.885693 
L 464.102459 279.671122 
L 464.719033 279.895258 
L 467.185331 279.348593 
L 468.418481 279.225157 
L 469.035055 278.722425 
L 470.268204 278.487666 
L 470.884779 278.737422 
L 472.117928 278.30679 
L 472.734503 278.255551 
L 474.584227 277.126363 
L 475.200801 276.290815 
L 476.43395 275.556545 
L 477.050525 275.458873 
L 478.283674 274.358669 
L 480.749972 271.83352 
L 481.366547 271.679322 
L 483.832845 268.560258 
L 484.44942 267.869296 
L 485.065994 267.361421 
L 485.682569 267.21299 
L 486.915718 266.121006 
L 487.532293 265.715273 
L 488.148867 265.460806 
L 489.382017 265.261329 
L 489.998591 265.238929 
L 493.698039 264.03889 
L 494.314613 263.8932 
L 494.931188 263.438198 
L 495.547762 262.544249 
L 496.780912 259.337752 
L 497.397486 257.123068 
L 498.014061 258.121707 
L 498.630635 257.383927 
L 499.863785 246.289022 
L 500.480359 240.765843 
L 501.713508 228.624664 
L 502.330083 227.147327 
L 502.946657 225.368466 
L 503.563232 220.938329 
L 504.179807 214.973223 
L 504.796381 212.264555 
L 506.02953 203.584196 
L 506.646105 192.160368 
L 507.26268 190.888901 
L 507.879254 186.233955 
L 508.495829 184.81228 
L 509.112403 182.625715 
L 509.728978 182.554768 
L 510.345552 181.548199 
L 510.962127 182.411865 
L 511.578702 181.992577 
L 512.195276 177.356378 
L 512.811851 173.766691 
L 513.428425 168.050235 
L 514.661575 161.492511 
L 515.278149 160.362265 
L 515.894724 160.034305 
L 516.511298 158.203964 
L 517.127873 158.629068 
L 517.744448 160.249789 
L 518.361022 162.516145 
L 519.594171 167.760391 
L 520.210746 168.771239 
L 520.82732 173.030642 
L 523.910193 199.546717 
L 524.526768 201.45012 
L 525.143343 209.912063 
L 525.759917 225.005417 
L 526.376492 222.221139 
L 527.609641 232.013239 
L 528.226215 235.323801 
L 528.84279 236.104167 
L 529.459365 247.482812 
L 530.075939 235.905122 
L 530.692514 247.475602 
L 531.925663 251.825708 
L 532.542238 253.15 
L 533.158812 253.732907 
L 533.775387 249.139968 
L 534.391961 257.281064 
L 536.241685 260.881181 
L 536.85826 261.670152 
L 537.474834 261.897364 
L 538.707983 263.449542 
L 539.324558 263.796345 
L 540.557707 263.811726 
L 541.790856 263.653778 
L 544.257155 261.151269 
L 545.490304 259.682632 
L 546.106878 259.379859 
L 546.723453 258.241153 
L 547.340028 256.384183 
L 549.189751 252.557575 
L 549.806326 251.48823 
L 550.422901 251.396566 
L 551.039475 248.329752 
L 552.889199 242.11686 
L 553.505773 240.126264 
L 554.122348 238.737562 
L 554.738923 238.484057 
L 555.355497 236.730383 
L 555.972072 236.01087 
L 556.588646 234.608805 
L 557.205221 234.347609 
L 558.43837 235.083562 
L 559.054945 234.97248 
L 559.671519 235.353026 
L 560.288094 236.223758 
L 560.904669 236.736248 
L 561.521243 236.738459 
L 562.137818 236.273796 
L 562.754392 236.014811 
L 563.370967 236.331091 
L 563.987541 237.243883 
L 564.604116 237.458694 
L 565.837265 239.625743 
L 566.45384 241.077269 
L 567.070414 242.086866 
L 567.686989 242.362194 
L 568.303564 250.306312 
L 568.920138 249.860251 
L 571.386436 256.067566 
L 572.003011 256.343855 
L 572.619586 252.882651 
L 573.23616 257.111869 
L 573.852735 259.226045 
L 575.085884 262.428744 
L 575.702459 263.497176 
L 576.319033 263.751883 
L 576.935608 265.212397 
L 578.168757 266.913149 
L 579.401906 268.079637 
L 580.018481 268.435429 
L 580.635055 268.502674 
L 581.25163 269.014683 
L 584.334503 270.797774 
L 584.951077 270.865693 
L 585.567652 271.477777 
L 586.184227 270.329314 
L 588.650525 271.799825 
L 589.267099 273.510335 
L 589.883674 274.060509 
L 590.500249 276.096144 
L 591.116823 276.41377 
L 591.733398 277.352421 
L 592.966547 277.325985 
L 593.583122 275.676376 
L 595.432845 275.129999 
L 596.04942 274.153952 
L 596.665994 274.077525 
L 597.282569 273.880355 
L 597.899144 273.805755 
L 598.515718 274.935856 
L 599.132293 273.604931 
L 599.748867 272.894742 
L 601.598591 276.299996 
L 602.215166 276.597626 
L 602.83174 268.66937 
L 603.448315 268.759784 
L 604.06489 268.138279 
L 604.681464 265.709409 
L 605.914613 265.70489 
L 606.531188 260.805091 
L 607.147762 264.702599 
L 608.997486 260.786538 
L 610.230635 260.786538 
L 611.463785 255.248073 
L 613.313508 248.230349 
L 614.546657 248.230349 
L 615.163232 244.456903 
L 615.779807 241.591873 
L 617.012956 238.810576 
L 617.62953 238.03516 
L 618.86268 238.03516 
L 619.479254 237.646539 
L 620.712403 240.09478 
L 621.945552 254.625366 
L 623.178702 254.625366 
L 623.795276 249.512871 
L 624.411851 251.810759 
L 625.028425 253.617162 
L 625.645 249.730037 
L 625.645 249.730037 
" clip-path="url(#p92936dc21f)" style="fill: none; stroke: #0309a6; stroke-width: 1.5; stroke-linecap: square"/>
   </g>
   <g id="line2d_33">
    <path d="M 67.645 281.693731 
L 89.22511 281.588945 
L 93.541133 281.326163 
L 98.473729 280.576126 
L 102.173177 279.883049 
L 104.022901 279.796192 
L 108.338923 280.091708 
L 112.03837 280.329399 
L 135.468204 281.387785 
L 149.032845 281.593703 
L 186.02732 281.58707 
L 195.275939 281.467912 
L 200.208536 281.267233 
L 219.322348 281.101354 
L 223.63837 280.776662 
L 225.488094 280.408277 
L 228.570967 279.617047 
L 231.037265 278.617014 
L 231.65384 278.377978 
L 234.120138 276.792201 
L 237.203011 274.441921 
L 239.052735 272.870901 
L 240.902459 272.050975 
L 242.752182 270.971921 
L 243.985331 270.696737 
L 244.601906 270.367527 
L 246.45163 269.935501 
L 247.068204 270.058553 
L 248.301354 269.892914 
L 248.917928 270.03226 
L 249.534503 269.96886 
L 250.767652 270.231498 
L 251.384227 270.350944 
L 253.23395 271.26561 
L 256.316823 273.21905 
L 256.933398 273.533936 
L 258.166547 273.967644 
L 260.016271 274.701963 
L 261.24942 274.916149 
L 261.865994 275.132931 
L 263.099144 275.81428 
L 263.715718 276.073072 
L 266.182017 276.253419 
L 266.798591 276.022073 
L 267.415166 275.96271 
L 269.881464 276.487265 
L 271.731188 276.745721 
L 272.347762 276.570949 
L 273.580912 277.150877 
L 274.814061 277.362083 
L 275.430635 277.251817 
L 276.663785 276.837913 
L 277.280359 276.769658 
L 277.896934 276.514519 
L 279.130083 276.207756 
L 279.746657 276.009527 
L 280.979807 276.477796 
L 281.596381 276.086002 
L 282.212956 275.875469 
L 282.82953 275.792217 
L 283.446105 275.846677 
L 284.06268 276.065525 
L 285.295829 276.188481 
L 285.912403 276.364694 
L 287.145552 276.835077 
L 288.995276 277.274361 
L 290.845 277.582278 
L 292.694724 277.512821 
L 295.161022 277.549448 
L 299.477044 277.67024 
L 307.492514 277.609147 
L 309.342238 277.244127 
L 310.575387 276.741731 
L 312.42511 276.117053 
L 317.974282 274.692349 
L 319.207431 274.488594 
L 320.44058 274.239703 
L 324.140028 274.16592 
L 325.373177 274.328242 
L 325.989751 273.883671 
L 329.072624 274.189425 
L 329.689199 274.210623 
L 330.305773 274.768247 
L 330.922348 274.897259 
L 331.538923 274.770314 
L 334.005221 275.146678 
L 334.621796 275.253387 
L 336.471519 276.381421 
L 338.937818 276.855794 
L 339.554392 276.582966 
L 340.170967 276.464048 
L 340.787541 276.475873 
L 342.637265 276.8718 
L 345.720138 277.193512 
L 346.953287 277.245473 
L 348.803011 277.367947 
L 352.502459 277.929657 
L 355.585331 278.499779 
L 356.818481 278.645855 
L 363.600801 280.020232 
L 367.300249 280.432887 
L 372.232845 280.871882 
L 385.180912 281.444071 
L 391.963232 281.414702 
L 397.512403 281.082175 
L 406.761022 279.89819 
L 416.009641 279.566673 
L 419.092514 279.607722 
L 425.874834 279.524278 
L 432.657155 279.981442 
L 451.154392 280.819585 
L 457.320138 280.735997 
L 464.102459 280.200628 
L 465.335608 280.230862 
L 468.418481 279.876272 
L 470.268204 279.447515 
L 478.283674 278.264492 
L 480.749972 277.745994 
L 482.599696 277.414091 
L 486.915718 276.471547 
L 487.532293 276.677946 
L 489.998591 275.942763 
L 491.23174 275.454066 
L 491.848315 274.800933 
L 493.081464 274.072863 
L 494.314613 273.659872 
L 494.931188 273.17353 
L 495.547762 272.542123 
L 496.780912 270.597527 
L 497.397486 269.312698 
L 498.014061 269.284867 
L 498.630635 268.583379 
L 499.24721 266.299382 
L 499.863785 263.334133 
L 501.096934 254.870508 
L 501.713508 250.714208 
L 502.946657 247.181769 
L 504.796381 233.913421 
L 505.412956 235.641812 
L 506.02953 232.936653 
L 506.646105 228.394087 
L 507.879254 223.632913 
L 508.495829 223.290821 
L 509.112403 224.966098 
L 509.728978 220.516446 
L 510.345552 220.737506 
L 510.962127 220.649879 
L 511.578702 222.28502 
L 512.195276 221.919519 
L 512.811851 221.690673 
L 513.428425 221.003892 
L 515.278149 223.207665 
L 515.894724 223.482656 
L 516.511298 224.292392 
L 517.127873 225.735649 
L 518.977597 231.695276 
L 519.594171 233.539941 
L 520.210746 234.502962 
L 520.82732 238.250789 
L 522.06047 242.802775 
L 523.293619 247.01738 
L 523.910193 248.227081 
L 524.526768 248.997545 
L 525.143343 250.481708 
L 526.993066 255.665102 
L 528.226215 258.432267 
L 528.84279 259.048774 
L 529.459365 260.558364 
L 530.692514 262.478157 
L 531.925663 263.695404 
L 532.542238 264.182947 
L 533.158812 264.38925 
L 536.85826 267.534029 
L 537.474834 267.832333 
L 538.707983 268.99637 
L 539.941133 269.410755 
L 541.174282 269.121632 
L 541.790856 268.910907 
L 545.490304 265.009939 
L 546.106878 264.67174 
L 548.573177 259.777517 
L 549.189751 258.765804 
L 549.806326 258.211304 
L 550.422901 258.031197 
L 551.039475 257.526975 
L 551.65605 257.324565 
L 552.272624 257.311106 
L 554.122348 257.517025 
L 554.738923 257.607631 
L 555.355497 257.444588 
L 556.588646 258.176695 
L 557.205221 258.145788 
L 557.821796 258.299795 
L 558.43837 258.569114 
L 559.054945 258.580217 
L 559.671519 259.127315 
L 560.288094 259.200665 
L 560.904669 259.404517 
L 562.137818 260.192334 
L 563.370967 260.370807 
L 565.220691 261.171746 
L 565.837265 261.428952 
L 567.070414 261.503696 
L 567.686989 261.989989 
L 568.303564 264.716826 
L 568.920138 262.897301 
L 570.769862 261.535709 
L 572.619586 260.865319 
L 573.23616 261.442555 
L 573.852735 261.729082 
L 575.085884 263.236461 
L 575.702459 263.969818 
L 576.319033 264.268506 
L 576.935608 262.709936 
L 577.552182 264.67049 
L 578.168757 265.695229 
L 579.401906 267.053841 
L 580.018481 267.552103 
L 580.635055 267.631269 
L 583.717928 269.082217 
L 584.951077 269.425607 
L 588.650525 272.576443 
L 589.267099 272.756934 
L 589.883674 273.43886 
L 590.500249 273.76485 
L 591.116823 274.238549 
L 592.966547 274.900671 
L 593.583122 275.005217 
L 594.816271 275.550777 
L 595.432845 275.702139 
L 596.04942 276.285095 
L 596.665994 276.083839 
L 597.899144 276.028274 
L 599.748867 275.365959 
L 600.365442 274.773775 
L 600.982017 274.790646 
L 602.215166 274.509935 
L 604.06489 272.841292 
L 605.914613 270.840938 
L 606.531188 270.541145 
L 608.380912 267.376033 
L 610.230635 264.626028 
L 610.84721 264.236013 
L 611.463785 263.231558 
L 612.080359 261.280906 
L 613.313508 258.527055 
L 614.546657 255.995754 
L 615.163232 255.425392 
L 615.779807 253.07713 
L 616.396381 252.37718 
L 617.012956 251.216267 
L 618.246105 249.87419 
L 618.86268 249.458603 
L 619.479254 247.205418 
L 620.095829 246.674615 
L 621.328978 246.587133 
L 621.945552 246.775892 
L 622.562127 247.137211 
L 623.178702 247.741268 
L 623.795276 250.226809 
L 625.028425 252.521765 
L 625.645 253.824235 
L 625.645 253.824235 
" clip-path="url(#p92936dc21f)" style="fill: none; stroke: #1007e1; stroke-width: 1.5; stroke-linecap: square"/>
   </g>
   <g id="text_20">
    <!-- US -->
    <g style="fill: #7516fd" transform="translate(642.385 223.180818)scale(0.14 -0.14)">
     <defs>
      <path id="DejaVuSans-55" d="M 556 4666 
L 1191 4666 
L 1191 1831 
Q 1191 1081 1462 751 
Q 1734 422 2344 422 
Q 2950 422 3222 751 
Q 3494 1081 3494 1831 
L 3494 4666 
L 4128 4666 
L 4128 1753 
Q 4128 841 3676 375 
Q 3225 -91 2344 -91 
Q 1459 -91 1007 375 
Q 556 841 556 1753 
L 556 4666 
z
" transform="scale(0.015625)"/>
      <path id="DejaVuSans-53" d="M 3425 4513 
L 3425 3897 
Q 3066 4069 2747 4153 
Q 2428 4238 2131 4238 
Q 1616 4238 1336 4038 
Q 1056 3838 1056 3469 
Q 1056 3159 1242 3001 
Q 1428 2844 1947 2747 
L 2328 2669 
Q 3034 2534 3370 2195 
Q 3706 1856 3706 1288 
Q 3706 609 3251 259 
Q 2797 -91 1919 -91 
Q 1588 -91 1214 -16 
Q 841 59 441 206 
L 441 856 
Q 825 641 1194 531 
Q 1563 422 1919 422 
Q 2459 422 2753 634 
Q 3047 847 3047 1241 
Q 3047 1584 2836 1778 
Q 2625 1972 2144 2069 
L 1759 2144 
Q 1053 2284 737 2584 
Q 422 2884 422 3419 
Q 422 4038 858 4394 
Q 1294 4750 2059 4750 
Q 2388 4750 2728 4690 
Q 3069 4631 3425 4513 
z
" transform="scale(0.015625)"/>
     </defs>
     <use xlink:href="#DejaVuSans-55"/>
     <use xlink:href="#DejaVuSans-53" x="73.193359"/>
    </g>
   </g>
   <g id="text_21">
    <!-- Japan -->
    <g style="fill: #53a577" transform="translate(642.385 237.180818)scale(0.14 -0.14)">
     <defs>
      <path id="DejaVuSans-4a" d="M 628 4666 
L 1259 4666 
L 1259 325 
Q 1259 -519 939 -900 
Q 619 -1281 -91 -1281 
L -331 -1281 
L -331 -750 
L -134 -750 
Q 284 -750 456 -515 
Q 628 -281 628 325 
L 628 4666 
z
" transform="scale(0.015625)"/>
      <path id="DejaVuSans-61" d="M 2194 1759 
Q 1497 1759 1228 1600 
Q 959 1441 959 1056 
Q 959 750 1161 570 
Q 1363 391 1709 391 
Q 2188 391 2477 730 
Q 2766 1069 2766 1631 
L 2766 1759 
L 2194 1759 
z
M 3341 1997 
L 3341 0 
L 2766 0 
L 2766 531 
Q 2569 213 2275 61 
Q 1981 -91 1556 -91 
Q 1019 -91 701 211 
Q 384 513 384 1019 
Q 384 1609 779 1909 
Q 1175 2209 1959 2209 
L 2766 2209 
L 2766 2266 
Q 2766 2663 2505 2880 
Q 2244 3097 1772 3097 
Q 1472 3097 1187 3025 
Q 903 2953 641 2809 
L 641 3341 
Q 956 3463 1253 3523 
Q 1550 3584 1831 3584 
Q 2591 3584 2966 3190 
Q 3341 2797 3341 1997 
z
" transform="scale(0.015625)"/>
      <path id="DejaVuSans-70" d="M 1159 525 
L 1159 -1331 
L 581 -1331 
L 581 3500 
L 1159 3500 
L 1159 2969 
Q 1341 3281 1617 3432 
Q 1894 3584 2278 3584 
Q 2916 3584 3314 3078 
Q 3713 2572 3713 1747 
Q 3713 922 3314 415 
Q 2916 -91 2278 -91 
Q 1894 -91 1617 61 
Q 1341 213 1159 525 
z
M 3116 1747 
Q 3116 2381 2855 2742 
Q 2594 3103 2138 3103 
Q 1681 3103 1420 2742 
Q 1159 2381 1159 1747 
Q 1159 1113 1420 752 
Q 1681 391 2138 391 
Q 2594 391 2855 752 
Q 3116 1113 3116 1747 
z
" transform="scale(0.015625)"/>
      <path id="DejaVuSans-6e" d="M 3513 2113 
L 3513 0 
L 2938 0 
L 2938 2094 
Q 2938 2591 2744 2837 
Q 2550 3084 2163 3084 
Q 1697 3084 1428 2787 
Q 1159 2491 1159 1978 
L 1159 0 
L 581 0 
L 581 3500 
L 1159 3500 
L 1159 2956 
Q 1366 3272 1645 3428 
Q 1925 3584 2291 3584 
Q 2894 3584 3203 3211 
Q 3513 2838 3513 2113 
z
" transform="scale(0.015625)"/>
     </defs>
     <use xlink:href="#DejaVuSans-4a"/>
     <use xlink:href="#DejaVuSans-61" x="29.492188"/>
     <use xlink:href="#DejaVuSans-70" x="90.771484"/>
     <use xlink:href="#DejaVuSans-61" x="154.248047"/>
     <use xlink:href="#DejaVuSans-6e" x="215.527344"/>
    </g>
   </g>
   <g id="text_22">
    <!-- Germany -->
    <g style="fill: #d8b009" transform="translate(642.385 251.180818)scale(0.14 -0.14)">
     <defs>
      <path id="DejaVuSans-47" d="M 3809 666 
L 3809 1919 
L 2778 1919 
L 2778 2438 
L 4434 2438 
L 4434 434 
Q 4069 175 3628 42 
Q 3188 -91 2688 -91 
Q 1594 -91 976 548 
Q 359 1188 359 2328 
Q 359 3472 976 4111 
Q 1594 4750 2688 4750 
Q 3144 4750 3555 4637 
Q 3966 4525 4313 4306 
L 4313 3634 
Q 3963 3931 3569 4081 
Q 3175 4231 2741 4231 
Q 1884 4231 1454 3753 
Q 1025 3275 1025 2328 
Q 1025 1384 1454 906 
Q 1884 428 2741 428 
Q 3075 428 3337 486 
Q 3600 544 3809 666 
z
" transform="scale(0.015625)"/>
      <path id="DejaVuSans-65" d="M 3597 1894 
L 3597 1613 
L 953 1613 
Q 991 1019 1311 708 
Q 1631 397 2203 397 
Q 2534 397 2845 478 
Q 3156 559 3463 722 
L 3463 178 
Q 3153 47 2828 -22 
Q 2503 -91 2169 -91 
Q 1331 -91 842 396 
Q 353 884 353 1716 
Q 353 2575 817 3079 
Q 1281 3584 2069 3584 
Q 2775 3584 3186 3129 
Q 3597 2675 3597 1894 
z
M 3022 2063 
Q 3016 2534 2758 2815 
Q 2500 3097 2075 3097 
Q 1594 3097 1305 2825 
Q 1016 2553 972 2059 
L 3022 2063 
z
" transform="scale(0.015625)"/>
      <path id="DejaVuSans-72" d="M 2631 2963 
Q 2534 3019 2420 3045 
Q 2306 3072 2169 3072 
Q 1681 3072 1420 2755 
Q 1159 2438 1159 1844 
L 1159 0 
L 581 0 
L 581 3500 
L 1159 3500 
L 1159 2956 
Q 1341 3275 1631 3429 
Q 1922 3584 2338 3584 
Q 2397 3584 2469 3576 
Q 2541 3569 2628 3553 
L 2631 2963 
z
" transform="scale(0.015625)"/>
      <path id="DejaVuSans-6d" d="M 3328 2828 
Q 3544 3216 3844 3400 
Q 4144 3584 4550 3584 
Q 5097 3584 5394 3201 
Q 5691 2819 5691 2113 
L 5691 0 
L 5113 0 
L 5113 2094 
Q 5113 2597 4934 2840 
Q 4756 3084 4391 3084 
Q 3944 3084 3684 2787 
Q 3425 2491 3425 1978 
L 3425 0 
L 2847 0 
L 2847 2094 
Q 2847 2600 2669 2842 
Q 2491 3084 2119 3084 
Q 1678 3084 1418 2786 
Q 1159 2488 1159 1978 
L 1159 0 
L 581 0 
L 581 3500 
L 1159 3500 
L 1159 2956 
Q 1356 3278 1631 3431 
Q 1906 3584 2284 3584 
Q 2666 3584 2933 3390 
Q 3200 3197 3328 2828 
z
" transform="scale(0.015625)"/>
      <path id="DejaVuSans-79" d="M 2059 -325 
Q 1816 -950 1584 -1140 
Q 1353 -1331 966 -1331 
L 506 -1331 
L 506 -850 
L 844 -850 
Q 1081 -850 1212 -737 
Q 1344 -625 1503 -206 
L 1606 56 
L 191 3500 
L 800 3500 
L 1894 763 
L 2988 3500 
L 3597 3500 
L 2059 -325 
z
" transform="scale(0.015625)"/>
     </defs>
     <use xlink:href="#DejaVuSans-47"/>
     <use xlink:href="#DejaVuSans-65" x="77.490234"/>
     <use xlink:href="#DejaVuSans-72" x="139.013672"/>
     <use xlink:href="#DejaVuSans-6d" x="178.376953"/>
     <use xlink:href="#DejaVuSans-61" x="275.789062"/>
     <use xlink:href="#DejaVuSans-6e" x="337.068359"/>
     <use xlink:href="#DejaVuSans-79" x="400.447266"/>
    </g>
   </g>
   <g id="text_23">
    <!-- France -->
    <g style="fill: #0309a6" transform="translate(642.385 265.180818)scale(0.14 -0.14)">
     <defs>
      <path id="DejaVuSans-46" d="M 628 4666 
L 3309 4666 
L 3309 4134 
L 1259 4134 
L 1259 2759 
L 3109 2759 
L 3109 2228 
L 1259 2228 
L 1259 0 
L 628 0 
L 628 4666 
z
" transform="scale(0.015625)"/>
      <path id="DejaVuSans-63" d="M 3122 3366 
L 3122 2828 
Q 2878 2963 2633 3030 
Q 2388 3097 2138 3097 
Q 1578 3097 1268 2742 
Q 959 2388 959 1747 
Q 959 1106 1268 751 
Q 1578 397 2138 397 
Q 2388 397 2633 464 
Q 2878 531 3122 666 
L 3122 134 
Q 2881 22 2623 -34 
Q 2366 -91 2075 -91 
Q 1284 -91 818 406 
Q 353 903 353 1747 
Q 353 2603 823 3093 
Q 1294 3584 2113 3584 
Q 2378 3584 2631 3529 
Q 2884 3475 3122 3366 
z
" transform="scale(0.015625)"/>
     </defs>
     <use xlink:href="#DejaVuSans-46"/>
     <use xlink:href="#DejaVuSans-72" x="50.269531"/>
     <use xlink:href="#DejaVuSans-61" x="91.382812"/>
     <use xlink:href="#DejaVuSans-6e" x="152.662109"/>
     <use xlink:href="#DejaVuSans-63" x="216.041016"/>
     <use xlink:href="#DejaVuSans-65" x="271.021484"/>
    </g>
   </g>
   <g id="text_24">
    <!-- Italy -->
    <g style="fill: #1007e1" transform="translate(642.385 279.180818)scale(0.14 -0.14)">
     <defs>
      <path id="DejaVuSans-49" d="M 628 4666 
L 1259 4666 
L 1259 0 
L 628 0 
L 628 4666 
z
" transform="scale(0.015625)"/>
      <path id="DejaVuSans-74" d="M 1172 4494 
L 1172 3500 
L 2356 3500 
L 2356 3053 
L 1172 3053 
L 1172 1153 
Q 1172 725 1289 603 
Q 1406 481 1766 481 
L 2356 481 
L 2356 0 
L 1766 0 
Q 1100 0 847 248 
Q 594 497 594 1153 
L 594 3053 
L 172 3053 
L 172 3500 
L 594 3500 
L 594 4494 
L 1172 4494 
z
" transform="scale(0.015625)"/>
      <path id="DejaVuSans-6c" d="M 603 4863 
L 1178 4863 
L 1178 0 
L 603 0 
L 603 4863 
z
" transform="scale(0.015625)"/>
     </defs>
     <use xlink:href="#DejaVuSans-49"/>
     <use xlink:href="#DejaVuSans-74" x="29.492188"/>
     <use xlink:href="#DejaVuSans-61" x="68.701172"/>
     <use xlink:href="#DejaVuSans-6c" x="129.980469"/>
     <use xlink:href="#DejaVuSans-79" x="157.763672"/>
    </g>
   </g>
  </g>
 </g>
 <defs>
  <clipPath id="p92936dc21f">
   <rect x="67.645" y="9.893731" width="558" height="271.8"/>
  </clipPath>
 </defs>
</svg>
