<?xml version="1.0" encoding="utf-8" standalone="no"?>
<!DOCTYPE svg PUBLIC "-//W3C//DTD SVG 1.1//EN"
  "http://www.w3.org/Graphics/SVG/1.1/DTD/svg11.dtd">
<svg xmlns:xlink="http://www.w3.org/1999/xlink" width="744.139688pt" height="307.051574pt" viewBox="0 0 744.139688 307.051574" xmlns="http://www.w3.org/2000/svg" version="1.1">
 <metadata>
  <rdf:RDF xmlns:dc="http://purl.org/dc/elements/1.1/" xmlns:cc="http://creativecommons.org/ns#" xmlns:rdf="http://www.w3.org/1999/02/22-rdf-syntax-ns#">
   <cc:Work>
    <dc:type rdf:resource="http://purl.org/dc/dcmitype/StillImage"/>
    <dc:date>2022-06-29T10:15:10.385316</dc:date>
    <dc:format>image/svg+xml</dc:format>
    <dc:creator>
     <cc:Agent>
      <dc:title>Matplotlib v3.5.1, https://matplotlib.org/</dc:title>
     </cc:Agent>
    </dc:creator>
   </cc:Work>
  </rdf:RDF>
 </metadata>
 <defs>
  <style type="text/css">*{stroke-linejoin: round; stroke-linecap: butt}</style>
 </defs>
 <g id="figure_1">
  <g id="patch_1">
   <path d="M 0 307.051574 
L 744.139688 307.051574 
L 744.139688 0 
L 0 0 
L 0 307.051574 
z
" style="fill: none"/>
  </g>
  <g id="axes_1">
   <g id="patch_2">
    <path d="M 49.83 279 
L 607.83 279 
L 607.83 7.2 
L 49.83 7.2 
L 49.83 279 
z
" style="fill: none"/>
   </g>
   <g id="matplotlib.axis_1">
    <g id="xtick_1">
     <g id="line2d_1">
      <defs>
       <path id="m8bf4166fdd" d="M 0 0 
L 0 3.5 
" style="stroke: #b0b0b0; stroke-width: 0.4"/>
      </defs>
      <g>
       <use xlink:href="#m8bf4166fdd" x="90.319796" y="279" style="fill: #b0b0b0; stroke: #b0b0b0; stroke-width: 0.4"/>
      </g>
     </g>
     <g id="text_1">
      <!-- 2020-04 -->
      <g style="fill: #b0b0b0" transform="translate(61.071827 296.637812)scale(0.14 -0.14)">
       <defs>
        <path id="DejaVuSans-32" d="M 1228 531 
L 3431 531 
L 3431 0 
L 469 0 
L 469 531 
Q 828 903 1448 1529 
Q 2069 2156 2228 2338 
Q 2531 2678 2651 2914 
Q 2772 3150 2772 3378 
Q 2772 3750 2511 3984 
Q 2250 4219 1831 4219 
Q 1534 4219 1204 4116 
Q 875 4013 500 3803 
L 500 4441 
Q 881 4594 1212 4672 
Q 1544 4750 1819 4750 
Q 2544 4750 2975 4387 
Q 3406 4025 3406 3419 
Q 3406 3131 3298 2873 
Q 3191 2616 2906 2266 
Q 2828 2175 2409 1742 
Q 1991 1309 1228 531 
z
" transform="scale(0.015625)"/>
        <path id="DejaVuSans-30" d="M 2034 4250 
Q 1547 4250 1301 3770 
Q 1056 3291 1056 2328 
Q 1056 1369 1301 889 
Q 1547 409 2034 409 
Q 2525 409 2770 889 
Q 3016 1369 3016 2328 
Q 3016 3291 2770 3770 
Q 2525 4250 2034 4250 
z
M 2034 4750 
Q 2819 4750 3233 4129 
Q 3647 3509 3647 2328 
Q 3647 1150 3233 529 
Q 2819 -91 2034 -91 
Q 1250 -91 836 529 
Q 422 1150 422 2328 
Q 422 3509 836 4129 
Q 1250 4750 2034 4750 
z
" transform="scale(0.015625)"/>
        <path id="DejaVuSans-2d" d="M 313 2009 
L 1997 2009 
L 1997 1497 
L 313 1497 
L 313 2009 
z
" transform="scale(0.015625)"/>
        <path id="DejaVuSans-34" d="M 2419 4116 
L 825 1625 
L 2419 1625 
L 2419 4116 
z
M 2253 4666 
L 3047 4666 
L 3047 1625 
L 3713 1625 
L 3713 1100 
L 3047 1100 
L 3047 0 
L 2419 0 
L 2419 1100 
L 313 1100 
L 313 1709 
L 2253 4666 
z
" transform="scale(0.015625)"/>
       </defs>
       <use xlink:href="#DejaVuSans-32"/>
       <use xlink:href="#DejaVuSans-30" x="63.623047"/>
       <use xlink:href="#DejaVuSans-32" x="127.246094"/>
       <use xlink:href="#DejaVuSans-30" x="190.869141"/>
       <use xlink:href="#DejaVuSans-2d" x="254.492188"/>
       <use xlink:href="#DejaVuSans-30" x="290.576172"/>
       <use xlink:href="#DejaVuSans-34" x="354.199219"/>
      </g>
     </g>
    </g>
    <g id="xtick_2">
     <g id="line2d_2">
      <g>
       <use xlink:href="#m8bf4166fdd" x="147.891224" y="279" style="fill: #b0b0b0; stroke: #b0b0b0; stroke-width: 0.4"/>
      </g>
     </g>
     <g id="text_2">
      <!-- 2020-07 -->
      <g style="fill: #b0b0b0" transform="translate(118.643256 296.637812)scale(0.14 -0.14)">
       <defs>
        <path id="DejaVuSans-37" d="M 525 4666 
L 3525 4666 
L 3525 4397 
L 1831 0 
L 1172 0 
L 2766 4134 
L 525 4134 
L 525 4666 
z
" transform="scale(0.015625)"/>
       </defs>
       <use xlink:href="#DejaVuSans-32"/>
       <use xlink:href="#DejaVuSans-30" x="63.623047"/>
       <use xlink:href="#DejaVuSans-32" x="127.246094"/>
       <use xlink:href="#DejaVuSans-30" x="190.869141"/>
       <use xlink:href="#DejaVuSans-2d" x="254.492188"/>
       <use xlink:href="#DejaVuSans-30" x="290.576172"/>
       <use xlink:href="#DejaVuSans-37" x="354.199219"/>
      </g>
     </g>
    </g>
    <g id="xtick_3">
     <g id="line2d_3">
      <g>
       <use xlink:href="#m8bf4166fdd" x="206.095306" y="279" style="fill: #b0b0b0; stroke: #b0b0b0; stroke-width: 0.4"/>
      </g>
     </g>
     <g id="text_3">
      <!-- 2020-10 -->
      <g style="fill: #b0b0b0" transform="translate(176.847337 296.637812)scale(0.14 -0.14)">
       <defs>
        <path id="DejaVuSans-31" d="M 794 531 
L 1825 531 
L 1825 4091 
L 703 3866 
L 703 4441 
L 1819 4666 
L 2450 4666 
L 2450 531 
L 3481 531 
L 3481 0 
L 794 0 
L 794 531 
z
" transform="scale(0.015625)"/>
       </defs>
       <use xlink:href="#DejaVuSans-32"/>
       <use xlink:href="#DejaVuSans-30" x="63.623047"/>
       <use xlink:href="#DejaVuSans-32" x="127.246094"/>
       <use xlink:href="#DejaVuSans-30" x="190.869141"/>
       <use xlink:href="#DejaVuSans-2d" x="254.492188"/>
       <use xlink:href="#DejaVuSans-31" x="290.576172"/>
       <use xlink:href="#DejaVuSans-30" x="354.199219"/>
      </g>
     </g>
    </g>
    <g id="xtick_4">
     <g id="line2d_4">
      <g>
       <use xlink:href="#m8bf4166fdd" x="264.299388" y="279" style="fill: #b0b0b0; stroke: #b0b0b0; stroke-width: 0.4"/>
      </g>
     </g>
     <g id="text_4">
      <!-- 2021-01 -->
      <g style="fill: #b0b0b0" transform="translate(235.051419 296.637812)scale(0.14 -0.14)">
       <use xlink:href="#DejaVuSans-32"/>
       <use xlink:href="#DejaVuSans-30" x="63.623047"/>
       <use xlink:href="#DejaVuSans-32" x="127.246094"/>
       <use xlink:href="#DejaVuSans-31" x="190.869141"/>
       <use xlink:href="#DejaVuSans-2d" x="254.492188"/>
       <use xlink:href="#DejaVuSans-30" x="290.576172"/>
       <use xlink:href="#DejaVuSans-31" x="354.199219"/>
      </g>
     </g>
    </g>
    <g id="xtick_5">
     <g id="line2d_5">
      <g>
       <use xlink:href="#m8bf4166fdd" x="321.238163" y="279" style="fill: #b0b0b0; stroke: #b0b0b0; stroke-width: 0.4"/>
      </g>
     </g>
     <g id="text_5">
      <!-- 2021-04 -->
      <g style="fill: #b0b0b0" transform="translate(291.990195 296.637812)scale(0.14 -0.14)">
       <use xlink:href="#DejaVuSans-32"/>
       <use xlink:href="#DejaVuSans-30" x="63.623047"/>
       <use xlink:href="#DejaVuSans-32" x="127.246094"/>
       <use xlink:href="#DejaVuSans-31" x="190.869141"/>
       <use xlink:href="#DejaVuSans-2d" x="254.492188"/>
       <use xlink:href="#DejaVuSans-30" x="290.576172"/>
       <use xlink:href="#DejaVuSans-34" x="354.199219"/>
      </g>
     </g>
    </g>
    <g id="xtick_6">
     <g id="line2d_6">
      <g>
       <use xlink:href="#m8bf4166fdd" x="378.809592" y="279" style="fill: #b0b0b0; stroke: #b0b0b0; stroke-width: 0.4"/>
      </g>
     </g>
     <g id="text_6">
      <!-- 2021-07 -->
      <g style="fill: #b0b0b0" transform="translate(349.561623 296.637812)scale(0.14 -0.14)">
       <use xlink:href="#DejaVuSans-32"/>
       <use xlink:href="#DejaVuSans-30" x="63.623047"/>
       <use xlink:href="#DejaVuSans-32" x="127.246094"/>
       <use xlink:href="#DejaVuSans-31" x="190.869141"/>
       <use xlink:href="#DejaVuSans-2d" x="254.492188"/>
       <use xlink:href="#DejaVuSans-30" x="290.576172"/>
       <use xlink:href="#DejaVuSans-37" x="354.199219"/>
      </g>
     </g>
    </g>
    <g id="xtick_7">
     <g id="line2d_7">
      <g>
       <use xlink:href="#m8bf4166fdd" x="437.013673" y="279" style="fill: #b0b0b0; stroke: #b0b0b0; stroke-width: 0.4"/>
      </g>
     </g>
     <g id="text_7">
      <!-- 2021-10 -->
      <g style="fill: #b0b0b0" transform="translate(407.765705 296.637812)scale(0.14 -0.14)">
       <use xlink:href="#DejaVuSans-32"/>
       <use xlink:href="#DejaVuSans-30" x="63.623047"/>
       <use xlink:href="#DejaVuSans-32" x="127.246094"/>
       <use xlink:href="#DejaVuSans-31" x="190.869141"/>
       <use xlink:href="#DejaVuSans-2d" x="254.492188"/>
       <use xlink:href="#DejaVuSans-31" x="290.576172"/>
       <use xlink:href="#DejaVuSans-30" x="354.199219"/>
      </g>
     </g>
    </g>
    <g id="xtick_8">
     <g id="line2d_8">
      <g>
       <use xlink:href="#m8bf4166fdd" x="495.217755" y="279" style="fill: #b0b0b0; stroke: #b0b0b0; stroke-width: 0.4"/>
      </g>
     </g>
     <g id="text_8">
      <!-- 2022-01 -->
      <g style="fill: #b0b0b0" transform="translate(465.969786 296.637812)scale(0.14 -0.14)">
       <use xlink:href="#DejaVuSans-32"/>
       <use xlink:href="#DejaVuSans-30" x="63.623047"/>
       <use xlink:href="#DejaVuSans-32" x="127.246094"/>
       <use xlink:href="#DejaVuSans-32" x="190.869141"/>
       <use xlink:href="#DejaVuSans-2d" x="254.492188"/>
       <use xlink:href="#DejaVuSans-30" x="290.576172"/>
       <use xlink:href="#DejaVuSans-31" x="354.199219"/>
      </g>
     </g>
    </g>
    <g id="xtick_9">
     <g id="line2d_9">
      <g>
       <use xlink:href="#m8bf4166fdd" x="552.156531" y="279" style="fill: #b0b0b0; stroke: #b0b0b0; stroke-width: 0.4"/>
      </g>
     </g>
     <g id="text_9">
      <!-- 2022-04 -->
      <g style="fill: #b0b0b0" transform="translate(522.908562 296.637812)scale(0.14 -0.14)">
       <use xlink:href="#DejaVuSans-32"/>
       <use xlink:href="#DejaVuSans-30" x="63.623047"/>
       <use xlink:href="#DejaVuSans-32" x="127.246094"/>
       <use xlink:href="#DejaVuSans-32" x="190.869141"/>
       <use xlink:href="#DejaVuSans-2d" x="254.492188"/>
       <use xlink:href="#DejaVuSans-30" x="290.576172"/>
       <use xlink:href="#DejaVuSans-34" x="354.199219"/>
      </g>
     </g>
    </g>
   </g>
   <g id="matplotlib.axis_2">
    <g id="ytick_1">
     <g id="line2d_10">
      <path d="M 49.83 279 
L 607.83 279 
" clip-path="url(#p6ca1d7aad8)" style="fill: none; stroke: #b0b0b0; stroke-width: 0.3; stroke-linecap: square"/>
     </g>
     <g id="line2d_11">
      <defs>
       <path id="ma23913a779" d="M 0 0 
L -3.5 0 
" style="stroke: #b0b0b0; stroke-width: 0.3"/>
      </defs>
      <g>
       <use xlink:href="#ma23913a779" x="49.83" y="279" style="fill: #b0b0b0; stroke: #b0b0b0; stroke-width: 0.3"/>
      </g>
     </g>
     <g id="text_10">
      <!-- 0 -->
      <g style="fill: #b0b0b0" transform="translate(33.9225 284.318906)scale(0.14 -0.14)">
       <use xlink:href="#DejaVuSans-30"/>
      </g>
     </g>
    </g>
    <g id="ytick_2">
     <g id="line2d_12">
      <path d="M 49.83 238.86584 
L 607.83 238.86584 
" clip-path="url(#p6ca1d7aad8)" style="fill: none; stroke: #b0b0b0; stroke-width: 0.3; stroke-linecap: square"/>
     </g>
     <g id="line2d_13">
      <g>
       <use xlink:href="#ma23913a779" x="49.83" y="238.86584" style="fill: #b0b0b0; stroke: #b0b0b0; stroke-width: 0.3"/>
      </g>
     </g>
     <g id="text_11">
      <!-- 500 -->
      <g style="fill: #b0b0b0" transform="translate(16.1075 244.184746)scale(0.14 -0.14)">
       <defs>
        <path id="DejaVuSans-35" d="M 691 4666 
L 3169 4666 
L 3169 4134 
L 1269 4134 
L 1269 2991 
Q 1406 3038 1543 3061 
Q 1681 3084 1819 3084 
Q 2600 3084 3056 2656 
Q 3513 2228 3513 1497 
Q 3513 744 3044 326 
Q 2575 -91 1722 -91 
Q 1428 -91 1123 -41 
Q 819 9 494 109 
L 494 744 
Q 775 591 1075 516 
Q 1375 441 1709 441 
Q 2250 441 2565 725 
Q 2881 1009 2881 1497 
Q 2881 1984 2565 2268 
Q 2250 2553 1709 2553 
Q 1456 2553 1204 2497 
Q 953 2441 691 2322 
L 691 4666 
z
" transform="scale(0.015625)"/>
       </defs>
       <use xlink:href="#DejaVuSans-35"/>
       <use xlink:href="#DejaVuSans-30" x="63.623047"/>
       <use xlink:href="#DejaVuSans-30" x="127.246094"/>
      </g>
     </g>
    </g>
    <g id="ytick_3">
     <g id="line2d_14">
      <path d="M 49.83 198.73168 
L 607.83 198.73168 
" clip-path="url(#p6ca1d7aad8)" style="fill: none; stroke: #b0b0b0; stroke-width: 0.3; stroke-linecap: square"/>
     </g>
     <g id="line2d_15">
      <g>
       <use xlink:href="#ma23913a779" x="49.83" y="198.73168" style="fill: #b0b0b0; stroke: #b0b0b0; stroke-width: 0.3"/>
      </g>
     </g>
     <g id="text_12">
      <!-- 1000 -->
      <g style="fill: #b0b0b0" transform="translate(7.2 204.050586)scale(0.14 -0.14)">
       <use xlink:href="#DejaVuSans-31"/>
       <use xlink:href="#DejaVuSans-30" x="63.623047"/>
       <use xlink:href="#DejaVuSans-30" x="127.246094"/>
       <use xlink:href="#DejaVuSans-30" x="190.869141"/>
      </g>
     </g>
    </g>
    <g id="ytick_4">
     <g id="line2d_16">
      <path d="M 49.83 158.597519 
L 607.83 158.597519 
" clip-path="url(#p6ca1d7aad8)" style="fill: none; stroke: #b0b0b0; stroke-width: 0.3; stroke-linecap: square"/>
     </g>
     <g id="line2d_17">
      <g>
       <use xlink:href="#ma23913a779" x="49.83" y="158.597519" style="fill: #b0b0b0; stroke: #b0b0b0; stroke-width: 0.3"/>
      </g>
     </g>
     <g id="text_13">
      <!-- 1500 -->
      <g style="fill: #b0b0b0" transform="translate(7.2 163.916426)scale(0.14 -0.14)">
       <use xlink:href="#DejaVuSans-31"/>
       <use xlink:href="#DejaVuSans-35" x="63.623047"/>
       <use xlink:href="#DejaVuSans-30" x="127.246094"/>
       <use xlink:href="#DejaVuSans-30" x="190.869141"/>
      </g>
     </g>
    </g>
    <g id="ytick_5">
     <g id="line2d_18">
      <path d="M 49.83 118.463359 
L 607.83 118.463359 
" clip-path="url(#p6ca1d7aad8)" style="fill: none; stroke: #b0b0b0; stroke-width: 0.3; stroke-linecap: square"/>
     </g>
     <g id="line2d_19">
      <g>
       <use xlink:href="#ma23913a779" x="49.83" y="118.463359" style="fill: #b0b0b0; stroke: #b0b0b0; stroke-width: 0.3"/>
      </g>
     </g>
     <g id="text_14">
      <!-- 2000 -->
      <g style="fill: #b0b0b0" transform="translate(7.2 123.782265)scale(0.14 -0.14)">
       <use xlink:href="#DejaVuSans-32"/>
       <use xlink:href="#DejaVuSans-30" x="63.623047"/>
       <use xlink:href="#DejaVuSans-30" x="127.246094"/>
       <use xlink:href="#DejaVuSans-30" x="190.869141"/>
      </g>
     </g>
    </g>
    <g id="ytick_6">
     <g id="line2d_20">
      <path d="M 49.83 78.329199 
L 607.83 78.329199 
" clip-path="url(#p6ca1d7aad8)" style="fill: none; stroke: #b0b0b0; stroke-width: 0.3; stroke-linecap: square"/>
     </g>
     <g id="line2d_21">
      <g>
       <use xlink:href="#ma23913a779" x="49.83" y="78.329199" style="fill: #b0b0b0; stroke: #b0b0b0; stroke-width: 0.3"/>
      </g>
     </g>
     <g id="text_15">
      <!-- 2500 -->
      <g style="fill: #b0b0b0" transform="translate(7.2 83.648105)scale(0.14 -0.14)">
       <use xlink:href="#DejaVuSans-32"/>
       <use xlink:href="#DejaVuSans-35" x="63.623047"/>
       <use xlink:href="#DejaVuSans-30" x="127.246094"/>
       <use xlink:href="#DejaVuSans-30" x="190.869141"/>
      </g>
     </g>
    </g>
    <g id="ytick_7">
     <g id="line2d_22">
      <path d="M 49.83 38.195039 
L 607.83 38.195039 
" clip-path="url(#p6ca1d7aad8)" style="fill: none; stroke: #b0b0b0; stroke-width: 0.3; stroke-linecap: square"/>
     </g>
     <g id="line2d_23">
      <g>
       <use xlink:href="#ma23913a779" x="49.83" y="38.195039" style="fill: #b0b0b0; stroke: #b0b0b0; stroke-width: 0.3"/>
      </g>
     </g>
     <g id="text_16">
      <!-- 3000 -->
      <g style="fill: #b0b0b0" transform="translate(7.2 43.513945)scale(0.14 -0.14)">
       <defs>
        <path id="DejaVuSans-33" d="M 2597 2516 
Q 3050 2419 3304 2112 
Q 3559 1806 3559 1356 
Q 3559 666 3084 287 
Q 2609 -91 1734 -91 
Q 1441 -91 1130 -33 
Q 819 25 488 141 
L 488 750 
Q 750 597 1062 519 
Q 1375 441 1716 441 
Q 2309 441 2620 675 
Q 2931 909 2931 1356 
Q 2931 1769 2642 2001 
Q 2353 2234 1838 2234 
L 1294 2234 
L 1294 2753 
L 1863 2753 
Q 2328 2753 2575 2939 
Q 2822 3125 2822 3475 
Q 2822 3834 2567 4026 
Q 2313 4219 1838 4219 
Q 1578 4219 1281 4162 
Q 984 4106 628 3988 
L 628 4550 
Q 988 4650 1302 4700 
Q 1616 4750 1894 4750 
Q 2613 4750 3031 4423 
Q 3450 4097 3450 3541 
Q 3450 3153 3228 2886 
Q 3006 2619 2597 2516 
z
" transform="scale(0.015625)"/>
       </defs>
       <use xlink:href="#DejaVuSans-33"/>
       <use xlink:href="#DejaVuSans-30" x="63.623047"/>
       <use xlink:href="#DejaVuSans-30" x="127.246094"/>
       <use xlink:href="#DejaVuSans-30" x="190.869141"/>
      </g>
     </g>
    </g>
   </g>
   <g id="line2d_24">
    <path d="M 49.83 279 
L 71.972857 278.919732 
L 75.136122 278.770662 
L 76.401429 278.759195 
L 77.666735 278.644526 
L 79.564694 278.438122 
L 80.83 277.784508 
L 82.095306 276.442881 
L 83.993265 272.888141 
L 84.625918 271.053436 
L 85.258571 268.691254 
L 85.891224 265.56079 
L 86.523878 261.604708 
L 87.156531 256.834477 
L 87.789184 249.839666 
L 88.421837 244.943298 
L 89.05449 238.980509 
L 90.319796 218.35155 
L 91.585102 195.452145 
L 92.217755 185.269536 
L 93.483061 161.292241 
L 94.115714 144.126288 
L 94.748367 134.230351 
L 96.646327 111.38828 
L 97.911633 105.322288 
L 98.544286 106.560714 
L 99.176939 101.584078 
L 99.809592 101.824883 
L 100.442245 102.83397 
L 101.074898 105.070016 
L 101.707551 104.118264 
L 102.340204 101.136869 
L 102.972857 100.976332 
L 103.60551 102.489963 
L 104.238163 99.772307 
L 104.870816 98.866422 
L 105.503469 101.331806 
L 106.136122 107.913808 
L 106.768776 116.663055 
L 107.401429 119.369244 
L 108.034082 120.183395 
L 109.299388 125.870978 
L 109.932041 125.721909 
L 110.564694 127.957955 
L 111.197347 129.414251 
L 111.83 129.666523 
L 112.462653 130.560942 
L 113.095306 133.622605 
L 113.727959 135.170637 
L 114.360612 138.255234 
L 114.993265 140.640349 
L 115.625918 144.355626 
L 116.891224 158.287913 
L 117.523878 160.019415 
L 118.156531 161.200506 
L 118.789184 164.365371 
L 119.421837 166.303278 
L 120.05449 164.124567 
L 120.687143 165.7414 
L 121.319796 168.413188 
L 121.952449 175.086926 
L 122.585102 180.419036 
L 123.217755 181.932667 
L 123.850408 184.111378 
L 124.483061 191.220858 
L 125.115714 200.245311 
L 125.748367 200.566384 
L 127.646327 203.94912 
L 128.27898 204.155525 
L 128.911633 202.13735 
L 129.544286 198.490875 
L 130.176939 203.811518 
L 130.809592 204.900873 
L 131.442245 207.664397 
L 132.074898 211.322339 
L 132.707551 213.225845 
L 133.340204 216.24164 
L 133.972857 216.998456 
L 134.60551 218.603822 
L 135.238163 220.633464 
L 135.870816 221.550816 
L 136.503469 220.587597 
L 138.401429 224.486344 
L 139.666735 227.249867 
L 140.932041 230.94221 
L 142.197347 231.584356 
L 142.83 232.123301 
L 143.462653 232.192102 
L 144.095306 233.877737 
L 144.727959 233.808936 
L 145.360612 234.657486 
L 145.993265 234.577218 
L 146.625918 234.68042 
L 147.258571 236.744463 
L 147.891224 237.191672 
L 148.523878 235.01296 
L 149.156531 234.53135 
L 149.789184 236.641261 
L 151.05449 236.60686 
L 151.687143 229.784053 
L 152.319796 228.362157 
L 152.952449 225.002354 
L 153.585102 223.328186 
L 154.217755 218.328617 
L 154.850408 216.53978 
L 155.483061 215.72563 
L 156.115714 218.672624 
L 156.748367 217.170459 
L 157.38102 217.847007 
L 158.013673 216.757651 
L 158.646327 215.255487 
L 159.27898 215.221086 
L 159.911633 214.039995 
L 160.544286 211.87275 
L 161.176939 208.742286 
L 161.809592 207.480926 
L 162.442245 205.290748 
L 163.074898 204.327528 
L 163.707551 203.593646 
L 164.340204 197.080446 
L 164.972857 195.520947 
L 166.238163 190.383774 
L 166.870816 189.477889 
L 167.503469 187.528515 
L 168.136122 188.239463 
L 168.768776 194.523326 
L 169.401429 194.110518 
L 170.034082 194.706797 
L 170.666735 196.369498 
L 171.299388 195.073738 
L 171.932041 195.486546 
L 172.564694 194.488925 
L 173.197347 194.787065 
L 173.83 196.851107 
L 174.462653 195.543881 
L 175.095306 196.98871 
L 175.727959 196.782306 
L 176.360612 197.309784 
L 176.993265 196.828174 
L 177.625918 197.642324 
L 178.258571 196.094292 
L 178.891224 205.703557 
L 179.523878 205.199013 
L 180.156531 208.203341 
L 181.421837 210.347652 
L 182.05449 210.703126 
L 182.687143 210.748994 
L 183.319796 205.153145 
L 183.952449 204.866473 
L 184.585102 206.391571 
L 185.217755 206.403038 
L 185.850408 207.412125 
L 186.483061 206.724111 
L 187.115714 208.375345 
L 187.748367 209.61377 
L 188.38102 210.565523 
L 189.013673 210.267384 
L 189.646327 212.147956 
L 190.27898 211.769548 
L 190.911633 213.695988 
L 191.544286 220.564663 
L 192.176939 220.209189 
L 192.809592 221.952158 
L 193.442245 219.842248 
L 194.707551 221.436147 
L 195.340204 220.335325 
L 195.972857 212.079155 
L 196.60551 213.867991 
L 197.238163 214.017061 
L 197.870816 216.092571 
L 198.503469 216.964055 
L 199.136122 218.16808 
L 199.768776 218.328617 
L 200.401429 220.232123 
L 201.034082 218.764359 
L 201.666735 218.615289 
L 202.299388 219.31477 
L 202.932041 218.110745 
L 203.564694 217.68647 
L 204.197347 218.443286 
L 205.462653 221.917757 
L 206.095306 221.975092 
L 206.727959 222.53697 
L 207.360612 223.947399 
L 207.993265 223.282319 
L 208.625918 221.826022 
L 209.258571 223.878598 
L 209.891224 223.763929 
L 210.523878 222.961245 
L 211.156531 221.550816 
L 211.789184 221.355879 
L 212.421837 220.266523 
L 213.05449 220.885736 
L 214.319796 218.924896 
L 214.952449 220.151854 
L 215.585102 220.346792 
L 216.217755 218.936362 
L 216.850408 218.993697 
L 217.483061 218.076345 
L 218.115714 216.321909 
L 218.748367 214.200532 
L 219.38102 214.303734 
L 220.013673 214.659208 
L 220.646327 212.423162 
L 221.27898 212.618099 
L 221.911633 212.491963 
L 222.544286 211.746614 
L 223.176939 213.638653 
L 223.809592 211.551677 
L 224.442245 210.382053 
L 225.074898 210.806328 
L 226.340204 209.395899 
L 226.972857 202.962967 
L 227.60551 201.564005 
L 228.238163 199.706366 
L 228.870816 197.378585 
L 229.503469 195.635616 
L 230.136122 194.890267 
L 230.768776 192.379015 
L 231.401429 194.293988 
L 232.034082 191.438729 
L 232.666735 190.957119 
L 233.299388 191.484597 
L 233.932041 187.998658 
L 234.564694 185.567675 
L 235.197347 184.925528 
L 235.83 181.43959 
L 236.462653 175.453867 
L 237.727959 157.622833 
L 238.993265 151.132565 
L 239.625918 148.174105 
L 240.258571 143.277737 
L 240.891224 139.8606 
L 241.523878 146.855411 
L 242.789184 153.873155 
L 243.421837 153.59795 
L 244.05449 150.777092 
L 244.687143 145.536717 
L 245.319796 138.335502 
L 245.952449 120.75674 
L 247.217755 97.685331 
L 247.850408 93.58018 
L 248.483061 91.000127 
L 249.115714 91.378534 
L 249.748367 87.537122 
L 250.38102 86.883508 
L 251.013673 78.203063 
L 251.646327 77.239843 
L 252.27898 74.476319 
L 252.911633 73.524567 
L 253.544286 68.708467 
L 254.176939 61.908594 
L 254.809592 57.608505 
L 255.442245 62.631009 
L 256.074898 58.915732 
L 256.707551 58.044248 
L 257.340204 55.922871 
L 257.972857 52.413998 
L 259.238163 61.346716 
L 259.870816 76.505961 
L 260.503469 86.241362 
L 261.136122 89.669966 
L 261.768776 89.108088 
L 262.401429 85.496013 
L 263.034082 79.521757 
L 263.666735 75.863815 
L 264.932041 60.5899 
L 265.564694 60.326161 
L 266.197347 59.615213 
L 267.462653 59.007467 
L 268.095306 50.865966 
L 268.727959 29.457259 
L 269.993265 14.928693 
L 270.625918 15.903379 
L 271.258571 7.704544 
L 271.891224 7.2 
L 272.523878 9.447513 
L 273.156531 13.243058 
L 273.789184 9.034704 
L 274.421837 9.825921 
L 275.05449 12.727047 
L 275.687143 34.238957 
L 276.319796 29.010049 
L 276.952449 25.707581 
L 277.585102 26.498798 
L 278.217755 26.968941 
L 278.850408 28.803645 
L 279.483061 27.404683 
L 280.115714 11.270751 
L 280.748367 16.052449 
L 281.38102 19.595722 
L 282.013673 21.636831 
L 282.646327 30.328743 
L 283.27898 29.938868 
L 283.911633 30.065004 
L 284.544286 35.064574 
L 285.176939 37.564359 
L 285.809592 37.736362 
L 287.074898 39.330262 
L 287.707551 44.283964 
L 288.340204 48.182711 
L 289.60551 58.250652 
L 290.870816 74.155246 
L 291.503469 79.189217 
L 292.136122 82.984761 
L 292.768776 87.743526 
L 293.401429 103.372915 
L 294.034082 113.64726 
L 294.666735 120.298064 
L 295.299388 123.038653 
L 295.932041 127.728617 
L 296.564694 126.983268 
L 297.197347 124.185344 
L 297.83 117.293735 
L 298.462653 108.64769 
L 299.095306 110.436527 
L 300.360612 119.885255 
L 300.993265 121.42182 
L 301.625918 120.114593 
L 302.258571 123.852803 
L 302.891224 131.283357 
L 303.523878 136.856271 
L 304.156531 141.30543 
L 304.789184 141.213694 
L 305.421837 145.467915 
L 306.05449 152.33659 
L 306.687143 154.274497 
L 307.319796 165.489128 
L 307.952449 169.514011 
L 308.585102 172.805012 
L 309.217755 178.836603 
L 309.850408 180.992381 
L 310.483061 181.301987 
L 311.115714 187.035439 
L 311.748367 190.980053 
L 312.38102 190.074168 
L 313.013673 194.809999 
L 313.646327 197.367118 
L 314.27898 194.443058 
L 314.911633 196.403898 
L 315.544286 200.325579 
L 316.176939 197.32125 
L 316.809592 200.623719 
L 317.442245 198.995418 
L 318.074898 198.559676 
L 318.707551 202.573092 
L 319.340204 201.65574 
L 319.972857 201.816276 
L 320.60551 206.299835 
L 321.870816 211.849816 
L 322.503469 212.331426 
L 323.136122 213.604253 
L 323.768776 215.565093 
L 324.401429 216.333376 
L 325.034082 198.892216 
L 325.666735 200.073307 
L 326.299388 199.694899 
L 326.932041 199.821035 
L 327.564694 200.21091 
L 328.197347 199.970105 
L 328.83 199.522896 
L 329.462653 218.592355 
L 330.095306 219.750513 
L 330.727959 220.518795 
L 331.360612 221.023339 
L 331.993265 220.369725 
L 332.625918 219.979851 
L 333.258571 220.335325 
L 333.891224 220.90867 
L 334.523878 220.57613 
L 335.156531 221.688419 
L 335.789184 221.05774 
L 336.421837 221.516416 
L 337.05449 221.631085 
L 337.687143 223.488723 
L 338.319796 222.422301 
L 338.952449 222.984179 
L 339.585102 222.410834 
L 340.217755 222.559904 
L 340.850408 222.261764 
L 341.483061 222.342033 
L 342.115714 219.979851 
L 342.748367 221.848956 
L 343.38102 222.892444 
L 344.013673 223.408455 
L 344.646327 224.658347 
L 345.911633 226.607721 
L 346.544286 228.786432 
L 347.176939 229.01577 
L 347.809592 229.417112 
L 349.074898 232.249437 
L 349.707551 232.008632 
L 350.340204 231.893963 
L 350.972857 230.94221 
L 351.60551 232.38704 
L 352.238163 233.350259 
L 352.870816 233.453462 
L 353.503469 233.969472 
L 354.136122 234.852424 
L 354.768776 234.405215 
L 355.401429 235.781243 
L 356.034082 232.192102 
L 356.666735 224.509277 
L 357.299388 225.529832 
L 357.932041 227.215466 
L 358.564694 227.628275 
L 359.197347 230.64407 
L 359.83 230.953677 
L 360.462653 235.723908 
L 361.095306 243.89981 
L 361.727959 244.025946 
L 362.360612 241.228022 
L 362.993265 241.147753 
L 363.625918 239.611188 
L 364.258571 243.120061 
L 364.891224 243.968612 
L 365.523878 246.479863 
L 366.156531 246.284926 
L 366.789184 249.816732 
L 367.421837 250.52768 
L 368.05449 251.949576 
L 368.687143 251.834907 
L 369.952449 254.552563 
L 370.585102 253.772814 
L 371.217755 254.942438 
L 371.850408 255.309379 
L 372.483061 254.518162 
L 373.115714 254.392026 
L 373.748367 254.128288 
L 374.38102 253.635211 
L 375.013673 254.529629 
L 375.646327 254.804835 
L 376.27898 254.827769 
L 376.911633 256.112062 
L 377.544286 256.146462 
L 378.176939 257.30462 
L 378.809592 257.900899 
L 379.442245 259.001721 
L 380.074898 259.678269 
L 381.972857 260.802025 
L 382.60551 260.526819 
L 383.238163 261.019896 
L 383.870816 260.664422 
L 384.503469 260.721757 
L 385.136122 259.907607 
L 385.768776 258.669181 
L 386.401429 257.9697 
L 387.034082 257.958233 
L 387.666735 256.731275 
L 388.932041 256.995013 
L 389.564694 257.224351 
L 390.197347 257.63716 
L 390.83 258.405442 
L 391.462653 258.038501 
L 392.095306 258.795317 
L 392.727959 257.476623 
L 393.360612 256.82301 
L 393.993265 256.788609 
L 394.625918 256.077661 
L 395.258571 254.23149 
L 395.891224 254.013619 
L 396.523878 253.486141 
L 397.156531 249.908467 
L 397.789184 249.461258 
L 398.421837 247.993494 
L 399.05449 246.858271 
L 399.687143 245.275839 
L 400.952449 241.377092 
L 401.585102 238.166359 
L 402.217755 236.950867 
L 402.850408 237.75355 
L 403.483061 235.769776 
L 404.748367 229.577648 
L 405.38102 223.477256 
L 406.013673 224.31434 
L 406.646327 224.027667 
L 407.27898 223.20205 
L 407.911633 217.273662 
L 408.544286 215.221086 
L 409.176939 210.714593 
L 409.809592 202.068548 
L 410.442245 197.344184 
L 411.074898 193.869713 
L 411.707551 193.617441 
L 412.340204 189.970966 
L 412.972857 184.84526 
L 413.60551 180.636907 
L 414.238163 175.4768 
L 414.870816 172.472472 
L 416.136122 169.880952 
L 416.768776 165.397393 
L 417.401429 165.190988 
L 418.034082 159.216732 
L 418.666735 150.272548 
L 419.299388 147.795697 
L 419.932041 147.692495 
L 420.564694 145.960992 
L 421.197347 157.989773 
L 421.83 151.316036 
L 423.095306 144.928971 
L 423.727959 138.966181 
L 424.360612 136.78747 
L 424.993265 137.796557 
L 425.625918 120.974611 
L 426.258571 122.71758 
L 426.891224 117.821213 
L 427.523878 115.539299 
L 428.156531 115.332895 
L 428.789184 113.326187 
L 429.421837 113.062448 
L 430.05449 111.743754 
L 430.687143 105.471358 
L 431.319796 105.975902 
L 431.952449 108.120213 
L 432.585102 108.31515 
L 433.217755 110.539729 
L 433.850408 108.429819 
L 434.483061 108.670624 
L 435.115714 107.971143 
L 435.748367 108.750892 
L 436.38102 114.335274 
L 437.013673 118.142286 
L 437.646327 118.314289 
L 438.27898 119.197241 
L 438.911633 123.233591 
L 439.544286 130.297203 
L 440.176939 130.228401 
L 442.074898 142.234249 
L 442.707551 142.796127 
L 443.340204 151.786179 
L 443.972857 147.382888 
L 444.60551 141.041691 
L 445.238163 144.7111 
L 445.870816 145.089508 
L 446.503469 144.011619 
L 447.136122 144.218023 
L 447.768776 137.097076 
L 448.401429 141.672371 
L 449.034082 142.314517 
L 449.666735 144.206556 
L 450.299388 143.484141 
L 450.932041 143.552943 
L 451.564694 146.00686 
L 452.197347 149.423997 
L 452.83 153.483281 
L 453.462653 166.085407 
L 455.360612 171.704189 
L 455.993265 172.07113 
L 456.625918 174.169573 
L 457.258571 177.322972 
L 457.891224 178.710467 
L 458.523878 186.049285 
L 459.156531 181.840932 
L 459.789184 180.831844 
L 461.05449 181.519858 
L 461.687143 179.765422 
L 462.319796 182.850019 
L 462.952449 186.496494 
L 463.585102 182.288141 
L 464.217755 181.152917 
L 464.850408 181.256119 
L 465.483061 180.95798 
L 466.115714 182.40281 
L 466.748367 182.55188 
L 467.38102 177.391773 
L 468.013673 185.189267 
L 468.646327 186.47356 
L 469.27898 186.267156 
L 469.911633 186.691431 
L 470.544286 186.324491 
L 471.176939 185.785546 
L 471.809592 195.520947 
L 472.442245 211.631945 
L 473.074898 213.202911 
L 473.707551 212.916238 
L 474.340204 205.072877 
L 474.972857 202.974434 
L 475.60551 199.832502 
L 476.238163 161.533046 
L 476.870816 148.036502 
L 477.503469 143.828148 
L 478.136122 142.497988 
L 478.768776 149.74507 
L 479.401429 149.26346 
L 480.034082 150.972029 
L 480.666735 176.933097 
L 481.299388 174.043438 
L 481.932041 174.857588 
L 482.564694 175.029591 
L 483.197347 173.8485 
L 483.83 174.685584 
L 484.462653 170.052955 
L 485.095306 173.206354 
L 485.727959 172.862347 
L 486.360612 172.243134 
L 486.993265 172.873813 
L 487.625918 171.314315 
L 488.258571 166.40648 
L 488.891224 167.965979 
L 489.523878 167.083027 
L 490.156531 179.753955 
L 490.789184 185.051664 
L 491.421837 185.831414 
L 492.05449 183.675636 
L 492.687143 178.813669 
L 493.319796 176.394153 
L 493.952449 174.823187 
L 494.585102 174.375978 
L 495.850408 170.202025 
L 496.483061 168.780129 
L 497.115714 169.066802 
L 497.748367 170.247893 
L 498.38102 163.436552 
L 499.013673 144.493229 
L 499.646327 138.89738 
L 501.544286 131.822301 
L 502.176939 124.907759 
L 502.809592 121.410353 
L 503.442245 118.887634 
L 504.074898 117.328136 
L 504.707551 115.344361 
L 505.340204 126.077383 
L 505.972857 124.701354 
L 506.60551 116.743324 
L 507.238163 111.23921 
L 507.870816 103.235312 
L 508.503469 102.925706 
L 509.136122 103.040375 
L 509.768776 90.575851 
L 510.401429 84.108518 
L 511.034082 79.980433 
L 511.666735 82.537552 
L 512.299388 73.99471 
L 512.932041 71.678395 
L 513.564694 74.533654 
L 514.197347 69.981294 
L 514.83 68.043387 
L 515.462653 71.013315 
L 516.095306 73.157626 
L 516.727959 72.687483 
L 517.360612 75.829414 
L 517.993265 75.554208 
L 518.625918 70.095963 
L 519.258571 74.568055 
L 519.891224 76.28809 
L 520.523878 66.999899 
L 521.156531 83.420504 
L 521.789184 84.521326 
L 522.421837 84.246121 
L 523.05449 85.725351 
L 523.687143 90.644653 
L 524.952449 97.192254 
L 526.217755 101.010733 
L 526.850408 102.111555 
L 527.483061 124.747222 
L 528.115714 130.01053 
L 528.748367 133.404734 
L 529.38102 134.230351 
L 530.013673 139.275788 
L 530.646327 138.507505 
L 531.27898 141.00729 
L 531.911633 127.315808 
L 532.544286 131.764966 
L 533.176939 140.755018 
L 533.809592 154.366232 
L 534.442245 158.563119 
L 535.074898 163.757626 
L 535.707551 164.055765 
L 536.972857 173.171953 
L 538.238163 175.935477 
L 538.870816 178.974206 
L 539.503469 179.547551 
L 540.136122 179.903025 
L 540.768776 185.693811 
L 541.401429 188.858676 
L 542.034082 190.555778 
L 542.666735 191.633667 
L 543.299388 199.041286 
L 543.932041 199.041286 
L 544.564694 200.222377 
L 545.197347 196.564435 
L 545.83 202.584559 
L 546.462653 205.072877 
L 547.095306 212.480496 
L 547.727959 214.624807 
L 548.360612 216.115504 
L 548.993265 216.516846 
L 549.625918 222.812176 
L 550.258571 218.01901 
L 550.891224 223.305252 
L 551.523878 227.433338 
L 552.156531 225.311961 
L 552.789184 225.300494 
L 553.421837 225.552765 
L 554.687143 237.593014 
L 555.319796 238.05169 
L 555.952449 235.964713 
L 556.585102 238.074623 
L 557.850408 238.326895 
L 558.483061 239.82906 
L 559.115714 238.430097 
L 559.748367 240.459739 
L 560.38102 240.299203 
L 561.013673 242.294444 
L 561.646327 243.3838 
L 562.27898 243.56727 
L 562.911633 244.38142 
L 563.544286 245.734515 
L 564.176939 246.502797 
L 564.809592 249.71353 
L 565.442245 248.647108 
L 566.074898 248.635641 
L 567.340204 248.11963 
L 567.972857 249.358056 
L 568.60551 250.252474 
L 569.238163 250.481812 
L 569.870816 251.926642 
L 570.503469 251.238628 
L 571.136122 251.307429 
L 571.768776 251.513834 
L 572.401429 246.732135 
L 573.034082 233.659866 
L 573.666735 234.737755 
L 574.299388 235.276699 
L 574.932041 234.462549 
L 575.564694 234.416681 
L 576.197347 234.97856 
L 576.83 239.966662 
L 577.462653 251.67437 
L 578.095306 254.56403 
L 578.727959 256.570738 
L 579.360612 258.015568 
L 579.993265 257.923832 
L 580.625918 257.648627 
L 581.258571 257.075282 
L 581.891224 256.777142 
L 583.156531 251.938109 
L 583.789184 251.720238 
L 584.421837 251.731705 
L 585.05449 252.098646 
L 585.687143 252.316517 
L 586.319796 251.295963 
L 586.952449 250.757018 
L 587.585102 249.208986 
L 588.217755 249.667662 
L 588.850408 249.885533 
L 589.483061 251.949576 
L 590.115714 251.903708 
L 590.748367 256.284065 
L 591.38102 256.238198 
L 592.013673 258.015568 
L 592.646327 256.708341 
L 593.27898 256.662473 
L 593.911633 253.887483 
L 594.544286 252.522921 
L 595.176939 246.284926 
L 595.809592 246.846804 
L 596.442245 247.248146 
L 597.074898 247.844425 
L 598.340204 247.867359 
L 598.972857 249.23192 
L 599.60551 255.217643 
L 600.238163 253.520542 
L 600.870816 254.254423 
L 601.503469 255.217643 
L 602.136122 255.412581 
L 602.768776 257.625693 
L 603.401429 256.146462 
L 604.034082 254.105354 
L 604.666735 254.529629 
L 605.932041 251.399165 
L 606.564694 251.433565 
L 607.197347 249.254854 
L 607.83 248.486571 
L 607.83 248.486571 
" clip-path="url(#p6ca1d7aad8)" style="fill: none; stroke: #7516fd; stroke-width: 1.5; stroke-linecap: square"/>
   </g>
   <g id="line2d_25">
    <path d="M 49.83 279 
L 82.095306 278.931199 
L 84.625918 278.610125 
L 87.789184 277.899177 
L 89.05449 277.566637 
L 90.319796 276.924491 
L 90.952449 276.167675 
L 91.585102 275.938337 
L 92.217755 275.170054 
L 92.850408 274.986584 
L 93.483061 274.355904 
L 94.748367 272.360663 
L 95.38102 271.821719 
L 96.013673 270.996102 
L 96.646327 271.213973 
L 97.27898 270.548893 
L 97.911633 270.239286 
L 99.176939 268.48485 
L 99.809592 267.831237 
L 100.442245 266.569877 
L 101.074898 264.895709 
L 101.707551 264.792507 
L 102.340204 264.563169 
L 103.60551 265.583724 
L 104.238163 262.866068 
L 105.503469 259.471864 
L 106.136122 258.084369 
L 106.768776 255.882724 
L 107.401429 252.144513 
L 108.034082 249.105784 
L 108.666735 248.326035 
L 109.299388 247.947627 
L 109.932041 247.993494 
L 110.564694 247.294013 
L 111.197347 247.30548 
L 111.83 246.261992 
L 112.462653 243.739274 
L 113.095306 242.489381 
L 113.727959 237.661815 
L 114.360612 234.336413 
L 114.993265 232.306771 
L 116.258571 227.135198 
L 116.891224 225.655968 
L 118.156531 222.296165 
L 118.789184 221.596684 
L 119.421837 221.72282 
L 120.05449 219.372105 
L 121.952449 208.719352 
L 122.585102 207.939603 
L 123.217755 203.972054 
L 123.850408 201.65574 
L 124.483061 201.747475 
L 125.115714 202.61896 
L 125.748367 202.790963 
L 127.013673 200.187976 
L 128.27898 204.419263 
L 128.911633 204.258727 
L 129.544286 200.69252 
L 130.176939 199.167422 
L 130.809592 195.498013 
L 132.074898 196.919909 
L 132.707551 196.862574 
L 133.340204 195.463612 
L 133.972857 197.43592 
L 134.60551 196.931376 
L 135.870816 202.378155 
L 136.503469 201.736008 
L 137.136122 199.924237 
L 137.768776 201.059461 
L 138.401429 199.465561 
L 139.034082 200.073307 
L 139.666735 200.405847 
L 140.299388 196.633236 
L 140.932041 195.199873 
L 141.564694 195.784685 
L 142.197347 195.807619 
L 142.83 194.959068 
L 143.462653 195.887888 
L 144.095306 196.564435 
L 144.727959 198.617011 
L 145.360612 198.055132 
L 145.993265 197.928996 
L 146.625918 198.387672 
L 147.258571 199.408227 
L 147.891224 199.614631 
L 148.523878 198.708746 
L 149.156531 196.186027 
L 149.789184 195.853487 
L 151.05449 196.690571 
L 151.687143 196.885508 
L 152.319796 195.887888 
L 152.952449 196.312163 
L 153.585102 195.337476 
L 154.217755 196.80524 
L 154.850408 196.128693 
L 155.483061 194.408657 
L 156.115714 194.477459 
L 156.748367 193.2505 
L 157.38102 192.367548 
L 158.013673 194.374256 
L 158.646327 195.383344 
L 159.27898 194.339856 
L 159.911633 195.108138 
L 161.176939 194.660929 
L 161.809592 194.500392 
L 162.442245 194.018782 
L 163.074898 191.094722 
L 163.707551 192.551019 
L 164.340204 193.502772 
L 164.972857 194.179319 
L 166.238163 196.564435 
L 166.870816 195.394811 
L 167.503469 197.206581 
L 168.136122 197.860195 
L 168.768776 198.811948 
L 169.401429 197.665258 
L 170.034082 195.750285 
L 170.666735 195.475079 
L 171.299388 197.562055 
L 171.932041 198.869282 
L 172.564694 198.353272 
L 173.197347 196.208961 
L 174.462653 200.176509 
L 175.095306 199.993039 
L 175.727959 200.887457 
L 176.360612 202.080015 
L 176.993265 201.873611 
L 177.625918 201.793343 
L 178.258571 199.981572 
L 178.891224 200.222377 
L 179.523878 200.279711 
L 180.156531 199.775168 
L 180.789184 198.571143 
L 181.421837 200.084774 
L 182.05449 200.921858 
L 182.687143 202.630427 
L 183.319796 203.593646 
L 183.952449 206.483306 
L 184.585102 208.79962 
L 185.217755 208.008404 
L 185.850408 208.627617 
L 186.483061 209.499101 
L 187.115714 210.106847 
L 187.748367 208.673484 
L 188.38102 210.026579 
L 189.013673 210.026579 
L 189.646327 213.386381 
L 190.27898 212.732768 
L 190.911633 216.482445 
L 191.544286 223.64926 
L 192.176939 224.188204 
L 192.809592 222.961245 
L 193.442245 222.972712 
L 194.074898 221.103607 
L 194.707551 221.711353 
L 195.340204 220.12892 
L 195.972857 213.741855 
L 196.60551 215.977902 
L 197.238163 217.181926 
L 197.870816 217.411264 
L 198.503469 218.397418 
L 199.136122 219.016631 
L 199.768776 218.924896 
L 200.401429 222.227364 
L 201.034082 222.571371 
L 201.666735 223.419922 
L 202.299388 223.488723 
L 202.932041 223.01858 
L 203.564694 223.156183 
L 204.197347 224.0162 
L 205.462653 222.708974 
L 206.095306 222.961245 
L 206.727959 224.887685 
L 207.360612 226.42425 
L 207.993265 226.206379 
L 208.625918 226.183445 
L 209.258571 226.733856 
L 209.891224 229.680851 
L 210.523878 230.116593 
L 211.156531 230.116593 
L 211.789184 230.735806 
L 212.421837 231.653158 
L 213.05449 233.935072 
L 213.687143 238.888774 
L 214.319796 238.808505 
L 214.952449 237.90262 
L 215.585102 238.028756 
L 216.217755 239.393317 
L 216.850408 239.886394 
L 217.483061 238.372763 
L 218.115714 235.276699 
L 218.748367 237.122871 
L 219.38102 240.666144 
L 220.013673 241.583496 
L 220.646327 241.904569 
L 221.27898 241.927503 
L 221.911633 242.202709 
L 222.544286 243.601671 
L 223.176939 244.369953 
L 223.809592 243.842476 
L 224.442245 243.727807 
L 225.074898 244.817162 
L 225.707551 245.161169 
L 226.340204 246.732135 
L 226.972857 249.461258 
L 227.60551 248.154031 
L 228.238163 247.557752 
L 228.870816 251.020757 
L 229.503469 251.754639 
L 230.136122 251.903708 
L 230.768776 251.662903 
L 231.401429 252.694925 
L 232.034082 253.199468 
L 233.299388 245.917985 
L 233.932041 240.115732 
L 234.564694 240.689077 
L 235.197347 239.874927 
L 235.83 234.370814 
L 236.462653 232.306771 
L 237.095306 235.551905 
L 237.727959 236.27432 
L 238.360612 240.597342 
L 238.993265 240.1616 
L 239.625918 239.037843 
L 240.258571 239.622655 
L 240.891224 241.12482 
L 242.156531 239.909328 
L 242.789184 237.765017 
L 243.421837 237.134337 
L 244.05449 237.180205 
L 245.952449 235.288166 
L 247.217755 232.742514 
L 247.850408 231.515555 
L 248.483061 230.667004 
L 249.115714 229.371244 
L 249.748367 227.376003 
L 250.38102 227.284268 
L 251.013673 227.479205 
L 251.646327 227.135198 
L 252.27898 227.651209 
L 252.911633 226.642121 
L 253.544286 225.082622 
L 254.176939 224.073535 
L 254.809592 220.725199 
L 255.442245 218.936362 
L 256.074898 219.142767 
L 256.707551 217.720871 
L 257.340204 217.170459 
L 258.60551 216.493912 
L 259.870816 223.786862 
L 260.503469 227.949348 
L 261.136122 228.889634 
L 261.768776 229.153373 
L 262.401429 228.213087 
L 263.666735 222.3879 
L 264.299388 222.53697 
L 264.932041 222.571371 
L 265.564694 222.86951 
L 266.197347 222.192963 
L 266.83 220.621997 
L 267.462653 220.461461 
L 268.095306 214.705075 
L 269.360612 199.477028 
L 269.993265 197.424453 
L 270.625918 198.639944 
L 271.258571 199.362359 
L 271.891224 198.983951 
L 272.523878 203.157904 
L 273.156531 202.538691 
L 273.789184 202.481357 
L 274.421837 201.781876 
L 275.05449 201.953879 
L 275.687143 201.552538 
L 276.319796 200.050373 
L 276.952449 197.837261 
L 277.585102 198.571143 
L 278.217755 197.068979 
L 278.850408 196.564435 
L 279.483061 194.110518 
L 280.115714 194.167852 
L 280.748367 194.844399 
L 281.38102 193.800911 
L 282.013673 193.617441 
L 282.646327 193.078496 
L 283.27898 193.388103 
L 283.911633 194.156385 
L 284.544286 192.940894 
L 285.809592 196.369498 
L 286.442245 194.488925 
L 287.074898 197.412986 
L 287.707551 198.318871 
L 288.340204 197.195115 
L 288.972857 196.575902 
L 290.238163 192.814758 
L 290.870816 193.170232 
L 291.503469 192.161144 
L 292.136122 190.280572 
L 292.768776 191.541931 
L 293.401429 194.099051 
L 294.034082 196.071358 
L 294.666735 196.105759 
L 295.299388 194.832933 
L 295.932041 194.764131 
L 296.564694 195.303076 
L 297.197347 194.156385 
L 298.462653 188.147728 
L 299.095306 186.588229 
L 299.727959 186.450627 
L 300.360612 183.916441 
L 300.993265 182.001468 
L 301.625918 180.659841 
L 302.891224 171.899127 
L 303.523878 169.227338 
L 304.156531 164.973117 
L 304.789184 162.243994 
L 306.05449 155.145982 
L 306.687143 152.508594 
L 307.319796 146.396735 
L 308.585102 137.280547 
L 309.217755 131.93697 
L 309.850408 132.258043 
L 310.483061 129.82706 
L 311.115714 119.518314 
L 311.748367 116.307581 
L 313.013673 104.118264 
L 313.646327 99.3939 
L 314.27898 97.364258 
L 315.544286 90.873991 
L 316.176939 94.818605 
L 316.809592 95.621288 
L 317.442245 85.828553 
L 318.074898 73.891507 
L 318.707551 70.050095 
L 319.340204 65.348665 
L 319.972857 59.523478 
L 320.60551 41.084698 
L 321.238163 29.606328 
L 321.870816 37.736362 
L 322.503469 54.936717 
L 323.136122 58.835464 
L 323.768776 59.993621 
L 324.401429 55.25779 
L 325.034082 58.170383 
L 325.666735 52.5172 
L 326.299388 41.612176 
L 326.932041 36.234198 
L 327.564694 29.182053 
L 328.197347 31.4869 
L 328.83 35.053107 
L 329.462653 37.644627 
L 330.095306 45.178382 
L 330.727959 49.937147 
L 331.360612 44.215163 
L 331.993265 48.056575 
L 332.625918 47.540564 
L 333.258571 52.241995 
L 333.891224 55.085787 
L 334.523878 71.598127 
L 335.156531 74.980863 
L 335.789184 76.253689 
L 336.421837 78.409467 
L 337.05449 82.721023 
L 337.687143 85.771219 
L 338.319796 87.892596 
L 338.952449 76.643564 
L 339.585102 78.719074 
L 340.217755 84.750664 
L 340.850408 85.530414 
L 341.483061 88.454474 
L 342.115714 89.624098 
L 342.748367 92.387622 
L 343.38102 98.075206 
L 344.013673 105.815365 
L 344.646327 107.627136 
L 345.27898 111.57175 
L 345.911633 111.732287 
L 346.544286 120.148994 
L 347.176939 122.327705 
L 347.809592 125.297633 
L 348.442245 125.286166 
L 349.074898 126.214985 
L 349.707551 124.621086 
L 350.340204 124.919225 
L 350.972857 122.557043 
L 351.60551 123.485863 
L 352.238163 120.802607 
L 352.870816 121.502088 
L 353.503469 124.655487 
L 354.136122 126.627794 
L 354.768776 129.184913 
L 355.401429 132.246576 
L 356.034082 132.670852 
L 356.666735 137.372282 
L 357.299388 133.932211 
L 357.932041 131.466827 
L 358.564694 131.191621 
L 359.197347 129.999063 
L 359.83 128.279028 
L 360.462653 127.763017 
L 361.095306 129.907328 
L 361.727959 144.068953 
L 362.360612 147.176484 
L 362.993265 147.554892 
L 363.625918 145.456449 
L 364.258571 141.855841 
L 364.891224 143.186002 
L 365.523878 136.409062 
L 366.156531 125.102696 
L 366.789184 121.616757 
L 367.421837 118.864701 
L 368.05449 120.343931 
L 368.687143 119.919656 
L 369.319796 116.364916 
L 369.952449 118.555094 
L 370.585102 115.12649 
L 371.217755 112.477636 
L 371.850408 113.49819 
L 372.483061 113.945399 
L 373.115714 120.619137 
L 373.748367 125.630173 
L 374.38102 128.795039 
L 375.013673 134.161549 
L 375.646327 142.050778 
L 376.911633 148.667181 
L 377.544286 150.55922 
L 378.176939 152.864068 
L 378.809592 154.07956 
L 379.442245 155.593191 
L 380.074898 154.228629 
L 380.707551 153.655284 
L 381.340204 152.795266 
L 381.972857 154.847842 
L 382.60551 160.340489 
L 383.238163 162.691204 
L 383.870816 167.323832 
L 384.503469 172.805012 
L 385.136122 175.167194 
L 385.768776 175.247462 
L 386.401429 176.394153 
L 387.034082 176.956031 
L 387.666735 178.309125 
L 388.299388 179.260878 
L 388.932041 177.965118 
L 389.564694 178.928338 
L 390.197347 180.235565 
L 390.83 183.446298 
L 391.462653 185.005797 
L 392.095306 187.046905 
L 392.727959 188.170662 
L 393.360612 190.349373 
L 393.993265 190.372307 
L 394.625918 190.865384 
L 395.258571 191.897405 
L 395.891224 192.207012 
L 396.523878 193.239033 
L 397.156531 197.894596 
L 397.789184 199.408227 
L 398.421837 200.142109 
L 399.05449 201.070928 
L 399.687143 201.667207 
L 400.319796 205.118744 
L 400.952449 207.584129 
L 401.585102 206.735578 
L 402.217755 206.162233 
L 403.483061 206.873181 
L 404.115714 206.517707 
L 404.748367 206.827313 
L 405.38102 208.088672 
L 406.013673 208.856955 
L 406.646327 209.854575 
L 407.27898 209.854575 
L 407.911633 210.932464 
L 408.544286 212.927705 
L 409.176939 213.558385 
L 410.442245 213.455183 
L 411.074898 216.906721 
L 411.707551 217.548867 
L 412.340204 217.514467 
L 412.972857 220.209189 
L 413.60551 221.39028 
L 414.238163 223.133249 
L 414.870816 224.004734 
L 415.503469 223.798329 
L 416.136122 224.429009 
L 416.768776 225.564232 
L 417.401429 225.311961 
L 418.034082 227.490672 
L 419.299388 229.405645 
L 419.932041 229.302443 
L 420.564694 229.382711 
L 421.197347 230.506468 
L 421.83 236.859132 
L 422.462653 241.996304 
L 423.095306 241.514694 
L 423.727959 242.707252 
L 424.993265 242.030705 
L 425.625918 241.296823 
L 426.258571 237.27194 
L 426.891224 230.94221 
L 427.523878 232.788381 
L 428.156531 232.765447 
L 428.789184 233.7172 
L 429.421837 234.302012 
L 430.05449 234.519884 
L 430.687143 234.577218 
L 431.319796 236.136717 
L 431.952449 236.526592 
L 432.585102 236.044982 
L 433.217755 236.572459 
L 433.850408 236.366055 
L 434.483061 237.180205 
L 435.115714 235.528971 
L 435.748367 235.345501 
L 436.38102 235.586306 
L 437.013673 237.765017 
L 437.646327 238.751171 
L 438.27898 239.209847 
L 438.911633 239.095178 
L 440.809592 243.957145 
L 441.442245 242.351778 
L 442.074898 242.787521 
L 442.707551 243.647538 
L 443.340204 243.613138 
L 443.972857 249.449791 
L 444.60551 253.623744 
L 445.238163 251.97251 
L 445.870816 253.382939 
L 446.503469 252.821061 
L 447.136122 253.084799 
L 447.768776 253.142134 
L 449.034082 248.589773 
L 449.666735 249.805265 
L 450.299388 250.493279 
L 450.932041 251.811973 
L 451.564694 251.915175 
L 452.197347 251.857841 
L 452.83 251.582635 
L 453.462653 251.169827 
L 454.095306 252.236249 
L 454.727959 252.683458 
L 455.360612 254.220023 
L 455.993265 254.059486 
L 456.625918 255.252044 
L 457.891224 260.939628 
L 458.523878 260.240147 
L 459.156531 260.538286 
L 459.789184 259.540666 
L 460.421837 260.263081 
L 461.05449 260.068143 
L 461.687143 259.425997 
L 462.319796 258.520111 
L 462.952449 260.744691 
L 463.585102 258.004101 
L 464.850408 258.015568 
L 465.483061 258.588913 
L 466.115714 259.334261 
L 466.748367 258.095836 
L 467.38102 257.728895 
L 468.013673 262.120719 
L 468.646327 263.267409 
L 469.27898 262.911935 
L 469.911633 262.269789 
L 470.544286 260.526819 
L 471.176939 261.742311 
L 471.809592 261.558841 
L 472.442245 260.790558 
L 473.074898 260.56122 
L 474.340204 260.836426 
L 474.972857 260.480952 
L 475.60551 260.515352 
L 476.238163 261.570308 
L 477.503469 263.313277 
L 478.136122 263.416479 
L 478.768776 263.255942 
L 479.401429 264.001291 
L 480.034082 264.322364 
L 480.666735 264.276497 
L 481.299388 264.345298 
L 481.932041 265.41172 
L 482.564694 265.285584 
L 483.197347 266.283205 
L 483.83 267.980306 
L 484.462653 267.315226 
L 485.095306 268.198177 
L 485.727959 268.542185 
L 486.360612 267.567498 
L 486.993265 267.877104 
L 487.625918 267.441362 
L 488.258571 267.922972 
L 488.891224 269.665941 
L 489.523878 269.63154 
L 490.156531 270.032882 
L 490.789184 271.259841 
L 492.05449 271.569447 
L 492.687143 270.308088 
L 493.319796 270.640628 
L 493.952449 270.319554 
L 494.585102 271.213973 
L 495.217755 271.191039 
L 495.850408 271.328642 
L 497.115714 271.248374 
L 497.748367 272.590001 
L 498.38102 274.355904 
L 499.646327 272.463865 
L 500.27898 269.253133 
L 500.911633 268.760056 
L 501.544286 269.218732 
L 502.176939 267.682167 
L 502.809592 265.514922 
L 504.074898 264.138894 
L 504.707551 266.661612 
L 505.340204 266.248804 
L 507.238163 260.125478 
L 508.503469 256.547804 
L 509.136122 255.573117 
L 509.768776 254.254423 
L 510.401429 252.327984 
L 511.034082 249.277788 
L 511.666735 245.585445 
L 512.932041 236.813264 
L 513.564694 235.655107 
L 514.197347 233.671333 
L 514.83 230.529401 
L 516.095306 222.68604 
L 516.727959 220.57613 
L 517.993265 217.491533 
L 518.625918 217.571801 
L 519.891224 208.822554 
L 520.523878 209.774307 
L 521.156531 207.882268 
L 521.789184 207.32039 
L 522.421837 208.375345 
L 523.05449 207.847867 
L 524.319796 213.925326 
L 524.952449 212.285559 
L 525.585102 211.654879 
L 526.217755 211.930085 
L 526.850408 211.127402 
L 527.483061 212.870371 
L 528.115714 214.108796 
L 528.748367 214.578939 
L 529.38102 215.393089 
L 530.013673 219.876649 
L 531.27898 223.442855 
L 531.911633 224.440476 
L 533.809592 243.211796 
L 534.442245 244.301152 
L 535.074898 244.23235 
L 536.340204 244.920365 
L 536.972857 242.168308 
L 537.60551 238.71677 
L 538.238163 238.223693 
L 538.870816 240.918415 
L 539.503469 244.392887 
L 540.136122 245.505177 
L 540.768776 245.642779 
L 541.401429 247.534818 
L 542.034082 250.745551 
L 542.666735 252.477054 
L 543.299388 253.142134 
L 543.932041 254.288824 
L 544.564694 254.506695 
L 545.197347 255.630452 
L 545.83 254.609897 
L 546.462653 255.435514 
L 547.727959 258.852652 
L 548.360612 259.999342 
L 548.993265 259.919074 
L 549.625918 260.286014 
L 550.258571 261.765245 
L 550.891224 261.994583 
L 551.523878 262.694064 
L 552.156531 262.831667 
L 553.421837 264.654904 
L 554.05449 263.599949 
L 555.319796 265.113581 
L 555.952449 265.170915 
L 556.585102 266.248804 
L 557.850408 266.352006 
L 558.483061 267.464296 
L 559.115714 268.049108 
L 559.748367 268.404582 
L 560.38102 269.654474 
L 561.013673 270.090216 
L 561.646327 270.858499 
L 562.27898 271.041969 
L 562.911633 271.030502 
L 563.544286 271.489179 
L 564.176939 270.342488 
L 564.809592 270.881433 
L 565.442245 271.569447 
L 566.707551 271.156638 
L 567.340204 271.053436 
L 567.972857 270.835565 
L 568.60551 271.07637 
L 569.238163 270.824098 
L 569.870816 269.287533 
L 570.503469 268.897659 
L 571.136122 269.126997 
L 571.768776 268.977927 
L 572.401429 269.574206 
L 573.034082 271.615315 
L 573.666735 271.351576 
L 574.299388 271.236907 
L 574.932041 271.833186 
L 575.564694 271.867586 
L 576.197347 272.257461 
L 576.83 271.041969 
L 577.462653 270.331021 
L 578.095306 270.480091 
L 578.727959 271.133705 
L 579.360612 270.480091 
L 579.993265 270.101683 
L 580.625918 269.941147 
L 581.258571 272.211593 
L 582.523878 275.078319 
L 583.156531 270.858499 
L 583.789184 271.936388 
L 584.421837 270.9273 
L 585.05449 271.259841 
L 585.687143 268.530718 
L 586.319796 267.017086 
L 586.952449 267.945906 
L 587.585102 272.154259 
L 588.217755 271.305708 
L 588.850408 272.131325 
L 589.483061 271.833186 
L 590.115714 272.727604 
L 590.748367 272.807872 
L 591.38102 270.399823 
L 592.013673 271.523579 
L 593.27898 273.060144 
L 593.911633 272.979876 
L 595.176939 269.299 
L 595.809592 269.138463 
L 597.074898 266.352006 
L 597.707551 265.939198 
L 598.340204 265.939198 
L 598.972857 267.464296 
L 599.60551 267.00562 
L 600.238163 268.645387 
L 600.870816 270.59476 
L 601.503469 271.901987 
L 602.136122 272.314796 
L 602.768776 267.750968 
L 603.401429 267.120289 
L 604.034082 269.402202 
L 605.299388 261.386837 
L 606.564694 261.386837 
L 607.197347 263.278876 
L 607.83 262.281256 
L 607.83 262.281256 
" clip-path="url(#p6ca1d7aad8)" style="fill: none; stroke: #42537f; stroke-width: 1.5; stroke-linecap: square"/>
   </g>
   <g id="line2d_26">
    <path d="M 49.83 279 
L 353.503469 278.942665 
L 356.666735 278.495456 
L 357.932041 278.059714 
L 361.727959 277.750108 
L 365.523878 276.763954 
L 366.156531 276.729553 
L 369.952449 277.440501 
L 371.217755 277.543703 
L 371.850408 277.715707 
L 373.748367 277.612505 
L 375.646327 278.025313 
L 376.27898 278.048247 
L 376.911633 278.243184 
L 377.544286 278.220251 
L 378.176939 278.438122 
L 380.074898 278.277585 
L 381.340204 278.380787 
L 382.60551 278.231718 
L 383.870816 278.380787 
L 385.136122 278.403721 
L 385.768776 278.403721 
L 387.034082 278.564258 
L 387.666735 278.529857 
L 388.932041 278.678927 
L 393.360612 278.747728 
L 397.789184 278.988533 
L 406.013673 278.713327 
L 407.27898 278.862397 
L 409.176939 278.942665 
L 410.442245 278.908265 
L 417.401429 278.931199 
L 571.768776 278.862397 
L 573.034082 278.736261 
L 575.564694 278.678927 
L 576.197347 278.277585 
L 578.727959 278.174383 
L 579.360612 277.245564 
L 579.993265 277.027693 
L 580.625918 277.096494 
L 581.891224 276.419947 
L 583.156531 275.376459 
L 583.789184 275.628731 
L 584.421837 275.238856 
L 585.687143 275.066852 
L 586.952449 274.1495 
L 587.585102 273.266549 
L 588.217755 272.073991 
L 590.748367 269.562739 
L 591.38102 269.104063 
L 592.013673 268.920592 
L 592.646327 270.789698 
L 593.27898 268.874725 
L 594.544286 268.00324 
L 595.176939 267.578965 
L 596.442245 265.996532 
L 597.074898 263.577016 
L 597.707551 264.872776 
L 598.340204 265.354386 
L 598.972857 265.365852 
L 599.60551 265.549323 
L 600.238163 266.0424 
L 600.870816 266.718947 
L 601.503469 267.062954 
L 602.136122 266.959752 
L 602.768776 266.55841 
L 603.401429 266.650146 
L 604.034082 266.329072 
L 605.299388 266.37494 
L 606.564694 267.154689 
L 607.197347 267.762435 
L 607.83 267.900038 
L 607.83 267.900038 
" clip-path="url(#p6ca1d7aad8)" style="fill: none; stroke: #fe7b74; stroke-width: 1.5; stroke-linecap: square"/>
   </g>
   <g id="line2d_27">
    <path d="M 49.83 279 
L 78.932041 278.908265 
L 80.197347 278.885331 
L 82.095306 278.827996 
L 83.993265 278.506923 
L 86.523878 276.958891 
L 87.789184 275.812201 
L 88.421837 275.170054 
L 89.05449 274.768713 
L 91.585102 270.239286 
L 92.217755 269.44807 
L 92.850408 268.072042 
L 93.483061 267.773902 
L 94.115714 267.257891 
L 96.013673 263.45088 
L 96.646327 263.106873 
L 97.27898 263.737552 
L 97.911633 263.347678 
L 98.544286 263.382078 
L 99.176939 263.026604 
L 99.809592 262.235388 
L 100.442245 261.85698 
L 101.074898 261.04283 
L 101.707551 260.41215 
L 102.340204 260.595621 
L 102.972857 260.320415 
L 103.60551 260.366283 
L 104.238163 261.512973 
L 105.503469 263.061005 
L 106.136122 263.565549 
L 106.768776 263.565549 
L 107.401429 263.921023 
L 108.034082 264.826908 
L 109.299388 265.698393 
L 109.932041 266.673079 
L 111.197347 268.198177 
L 111.83 268.473383 
L 112.462653 268.897659 
L 113.727959 269.998481 
L 114.360612 269.895279 
L 114.993265 270.44569 
L 116.258571 270.950234 
L 116.891224 271.684116 
L 117.523878 272.073991 
L 118.789184 273.128946 
L 120.05449 273.060144 
L 120.687143 273.564688 
L 121.319796 273.771092 
L 121.952449 274.138033 
L 122.585102 274.986584 
L 123.217755 275.158588 
L 124.483061 275.307657 
L 125.748367 276.030072 
L 127.646327 275.869536 
L 128.27898 276.098874 
L 128.911633 276.087407 
L 129.544286 276.477281 
L 130.176939 276.683686 
L 130.809592 277.050627 
L 132.074898 277.199696 
L 132.707551 277.07356 
L 133.340204 277.130895 
L 133.972857 276.832755 
L 135.870816 277.279965 
L 137.136122 277.635439 
L 137.768776 277.658372 
L 138.401429 277.979446 
L 139.034082 277.841843 
L 142.83 277.910644 
L 144.095306 278.18585 
L 144.727959 278.128515 
L 145.993265 278.139982 
L 147.891224 278.18585 
L 152.319796 278.415188 
L 153.585102 278.415188 
L 156.115714 278.495456 
L 157.38102 278.655993 
L 161.809592 278.736261 
L 163.707551 278.610125 
L 168.136122 278.736261 
L 170.034082 278.541324 
L 171.932041 278.461056 
L 172.564694 278.36932 
L 175.095306 278.587191 
L 175.727959 278.51839 
L 176.993265 278.598658 
L 184.585102 278.678927 
L 185.217755 278.747728 
L 188.38102 278.587191 
L 194.707551 278.724794 
L 201.034082 278.529857 
L 202.299388 278.254651 
L 205.462653 278.094115 
L 206.727959 278.254651 
L 207.360612 278.139982 
L 209.258571 278.139982 
L 211.789184 278.117048 
L 213.05449 278.002379 
L 213.687143 277.990913 
L 214.952449 277.486369 
L 216.850408 277.142362 
L 217.483061 277.07356 
L 218.115714 276.683686 
L 219.38102 276.763954 
L 220.646327 276.293811 
L 221.911633 275.938337 
L 222.544286 275.995671 
L 223.176939 275.468194 
L 223.809592 274.791647 
L 224.442245 274.470573 
L 225.074898 273.851361 
L 225.707551 273.851361 
L 226.340204 273.564688 
L 226.972857 272.544134 
L 227.60551 271.787318 
L 228.238163 271.454778 
L 228.870816 270.434224 
L 231.401429 269.310467 
L 232.666735 266.936818 
L 234.564694 265.285584 
L 235.197347 265.297051 
L 235.83 264.001291 
L 237.727959 262.602329 
L 238.360612 261.730844 
L 239.625918 261.054297 
L 240.258571 261.260701 
L 240.891224 260.056676 
L 241.523878 258.474244 
L 242.156531 256.570738 
L 242.789184 255.137375 
L 243.421837 254.908037 
L 244.05449 254.506695 
L 244.687143 252.912796 
L 245.952449 250.997823 
L 246.585102 250.929022 
L 247.850408 248.624174 
L 248.483061 248.371902 
L 249.115714 247.970561 
L 249.748367 246.78947 
L 250.38102 247.236679 
L 251.013673 245.333173 
L 251.646327 245.184103 
L 252.27898 244.427288 
L 252.911633 243.957145 
L 253.544286 243.074193 
L 254.176939 238.923174 
L 255.442245 233.499329 
L 256.074898 231.137147 
L 256.707551 230.12806 
L 257.340204 229.692317 
L 257.972857 227.043463 
L 258.60551 226.928794 
L 259.238163 225.736236 
L 260.503469 235.632173 
L 261.136122 236.239919 
L 262.401429 233.453462 
L 263.666735 229.680851 
L 264.299388 228.064017 
L 264.932041 226.963195 
L 266.197347 227.995216 
L 266.83 226.940261 
L 267.462653 228.20162 
L 268.095306 226.986128 
L 268.727959 219.704645 
L 269.360612 211.138868 
L 269.993265 209.384432 
L 270.625918 208.914289 
L 271.258571 209.522035 
L 271.891224 209.051892 
L 272.523878 207.056651 
L 273.156531 207.916669 
L 273.789184 209.09776 
L 274.421837 209.327098 
L 275.05449 210.806328 
L 276.319796 208.673484 
L 277.585102 214.234932 
L 278.850408 216.493912 
L 279.483061 216.459511 
L 280.115714 217.445665 
L 280.748367 219.349171 
L 281.38102 220.174788 
L 282.013673 220.404126 
L 282.646327 221.378813 
L 283.27898 220.805468 
L 284.544286 221.768688 
L 285.176939 221.848956 
L 285.809592 223.626326 
L 286.442245 223.442855 
L 287.074898 224.64688 
L 287.707551 226.57332 
L 288.340204 226.768257 
L 288.972857 231.12568 
L 289.60551 232.983319 
L 290.238163 234.359347 
L 290.870816 237.787951 
L 291.503469 239.370383 
L 292.136122 239.519453 
L 292.768776 240.001063 
L 293.401429 239.462119 
L 294.034082 242.363245 
L 294.666735 243.876876 
L 295.299388 244.427288 
L 297.197347 246.583065 
L 297.83 247.878825 
L 299.727959 252.477054 
L 300.360612 253.864549 
L 300.993265 253.726946 
L 301.625918 253.74988 
L 302.258571 254.403493 
L 302.891224 254.449361 
L 303.523878 254.7475 
L 304.156531 256.238198 
L 305.421837 257.728895 
L 306.05449 258.027035 
L 307.319796 260.56122 
L 307.952449 260.996962 
L 308.585102 261.134565 
L 309.217755 261.834046 
L 309.850408 262.132186 
L 310.483061 261.983116 
L 311.115714 262.178053 
L 311.748367 262.762865 
L 312.38102 263.840754 
L 313.646327 264.505835 
L 314.27898 264.173295 
L 316.809592 264.001291 
L 318.074898 265.067713 
L 319.340204 265.251183 
L 319.972857 266.053867 
L 320.60551 266.0424 
L 321.238163 266.352006 
L 321.870816 265.790128 
L 322.503469 266.214403 
L 323.136122 266.466675 
L 323.768776 266.386407 
L 324.401429 267.418428 
L 325.034082 266.85655 
L 325.666735 265.652525 
L 326.299388 264.918643 
L 326.932041 263.473813 
L 327.564694 263.061005 
L 328.197347 262.499127 
L 328.83 260.159878 
L 329.462653 259.655335 
L 330.095306 259.804405 
L 330.727959 260.366283 
L 332.625918 261.180433 
L 333.258571 261.146032 
L 333.891224 261.272168 
L 334.523878 261.662043 
L 335.156531 261.455639 
L 336.421837 260.07961 
L 337.05449 260.446551 
L 337.687143 259.907607 
L 338.319796 260.125478 
L 338.952449 260.068143 
L 339.585102 259.598 
L 340.217755 260.217213 
L 340.850408 260.331882 
L 341.483061 260.056676 
L 342.748367 260.698823 
L 344.013673 261.111631 
L 344.646327 261.04283 
L 345.27898 260.847893 
L 347.176939 261.753778 
L 347.809592 261.432705 
L 348.442245 262.510594 
L 349.707551 263.852221 
L 350.340204 263.737552 
L 350.972857 264.4485 
L 351.60551 264.26503 
L 352.238163 264.735173 
L 352.870816 264.322364 
L 353.503469 264.402633 
L 354.136122 264.276497 
L 354.768776 264.517302 
L 355.401429 266.673079 
L 356.034082 266.833616 
L 356.666735 266.466675 
L 357.299388 266.85655 
L 357.932041 266.936818 
L 358.564694 267.234958 
L 359.197347 267.315226 
L 359.83 265.939198 
L 361.095306 268.163777 
L 361.727959 269.379268 
L 362.360612 269.849411 
L 362.993265 269.643007 
L 364.258571 269.952614 
L 365.523878 271.603848 
L 366.789184 271.340109 
L 367.421837 271.982255 
L 368.05449 272.119858 
L 368.687143 272.658803 
L 369.319796 272.314796 
L 369.952449 272.18866 
L 370.585102 272.314796 
L 371.217755 272.658803 
L 372.483061 272.681736 
L 373.115714 272.865207 
L 373.748367 273.851361 
L 374.38102 273.988963 
L 375.646327 274.676978 
L 378.176939 274.96365 
L 378.809592 275.307657 
L 379.442245 275.227389 
L 380.074898 275.823668 
L 381.340204 275.915403 
L 381.972857 276.213543 
L 382.60551 276.305278 
L 383.238163 276.672219 
L 383.870816 276.901557 
L 384.503469 276.683686 
L 386.401429 276.74102 
L 387.034082 276.970358 
L 387.666735 276.958891 
L 388.299388 277.314365 
L 388.932041 277.463435 
L 390.197347 277.509303 
L 390.83 277.417567 
L 391.462653 277.52077 
L 393.993265 277.142362 
L 395.891224 277.050627 
L 396.523878 277.291431 
L 399.05449 277.474902 
L 399.687143 277.692773 
L 401.585102 277.658372 
L 404.115714 277.578104 
L 406.646327 278.013846 
L 407.911633 278.002379 
L 409.809592 277.750108 
L 410.442245 277.818909 
L 411.707551 277.750108 
L 412.340204 277.750108 
L 413.60551 277.394634 
L 415.503469 277.337299 
L 417.401429 276.958891 
L 418.034082 277.142362 
L 418.666735 277.004759 
L 419.299388 276.649285 
L 421.83 276.55755 
L 423.727959 276.11034 
L 424.360612 275.869536 
L 424.993265 276.018605 
L 426.258571 275.869536 
L 426.891224 275.319124 
L 427.523878 275.11272 
L 428.156531 275.514062 
L 428.789184 275.307657 
L 429.421837 274.96365 
L 430.05449 274.952183 
L 430.687143 274.803114 
L 431.319796 274.940716 
L 432.585102 273.885761 
L 433.850408 274.011897 
L 434.483061 274.046298 
L 435.115714 273.81696 
L 435.748367 273.862827 
L 436.38102 274.413239 
L 437.646327 274.275636 
L 438.27898 274.493507 
L 440.809592 274.539375 
L 441.442245 274.390305 
L 442.074898 274.401772 
L 442.707551 274.229768 
L 443.972857 274.252702 
L 444.60551 274.069232 
L 445.238163 274.023364 
L 445.870816 274.264169 
L 446.503469 274.1495 
L 447.136122 274.229768 
L 449.034082 274.195368 
L 449.666735 274.252702 
L 450.299388 273.66789 
L 452.197347 273.392684 
L 452.83 272.934008 
L 453.462653 272.681736 
L 454.095306 272.005189 
L 456.625918 271.718517 
L 457.258571 272.257461 
L 457.891224 271.340109 
L 459.789184 269.918213 
L 461.05449 269.757676 
L 461.687143 268.748589 
L 462.319796 268.266979 
L 462.952449 267.464296 
L 463.585102 267.04002 
L 464.217755 266.053867 
L 465.483061 265.732793 
L 466.115714 264.631971 
L 466.748367 263.96689 
L 467.38102 263.63435 
L 468.013673 263.519681 
L 469.911633 262.843134 
L 471.176939 261.868447 
L 471.809592 260.870826 
L 472.442245 259.08199 
L 473.074898 258.45131 
L 473.707551 258.11877 
L 474.340204 257.992634 
L 474.972857 257.086749 
L 475.60551 255.813922 
L 476.870816 255.011239 
L 477.503469 254.151221 
L 478.136122 254.26589 
L 479.401429 254.048019 
L 481.299388 251.15836 
L 481.932041 249.644729 
L 483.197347 248.807645 
L 483.83 247.959094 
L 484.462653 248.807645 
L 485.095306 248.154031 
L 485.727959 248.692976 
L 486.360612 249.793798 
L 486.993265 249.243387 
L 487.625918 249.208986 
L 488.258571 249.335122 
L 488.891224 248.681509 
L 489.523878 249.793798 
L 490.156531 250.562081 
L 490.789184 253.509075 
L 491.421837 254.56403 
L 492.05449 255.137375 
L 493.319796 257.270219 
L 494.585102 258.290773 
L 495.217755 257.981167 
L 495.850408 258.462777 
L 496.483061 258.474244 
L 497.115714 258.657714 
L 497.748367 259.437464 
L 498.38102 258.749449 
L 499.013673 259.425997 
L 499.646327 258.462777 
L 500.27898 258.107303 
L 500.911633 258.290773 
L 501.544286 258.680648 
L 502.176939 258.244906 
L 502.809592 259.701202 
L 503.442245 259.448931 
L 504.707551 260.171345 
L 505.340204 260.423617 
L 506.60551 263.565549 
L 507.238163 264.505835 
L 507.870816 265.835995 
L 508.503469 266.478142 
L 510.401429 266.180003 
L 511.034082 267.017086 
L 511.666735 267.544564 
L 513.564694 267.452829 
L 514.197347 267.074421 
L 514.83 267.37256 
L 515.462653 267.028553 
L 516.095306 267.303759 
L 516.727959 267.303759 
L 517.993265 267.624832 
L 519.258571 267.888571 
L 520.523878 266.168536 
L 521.156531 265.526389 
L 522.421837 265.033312 
L 523.05449 265.113581 
L 523.687143 264.356765 
L 524.319796 264.643438 
L 524.952449 264.379699 
L 525.585102 263.943956 
L 526.850408 263.63435 
L 527.483061 263.863688 
L 528.748367 262.544994 
L 529.38102 262.751399 
L 530.013673 263.187141 
L 530.646327 262.728465 
L 531.27898 262.911935 
L 531.911633 262.889001 
L 532.544286 263.703151 
L 533.176939 263.680218 
L 533.809592 263.405012 
L 534.442245 262.659663 
L 535.074898 262.602329 
L 536.340204 262.67113 
L 536.972857 261.650576 
L 537.60551 261.501506 
L 538.238163 261.593241 
L 538.870816 262.074851 
L 540.768776 262.212454 
L 542.034082 263.198608 
L 542.666735 262.980737 
L 543.932041 263.565549 
L 545.197347 263.645817 
L 545.83 263.863688 
L 546.462653 263.175674 
L 547.095306 262.923402 
L 548.360612 261.558841 
L 549.625918 261.478572 
L 550.258571 260.985496 
L 550.891224 260.767624 
L 551.523878 257.373421 
L 552.156531 260.824959 
L 553.421837 260.480952 
L 554.05449 260.71029 
L 554.687143 260.607088 
L 555.319796 256.937679 
L 555.952449 259.942007 
L 556.585102 256.249665 
L 557.217755 259.185192 
L 557.850408 259.781471 
L 558.483061 256.467536 
L 559.115714 255.951525 
L 559.748367 260.056676 
L 560.38102 261.455639 
L 561.013673 264.666371 
L 561.646327 264.93011 
L 562.27898 264.953044 
L 562.911633 268.186711 
L 563.544286 268.33578 
L 564.176939 268.175244 
L 564.809592 267.292292 
L 565.442245 264.941577 
L 566.074898 264.815441 
L 566.707551 264.872776 
L 567.340204 261.467105 
L 567.972857 265.457588 
L 568.60551 262.418858 
L 569.870816 264.138894 
L 571.136122 264.368232 
L 571.768776 265.102114 
L 572.401429 262.33859 
L 573.034082 266.994153 
L 573.666735 266.994153 
L 574.299388 266.70748 
L 575.564694 266.650146 
L 576.197347 266.902417 
L 576.83 267.017086 
L 577.462653 266.85655 
L 578.727959 267.888571 
L 580.625918 268.014707 
L 581.258571 268.66832 
L 581.891224 269.035261 
L 582.523878 269.184331 
L 583.156531 269.459537 
L 584.421837 269.516871 
L 585.05449 270.159018 
L 585.687143 270.342488 
L 586.319796 270.675028 
L 586.952449 272.383597 
L 587.585102 272.922541 
L 588.850408 272.830806 
L 589.483061 273.094545 
L 590.115714 273.862827 
L 590.748367 273.920162 
L 591.38102 272.899608 
L 592.646327 272.991343 
L 593.27898 273.014277 
L 593.911633 274.550842 
L 594.544286 273.931629 
L 595.176939 274.401772 
L 595.809592 274.229768 
L 597.707551 274.172434 
L 598.340204 272.968409 
L 598.972857 273.346817 
L 599.60551 273.541754 
L 600.238163 274.539375 
L 600.870816 274.757246 
L 602.136122 274.768713 
L 602.768776 273.908695 
L 603.401429 274.00043 
L 604.034082 273.713758 
L 604.666735 272.899608 
L 605.299388 272.601468 
L 606.564694 272.601468 
L 607.197347 273.392684 
L 607.83 272.578534 
L 607.83 272.578534 
" clip-path="url(#p6ca1d7aad8)" style="fill: none; stroke: #d8b009; stroke-width: 1.5; stroke-linecap: square"/>
   </g>
   <g id="line2d_28">
    <path d="M 49.83 279 
L 78.299388 278.896798 
L 80.83 278.128515 
L 83.993265 276.179142 
L 84.625918 275.571396 
L 85.258571 274.069232 
L 86.523878 270.732363 
L 87.789184 265.102114 
L 88.421837 263.072472 
L 89.687143 256.708341 
L 92.217755 235.253765 
L 92.850408 230.781673 
L 93.483061 228.568561 
L 94.115714 220.495861 
L 94.748367 216.39071 
L 96.013673 206.666776 
L 96.646327 205.657689 
L 97.27898 205.027009 
L 97.911633 203.226705 
L 98.544286 203.570713 
L 99.176939 205.279281 
L 99.809592 206.185166 
L 100.442245 208.581749 
L 101.074898 205.54302 
L 101.707551 208.100139 
L 102.340204 209.843108 
L 102.972857 208.157474 
L 103.60551 208.455613 
L 104.238163 212.549298 
L 104.870816 211.35674 
L 105.503469 214.716542 
L 106.136122 215.519225 
L 107.401429 221.310011 
L 108.034082 222.307632 
L 108.666735 222.858043 
L 109.299388 226.515985 
L 109.932041 229.153373 
L 110.564694 230.414732 
L 111.197347 230.976611 
L 111.83 233.774535 
L 112.462653 235.173497 
L 113.095306 237.203139 
L 113.727959 238.5677 
L 114.360612 242.145374 
L 114.993265 242.569649 
L 115.625918 243.555803 
L 116.258571 244.828629 
L 116.891224 247.12201 
L 117.523878 248.314568 
L 118.156531 250.940489 
L 118.789184 249.38099 
L 119.421837 251.101025 
L 120.05449 251.582635 
L 121.319796 254.26589 
L 121.952449 255.183243 
L 122.585102 255.85979 
L 123.217755 258.049968 
L 123.850408 254.472295 
L 124.483061 254.953905 
L 125.115714 259.185192 
L 125.748367 258.107303 
L 126.38102 257.316087 
L 127.013673 257.522491 
L 127.646327 258.279306 
L 128.27898 261.937248 
L 128.911633 262.143653 
L 129.544286 260.790558 
L 130.176939 262.716998 
L 130.809592 265.147981 
L 132.074898 265.457588 
L 132.707551 265.526389 
L 133.340204 265.973598 
L 133.972857 266.592811 
L 134.60551 267.624832 
L 135.238163 268.255512 
L 135.870816 269.711809 
L 137.136122 270.434224 
L 137.768776 270.640628 
L 138.401429 271.500645 
L 139.034082 272.119858 
L 139.666735 272.22306 
L 140.932041 273.174813 
L 141.564694 273.117479 
L 142.197347 273.289482 
L 143.462653 273.851361 
L 144.095306 273.48442 
L 144.727959 273.564688 
L 145.360612 273.920162 
L 146.625918 273.851361 
L 147.258571 274.310037 
L 147.891224 274.195368 
L 148.523878 274.860448 
L 149.156531 275.181521 
L 151.687143 275.525528 
L 152.319796 275.984205 
L 153.585102 276.270877 
L 154.850408 276.55755 
L 156.115714 276.683686 
L 156.748367 277.03916 
L 159.27898 277.279965 
L 159.911633 277.279965 
L 161.176939 277.601038 
L 161.809592 277.773041 
L 163.707551 277.669839 
L 164.972857 277.795975 
L 165.60551 277.601038 
L 167.503469 277.864777 
L 169.401429 277.956512 
L 170.034082 278.18585 
L 170.666735 277.979446 
L 172.564694 278.18585 
L 173.197347 277.990913 
L 173.83 278.048247 
L 175.095306 277.979446 
L 176.993265 277.990913 
L 177.625918 278.162916 
L 178.891224 278.208784 
L 180.156531 278.449589 
L 180.789184 278.277585 
L 183.952449 278.139982 
L 184.585102 278.059714 
L 188.38102 278.403721 
L 190.911633 278.380787 
L 191.544286 278.048247 
L 194.707551 278.117048 
L 195.340204 278.048247 
L 195.972857 278.105582 
L 197.870816 277.646905 
L 199.136122 277.291431 
L 200.401429 277.153829 
L 202.299388 276.660752 
L 203.564694 276.580483 
L 204.197347 276.55755 
L 205.462653 275.766333 
L 206.095306 275.548462 
L 206.727959 275.181521 
L 208.625918 274.768713 
L 210.523878 274.527908 
L 211.156531 274.287103 
L 213.05449 273.197747 
L 214.952449 270.961701 
L 215.585102 270.399823 
L 216.217755 269.608607 
L 216.850408 269.585673 
L 217.483061 269.241666 
L 218.115714 268.117909 
L 219.38102 266.913884 
L 220.013673 265.904797 
L 220.646327 265.629591 
L 221.27898 264.666371 
L 221.911633 264.414099 
L 223.176939 261.604708 
L 223.809592 260.56122 
L 224.442245 259.987875 
L 225.074898 258.244906 
L 225.707551 258.11877 
L 226.972857 257.384888 
L 227.60551 255.297912 
L 228.870816 253.245336 
L 229.503469 252.247715 
L 230.136122 252.316517 
L 230.768776 251.63997 
L 231.401429 250.091938 
L 232.034082 248.89938 
L 232.666735 246.778003 
L 233.299388 246.537198 
L 233.932041 245.97532 
L 235.197347 245.619846 
L 235.83 244.851563 
L 237.095306 246.319327 
L 237.727959 244.771295 
L 238.360612 246.170257 
L 238.993265 243.521402 
L 239.625918 243.601671 
L 240.258571 243.498469 
L 240.891224 241.594963 
L 241.523878 241.64083 
L 242.156531 241.537628 
L 242.789184 239.943729 
L 243.421837 242.053639 
L 244.687143 242.156841 
L 245.319796 242.695785 
L 245.952449 243.659005 
L 246.585102 243.842476 
L 247.217755 244.782762 
L 247.850408 244.599291 
L 248.483061 244.759828 
L 249.115714 244.805695 
L 249.748367 246.124389 
L 250.38102 244.954765 
L 251.013673 245.872117 
L 251.646327 244.461688 
L 252.27898 245.459309 
L 252.911633 244.954765 
L 253.544286 246.021187 
L 254.176939 245.115302 
L 254.809592 244.931831 
L 255.442245 244.186483 
L 256.074898 244.014479 
L 256.707551 241.893102 
L 257.340204 242.099506 
L 257.972857 239.978129 
L 258.60551 238.441564 
L 259.238163 237.948488 
L 259.870816 237.008201 
L 260.503469 240.712011 
L 261.136122 240.505607 
L 261.768776 238.877307 
L 262.401429 241.549095 
L 263.034082 238.854373 
L 263.666735 234.382281 
L 264.299388 233.889204 
L 264.932041 231.194482 
L 265.564694 229.956056 
L 266.197347 229.382711 
L 266.83 224.578079 
L 267.462653 223.844197 
L 268.095306 221.539349 
L 269.360612 206.563574 
L 270.625918 203.868852 
L 271.258571 199.660499 
L 271.891224 193.651842 
L 272.523878 192.654221 
L 273.156531 193.147298 
L 273.789184 190.154436 
L 274.421837 188.847209 
L 275.05449 188.010125 
L 275.687143 183.790305 
L 276.319796 180.843311 
L 276.952449 180.350234 
L 277.585102 179.03154 
L 278.217755 178.435261 
L 278.850408 179.237945 
L 279.483061 179.32968 
L 280.115714 179.054474 
L 280.748367 180.201164 
L 281.38102 180.854778 
L 282.646327 184.294849 
L 283.27898 184.535654 
L 284.544286 188.812809 
L 285.176939 193.445437 
L 285.809592 197.149247 
L 286.442245 199.832502 
L 287.074898 204.132591 
L 287.707551 206.597975 
L 288.340204 207.446526 
L 288.972857 212.010353 
L 289.60551 215.679762 
L 291.503469 223.695127 
L 292.768776 226.171978 
L 295.299388 237.260473 
L 295.932041 239.267181 
L 297.197347 240.390938 
L 297.83 243.26913 
L 298.462653 246.674801 
L 299.095306 248.176965 
L 300.360612 252.098646 
L 301.625918 253.78428 
L 302.258571 256.134996 
L 302.891224 255.618985 
L 303.523878 256.559271 
L 304.156531 257.82063 
L 304.789184 259.334261 
L 305.421837 260.045209 
L 306.05449 260.492419 
L 306.687143 261.776712 
L 307.319796 265.182382 
L 308.585102 266.569877 
L 309.850408 267.33816 
L 310.483061 267.349627 
L 311.115714 268.737122 
L 311.748367 269.299 
L 313.013673 271.156638 
L 314.27898 271.661182 
L 314.911633 272.18866 
L 315.544286 272.165726 
L 316.809592 273.025744 
L 318.707551 273.943096 
L 319.340204 273.885761 
L 320.60551 275.170054 
L 321.870816 275.525528 
L 322.503469 276.07594 
L 323.136122 276.202076 
L 323.768776 276.144741 
L 324.401429 276.546083 
L 326.299388 276.40848 
L 326.932041 276.064473 
L 327.564694 276.098874 
L 328.197347 276.247943 
L 328.83 276.213543 
L 329.462653 276.293811 
L 330.727959 276.844222 
L 332.625918 276.958891 
L 333.258571 276.844222 
L 334.523878 277.176762 
L 335.156531 277.096494 
L 336.421837 277.130895 
L 337.05449 277.119428 
L 337.687143 277.302898 
L 338.952449 277.142362 
L 340.217755 277.715707 
L 341.483061 277.750108 
L 343.38102 278.03678 
L 344.646327 278.071181 
L 345.27898 278.208784 
L 345.911633 278.162916 
L 346.544286 278.002379 
L 347.176939 278.18585 
L 349.074898 278.151449 
L 350.340204 278.128515 
L 351.60551 278.36932 
L 354.768776 278.541324 
L 356.666735 278.346387 
L 359.197347 278.323453 
L 359.83 278.495456 
L 364.891224 278.231718 
L 365.523878 278.357853 
L 367.421837 278.254651 
L 373.115714 277.956512 
L 374.38102 277.818909 
L 376.911633 277.601038 
L 378.809592 277.692773 
L 379.442245 277.589571 
L 380.707551 277.601038 
L 381.972857 277.3717 
L 383.238163 276.993292 
L 383.870816 276.958891 
L 385.136122 276.649285 
L 385.768776 276.683686 
L 387.034082 276.339679 
L 387.666735 275.984205 
L 388.932041 275.617264 
L 389.564694 275.59433 
L 390.197347 275.44526 
L 390.83 274.848981 
L 392.095306 274.390305 
L 392.727959 274.218301 
L 393.360612 273.748158 
L 394.625918 273.805493 
L 395.258571 273.472953 
L 395.891224 272.85374 
L 397.156531 272.727604 
L 397.789184 272.922541 
L 398.421837 272.498266 
L 399.687143 272.280395 
L 400.952449 272.360663 
L 402.217755 271.695583 
L 402.850408 271.924921 
L 404.115714 271.70705 
L 404.748367 271.856119 
L 406.013673 271.729984 
L 406.646327 271.833186 
L 407.27898 271.672649 
L 407.911633 271.787318 
L 408.544286 271.512112 
L 409.176939 271.477712 
L 410.442245 271.087837 
L 411.074898 270.984635 
L 411.707551 271.099304 
L 412.340204 270.938767 
L 412.972857 270.8929 
L 414.238163 270.124617 
L 414.870816 270.285154 
L 415.503469 269.941147 
L 416.768776 269.723276 
L 417.401429 271.133705 
L 418.034082 270.480091 
L 418.666735 270.055816 
L 419.299388 269.826478 
L 419.932041 269.987014 
L 420.564694 269.906746 
L 421.197347 269.941147 
L 421.83 268.117909 
L 423.095306 268.416049 
L 424.360612 267.705101 
L 424.993265 267.842703 
L 425.625918 267.659233 
L 426.258571 267.922972 
L 426.891224 267.81977 
L 427.523878 267.911505 
L 428.156531 267.52163 
L 429.421837 267.361094 
L 430.05449 267.487229 
L 430.687143 267.292292 
L 431.319796 267.6707 
L 431.952449 267.257891 
L 432.585102 267.269358 
L 433.217755 267.6707 
L 433.850408 267.647766 
L 434.483061 267.762435 
L 435.115714 268.072042 
L 435.748367 268.163777 
L 437.013673 269.425136 
L 437.646327 269.482471 
L 438.27898 269.723276 
L 438.911633 269.723276 
L 441.442245 270.159018 
L 442.074898 269.78061 
L 443.340204 269.975547 
L 443.972857 269.769143 
L 444.60551 269.906746 
L 445.238163 269.493937 
L 445.870816 269.276066 
L 446.503469 269.379268 
L 447.768776 268.96646 
L 449.034082 268.026174 
L 449.666735 268.507784 
L 450.299388 268.094975 
L 450.932041 268.244045 
L 451.564694 268.072042 
L 452.197347 268.129376 
L 454.095306 266.776281 
L 454.727959 266.70748 
L 455.360612 266.352006 
L 456.625918 266.294672 
L 457.258571 265.962131 
L 457.891224 265.870396 
L 458.523878 265.26265 
L 459.156531 265.193849 
L 460.421837 265.457588 
L 461.05449 265.297051 
L 461.687143 265.629591 
L 462.319796 265.641058 
L 462.952449 265.870396 
L 463.585102 266.420807 
L 464.850408 266.37494 
L 465.483061 266.489609 
L 466.115714 267.051487 
L 466.748367 267.223491 
L 467.38102 267.212024 
L 468.013673 267.051487 
L 469.27898 267.166156 
L 469.911633 267.18909 
L 471.809592 268.943526 
L 472.442245 268.932059 
L 473.707551 269.264599 
L 474.972857 269.436603 
L 475.60551 269.161397 
L 478.136122 269.402202 
L 478.768776 269.287533 
L 479.401429 269.058195 
L 480.034082 269.184331 
L 480.666735 269.11553 
L 481.299388 269.390735 
L 482.564694 269.356335 
L 483.197347 269.425136 
L 483.83 269.769143 
L 485.095306 269.769143 
L 486.360612 269.96408 
L 486.993265 270.021415 
L 487.625918 269.96408 
L 488.258571 269.711809 
L 488.891224 269.975547 
L 489.523878 269.92968 
L 490.156531 269.620073 
L 490.789184 270.950234 
L 491.421837 271.454778 
L 492.05449 270.319554 
L 492.687143 272.073991 
L 493.319796 273.025744 
L 493.952449 270.8929 
L 494.585102 270.147551 
L 495.217755 268.48485 
L 495.850408 267.682167 
L 496.483061 268.828857 
L 497.115714 268.473383 
L 497.748367 265.205316 
L 498.38102 266.386407 
L 499.013673 266.088267 
L 499.646327 264.242096 
L 500.911633 263.577016 
L 501.544286 259.804405 
L 502.176939 259.11639 
L 502.809592 257.923832 
L 503.442245 257.384888 
L 504.074898 257.705961 
L 504.707551 257.809163 
L 505.340204 257.614226 
L 505.972857 256.937679 
L 506.60551 257.419289 
L 507.238163 257.453689 
L 508.503469 257.201418 
L 509.136122 257.327553 
L 509.768776 257.751829 
L 510.401429 257.705961 
L 511.034082 257.877965 
L 511.666735 257.774763 
L 512.932041 257.900899 
L 514.197347 257.78623 
L 514.83 250.000203 
L 515.462653 247.832958 
L 516.727959 248.2687 
L 517.360612 248.670042 
L 518.625918 248.922314 
L 519.258571 258.164637 
L 519.891224 261.054297 
L 520.523878 262.384458 
L 521.156531 263.072472 
L 521.789184 264.150361 
L 522.421837 264.414099 
L 523.05449 264.540235 
L 524.319796 266.409341 
L 525.585102 267.108822 
L 526.217755 267.556031 
L 526.850408 267.303759 
L 527.483061 267.361094 
L 528.748367 268.106442 
L 529.38102 268.794456 
L 530.013673 269.241666 
L 530.646327 270.709429 
L 531.27898 271.55798 
L 531.911633 270.342488 
L 532.544286 269.608607 
L 533.176939 270.640628 
L 533.809592 269.860878 
L 534.442245 269.998481 
L 536.340204 269.96408 
L 536.972857 270.59476 
L 537.60551 270.044349 
L 538.238163 270.617694 
L 540.136122 270.571826 
L 540.768776 270.606227 
L 541.401429 270.468624 
L 542.034082 270.124617 
L 542.666735 270.181952 
L 543.299388 270.032882 
L 544.564694 270.032882 
L 547.095306 268.656854 
L 547.727959 268.140843 
L 548.993265 268.140843 
L 550.258571 266.925351 
L 550.891224 266.730414 
L 551.523878 266.352006 
L 552.156531 266.134135 
L 554.05449 266.22587 
L 554.687143 265.446121 
L 555.319796 234.095608 
L 555.952449 232.639311 
L 556.585102 230.850475 
L 557.850408 230.850475 
L 558.483061 229.268042 
L 559.115714 230.231262 
L 559.748367 256.479003 
L 560.38102 256.134996 
L 561.013673 260.114011 
L 562.27898 260.114011 
L 562.911633 264.104493 
L 563.544286 261.868447 
L 564.176939 263.519681 
L 565.442245 256.410201 
L 566.707551 256.398734 
L 567.340204 252.48852 
L 567.972857 252.855461 
L 568.60551 255.263511 
L 569.238163 259.838805 
L 569.870816 261.019896 
L 571.136122 261.031363 
L 571.768776 264.941577 
L 572.401429 265.457588 
L 573.034082 266.317605 
L 573.666735 264.138894 
L 574.299388 264.001291 
L 575.564694 264.001291 
L 576.197347 261.570308 
L 576.83 262.957803 
L 577.462653 263.198608 
L 578.095306 266.088267 
L 578.727959 267.04002 
L 579.993265 267.017086 
L 580.625918 267.636299 
L 581.258571 268.794456 
L 581.891224 269.688875 
L 582.523878 269.883812 
L 583.156531 270.59476 
L 584.421837 270.617694 
L 585.687143 271.752917 
L 586.319796 272.177193 
L 586.952449 273.071611 
L 587.585102 273.381218 
L 588.850408 273.358284 
L 590.115714 273.931629 
L 590.748367 273.96603 
L 591.38102 274.998051 
L 592.013673 275.686065 
L 593.27898 275.708999 
L 594.544286 275.078319 
L 595.176939 275.135654 
L 595.809592 274.195368 
L 596.442245 273.622023 
L 597.707551 273.622023 
L 598.340204 274.310037 
L 599.60551 275.227389 
L 600.238163 275.479661 
L 600.870816 275.330591 
L 602.136122 275.330591 
L 603.401429 275.032452 
L 604.034082 274.699911 
L 604.666735 274.504974 
L 607.197347 274.275636 
L 607.83 274.138033 
L 607.83 274.138033 
" clip-path="url(#p6ca1d7aad8)" style="fill: none; stroke: #89f9c9; stroke-width: 1.5; stroke-linecap: square"/>
   </g>
   <g id="text_17">
    <!-- US -->
    <g style="fill: #7516fd" transform="translate(624.57 240.940011)scale(0.14 -0.14)">
     <defs>
      <path id="DejaVuSans-55" d="M 556 4666 
L 1191 4666 
L 1191 1831 
Q 1191 1081 1462 751 
Q 1734 422 2344 422 
Q 2950 422 3222 751 
Q 3494 1081 3494 1831 
L 3494 4666 
L 4128 4666 
L 4128 1753 
Q 4128 841 3676 375 
Q 3225 -91 2344 -91 
Q 1459 -91 1007 375 
Q 556 841 556 1753 
L 556 4666 
z
" transform="scale(0.015625)"/>
      <path id="DejaVuSans-53" d="M 3425 4513 
L 3425 3897 
Q 3066 4069 2747 4153 
Q 2428 4238 2131 4238 
Q 1616 4238 1336 4038 
Q 1056 3838 1056 3469 
Q 1056 3159 1242 3001 
Q 1428 2844 1947 2747 
L 2328 2669 
Q 3034 2534 3370 2195 
Q 3706 1856 3706 1288 
Q 3706 609 3251 259 
Q 2797 -91 1919 -91 
Q 1588 -91 1214 -16 
Q 841 59 441 206 
L 441 856 
Q 825 641 1194 531 
Q 1563 422 1919 422 
Q 2459 422 2753 634 
Q 3047 847 3047 1241 
Q 3047 1584 2836 1778 
Q 2625 1972 2144 2069 
L 1759 2144 
Q 1053 2284 737 2584 
Q 422 2884 422 3419 
Q 422 4038 858 4394 
Q 1294 4750 2059 4750 
Q 2388 4750 2728 4690 
Q 3069 4631 3425 4513 
z
" transform="scale(0.015625)"/>
     </defs>
     <use xlink:href="#DejaVuSans-55"/>
     <use xlink:href="#DejaVuSans-53" x="73.193359"/>
    </g>
   </g>
   <g id="text_18">
    <!-- Brazil -->
    <g style="fill: #42537f" transform="translate(624.57 254.940011)scale(0.14 -0.14)">
     <defs>
      <path id="DejaVuSans-42" d="M 1259 2228 
L 1259 519 
L 2272 519 
Q 2781 519 3026 730 
Q 3272 941 3272 1375 
Q 3272 1813 3026 2020 
Q 2781 2228 2272 2228 
L 1259 2228 
z
M 1259 4147 
L 1259 2741 
L 2194 2741 
Q 2656 2741 2882 2914 
Q 3109 3088 3109 3444 
Q 3109 3797 2882 3972 
Q 2656 4147 2194 4147 
L 1259 4147 
z
M 628 4666 
L 2241 4666 
Q 2963 4666 3353 4366 
Q 3744 4066 3744 3513 
Q 3744 3084 3544 2831 
Q 3344 2578 2956 2516 
Q 3422 2416 3680 2098 
Q 3938 1781 3938 1306 
Q 3938 681 3513 340 
Q 3088 0 2303 0 
L 628 0 
L 628 4666 
z
" transform="scale(0.015625)"/>
      <path id="DejaVuSans-72" d="M 2631 2963 
Q 2534 3019 2420 3045 
Q 2306 3072 2169 3072 
Q 1681 3072 1420 2755 
Q 1159 2438 1159 1844 
L 1159 0 
L 581 0 
L 581 3500 
L 1159 3500 
L 1159 2956 
Q 1341 3275 1631 3429 
Q 1922 3584 2338 3584 
Q 2397 3584 2469 3576 
Q 2541 3569 2628 3553 
L 2631 2963 
z
" transform="scale(0.015625)"/>
      <path id="DejaVuSans-61" d="M 2194 1759 
Q 1497 1759 1228 1600 
Q 959 1441 959 1056 
Q 959 750 1161 570 
Q 1363 391 1709 391 
Q 2188 391 2477 730 
Q 2766 1069 2766 1631 
L 2766 1759 
L 2194 1759 
z
M 3341 1997 
L 3341 0 
L 2766 0 
L 2766 531 
Q 2569 213 2275 61 
Q 1981 -91 1556 -91 
Q 1019 -91 701 211 
Q 384 513 384 1019 
Q 384 1609 779 1909 
Q 1175 2209 1959 2209 
L 2766 2209 
L 2766 2266 
Q 2766 2663 2505 2880 
Q 2244 3097 1772 3097 
Q 1472 3097 1187 3025 
Q 903 2953 641 2809 
L 641 3341 
Q 956 3463 1253 3523 
Q 1550 3584 1831 3584 
Q 2591 3584 2966 3190 
Q 3341 2797 3341 1997 
z
" transform="scale(0.015625)"/>
      <path id="DejaVuSans-7a" d="M 353 3500 
L 3084 3500 
L 3084 2975 
L 922 459 
L 3084 459 
L 3084 0 
L 275 0 
L 275 525 
L 2438 3041 
L 353 3041 
L 353 3500 
z
" transform="scale(0.015625)"/>
      <path id="DejaVuSans-69" d="M 603 3500 
L 1178 3500 
L 1178 0 
L 603 0 
L 603 3500 
z
M 603 4863 
L 1178 4863 
L 1178 4134 
L 603 4134 
L 603 4863 
z
" transform="scale(0.015625)"/>
      <path id="DejaVuSans-6c" d="M 603 4863 
L 1178 4863 
L 1178 0 
L 603 0 
L 603 4863 
z
" transform="scale(0.015625)"/>
     </defs>
     <use xlink:href="#DejaVuSans-42"/>
     <use xlink:href="#DejaVuSans-72" x="68.603516"/>
     <use xlink:href="#DejaVuSans-61" x="109.716797"/>
     <use xlink:href="#DejaVuSans-7a" x="170.996094"/>
     <use xlink:href="#DejaVuSans-69" x="223.486328"/>
     <use xlink:href="#DejaVuSans-6c" x="251.269531"/>
    </g>
   </g>
   <g id="text_19">
    <!-- Taiwan* -->
    <g style="fill: #fe7b74" transform="translate(624.57 268.940011)scale(0.14 -0.14)">
     <defs>
      <path id="DejaVuSans-54" d="M -19 4666 
L 3928 4666 
L 3928 4134 
L 2272 4134 
L 2272 0 
L 1638 0 
L 1638 4134 
L -19 4134 
L -19 4666 
z
" transform="scale(0.015625)"/>
      <path id="DejaVuSans-77" d="M 269 3500 
L 844 3500 
L 1563 769 
L 2278 3500 
L 2956 3500 
L 3675 769 
L 4391 3500 
L 4966 3500 
L 4050 0 
L 3372 0 
L 2619 2869 
L 1863 0 
L 1184 0 
L 269 3500 
z
" transform="scale(0.015625)"/>
      <path id="DejaVuSans-6e" d="M 3513 2113 
L 3513 0 
L 2938 0 
L 2938 2094 
Q 2938 2591 2744 2837 
Q 2550 3084 2163 3084 
Q 1697 3084 1428 2787 
Q 1159 2491 1159 1978 
L 1159 0 
L 581 0 
L 581 3500 
L 1159 3500 
L 1159 2956 
Q 1366 3272 1645 3428 
Q 1925 3584 2291 3584 
Q 2894 3584 3203 3211 
Q 3513 2838 3513 2113 
z
" transform="scale(0.015625)"/>
      <path id="DejaVuSans-2a" d="M 3009 3897 
L 1888 3291 
L 3009 2681 
L 2828 2375 
L 1778 3009 
L 1778 1831 
L 1422 1831 
L 1422 3009 
L 372 2375 
L 191 2681 
L 1313 3291 
L 191 3897 
L 372 4206 
L 1422 3572 
L 1422 4750 
L 1778 4750 
L 1778 3572 
L 2828 4206 
L 3009 3897 
z
" transform="scale(0.015625)"/>
     </defs>
     <use xlink:href="#DejaVuSans-54"/>
     <use xlink:href="#DejaVuSans-61" x="44.583984"/>
     <use xlink:href="#DejaVuSans-69" x="105.863281"/>
     <use xlink:href="#DejaVuSans-77" x="133.646484"/>
     <use xlink:href="#DejaVuSans-61" x="215.433594"/>
     <use xlink:href="#DejaVuSans-6e" x="276.712891"/>
     <use xlink:href="#DejaVuSans-2a" x="340.091797"/>
    </g>
   </g>
   <g id="text_20">
    <!-- Germany -->
    <g style="fill: #d8b009" transform="translate(624.57 282.940011)scale(0.14 -0.14)">
     <defs>
      <path id="DejaVuSans-47" d="M 3809 666 
L 3809 1919 
L 2778 1919 
L 2778 2438 
L 4434 2438 
L 4434 434 
Q 4069 175 3628 42 
Q 3188 -91 2688 -91 
Q 1594 -91 976 548 
Q 359 1188 359 2328 
Q 359 3472 976 4111 
Q 1594 4750 2688 4750 
Q 3144 4750 3555 4637 
Q 3966 4525 4313 4306 
L 4313 3634 
Q 3963 3931 3569 4081 
Q 3175 4231 2741 4231 
Q 1884 4231 1454 3753 
Q 1025 3275 1025 2328 
Q 1025 1384 1454 906 
Q 1884 428 2741 428 
Q 3075 428 3337 486 
Q 3600 544 3809 666 
z
" transform="scale(0.015625)"/>
      <path id="DejaVuSans-65" d="M 3597 1894 
L 3597 1613 
L 953 1613 
Q 991 1019 1311 708 
Q 1631 397 2203 397 
Q 2534 397 2845 478 
Q 3156 559 3463 722 
L 3463 178 
Q 3153 47 2828 -22 
Q 2503 -91 2169 -91 
Q 1331 -91 842 396 
Q 353 884 353 1716 
Q 353 2575 817 3079 
Q 1281 3584 2069 3584 
Q 2775 3584 3186 3129 
Q 3597 2675 3597 1894 
z
M 3022 2063 
Q 3016 2534 2758 2815 
Q 2500 3097 2075 3097 
Q 1594 3097 1305 2825 
Q 1016 2553 972 2059 
L 3022 2063 
z
" transform="scale(0.015625)"/>
      <path id="DejaVuSans-6d" d="M 3328 2828 
Q 3544 3216 3844 3400 
Q 4144 3584 4550 3584 
Q 5097 3584 5394 3201 
Q 5691 2819 5691 2113 
L 5691 0 
L 5113 0 
L 5113 2094 
Q 5113 2597 4934 2840 
Q 4756 3084 4391 3084 
Q 3944 3084 3684 2787 
Q 3425 2491 3425 1978 
L 3425 0 
L 2847 0 
L 2847 2094 
Q 2847 2600 2669 2842 
Q 2491 3084 2119 3084 
Q 1678 3084 1418 2786 
Q 1159 2488 1159 1978 
L 1159 0 
L 581 0 
L 581 3500 
L 1159 3500 
L 1159 2956 
Q 1356 3278 1631 3431 
Q 1906 3584 2284 3584 
Q 2666 3584 2933 3390 
Q 3200 3197 3328 2828 
z
" transform="scale(0.015625)"/>
      <path id="DejaVuSans-79" d="M 2059 -325 
Q 1816 -950 1584 -1140 
Q 1353 -1331 966 -1331 
L 506 -1331 
L 506 -850 
L 844 -850 
Q 1081 -850 1212 -737 
Q 1344 -625 1503 -206 
L 1606 56 
L 191 3500 
L 800 3500 
L 1894 763 
L 2988 3500 
L 3597 3500 
L 2059 -325 
z
" transform="scale(0.015625)"/>
     </defs>
     <use xlink:href="#DejaVuSans-47"/>
     <use xlink:href="#DejaVuSans-65" x="77.490234"/>
     <use xlink:href="#DejaVuSans-72" x="139.013672"/>
     <use xlink:href="#DejaVuSans-6d" x="178.376953"/>
     <use xlink:href="#DejaVuSans-61" x="275.789062"/>
     <use xlink:href="#DejaVuSans-6e" x="337.068359"/>
     <use xlink:href="#DejaVuSans-79" x="400.447266"/>
    </g>
   </g>
   <g id="text_21">
    <!-- United Kingdom -->
    <g style="fill: #89f9c9" transform="translate(624.57 296.940011)scale(0.14 -0.14)">
     <defs>
      <path id="DejaVuSans-74" d="M 1172 4494 
L 1172 3500 
L 2356 3500 
L 2356 3053 
L 1172 3053 
L 1172 1153 
Q 1172 725 1289 603 
Q 1406 481 1766 481 
L 2356 481 
L 2356 0 
L 1766 0 
Q 1100 0 847 248 
Q 594 497 594 1153 
L 594 3053 
L 172 3053 
L 172 3500 
L 594 3500 
L 594 4494 
L 1172 4494 
z
" transform="scale(0.015625)"/>
      <path id="DejaVuSans-64" d="M 2906 2969 
L 2906 4863 
L 3481 4863 
L 3481 0 
L 2906 0 
L 2906 525 
Q 2725 213 2448 61 
Q 2172 -91 1784 -91 
Q 1150 -91 751 415 
Q 353 922 353 1747 
Q 353 2572 751 3078 
Q 1150 3584 1784 3584 
Q 2172 3584 2448 3432 
Q 2725 3281 2906 2969 
z
M 947 1747 
Q 947 1113 1208 752 
Q 1469 391 1925 391 
Q 2381 391 2643 752 
Q 2906 1113 2906 1747 
Q 2906 2381 2643 2742 
Q 2381 3103 1925 3103 
Q 1469 3103 1208 2742 
Q 947 2381 947 1747 
z
" transform="scale(0.015625)"/>
      <path id="DejaVuSans-20" transform="scale(0.015625)"/>
      <path id="DejaVuSans-4b" d="M 628 4666 
L 1259 4666 
L 1259 2694 
L 3353 4666 
L 4166 4666 
L 1850 2491 
L 4331 0 
L 3500 0 
L 1259 2247 
L 1259 0 
L 628 0 
L 628 4666 
z
" transform="scale(0.015625)"/>
      <path id="DejaVuSans-67" d="M 2906 1791 
Q 2906 2416 2648 2759 
Q 2391 3103 1925 3103 
Q 1463 3103 1205 2759 
Q 947 2416 947 1791 
Q 947 1169 1205 825 
Q 1463 481 1925 481 
Q 2391 481 2648 825 
Q 2906 1169 2906 1791 
z
M 3481 434 
Q 3481 -459 3084 -895 
Q 2688 -1331 1869 -1331 
Q 1566 -1331 1297 -1286 
Q 1028 -1241 775 -1147 
L 775 -588 
Q 1028 -725 1275 -790 
Q 1522 -856 1778 -856 
Q 2344 -856 2625 -561 
Q 2906 -266 2906 331 
L 2906 616 
Q 2728 306 2450 153 
Q 2172 0 1784 0 
Q 1141 0 747 490 
Q 353 981 353 1791 
Q 353 2603 747 3093 
Q 1141 3584 1784 3584 
Q 2172 3584 2450 3431 
Q 2728 3278 2906 2969 
L 2906 3500 
L 3481 3500 
L 3481 434 
z
" transform="scale(0.015625)"/>
      <path id="DejaVuSans-6f" d="M 1959 3097 
Q 1497 3097 1228 2736 
Q 959 2375 959 1747 
Q 959 1119 1226 758 
Q 1494 397 1959 397 
Q 2419 397 2687 759 
Q 2956 1122 2956 1747 
Q 2956 2369 2687 2733 
Q 2419 3097 1959 3097 
z
M 1959 3584 
Q 2709 3584 3137 3096 
Q 3566 2609 3566 1747 
Q 3566 888 3137 398 
Q 2709 -91 1959 -91 
Q 1206 -91 779 398 
Q 353 888 353 1747 
Q 353 2609 779 3096 
Q 1206 3584 1959 3584 
z
" transform="scale(0.015625)"/>
     </defs>
     <use xlink:href="#DejaVuSans-55"/>
     <use xlink:href="#DejaVuSans-6e" x="73.193359"/>
     <use xlink:href="#DejaVuSans-69" x="136.572266"/>
     <use xlink:href="#DejaVuSans-74" x="164.355469"/>
     <use xlink:href="#DejaVuSans-65" x="203.564453"/>
     <use xlink:href="#DejaVuSans-64" x="265.087891"/>
     <use xlink:href="#DejaVuSans-20" x="328.564453"/>
     <use xlink:href="#DejaVuSans-4b" x="360.351562"/>
     <use xlink:href="#DejaVuSans-69" x="425.927734"/>
     <use xlink:href="#DejaVuSans-6e" x="453.710938"/>
     <use xlink:href="#DejaVuSans-67" x="517.089844"/>
     <use xlink:href="#DejaVuSans-64" x="580.566406"/>
     <use xlink:href="#DejaVuSans-6f" x="644.042969"/>
     <use xlink:href="#DejaVuSans-6d" x="705.224609"/>
    </g>
   </g>
  </g>
 </g>
 <defs>
  <clipPath id="p6ca1d7aad8">
   <rect x="49.83" y="7.2" width="558" height="271.8"/>
  </clipPath>
 </defs>
</svg>
