<?xml version="1.0" encoding="utf-8" standalone="no"?>
<!DOCTYPE svg PUBLIC "-//W3C//DTD SVG 1.1//EN"
  "http://www.w3.org/Graphics/SVG/1.1/DTD/svg11.dtd">
<svg xmlns:xlink="http://www.w3.org/1999/xlink" width="717.876563pt" height="306.749375pt" viewBox="0 0 717.876563 306.749375" xmlns="http://www.w3.org/2000/svg" version="1.1">
 <metadata>
  <rdf:RDF xmlns:dc="http://purl.org/dc/elements/1.1/" xmlns:cc="http://creativecommons.org/ns#" xmlns:rdf="http://www.w3.org/1999/02/22-rdf-syntax-ns#">
   <cc:Work>
    <dc:type rdf:resource="http://purl.org/dc/dcmitype/StillImage"/>
    <dc:date>2022-07-22T10:50:37.957040</dc:date>
    <dc:format>image/svg+xml</dc:format>
    <dc:creator>
     <cc:Agent>
      <dc:title>Matplotlib v3.5.1, https://matplotlib.org/</dc:title>
     </cc:Agent>
    </dc:creator>
   </cc:Work>
  </rdf:RDF>
 </metadata>
 <defs>
  <style type="text/css">*{stroke-linejoin: round; stroke-linecap: butt}</style>
 </defs>
 <g id="figure_1">
  <g id="patch_1">
   <path d="M 0 306.749375 
L 717.876563 306.749375 
L 717.876563 0 
L 0 0 
L 0 306.749375 
z
" style="fill: none"/>
  </g>
  <g id="axes_1">
   <g id="patch_2">
    <path d="M 67.645 279 
L 625.645 279 
L 625.645 7.2 
L 67.645 7.2 
L 67.645 279 
z
" style="fill: none"/>
   </g>
   <g id="matplotlib.axis_1">
    <g id="xtick_1">
     <g id="line2d_1">
      <defs>
       <path id="md7db70681d" d="M 0 0 
L 0 3.5 
" style="stroke: #b0b0b0; stroke-width: 0.4"/>
      </defs>
      <g>
       <use xlink:href="#md7db70681d" x="107.105773" y="279" style="fill: #b0b0b0; stroke: #b0b0b0; stroke-width: 0.4"/>
      </g>
     </g>
     <g id="text_1">
      <!-- 2020-04 -->
      <g style="fill: #b0b0b0" transform="translate(77.857805 296.637812)scale(0.14 -0.14)">
       <defs>
        <path id="DejaVuSans-32" d="M 1228 531 
L 3431 531 
L 3431 0 
L 469 0 
L 469 531 
Q 828 903 1448 1529 
Q 2069 2156 2228 2338 
Q 2531 2678 2651 2914 
Q 2772 3150 2772 3378 
Q 2772 3750 2511 3984 
Q 2250 4219 1831 4219 
Q 1534 4219 1204 4116 
Q 875 4013 500 3803 
L 500 4441 
Q 881 4594 1212 4672 
Q 1544 4750 1819 4750 
Q 2544 4750 2975 4387 
Q 3406 4025 3406 3419 
Q 3406 3131 3298 2873 
Q 3191 2616 2906 2266 
Q 2828 2175 2409 1742 
Q 1991 1309 1228 531 
z
" transform="scale(0.015625)"/>
        <path id="DejaVuSans-30" d="M 2034 4250 
Q 1547 4250 1301 3770 
Q 1056 3291 1056 2328 
Q 1056 1369 1301 889 
Q 1547 409 2034 409 
Q 2525 409 2770 889 
Q 3016 1369 3016 2328 
Q 3016 3291 2770 3770 
Q 2525 4250 2034 4250 
z
M 2034 4750 
Q 2819 4750 3233 4129 
Q 3647 3509 3647 2328 
Q 3647 1150 3233 529 
Q 2819 -91 2034 -91 
Q 1250 -91 836 529 
Q 422 1150 422 2328 
Q 422 3509 836 4129 
Q 1250 4750 2034 4750 
z
" transform="scale(0.015625)"/>
        <path id="DejaVuSans-2d" d="M 313 2009 
L 1997 2009 
L 1997 1497 
L 313 1497 
L 313 2009 
z
" transform="scale(0.015625)"/>
        <path id="DejaVuSans-34" d="M 2419 4116 
L 825 1625 
L 2419 1625 
L 2419 4116 
z
M 2253 4666 
L 3047 4666 
L 3047 1625 
L 3713 1625 
L 3713 1100 
L 3047 1100 
L 3047 0 
L 2419 0 
L 2419 1100 
L 313 1100 
L 313 1709 
L 2253 4666 
z
" transform="scale(0.015625)"/>
       </defs>
       <use xlink:href="#DejaVuSans-32"/>
       <use xlink:href="#DejaVuSans-30" x="63.623047"/>
       <use xlink:href="#DejaVuSans-32" x="127.246094"/>
       <use xlink:href="#DejaVuSans-30" x="190.869141"/>
       <use xlink:href="#DejaVuSans-2d" x="254.492188"/>
       <use xlink:href="#DejaVuSans-30" x="290.576172"/>
       <use xlink:href="#DejaVuSans-34" x="354.199219"/>
      </g>
     </g>
    </g>
    <g id="xtick_2">
     <g id="line2d_2">
      <g>
       <use xlink:href="#md7db70681d" x="163.214061" y="279" style="fill: #b0b0b0; stroke: #b0b0b0; stroke-width: 0.4"/>
      </g>
     </g>
     <g id="text_2">
      <!-- 2020-07 -->
      <g style="fill: #b0b0b0" transform="translate(133.966092 296.637812)scale(0.14 -0.14)">
       <defs>
        <path id="DejaVuSans-37" d="M 525 4666 
L 3525 4666 
L 3525 4397 
L 1831 0 
L 1172 0 
L 2766 4134 
L 525 4134 
L 525 4666 
z
" transform="scale(0.015625)"/>
       </defs>
       <use xlink:href="#DejaVuSans-32"/>
       <use xlink:href="#DejaVuSans-30" x="63.623047"/>
       <use xlink:href="#DejaVuSans-32" x="127.246094"/>
       <use xlink:href="#DejaVuSans-30" x="190.869141"/>
       <use xlink:href="#DejaVuSans-2d" x="254.492188"/>
       <use xlink:href="#DejaVuSans-30" x="290.576172"/>
       <use xlink:href="#DejaVuSans-37" x="354.199219"/>
      </g>
     </g>
    </g>
    <g id="xtick_3">
     <g id="line2d_3">
      <g>
       <use xlink:href="#md7db70681d" x="219.938923" y="279" style="fill: #b0b0b0; stroke: #b0b0b0; stroke-width: 0.4"/>
      </g>
     </g>
     <g id="text_3">
      <!-- 2020-10 -->
      <g style="fill: #b0b0b0" transform="translate(190.690954 296.637812)scale(0.14 -0.14)">
       <defs>
        <path id="DejaVuSans-31" d="M 794 531 
L 1825 531 
L 1825 4091 
L 703 3866 
L 703 4441 
L 1819 4666 
L 2450 4666 
L 2450 531 
L 3481 531 
L 3481 0 
L 794 0 
L 794 531 
z
" transform="scale(0.015625)"/>
       </defs>
       <use xlink:href="#DejaVuSans-32"/>
       <use xlink:href="#DejaVuSans-30" x="63.623047"/>
       <use xlink:href="#DejaVuSans-32" x="127.246094"/>
       <use xlink:href="#DejaVuSans-30" x="190.869141"/>
       <use xlink:href="#DejaVuSans-2d" x="254.492188"/>
       <use xlink:href="#DejaVuSans-31" x="290.576172"/>
       <use xlink:href="#DejaVuSans-30" x="354.199219"/>
      </g>
     </g>
    </g>
    <g id="xtick_4">
     <g id="line2d_4">
      <g>
       <use xlink:href="#md7db70681d" x="276.663785" y="279" style="fill: #b0b0b0; stroke: #b0b0b0; stroke-width: 0.4"/>
      </g>
     </g>
     <g id="text_4">
      <!-- 2021-01 -->
      <g style="fill: #b0b0b0" transform="translate(247.415816 296.637812)scale(0.14 -0.14)">
       <use xlink:href="#DejaVuSans-32"/>
       <use xlink:href="#DejaVuSans-30" x="63.623047"/>
       <use xlink:href="#DejaVuSans-32" x="127.246094"/>
       <use xlink:href="#DejaVuSans-31" x="190.869141"/>
       <use xlink:href="#DejaVuSans-2d" x="254.492188"/>
       <use xlink:href="#DejaVuSans-30" x="290.576172"/>
       <use xlink:href="#DejaVuSans-31" x="354.199219"/>
      </g>
     </g>
    </g>
    <g id="xtick_5">
     <g id="line2d_5">
      <g>
       <use xlink:href="#md7db70681d" x="332.155497" y="279" style="fill: #b0b0b0; stroke: #b0b0b0; stroke-width: 0.4"/>
      </g>
     </g>
     <g id="text_5">
      <!-- 2021-04 -->
      <g style="fill: #b0b0b0" transform="translate(302.907528 296.637812)scale(0.14 -0.14)">
       <use xlink:href="#DejaVuSans-32"/>
       <use xlink:href="#DejaVuSans-30" x="63.623047"/>
       <use xlink:href="#DejaVuSans-32" x="127.246094"/>
       <use xlink:href="#DejaVuSans-31" x="190.869141"/>
       <use xlink:href="#DejaVuSans-2d" x="254.492188"/>
       <use xlink:href="#DejaVuSans-30" x="290.576172"/>
       <use xlink:href="#DejaVuSans-34" x="354.199219"/>
      </g>
     </g>
    </g>
    <g id="xtick_6">
     <g id="line2d_6">
      <g>
       <use xlink:href="#md7db70681d" x="388.263785" y="279" style="fill: #b0b0b0; stroke: #b0b0b0; stroke-width: 0.4"/>
      </g>
     </g>
     <g id="text_6">
      <!-- 2021-07 -->
      <g style="fill: #b0b0b0" transform="translate(359.015816 296.637812)scale(0.14 -0.14)">
       <use xlink:href="#DejaVuSans-32"/>
       <use xlink:href="#DejaVuSans-30" x="63.623047"/>
       <use xlink:href="#DejaVuSans-32" x="127.246094"/>
       <use xlink:href="#DejaVuSans-31" x="190.869141"/>
       <use xlink:href="#DejaVuSans-2d" x="254.492188"/>
       <use xlink:href="#DejaVuSans-30" x="290.576172"/>
       <use xlink:href="#DejaVuSans-37" x="354.199219"/>
      </g>
     </g>
    </g>
    <g id="xtick_7">
     <g id="line2d_7">
      <g>
       <use xlink:href="#md7db70681d" x="444.988646" y="279" style="fill: #b0b0b0; stroke: #b0b0b0; stroke-width: 0.4"/>
      </g>
     </g>
     <g id="text_7">
      <!-- 2021-10 -->
      <g style="fill: #b0b0b0" transform="translate(415.740678 296.637812)scale(0.14 -0.14)">
       <use xlink:href="#DejaVuSans-32"/>
       <use xlink:href="#DejaVuSans-30" x="63.623047"/>
       <use xlink:href="#DejaVuSans-32" x="127.246094"/>
       <use xlink:href="#DejaVuSans-31" x="190.869141"/>
       <use xlink:href="#DejaVuSans-2d" x="254.492188"/>
       <use xlink:href="#DejaVuSans-31" x="290.576172"/>
       <use xlink:href="#DejaVuSans-30" x="354.199219"/>
      </g>
     </g>
    </g>
    <g id="xtick_8">
     <g id="line2d_8">
      <g>
       <use xlink:href="#md7db70681d" x="501.713508" y="279" style="fill: #b0b0b0; stroke: #b0b0b0; stroke-width: 0.4"/>
      </g>
     </g>
     <g id="text_8">
      <!-- 2022-01 -->
      <g style="fill: #b0b0b0" transform="translate(472.46554 296.637812)scale(0.14 -0.14)">
       <use xlink:href="#DejaVuSans-32"/>
       <use xlink:href="#DejaVuSans-30" x="63.623047"/>
       <use xlink:href="#DejaVuSans-32" x="127.246094"/>
       <use xlink:href="#DejaVuSans-32" x="190.869141"/>
       <use xlink:href="#DejaVuSans-2d" x="254.492188"/>
       <use xlink:href="#DejaVuSans-30" x="290.576172"/>
       <use xlink:href="#DejaVuSans-31" x="354.199219"/>
      </g>
     </g>
    </g>
    <g id="xtick_9">
     <g id="line2d_9">
      <g>
       <use xlink:href="#md7db70681d" x="557.205221" y="279" style="fill: #b0b0b0; stroke: #b0b0b0; stroke-width: 0.4"/>
      </g>
     </g>
     <g id="text_9">
      <!-- 2022-04 -->
      <g style="fill: #b0b0b0" transform="translate(527.957252 296.637812)scale(0.14 -0.14)">
       <use xlink:href="#DejaVuSans-32"/>
       <use xlink:href="#DejaVuSans-30" x="63.623047"/>
       <use xlink:href="#DejaVuSans-32" x="127.246094"/>
       <use xlink:href="#DejaVuSans-32" x="190.869141"/>
       <use xlink:href="#DejaVuSans-2d" x="254.492188"/>
       <use xlink:href="#DejaVuSans-30" x="290.576172"/>
       <use xlink:href="#DejaVuSans-34" x="354.199219"/>
      </g>
     </g>
    </g>
    <g id="xtick_10">
     <g id="line2d_10">
      <g>
       <use xlink:href="#md7db70681d" x="613.313508" y="279" style="fill: #b0b0b0; stroke: #b0b0b0; stroke-width: 0.4"/>
      </g>
     </g>
     <g id="text_10">
      <!-- 2022-07 -->
      <g style="fill: #b0b0b0" transform="translate(584.06554 296.637812)scale(0.14 -0.14)">
       <use xlink:href="#DejaVuSans-32"/>
       <use xlink:href="#DejaVuSans-30" x="63.623047"/>
       <use xlink:href="#DejaVuSans-32" x="127.246094"/>
       <use xlink:href="#DejaVuSans-32" x="190.869141"/>
       <use xlink:href="#DejaVuSans-2d" x="254.492188"/>
       <use xlink:href="#DejaVuSans-30" x="290.576172"/>
       <use xlink:href="#DejaVuSans-37" x="354.199219"/>
      </g>
     </g>
    </g>
   </g>
   <g id="matplotlib.axis_2">
    <g id="ytick_1">
     <g id="line2d_11">
      <path d="M 67.645 279 
L 625.645 279 
" clip-path="url(#p942ba05777)" style="fill: none; stroke: #b0b0b0; stroke-width: 0.3; stroke-linecap: square"/>
     </g>
     <g id="line2d_12">
      <defs>
       <path id="mf37679e3bc" d="M 0 0 
L -3.5 0 
" style="stroke: #b0b0b0; stroke-width: 0.3"/>
      </defs>
      <g>
       <use xlink:href="#mf37679e3bc" x="67.645" y="279" style="fill: #b0b0b0; stroke: #b0b0b0; stroke-width: 0.3"/>
      </g>
     </g>
     <g id="text_11">
      <!-- 0 -->
      <g style="fill: #b0b0b0" transform="translate(51.7375 284.318906)scale(0.14 -0.14)">
       <use xlink:href="#DejaVuSans-30"/>
      </g>
     </g>
    </g>
    <g id="ytick_2">
     <g id="line2d_13">
      <path d="M 67.645 243.090748 
L 625.645 243.090748 
" clip-path="url(#p942ba05777)" style="fill: none; stroke: #b0b0b0; stroke-width: 0.3; stroke-linecap: square"/>
     </g>
     <g id="line2d_14">
      <g>
       <use xlink:href="#mf37679e3bc" x="67.645" y="243.090748" style="fill: #b0b0b0; stroke: #b0b0b0; stroke-width: 0.3"/>
      </g>
     </g>
     <g id="text_12">
      <!-- 25000 -->
      <g style="fill: #b0b0b0" transform="translate(16.1075 248.409654)scale(0.14 -0.14)">
       <defs>
        <path id="DejaVuSans-35" d="M 691 4666 
L 3169 4666 
L 3169 4134 
L 1269 4134 
L 1269 2991 
Q 1406 3038 1543 3061 
Q 1681 3084 1819 3084 
Q 2600 3084 3056 2656 
Q 3513 2228 3513 1497 
Q 3513 744 3044 326 
Q 2575 -91 1722 -91 
Q 1428 -91 1123 -41 
Q 819 9 494 109 
L 494 744 
Q 775 591 1075 516 
Q 1375 441 1709 441 
Q 2250 441 2565 725 
Q 2881 1009 2881 1497 
Q 2881 1984 2565 2268 
Q 2250 2553 1709 2553 
Q 1456 2553 1204 2497 
Q 953 2441 691 2322 
L 691 4666 
z
" transform="scale(0.015625)"/>
       </defs>
       <use xlink:href="#DejaVuSans-32"/>
       <use xlink:href="#DejaVuSans-35" x="63.623047"/>
       <use xlink:href="#DejaVuSans-30" x="127.246094"/>
       <use xlink:href="#DejaVuSans-30" x="190.869141"/>
       <use xlink:href="#DejaVuSans-30" x="254.492188"/>
      </g>
     </g>
    </g>
    <g id="ytick_3">
     <g id="line2d_15">
      <path d="M 67.645 207.181496 
L 625.645 207.181496 
" clip-path="url(#p942ba05777)" style="fill: none; stroke: #b0b0b0; stroke-width: 0.3; stroke-linecap: square"/>
     </g>
     <g id="line2d_16">
      <g>
       <use xlink:href="#mf37679e3bc" x="67.645" y="207.181496" style="fill: #b0b0b0; stroke: #b0b0b0; stroke-width: 0.3"/>
      </g>
     </g>
     <g id="text_13">
      <!-- 50000 -->
      <g style="fill: #b0b0b0" transform="translate(16.1075 212.500403)scale(0.14 -0.14)">
       <use xlink:href="#DejaVuSans-35"/>
       <use xlink:href="#DejaVuSans-30" x="63.623047"/>
       <use xlink:href="#DejaVuSans-30" x="127.246094"/>
       <use xlink:href="#DejaVuSans-30" x="190.869141"/>
       <use xlink:href="#DejaVuSans-30" x="254.492188"/>
      </g>
     </g>
    </g>
    <g id="ytick_4">
     <g id="line2d_17">
      <path d="M 67.645 171.272244 
L 625.645 171.272244 
" clip-path="url(#p942ba05777)" style="fill: none; stroke: #b0b0b0; stroke-width: 0.3; stroke-linecap: square"/>
     </g>
     <g id="line2d_18">
      <g>
       <use xlink:href="#mf37679e3bc" x="67.645" y="171.272244" style="fill: #b0b0b0; stroke: #b0b0b0; stroke-width: 0.3"/>
      </g>
     </g>
     <g id="text_14">
      <!-- 75000 -->
      <g style="fill: #b0b0b0" transform="translate(16.1075 176.591151)scale(0.14 -0.14)">
       <use xlink:href="#DejaVuSans-37"/>
       <use xlink:href="#DejaVuSans-35" x="63.623047"/>
       <use xlink:href="#DejaVuSans-30" x="127.246094"/>
       <use xlink:href="#DejaVuSans-30" x="190.869141"/>
       <use xlink:href="#DejaVuSans-30" x="254.492188"/>
      </g>
     </g>
    </g>
    <g id="ytick_5">
     <g id="line2d_19">
      <path d="M 67.645 135.362993 
L 625.645 135.362993 
" clip-path="url(#p942ba05777)" style="fill: none; stroke: #b0b0b0; stroke-width: 0.3; stroke-linecap: square"/>
     </g>
     <g id="line2d_20">
      <g>
       <use xlink:href="#mf37679e3bc" x="67.645" y="135.362993" style="fill: #b0b0b0; stroke: #b0b0b0; stroke-width: 0.3"/>
      </g>
     </g>
     <g id="text_15">
      <!-- 100000 -->
      <g style="fill: #b0b0b0" transform="translate(7.2 140.681899)scale(0.14 -0.14)">
       <use xlink:href="#DejaVuSans-31"/>
       <use xlink:href="#DejaVuSans-30" x="63.623047"/>
       <use xlink:href="#DejaVuSans-30" x="127.246094"/>
       <use xlink:href="#DejaVuSans-30" x="190.869141"/>
       <use xlink:href="#DejaVuSans-30" x="254.492188"/>
       <use xlink:href="#DejaVuSans-30" x="318.115234"/>
      </g>
     </g>
    </g>
    <g id="ytick_6">
     <g id="line2d_21">
      <path d="M 67.645 99.453741 
L 625.645 99.453741 
" clip-path="url(#p942ba05777)" style="fill: none; stroke: #b0b0b0; stroke-width: 0.3; stroke-linecap: square"/>
     </g>
     <g id="line2d_22">
      <g>
       <use xlink:href="#mf37679e3bc" x="67.645" y="99.453741" style="fill: #b0b0b0; stroke: #b0b0b0; stroke-width: 0.3"/>
      </g>
     </g>
     <g id="text_16">
      <!-- 125000 -->
      <g style="fill: #b0b0b0" transform="translate(7.2 104.772647)scale(0.14 -0.14)">
       <use xlink:href="#DejaVuSans-31"/>
       <use xlink:href="#DejaVuSans-32" x="63.623047"/>
       <use xlink:href="#DejaVuSans-35" x="127.246094"/>
       <use xlink:href="#DejaVuSans-30" x="190.869141"/>
       <use xlink:href="#DejaVuSans-30" x="254.492188"/>
       <use xlink:href="#DejaVuSans-30" x="318.115234"/>
      </g>
     </g>
    </g>
    <g id="ytick_7">
     <g id="line2d_23">
      <path d="M 67.645 63.544489 
L 625.645 63.544489 
" clip-path="url(#p942ba05777)" style="fill: none; stroke: #b0b0b0; stroke-width: 0.3; stroke-linecap: square"/>
     </g>
     <g id="line2d_24">
      <g>
       <use xlink:href="#mf37679e3bc" x="67.645" y="63.544489" style="fill: #b0b0b0; stroke: #b0b0b0; stroke-width: 0.3"/>
      </g>
     </g>
     <g id="text_17">
      <!-- 150000 -->
      <g style="fill: #b0b0b0" transform="translate(7.2 68.863395)scale(0.14 -0.14)">
       <use xlink:href="#DejaVuSans-31"/>
       <use xlink:href="#DejaVuSans-35" x="63.623047"/>
       <use xlink:href="#DejaVuSans-30" x="127.246094"/>
       <use xlink:href="#DejaVuSans-30" x="190.869141"/>
       <use xlink:href="#DejaVuSans-30" x="254.492188"/>
       <use xlink:href="#DejaVuSans-30" x="318.115234"/>
      </g>
     </g>
    </g>
    <g id="ytick_8">
     <g id="line2d_25">
      <path d="M 67.645 27.635237 
L 625.645 27.635237 
" clip-path="url(#p942ba05777)" style="fill: none; stroke: #b0b0b0; stroke-width: 0.3; stroke-linecap: square"/>
     </g>
     <g id="line2d_26">
      <g>
       <use xlink:href="#mf37679e3bc" x="67.645" y="27.635237" style="fill: #b0b0b0; stroke: #b0b0b0; stroke-width: 0.3"/>
      </g>
     </g>
     <g id="text_18">
      <!-- 175000 -->
      <g style="fill: #b0b0b0" transform="translate(7.2 32.954143)scale(0.14 -0.14)">
       <use xlink:href="#DejaVuSans-31"/>
       <use xlink:href="#DejaVuSans-37" x="63.623047"/>
       <use xlink:href="#DejaVuSans-35" x="127.246094"/>
       <use xlink:href="#DejaVuSans-30" x="190.869141"/>
       <use xlink:href="#DejaVuSans-30" x="254.492188"/>
       <use xlink:href="#DejaVuSans-30" x="318.115234"/>
      </g>
     </g>
    </g>
   </g>
   <g id="line2d_27">
    <path d="M 67.645 279 
L 98.473729 278.931465 
L 106.489199 278.287971 
L 108.955497 277.675256 
L 110.188646 277.444206 
L 112.654945 276.828619 
L 113.271519 276.872736 
L 114.504669 276.687649 
L 115.121243 276.696062 
L 115.737818 276.506872 
L 116.354392 276.469321 
L 117.587541 275.731027 
L 119.437265 275.344028 
L 120.05384 275.422002 
L 120.670414 274.975907 
L 121.286989 274.82201 
L 123.753287 272.812118 
L 124.986436 271.376774 
L 125.603011 271.169936 
L 126.219586 271.248526 
L 126.83616 271.05359 
L 127.452735 270.551271 
L 128.069309 270.336636 
L 128.685884 269.370985 
L 129.302459 269.030361 
L 129.919033 267.777435 
L 130.535608 266.901455 
L 131.152182 266.509121 
L 131.768757 266.488396 
L 132.385331 266.122122 
L 133.001906 265.964736 
L 133.618481 265.17145 
L 134.235055 263.939249 
L 134.85163 263.107591 
L 135.468204 262.916554 
L 136.701354 259.779111 
L 137.317928 257.559714 
L 138.551077 255.550848 
L 139.167652 254.775824 
L 139.784227 253.360179 
L 140.400801 253.664073 
L 141.017376 253.703061 
L 141.63395 254.224258 
L 142.250525 252.131261 
L 142.867099 251.088252 
L 143.483674 247.943832 
L 144.100249 248.199301 
L 144.716823 247.718733 
L 145.333398 244.568978 
L 145.949972 243.361196 
L 146.566547 242.619003 
L 147.183122 241.549728 
L 147.799696 243.300253 
L 148.416271 242.322495 
L 149.032845 241.873322 
L 149.64942 241.869013 
L 150.265994 240.28798 
L 150.882569 240.957328 
L 151.499144 242.561754 
L 152.115718 243.087055 
L 152.732293 243.332058 
L 153.348867 241.838439 
L 153.965442 240.753979 
L 155.198591 241.992746 
L 155.815166 235.472241 
L 156.43174 226.793898 
L 157.048315 234.30201 
L 157.66489 233.568435 
L 158.281464 233.046417 
L 158.898039 230.972299 
L 159.514613 227.700658 
L 160.131188 229.993721 
L 160.747762 235.452542 
L 161.364337 224.643037 
L 161.980912 226.005947 
L 162.597486 225.974552 
L 163.214061 224.786058 
L 163.830635 224.183398 
L 164.44721 224.561779 
L 165.063785 225.249801 
L 165.680359 226.827756 
L 166.296934 226.231867 
L 166.913508 224.791599 
L 168.146657 225.410059 
L 169.379807 224.866085 
L 170.612956 225.501371 
L 171.22953 226.276395 
L 171.846105 227.324535 
L 172.46268 227.176589 
L 173.695829 231.05212 
L 174.928978 231.131326 
L 175.545552 230.309517 
L 176.162127 224.972786 
L 176.778702 222.173301 
L 178.011851 213.130941 
L 178.628425 213.282581 
L 179.245 212.203662 
L 179.861575 210.751492 
L 180.478149 212.946881 
L 181.094724 212.797293 
L 181.711298 213.544 
L 182.327873 214.773943 
L 182.944448 214.488106 
L 183.561022 216.110178 
L 184.177597 215.642537 
L 184.794171 215.495206 
L 186.02732 217.121793 
L 186.643895 216.127004 
L 187.26047 216.401145 
L 187.877044 215.087893 
L 188.493619 216.270436 
L 189.110193 216.519749 
L 189.726768 215.140012 
L 190.343343 215.139192 
L 190.959917 217.090193 
L 191.576492 217.033559 
L 192.193066 217.466316 
L 192.809641 217.724042 
L 193.426215 219.02724 
L 194.659365 226.172155 
L 195.275939 224.319854 
L 196.509088 224.733733 
L 197.125663 225.340497 
L 198.358812 225.57955 
L 198.975387 223.166038 
L 200.208536 226.440141 
L 200.82511 220.958953 
L 202.05826 221.713458 
L 202.674834 220.780022 
L 203.291409 221.713458 
L 203.907983 222.4181 
L 204.524558 222.389783 
L 205.141133 230.743095 
L 205.757707 235.98441 
L 206.374282 237.906273 
L 206.990856 239.147297 
L 207.607431 238.738136 
L 208.224006 239.36542 
L 208.84058 239.499207 
L 209.457155 237.222561 
L 210.073729 233.987445 
L 210.690304 233.944354 
L 211.306878 234.838186 
L 212.540028 235.462802 
L 213.156602 235.171014 
L 213.773177 235.781676 
L 214.389751 235.69652 
L 215.622901 237.535279 
L 216.239475 239.058037 
L 216.85605 240.051184 
L 217.472624 240.390783 
L 218.089199 240.547552 
L 218.705773 240.982362 
L 219.322348 240.946453 
L 219.938923 240.173275 
L 220.555497 240.069036 
L 221.172072 240.419921 
L 221.788646 241.460673 
L 222.405221 239.576566 
L 223.021796 239.847835 
L 223.63837 240.250634 
L 224.254945 242.087751 
L 224.871519 243.131172 
L 225.488094 242.980148 
L 226.104669 242.266887 
L 227.337818 249.568572 
L 227.954392 250.203448 
L 228.570967 249.465564 
L 229.187541 249.28848 
L 229.804116 249.897501 
L 230.420691 249.926228 
L 231.037265 248.296358 
L 231.65384 246.160887 
L 232.270414 246.568816 
L 232.886989 247.730634 
L 233.503564 247.442334 
L 234.120138 246.57887 
L 234.736713 246.537216 
L 235.353287 246.120258 
L 235.969862 244.844761 
L 237.203011 243.935539 
L 237.819586 245.094484 
L 238.43616 247.518667 
L 239.052735 247.942601 
L 239.669309 250.068839 
L 240.285884 253.228853 
L 240.902459 254.262014 
L 241.519033 254.847848 
L 242.135608 255.700025 
L 242.752182 254.76146 
L 243.368757 254.697029 
L 243.985331 253.637193 
L 244.601906 247.103351 
L 245.218481 246.501922 
L 245.835055 244.43478 
L 246.45163 240.634966 
L 247.068204 238.883825 
L 247.684779 238.185339 
L 248.301354 237.707233 
L 248.917928 239.950843 
L 249.534503 238.205654 
L 250.151077 237.806958 
L 250.767652 237.796288 
L 252.000801 236.162109 
L 252.617376 235.666767 
L 253.23395 235.863139 
L 253.850525 233.836626 
L 254.467099 232.805928 
L 255.083674 233.885668 
L 255.700249 229.522591 
L 256.316823 228.889357 
L 256.933398 227.753188 
L 257.549972 224.172113 
L 258.166547 223.382725 
L 258.783122 221.483844 
L 259.399696 218.577656 
L 260.016271 220.876464 
L 260.632845 219.764714 
L 261.24942 219.081617 
L 261.865994 219.941182 
L 262.482569 218.686205 
L 263.099144 217.986282 
L 263.715718 216.985132 
L 264.332293 216.566123 
L 264.948867 217.469189 
L 266.182017 217.347713 
L 266.798591 214.981191 
L 267.415166 211.872681 
L 268.03174 211.810507 
L 268.648315 210.596158 
L 269.26489 210.092403 
L 269.881464 210.038026 
L 270.498039 208.266571 
L 271.114613 212.461798 
L 271.731188 214.613891 
L 272.964337 227.413795 
L 273.580912 228.823489 
L 274.814061 228.926498 
L 275.430635 226.890751 
L 276.04721 227.658593 
L 276.663785 227.29827 
L 277.280359 227.745596 
L 277.896934 227.832599 
L 278.513508 228.324659 
L 279.130083 227.973364 
L 279.746657 226.556077 
L 281.596381 204.766958 
L 282.212956 202.338056 
L 283.446105 199.865653 
L 284.06268 200.415578 
L 284.679254 204.445622 
L 285.295829 202.494005 
L 285.912403 201.046965 
L 286.528978 200.556752 
L 287.762127 201.395798 
L 288.378702 200.441638 
L 288.995276 202.366168 
L 289.611851 204.929473 
L 290.228425 204.959637 
L 290.845 205.554089 
L 291.461575 205.226391 
L 292.078149 205.337402 
L 292.694724 205.27687 
L 293.311298 204.905465 
L 293.927873 204.310808 
L 294.544448 205.374543 
L 295.161022 205.501559 
L 295.777597 205.920158 
L 296.394171 207.013851 
L 297.010746 209.139269 
L 297.62732 209.888849 
L 298.86047 212.888195 
L 299.477044 213.244825 
L 300.093619 213.225126 
L 300.710193 214.263622 
L 301.326768 212.890041 
L 302.559917 214.17272 
L 303.176492 214.471074 
L 303.793066 213.535177 
L 304.409641 214.10521 
L 305.026215 211.218722 
L 305.64279 214.067454 
L 306.259365 214.093104 
L 306.875939 213.4334 
L 307.492514 211.891354 
L 308.109088 212.145386 
L 308.725663 210.906414 
L 309.342238 211.255042 
L 309.958812 207.528482 
L 310.575387 204.491586 
L 311.191961 202.185596 
L 311.808536 200.944777 
L 312.42511 200.148618 
L 313.041685 198.396452 
L 313.65826 199.194663 
L 314.891409 196.064197 
L 316.124558 192.453573 
L 316.741133 182.538721 
L 317.357707 183.318465 
L 317.974282 180.938399 
L 318.590856 179.180282 
L 319.207431 178.965032 
L 319.824006 176.920052 
L 320.44058 176.214383 
L 321.057155 184.060247 
L 321.673729 182.474289 
L 322.290304 179.529526 
L 322.906878 178.055194 
L 323.523453 175.827795 
L 324.140028 174.640122 
L 324.756602 174.063317 
L 325.373177 173.243149 
L 325.989751 170.851388 
L 326.606326 170.941059 
L 327.222901 170.478547 
L 327.839475 168.35785 
L 328.45605 169.981563 
L 329.072624 168.227345 
L 329.689199 168.327275 
L 330.305773 171.067664 
L 330.922348 170.814658 
L 331.538923 171.26219 
L 332.772072 175.665485 
L 333.388646 184.355113 
L 334.005221 187.359179 
L 334.621796 187.347072 
L 335.23837 187.615674 
L 335.854945 187.621624 
L 336.471519 187.461161 
L 337.088094 183.616819 
L 337.704669 178.036111 
L 338.321243 176.629084 
L 339.554392 177.756635 
L 340.170967 180.647842 
L 340.787541 184.212502 
L 341.404116 184.976446 
L 342.020691 184.563387 
L 342.637265 184.632538 
L 343.25384 185.27439 
L 343.870414 187.330041 
L 344.486989 187.456852 
L 345.103564 192.191743 
L 345.720138 195.29143 
L 347.569862 198.185716 
L 348.803011 196.853585 
L 349.419586 192.645842 
L 350.03616 192.086273 
L 350.652735 193.212592 
L 351.269309 194.105809 
L 351.885884 192.753364 
L 352.502459 194.047944 
L 353.119033 194.234056 
L 353.735608 193.479757 
L 354.352182 192.48743 
L 355.585331 191.071375 
L 356.201906 191.622941 
L 356.818481 191.505774 
L 357.435055 191.531218 
L 358.05163 189.943003 
L 358.668204 189.723444 
L 359.901354 187.582432 
L 360.517928 187.726684 
L 361.751077 185.938609 
L 362.367652 185.249767 
L 362.984227 185.513033 
L 364.217376 185.210164 
L 364.83395 184.823986 
L 365.450525 184.980755 
L 366.067099 184.984449 
L 366.683674 188.853619 
L 367.300249 193.520386 
L 367.916823 191.885591 
L 368.533398 191.279443 
L 369.149972 191.458579 
L 369.766547 190.458866 
L 370.383122 187.168962 
L 370.999696 184.801825 
L 371.616271 187.000907 
L 372.232845 189.913866 
L 372.84942 190.140812 
L 373.465994 189.502859 
L 374.082569 194.263399 
L 374.699144 196.604888 
L 375.315718 193.490632 
L 375.932293 184.638284 
L 376.548867 182.154184 
L 377.165442 182.843437 
L 377.782017 182.232774 
L 378.398591 175.783883 
L 379.015166 175.443053 
L 379.63174 178.4701 
L 380.248315 176.596253 
L 380.86489 175.742433 
L 381.481464 174.18233 
L 382.098039 173.624608 
L 382.714613 166.01041 
L 383.331188 167.884258 
L 383.947762 167.857172 
L 385.180912 175.583201 
L 386.414061 180.909672 
L 387.030635 192.870941 
L 387.64721 199.078728 
L 388.263785 202.25803 
L 388.880359 204.615524 
L 390.113508 207.375406 
L 391.346657 209.098435 
L 391.963232 207.65714 
L 392.579807 209.090022 
L 393.196381 210.140624 
L 393.812956 212.112965 
L 394.42953 213.408776 
L 395.046105 215.194389 
L 395.66268 217.885942 
L 396.279254 217.489914 
L 396.895829 217.43841 
L 397.512403 220.626536 
L 398.128978 219.61923 
L 399.362127 220.61997 
L 399.978702 224.193863 
L 400.595276 224.24742 
L 401.211851 225.420523 
L 401.828425 212.245932 
L 402.445 215.197057 
L 403.061575 214.887417 
L 403.678149 213.925869 
L 404.294724 211.372824 
L 405.527873 214.68612 
L 406.144448 228.381293 
L 406.761022 228.291006 
L 407.377597 227.860711 
L 407.994171 228.387448 
L 408.610746 230.664095 
L 409.22732 232.00033 
L 409.843895 232.377274 
L 410.46047 231.90676 
L 411.077044 230.994665 
L 411.693619 232.320025 
L 412.310193 233.003942 
L 412.926768 232.395331 
L 413.543343 233.440598 
L 414.159917 234.184638 
L 415.393066 238.269469 
L 416.009641 238.295529 
L 416.626215 237.752171 
L 417.24279 237.024957 
L 417.859365 236.054792 
L 418.475939 236.022987 
L 419.092514 235.773058 
L 419.709088 236.589737 
L 420.325663 236.553212 
L 420.942238 237.073589 
L 421.558812 238.550382 
L 422.175387 240.641737 
L 422.791961 241.686183 
L 423.408536 243.011132 
L 424.641685 244.048807 
L 425.25826 244.63423 
L 426.491409 246.5208 
L 427.724558 248.173036 
L 428.341133 248.711059 
L 428.957707 248.424195 
L 429.574282 248.963655 
L 430.807431 254.054151 
L 431.424006 252.864015 
L 432.657155 255.677659 
L 433.273729 256.662599 
L 433.890304 256.975317 
L 434.506878 256.982088 
L 435.123453 257.167996 
L 435.740028 256.629562 
L 436.356602 252.755056 
L 436.973177 229.954528 
L 437.589751 229.684901 
L 438.206326 229.554191 
L 438.822901 229.182992 
L 439.439475 225.221278 
L 440.05605 227.381989 
L 440.672624 230.803013 
L 441.289199 253.582816 
L 442.522348 253.635962 
L 443.138923 253.327347 
L 443.755497 256.54851 
L 444.372072 257.15712 
L 444.988646 257.280853 
L 445.605221 257.583927 
L 446.221796 257.522984 
L 446.83837 257.077094 
L 447.454945 255.997559 
L 448.071519 255.656729 
L 448.688094 257.16184 
L 449.304669 257.064782 
L 449.921243 256.568619 
L 450.537818 256.720669 
L 451.154392 257.64918 
L 451.770967 260.684024 
L 452.387541 262.771686 
L 453.004116 262.645285 
L 454.237265 264.549501 
L 454.85384 265.006472 
L 455.470414 264.529187 
L 456.086989 263.323047 
L 456.703564 261.817731 
L 457.320138 261.457817 
L 457.936713 261.642494 
L 458.553287 261.202554 
L 459.786436 261.847074 
L 460.403011 261.824092 
L 461.019586 261.533535 
L 461.63616 262.210681 
L 462.252735 262.357806 
L 462.869309 262.746241 
L 463.485884 262.419159 
L 464.102459 263.075991 
L 464.719033 264.59998 
L 465.952182 264.85709 
L 466.568757 264.792043 
L 467.185331 264.553811 
L 467.801906 264.650047 
L 468.418481 264.187331 
L 469.035055 262.978318 
L 469.65163 263.251228 
L 470.268204 262.781125 
L 470.884779 262.452606 
L 472.117928 263.103898 
L 472.734503 263.952997 
L 473.351077 265.028633 
L 473.967652 265.411939 
L 474.584227 266.260629 
L 475.200801 266.717394 
L 475.817376 266.951933 
L 476.43395 266.790649 
L 477.050525 266.503786 
L 477.667099 265.298876 
L 478.283674 265.474934 
L 478.900249 265.294157 
L 479.516823 265.600719 
L 480.133398 265.581431 
L 480.749972 265.899895 
L 481.366547 265.828486 
L 481.983122 266.270683 
L 483.216271 266.337167 
L 483.832845 266.389902 
L 484.44942 266.574988 
L 485.682569 266.024038 
L 486.299144 266.054612 
L 486.915718 266.495783 
L 488.148867 267.877776 
L 488.765442 268.846916 
L 489.998591 270.144778 
L 491.23174 272.363149 
L 491.848315 273.408006 
L 492.46489 273.962445 
L 494.931188 274.216067 
L 495.547762 274.596089 
L 496.164337 274.572902 
L 496.780912 274.713051 
L 497.397486 274.447733 
L 498.630635 272.842281 
L 499.24721 271.751051 
L 499.863785 270.410097 
L 500.480359 268.595346 
L 501.096934 267.259521 
L 501.713508 267.23736 
L 502.330083 267.886394 
L 502.946657 266.921564 
L 503.563232 264.845189 
L 504.179807 262.158971 
L 504.796381 257.396789 
L 506.02953 237.159771 
L 506.646105 231.44466 
L 507.26268 226.875566 
L 507.879254 215.777761 
L 509.112403 189.689176 
L 509.728978 179.876717 
L 510.345552 180.028767 
L 510.962127 179.286163 
L 511.578702 170.983944 
L 512.195276 157.217979 
L 512.811851 135.124966 
L 514.045 108.02887 
L 514.661575 84.113719 
L 515.278149 65.744803 
L 515.894724 63.02678 
L 516.511298 50.725707 
L 517.127873 46.164206 
L 517.744448 33.869699 
L 518.361022 15.507759 
L 518.977597 7.2 
L 519.594171 10.964726 
L 520.210746 7.83426 
L 521.443895 20.319599 
L 522.06047 8.53172 
L 524.526768 42.51521 
L 525.143343 41.23643 
L 525.759917 42.579847 
L 526.376492 68.129382 
L 526.993066 79.368773 
L 527.609641 84.117412 
L 528.226215 84.78122 
L 528.84279 86.884887 
L 529.459365 97.61293 
L 531.925663 126.522956 
L 533.158812 134.092626 
L 533.775387 138.547015 
L 534.391961 140.833511 
L 535.008536 145.804172 
L 536.241685 161.590084 
L 536.85826 164.374795 
L 537.474834 168.581513 
L 538.091409 185.246279 
L 538.707983 206.533283 
L 539.324558 213.863285 
L 539.941133 217.773494 
L 540.557707 219.237156 
L 541.174282 221.600395 
L 541.790856 221.28665 
L 542.407431 210.573792 
L 543.024006 206.851952 
L 543.64058 206.66153 
L 544.873729 213.291404 
L 545.490304 213.684559 
L 546.106878 214.668268 
L 546.723453 219.755685 
L 547.340028 219.354527 
L 547.956602 222.857629 
L 548.573177 223.274587 
L 549.189751 224.949189 
L 549.806326 225.037423 
L 550.422901 225.908274 
L 551.039475 227.577541 
L 551.65605 227.786225 
L 552.272624 229.187096 
L 552.889199 232.837323 
L 553.505773 234.951044 
L 554.122348 235.513691 
L 554.738923 236.409781 
L 555.972072 241.604721 
L 557.205221 244.374453 
L 557.821796 246.892615 
L 558.43837 247.59582 
L 559.054945 246.637351 
L 559.671519 247.178042 
L 560.288094 248.530487 
L 560.904669 249.521993 
L 562.137818 247.975638 
L 562.754392 247.975638 
L 563.987541 249.859334 
L 564.604116 249.895038 
L 565.220691 250.540174 
L 566.45384 257.80164 
L 567.070414 258.759699 
L 567.686989 258.648893 
L 568.303564 260.340937 
L 568.920138 258.26805 
L 570.153287 260.246137 
L 570.769862 259.356408 
L 571.386436 259.12782 
L 572.003011 259.541084 
L 572.619586 257.897261 
L 573.23616 261.14079 
L 573.852735 260.883064 
L 574.469309 259.640809 
L 575.085884 257.982212 
L 575.702459 257.447062 
L 576.319033 257.438444 
L 577.552182 257.762858 
L 578.168757 257.400482 
L 578.785331 256.250771 
L 580.018481 256.420878 
L 580.635055 255.761995 
L 581.25163 256.026492 
L 581.868204 255.344011 
L 582.484779 255.413367 
L 583.101354 254.205995 
L 583.717928 253.645195 
L 584.334503 253.585689 
L 584.951077 252.80574 
L 586.184227 261.740167 
L 586.800801 266.119864 
L 587.417376 258.957713 
L 588.03395 262.518885 
L 588.650525 257.899724 
L 589.267099 258.050542 
L 589.883674 251.316019 
L 590.500249 248.366125 
L 591.116823 242.349581 
L 591.733398 246.428872 
L 592.349972 241.455133 
L 592.966547 245.684627 
L 593.583122 243.364479 
L 594.199696 241.608619 
L 594.816271 236.149798 
L 595.432845 233.697298 
L 596.04942 234.609188 
L 596.665994 239.582927 
L 597.282569 241.264506 
L 598.515718 228.291006 
L 599.132293 226.519141 
L 599.748867 225.739398 
L 600.365442 221.573514 
L 600.982017 215.869894 
L 601.598591 213.463358 
L 602.215166 217.047307 
L 602.83174 222.506334 
L 603.448315 218.263707 
L 604.06489 227.512494 
L 604.681464 239.104206 
L 605.298039 244.807826 
L 605.914613 247.214361 
L 606.531188 226.17708 
L 607.147762 222.089376 
L 607.764337 221.75778 
L 608.997486 194.583094 
L 610.230635 194.583094 
L 610.84721 201.876982 
L 611.463785 199.357999 
L 612.080359 214.112803 
L 612.696934 197.899262 
L 613.313508 194.685692 
L 613.930083 186.932577 
L 614.546657 183.121066 
L 615.163232 195.771178 
L 615.779807 196.191213 
L 616.396381 180.35708 
L 617.012956 196.570415 
L 617.62953 197.582235 
L 618.246105 196.377121 
L 618.86268 195.681917 
L 619.479254 195.981093 
L 620.095829 198.144471 
L 620.712403 199.158549 
L 621.328978 200.527409 
L 621.945552 192.966973 
L 622.562127 193.686799 
L 623.178702 195.966729 
L 624.411851 198.304934 
L 625.645 204.397196 
L 625.645 204.397196 
" clip-path="url(#p942ba05777)" style="fill: none; stroke: #42537f; stroke-width: 1.5; stroke-linecap: square"/>
   </g>
   <g id="line2d_28">
    <path d="M 67.645 279 
L 105.25605 278.899659 
L 109.572072 278.706775 
L 110.805221 278.612385 
L 112.03837 278.211638 
L 113.888094 277.925185 
L 114.504669 277.517871 
L 118.204116 277.336068 
L 118.820691 277.657815 
L 119.437265 277.454055 
L 121.286989 277.325808 
L 121.903564 276.761109 
L 124.986436 275.704146 
L 125.603011 275.140063 
L 126.219586 275.470018 
L 126.83616 275.222142 
L 127.452735 275.16838 
L 128.685884 274.714282 
L 129.302459 274.578032 
L 129.919033 274.611274 
L 130.535608 274.386995 
L 131.152182 274.613121 
L 131.768757 274.598552 
L 132.385331 274.717565 
L 134.85163 274.172565 
L 136.701354 273.372712 
L 137.934503 273.220662 
L 138.551077 273.418061 
L 139.784227 273.318951 
L 142.250525 272.226489 
L 144.100249 269.865302 
L 144.716823 269.548685 
L 145.333398 269.065654 
L 145.949972 270.174737 
L 146.566547 270.500998 
L 147.183122 270.973769 
L 147.799696 271.595102 
L 148.416271 272.425734 
L 149.032845 272.91451 
L 149.64942 273.75294 
L 150.265994 272.862801 
L 150.882569 272.517867 
L 151.499144 273.380099 
L 152.115718 273.051171 
L 152.732293 272.183193 
L 153.965442 272.142359 
L 154.582017 272.416295 
L 155.198591 272.926207 
L 155.815166 272.200429 
L 156.43174 272.723268 
L 157.048315 273.829068 
L 158.281464 274.1463 
L 162.597486 273.992609 
L 163.830635 274.19801 
L 165.680359 274.219145 
L 166.296934 274.211142 
L 167.530083 273.986248 
L 168.763232 274.065658 
L 169.996381 274.155739 
L 170.612956 273.98912 
L 172.46268 273.84179 
L 174.312403 273.405544 
L 175.545552 273.209377 
L 177.395276 272.757125 
L 178.628425 274.409566 
L 179.245 272.42635 
L 180.478149 271.996054 
L 181.094724 272.928874 
L 181.711298 272.529974 
L 182.327873 272.529974 
L 182.944448 268.147403 
L 183.561022 270.097994 
L 184.794171 269.367907 
L 185.410746 267.770459 
L 186.02732 267.430449 
L 186.643895 267.430449 
L 187.26047 268.909705 
L 187.877044 268.733442 
L 188.493619 268.783305 
L 189.110193 270.370289 
L 189.726768 270.146625 
L 190.343343 268.243435 
L 190.959917 268.243435 
L 191.576492 269.195953 
L 192.193066 268.162998 
L 192.809641 268.368194 
L 193.426215 266.761922 
L 194.04279 266.715958 
L 194.659365 268.583649 
L 195.275939 266.735246 
L 195.892514 266.804602 
L 196.509088 267.020674 
L 197.125663 266.904738 
L 197.742238 267.086131 
L 198.358812 267.722853 
L 198.975387 267.726957 
L 199.591961 267.941182 
L 200.208536 267.878597 
L 202.05826 268.792128 
L 202.674834 270.022482 
L 203.291409 269.120236 
L 203.907983 269.378988 
L 204.524558 269.916601 
L 205.141133 270.215366 
L 205.757707 270.886971 
L 206.374282 270.98485 
L 206.990856 269.633431 
L 207.607431 270.808176 
L 208.224006 270.828696 
L 208.84058 270.970691 
L 209.457155 270.865631 
L 210.073729 270.323299 
L 211.306878 270.458933 
L 211.923453 270.78581 
L 212.540028 270.845112 
L 213.156602 270.7854 
L 213.773177 270.940733 
L 214.389751 271.810968 
L 215.006326 271.09463 
L 215.622901 271.14203 
L 216.239475 269.871663 
L 216.85605 271.167269 
L 218.089199 271.529439 
L 218.705773 270.829311 
L 219.322348 271.772596 
L 219.938923 272.406241 
L 220.555497 274.134194 
L 221.172072 273.463819 
L 221.788646 274.604297 
L 222.405221 274.307789 
L 223.021796 274.632409 
L 224.254945 274.725157 
L 224.871519 274.831038 
L 226.104669 273.294122 
L 226.721243 274.280088 
L 227.337818 274.080432 
L 227.954392 274.681656 
L 228.570967 274.059297 
L 229.187541 274.665035 
L 229.804116 275.649359 
L 230.420691 275.680344 
L 231.037265 275.408254 
L 231.65384 275.531782 
L 232.270414 274.866537 
L 233.503564 274.868179 
L 234.120138 274.752654 
L 234.736713 274.246436 
L 235.353287 274.887878 
L 235.969862 274.958055 
L 236.586436 275.228708 
L 237.203011 275.911394 
L 237.819586 275.364342 
L 238.43616 275.49854 
L 239.052735 276.170761 
L 239.669309 276.170761 
L 240.285884 276.55222 
L 240.902459 275.041774 
L 241.519033 274.938356 
L 242.135608 275.485408 
L 243.368757 275.407638 
L 243.985331 274.930969 
L 244.601906 274.685965 
L 245.218481 276.20031 
L 245.835055 276.27418 
L 246.45163 275.816388 
L 248.301354 275.988137 
L 249.534503 276.024662 
L 250.151077 276.553041 
L 251.384227 275.833625 
L 252.000801 276.29511 
L 253.23395 276.47835 
L 255.083674 276.449417 
L 255.700249 276.47876 
L 256.316823 276.035127 
L 256.933398 276.361183 
L 257.549972 276.322606 
L 258.166547 276.708785 
L 258.783122 275.996755 
L 259.399696 276.79866 
L 260.632845 276.915622 
L 261.24942 276.664462 
L 261.865994 276.885048 
L 262.482569 276.329172 
L 263.099144 276.530264 
L 263.715718 276.530264 
L 264.948867 277.306109 
L 265.565442 276.73033 
L 266.182017 276.492919 
L 266.798591 277.048794 
L 267.415166 276.877045 
L 268.03174 276.877045 
L 268.648315 277.252964 
L 269.26489 275.931093 
L 269.881464 276.426025 
L 270.498039 276.466859 
L 271.114613 276.12254 
L 271.731188 276.805227 
L 272.347762 276.019532 
L 272.964337 275.698606 
L 273.580912 277.020477 
L 274.814061 276.859193 
L 275.430635 276.877661 
L 276.04721 275.925347 
L 276.663785 276.711042 
L 277.280359 277.031968 
L 277.896934 276.424178 
L 279.130083 276.831697 
L 279.746657 276.635735 
L 280.363232 277.588048 
L 280.979807 276.734024 
L 281.596381 276.734024 
L 282.212956 277.341813 
L 282.82953 275.77658 
L 283.446105 275.332126 
L 284.679254 275.26277 
L 285.295829 272.876344 
L 285.912403 272.876344 
L 286.528978 271.943935 
L 287.145552 273.791517 
L 287.762127 274.235971 
L 288.378702 272.232029 
L 288.995276 272.232029 
L 289.611851 273.483518 
L 290.228425 273.483518 
L 290.845 272.152413 
L 291.461575 272.152413 
L 292.078149 269.423105 
L 292.694724 272.018215 
L 293.311298 270.637043 
L 293.927873 271.453312 
L 294.544448 268.716616 
L 295.161022 269.909624 
L 295.777597 269.909624 
L 296.394171 271.720271 
L 297.010746 268.514909 
L 297.62732 269.896081 
L 298.243895 269.690886 
L 298.86047 270.787452 
L 299.477044 269.05642 
L 300.093619 269.05642 
L 300.710193 267.906709 
L 301.326768 271.112071 
L 301.943343 269.732335 
L 302.559917 269.303066 
L 303.793066 269.027488 
L 304.409641 268.370246 
L 305.026215 270.438619 
L 305.64279 269.16066 
L 306.875939 268.843838 
L 308.109088 269.148348 
L 308.725663 269.80559 
L 309.342238 269.098075 
L 309.958812 268.993015 
L 310.575387 269.014766 
L 311.191961 267.804726 
L 311.808536 267.849664 
L 312.42511 270.678493 
L 313.65826 268.424212 
L 314.274834 269.807232 
L 314.891409 269.936505 
L 315.507983 272.129226 
L 316.124558 271.934906 
L 316.741133 270.566251 
L 319.207431 270.281644 
L 319.824006 269.822826 
L 320.44058 269.906546 
L 321.673729 270.53978 
L 322.290304 271.007421 
L 322.906878 267.596248 
L 323.523453 269.121673 
L 324.140028 267.288659 
L 324.756602 268.938228 
L 325.373177 267.024162 
L 325.989751 267.935847 
L 326.606326 266.219384 
L 327.222901 269.630558 
L 327.839475 265.689569 
L 328.45605 266.536617 
L 329.072624 264.774191 
L 329.689199 265.958581 
L 330.305773 265.293952 
L 330.922348 268.358139 
L 331.538923 265.139439 
L 332.772072 267.517042 
L 333.388646 268.127089 
L 334.005221 268.230302 
L 334.621796 267.285786 
L 335.23837 267.285786 
L 335.854945 268.784126 
L 336.471519 267.480107 
L 337.088094 266.652552 
L 337.704669 265.49689 
L 338.321243 265.595179 
L 338.937818 266.049893 
L 339.554392 264.739308 
L 340.170967 264.811947 
L 340.787541 268.766274 
L 341.404116 268.218196 
L 342.020691 267.127581 
L 342.637265 268.754167 
L 343.870414 266.815273 
L 344.486989 268.462994 
L 345.103564 265.278767 
L 345.720138 265.745998 
L 346.336713 267.401517 
L 346.953287 265.877939 
L 347.569862 266.606383 
L 348.186436 268.9253 
L 348.803011 265.815969 
L 349.419586 269.000197 
L 350.03616 267.962522 
L 350.652735 269.70566 
L 351.269309 268.858612 
L 351.885884 269.573103 
L 352.502459 268.637 
L 353.119033 271.746331 
L 353.735608 270.562762 
L 354.352182 273.867645 
L 354.968757 269.640818 
L 355.585331 270.93745 
L 356.201906 271.579507 
L 356.818481 271.883607 
L 357.435055 269.366061 
L 358.05163 270.54963 
L 358.668204 267.797955 
L 359.284779 272.024782 
L 359.901354 271.046203 
L 360.517928 271.046203 
L 361.134503 270.799558 
L 361.751077 271.207487 
L 362.367652 271.207487 
L 362.984227 272.575117 
L 363.600801 270.422408 
L 364.217376 271.564323 
L 364.83395 271.564323 
L 365.450525 271.013577 
L 366.067099 272.099268 
L 366.683674 271.112482 
L 367.300249 272.496527 
L 368.533398 274.431112 
L 369.149972 272.807193 
L 369.766547 274.236586 
L 370.383122 273.216148 
L 370.999696 274.202934 
L 371.616271 272.000363 
L 372.232845 272.262193 
L 372.84942 272.262193 
L 373.465994 273.233795 
L 374.082569 272.94057 
L 374.699144 274.382891 
L 375.315718 272.880038 
L 375.932293 274.508266 
L 376.548867 275.375218 
L 377.165442 274.232483 
L 377.782017 274.8848 
L 378.398591 274.38761 
L 379.015166 274.989655 
L 379.63174 273.981118 
L 380.248315 273.844868 
L 380.86489 273.844868 
L 381.481464 274.259158 
L 382.098039 273.462588 
L 382.714613 274.253002 
L 383.331188 273.638441 
L 383.947762 275.56646 
L 384.564337 274.879054 
L 385.180912 274.879054 
L 385.797486 275.033977 
L 386.414061 275.408254 
L 387.030635 275.408254 
L 387.64721 275.212292 
L 388.263785 274.669344 
L 388.880359 276.067343 
L 389.496934 276.067343 
L 390.113508 275.08979 
L 390.730083 275.191157 
L 391.346657 274.704022 
L 391.963232 274.983909 
L 392.579807 275.587185 
L 393.196381 275.587185 
L 393.812956 274.637334 
L 394.42953 275.785814 
L 395.66268 276.021379 
L 396.895829 276.136083 
L 397.512403 275.719126 
L 398.128978 276.268845 
L 405.527873 277.138259 
L 406.144448 277.470061 
L 406.761022 277.258093 
L 407.994171 277.062952 
L 409.843895 276.44203 
L 410.46047 276.135057 
L 411.077044 276.386832 
L 412.310193 276.660153 
L 413.543343 277.061311 
L 414.776492 277.198382 
L 416.009641 277.262608 
L 416.626215 277.365821 
L 417.24279 277.195714 
L 420.942238 277.288462 
L 422.175387 277.408502 
L 423.408536 277.517871 
L 424.641685 277.946936 
L 425.25826 277.473754 
L 426.491409 277.983255 
L 427.107983 277.779291 
L 427.724558 277.808428 
L 428.957707 277.409938 
L 429.574282 277.785857 
L 430.807431 277.454876 
L 431.424006 277.691877 
L 435.123453 277.814789 
L 435.740028 277.792013 
L 436.356602 277.958837 
L 436.973177 277.749948 
L 438.206326 277.708498 
L 440.05605 277.749332 
L 440.672624 277.564861 
L 441.289199 277.801247 
L 442.522348 277.829974 
L 443.755497 277.79386 
L 444.372072 278.008905 
L 444.988646 277.787498 
L 448.071519 277.79386 
L 448.688094 277.604464 
L 449.304669 277.83059 
L 450.537818 277.915746 
L 451.154392 277.822792 
L 452.387541 277.961094 
L 456.703564 277.777239 
L 457.320138 278.007468 
L 457.936713 277.813764 
L 460.403011 277.793244 
L 461.019586 277.803093 
L 461.63616 277.598308 
L 462.252735 277.821356 
L 464.102459 277.783189 
L 464.719033 277.94591 
L 469.035055 277.830179 
L 469.65163 277.60077 
L 472.734503 277.46452 
L 473.351077 277.16514 
L 473.967652 277.343455 
L 475.200801 277.227109 
L 476.43395 276.988877 
L 478.283674 276.945991 
L 480.133398 276.974718 
L 483.216271 277.013705 
L 484.44942 276.969178 
L 485.682569 277.267122 
L 486.299144 276.890178 
L 486.915718 277.196124 
L 487.532293 276.896744 
L 488.765442 276.907004 
L 489.382017 276.751465 
L 489.998591 276.751465 
L 490.615166 277.217875 
L 491.23174 276.914596 
L 491.848315 277.197356 
L 492.46489 277.121844 
L 493.081464 276.764803 
L 494.314613 276.753722 
L 494.931188 276.456189 
L 496.164337 276.313372 
L 496.780912 276.392988 
L 497.397486 275.908111 
L 498.014061 276.131569 
L 498.630635 275.70825 
L 499.24721 275.766321 
L 500.480359 274.751423 
L 501.096934 274.086383 
L 501.713508 274.409772 
L 502.330083 274.202729 
L 502.946657 274.216477 
L 503.563232 273.586526 
L 504.179807 272.628878 
L 504.796381 271.312753 
L 505.412956 269.618657 
L 506.02953 267.199604 
L 506.646105 263.993011 
L 507.26268 261.842559 
L 509.112403 249.453457 
L 509.728978 244.067685 
L 510.345552 237.171057 
L 510.962127 231.740757 
L 512.195276 226.542329 
L 513.428425 216.140342 
L 514.045 211.956401 
L 514.661575 210.940477 
L 515.278149 209.228324 
L 515.894724 208.323616 
L 516.511298 206.661941 
L 517.127873 207.757891 
L 517.744448 209.161225 
L 518.977597 216.974873 
L 519.594171 221.903264 
L 520.210746 224.97648 
L 520.82732 234.106869 
L 521.443895 234.719994 
L 522.06047 240.363287 
L 523.293619 247.644041 
L 523.910193 250.460763 
L 524.526768 251.635714 
L 525.143343 249.244978 
L 525.759917 256.123549 
L 526.993066 259.792859 
L 527.609641 261.259804 
L 528.226215 262.134758 
L 529.459365 264.176045 
L 530.075939 264.908799 
L 530.692514 265.9159 
L 531.309088 267.332981 
L 531.925663 267.666014 
L 532.542238 268.672704 
L 533.158812 269.112849 
L 533.775387 269.952715 
L 535.008536 272.616361 
L 535.62511 273.482287 
L 536.241685 274.605528 
L 538.707983 275.570769 
L 539.941133 275.745185 
L 541.174282 276.684366 
L 543.024006 277.07116 
L 543.64058 277.237164 
L 544.257155 276.910492 
L 547.956602 277.291746 
L 548.573177 277.887634 
L 549.806326 277.994336 
L 551.039475 277.950629 
L 553.505773 278.165059 
L 559.671519 278.395699 
L 560.904669 278.360815 
L 567.070414 278.138383 
L 568.303564 278.041326 
L 571.386436 277.94591 
L 573.852735 277.90918 
L 580.018481 278.190913 
L 583.101354 278.489063 
L 584.334503 278.458078 
L 584.951077 278.704313 
L 585.567652 278.488447 
L 586.184227 277.986949 
L 586.800801 278.380104 
L 589.267099 278.016497 
L 589.883674 278.218615 
L 590.500249 278.691591 
L 591.116823 278.235646 
L 591.733398 278.284277 
L 592.349972 278.129355 
L 593.583122 278.17142 
L 596.04942 277.966019 
L 596.665994 278.031066 
L 597.899144 277.887839 
L 600.365442 277.913694 
L 604.06489 277.549061 
L 607.147762 276.873762 
L 608.997486 275.974184 
L 609.614061 275.799357 
L 610.230635 275.423849 
L 610.84721 275.586364 
L 611.463785 275.373371 
L 612.080359 275.003403 
L 612.696934 275.257846 
L 613.313508 275.16838 
L 613.930083 274.597731 
L 614.546657 274.772968 
L 615.163232 274.397049 
L 615.779807 274.19883 
L 616.396381 273.847125 
L 617.012956 272.94529 
L 617.62953 272.251318 
L 618.246105 271.997696 
L 618.86268 271.279921 
L 619.479254 270.145394 
L 620.095829 269.352928 
L 620.712403 268.012179 
L 621.328978 269.265104 
L 621.945552 265.212078 
L 622.562127 264.263253 
L 623.178702 265.516794 
L 623.795276 262.947128 
L 624.411851 262.067249 
L 625.028425 261.735652 
L 625.645 258.861681 
L 625.645 258.861681 
" clip-path="url(#p942ba05777)" style="fill: none; stroke: #84c8fa; stroke-width: 1.5; stroke-linecap: square"/>
   </g>
   <g id="line2d_29">
    <path d="M 67.645 279 
L 100.323453 278.896581 
L 105.872624 278.640087 
L 115.121243 278.374974 
L 117.587541 278.336807 
L 124.369862 278.097139 
L 127.452735 277.373003 
L 128.685884 277.099477 
L 129.919033 276.935115 
L 131.152182 276.657896 
L 132.385331 276.554888 
L 133.618481 275.989779 
L 134.235055 275.761806 
L 134.85163 275.345875 
L 136.084779 274.97919 
L 137.317928 274.314356 
L 138.551077 273.682558 
L 139.167652 272.78852 
L 139.784227 272.510275 
L 140.400801 271.973278 
L 142.250525 271.681079 
L 142.867099 271.800298 
L 143.483674 271.113713 
L 144.716823 270.765701 
L 145.333398 270.855166 
L 145.949972 270.729176 
L 147.183122 270.622064 
L 147.799696 270.457497 
L 148.416271 270.134314 
L 149.032845 270.293135 
L 150.265994 270.059212 
L 150.882569 269.859762 
L 151.499144 269.337128 
L 152.115718 270.528905 
L 153.965442 270.102098 
L 154.582017 270.881226 
L 155.198591 271.119458 
L 155.815166 271.214669 
L 156.43174 271.794757 
L 157.048315 272.067873 
L 157.66489 272.177653 
L 158.281464 272.425734 
L 158.898039 272.066847 
L 159.514613 272.031348 
L 160.131188 272.440508 
L 163.214061 273.331058 
L 163.830635 273.772229 
L 167.530083 274.682682 
L 168.146657 274.552383 
L 169.379807 274.85874 
L 171.22953 275.209214 
L 173.695829 275.549223 
L 174.928978 275.845731 
L 178.011851 275.974184 
L 181.094724 275.967823 
L 184.177597 276.299214 
L 187.877044 276.219393 
L 189.726768 276.25797 
L 191.576492 276.355027 
L 193.426215 276.564532 
L 196.509088 276.524108 
L 205.141133 276.425204 
L 208.224006 276.490046 
L 212.540028 276.53601 
L 215.006326 276.821642 
L 215.622901 276.848728 
L 218.705773 276.378214 
L 219.938923 276.308653 
L 222.405221 276.522262 
L 223.63837 276.650714 
L 226.104669 276.703449 
L 232.270414 276.893666 
L 233.503564 276.801123 
L 238.43616 277.006729 
L 240.285884 277.014321 
L 241.519033 277.044074 
L 242.752182 277.005292 
L 255.083674 277.01822 
L 257.549972 276.993801 
L 261.24942 276.86617 
L 263.099144 276.73587 
L 264.332293 276.71966 
L 265.565442 276.601672 
L 267.415166 276.477734 
L 268.648315 276.214673 
L 271.114613 276.089709 
L 271.731188 275.835882 
L 272.347762 275.984444 
L 272.964337 275.914061 
L 274.197486 276.120078 
L 275.430635 275.709481 
L 276.04721 275.958794 
L 276.663785 275.56646 
L 278.513508 275.180692 
L 279.130083 275.077684 
L 279.746657 275.197108 
L 280.363232 274.854431 
L 281.596381 274.518525 
L 282.82953 273.818603 
L 284.679254 273.349731 
L 286.528978 273.273193 
L 288.378702 273.210403 
L 292.694724 273.018955 
L 293.927873 273.114371 
L 295.777597 273.314026 
L 296.394171 273.349936 
L 298.243895 273.814704 
L 299.477044 273.915866 
L 301.326768 274.089461 
L 304.409641 274.03611 
L 305.64279 274.129064 
L 306.875939 274.184467 
L 309.958812 274.165999 
L 311.808536 273.75253 
L 312.42511 273.83625 
L 313.041685 273.508757 
L 316.124558 273.035986 
L 316.741133 272.606101 
L 317.357707 272.687564 
L 321.057155 271.751461 
L 321.673729 271.674923 
L 322.290304 271.465623 
L 322.906878 271.558987 
L 323.523453 271.211386 
L 324.756602 270.851678 
L 325.989751 270.409891 
L 326.606326 270.345665 
L 327.222901 270.059417 
L 327.839475 270.099841 
L 329.072624 269.802307 
L 329.689199 269.703813 
L 330.305773 269.48097 
L 330.922348 269.451422 
L 332.155497 269.03508 
L 333.388646 268.829474 
L 334.005221 268.834193 
L 334.621796 269.12434 
L 335.23837 269.091509 
L 335.854945 269.256486 
L 336.471519 269.178512 
L 337.088094 268.958542 
L 337.704669 268.936381 
L 340.170967 268.484745 
L 340.787541 268.65239 
L 341.404116 268.967981 
L 342.020691 268.981114 
L 342.637265 269.105667 
L 343.25384 269.064423 
L 343.870414 269.257512 
L 345.720138 269.439726 
L 346.953287 269.803538 
L 350.03616 270.311397 
L 350.652735 270.598466 
L 351.269309 270.50818 
L 352.502459 270.93745 
L 354.352182 271.298389 
L 354.968757 271.157214 
L 355.585331 271.500301 
L 357.435055 271.305366 
L 358.668204 271.256324 
L 360.517928 270.93827 
L 361.134503 270.932525 
L 361.751077 270.755031 
L 362.367652 270.441286 
L 364.217376 270.100661 
L 364.83395 270.142727 
L 366.683674 269.886847 
L 370.383122 268.667369 
L 373.465994 268.629818 
L 374.082569 268.522706 
L 375.932293 268.725234 
L 376.548867 269.001633 
L 377.782017 269.195953 
L 380.248315 270.05716 
L 383.331188 271.438948 
L 383.947762 272.097011 
L 387.030635 273.287146 
L 388.263785 273.524352 
L 389.496934 274.112443 
L 391.346657 274.754295 
L 391.963232 274.807031 
L 392.579807 274.683913 
L 394.42953 275.369267 
L 398.745552 276.455368 
L 399.362127 276.689496 
L 401.828425 276.987235 
L 402.445 277.098246 
L 404.911298 277.140311 
L 406.761022 277.35392 
L 411.693619 277.682438 
L 414.159917 277.726555 
L 415.393066 277.813148 
L 417.24279 277.869987 
L 425.874834 278.199531 
L 427.724558 278.268477 
L 432.657155 278.3918 
L 440.05605 278.263553 
L 444.372072 278.003775 
L 448.688094 277.948987 
L 453.004116 277.660072 
L 455.470414 277.218491 
L 464.719033 276.225959 
L 465.952182 276.360773 
L 467.185331 276.179585 
L 469.035055 275.909547 
L 470.884779 275.470839 
L 478.283674 275.609551 
L 480.749972 275.661876 
L 482.599696 275.886155 
L 487.532293 276.56289 
L 488.148867 276.991955 
L 488.765442 276.823489 
L 491.848315 277.090449 
L 492.46489 276.796403 
L 493.081464 277.092295 
L 494.931188 277.222595 
L 499.863785 277.329502 
L 501.713508 277.09722 
L 502.946657 276.893871 
L 504.179807 276.681904 
L 504.796381 276.41084 
L 506.646105 275.07358 
L 508.495829 273.248364 
L 509.728978 271.470753 
L 512.195276 267.565468 
L 512.811851 266.598176 
L 513.428425 265.24019 
L 514.045 263.314839 
L 515.278149 260.782108 
L 517.744448 252.457523 
L 518.361022 249.96501 
L 519.594171 243.634517 
L 520.210746 241.696648 
L 520.82732 240.173891 
L 522.06047 235.471626 
L 522.677044 233.649898 
L 524.526768 229.817047 
L 525.143343 229.489555 
L 525.759917 228.763572 
L 526.376492 228.488405 
L 526.993066 227.884309 
L 527.609641 228.13198 
L 528.226215 227.784378 
L 528.84279 228.308243 
L 529.459365 228.553247 
L 530.075939 228.982311 
L 530.692514 229.058644 
L 531.309088 230.237493 
L 531.925663 230.509788 
L 534.391961 235.646863 
L 536.241685 238.702843 
L 537.474834 241.128256 
L 538.091409 245.124648 
L 538.707983 242.684666 
L 540.557707 247.665587 
L 541.790856 249.955982 
L 542.407431 247.542059 
L 543.024006 251.774016 
L 544.257155 254.042454 
L 544.873729 254.757972 
L 545.490304 255.75153 
L 546.106878 256.288937 
L 546.723453 256.634076 
L 548.573177 258.553888 
L 549.806326 260.279789 
L 550.422901 260.96268 
L 552.272624 264.043694 
L 552.889199 265.415222 
L 554.122348 267.280041 
L 554.738923 267.936872 
L 555.355497 268.338235 
L 557.205221 270.380548 
L 558.43837 271.498249 
L 562.137818 273.586732 
L 563.370967 273.997739 
L 564.604116 274.298761 
L 565.837265 274.678168 
L 566.45384 274.881722 
L 567.070414 275.25764 
L 568.303564 275.558662 
L 569.536713 275.630481 
L 570.769862 275.750315 
L 572.619586 275.577746 
L 574.469309 276.016249 
L 575.085884 276.092787 
L 576.319033 276.015633 
L 576.935608 276.060982 
L 578.168757 275.812079 
L 579.401906 275.407433 
L 580.018481 275.896825 
L 580.635055 275.131445 
L 581.868204 274.826524 
L 583.101354 274.249514 
L 583.717928 273.919969 
L 584.334503 272.970734 
L 584.951077 273.261907 
L 585.567652 273.134275 
L 586.800801 272.271222 
L 587.417376 271.864729 
L 588.650525 271.281768 
L 589.267099 271.197843 
L 591.116823 270.38732 
L 591.733398 269.900801 
L 592.966547 268.718668 
L 593.583122 268.472228 
L 594.199696 268.357524 
L 595.432845 267.822578 
L 597.282569 267.636671 
L 597.899144 267.19037 
L 598.515718 267.108908 
L 600.365442 265.251271 
L 602.215166 264.041437 
L 604.681464 263.848758 
L 605.298039 263.927348 
L 605.914613 263.873587 
L 606.531188 264.206209 
L 607.147762 264.208056 
L 607.764337 264.434181 
L 608.380912 265.333144 
L 608.997486 265.738611 
L 609.614061 265.541828 
L 610.230635 265.539366 
L 611.463785 265.21413 
L 612.080359 265.837925 
L 612.696934 265.365565 
L 613.313508 265.21844 
L 614.546657 265.791141 
L 615.163232 266.176704 
L 615.779807 266.259808 
L 616.396381 265.700444 
L 617.012956 265.662278 
L 618.86268 266.562882 
L 620.095829 266.746327 
L 620.712403 266.897761 
L 622.562127 267.775999 
L 623.795276 268.482693 
L 624.411851 268.667164 
L 625.028425 268.969007 
L 625.645 269.111618 
L 625.645 269.111618 
" clip-path="url(#p942ba05777)" style="fill: none; stroke: #2e6507; stroke-width: 1.5; stroke-linecap: square"/>
   </g>
   <g id="line2d_30">
    <path d="M 67.645 279 
L 105.872624 278.893503 
L 108.955497 278.843846 
L 115.121243 278.866828 
L 119.437265 278.845282 
L 121.903564 278.79029 
L 136.701354 278.53913 
L 138.551077 278.34953 
L 141.63395 278.04584 
L 150.265994 277.62129 
L 158.281464 276.323427 
L 158.898039 276.065906 
L 161.980912 275.442522 
L 165.063785 275.381989 
L 166.913508 275.122622 
L 169.379807 274.458403 
L 170.612956 274.317844 
L 171.846105 274.0515 
L 172.46268 274.056835 
L 173.079254 273.820655 
L 173.695829 273.867029 
L 174.312403 273.544051 
L 174.928978 273.355271 
L 176.162127 272.689411 
L 176.778702 272.178473 
L 177.395276 271.978407 
L 178.011851 271.651941 
L 178.628425 271.659944 
L 179.861575 271.359127 
L 181.094724 271.33676 
L 182.327873 271.159677 
L 182.944448 270.916725 
L 183.561022 270.930268 
L 184.177597 270.755236 
L 186.02732 269.89444 
L 186.643895 269.7112 
L 187.26047 269.852375 
L 187.877044 269.330151 
L 189.726768 269.175844 
L 190.343343 269.405048 
L 191.576492 269.136242 
L 192.193066 269.713252 
L 192.809641 269.754907 
L 193.426215 269.953946 
L 194.04279 269.804769 
L 194.659365 269.436648 
L 195.275939 269.211754 
L 195.892514 269.235761 
L 196.509088 268.382968 
L 197.125663 267.986735 
L 197.742238 267.195295 
L 198.358812 266.809732 
L 198.975387 266.079646 
L 201.441685 264.923368 
L 202.05826 264.844778 
L 202.674834 264.450392 
L 203.291409 264.662359 
L 203.907983 264.519953 
L 205.141133 264.580486 
L 206.374282 263.995883 
L 206.990856 264.020712 
L 208.224006 263.677009 
L 208.84058 263.252254 
L 209.457155 263.109848 
L 211.306878 263.094253 
L 211.923453 263.004378 
L 212.540028 263.312171 
L 214.389751 263.643973 
L 216.239475 263.081531 
L 216.85605 262.67668 
L 217.472624 262.59255 
L 218.089199 261.971833 
L 220.555497 260.849617 
L 221.172072 260.874241 
L 221.788646 261.114935 
L 222.405221 261.230871 
L 223.021796 260.971709 
L 224.254945 260.251882 
L 224.871519 260.167342 
L 225.488094 259.903665 
L 226.104669 259.358665 
L 227.954392 260.316519 
L 229.187541 259.682669 
L 229.804116 259.457775 
L 230.420691 259.409143 
L 232.270414 257.380989 
L 233.503564 257.709097 
L 235.969862 258.970845 
L 236.586436 259.874117 
L 237.819586 260.981558 
L 240.285884 262.857868 
L 240.902459 263.529268 
L 242.135608 264.300804 
L 243.368757 264.913519 
L 243.985331 265.176374 
L 245.218481 265.164063 
L 247.068204 265.047717 
L 247.684779 264.983285 
L 248.301354 265.070288 
L 248.917928 265.348534 
L 250.151077 265.67972 
L 250.767652 266.141615 
L 252.000801 266.713906 
L 253.23395 268.167718 
L 253.850525 268.524553 
L 254.467099 268.740829 
L 255.083674 269.102384 
L 255.700249 269.316198 
L 257.549972 268.581187 
L 260.016271 269.467222 
L 261.24942 270.427743 
L 261.865994 271.336145 
L 262.482569 271.793731 
L 263.099144 271.924031 
L 264.948867 271.80789 
L 265.565442 271.42561 
L 266.182017 270.733895 
L 266.798591 270.417894 
L 269.881464 269.988625 
L 270.498039 269.750598 
L 271.114613 269.392941 
L 271.731188 270.896205 
L 272.347762 270.139649 
L 272.964337 270.566866 
L 274.197486 270.099635 
L 275.430635 268.727286 
L 276.04721 266.349889 
L 276.663785 267.706027 
L 277.280359 267.392693 
L 278.513508 267.011029 
L 280.363232 265.766517 
L 280.979807 263.865174 
L 281.596381 262.67155 
L 282.212956 262.276754 
L 283.446105 262.179286 
L 285.295829 262.646927 
L 285.912403 263.082968 
L 287.145552 263.301091 
L 287.762127 263.638022 
L 288.378702 263.763807 
L 289.611851 264.475631 
L 290.228425 264.592593 
L 290.845 265.050795 
L 291.461575 265.175348 
L 293.311298 266.186143 
L 299.477044 268.102465 
L 303.176492 269.794099 
L 303.793066 269.673649 
L 304.409641 270.062495 
L 305.026215 270.840392 
L 305.64279 271.184095 
L 307.492514 270.982593 
L 308.109088 271.092578 
L 308.725663 270.649765 
L 309.342238 269.936915 
L 309.958812 269.502105 
L 310.575387 269.38658 
L 311.191961 269.961744 
L 313.041685 270.325966 
L 314.891409 270.726919 
L 315.507983 270.150729 
L 316.741133 270.326172 
L 319.824006 269.993344 
L 320.44058 269.702377 
L 323.523453 268.975163 
L 325.989751 268.681528 
L 326.606326 268.441449 
L 327.839475 268.460737 
L 328.45605 267.480722 
L 329.689199 266.108373 
L 330.305773 264.546218 
L 330.922348 264.392527 
L 331.538923 262.801029 
L 332.155497 261.530457 
L 332.772072 262.153021 
L 333.388646 262.143582 
L 334.005221 261.579909 
L 334.621796 261.651112 
L 335.23837 259.452234 
L 335.854945 258.224548 
L 336.471519 256.325872 
L 337.088094 253.406348 
L 337.704669 251.552404 
L 338.937818 249.279451 
L 339.554392 248.021396 
L 340.170967 247.381596 
L 340.787541 247.111558 
L 341.404116 246.015403 
L 342.020691 246.076962 
L 343.25384 245.660619 
L 343.870414 245.22068 
L 344.486989 245.061653 
L 345.103564 244.606734 
L 345.720138 244.932585 
L 346.336713 244.501469 
L 347.569862 245.101256 
L 348.186436 245.85022 
L 348.803011 246.304524 
L 349.419586 246.543166 
L 350.652735 248.632469 
L 351.885884 249.964395 
L 353.119033 249.737858 
L 353.735608 250.141478 
L 354.352182 250.114393 
L 354.968757 249.802085 
L 355.585331 249.763508 
L 356.201906 249.463717 
L 356.818481 249.517478 
L 357.435055 249.436221 
L 358.05163 248.934517 
L 358.668204 247.947321 
L 359.284779 247.240421 
L 359.901354 246.262048 
L 361.134503 241.980434 
L 361.751077 238.866179 
L 364.217376 231.353758 
L 364.83395 232.590883 
L 365.450525 234.836135 
L 366.067099 235.708832 
L 366.683674 234.642635 
L 367.300249 233.875408 
L 367.916823 234.353514 
L 368.533398 235.062465 
L 369.149972 233.928964 
L 369.766547 231.722289 
L 370.383122 231.800674 
L 371.616271 235.29844 
L 372.232845 236.573527 
L 372.84942 237.585347 
L 373.465994 238.812417 
L 374.082569 239.677933 
L 375.315718 241.71409 
L 375.932293 242.538156 
L 376.548867 243.681096 
L 377.165442 244.373016 
L 377.782017 244.558308 
L 379.63174 246.939399 
L 380.248315 248.28774 
L 381.481464 249.328903 
L 382.098039 251.932016 
L 382.714613 253.137131 
L 383.331188 252.841444 
L 383.947762 252.701295 
L 385.180912 251.350286 
L 385.797486 250.999402 
L 386.414061 248.991972 
L 387.030635 248.442458 
L 387.64721 249.395797 
L 388.880359 250.713359 
L 389.496934 251.641049 
L 390.113508 252.278182 
L 390.730083 252.506359 
L 391.346657 253.014219 
L 391.963232 253.681105 
L 392.579807 254.075286 
L 393.196381 255.382382 
L 393.812956 255.889831 
L 394.42953 255.920611 
L 395.046105 256.390099 
L 395.66268 256.71164 
L 396.279254 256.655417 
L 396.895829 257.057806 
L 397.512403 256.494954 
L 398.128978 256.357678 
L 399.362127 257.207188 
L 401.211851 260.04012 
L 402.445 260.60092 
L 403.061575 260.483753 
L 403.678149 260.526639 
L 404.911298 259.925211 
L 405.527873 259.799015 
L 406.144448 260.237929 
L 406.761022 260.397982 
L 408.610746 261.362812 
L 409.22732 261.803367 
L 411.077044 261.970807 
L 411.693619 261.958905 
L 412.310193 262.164717 
L 413.543343 263.144937 
L 414.159917 263.230503 
L 414.776492 264.272282 
L 415.393066 265.015091 
L 416.009641 265.510433 
L 416.626215 266.853234 
L 417.24279 267.723264 
L 417.859365 268.058348 
L 418.475939 268.627356 
L 420.325663 268.905191 
L 420.942238 268.392407 
L 421.558812 268.403282 
L 422.175387 268.971675 
L 422.791961 269.740953 
L 424.02511 270.667822 
L 425.874834 271.297978 
L 428.341133 272.649808 
L 428.957707 272.78852 
L 429.574282 273.089132 
L 430.190856 273.627771 
L 430.807431 273.996507 
L 435.123453 275.506338 
L 435.740028 275.746006 
L 437.589751 275.984033 
L 438.206326 276.011735 
L 438.822901 276.253866 
L 443.755497 276.948864 
L 446.221796 277.084293 
L 449.921243 277.732711 
L 451.154392 277.859933 
L 452.387541 277.884966 
L 459.786436 277.3334 
L 463.485884 277.266301 
L 469.035055 277.331143 
L 471.501354 277.160831 
L 473.967652 277.081625 
L 475.200801 277.040791 
L 476.43395 277.02889 
L 477.050525 277.188122 
L 477.667099 277.183607 
L 479.516823 276.859398 
L 480.749972 276.722327 
L 481.366547 276.450033 
L 481.983122 276.308858 
L 482.599696 276.381292 
L 486.915718 275.820697 
L 487.532293 275.80777 
L 488.765442 275.408459 
L 489.382017 275.351825 
L 490.615166 274.838631 
L 491.848315 273.71108 
L 493.081464 272.932773 
L 494.314613 272.212741 
L 494.931188 271.2317 
L 495.547762 269.938557 
L 496.164337 268.265186 
L 496.780912 266.08375 
L 497.397486 265.464059 
L 498.014061 264.567559 
L 498.630635 261.504807 
L 499.24721 256.463969 
L 499.863785 250.121164 
L 501.096934 236.0788 
L 502.330083 230.801987 
L 502.946657 225.849998 
L 504.179807 205.241166 
L 505.412956 180.213033 
L 506.02953 163.454903 
L 507.879254 132.675134 
L 508.495829 125.303888 
L 509.112403 121.447439 
L 509.728978 115.431101 
L 510.345552 116.464672 
L 510.962127 118.122243 
L 511.578702 115.227752 
L 512.195276 117.989071 
L 512.811851 118.555616 
L 513.428425 118.287425 
L 514.045 122.736479 
L 514.661575 122.429916 
L 515.278149 121.477193 
L 516.511298 130.599374 
L 517.127873 138.769857 
L 519.594171 182.014651 
L 520.210746 189.124478 
L 521.443895 208.653776 
L 522.06047 215.895543 
L 523.293619 224.910202 
L 523.910193 226.737675 
L 526.993066 245.848373 
L 527.609641 248.005801 
L 528.226215 249.313924 
L 530.075939 256.86328 
L 530.692514 258.599236 
L 531.309088 258.827824 
L 531.925663 259.549087 
L 533.775387 260.645242 
L 534.391961 261.562467 
L 535.62511 264.076936 
L 536.241685 264.530829 
L 536.85826 264.703193 
L 537.474834 266.281559 
L 538.091409 269.037337 
L 538.707983 269.944918 
L 541.174282 270.910364 
L 542.407431 269.728026 
L 543.024006 270.147651 
L 544.257155 271.343737 
L 547.956602 273.08667 
L 548.573177 271.280742 
L 549.189751 271.545239 
L 549.806326 271.547086 
L 550.422901 271.759053 
L 551.039475 271.838259 
L 551.65605 272.05946 
L 552.272624 272.674431 
L 552.889199 275.10477 
L 554.122348 275.240404 
L 555.972072 275.826238 
L 556.588646 275.579182 
L 560.288094 276.479991 
L 560.904669 276.673286 
L 562.754392 276.658306 
L 565.220691 276.927318 
L 565.837265 277.214592 
L 567.070414 277.279023 
L 568.303564 278.031476 
L 569.536713 278.677432 
L 571.386436 279 
L 572.003011 276.679852 
L 575.085884 276.679852 
L 575.702459 274.331797 
L 576.319033 276.651945 
L 579.401906 276.651945 
L 580.018481 275.379116 
L 583.717928 275.379116 
L 584.334503 272.025603 
L 588.03395 272.025603 
L 588.650525 270.076654 
L 592.349972 270.076654 
L 592.966547 268.375376 
L 596.665994 268.375376 
L 597.282569 269.551763 
L 600.982017 269.551763 
L 601.598591 279 
L 602.215166 279 
L 602.83174 271.441615 
L 605.298039 271.441615 
L 605.914613 265.688133 
L 606.531188 265.688133 
L 607.147762 273.246517 
L 609.614061 273.246517 
L 610.230635 273.730574 
L 613.930083 273.730574 
L 614.546657 273.428115 
L 618.246105 273.428115 
L 618.86268 272.465542 
L 622.562127 272.465542 
L 623.178702 270.862758 
L 625.645 270.862758 
L 625.645 270.862758 
" clip-path="url(#p942ba05777)" style="fill: none; stroke: #3536be; stroke-width: 1.5; stroke-linecap: square"/>
   </g>
   <g id="line2d_31">
    <path d="M 67.645 279 
L 125.603011 278.913407 
L 128.069309 278.846308 
L 136.701354 278.688718 
L 139.167652 278.571346 
L 141.63395 278.415397 
L 144.100249 278.236877 
L 147.183122 278.179833 
L 149.032845 278.298641 
L 155.815166 277.861779 
L 158.281464 277.664997 
L 160.747762 277.529978 
L 165.063785 277.482578 
L 167.530083 277.203101 
L 168.763232 277.205153 
L 169.379807 277.126768 
L 170.612956 277.206384 
L 171.22953 277.087165 
L 171.846105 277.105223 
L 173.079254 276.837853 
L 174.928978 276.590797 
L 175.545552 276.642301 
L 176.162127 276.554683 
L 177.395276 276.875403 
L 180.478149 277.071365 
L 181.711298 276.879713 
L 186.02732 276.721917 
L 187.26047 276.979643 
L 190.343343 276.935936 
L 191.576492 276.87725 
L 192.193066 277.032583 
L 194.659365 277.053719 
L 196.509088 277.168628 
L 197.742238 277.554601 
L 200.208536 277.60077 
L 203.907983 277.997208 
L 205.757707 277.965608 
L 206.990856 277.887018 
L 210.073729 277.77334 
L 214.389751 278.350145 
L 218.705773 278.345836 
L 219.938923 278.364304 
L 235.353287 278.782082 
L 240.285884 278.833381 
L 245.835055 278.858825 
L 253.850525 278.854927 
L 258.166547 278.852669 
L 268.03174 278.49686 
L 275.430635 277.705625 
L 276.663785 277.482578 
L 280.363232 277.201049 
L 280.979807 276.913365 
L 282.82953 276.616241 
L 284.06268 276.571098 
L 287.145552 276.241143 
L 288.378702 275.937043 
L 288.995276 275.844705 
L 290.228425 276.063854 
L 290.845 276.157218 
L 295.777597 275.823365 
L 296.394171 275.877331 
L 299.477044 276.715761 
L 301.943343 277.026017 
L 305.026215 277.56876 
L 305.64279 277.770262 
L 306.875939 277.855418 
L 309.342238 277.630524 
L 310.575387 277.502482 
L 313.041685 277.647555 
L 315.507983 277.890712 
L 335.854945 277.860138 
L 337.088094 277.624778 
L 338.937818 277.421634 
L 340.787541 277.582713 
L 341.404116 277.622931 
L 342.020691 277.811917 
L 342.637265 277.569581 
L 345.720138 277.24927 
L 346.336713 276.983952 
L 346.953287 277.236753 
L 348.186436 277.238805 
L 348.803011 277.200433 
L 349.419586 277.473344 
L 350.03616 277.391266 
L 350.652735 277.083062 
L 351.269309 277.180324 
L 351.885884 276.905772 
L 352.502459 277.209462 
L 353.119033 277.206384 
L 353.735608 276.463986 
L 354.352182 276.854063 
L 354.968757 276.738743 
L 355.585331 276.738743 
L 356.201906 277.024786 
L 356.818481 276.696678 
L 357.435055 276.53642 
L 358.05163 276.80892 
L 358.668204 276.325479 
L 359.284779 276.499485 
L 359.901354 275.91796 
L 360.517928 275.672957 
L 361.134503 276.001064 
L 362.984227 275.749495 
L 364.217376 275.494026 
L 364.83395 275.957153 
L 365.450525 274.788358 
L 366.683674 274.614352 
L 367.300249 274.587266 
L 367.916823 274.763939 
L 368.533398 275.138011 
L 369.149972 274.562437 
L 369.766547 275.025564 
L 370.383122 275.00566 
L 370.999696 275.12652 
L 372.84942 275.165302 
L 373.465994 275.740876 
L 374.082569 275.253742 
L 374.699144 275.93294 
L 375.315718 274.980216 
L 375.932293 275.595803 
L 376.548867 274.975496 
L 377.165442 274.938766 
L 377.782017 274.497185 
L 378.398591 275.16243 
L 379.015166 274.580494 
L 379.63174 275.481304 
L 380.248315 275.481304 
L 380.86489 275.796074 
L 381.481464 275.902981 
L 382.714613 276.37329 
L 383.947762 276.54114 
L 384.564337 276.093403 
L 385.180912 276.526981 
L 385.797486 276.560633 
L 387.030635 276.302702 
L 388.263785 276.51549 
L 389.496934 276.727047 
L 391.346657 276.826977 
L 392.579807 276.960765 
L 393.196381 277.288668 
L 393.812956 277.049615 
L 395.66268 277.234906 
L 396.279254 277.537365 
L 396.895829 277.28559 
L 398.745552 277.376286 
L 399.362127 277.42225 
L 399.978702 277.705215 
L 400.595276 277.248449 
L 401.211851 277.617186 
L 401.828425 277.40686 
L 402.445 277.71527 
L 403.061575 277.713628 
L 403.678149 277.912873 
L 404.294724 277.584355 
L 404.911298 277.855418 
L 405.527873 277.842696 
L 406.144448 278.053022 
L 406.761022 277.865062 
L 407.377597 277.876348 
L 407.994171 277.745228 
L 408.610746 277.924569 
L 410.46047 278.007468 
L 411.077044 278.229285 
L 414.159917 278.295358 
L 414.776492 278.007673 
L 415.393066 278.1035 
L 416.009641 278.029014 
L 416.626215 278.22908 
L 417.24279 277.96171 
L 417.859365 278.13469 
L 418.475939 278.13469 
L 419.092514 278.27094 
L 419.709088 278.022653 
L 420.325663 278.1351 
L 420.942238 278.034965 
L 421.558812 278.181269 
L 422.175387 278.188041 
L 422.791961 278.079287 
L 424.02511 278.300693 
L 426.491409 278.39734 
L 431.424006 278.557803 
L 432.04058 278.480034 
L 432.657155 278.557803 
L 435.123453 278.484138 
L 435.740028 278.565395 
L 436.973177 278.530923 
L 438.822901 278.576476 
L 442.522348 278.627365 
L 444.988646 278.542824 
L 446.221796 278.531333 
L 448.071519 278.495219 
L 449.304669 278.548775 
L 450.537818 278.47552 
L 453.004116 278.465055 
L 453.620691 278.358148 
L 454.237265 278.442278 
L 455.470414 278.381745 
L 456.086989 278.480239 
L 457.320138 278.272581 
L 457.936713 278.358558 
L 458.553287 278.269708 
L 459.786436 278.42853 
L 461.019586 278.243238 
L 461.63616 278.353223 
L 462.252735 278.346657 
L 462.869309 278.204867 
L 465.335608 278.420322 
L 465.952182 278.277916 
L 466.568757 278.021422 
L 467.185331 278.252062 
L 468.418481 278.085648 
L 469.035055 277.96171 
L 469.65163 277.976073 
L 470.268204 277.739072 
L 470.884779 277.912257 
L 472.117928 277.854392 
L 473.967652 277.638116 
L 475.200801 278.004801 
L 475.817376 277.794065 
L 476.43395 277.852956 
L 477.667099 277.719373 
L 478.283674 277.948987 
L 479.516823 277.412811 
L 480.133398 277.623547 
L 480.749972 277.482167 
L 481.366547 277.74769 
L 481.983122 277.741945 
L 482.599696 277.518692 
L 483.216271 277.767594 
L 483.832845 277.819304 
L 484.44942 277.410964 
L 485.065994 277.580456 
L 485.682569 277.318626 
L 486.299144 277.236138 
L 486.915718 277.45939 
L 488.148867 277.200639 
L 488.765442 277.223621 
L 489.382017 277.005908 
L 489.998591 277.267738 
L 490.615166 277.185249 
L 491.23174 276.822873 
L 492.46489 276.733408 
L 493.081464 276.467474 
L 493.698039 276.611727 
L 494.314613 276.611727 
L 494.931188 276.133826 
L 495.547762 276.496202 
L 496.164337 276.473835 
L 496.780912 276.011735 
L 497.397486 276.663026 
L 498.014061 276.567405 
L 498.630635 276.319939 
L 499.24721 276.594491 
L 500.480359 274.712025 
L 501.096934 273.971474 
L 501.713508 273.971474 
L 502.946657 269.867969 
L 503.563232 270.459344 
L 504.796381 268.731185 
L 505.412956 268.111084 
L 506.02953 264.209697 
L 506.646105 265.429381 
L 507.26268 265.926775 
L 507.879254 263.625916 
L 508.495829 262.636667 
L 509.112403 264.742591 
L 509.728978 264.094583 
L 510.345552 267.995969 
L 510.962127 264.245607 
L 511.578702 264.98267 
L 512.195276 265.425072 
L 512.811851 266.087443 
L 513.428425 261.807061 
L 514.045 262.744805 
L 514.661575 262.744805 
L 515.278149 267.589681 
L 515.894724 265.406194 
L 516.511298 265.695109 
L 517.127873 266.494757 
L 517.744448 269.423516 
L 518.361022 271.391343 
L 519.594171 269.232068 
L 520.210746 271.793116 
L 520.82732 272.577784 
L 522.06047 273.805675 
L 522.677044 273.805675 
L 523.293619 273.958546 
L 523.910193 275.005044 
L 524.526768 275.060037 
L 525.143343 275.844911 
L 525.759917 275.871381 
L 526.376492 276.568225 
L 526.993066 276.164195 
L 527.609641 276.763367 
L 528.226215 276.612958 
L 528.84279 276.927934 
L 529.459365 276.701397 
L 530.075939 277.324167 
L 530.692514 277.324167 
L 531.925663 277.687773 
L 533.158812 277.88866 
L 534.391961 278.022858 
L 535.62511 278.104936 
L 538.091409 278.50753 
L 538.707983 278.605203 
L 539.324558 278.517995 
L 540.557707 278.691591 
L 541.790856 278.650552 
L 544.873729 278.425452 
L 546.106878 278.509377 
L 546.723453 278.477572 
L 547.956602 278.549185 
L 549.189751 278.55411 
L 551.65605 278.631468 
L 553.505773 278.67497 
L 555.972072 278.654656 
L 557.205221 278.698157 
L 562.754392 278.833997 
L 564.604116 278.809578 
L 567.070414 278.876472 
L 569.536713 278.910535 
L 575.085884 278.860467 
L 581.25163 278.91115 
L 583.101354 278.86888 
L 593.583122 278.680921 
L 594.199696 278.775311 
L 594.816271 278.670661 
L 596.665994 278.713957 
L 604.06489 278.463003 
L 604.681464 278.345015 
L 605.298039 278.475725 
L 606.531188 278.338654 
L 607.147762 278.439816 
L 608.380912 278.117864 
L 610.230635 277.850083 
L 610.84721 277.971559 
L 613.313508 277.21213 
L 613.930083 277.388188 
L 614.546657 277.268148 
L 615.163232 276.773421 
L 615.779807 276.982105 
L 617.012956 276.354206 
L 617.62953 276.709605 
L 618.246105 276.156603 
L 618.86268 275.975005 
L 619.479254 275.573231 
L 620.095829 275.573231 
L 620.712403 274.911065 
L 621.328978 274.656622 
L 621.945552 274.656622 
L 622.562127 273.684405 
L 623.178702 273.795005 
L 623.795276 274.691505 
L 625.028425 273.049119 
L 625.645 272.659247 
L 625.645 272.659247 
" clip-path="url(#p942ba05777)" style="fill: none; stroke: #28aaaf; stroke-width: 1.5; stroke-linecap: square"/>
   </g>
   <g id="text_19">
    <!-- Brazil -->
    <g style="fill: #42537f" transform="translate(642.385 208.260321)scale(0.14 -0.14)">
     <defs>
      <path id="DejaVuSans-42" d="M 1259 2228 
L 1259 519 
L 2272 519 
Q 2781 519 3026 730 
Q 3272 941 3272 1375 
Q 3272 1813 3026 2020 
Q 2781 2228 2272 2228 
L 1259 2228 
z
M 1259 4147 
L 1259 2741 
L 2194 2741 
Q 2656 2741 2882 2914 
Q 3109 3088 3109 3444 
Q 3109 3797 2882 3972 
Q 2656 4147 2194 4147 
L 1259 4147 
z
M 628 4666 
L 2241 4666 
Q 2963 4666 3353 4366 
Q 3744 4066 3744 3513 
Q 3744 3084 3544 2831 
Q 3344 2578 2956 2516 
Q 3422 2416 3680 2098 
Q 3938 1781 3938 1306 
Q 3938 681 3513 340 
Q 3088 0 2303 0 
L 628 0 
L 628 4666 
z
" transform="scale(0.015625)"/>
      <path id="DejaVuSans-72" d="M 2631 2963 
Q 2534 3019 2420 3045 
Q 2306 3072 2169 3072 
Q 1681 3072 1420 2755 
Q 1159 2438 1159 1844 
L 1159 0 
L 581 0 
L 581 3500 
L 1159 3500 
L 1159 2956 
Q 1341 3275 1631 3429 
Q 1922 3584 2338 3584 
Q 2397 3584 2469 3576 
Q 2541 3569 2628 3553 
L 2631 2963 
z
" transform="scale(0.015625)"/>
      <path id="DejaVuSans-61" d="M 2194 1759 
Q 1497 1759 1228 1600 
Q 959 1441 959 1056 
Q 959 750 1161 570 
Q 1363 391 1709 391 
Q 2188 391 2477 730 
Q 2766 1069 2766 1631 
L 2766 1759 
L 2194 1759 
z
M 3341 1997 
L 3341 0 
L 2766 0 
L 2766 531 
Q 2569 213 2275 61 
Q 1981 -91 1556 -91 
Q 1019 -91 701 211 
Q 384 513 384 1019 
Q 384 1609 779 1909 
Q 1175 2209 1959 2209 
L 2766 2209 
L 2766 2266 
Q 2766 2663 2505 2880 
Q 2244 3097 1772 3097 
Q 1472 3097 1187 3025 
Q 903 2953 641 2809 
L 641 3341 
Q 956 3463 1253 3523 
Q 1550 3584 1831 3584 
Q 2591 3584 2966 3190 
Q 3341 2797 3341 1997 
z
" transform="scale(0.015625)"/>
      <path id="DejaVuSans-7a" d="M 353 3500 
L 3084 3500 
L 3084 2975 
L 922 459 
L 3084 459 
L 3084 0 
L 275 0 
L 275 525 
L 2438 3041 
L 353 3041 
L 353 3500 
z
" transform="scale(0.015625)"/>
      <path id="DejaVuSans-69" d="M 603 3500 
L 1178 3500 
L 1178 0 
L 603 0 
L 603 3500 
z
M 603 4863 
L 1178 4863 
L 1178 4134 
L 603 4134 
L 603 4863 
z
" transform="scale(0.015625)"/>
      <path id="DejaVuSans-6c" d="M 603 4863 
L 1178 4863 
L 1178 0 
L 603 0 
L 603 4863 
z
" transform="scale(0.015625)"/>
     </defs>
     <use xlink:href="#DejaVuSans-42"/>
     <use xlink:href="#DejaVuSans-72" x="68.603516"/>
     <use xlink:href="#DejaVuSans-61" x="109.716797"/>
     <use xlink:href="#DejaVuSans-7a" x="170.996094"/>
     <use xlink:href="#DejaVuSans-69" x="223.486328"/>
     <use xlink:href="#DejaVuSans-6c" x="251.269531"/>
    </g>
   </g>
   <g id="text_20">
    <!-- Peru -->
    <g style="fill: #84c8fa" transform="translate(642.385 250.736951)scale(0.14 -0.14)">
     <defs>
      <path id="DejaVuSans-50" d="M 1259 4147 
L 1259 2394 
L 2053 2394 
Q 2494 2394 2734 2622 
Q 2975 2850 2975 3272 
Q 2975 3691 2734 3919 
Q 2494 4147 2053 4147 
L 1259 4147 
z
M 628 4666 
L 2053 4666 
Q 2838 4666 3239 4311 
Q 3641 3956 3641 3272 
Q 3641 2581 3239 2228 
Q 2838 1875 2053 1875 
L 1259 1875 
L 1259 0 
L 628 0 
L 628 4666 
z
" transform="scale(0.015625)"/>
      <path id="DejaVuSans-65" d="M 3597 1894 
L 3597 1613 
L 953 1613 
Q 991 1019 1311 708 
Q 1631 397 2203 397 
Q 2534 397 2845 478 
Q 3156 559 3463 722 
L 3463 178 
Q 3153 47 2828 -22 
Q 2503 -91 2169 -91 
Q 1331 -91 842 396 
Q 353 884 353 1716 
Q 353 2575 817 3079 
Q 1281 3584 2069 3584 
Q 2775 3584 3186 3129 
Q 3597 2675 3597 1894 
z
M 3022 2063 
Q 3016 2534 2758 2815 
Q 2500 3097 2075 3097 
Q 1594 3097 1305 2825 
Q 1016 2553 972 2059 
L 3022 2063 
z
" transform="scale(0.015625)"/>
      <path id="DejaVuSans-75" d="M 544 1381 
L 544 3500 
L 1119 3500 
L 1119 1403 
Q 1119 906 1312 657 
Q 1506 409 1894 409 
Q 2359 409 2629 706 
Q 2900 1003 2900 1516 
L 2900 3500 
L 3475 3500 
L 3475 0 
L 2900 0 
L 2900 538 
Q 2691 219 2414 64 
Q 2138 -91 1772 -91 
Q 1169 -91 856 284 
Q 544 659 544 1381 
z
M 1991 3584 
L 1991 3584 
z
" transform="scale(0.015625)"/>
     </defs>
     <use xlink:href="#DejaVuSans-50"/>
     <use xlink:href="#DejaVuSans-65" x="56.677734"/>
     <use xlink:href="#DejaVuSans-72" x="118.201172"/>
     <use xlink:href="#DejaVuSans-75" x="159.314453"/>
    </g>
   </g>
   <g id="text_21">
    <!-- Chile -->
    <g style="fill: #2e6507" transform="translate(642.385 264.736951)scale(0.14 -0.14)">
     <defs>
      <path id="DejaVuSans-43" d="M 4122 4306 
L 4122 3641 
Q 3803 3938 3442 4084 
Q 3081 4231 2675 4231 
Q 1875 4231 1450 3742 
Q 1025 3253 1025 2328 
Q 1025 1406 1450 917 
Q 1875 428 2675 428 
Q 3081 428 3442 575 
Q 3803 722 4122 1019 
L 4122 359 
Q 3791 134 3420 21 
Q 3050 -91 2638 -91 
Q 1578 -91 968 557 
Q 359 1206 359 2328 
Q 359 3453 968 4101 
Q 1578 4750 2638 4750 
Q 3056 4750 3426 4639 
Q 3797 4528 4122 4306 
z
" transform="scale(0.015625)"/>
      <path id="DejaVuSans-68" d="M 3513 2113 
L 3513 0 
L 2938 0 
L 2938 2094 
Q 2938 2591 2744 2837 
Q 2550 3084 2163 3084 
Q 1697 3084 1428 2787 
Q 1159 2491 1159 1978 
L 1159 0 
L 581 0 
L 581 4863 
L 1159 4863 
L 1159 2956 
Q 1366 3272 1645 3428 
Q 1925 3584 2291 3584 
Q 2894 3584 3203 3211 
Q 3513 2838 3513 2113 
z
" transform="scale(0.015625)"/>
     </defs>
     <use xlink:href="#DejaVuSans-43"/>
     <use xlink:href="#DejaVuSans-68" x="69.824219"/>
     <use xlink:href="#DejaVuSans-69" x="133.203125"/>
     <use xlink:href="#DejaVuSans-6c" x="160.986328"/>
     <use xlink:href="#DejaVuSans-65" x="188.769531"/>
    </g>
   </g>
   <g id="text_22">
    <!-- Argentina -->
    <g style="fill: #3536be" transform="translate(642.385 278.736951)scale(0.14 -0.14)">
     <defs>
      <path id="DejaVuSans-41" d="M 2188 4044 
L 1331 1722 
L 3047 1722 
L 2188 4044 
z
M 1831 4666 
L 2547 4666 
L 4325 0 
L 3669 0 
L 3244 1197 
L 1141 1197 
L 716 0 
L 50 0 
L 1831 4666 
z
" transform="scale(0.015625)"/>
      <path id="DejaVuSans-67" d="M 2906 1791 
Q 2906 2416 2648 2759 
Q 2391 3103 1925 3103 
Q 1463 3103 1205 2759 
Q 947 2416 947 1791 
Q 947 1169 1205 825 
Q 1463 481 1925 481 
Q 2391 481 2648 825 
Q 2906 1169 2906 1791 
z
M 3481 434 
Q 3481 -459 3084 -895 
Q 2688 -1331 1869 -1331 
Q 1566 -1331 1297 -1286 
Q 1028 -1241 775 -1147 
L 775 -588 
Q 1028 -725 1275 -790 
Q 1522 -856 1778 -856 
Q 2344 -856 2625 -561 
Q 2906 -266 2906 331 
L 2906 616 
Q 2728 306 2450 153 
Q 2172 0 1784 0 
Q 1141 0 747 490 
Q 353 981 353 1791 
Q 353 2603 747 3093 
Q 1141 3584 1784 3584 
Q 2172 3584 2450 3431 
Q 2728 3278 2906 2969 
L 2906 3500 
L 3481 3500 
L 3481 434 
z
" transform="scale(0.015625)"/>
      <path id="DejaVuSans-6e" d="M 3513 2113 
L 3513 0 
L 2938 0 
L 2938 2094 
Q 2938 2591 2744 2837 
Q 2550 3084 2163 3084 
Q 1697 3084 1428 2787 
Q 1159 2491 1159 1978 
L 1159 0 
L 581 0 
L 581 3500 
L 1159 3500 
L 1159 2956 
Q 1366 3272 1645 3428 
Q 1925 3584 2291 3584 
Q 2894 3584 3203 3211 
Q 3513 2838 3513 2113 
z
" transform="scale(0.015625)"/>
      <path id="DejaVuSans-74" d="M 1172 4494 
L 1172 3500 
L 2356 3500 
L 2356 3053 
L 1172 3053 
L 1172 1153 
Q 1172 725 1289 603 
Q 1406 481 1766 481 
L 2356 481 
L 2356 0 
L 1766 0 
Q 1100 0 847 248 
Q 594 497 594 1153 
L 594 3053 
L 172 3053 
L 172 3500 
L 594 3500 
L 594 4494 
L 1172 4494 
z
" transform="scale(0.015625)"/>
     </defs>
     <use xlink:href="#DejaVuSans-41"/>
     <use xlink:href="#DejaVuSans-72" x="68.408203"/>
     <use xlink:href="#DejaVuSans-67" x="107.771484"/>
     <use xlink:href="#DejaVuSans-65" x="171.248047"/>
     <use xlink:href="#DejaVuSans-6e" x="232.771484"/>
     <use xlink:href="#DejaVuSans-74" x="296.150391"/>
     <use xlink:href="#DejaVuSans-69" x="335.359375"/>
     <use xlink:href="#DejaVuSans-6e" x="363.142578"/>
     <use xlink:href="#DejaVuSans-61" x="426.521484"/>
    </g>
   </g>
   <g id="text_23">
    <!-- Bolivia -->
    <g style="fill: #28aaaf" transform="translate(642.385 292.736951)scale(0.14 -0.14)">
     <defs>
      <path id="DejaVuSans-6f" d="M 1959 3097 
Q 1497 3097 1228 2736 
Q 959 2375 959 1747 
Q 959 1119 1226 758 
Q 1494 397 1959 397 
Q 2419 397 2687 759 
Q 2956 1122 2956 1747 
Q 2956 2369 2687 2733 
Q 2419 3097 1959 3097 
z
M 1959 3584 
Q 2709 3584 3137 3096 
Q 3566 2609 3566 1747 
Q 3566 888 3137 398 
Q 2709 -91 1959 -91 
Q 1206 -91 779 398 
Q 353 888 353 1747 
Q 353 2609 779 3096 
Q 1206 3584 1959 3584 
z
" transform="scale(0.015625)"/>
      <path id="DejaVuSans-76" d="M 191 3500 
L 800 3500 
L 1894 563 
L 2988 3500 
L 3597 3500 
L 2284 0 
L 1503 0 
L 191 3500 
z
" transform="scale(0.015625)"/>
     </defs>
     <use xlink:href="#DejaVuSans-42"/>
     <use xlink:href="#DejaVuSans-6f" x="68.603516"/>
     <use xlink:href="#DejaVuSans-6c" x="129.785156"/>
     <use xlink:href="#DejaVuSans-69" x="157.568359"/>
     <use xlink:href="#DejaVuSans-76" x="185.351562"/>
     <use xlink:href="#DejaVuSans-69" x="244.53125"/>
     <use xlink:href="#DejaVuSans-61" x="272.314453"/>
    </g>
   </g>
  </g>
 </g>
 <defs>
  <clipPath id="p942ba05777">
   <rect x="67.645" y="7.2" width="558" height="271.8"/>
  </clipPath>
 </defs>
</svg>
